/* XPM */
static char *00[] = {
"24 24 368 2",
"  	c #758B56",
" !	c #768E55",
" #	c #788E57",
" $	c #799057",
" %	c #7C9159",
" &	c #7D9558",
" '	c #81975B",
" (	c #819A5A",
" )	c #81AA59",
" *	c #82AA59",
" +	c #82AB56",
" ,	c #83925E",
" -	c #839C5A",
" .	c #83AB5A",
" /	c #83AC59",
" 0	c #83AC5A",
" 1	c #83AD5A",
" 2	c #83AD5B",
" 3	c #84AC5C",
" 4	c #84AD5B",
" 5	c #84AE58",
" 6	c #85995D",
" 7	c #859B5D",
" 8	c #859D5E",
" 9	c #85AC5B",
" :	c #85AD5B",
" ;	c #85AD5E",
" <	c #85AE58",
" =	c #85AE5B",
" >	c #869F5D",
" ?	c #86AD5C",
" @	c #86AD5D",
" A	c #86AD5F",
" B	c #86AE5C",
" C	c #86AE5D",
" D	c #86AF5B",
" E	c #86AF60",
" F	c #879660",
" G	c #87A05F",
" H	c #87AD5E",
" I	c #87AE5C",
" J	c #87AE5D",
" K	c #87AF5A",
" L	c #87AF5D",
" M	c #87AF5E",
" N	c #87AF60",
" O	c #87B05C",
" P	c #87B05D",
" Q	c #87B05F",
" R	c #87B15C",
" S	c #889961",
" T	c #88A25E",
" U	c #88A35E",
" V	c #88AF5C",
" W	c #88AF5E",
" X	c #88AF5F",
" Y	c #88AF60",
" Z	c #88B05A",
" [	c #88B05D",
" ]	c #88B05F",
" ^	c #88B061",
" _	c #88B15A",
" `	c #88B15B",
" a	c #88B15C",
" b	c #88B25D",
" c	c #89A05F",
" d	c #89A15F",
" e	c #89AF5F",
" f	c #89B05F",
" g	c #89B060",
" h	c #89B15B",
" i	c #89B15C",
" j	c #89B15D",
" k	c #89B161",
" l	c #89B162",
" m	c #89B261",
" n	c #89B262",
" o	c #89B362",
" p	c #89B363",
" q	c #8AA05F",
" r	c #8AA15E",
" s	c #8AA15F",
" t	c #8AA160",
" u	c #8AA260",
" v	c #8AA45F",
" w	c #8AA461",
" x	c #8AA55F",
" y	c #8AA65F",
" z	c #8AA960",
" {	c #8AA961",
" |	c #8AAA61",
" }	c #8AAE61",
" ~	c #8AB060",
"! 	c #8AB15C",
"!!	c #8AB15D",
"!#	c #8AB160",
"!$	c #8AB162",
"!%	c #8AB25D",
"!&	c #8AB25E",
"!'	c #8AB25F",
"!(	c #8AB260",
"!)	c #8AB261",
"!*	c #8AB35E",
"!+	c #8AB45E",
"!,	c #8B9F60",
"!-	c #8BA15F",
"!.	c #8BA35F",
"!/	c #8BA460",
"!0	c #8BA55F",
"!1	c #8BA560",
"!2	c #8BA65F",
"!3	c #8BA75F",
"!4	c #8BA85F",
"!5	c #8BA95F",
"!6	c #8BAA60",
"!7	c #8BAC60",
"!8	c #8BAE62",
"!9	c #8BB161",
"!:	c #8BB25C",
"!;	c #8BB260",
"!<	c #8BB261",
"!=	c #8BB262",
"!>	c #8BB35E",
"!?	c #8BB35F",
"!@	c #8BB363",
"!A	c #8BB45E",
"!B	c #8BB45F",
"!C	c #8BB460",
"!D	c #8BB461",
"!E	c #8BB462",
"!F	c #8BB560",
"!G	c #8C9B62",
"!H	c #8CA25F",
"!I	c #8CA360",
"!J	c #8CA560",
"!K	c #8CA561",
"!L	c #8CA760",
"!M	c #8CA860",
"!N	c #8CAB5F",
"!O	c #8CAE60",
"!P	c #8CAE62",
"!Q	c #8CAF61",
"!R	c #8CB160",
"!S	c #8CB262",
"!T	c #8CB35E",
"!U	c #8CB360",
"!V	c #8CB361",
"!W	c #8CB362",
"!X	c #8CB363",
"!Y	c #8CB45E",
"!Z	c #8CB45F",
"![	c #8CB460",
"!]	c #8CB55E",
"!^	c #8CB55F",
"!_	c #8CB560",
"!`	c #8CB563",
"!a	c #8CB565",
"!b	c #8CB65F",
"!c	c #8CB660",
"!d	c #8CB661",
"!e	c #8DA561",
"!f	c #8DA761",
"!g	c #8DAA60",
"!h	c #8DAB60",
"!i	c #8DB160",
"!j	c #8DB262",
"!k	c #8DB360",
"!l	c #8DB362",
"!m	c #8DB45E",
"!n	c #8DB45F",
"!o	c #8DB460",
"!p	c #8DB462",
"!q	c #8DB464",
"!r	c #8DB55F",
"!s	c #8DB560",
"!t	c #8DB561",
"!u	c #8DB565",
"!v	c #8DB65F",
"!w	c #8DB660",
"!x	c #8DB666",
"!y	c #8DB762",
"!z	c #8EA261",
"!{	c #8EAC61",
"!|	c #8EB060",
"!}	c #8EB363",
"!~	c #8EB45F",
"# 	c #8EB460",
"#!	c #8EB461",
"##	c #8EB462",
"#$	c #8EB463",
"#%	c #8EB560",
"#&	c #8EB561",
"#'	c #8EB562",
"#(	c #8EB564",
"#)	c #8EB660",
"#*	c #8EB661",
"#+	c #8EB664",
"#,	c #8EB666",
"#-	c #8EB760",
"#.	c #8EB761",
"#/	c #8EB862",
"#0	c #8FA361",
"#1	c #8FB362",
"#2	c #8FB463",
"#3	c #8FB464",
"#4	c #8FB561",
"#5	c #8FB562",
"#6	c #8FB563",
"#7	c #8FB564",
"#8	c #8FB661",
"#9	c #8FB662",
"#:	c #8FB663",
"#;	c #8FB664",
"#<	c #8FB665",
"#=	c #8FB760",
"#>	c #8FB761",
"#?	c #8FB762",
"#@	c #8FB763",
"#A	c #8FB764",
"#B	c #8FB765",
"#C	c #8FB766",
"#D	c #8FB861",
"#E	c #8FB862",
"#F	c #8FB863",
"#G	c #8FB963",
"#H	c #90B262",
"#I	c #90B463",
"#J	c #90B562",
"#K	c #90B564",
"#L	c #90B662",
"#M	c #90B663",
"#N	c #90B665",
"#O	c #90B762",
"#P	c #90B763",
"#Q	c #90B764",
"#R	c #90B861",
"#S	c #90B862",
"#T	c #90B863",
"#U	c #90B865",
"#V	c #90B962",
"#W	c #90B963",
"#X	c #91A264",
"#Y	c #91B563",
"#Z	c #91B564",
"#[	c #91B664",
"#]	c #91B665",
"#^	c #91B763",
"#_	c #91B764",
"#`	c #91B765",
"#a	c #91B766",
"#b	c #91B861",
"#c	c #91B862",
"#d	c #91B863",
"#e	c #91B864",
"#f	c #91B865",
"#g	c #91B961",
"#h	c #91B962",
"#i	c #91B963",
"#j	c #91B964",
"#k	c #91B965",
"#l	c #91BA62",
"#m	c #91BA63",
"#n	c #91BA64",
"#o	c #91BA65",
"#p	c #91BB64",
"#q	c #92A364",
"#r	c #92B763",
"#s	c #92B764",
"#t	c #92B765",
"#u	c #92B863",
"#v	c #92B865",
"#w	c #92B866",
"#x	c #92B963",
"#y	c #92B964",
"#z	c #92B965",
"#{	c #92B966",
"#|	c #92BA63",
"#}	c #92BA64",
"#~	c #92BA65",
"$ 	c #92BB65",
"$!	c #93B864",
"$#	c #93B865",
"$$	c #93B965",
"$%	c #93B966",
"$&	c #93B967",
"$'	c #93BA62",
"$(	c #93BA63",
"$)	c #93BA65",
"$*	c #93BA66",
"$+	c #93BA67",
"$,	c #93BB63",
"$-	c #93BB65",
"$.	c #93BB66",
"$/	c #94B564",
"$0	c #94B966",
"$1	c #94B967",
"$2	c #94BA65",
"$3	c #94BA66",
"$4	c #94BA67",
"$5	c #94BA68",
"$6	c #94BB64",
"$7	c #94BB66",
"$8	c #94BB67",
"$9	c #94BC66",
"$:	c #94BC67",
"$;	c #959C67",
"$<	c #959F68",
"$=	c #95B865",
"$>	c #95BA67",
"$?	c #95BB65",
"$@	c #95BB66",
"$A	c #95BB67",
"$B	c #95BB68",
"$C	c #95BC65",
"$D	c #95BC67",
"$E	c #95BC68",
"$F	c #95BD65",
"$G	c #95BD66",
"$H	c #95BD67",
"$I	c #95BE66",
"$J	c #96A169",
"$K	c #96BC65",
"$L	c #96BC67",
"$M	c #96BC68",
"$N	c #96BC69",
"$O	c #96BD65",
"$P	c #96BD68",
"$Q	c #96BD69",
"$R	c #96BE65",
"$S	c #96BE66",
"$T	c #96BE67",
"$U	c #96BF65",
"$V	c #97BA65",
"$W	c #97BE65",
"$X	c #97BE66",
"$Y	c #97BE67",
"$Z	c #97BF65",
"$[	c #97BF66",
"$]	c #97BF67",
"$^	c #98BF66",
"$_	c #98BF67",
"$`	c #98BF68",
"$a	c #98C066",
"$b	c #98C067",
"$c	c #98C068",
"$d	c #99A369",
"$e	c #99BE66",
"$f	c #99BF67",
"$g	c #99C067",
"$h	c #99C068",
"$i	c #9AC167",
"$j	c #9AC168",
"$k	c #9BC269",
"$l	c #A19E6A",
"$m	c #A2A26E",
"$n	c #A7A570",
"$o	c #ACA774",
"$p	c #ADA674",
"$q	c #B1AB75",
"$r	c #B4A876",
"$s	c #BAAD7C",
"$t	c #C3B485",
"$u	c #C4B585",
"$v	c #CCBB8B",
"$w	c #CDBB8C",
"$x	c #CFBD8E",
"$y	c #D0BE90",
"$z	c #D1BE90",
"$y$y$v$s$o$< 6 8 w | }!9!V!V!U#L#!!;!< f C ] e H",
"$z$x$u$r$m S ' 8 w {!8!S!W!p#P#^#4!<!<!# f!9 ~ H",
"$w$t$p$l F # & > x z!P!j!l#`$A#r#!!<!=!)!<!l!j ~",
"$q$n$; ,   ! - U y z!8!}#;$%$4#s##!9!=!W!V!l#3#(",
"$d$J!G % $ ( T!0!4!6!Q#I#f#z#v$0#6 ~!$!q#3#2#7#7",
"#q#X!, 7 G v!0!3!5!7!i#!#9#9#M$0#`!=!X#N#a#]#K#$",
"#0!z q t!K!f!2!M!N!O!R!k#&#'#M$%#w#B#N$&$+#v#[#:",
"!I!H s u!e!f!L!h!|#1#J#L#_#t#v$#$%#{#w$B$Q$8$7$2",
" r s d d u!1!g#H#[#_#s$!$0$>$1#v$$$$#z$D$P$E$E$@",
"!/!. c!-!J!{#Z$0#t#6###!#4#v$4#z$$$3$8$D$.$.$7$7",
"$V$=$/$/#Y#s$1$5#`!l f @ J!V#Q#P#e$*$E$:#j#k$8$8",
"$f$^$F$G$-$%#w#]## f 9 * . ? g!'!(!W#U#k!t#:$3$8",
"$e$X$C$)$Q$N#`##!' 2 ) 4 : . 3 Q k Y A ; M#:$*$*",
"$?$?#y#?#P#M#5#!!! 1 O![!k [ B ] l ^!@ ^ E#N$%#f",
"$?$2#i#=!T# #e#O j 0!?#r#^!U L W N ^#C!u p#;#f#B",
"$L$@#x#S#8#e$7#d [ /!&#S#x#  V I X n#,!x!`#+#U#U",
"$Q$M$2$)#y#e#z#z!_ D R!C!w#*![!; m o!a#<#A#k#k#z",
"$P$L$2$)#8!s#?#i#D!A a b!*#)#E#F!`!E#+#z$-$H$G$6",
"#y#u!~ i i!^#?#c#R!b!A!c#.#>#*#*#@#G$-$`$h$`$_$O",
"#%!Y ` < _!r#S$,$'#-!+!^#m#}#j#~$9$G$c$k$i$^$_$I",
"!*!% h h!>#)#b$O$O#D!+!]#n#o#j$9$T$_$j$g$Z$Z$S$ ",
" a! !:!m!v!B!n$($K#i#E#W#p!y!w$-$Y$b$i$a$W$U$F#T",
" 5 Z!Y#>!Y P!o#y#|#S#V#m#W!d!A#|$]$b$b$[$R$F#z#9",
" + K!Z!> = 0!D#@#>#h#g#E#/!F!A#l$S$S$R$F$-#e#6!;"};
