/* XPM */
static char *01[] = {
"24 24 313 2",
"  	c #81A25D",
" !	c #81A95B",
" #	c #81AA5C",
" $	c #82A25D",
" %	c #82A25E",
" &	c #82A35E",
" '	c #82A45E",
" (	c #82AC5B",
" )	c #82AC5C",
" *	c #82AC5D",
" +	c #83A25E",
" ,	c #83A35D",
" -	c #83A35F",
" .	c #83A45E",
" /	c #83A45F",
" 0	c #83A55D",
" 1	c #83A55F",
" 2	c #83A65E",
" 3	c #83A85E",
" 4	c #83AD5C",
" 5	c #83AE5C",
" 6	c #84A15D",
" 7	c #84A15E",
" 8	c #84A25E",
" 9	c #84A25F",
" :	c #84A35D",
" ;	c #84A35E",
" <	c #84A35F",
" =	c #84A45E",
" >	c #84A65E",
" ?	c #84A65F",
" @	c #84A75D",
" A	c #84A75E",
" B	c #84A75F",
" C	c #84A85D",
" D	c #84AB5E",
" E	c #84AC5C",
" F	c #84AD5D",
" G	c #84AD5E",
" H	c #84AE5C",
" I	c #84AE5D",
" J	c #84AF5C",
" K	c #85A05D",
" L	c #85A05F",
" M	c #85A25D",
" N	c #85A25E",
" O	c #85A25F",
" P	c #85A45E",
" Q	c #85A65F",
" R	c #85A95F",
" S	c #85AB5D",
" T	c #85AB5E",
" U	c #85AE5E",
" V	c #85AF5D",
" W	c #85B05D",
" X	c #869F5F",
" Y	c #86A15D",
" Z	c #86A15E",
" [	c #86A25E",
" ]	c #86A25F",
" ^	c #86A35F",
" _	c #86A85F",
" `	c #86A860",
" a	c #86A960",
" b	c #86AA5E",
" c	c #86AC5C",
" d	c #86AD5E",
" e	c #86AD5F",
" f	c #86AE5D",
" g	c #86B05D",
" h	c #86B05E",
" i	c #86B15D",
" j	c #87A25F",
" k	c #87A35F",
" l	c #87A85E",
" m	c #87AA5F",
" n	c #87AB5E",
" o	c #87AD5D",
" p	c #87AD5E",
" q	c #87AD5F",
" r	c #87AF5F",
" s	c #87B05E",
" t	c #87B15E",
" u	c #87B160",
" v	c #889E5F",
" w	c #889F5E",
" x	c #88A05E",
" y	c #88A15E",
" z	c #88AC5E",
" {	c #88AD5F",
" |	c #88AE5E",
" }	c #88B05D",
" ~	c #88B05E",
"! 	c #88B15E",
"!!	c #88B15F",
"!#	c #88B160",
"!$	c #88B25F",
"!%	c #899F5E",
"!&	c #89A35F",
"!'	c #89AD5F",
"!(	c #89AD60",
"!)	c #89AE60",
"!*	c #89B05E",
"!+	c #89B05F",
"!,	c #89B25F",
"!-	c #89B35E",
"!.	c #8A9B5E",
"!/	c #8A9C5F",
"!0	c #8A9E5E",
"!1	c #8AA25E",
"!2	c #8AB060",
"!3	c #8AB160",
"!4	c #8AB161",
"!5	c #8AB162",
"!6	c #8AB25F",
"!7	c #8AB260",
"!8	c #8AB261",
"!9	c #8AB360",
"!:	c #8AB361",
"!;	c #8AB45F",
"!<	c #8AB460",
"!=	c #8AB461",
"!>	c #8BA35F",
"!?	c #8BB260",
"!@	c #8BB261",
"!A	c #8BB262",
"!B	c #8BB263",
"!C	c #8BB35E",
"!D	c #8BB35F",
"!E	c #8BB360",
"!F	c #8BB361",
"!G	c #8BB45F",
"!H	c #8BB461",
"!I	c #8C9C5E",
"!J	c #8CB160",
"!K	c #8CB161",
"!L	c #8CB260",
"!M	c #8CB261",
"!N	c #8CB361",
"!O	c #8CB362",
"!P	c #8CB363",
"!Q	c #8CB364",
"!R	c #8CB461",
"!S	c #8CB462",
"!T	c #8CB55F",
"!U	c #8CB560",
"!V	c #8CB561",
"!W	c #8CB562",
"!X	c #8D9960",
"!Y	c #8DA060",
"!Z	c #8DA35F",
"![	c #8DB261",
"!]	c #8DB362",
"!^	c #8DB363",
"!_	c #8DB461",
"!`	c #8DB462",
"!a	c #8DB463",
"!b	c #8DB464",
"!c	c #8DB561",
"!d	c #8DB562",
"!e	c #8DB563",
"!f	c #8DB660",
"!g	c #8DB661",
"!h	c #8DB765",
"!i	c #8EB460",
"!j	c #8EB462",
"!k	c #8EB463",
"!l	c #8EB464",
"!m	c #8EB560",
"!n	c #8EB561",
"!o	c #8EB562",
"!p	c #8EB563",
"!q	c #8EB564",
"!r	c #8EB565",
"!s	c #8EB663",
"!t	c #8EB664",
"!u	c #8EB75F",
"!v	c #8EB761",
"!w	c #8FB561",
"!x	c #8FB562",
"!y	c #8FB563",
"!z	c #8FB566",
"!{	c #8FB662",
"!|	c #8FB663",
"!}	c #8FB664",
"!~	c #8FB665",
"# 	c #8FB762",
"#!	c #8FB763",
"##	c #8FB764",
"#$	c #8FB860",
"#%	c #90B564",
"#&	c #90B663",
"#'	c #90B664",
"#(	c #90B665",
"#)	c #90B666",
"#*	c #90B763",
"#+	c #90B764",
"#,	c #90B765",
"#-	c #90B766",
"#.	c #90B860",
"#/	c #90B861",
"#0	c #90B863",
"#1	c #90B864",
"#2	c #90BA65",
"#3	c #91955E",
"#4	c #919C61",
"#5	c #91A162",
"#6	c #91B663",
"#7	c #91B664",
"#8	c #91B763",
"#9	c #91B764",
"#:	c #91B765",
"#;	c #91B766",
"#<	c #91B767",
"#=	c #91B863",
"#>	c #91B864",
"#?	c #91B865",
"#@	c #91B867",
"#A	c #91B961",
"#B	c #91B963",
"#C	c #91B964",
"#D	c #92B764",
"#E	c #92B765",
"#F	c #92B766",
"#G	c #92B863",
"#H	c #92B864",
"#I	c #92B865",
"#J	c #92B866",
"#K	c #92B868",
"#L	c #92B869",
"#M	c #92B961",
"#N	c #92B963",
"#O	c #92B964",
"#P	c #92B965",
"#Q	c #92B966",
"#R	c #92B968",
"#S	c #92BA62",
"#T	c #92BA63",
"#U	c #92BA64",
"#V	c #92BB66",
"#W	c #93965F",
"#X	c #93B865",
"#Y	c #93B964",
"#Z	c #93B965",
"#[	c #93B966",
"#]	c #93B968",
"#^	c #93BA64",
"#_	c #93BA65",
"#`	c #93BB63",
"#a	c #93BB64",
"#b	c #93BB65",
"#c	c #93BC65",
"#d	c #94B966",
"#e	c #94BA63",
"#f	c #94BA65",
"#g	c #94BA67",
"#h	c #94BA69",
"#i	c #94BB63",
"#j	c #94BB64",
"#k	c #94BB65",
"#l	c #94BB66",
"#m	c #94BC65",
"#n	c #95B967",
"#o	c #95B968",
"#p	c #95BA65",
"#q	c #95BA66",
"#r	c #95BA68",
"#s	c #95BB65",
"#t	c #95BB67",
"#u	c #95BC63",
"#v	c #95BC64",
"#w	c #95BC65",
"#x	c #95BC67",
"#y	c #95BD63",
"#z	c #95BD64",
"#{	c #95BD65",
"#|	c #95BE65",
"#}	c #96BA67",
"#~	c #96BB69",
"$ 	c #96BC66",
"$!	c #96BD64",
"$#	c #96BE64",
"$$	c #979F64",
"$%	c #97BB67",
"$&	c #97BC67",
"$'	c #97BC68",
"$(	c #97BC69",
"$)	c #97BD67",
"$*	c #97BD69",
"$+	c #97BE64",
"$,	c #97BE67",
"$-	c #989362",
"$.	c #98BB69",
"$/	c #98BE68",
"$0	c #98BF67",
"$1	c #99BB69",
"$2	c #99BC6A",
"$3	c #99BE69",
"$4	c #99BF69",
"$5	c #99BF6A",
"$6	c #9ABC69",
"$7	c #9ABF69",
"$8	c #9BBE6B",
"$9	c #9CBE6B",
"$:	c #9CBE6C",
"$;	c #B2A674",
"$<	c #B3A375",
"$=	c #C2AD81",
"$>	c #C4B080",
"$?	c #CFB789",
"$@	c #D1B98A",
"$A	c #D1B98B",
"$B	c #D1BA89",
" p!3#X$1$:$8#o#%!K!2 { R ? . , ; k!>!Z#5$$$>$@$B",
" |!A#E$.$9$8#n#%![!3!( ` ? ' , ; ^!&!1!Y#4$;$?$A",
"!4!e#:#}$6$2#r#:!j!M!) a 1 & $ $ 8 [ Y!%!I#W$<$=",
"!a!t#?#q#n#d#~#g#'!j!J!' a /   % + N Z y!0!.#3$-",
"!l!q!}#:#,#&#:#J#I#E#9!o!K m / / - 9 O j x w!/!X",
"!a!`!N!S!S!`!o#H#f#f#Z#O#8![ l / / - < ] Z K X v",
"!|!s!_!7!8!j#X$%$&#f#P#O#Y#G!J B / / < N M 6 7 L",
"#Z#P#I#'!|#I$'$'#[#[#[#Z#Y#O!_ q A . = P : , . /",
"#_#_#Z#[#I#[#g#:!b#,#Q#Z#Z#>!`!3 b 0 2 Q Q > @ 3",
"#_#_#_#Q#Q#?#?#,!r!q!`!o#H#P!o!+ T C A _ n z o c",
"#P#_#[#,!s!`!`!^!P!Q!4!3!|#+!E ~ d S D e!?!i!m!f",
"#Q#P#I#'!p!`!^!^!A!B!8!7!R!? s t ~ f f!D#N#e#`#M",
"#Q#Q#I#J#X#X#F#;#(!@!o#U!v!U!<!9!H#!#>#s$)$)#j#M",
"#+#+#?#Q#[#:#'#:#>!{#S#{#i#m#c#b#x$4$,$ #l#_#_#^",
"!p!`!`!d!d!L!?!{#T#i#y$!$+$0$,$,$7$3#x#?!y!_#C#_",
"##!p!N!F!7!?!n#O#v#u$!$##|#V#V$/$5$*#]!~!]!N#=#_",
"#P#P#9!|!|#+#P#k#{$!#z#a#2!h###t$(#h#R#K#)!p#+#P",
"#^#_#Z#I#P#Q#Q#_#k#f#B!V!=!=!W#9#[#R#K#L#K#-#9#9",
"#j#f#_#Z#Q#?!k#>#s#1!H h h u!:!d#,#@#K#K#<#;#:#+",
"#a#_#_#>##!_!3!_#&!S!! W H I V!!!8!O!b!z#(#'!|!j",
"#C#H#H!x!_!`!F!R!N!6!  g J 4 ( ) E E r!A!k!j!`!N",
"#0#I#D!x!|!}!e#*#=!D!  i J 5 4 * # ! G!5!k#'!p!S",
"!n#&#D#9!|!c!`#Y#w#/!T!G!;!-!-!$ U F!##+#X#6!|# ",
"!*!N#%#7!_ }!C#B#w#`#A#.#$#$#$!u!G!,!g#f#p!w# #0"};
