/* XPM */
static char *02[] = {
"24 24 417 2",
"  	c #7E9859",
" !	c #7E995A",
" #	c #7F9859",
" $	c #7F9959",
" %	c #7F9B59",
" &	c #7F9B5A",
" '	c #7FA758",
" (	c #80985B",
" )	c #809A59",
" *	c #809B5A",
" +	c #809C5A",
" ,	c #809C5B",
" -	c #80A659",
" .	c #80A95A",
" /	c #819C5A",
" 0	c #819C5B",
" 1	c #819D5B",
" 2	c #81A557",
" 3	c #81A95C",
" 4	c #82985C",
" 5	c #829B5A",
" 6	c #829E5B",
" 7	c #829F5B",
" 8	c #829F5D",
" 9	c #82A05B",
" :	c #82A95D",
" ;	c #82A95F",
" <	c #82AA5A",
" =	c #82AB5A",
" >	c #82AB5B",
" ?	c #83985B",
" @	c #839E5C",
" A	c #83A05B",
" B	c #83A05C",
" C	c #83A05D",
" D	c #83A25E",
" E	c #83AB5C",
" F	c #83AB5D",
" G	c #83AB5F",
" H	c #83AB60",
" I	c #83AC5B",
" J	c #849A5B",
" K	c #849D5B",
" L	c #84A05D",
" M	c #84A15D",
" N	c #84A15E",
" O	c #84A25C",
" P	c #84A25E",
" Q	c #84A35E",
" R	c #84A35F",
" S	c #84A45C",
" T	c #84A45D",
" U	c #84AA5C",
" V	c #84AB5D",
" W	c #84AB61",
" X	c #84AC5C",
" Y	c #84AC5E",
" Z	c #84AC60",
" [	c #84AC62",
" ]	c #84AD5C",
" ^	c #859E5C",
" _	c #85A35E",
" `	c #85A45D",
" a	c #85A55D",
" b	c #85A65D",
" c	c #85A65E",
" d	c #85A75C",
" e	c #85A85E",
" f	c #85AB61",
" g	c #85AC60",
" h	c #85AC61",
" i	c #85AD5C",
" j	c #85AD5D",
" k	c #85AD5E",
" l	c #85AE5D",
" m	c #85AE5E",
" n	c #85AE5F",
" o	c #85AF5A",
" p	c #869C5D",
" q	c #869E5C",
" r	c #86A15E",
" s	c #86A35E",
" t	c #86A55E",
" u	c #86A65F",
" v	c #86A760",
" w	c #86A85C",
" x	c #86AA5F",
" y	c #86AB5D",
" z	c #86AD5D",
" {	c #86AD5E",
" |	c #86AD5F",
" }	c #86AD60",
" ~	c #86AD61",
"! 	c #86AE5E",
"!!	c #86AE5F",
"!#	c #86AE64",
"!$	c #86AF5C",
"!%	c #86AF5D",
"!&	c #86AF5E",
"!'	c #87A05D",
"!(	c #87A15E",
"!)	c #87A55F",
"!*	c #87A861",
"!+	c #87AA5E",
"!,	c #87AC5E",
"!-	c #87AD60",
"!.	c #87AD63",
"!/	c #87AE5D",
"!0	c #87AE5E",
"!1	c #87AE5F",
"!2	c #87AE61",
"!3	c #87AE62",
"!4	c #87AE64",
"!5	c #87AF5D",
"!6	c #87AF5F",
"!7	c #87AF60",
"!8	c #87B05D",
"!9	c #87B05E",
"!:	c #87B05F",
"!;	c #88995C",
"!<	c #88A05E",
"!=	c #88A65F",
"!>	c #88AA5E",
"!?	c #88AA60",
"!@	c #88AD5F",
"!A	c #88AD61",
"!B	c #88AE63",
"!C	c #88AE64",
"!D	c #88AF5D",
"!E	c #88AF5E",
"!F	c #88AF5F",
"!G	c #88AF60",
"!H	c #88AF61",
"!I	c #88AF62",
"!J	c #88AF63",
"!K	c #88AF64",
"!L	c #88AF65",
"!M	c #88B05D",
"!N	c #88B05E",
"!O	c #88B05F",
"!P	c #88B060",
"!Q	c #88B062",
"!R	c #88B15C",
"!S	c #88B15D",
"!T	c #88B160",
"!U	c #899E5D",
"!V	c #89AA62",
"!W	c #89AC60",
"!X	c #89AC61",
"!Y	c #89AD61",
"!Z	c #89AD63",
"![	c #89AE62",
"!]	c #89AF60",
"!^	c #89AF66",
"!_	c #89B05E",
"!`	c #89B05F",
"!a	c #89B060",
"!b	c #89B062",
"!c	c #89B15E",
"!d	c #89B15F",
"!e	c #89B161",
"!f	c #89B166",
"!g	c #89B25D",
"!h	c #89B25E",
"!i	c #8AAB62",
"!j	c #8AAE63",
"!k	c #8AAE65",
"!l	c #8AAF60",
"!m	c #8AAF63",
"!n	c #8AB061",
"!o	c #8AB062",
"!p	c #8AB065",
"!q	c #8AB066",
"!r	c #8AB15E",
"!s	c #8AB15F",
"!t	c #8AB160",
"!u	c #8AB161",
"!v	c #8AB165",
"!w	c #8AB167",
"!x	c #8AB25D",
"!y	c #8AB25E",
"!z	c #8AB25F",
"!{	c #8AB262",
"!|	c #8AB264",
"!}	c #8AB35D",
"!~	c #8AB35E",
"# 	c #8AB35F",
"#!	c #8AB360",
"##	c #8AB362",
"#$	c #8BAE63",
"#%	c #8BAF64",
"#&	c #8BB060",
"#'	c #8BB064",
"#(	c #8BB160",
"#)	c #8BB161",
"#*	c #8BB162",
"#+	c #8BB164",
"#,	c #8BB168",
"#-	c #8BB260",
"#.	c #8BB264",
"#/	c #8BB265",
"#0	c #8BB267",
"#1	c #8BB268",
"#2	c #8BB35E",
"#3	c #8BB35F",
"#4	c #8BB360",
"#5	c #8BB361",
"#6	c #8BB362",
"#7	c #8BB363",
"#8	c #8BB45F",
"#9	c #8BB560",
"#:	c #8BB561",
"#;	c #8BB564",
"#<	c #8C9C5D",
"#=	c #8CAF61",
"#>	c #8CB05F",
"#?	c #8CB060",
"#@	c #8CB064",
"#A	c #8CB160",
"#B	c #8CB163",
"#C	c #8CB260",
"#D	c #8CB263",
"#E	c #8CB265",
"#F	c #8CB266",
"#G	c #8CB35F",
"#H	c #8CB360",
"#I	c #8CB361",
"#J	c #8CB363",
"#K	c #8CB365",
"#L	c #8CB366",
"#M	c #8CB368",
"#N	c #8CB460",
"#O	c #8CB461",
"#P	c #8CB462",
"#Q	c #8CB466",
"#R	c #8CB467",
"#S	c #8CB562",
"#T	c #8CB563",
"#U	c #8DB260",
"#V	c #8DB261",
"#W	c #8DB265",
"#X	c #8DB269",
"#Y	c #8DB35F",
"#Z	c #8DB361",
"#[	c #8DB362",
"#]	c #8DB45F",
"#^	c #8DB460",
"#_	c #8DB461",
"#`	c #8DB462",
"#a	c #8DB560",
"#b	c #8DB561",
"#c	c #8DB563",
"#d	c #8DB565",
"#e	c #8DB567",
"#f	c #8DB661",
"#g	c #8DB664",
"#h	c #8DB665",
"#i	c #8DB762",
"#j	c #8E9C5F",
"#k	c #8EB165",
"#l	c #8EB265",
"#m	c #8EB269",
"#n	c #8EB361",
"#o	c #8EB362",
"#p	c #8EB369",
"#q	c #8EB462",
"#r	c #8EB464",
"#s	c #8EB466",
"#t	c #8EB467",
"#u	c #8EB468",
"#v	c #8EB560",
"#w	c #8EB561",
"#x	c #8EB564",
"#y	c #8EB566",
"#z	c #8EB567",
"#{	c #8EB660",
"#|	c #8EB661",
"#}	c #8EB662",
"#~	c #8EB663",
"$ 	c #8EB665",
"$!	c #8EB762",
"$#	c #8EB765",
"$$	c #8FB369",
"$%	c #8FB36A",
"$&	c #8FB564",
"$'	c #8FB569",
"$(	c #8FB661",
"$)	c #8FB663",
"$*	c #8FB664",
"$+	c #8FB667",
"$,	c #8FB761",
"$-	c #8FB762",
"$.	c #8FB764",
"$/	c #8FB864",
"$0	c #8FB867",
"$1	c #90B567",
"$2	c #90B569",
"$3	c #90B56B",
"$4	c #90B661",
"$5	c #90B662",
"$6	c #90B663",
"$7	c #90B664",
"$8	c #90B666",
"$9	c #90B667",
"$:	c #90B668",
"$;	c #90B762",
"$<	c #90B763",
"$=	c #90B764",
"$>	c #90B766",
"$?	c #90B862",
"$@	c #90B864",
"$A	c #90B865",
"$B	c #90B866",
"$C	c #91B367",
"$D	c #91B46C",
"$E	c #91B565",
"$F	c #91B762",
"$G	c #91B763",
"$H	c #91B765",
"$I	c #91B76B",
"$J	c #91B862",
"$K	c #91B863",
"$L	c #91B864",
"$M	c #91B865",
"$N	c #91B866",
"$O	c #91B963",
"$P	c #91B964",
"$Q	c #91B965",
"$R	c #91B966",
"$S	c #91BA64",
"$T	c #91BA68",
"$U	c #92B567",
"$V	c #92B568",
"$W	c #92B666",
"$X	c #92B668",
"$Y	c #92B763",
"$Z	c #92B863",
"$[	c #92B864",
"$]	c #92B866",
"$^	c #92B867",
"$_	c #92B963",
"$`	c #92B964",
"$a	c #92B965",
"$b	c #92B967",
"$c	c #92BA64",
"$d	c #92BA65",
"$e	c #92BA67",
"$f	c #92BB63",
"$g	c #93B766",
"$h	c #93B864",
"$i	c #93B964",
"$j	c #93B965",
"$k	c #93B966",
"$l	c #93BA64",
"$m	c #93BA65",
"$n	c #93BA66",
"$o	c #93BA67",
"$p	c #93BA69",
"$q	c #93BB64",
"$r	c #93BB65",
"$s	c #93BB67",
"$t	c #949B62",
"$u	c #94B767",
"$v	c #94B96A",
"$w	c #94BA65",
"$x	c #94BA66",
"$y	c #94BB66",
"$z	c #94BB68",
"${	c #94BC64",
"$|	c #94BC65",
"$}	c #94BC66",
"$~	c #94BC67",
"% 	c #94BC68",
"%!	c #94BD67",
"%#	c #95B669",
"%$	c #95B96B",
"%%	c #95BA66",
"%&	c #95BA69",
"%'	c #95BB65",
"%(	c #95BB66",
"%)	c #95BB67",
"%*	c #95BB68",
"%+	c #95BC66",
"%,	c #95BC67",
"%-	c #95BC68",
"%.	c #95BD64",
"%/	c #96A063",
"%0	c #96B869",
"%1	c #96BB68",
"%2	c #96BB69",
"%3	c #96BC68",
"%4	c #96BC69",
"%5	c #96BD69",
"%6	c #96BE67",
"%7	c #96BE68",
"%8	c #97B86A",
"%9	c #97BC68",
"%:	c #97BD67",
"%;	c #97BD68",
"%<	c #98B96A",
"%=	c #9BBD6C",
"%>	c #9D9D68",
"%?	c #9DA368",
"%@	c #A09C65",
"%A	c #A5A067",
"%B	c #B7A977",
"%C	c #BDAC7A",
"%D	c #BEAE7A",
"%E	c #C3B383",
"%F	c #C9B684",
"%G	c #CCB988",
"%H	c #CCB989",
"%I	c #CEBD8E",
"%J	c #CFBC8B",
"%K	c #CFBC8C",
"%L	c #D0BD8D",
"%M	c #D0BD8E",
" o!R!h = < ] i#!$?${$f$!#i#9#f$S$|$|%.$c#`#[#I!M",
"#v#N!$ E!1!G .!%$c%6%!$/#:#S$d%+$}$r$q#}!t#(!t!8",
"$Z#_ z!1!Q } 3 |$^$s$T#d#6$A%7%,$y$P#}!z!D!N!_!S",
"$h#q {!H!I g G!3#R!|!v#K$b%-$m$(#^#H#-!N!5!E!r!y",
"#q#( |#*#'!4 h H [!##0$+$N#c!9 i!E!a!d!d!`!s!y!~",
"#G!a!-#k$$#,!. ; W#1$'#y#7!: > ' V!!! !`!s!s!c!g",
"$P#r!k$%$D#m!q!4!w$'$'#t#s#h!a 2 - F X!/!N!c!x!}",
"% $e$:$3$D#X!^!f#M#u$2$I%$%&#r y U Y k!d#4#N#8!}",
"$p$e$B$:#p!p!C!L!L!B#F$v%=%2#J!0 | n!!#5$=$Q$(#2",
"$9$+#y#z#L!K!J!C f :!7$>%*$H!P {!  m I!N#x$L$-#{",
"#W#W#E#E#K#Q#e#/!2!6#P$##g!T j j k j j!&!e#5#b$,",
"#@#'#%!m#+#y$0$ #T$@$o$R!O ] l!&!6!6!{#;##!d#4#|",
"#$!j!Z!Y!X!A!b#T$@$~%5$n!d!M!c#3#H#H#~$]$H$G$=#~",
"!i!V!*!* v e x!n$.$r$n$=#`#}$<$Z$G$G%(%1%1%)$a#}",
"!=!) _ R Q T c!W#[#}#~$)$M$n$x$w$K$F$y%9%2%4$=#4",
" s s M N D Q u!?#=#O#~$=$x%,$y$n$<#w$O%,%3$z$*# ",
"!( r L C 8 8 P t!>#&#P$)$a$d$P$m$L$5$`$x$j$j$L$6",
"!<!' ^ @ , & 1 B `!@!u#I#b#a#]$5$Z$w%;$x$;$J$l$m",
"!U!U q K 0 * 0 9 S!,#)#I#Z#3!y#N$G%'%:%($_$Z$Z$K",
"%?%/#< p 5 ) * 6 O!+#(#[#n#Z#G$4$i%%%(%%$[$7$7$)",
"%F%D%A#j J # $ / A w#?#[#V#C#Y$Y$k$g$u$W#D!H!o!n",
"%K%H%C%@!; (   + 9 d#&#o#n#C!s#_$&$E$U#l![ ~ Z G",
"%I%L%G%B$t ?   & 7 b#&#Z#U#C!t!a#*#l$V$V$V$X$1#.",
"%I%M%J%E%> 4 ! % 7 a!l#C#>#A#(!F!]#B$C%#%8%<%0$8"};
