/* XPM */
static char *03[] = {
"24 24 325 2",
"  	c #779859",
" !	c #789357",
" #	c #799559",
" $	c #799759",
" %	c #7A985B",
" &	c #7A9B5D",
" '	c #7A9D5B",
" (	c #7B9A5A",
" )	c #7B9A5D",
" *	c #7C9459",
" +	c #7C985C",
" ,	c #7C9D5B",
" -	c #7D9257",
" .	c #7D9459",
" /	c #7E9258",
" 0	c #7E955A",
" 1	c #7E975B",
" 2	c #7EA15D",
" 3	c #7EA35D",
" 4	c #7F9B5A",
" 5	c #7F9B5C",
" 6	c #7FA15E",
" 7	c #7FA35F",
" 8	c #808F58",
" 9	c #809259",
" :	c #80995C",
" ;	c #80A25C",
" <	c #80A35E",
" =	c #80A65F",
" >	c #819258",
" ?	c #819459",
" @	c #81955A",
" A	c #81A55F",
" B	c #829159",
" C	c #82945B",
" D	c #82975B",
" E	c #829E5B",
" F	c #82A35C",
" G	c #82A45D",
" H	c #82A75E",
" I	c #838E58",
" J	c #839B5C",
" K	c #83A35C",
" L	c #83A75E",
" M	c #83A75F",
" N	c #83AA60",
" O	c #83AC5E",
" P	c #84915B",
" Q	c #84945C",
" R	c #84995D",
" S	c #84A75E",
" T	c #84A860",
" U	c #84A95F",
" V	c #84AB60",
" W	c #84AE5A",
" X	c #85AA60",
" Y	c #85AD5B",
" Z	c #85AD60",
" [	c #86915C",
" ]	c #86995D",
" ^	c #86A15D",
" _	c #86A85F",
" `	c #86AC60",
" a	c #86AD60",
" b	c #86AD62",
" c	c #86AE5C",
" d	c #86AF5B",
" e	c #87955E",
" f	c #87A05C",
" g	c #87AB61",
" h	c #87AE60",
" i	c #87AF5C",
" j	c #87AF61",
" k	c #88985E",
" l	c #88A860",
" m	c #88AB61",
" n	c #88AD62",
" o	c #88AE61",
" p	c #88AE62",
" q	c #88B05D",
" r	c #88B05E",
" s	c #88B15C",
" t	c #89AC61",
" u	c #89AE64",
" v	c #89AF61",
" w	c #89AF64",
" x	c #89B15D",
" y	c #89B162",
" z	c #89B25D",
" {	c #89B25E",
" |	c #89B35C",
" }	c #8A925E",
" ~	c #8AB061",
"! 	c #8AB064",
"!!	c #8AB15F",
"!#	c #8AB162",
"!$	c #8AB25E",
"!%	c #8AB35C",
"!&	c #8AB35D",
"!'	c #8AB35E",
"!(	c #8AB45D",
"!)	c #8AB45E",
"!*	c #8BAF62",
"!+	c #8BB062",
"!,	c #8BB063",
"!-	c #8BB25E",
"!.	c #8BB35E",
"!/	c #8BB35F",
"!0	c #8BB360",
"!1	c #8BB362",
"!2	c #8BB45D",
"!3	c #8BB45E",
"!4	c #8BB55E",
"!5	c #8BB55F",
"!6	c #8C9B60",
"!7	c #8CB162",
"!8	c #8CB163",
"!9	c #8CB260",
"!:	c #8CB360",
"!;	c #8CB361",
"!<	c #8CB362",
"!=	c #8CB364",
"!>	c #8CB45F",
"!?	c #8CB460",
"!@	c #8CB461",
"!A	c #8CB55E",
"!B	c #8CB55F",
"!C	c #8CB560",
"!D	c #8CB65F",
"!E	c #8CB660",
"!F	c #8DB361",
"!G	c #8DB362",
"!H	c #8DB364",
"!I	c #8DB365",
"!J	c #8DB460",
"!K	c #8DB461",
"!L	c #8DB462",
"!M	c #8DB463",
"!N	c #8DB464",
"!O	c #8DB55F",
"!P	c #8DB560",
"!Q	c #8DB561",
"!R	c #8DB562",
"!S	c #8DB65F",
"!T	c #8DB660",
"!U	c #8DB661",
"!V	c #8DB75F",
"!W	c #8DB760",
"!X	c #8DB861",
"!Y	c #8E905E",
"!Z	c #8EB365",
"![	c #8EB461",
"!]	c #8EB462",
"!^	c #8EB463",
"!_	c #8EB465",
"!`	c #8EB560",
"!a	c #8EB561",
"!b	c #8EB562",
"!c	c #8EB563",
"!d	c #8EB564",
"!e	c #8EB65F",
"!f	c #8EB660",
"!g	c #8EB661",
"!h	c #8EB662",
"!i	c #8EB761",
"!j	c #8FB463",
"!k	c #8FB562",
"!l	c #8FB563",
"!m	c #8FB564",
"!n	c #8FB566",
"!o	c #8FB660",
"!p	c #8FB661",
"!q	c #8FB662",
"!r	c #8FB663",
"!s	c #8FB665",
"!t	c #8FB760",
"!u	c #8FB761",
"!v	c #8FB762",
"!w	c #8FB860",
"!x	c #8FB861",
"!y	c #8FB862",
"!z	c #8FB962",
"!{	c #90B564",
"!|	c #90B663",
"!}	c #90B664",
"!~	c #90B665",
"# 	c #90B761",
"#!	c #90B762",
"##	c #90B763",
"#$	c #90B764",
"#%	c #90B765",
"#&	c #90B767",
"#'	c #90B861",
"#(	c #90B862",
"#)	c #90B863",
"#*	c #90B864",
"#+	c #90B960",
"#,	c #90B961",
"#-	c #90B963",
"#.	c #90BA63",
"#/	c #91B664",
"#0	c #91B763",
"#1	c #91B764",
"#2	c #91B765",
"#3	c #91B767",
"#4	c #91B861",
"#5	c #91B862",
"#6	c #91B863",
"#7	c #91B864",
"#8	c #91B865",
"#9	c #91B866",
"#:	c #91B962",
"#;	c #91B963",
"#<	c #91B965",
"#=	c #91BA62",
"#>	c #91BA63",
"#?	c #929962",
"#@	c #92B664",
"#A	c #92B665",
"#B	c #92B765",
"#C	c #92B766",
"#D	c #92B767",
"#E	c #92B864",
"#F	c #92B865",
"#G	c #92B867",
"#H	c #92B962",
"#I	c #92B963",
"#J	c #92B964",
"#K	c #92B965",
"#L	c #92B966",
"#M	c #92BA61",
"#N	c #92BA62",
"#O	c #92BA63",
"#P	c #92BA64",
"#Q	c #92BB63",
"#R	c #92BB64",
"#S	c #93B666",
"#T	c #93B767",
"#U	c #93B768",
"#V	c #93B866",
"#W	c #93B867",
"#X	c #93B963",
"#Y	c #93B965",
"#Z	c #93B967",
"#[	c #93BA63",
"#]	c #93BA64",
"#^	c #93BA67",
"#_	c #93BA68",
"#`	c #93BB63",
"#a	c #93BB64",
"#b	c #93BB65",
"#c	c #93BC65",
"#d	c #94B767",
"#e	c #94B866",
"#f	c #94B867",
"#g	c #94B967",
"#h	c #94BA64",
"#i	c #94BB63",
"#j	c #94BB64",
"#k	c #94BB65",
"#l	c #94BB66",
"#m	c #94BB67",
"#n	c #94BC64",
"#o	c #94BC65",
"#p	c #94BC66",
"#q	c #94BC67",
"#r	c #94BD65",
"#s	c #959363",
"#t	c #95B868",
"#u	c #95B966",
"#v	c #95B967",
"#w	c #95B968",
"#x	c #95BA68",
"#y	c #95BB64",
"#z	c #95BC64",
"#{	c #95BC65",
"#|	c #95BC66",
"#}	c #95BC67",
"#~	c #95BC68",
"$ 	c #95BD65",
"$!	c #95BD66",
"$#	c #95BD67",
"$$	c #95BD68",
"$%	c #96B868",
"$&	c #96B968",
"$'	c #96B969",
"$(	c #96BA68",
"$)	c #96BB68",
"$*	c #96BC66",
"$+	c #96BC67",
"$,	c #96BD65",
"$-	c #96BD67",
"$.	c #96BE66",
"$/	c #96BE67",
"$0	c #96BE68",
"$1	c #97B968",
"$2	c #97B969",
"$3	c #97BA6A",
"$4	c #97BD65",
"$5	c #97BD66",
"$6	c #97BD67",
"$7	c #97BE66",
"$8	c #97BE67",
"$9	c #97BE68",
"$:	c #98B969",
"$;	c #98BA69",
"$<	c #98BE67",
"$=	c #98BF68",
"$>	c #99BF67",
"$?	c #99BF68",
"$@	c #99C069",
"$A	c #A59E6D",
"$B	c #ACA874",
"$C	c #B6AE7B",
"$D	c #BAAE7E",
"$E	c #BCAD7E",
"$F	c #C4B486",
"$G	c #CAB78A",
"$H	c #CBB98B",
"$I	c #CCBA8D",
"$J	c #CDBC90",
"$K	c #CEBB8E",
"$L	c #CEBC8E",
"$M	c #CEBC8F",
"$N	c #CFBD8F",
" c!!!l!}!L!$!/#;#{#z#i#N#N#N#M#+!V!5!S#O#h#5#)#<",
" i q!9!F!:!0!g#b$7$,$,#n#a#`#[#N#,!W!D#O#y#I!h!@",
" x z!-!>!P!i#=$.$7$,$ #n#Q#]#]#]#>!X!5#;$*#[!. Y",
"!'!>!o# #(#:#O$.$7$,#z#O#(#;#a#]#>!W!)#;$-#j!3 c",
"!'!O#4#[#[#:#N$4$>$5#{#J!h!v#]#o#P!T!5!y#c#a!C r",
"!(!A!t#O#O#4#X$<$?$5#~#9!c!Q#)$!#O!f!z#-!y#.!C {",
"!4!V!w#,#5#:#{$<$6#|#Z!m!<!@#)#|#]#:$!#c!x!z!T!&",
"!&!4!A!A!S#'#o#|#]#8!s!M!<!1!r#k#{#z$?$/#R$!!x s",
"!&!% | |!(!O!x#5#!!R!L!L!<!1!g#a$ $,$8$ #r$@!v W",
"!W!S!B!3!2!A!i!v!a!/!@!R!;!;!g#O$.$8$!#o#o#q!C d",
"!u!u!f!S!A!A!u#)#!!p###1!b!b#6#{$=$9$##p#b#*!a!p",
"!U!T!E!S!S!e#'#6#####E#8!q!Q#)$-$=$0$$#m#$!G#/#u",
"!P!>!B!u#:#H#:!v!a!g##!r!a!?!P#K$+#}#^#&!H!,!*!+",
"!g!`!P!g#(#'!g!f!P!J!q#!!a!Q!b!l#F#2!_!  n g m t",
"!g!q!h!h!a!J!`!g!a!a####!q#$#L!}!^!7 o X M S _ l",
"!?!b!q#K#6!k#0#$!r###1#$#$#^#_!d ~ ` X T G K ^ f",
"!q!|#7#l#Y###$!r!b!r!}!~#F#9!N y a U L F E J ] ]",
"#Y#E#1#1##!h!]!K!K![!{#C#B!< h Z V H ; 4 @ C Q e",
"#6##!k!F!;!l#B#2!}#@#v#v!{!# b V M < 5 0 9 B P [",
"!c!~#%!j#A#x$'#w#g$&$;$&!Z p N A 2 ( * / 8 I!Y#s",
" v!H#3#T$&$(#t#t#t$2$2#d!8 N 3 , $ ! - > }$A$E$F",
" O j!I#W#v#g#f#f$%$1$1#S!  = '   # . ?#?$D$G$I$J",
"!=!n#G#v#e#V#g$&$1$1$2#U w 7 & % 1 D k$B$H$N$N$M",
"#D#w$)#v#e#e#v$3$:$:$2#U u 6 ) + : R!6$C$K$N$N$L"};
