/* XPM */
static char *04[] = {
"24 24 436 2",
"  	c #82A15D",
" !	c #839C5C",
" #	c #83A95C",
" $	c #849B5D",
" %	c #84AD5D",
" &	c #869B5D",
" '	c #869C5E",
" (	c #86A85B",
" )	c #86AE5F",
" *	c #86AF5E",
" +	c #87A75D",
" ,	c #87A85D",
" -	c #87AE60",
" .	c #87AF5E",
" /	c #87B05E",
" 0	c #87B060",
" 1	c #889B5E",
" 2	c #88A15D",
" 3	c #88A35E",
" 4	c #88A45E",
" 5	c #88A55D",
" 6	c #88A65E",
" 7	c #88A85D",
" 8	c #88A95C",
" 9	c #88AC5B",
" :	c #88AD5F",
" ;	c #88AF5F",
" <	c #88AF61",
" =	c #88B060",
" >	c #89985E",
" ?	c #899A5D",
" @	c #899C5E",
" A	c #899F5E",
" B	c #89A55F",
" C	c #89A75D",
" D	c #89A75E",
" E	c #89AB5C",
" F	c #89AD5B",
" G	c #89AF61",
" H	c #89B25F",
" I	c #89B35F",
" J	c #8A9960",
" K	c #8A9A5C",
" L	c #8A9A5F",
" M	c #8A9B5D",
" N	c #8A9D5B",
" O	c #8AA15E",
" P	c #8AA25E",
" Q	c #8AA35D",
" R	c #8AA55D",
" S	c #8AA65D",
" T	c #8AA75E",
" U	c #8AA95D",
" V	c #8AAB5C",
" W	c #8AAE5C",
" X	c #8AAF5D",
" Y	c #8AB062",
" Z	c #8AB063",
" [	c #8AB15D",
" ]	c #8AB15E",
" ^	c #8AB15F",
" _	c #8AB161",
" `	c #8AB261",
" a	c #8B9A5E",
" b	c #8B9B5F",
" c	c #8B9C5F",
" d	c #8BA55D",
" e	c #8BA65D",
" f	c #8BA95E",
" g	c #8BAD5D",
" h	c #8BB15D",
" i	c #8BB15E",
" j	c #8BB15F",
" k	c #8BB162",
" l	c #8BB163",
" m	c #8BB260",
" n	c #8BB463",
" o	c #8C9A5E",
" p	c #8C9B5E",
" q	c #8C9B5F",
" r	c #8C9C5F",
" s	c #8C9D5E",
" t	c #8C9D62",
" u	c #8CA25E",
" v	c #8CA35D",
" w	c #8CA35E",
" x	c #8CA65E",
" y	c #8CA85A",
" z	c #8CAB5E",
" {	c #8CAD5D",
" |	c #8CAE5D",
" }	c #8CAF5E",
" ~	c #8CB05C",
"! 	c #8CB05E",
"!!	c #8CB15D",
"!#	c #8CB260",
"!$	c #8CB261",
"!%	c #8CB264",
"!&	c #8CB362",
"!'	c #8CB363",
"!(	c #8CB462",
"!)	c #8CB560",
"!*	c #8D965D",
"!+	c #8D995E",
"!,	c #8D9B5D",
"!-	c #8D9B5F",
"!.	c #8D9C5F",
"!/	c #8D9F60",
"!0	c #8DA05C",
"!1	c #8DA05F",
"!2	c #8DA15F",
"!3	c #8DA35E",
"!4	c #8DA45B",
"!5	c #8DA45E",
"!6	c #8DA65B",
"!7	c #8DA65F",
"!8	c #8DA75C",
"!9	c #8DAA5D",
"!:	c #8DAB5B",
"!;	c #8DAB5E",
"!<	c #8DAD5D",
"!=	c #8DAE5B",
"!>	c #8DB05F",
"!?	c #8DB25E",
"!@	c #8DB35F",
"!A	c #8DB360",
"!B	c #8DB362",
"!C	c #8DB364",
"!D	c #8DB45E",
"!E	c #8DB461",
"!F	c #8DB55E",
"!G	c #8DB562",
"!H	c #8E9660",
"!I	c #8E995D",
"!J	c #8E9E5E",
"!K	c #8E9F5F",
"!L	c #8EA05E",
"!M	c #8EA05F",
"!N	c #8EA15F",
"!O	c #8EA25F",
"!P	c #8EA35E",
"!Q	c #8EA45F",
"!R	c #8EA65F",
"!S	c #8EAA5C",
"!T	c #8EAB5C",
"!U	c #8EAC5C",
"!V	c #8EB05E",
"!W	c #8EB25F",
"!X	c #8EB364",
"!Y	c #8EB365",
"!Z	c #8EB461",
"![	c #8EB462",
"!]	c #8EB464",
"!^	c #8EB563",
"!_	c #8EB564",
"!`	c #8EB763",
"!a	c #8F995E",
"!b	c #8F9960",
"!c	c #8F9A60",
"!d	c #8F9C5F",
"!e	c #8F9C60",
"!f	c #8F9D5F",
"!g	c #8F9E5F",
"!h	c #8F9F5F",
"!i	c #8F9F61",
"!j	c #8FA061",
"!k	c #8FA360",
"!l	c #8FA45D",
"!m	c #8FAB5E",
"!n	c #8FB15C",
"!o	c #8FB25F",
"!p	c #8FB35D",
"!q	c #8FB35F",
"!r	c #8FB45D",
"!s	c #8FB45F",
"!t	c #8FB463",
"!u	c #8FB464",
"!v	c #8FB55E",
"!w	c #8FB55F",
"!x	c #8FB561",
"!y	c #8FB562",
"!z	c #8FB563",
"!{	c #8FB564",
"!|	c #8FB565",
"!}	c #8FB65F",
"!~	c #8FB663",
"# 	c #8FB760",
"#!	c #90935E",
"##	c #909A5D",
"#$	c #909B5F",
"#%	c #909D5F",
"#&	c #909E5F",
"#'	c #90A55E",
"#(	c #90B45D",
"#)	c #90B462",
"#*	c #90B55D",
"#+	c #90B55E",
"#,	c #90B560",
"#-	c #90B561",
"#.	c #90B562",
"#/	c #90B563",
"#0	c #90B65D",
"#1	c #90B65E",
"#2	c #90B65F",
"#3	c #90B660",
"#4	c #90B662",
"#5	c #90B663",
"#6	c #90B85F",
"#7	c #90B861",
"#8	c #91965F",
"#9	c #91995D",
"#:	c #91995E",
"#;	c #91995F",
"#<	c #919B60",
"#=	c #919C5F",
"#>	c #919F60",
"#?	c #91A060",
"#@	c #91B563",
"#A	c #91B565",
"#B	c #91B567",
"#C	c #91B660",
"#D	c #91B661",
"#E	c #91B662",
"#F	c #91B664",
"#G	c #91B665",
"#H	c #91B75E",
"#I	c #91B760",
"#J	c #91B761",
"#K	c #91B762",
"#L	c #91B763",
"#M	c #91B963",
"#N	c #92955F",
"#O	c #92975F",
"#P	c #929B61",
"#Q	c #929C60",
"#R	c #929F61",
"#S	c #92B667",
"#T	c #92B763",
"#U	c #92B764",
"#V	c #92B766",
"#W	c #92B767",
"#X	c #92B861",
"#Y	c #92B961",
"#Z	c #92BA62",
"#[	c #93945F",
"#]	c #939460",
"#^	c #93965C",
"#_	c #939A62",
"#`	c #939B61",
"#a	c #939D60",
"#b	c #93B767",
"#c	c #93B866",
"#d	c #93B867",
"#e	c #93B965",
"#f	c #949660",
"#g	c #94B768",
"#h	c #94B867",
"#i	c #94B869",
"#j	c #94BA67",
"#k	c #94BB62",
"#l	c #95925E",
"#m	c #95955D",
"#n	c #95965F",
"#o	c #959760",
"#p	c #959D61",
"#q	c #959D62",
"#r	c #95B769",
"#s	c #95B868",
"#t	c #95B968",
"#u	c #95BA68",
"#v	c #96B86A",
"#w	c #96B969",
"#x	c #96BA69",
"#y	c #96BB67",
"#z	c #96BB68",
"#{	c #97935D",
"#|	c #979862",
"#}	c #97BC69",
"#~	c #989461",
"$ 	c #989760",
"$!	c #98A063",
"$#	c #99935F",
"$$	c #99945F",
"$%	c #99955F",
"$&	c #9A9761",
"$'	c #9A9D63",
"$(	c #9B9761",
"$)	c #9B9E62",
"$*	c #9C9460",
"$+	c #9C9561",
"$,	c #9C9E63",
"$-	c #9D9E63",
"$.	c #9E9C65",
"$/	c #9F9561",
"$0	c #9F965F",
"$1	c #9F9E63",
"$2	c #9F9F65",
"$3	c #A09562",
"$4	c #A29762",
"$5	c #A29963",
"$6	c #A29C65",
"$7	c #A29F65",
"$8	c #A39D65",
"$9	c #A3A066",
"$:	c #A49763",
"$;	c #A49965",
"$<	c #A49B64",
"$=	c #A59A64",
"$>	c #A59B65",
"$?	c #A69C65",
"$@	c #A69D66",
"$A	c #A79866",
"$B	c #A89A65",
"$C	c #A89A67",
"$D	c #A89B66",
"$E	c #A89B67",
"$F	c #A99A65",
"$G	c #A99C69",
"$H	c #A99D67",
"$I	c #A99E68",
"$J	c #AA9B69",
"$K	c #AA9D68",
"$L	c #AB9B67",
"$M	c #AB9E68",
"$N	c #AB9E6A",
"$O	c #AC9F6A",
"$P	c #AD9E69",
"$Q	c #AD9F69",
"$R	c #AE9E6B",
"$S	c #AF9F6C",
"$T	c #AFA06A",
"$U	c #B09D69",
"$V	c #B0A06B",
"$W	c #B0A06C",
"$X	c #B1A06C",
"$Y	c #B1A16D",
"$Z	c #B2A06C",
"$[	c #B3A16C",
"$]	c #B4A36E",
"$^	c #B4A371",
"$_	c #B5A36E",
"$`	c #B6A36E",
"$a	c #B6A371",
"$b	c #B6A46E",
"$c	c #B7A46F",
"$d	c #B7A573",
"$e	c #B8A46F",
"$f	c #B8A470",
"$g	c #B9A672",
"$h	c #B9A877",
"$i	c #BBA871",
"$j	c #BDA875",
"$k	c #BDA974",
"$l	c #BDA976",
"$m	c #BDAA76",
"$n	c #BDAA7B",
"$o	c #BEA974",
"$p	c #BEAA77",
"$q	c #BFAB7B",
"$r	c #BFAD7E",
"$s	c #C0AC78",
"$t	c #C0AD7A",
"$u	c #C0AE7F",
"$v	c #C0AE80",
"$w	c #C1AC75",
"$x	c #C1AC7D",
"$y	c #C1AD7A",
"$z	c #C1AE7F",
"${	c #C2AE78",
"$|	c #C2AE7B",
"$}	c #C2AE7F",
"$~	c #C2AE80",
"% 	c #C2B07F",
"%!	c #C3AF7A",
"%#	c #C4B07E",
"%$	c #C4B17E",
"%%	c #C5B382",
"%&	c #C6B27C",
"%'	c #C6B381",
"%(	c #C6B383",
"%)	c #C6B484",
"%*	c #C7B683",
"%+	c #C8B583",
"%,	c #C8B584",
"%-	c #C8B685",
"%.	c #C9B684",
"%/	c #C9B685",
"%0	c #C9B686",
"%1	c #CAB788",
"%2	c #CAB888",
"%3	c #CAB987",
"%4	c #CBB888",
"%5	c #CBB88A",
"%6	c #CBB88B",
"%7	c #CBB989",
"%8	c #CBBA8B",
"%9	c #CCB989",
"%:	c #CCBA8B",
"%;	c #CCBB8B",
"%<	c #CCBB8D",
"%=	c #CDB98D",
"%>	c #CDBA8B",
"%?	c #CDBA8C",
"%@	c #CDBB8D",
"%A	c #CDBB8E",
"%B	c #CDBC8D",
"%C	c #CDBD8E",
"%D	c #CDBD90",
"%E	c #CDBD91",
"%F	c #CEBA8F",
"%G	c #CEBB8D",
"%H	c #CEBB8F",
"%I	c #CEBC8D",
"%J	c #CEBC8F",
"%K	c #CEBC90",
"%L	c #CEBC91",
"%M	c #CEBD8E",
"%N	c #CEBD8F",
"%O	c #CEBD90",
"%P	c #CEBD91",
"%Q	c #CEBE90",
"%R	c #CEBE91",
"%S	c #CEBE92",
"%T	c #CFBD8F",
"%U	c #CFBD90",
"%V	c #CFBD91",
"%W	c #CFBD92",
"%X	c #CFBE8F",
"%Y	c #CFBE90",
"%Z	c #CFBE91",
"%[	c #CFBE92",
"%]	c #CFBE94",
"%^	c #CFBE95",
"%_	c #D0BF93",
"%`	c #D0BF94",
"%a	c #D1BF95",
"%Z%Z%P%P%P%P%R%R%O%D%E%E%P%P%O%K%J%A%A%H%K%W%]%^",
"%Z%Z%P%P%R%R%R%R%O%E%D%N%N%N%<%6%0%)%-%5%=%F%L%V",
"%P%P%O%O%R%R%P%O%O%N%B%8%2%($q$d$Y$Q$S$^$h$n$r$v",
"%P%P%O%P%P%R%O%N%<%3%*%$$s$g$V$I$?$<$=$D$K$G$N$O",
"%R%R%P%R%R%P%O%;%+%&${$k$b$T$H$@$8$1$,$)$-$2$9$7",
"%S%R%R%R%R%N%G%.%!$w$i$[$M$>$6$.$'#p#a#=#$#<#q$!",
"%[%[%Z%R%R%N%9%#$o$c$P$5$&#|#_!b!g#>#%!d q L b!i",
"%[%[%[%R%R%@%'$l$Z$;$(#n#8!c!.!0!l#'!k!j t J > r",
"%[%[%R%R%C%,$m$X$4$$#o#;!e!L!4!6!S!T!U!m!R!/ K N",
"%S%S%R%Q%1$t$`$B$%$ #`!h!Q!8 y!:!<!=!n#(!p!W } |",
"%R%R%Q%>%#$f$L$+#f#P!M w x!9!<!V!q!r#*#0!v#2#3#-",
"%P%O%I%/$j$U$3#]!c!1 v d S U g!?#2#H#H#1#2#C#J#4",
"%P%U%?%#$e$F#~!H!f!O!5 e C 8 F!!#,#I#1#+#2#D#E#4",
"%O%O%:$|$_$:#!!-!N!5 x T + E!  i!Z#.#,#,#4#-!Z!A",
"%Q%N%7$y$]$*!*!J u Q B 6 ( W!A ^!B#@#)!{!_!$ j!A",
"%Y%T%4$y$W#l!a!K O 2 4 7 9 h!# m!{#b#A!X _ =!G#U",
"%Y%X%/$p$E#[#Q!2 2 3 D V!!!x!y!t#S#i#g!Y <!'#F#U",
"%Y%M%%$a$/#N#R!3 R f { ~!w#L#/#G#g#r#i!C G!]#5#/",
"%Y%M% $R$##O#?!7 z!>!D!}#J#4![#V#w#v#i!% -!&!y#5",
"%[%J$u$J#{#:#&!P!;!s# #6#X#K!z#V#t#s#B Y - `!^!~",
"%_%N$z$C#m!I!, s P!o# #7#Y#T!u!|#c#h#A k ) 0 n!(",
"%`%U$}$A#^!+ a c A 5!@#Y#k!~ ;!C#d#z#j!^ . % * /",
"%a%V$~$:#9 o ? 1 ' ! ,#3#Z ] # l#W#x#}#e!E H I!)",
"%`%V$x$0## p M @ & $   X!F [ : Z!C#V#u#y#T!G!`#M"};
