/* XPM */
static char *05[] = {
"24 24 443 2",
"  	c #7EA958",
" !	c #7FA958",
" #	c #81AB5A",
" $	c #81AC5B",
" %	c #82AD5C",
" &	c #83AC58",
" '	c #84AC5B",
" (	c #84AD58",
" )	c #84AE5B",
" *	c #85AA5D",
" +	c #85AC5C",
" ,	c #85AD5B",
" -	c #85AE5C",
" .	c #85AE5E",
" /	c #85AE5F",
" 0	c #85AF5B",
" 1	c #85AF5D",
" 2	c #86AB5E",
" 3	c #86AE5E",
" 4	c #86AE5F",
" 5	c #86AE61",
" 6	c #86AF5A",
" 7	c #86AF5C",
" 8	c #86AF5E",
" 9	c #87AC5E",
" :	c #87AC60",
" ;	c #87AE5D",
" <	c #87AF5B",
" =	c #87AF5F",
" >	c #87AF61",
" ?	c #87B05B",
" @	c #87B05C",
" A	c #87B05E",
" B	c #88A360",
" C	c #88AD5F",
" D	c #88AD60",
" E	c #88AE5D",
" F	c #88AF5E",
" G	c #88B15C",
" H	c #88B15F",
" I	c #88B25D",
" J	c #89985A",
" K	c #899F5F",
" L	c #89A361",
" M	c #89AE62",
" N	c #89AF61",
" O	c #89B05F",
" P	c #89B060",
" Q	c #89B063",
" R	c #89B15D",
" S	c #89B15F",
" T	c #89B160",
" U	c #89B162",
" V	c #89B25D",
" W	c #89B260",
" X	c #8A965B",
" Y	c #8AA05F",
" Z	c #8AA160",
" [	c #8AA361",
" ]	c #8AA462",
" ^	c #8AA861",
" _	c #8AAE5F",
" `	c #8AAF60",
" a	c #8AAF62",
" b	c #8AB05D",
" c	c #8AB05E",
" d	c #8AB05F",
" e	c #8AB161",
" f	c #8AB162",
" g	c #8AB25D",
" h	c #8AB25E",
" i	c #8AB25F",
" j	c #8AB260",
" k	c #8AB35F",
" l	c #8AB361",
" m	c #8BA160",
" n	c #8BA360",
" o	c #8BA862",
" p	c #8BB05F",
" q	c #8BB061",
" r	c #8BB062",
" s	c #8BB15F",
" t	c #8BB161",
" u	c #8BB162",
" v	c #8BB163",
" w	c #8BB25E",
" x	c #8BB25F",
" y	c #8BB260",
" z	c #8BB262",
" {	c #8BB35F",
" |	c #8BB361",
" }	c #8C9A5E",
" ~	c #8C9C5D",
"! 	c #8C9D5E",
"!!	c #8C9E5D",
"!#	c #8C9E5E",
"!$	c #8C9E60",
"!%	c #8C9E61",
"!&	c #8C9F5E",
"!'	c #8C9F5F",
"!(	c #8C9F60",
"!)	c #8CA462",
"!*	c #8CA85F",
"!+	c #8CA963",
"!,	c #8CB060",
"!-	c #8CB061",
"!.	c #8CB161",
"!/	c #8CB25F",
"!0	c #8CB264",
"!1	c #8CB360",
"!2	c #8CB361",
"!3	c #8CB45E",
"!4	c #8CB45F",
"!5	c #8D985D",
"!6	c #8D985E",
"!7	c #8D9E5E",
"!8	c #8D9E5F",
"!9	c #8D9F60",
"!:	c #8DA660",
"!;	c #8DA861",
"!<	c #8DA862",
"!=	c #8DAC61",
"!>	c #8DB062",
"!?	c #8DB161",
"!@	c #8DB262",
"!A	c #8DB263",
"!B	c #8DB360",
"!C	c #8DB361",
"!D	c #8DB362",
"!E	c #8DB45F",
"!F	c #8DB461",
"!G	c #8DB462",
"!H	c #8DB463",
"!I	c #8DB55F",
"!J	c #8E9A60",
"!K	c #8E9B5D",
"!L	c #8E9B5E",
"!M	c #8E9E5F",
"!N	c #8E9E61",
"!O	c #8E9F5F",
"!P	c #8EA461",
"!Q	c #8EA560",
"!R	c #8EA75F",
"!S	c #8EA761",
"!T	c #8EAD63",
"!U	c #8EAE62",
"!V	c #8EAF63",
"!W	c #8EAF65",
"!X	c #8EB062",
"!Y	c #8EB161",
"!Z	c #8EB162",
"![	c #8EB261",
"!]	c #8EB360",
"!^	c #8EB361",
"!_	c #8EB460",
"!`	c #8EB461",
"!a	c #8EB463",
"!b	c #8EB465",
"!c	c #8EB560",
"!d	c #8EB561",
"!e	c #8EB563",
"!f	c #8EB661",
"!g	c #8EB662",
"!h	c #8EB861",
"!i	c #8F9A5F",
"!j	c #8F9B60",
"!k	c #8F9D61",
"!l	c #8F9E60",
"!m	c #8F9F61",
"!n	c #8FA662",
"!o	c #8FA761",
"!p	c #8FA960",
"!q	c #8FAE62",
"!r	c #8FAF63",
"!s	c #8FB065",
"!t	c #8FB160",
"!u	c #8FB162",
"!v	c #8FB361",
"!w	c #8FB461",
"!x	c #8FB462",
"!y	c #8FB463",
"!z	c #8FB464",
"!{	c #8FB465",
"!|	c #8FB561",
"!}	c #8FB562",
"!~	c #8FB565",
"# 	c #8FB661",
"#!	c #8FB662",
"##	c #8FB664",
"#$	c #8FB761",
"#%	c #8FB763",
"#&	c #909A5C",
"#'	c #909A5D",
"#(	c #909B60",
"#)	c #909C5F",
"#*	c #909D5F",
"#+	c #909D60",
"#,	c #909D61",
"#-	c #90A562",
"#.	c #90AA61",
"#/	c #90B363",
"#0	c #90B461",
"#1	c #90B463",
"#2	c #90B467",
"#3	c #90B561",
"#4	c #90B562",
"#5	c #90B563",
"#6	c #90B564",
"#7	c #90B662",
"#8	c #90B663",
"#9	c #90B664",
"#:	c #90B667",
"#;	c #90B762",
"#<	c #90B763",
"#=	c #90B764",
"#>	c #90B765",
"#?	c #919B5E",
"#@	c #919B60",
"#A	c #919C5E",
"#B	c #919C60",
"#C	c #919D5F",
"#D	c #919E5F",
"#E	c #91A262",
"#F	c #91AA60",
"#G	c #91AF63",
"#H	c #91B064",
"#I	c #91B161",
"#J	c #91B163",
"#K	c #91B265",
"#L	c #91B362",
"#M	c #91B364",
"#N	c #91B463",
"#O	c #91B562",
"#P	c #91B662",
"#Q	c #91B663",
"#R	c #91B664",
"#S	c #91B665",
"#T	c #91B666",
"#U	c #91B667",
"#V	c #91B763",
"#W	c #91B764",
"#X	c #91B767",
"#Y	c #91B863",
"#Z	c #91B864",
"#[	c #91B865",
"#]	c #91B964",
"#^	c #91BA64",
"#_	c #92955C",
"#`	c #929860",
"#a	c #92995F",
"#b	c #929A5E",
"#c	c #929C5F",
"#d	c #929C60",
"#e	c #929C61",
"#f	c #929D60",
"#g	c #92B364",
"#h	c #92B564",
"#i	c #92B565",
"#j	c #92B566",
"#k	c #92B663",
"#l	c #92B665",
"#m	c #92B764",
"#n	c #92B768",
"#o	c #92B863",
"#p	c #92B864",
"#q	c #92B866",
"#r	c #92B962",
"#s	c #92B964",
"#t	c #92BA62",
"#u	c #92BA63",
"#v	c #92BA65",
"#w	c #93985E",
"#x	c #93985F",
"#y	c #93995F",
"#z	c #939A5E",
"#{	c #939A5F",
"#|	c #939A60",
"#}	c #939B5E",
"#~	c #939B5F",
"$ 	c #939B60",
"$!	c #939B61",
"$#	c #939C60",
"$$	c #939D5F",
"$%	c #93A061",
"$&	c #93A363",
"$'	c #93B768",
"$(	c #93B865",
"$)	c #93B866",
"$*	c #93B867",
"$+	c #93B964",
"$,	c #93B965",
"$-	c #93B966",
"$.	c #93B968",
"$/	c #93BA62",
"$0	c #93BA63",
"$1	c #93BA64",
"$2	c #93BA65",
"$3	c #93BA66",
"$4	c #93BB65",
"$5	c #93BB66",
"$6	c #94945C",
"$7	c #94995F",
"$8	c #949960",
"$9	c #949A5E",
"$:	c #949A5F",
"$;	c #949B5F",
"$<	c #949B60",
"$=	c #949C60",
"$>	c #94A062",
"$?	c #94B769",
"$@	c #94B867",
"$A	c #94B869",
"$B	c #94B965",
"$C	c #94B967",
"$D	c #94B968",
"$E	c #94B96A",
"$F	c #94BA64",
"$G	c #94BA65",
"$H	c #94BA66",
"$I	c #94BB65",
"$J	c #94BC65",
"$K	c #94BC66",
"$L	c #95965F",
"$M	c #959E61",
"$N	c #95BA66",
"$O	c #95BA67",
"$P	c #95BB64",
"$Q	c #95BB66",
"$R	c #95BB68",
"$S	c #95BC66",
"$T	c #95BC67",
"$U	c #95BC68",
"$V	c #95BD64",
"$W	c #96955F",
"$X	c #96985F",
"$Y	c #96BB66",
"$Z	c #96BB67",
"$[	c #96BB68",
"$]	c #96BC66",
"$^	c #96BC67",
"$_	c #96BC69",
"$`	c #96BD66",
"$a	c #96BD67",
"$b	c #96BE65",
"$c	c #96BE66",
"$d	c #979661",
"$e	c #979760",
"$f	c #97995F",
"$g	c #979B63",
"$h	c #97A062",
"$i	c #97BC67",
"$j	c #97BD66",
"$k	c #97BD68",
"$l	c #97BD69",
"$m	c #97BE66",
"$n	c #97BE67",
"$o	c #97BE68",
"$p	c #97BE69",
"$q	c #98BE68",
"$r	c #98BF67",
"$s	c #98BF68",
"$t	c #98BF69",
"$u	c #98C069",
"$v	c #999760",
"$w	c #99BF69",
"$x	c #99BF6A",
"$y	c #99C068",
"$z	c #99C069",
"${	c #9A9560",
"$|	c #9C9862",
"$}	c #9CC16B",
"$~	c #9D9E62",
"% 	c #9E9E63",
"%!	c #9E9F62",
"%#	c #9F9E64",
"%$	c #A09E63",
"%%	c #A19966",
"%&	c #A19A64",
"%'	c #A39965",
"%(	c #A39C65",
"%)	c #A39F65",
"%*	c #A59E66",
"%+	c #A69D68",
"%,	c #AEA06B",
"%-	c #B0A16F",
"%.	c #B2A26C",
"%/	c #B3A273",
"%0	c #B3A473",
"%1	c #B6A36F",
"%2	c #B6A46F",
"%3	c #B9A572",
"%4	c #BBA775",
"%5	c #BBA878",
"%6	c #BDA876",
"%7	c #C1AC7B",
"%8	c #C2AC7B",
"%9	c #C2B080",
"%:	c #C2B081",
"%;	c #C3AE7D",
"%<	c #C5B283",
"%=	c #C6B486",
"%>	c #C7B386",
"%?	c #C7B485",
"%@	c #C7B587",
"%A	c #C8B687",
"%B	c #C8B688",
"%C	c #CAB487",
"%D	c #CAB688",
"%E	c #CCB98B",
"%F	c #CDB789",
"%G	c #CDBA8C",
"%H	c #CEBC8E",
"%I	c #CFBA8B",
"%J	c #CFBA8D",
"%K	c #CFBB8C",
"%L	c #CFBC8E",
"%M	c #CFBD91",
"%N	c #CFBE90",
"%O	c #D0BC8E",
"%P	c #D0BD90",
"%Q	c #D0BD91",
"%R	c #D0BE90",
"%S	c #D0BE93",
"%T	c #D0BE94",
"%U	c #D1BD8F",
"%V	c #D1BD91",
"%W	c #D1BE91",
"%X	c #D1BE92",
"%Y	c #D1BE93",
"%Z	c #D1BE94",
"%[	c #D1BF91",
"%]	c #D1BF92",
"%^	c #D2BD8F",
"%_	c #D2BE91",
"%`	c #D2BE92",
"%a	c #D2BF92",
"%b	c #D2C091",
"%c	c #D2C092",
"%d	c #D3BF92",
"%e	c #D3BF93",
"%f	c #D4BE90",
"%g	c #D4BF92",
"%h	c #D4C092",
"%T%T%S%Z%Y%X%W%[%[%W%]%]%c%[%N%R%R%P%W%`%d%e%g%h",
"%M%Q%Q%V%`%_%_%a%a%_%a%a%b%[%H%E%D%?%@%A%=%B%J%f",
"%:%<%>%C%F%I%K%O%U%^%^%L%G%9%-%'$|$v$e$f$X$d%%%/",
"%,%.%2%1%3%4%6%8%;%7%5%0%+${$6#_#w$7#y#{#b#a#`$g",
"%#% $~$~%!%$%)%*%(%&$|$W$L$8#|$ #~#d#c#c#C#)#)#C",
"$h$M$$#c#}#z$9$:$;$<$8#x#|$!#e#d#f#,#+!l!M!M!7 ~",
"$>$%#D#*#A#'#&#?#?#c$#$=#d#@!j!k!m!9!$!(!'!&!#! ",
"$&#E!O!8!M!L!K!5!6!i#B#(!J!N#-#F#.!: n Z m Y Y K",
"!o!p!R!S!n!Q!P!! J X }!%!)!q#k$F$G#k#G!< ] [ L B",
"!t#I#I#J#H!q!r!U!=!*!;!V#V$/$0$P$j$j$]#i!T!+ o ^",
"#O#O#L#g#g!u!X!Z!Y!v#5#p$4$`$m$r$y$z$z$p$C#K!s!W",
"#P#5#/#g#g!Z!,!?![!w# #Y$5$o$s$u$z$z$z$w$l$@#j#2",
"#8#R#h#g#M!> _!,!^!_!_!d#v$o$t$u$s$n$n$k$^$N$)#q",
"!B!x#5#N#1!- E b!/!1 { h!f$S$q$q$n$T$H$($,$B$^$q",
"!B!B!]#0!x p ; c!/!1 { g!E$1$]$S$a$3#W#m$-$H$x$}",
"#Q#4#3#3!w d F!C!}#!!|!c#u$`$a$S$2#%#<$R$_$U$i$Y",
"#R#Q!}!w s + T#9#[#9#!#Y$J$K$4$I#s#Z$H$T$3$3$G$+",
"#Q#Q!` x ' ! H!a!D e P j | k!4#$#]$G$Y$G#;#o$1$1",
"#V#V!} S #   , = 5 Q > / . 7 ?!3#Y$N$Z$Q#p#V$+#s",
"#=#7!F A % $ W z f!0 U 4 3 - 6# $2$O$[$O#Q###6!~",
"!2 x V I 1 8#9$*#T#:!b f T ) (#;$H$@$C#R!. u v r",
" k!I!I!I i O#6$D$A$A#n!~ l 0 & w#W#l#S!y q a M D",
"!h#r#t#u!g y!H$.$E$?$'!~ S @ 6 <!F!z!A!@ r N : 2",
"$0$V$b$c#^!G!e#>#X#U!{ t A R G R!C!D t q ` C 9 *"};
