/* XPM */
static char *06[] = {
"24 24 451 2",
"  	c #83AD5D",
" !	c #85AB5E",
" #	c #85AE60",
" $	c #86AC5E",
" %	c #86AC5F",
" &	c #86AD5C",
" '	c #86AD5F",
" (	c #86AF61",
" )	c #86B05E",
" *	c #87A25E",
" +	c #87AC61",
" ,	c #87AD62",
" -	c #87AF60",
" .	c #87B05E",
" /	c #87B05F",
" 0	c #889D5E",
" 1	c #889E5E",
" 2	c #88A25F",
" 3	c #88A260",
" 4	c #88AD5F",
" 5	c #88AE5E",
" 6	c #88AE62",
" 7	c #88AF60",
" 8	c #88AF61",
" 9	c #88B25F",
" :	c #899A5C",
" ;	c #899E5E",
" <	c #89A05E",
" =	c #89A15F",
" >	c #89A461",
" ?	c #89A761",
" @	c #89A962",
" A	c #89AD62",
" B	c #89AE60",
" C	c #89AE61",
" D	c #89AF60",
" E	c #89AF61",
" F	c #89B061",
" G	c #89B062",
" H	c #89B25F",
" I	c #8A9C5D",
" J	c #8A9F5F",
" K	c #8AA35F",
" L	c #8AA461",
" M	c #8AA861",
" N	c #8AA862",
" O	c #8AAE61",
" P	c #8AAF60",
" Q	c #8AAF64",
" R	c #8AB05F",
" S	c #8AB060",
" T	c #8AB061",
" U	c #8AB062",
" V	c #8AB063",
" W	c #8AB160",
" X	c #8AB162",
" Y	c #8AB25F",
" Z	c #8AB261",
" [	c #8AB35F",
" ]	c #8AB360",
" ^	c #8B9A5C",
" _	c #8B9C5D",
" `	c #8BA160",
" a	c #8BA260",
" b	c #8BA360",
" c	c #8BA361",
" d	c #8BA460",
" e	c #8BA560",
" f	c #8BA562",
" g	c #8BA661",
" h	c #8BA762",
" i	c #8BA962",
" j	c #8BAA62",
" k	c #8BB060",
" l	c #8BB061",
" m	c #8BB062",
" n	c #8BB063",
" o	c #8BB066",
" p	c #8BB161",
" q	c #8BB163",
" r	c #8BB164",
" s	c #8BB462",
" t	c #8C9A5B",
" u	c #8C9C5E",
" v	c #8C9D5E",
" w	c #8C9E5E",
" x	c #8CA05F",
" y	c #8CA260",
" z	c #8CA563",
" {	c #8CA861",
" |	c #8CA961",
" }	c #8CA962",
" ~	c #8CAA62",
"! 	c #8CAA63",
"!!	c #8CAB64",
"!#	c #8CAC63",
"!$	c #8CAE65",
"!%	c #8CB162",
"!&	c #8CB166",
"!'	c #8CB261",
"!(	c #8CB264",
"!)	c #8CB265",
"!*	c #8CB360",
"!+	c #8CB362",
"!,	c #8CB363",
"!-	c #8CB462",
"!.	c #8CB463",
"!/	c #8CB563",
"!0	c #8D9C5C",
"!1	c #8D9C5D",
"!2	c #8D9D5F",
"!3	c #8D9F5F",
"!4	c #8DA05F",
"!5	c #8DA061",
"!6	c #8DA15F",
"!7	c #8DA261",
"!8	c #8DA362",
"!9	c #8DA563",
"!:	c #8DAC64",
"!;	c #8DAD64",
"!<	c #8DAF63",
"!=	c #8DB067",
"!>	c #8DB166",
"!?	c #8DB262",
"!@	c #8DB263",
"!A	c #8DB264",
"!B	c #8DB363",
"!C	c #8DB365",
"!D	c #8DB461",
"!E	c #8DB463",
"!F	c #8DB561",
"!G	c #8DB563",
"!H	c #8E9D5E",
"!I	c #8EA162",
"!J	c #8EA563",
"!K	c #8EA764",
"!L	c #8EAC64",
"!M	c #8EAF63",
"!N	c #8EAF65",
"!O	c #8EB064",
"!P	c #8EB065",
"!Q	c #8EB166",
"!R	c #8EB263",
"!S	c #8EB264",
"!T	c #8EB362",
"!U	c #8EB363",
"!V	c #8EB365",
"!W	c #8EB464",
"!X	c #8EB465",
"!Y	c #8EB466",
"!Z	c #8EB562",
"![	c #8EB563",
"!]	c #8EB564",
"!^	c #8EB663",
"!_	c #8EB763",
"!`	c #8F9B5D",
"!a	c #8F9E5E",
"!b	c #8F9F5F",
"!c	c #8FA162",
"!d	c #8FA260",
"!e	c #8FA363",
"!f	c #8FA663",
"!g	c #8FA764",
"!h	c #8FAB64",
"!i	c #8FB063",
"!j	c #8FB065",
"!k	c #8FB264",
"!l	c #8FB266",
"!m	c #8FB268",
"!n	c #8FB364",
"!o	c #8FB366",
"!p	c #8FB463",
"!q	c #8FB464",
"!r	c #8FB465",
"!s	c #8FB466",
"!t	c #8FB563",
"!u	c #8FB566",
"!v	c #8FB665",
"!w	c #8FB763",
"!x	c #8FB765",
"!y	c #909B5D",
"!z	c #909B5E",
"!{	c #909B5F",
"!|	c #909E5F",
"!}	c #90A262",
"!~	c #90A362",
"# 	c #90B264",
"#!	c #90B267",
"##	c #90B464",
"#$	c #90B465",
"#%	c #90B564",
"#&	c #90B565",
"#'	c #90B566",
"#(	c #90B664",
"#)	c #90B665",
"#*	c #90B666",
"#+	c #90B667",
"#,	c #90B766",
"#-	c #90B866",
"#.	c #90B964",
"#/	c #919B5E",
"#0	c #919D61",
"#1	c #919E5F",
"#2	c #919F60",
"#3	c #91A260",
"#4	c #91A262",
"#5	c #91AD64",
"#6	c #91AE65",
"#7	c #91AF65",
"#8	c #91AF66",
"#9	c #91B466",
"#:	c #91B467",
"#;	c #91B468",
"#<	c #91B565",
"#=	c #91B566",
"#>	c #91B567",
"#?	c #91B665",
"#@	c #91B666",
"#A	c #91B667",
"#B	c #91B765",
"#C	c #91B767",
"#D	c #91B768",
"#E	c #91B864",
"#F	c #91B865",
"#G	c #91B866",
"#H	c #91B867",
"#I	c #91B965",
"#J	c #929D5E",
"#K	c #929E62",
"#L	c #929F63",
"#M	c #92A063",
"#N	c #92A161",
"#O	c #92A162",
"#P	c #92B366",
"#Q	c #92B466",
"#R	c #92B666",
"#S	c #92B667",
"#T	c #92B668",
"#U	c #92B765",
"#V	c #92B766",
"#W	c #92B767",
"#X	c #92B768",
"#Y	c #92B863",
"#Z	c #92B866",
"#[	c #92B867",
"#]	c #92B963",
"#^	c #92B964",
"#_	c #92B967",
"#`	c #92BA64",
"#a	c #939C5F",
"#b	c #939C60",
"#c	c #939D60",
"#d	c #939D61",
"#e	c #93A061",
"#f	c #93B567",
"#g	c #93B568",
"#h	c #93B665",
"#i	c #93B668",
"#j	c #93B767",
"#k	c #93B768",
"#l	c #93B866",
"#m	c #93B867",
"#n	c #93B965",
"#o	c #93B966",
"#p	c #93B967",
"#q	c #93B968",
"#r	c #93BA65",
"#s	c #93BA66",
"#t	c #93BA68",
"#u	c #93BB64",
"#v	c #94955F",
"#w	c #949D61",
"#x	c #94B568",
"#y	c #94B767",
"#z	c #94B768",
"#{	c #94B865",
"#|	c #94B867",
"#}	c #94B868",
"#~	c #94B86A",
"$ 	c #94B966",
"$!	c #94B967",
"$#	c #94B968",
"$$	c #94B969",
"$%	c #94BA64",
"$&	c #94BA65",
"$'	c #94BB69",
"$(	c #95945D",
"$)	c #95955C",
"$*	c #959D61",
"$+	c #959D62",
"$,	c #95A061",
"$-	c #95B768",
"$.	c #95B866",
"$/	c #95B867",
"$0	c #95B868",
"$1	c #95B86A",
"$2	c #95B969",
"$3	c #95BA66",
"$4	c #95BA68",
"$5	c #95BA69",
"$6	c #95BC65",
"$7	c #96975D",
"$8	c #969D61",
"$9	c #969D62",
"$:	c #969F62",
"$;	c #96A061",
"$<	c #96B868",
"$=	c #96B86A",
"$>	c #96B967",
"$?	c #96B968",
"$@	c #96B969",
"$A	c #96B96A",
"$B	c #96BA68",
"$C	c #96BA69",
"$D	c #96BB67",
"$E	c #96BB68",
"$F	c #96BB69",
"$G	c #96BC66",
"$H	c #96BC69",
"$I	c #96BC6A",
"$J	c #96BD65",
"$K	c #96BD67",
"$L	c #979660",
"$M	c #97B96A",
"$N	c #97BA68",
"$O	c #97BA6A",
"$P	c #97BB69",
"$Q	c #97BC69",
"$R	c #97BC6A",
"$S	c #97BD67",
"$T	c #97BD68",
"$U	c #97BD69",
"$V	c #97BE69",
"$W	c #989860",
"$X	c #989960",
"$Y	c #989A61",
"$Z	c #989B61",
"$[	c #989D62",
"$]	c #98BA6A",
"$^	c #98BA6B",
"$_	c #98BC6A",
"$`	c #98BD6B",
"$a	c #98BE65",
"$b	c #98BE67",
"$c	c #98BF66",
"$d	c #999960",
"$e	c #999961",
"$f	c #999A61",
"$g	c #999E62",
"$h	c #999E63",
"$i	c #99BE68",
"$j	c #99BE6A",
"$k	c #99BE6B",
"$l	c #99BF68",
"$m	c #99C065",
"$n	c #99C068",
"$o	c #9A9961",
"$p	c #9ABF68",
"$q	c #9AC168",
"$r	c #9BC16A",
"$s	c #9BC268",
"$t	c #9BC269",
"$u	c #9C975E",
"$v	c #9C9A62",
"$w	c #9C9C63",
"$x	c #9C9D63",
"$y	c #9CC268",
"$z	c #9CC368",
"${	c #9CC369",
"$|	c #9CC469",
"$}	c #9CC46A",
"$~	c #9DC368",
"% 	c #9DC469",
"%!	c #9E975E",
"%#	c #9E9964",
"%$	c #9E9D65",
"%%	c #9EC569",
"%&	c #9F9861",
"%'	c #9F9960",
"%(	c #A09863",
"%)	c #A09A64",
"%*	c #A09B65",
"%+	c #A09C64",
"%,	c #A09D63",
"%-	c #A29962",
"%.	c #A29A62",
"%/	c #A29E65",
"%0	c #A49965",
"%1	c #A59963",
"%2	c #A59B68",
"%3	c #A89F68",
"%4	c #A99966",
"%5	c #AA9C67",
"%6	c #AB9D68",
"%7	c #AB9E67",
"%8	c #AC9B68",
"%9	c #ADA06E",
"%:	c #AE9F6B",
"%;	c #B19D6A",
"%<	c #B39D6B",
"%=	c #B39E6C",
"%>	c #B3A06F",
"%?	c #B5A676",
"%@	c #B8A573",
"%A	c #BDA978",
"%B	c #BFAE7E",
"%C	c #C1A675",
"%D	c #C4AE80",
"%E	c #C4B283",
"%F	c #C9B385",
"%G	c #C9B386",
"%H	c #CAB483",
"%I	c #CAB584",
"%J	c #CAB684",
"%K	c #CAB685",
"%L	c #CBB787",
"%M	c #CDB081",
"%N	c #CDB685",
"%O	c #CEB888",
"%P	c #CEB88A",
"%Q	c #CFB786",
"%R	c #D0B587",
"%S	c #D0B98A",
"%T	c #D1B988",
"%U	c #D1BB8C",
"%V	c #D1BC8B",
"%W	c #D1BC8C",
"%X	c #D1BC8F",
"%Y	c #D2BB8C",
"%Z	c #D2BB8D",
"%[	c #D3BB8D",
"%]	c #D3BB8E",
"%^	c #D3BC8D",
"%_	c #D4BB8B",
"%`	c #D4BD8D",
"%a	c #D4BF92",
"%b	c #D4C093",
"%c	c #D5BB8E",
"%d	c #D5BF8F",
"%e	c #D5C195",
"%f	c #D6C092",
"%g	c #D6C095",
"%h	c #D6C194",
"%i	c #D6C195",
"%j	c #D6C295",
"%k	c #D6C395",
"%l	c #D7C193",
"%m	c #D7C194",
"%n	c #D7C195",
"%o	c #D7C295",
"%p	c #D7C296",
"%b%e%e%i%j%o%p%p%n%g%i%i%h%m%l%f%d%`%^%]%Z%U%W%V",
"%f%h%h%i%j%k%h%a%X%P%L%K%K%J%I%H%N%T%_%c%[%Y%W%W",
"%D%F%G%E%B%?%9%2%(%&%!$u%'%.%-%1%4%<%C%M%R%Q%O%S",
"%*%#$L#v$($)$7$W$X$Y$Z$f$e$d$o$v%)%0%8%;%=%>%@%A",
"#c#J!y!`!z#/#a#b#d#w#w$*$+$9$8$[$g$x%/%3%7%5%6%:",
"!1!0 t ^ u!H!a!b!b!b!|#1#2#e#e#e$,$;$:$h$w%,%+%$",
" v _ : : I w!4!6!6 x!4!3!6!d#3#4#O#N#O#M#L#K#0!{",
" J ; 0 1 = K d e d b a ` a y!7!8!e!~!~!}!c!I!5!2",
" 2 3 > ? j ~ } | | { g L L f f z!K!g!g!f!J!9 c <",
" M i!#!<!k# !i!M!O!P!; j N!!!:! !L#6#8#7#5!h h *",
"!N!l#<#U$!$3#{#h#=#>#;!Q!$!=!m#!#g$-#x#f#Q#P!j @",
"#:#Z#r$6$b$p$l$T$##W#+!Y!& o!>!o$$$F$C$@#}#}#k!Q",
"#Z$&$J$c$y% ${$r$U#Z#,!Y!) Q A O#W$R$R$R$H$F$5#A",
"$S$n$t$~%%% $z$r$V#_#H#'!) , + m#|$Q$R$j$k$I$'#q",
"$i$q$}$|$s$m$a$T#t#[#m#W!u V 6!)#}$N$P$`$_#p#p#Z",
"$%#`#u$K$G#]#E#-#-#,#[#m#C!X U q#z$C#R!X!V!B#B#U",
"#^#.#I#s#o!^!G!/!/!-![#)#[#C!r!R#R#}#C!( G!B#B#U",
"#^#.#F#G!x!G!/!.!E!- Y W!E!v#)#<#y$/$#!C 8!]#)#?",
"#E!w![!D!*#(#l#V#<#)!+ 5 & R!p#|$@$<#z r -!,!t#%",
"!W#&#*!T#h$]$O$1#k#R#&!B S k###}$@$0#> V ( Z!G#%",
" T!C#D#X$M$^$=#~#i#9#$!n!?!@!V#>$/$.#& X # / s![",
" B m!s#T$@$A$2#k#9#<!n!% l F E!V$0$N$ !Z .   ) ]",
" % E!A#=#y#}#}#R#&!n!? l D ' % n#S$B$E#n!F 9 H [",
" ! 7!U#h$>$?#j#@!q!' p P 4 $ $ C!S#S$4$D#Y!F!_!w"};
