/* XPM */
static char *07[] = {
"24 24 452 2",
"  	c #769459",
" !	c #779559",
" #	c #789659",
" $	c #78965A",
" %	c #789759",
" &	c #79965A",
" '	c #7A9759",
" (	c #7A975A",
" )	c #7A995A",
" *	c #7A995B",
" +	c #7B995B",
" ,	c #7B9A5B",
" -	c #7B9C59",
" .	c #7B9D5A",
" /	c #7C995A",
" 0	c #7C995C",
" 1	c #7C9A5C",
" 2	c #7C9B5B",
" 3	c #7C9C59",
" 4	c #7C9D59",
" 5	c #7C9D5A",
" 6	c #7C9D5B",
" 7	c #7C9D5C",
" 8	c #7C9E5B",
" 9	c #7C9E5C",
" :	c #7D985B",
" ;	c #7D9C5A",
" <	c #7D9C5B",
" =	c #7D9D58",
" >	c #7D9D5B",
" ?	c #7D9E5A",
" @	c #7D9E5B",
" A	c #7D9F5A",
" B	c #7D9F5B",
" C	c #7D9F5C",
" D	c #7DA05B",
" E	c #7DA05C",
" F	c #7DA05D",
" G	c #7E9A59",
" H	c #7E9A5C",
" I	c #7E9B59",
" J	c #7E9D59",
" K	c #7E9D5A",
" L	c #7E9D5B",
" M	c #7E9D5C",
" N	c #7E9E5D",
" O	c #7E9F5A",
" P	c #7E9F5C",
" Q	c #7E9F5D",
" R	c #7EA05A",
" S	c #7EA05B",
" T	c #7EA05D",
" U	c #7EA15D",
" V	c #7EA15E",
" W	c #7EA25D",
" X	c #7EA758",
" Y	c #7F9A5C",
" Z	c #7F9D5A",
" [	c #7F9E5C",
" ]	c #7F9F5A",
" ^	c #7F9F5D",
" _	c #7FA05A",
" `	c #7FA05B",
" a	c #7FA05E",
" b	c #7FA15E",
" c	c #7FA25C",
" d	c #7FA35E",
" e	c #7FA45D",
" f	c #809A5D",
" g	c #809C5B",
" h	c #809D5B",
" i	c #809E5C",
" j	c #809F5A",
" k	c #80A05B",
" l	c #80A15D",
" m	c #80A15E",
" n	c #80A35D",
" o	c #80A45D",
" p	c #80A55E",
" q	c #80A959",
" r	c #819D59",
" s	c #819E5A",
" t	c #81A25E",
" u	c #81A45D",
" v	c #81A55E",
" w	c #81A65E",
" x	c #81AA59",
" y	c #829B5B",
" z	c #829C5D",
" {	c #829E5C",
" |	c #829F5B",
" }	c #82A05C",
" ~	c #82A05E",
"! 	c #82A15E",
"!!	c #82A75E",
"!#	c #82AB5A",
"!$	c #839A5B",
"!%	c #839A5C",
"!&	c #839A5D",
"!'	c #839D5A",
"!(	c #839D5B",
"!)	c #83A05D",
"!*	c #83A15E",
"!+	c #83A65D",
"!,	c #83A75D",
"!-	c #83A75F",
"!.	c #83A85D",
"!/	c #83A85F",
"!0	c #83A860",
"!1	c #83AB5A",
"!2	c #849B5C",
"!3	c #849D5C",
"!4	c #849E5C",
"!5	c #849F5C",
"!6	c #84A05C",
"!7	c #84A560",
"!8	c #84AB5E",
"!9	c #84AD5B",
"!:	c #859D5D",
"!;	c #85A05D",
"!<	c #85AB5E",
"!=	c #85AB5F",
"!>	c #85AB61",
"!?	c #85AC60",
"!@	c #85AD5C",
"!A	c #85AD5F",
"!B	c #869D5D",
"!C	c #869D5E",
"!D	c #86A15E",
"!E	c #86AE5D",
"!F	c #879F5C",
"!G	c #879F5D",
"!H	c #87AB60",
"!I	c #87AD60",
"!J	c #87AE5E",
"!K	c #87AE5F",
"!L	c #87AE60",
"!M	c #87AF61",
"!N	c #87B05D",
"!O	c #87B15D",
"!P	c #889C5D",
"!Q	c #889C5E",
"!R	c #889E5D",
"!S	c #88AE5F",
"!T	c #88AE60",
"!U	c #88AE62",
"!V	c #88AF5F",
"!W	c #88AF60",
"!X	c #88AF62",
"!Y	c #88B062",
"!Z	c #88B15E",
"![	c #89A05D",
"!]	c #89A05E",
"!^	c #89AE62",
"!_	c #89AF5F",
"!`	c #89AF60",
"!a	c #89AF61",
"!b	c #89AF62",
"!c	c #89B060",
"!d	c #89B061",
"!e	c #89B15E",
"!f	c #8AA15D",
"!g	c #8AAF60",
"!h	c #8AB063",
"!i	c #8AB160",
"!j	c #8AB161",
"!k	c #8AB162",
"!l	c #8AB263",
"!m	c #8AB35F",
"!n	c #8B9D5E",
"!o	c #8B9E5F",
"!p	c #8BA05D",
"!q	c #8BB161",
"!r	c #8BB162",
"!s	c #8BB260",
"!t	c #8BB261",
"!u	c #8BB263",
"!v	c #8BB35F",
"!w	c #8BB363",
"!x	c #8BB45F",
"!y	c #8C9E5F",
"!z	c #8C9E60",
"!{	c #8CA15E",
"!|	c #8CB161",
"!}	c #8CB163",
"!~	c #8CB261",
"# 	c #8CB262",
"#!	c #8CB263",
"##	c #8CB361",
"#$	c #8CB362",
"#%	c #8CB464",
"#&	c #8D9D61",
"#'	c #8D9E5E",
"#(	c #8DA05E",
"#)	c #8DA061",
"#*	c #8DA15E",
"#+	c #8DB262",
"#,	c #8DB264",
"#-	c #8DB361",
"#.	c #8DB362",
"#/	c #8DB363",
"#0	c #8DB461",
"#1	c #8DB561",
"#2	c #8DB562",
"#3	c #8DB564",
"#4	c #8E9D60",
"#5	c #8EB261",
"#6	c #8EB363",
"#7	c #8EB463",
"#8	c #8EB464",
"#9	c #8EB465",
"#:	c #8EB762",
"#;	c #8FA061",
"#<	c #8FA15E",
"#=	c #8FB363",
"#>	c #8FB364",
"#?	c #8FB463",
"#@	c #8FB464",
"#A	c #8FB562",
"#B	c #8FB564",
"#C	c #8FB565",
"#D	c #8FB663",
"#E	c #8FB664",
"#F	c #8FB665",
"#G	c #8FB666",
"#H	c #8FB763",
"#I	c #90A05E",
"#J	c #90B463",
"#K	c #90B564",
"#L	c #90B665",
"#M	c #90B765",
"#N	c #90B862",
"#O	c #90B863",
"#P	c #919B5F",
"#Q	c #91A060",
"#R	c #91B564",
"#S	c #91B664",
"#T	c #91B665",
"#U	c #91B764",
"#V	c #91B765",
"#W	c #91B963",
"#X	c #929C61",
"#Y	c #92A260",
"#Z	c #92B665",
"#[	c #92B765",
"#]	c #92B866",
"#^	c #93A260",
"#_	c #93BA68",
"#`	c #94A061",
"#a	c #94A263",
"#b	c #95A461",
"#c	c #979F63",
"#d	c #97A561",
"#e	c #98A163",
"#f	c #98A362",
"#g	c #999F65",
"#h	c #99A063",
"#i	c #99A162",
"#j	c #99A163",
"#k	c #99A362",
"#l	c #9A9E61",
"#m	c #9A9F63",
"#n	c #9AA062",
"#o	c #9AA562",
"#p	c #9BA265",
"#q	c #9BA363",
"#r	c #9CA062",
"#s	c #9CA263",
"#t	c #9CA363",
"#u	c #9CA364",
"#v	c #9CA365",
"#w	c #9CA463",
"#x	c #9CA465",
"#y	c #9CA664",
"#z	c #9D9D60",
"#{	c #9DA062",
"#|	c #9DA167",
"#}	c #9DA664",
"#~	c #9F9D62",
"$ 	c #9F9E63",
"$!	c #9FA163",
"$#	c #9FA365",
"$$	c #A0A465",
"$%	c #A19E62",
"$&	c #A19F64",
"$'	c #A19F66",
"$(	c #A1A265",
"$)	c #A29F64",
"$*	c #A2A068",
"$+	c #A39F63",
"$,	c #A49A60",
"$-	c #A4A066",
"$.	c #A4A164",
"$/	c #A59E66",
"$0	c #A59F64",
"$1	c #A5A169",
"$2	c #A5A264",
"$3	c #A5A567",
"$4	c #A69C65",
"$5	c #A6A166",
"$6	c #A6A16A",
"$7	c #A6A266",
"$8	c #A89F65",
"$9	c #A89F66",
"$:	c #A9A469",
"$;	c #AAA069",
"$<	c #AAA36A",
"$=	c #ABA169",
"$>	c #ABA369",
"$?	c #ACA169",
"$@	c #AD9D66",
"$A	c #ADA069",
"$B	c #ADA168",
"$C	c #ADA16A",
"$D	c #AEA069",
"$E	c #AEA36B",
"$F	c #AFA169",
"$G	c #B0A06E",
"$H	c #B0A36D",
"$I	c #B1A069",
"$J	c #B1A36D",
"$K	c #B2A570",
"$L	c #B4A36E",
"$M	c #B4A470",
"$N	c #B4A471",
"$O	c #B4A472",
"$P	c #B5A26D",
"$Q	c #B5A46E",
"$R	c #B7A56F",
"$S	c #B7A674",
"$T	c #B8A673",
"$U	c #B9A671",
"$V	c #BAAB77",
"$W	c #BBA46E",
"$X	c #BCA873",
"$Y	c #BFA874",
"$Z	c #BFAB77",
"$[	c #C0AA75",
"$]	c #C0AB77",
"$^	c #C0AC7B",
"$_	c #C0AE7C",
"$`	c #C1A875",
"$a	c #C2B27F",
"$b	c #C3B07D",
"$c	c #C3B17F",
"$d	c #C4AA74",
"$e	c #C4AC79",
"$f	c #C4B180",
"$g	c #C5AD7B",
"$h	c #C5AF7F",
"$i	c #C5B484",
"$j	c #C6B17F",
"$k	c #C6B280",
"$l	c #C6B47F",
"$m	c #C8B483",
"$n	c #C8B484",
"$o	c #C9B281",
"$p	c #C9B382",
"$q	c #C9B484",
"$r	c #C9B586",
"$s	c #CAB27F",
"$t	c #CAB381",
"$u	c #CAB484",
"$v	c #CAB686",
"$w	c #CAB888",
"$x	c #CBB584",
"$y	c #CBB783",
"$z	c #CBB787",
"${	c #CBB888",
"$|	c #CBB889",
"$}	c #CBB98B",
"$~	c #CCB586",
"% 	c #CCB789",
"%!	c #CCB98A",
"%#	c #CCB98B",
"%$	c #CDB787",
"%%	c #CDB789",
"%&	c #CDB889",
"%'	c #CDBA8A",
"%(	c #CDBA8C",
"%)	c #CDBB8B",
"%*	c #CDBB8C",
"%+	c #CDBB8D",
"%,	c #CEB482",
"%-	c #CEB686",
"%.	c #CEB88A",
"%/	c #CEB989",
"%0	c #CEB98B",
"%1	c #CEBA8C",
"%2	c #CEBB8B",
"%3	c #CEBB8D",
"%4	c #CEBB8E",
"%5	c #CEBC8C",
"%6	c #CEBC8D",
"%7	c #CEBC8E",
"%8	c #CEBC8F",
"%9	c #CEBD8F",
"%:	c #CEBD90",
"%;	c #CEBD91",
"%<	c #CEBE91",
"%=	c #CEBE92",
"%>	c #CEBE93",
"%?	c #CFB889",
"%@	c #CFB88A",
"%A	c #CFB98A",
"%B	c #CFBA87",
"%C	c #CFBA8A",
"%D	c #CFBA8D",
"%E	c #CFBB8C",
"%F	c #CFBB8D",
"%G	c #CFBB8F",
"%H	c #CFBC8E",
"%I	c #CFBC8F",
"%J	c #CFBC90",
"%K	c #CFBD8E",
"%L	c #CFBD8F",
"%M	c #CFBE90",
"%N	c #CFBE91",
"%O	c #CFBE92",
"%P	c #CFBE93",
"%Q	c #CFBF92",
"%R	c #CFBF93",
"%S	c #D0BA88",
"%T	c #D0BA89",
"%U	c #D0BA8B",
"%V	c #D0BA8C",
"%W	c #D0BB8B",
"%X	c #D0BB8C",
"%Y	c #D0BB8D",
"%Z	c #D0BC8D",
"%[	c #D0BC90",
"%]	c #D0BD90",
"%^	c #D0BD91",
"%_	c #D0BE8F",
"%`	c #D0BE90",
"%a	c #D0BE91",
"%b	c #D0BF92",
"%c	c #D0BF93",
"%d	c #D0BF94",
"%e	c #D0C093",
"%f	c #D0C094",
"%g	c #D1BB8C",
"%h	c #D1BC8D",
"%i	c #D1BC8E",
"%j	c #D1BC8F",
"%k	c #D1BC90",
"%l	c #D1BD8F",
"%m	c #D1BF92",
"%n	c #D1C092",
"%o	c #D2BC8C",
"%p	c #D2BC8D",
"%q	c #D2BD8F",
"%W%W%W%W%W%W%W%$$u$~%F%m%n%`%(${$w$|%!%4%:%:%=%>",
"%o%p%h%i%j%j%i%X%%%.%F%a%b%_%5%)%5%7%7%N%b%Q%O%O",
"%g%p%q%j%k%[%[%l%i%Y%D%G%J%I%7%9%N%N%N%c%d%c%R%P",
"$h$q$r$n$f$b$c$q% %A%U%V%1%8%8%:%<%<%N%c%d%c%c%c",
"$G$O$S$N$H$C$?$J$M$T$^$p%-%@%E%H%I%9%;%R%c%f%e%e",
"$'$1$6$*#|#g#c#e#s$!$%$/$Q$e%,%?%A%0%3%<%R%f%f%e",
"#P#X#4#&!z!y!o#'#(#Y#f#n#l$ $A$Z$o$x%&%L%R%c%e%e",
"!n!P!2!$ y!3!G!]![![#*#^#k#w#r$&$F$`$s%/%N%R%e%e",
"!B!( g G I h!)!D!;!6!5!F#<#o#}#u#z$@$d$t%E%M%Q%Q",
"!4 { i L L [! !* } } k j |!{#d#y#{$,$W$g$z%L%M%M",
" ~ i N M ^ m m l ` _ R O ] |!f#b#q#~$I$Y$j%#%K%L",
"!7 T 7 9 a b E S S S D B A O s!F#Q#m$4$P$]$v%2%6",
"!^!- d W V F C U n c S B @ ? J r!R#`$)$D$U$m%'%*",
"#9!b!>!0!0 w e p!/!! n T 8 . 4 =!'#I$($=$L$k%'%6",
"#B#/!h!U!U!X!?!=!L!A!< w F 6 - 3 Z!p$#$<$H$_%*%L",
"#K#6#,!}#!#!!r#7#M# !s!`!- Q 5 5 K!5#x$:$E$V%+%]",
"#S#K#?#=#>#+!|#K#V!~###$!K v P > ; g#a$3$>$K$}%^",
"#Z#Z#J#?#.!_!g#@#8!t!i!j!V!. P , ) /!o$$$7$;$i%I",
"#Z#R#5#-!E q!d#C#8!q!c!c!S!, < % # '!C#t$2$9$a%1",
"#T#[#A!s!1 X!J!u#!!u!w!k!L u +   ! (!&#i$.$8$l%C",
"#D#U#H!e!# x!V!c!W!j#%#%!M o * $ & :!%#h$-$B$y%X",
"#2#1!m!Z!9!@#3#G!j!K!Y!l!d!+ , * 0 f!Q#p$5$R%B%Z",
"!x!x!v!m!O!N#E#_#F!A!A!Y!a!+ 2 0 H z#)#v$0$X%S%Z",
"#:#N#O#W#1!e#0#]#L!T!8!I!H t 1 0 Y!:#;#j$+$[%T%X"};
