/* XPM */
static char *08[] = {
"24 24 443 2",
"  	c #7F9058",
" !	c #7F995A",
" #	c #7F9D5B",
" $	c #7FA25C",
" %	c #7FA85C",
" &	c #808E57",
" '	c #809258",
" (	c #809559",
" )	c #80955A",
" *	c #80985A",
" +	c #80995B",
" ,	c #809C5B",
" -	c #809D5C",
" .	c #80A35C",
" /	c #80A65D",
" 0	c #80A85C",
" 1	c #819559",
" 2	c #81985A",
" 3	c #81995A",
" 4	c #819A5B",
" 5	c #819B5A",
" 6	c #819B5B",
" 7	c #819D5B",
" 8	c #819D5C",
" 9	c #819E5B",
" :	c #819E5C",
" ;	c #81A05C",
" <	c #81A25C",
" =	c #81A35E",
" >	c #81AA5D",
" ?	c #81AB5A",
" @	c #829358",
" A	c #82955A",
" B	c #829659",
" C	c #82965A",
" D	c #829758",
" E	c #82985A",
" F	c #82995A",
" G	c #829A5B",
" H	c #829A5C",
" I	c #829E5C",
" J	c #82A05C",
" K	c #82A25C",
" L	c #82A95D",
" M	c #82AA5D",
" N	c #838E58",
" O	c #839759",
" P	c #83975A",
" Q	c #839A5C",
" R	c #839A5D",
" S	c #839B5C",
" T	c #839C5B",
" U	c #839C5D",
" V	c #839D5B",
" W	c #839D5C",
" X	c #839F5D",
" Y	c #83A05D",
" Z	c #83A15C",
" [	c #83A25C",
" ]	c #83A35C",
" ^	c #83A45C",
" _	c #83AA5E",
" `	c #849558",
" a	c #849658",
" b	c #849659",
" c	c #849859",
" d	c #84985A",
" e	c #84985B",
" f	c #849B5C",
" g	c #849D5B",
" h	c #849E5C",
" i	c #849E5D",
" j	c #849F5C",
" k	c #849F5E",
" l	c #84A05E",
" m	c #84A25E",
" n	c #84AC5E",
" o	c #84AD5D",
" p	c #84AD5E",
" q	c #84AE5D",
" r	c #85995A",
" s	c #85995C",
" t	c #859A5D",
" u	c #859B5C",
" v	c #859F5C",
" w	c #85A35D",
" x	c #85A45D",
" y	c #85A55D",
" z	c #85A65D",
" {	c #85A65E",
" |	c #85A85D",
" }	c #85A85E",
" ~	c #85A960",
"! 	c #85AA5F",
"!!	c #85AC60",
"!#	c #85AD5E",
"!$	c #85AE5D",
"!%	c #85AE5E",
"!&	c #85AF5E",
"!'	c #85AF60",
"!(	c #869759",
"!)	c #869D5D",
"!*	c #86A65E",
"!+	c #86A85C",
"!,	c #86A85D",
"!-	c #86A95F",
"!.	c #86AB5C",
"!/	c #86AC60",
"!0	c #86AD5F",
"!1	c #86AE5E",
"!2	c #86AE5F",
"!3	c #86AF5E",
"!4	c #879B5C",
"!5	c #879D5D",
"!6	c #879D5E",
"!7	c #87A960",
"!8	c #87AA5F",
"!9	c #87AB5F",
"!:	c #87AF5E",
"!;	c #87AF5F",
"!<	c #87B05E",
"!=	c #87B05F",
"!>	c #88995B",
"!?	c #88995C",
"!@	c #889D5D",
"!A	c #88AB60",
"!B	c #88AC5F",
"!C	c #88AC60",
"!D	c #88AE61",
"!E	c #88AF5E",
"!F	c #88B05E",
"!G	c #88B061",
"!H	c #88B160",
"!I	c #88B161",
"!J	c #89935C",
"!K	c #89AD5F",
"!L	c #89AE61",
"!M	c #89AF5F",
"!N	c #89AF62",
"!O	c #89B05C",
"!P	c #89B05D",
"!Q	c #89B060",
"!R	c #89B063",
"!S	c #89B15D",
"!T	c #89B15F",
"!U	c #89B160",
"!V	c #89B25E",
"!W	c #89B262",
"!X	c #8A915B",
"!Y	c #8A9A5C",
"!Z	c #8A9B5E",
"![	c #8A9E5E",
"!]	c #8A9E5F",
"!^	c #8AAF60",
"!_	c #8AAF61",
"!`	c #8AB061",
"!a	c #8AB062",
"!b	c #8AB15C",
"!c	c #8AB160",
"!d	c #8AB25F",
"!e	c #8AB260",
"!f	c #8AB361",
"!g	c #8B935B",
"!h	c #8B9D5E",
"!i	c #8BB060",
"!j	c #8BB160",
"!k	c #8BB161",
"!l	c #8BB163",
"!m	c #8BB260",
"!n	c #8BB261",
"!o	c #8BB360",
"!p	c #8BB361",
"!q	c #8BB363",
"!r	c #8BB460",
"!s	c #8BB462",
"!t	c #8C925D",
"!u	c #8C9B5D",
"!v	c #8CB260",
"!w	c #8CB261",
"!x	c #8CB262",
"!y	c #8CB263",
"!z	c #8CB35F",
"!{	c #8CB360",
"!|	c #8CB361",
"!}	c #8CB461",
"!~	c #8CB462",
"# 	c #8CB464",
"#!	c #8CB561",
"##	c #8CB562",
"#$	c #8D965B",
"#%	c #8D9B5F",
"#&	c #8D9C5D",
"#'	c #8D9E5F",
"#(	c #8DB363",
"#)	c #8DB460",
"#*	c #8DB462",
"#+	c #8DB560",
"#,	c #8DB561",
"#-	c #8DB562",
"#.	c #8DB563",
"#/	c #8E975B",
"#0	c #8E975F",
"#1	c #8E985F",
"#2	c #8E9C5E",
"#3	c #8E9D5E",
"#4	c #8E9E5F",
"#5	c #8EB462",
"#6	c #8EB464",
"#7	c #8EB561",
"#8	c #8EB562",
"#9	c #8EB563",
"#:	c #8EB661",
"#;	c #8EB662",
"#<	c #8EB663",
"#=	c #8EB761",
"#>	c #8EB763",
"#?	c #8F995C",
"#@	c #8F9B5E",
"#A	c #8F9E5E",
"#B	c #8FB562",
"#C	c #8FB564",
"#D	c #8FB565",
"#E	c #8FB662",
"#F	c #8FB663",
"#G	c #8FB664",
"#H	c #8FB761",
"#I	c #8FB762",
"#J	c #8FB763",
"#K	c #8FB764",
"#L	c #8FB862",
"#M	c #8FB863",
"#N	c #8FB866",
"#O	c #909A5E",
"#P	c #90B463",
"#Q	c #90B565",
"#R	c #90B662",
"#S	c #90B663",
"#T	c #90B665",
"#U	c #90B666",
"#V	c #90B864",
"#W	c #90B866",
"#X	c #90B963",
"#Y	c #919560",
"#Z	c #919A5E",
"#[	c #919B5D",
"#]	c #919B5E",
"#^	c #919C5E",
"#_	c #919D5E",
"#`	c #91B564",
"#a	c #91B566",
"#b	c #91B666",
"#c	c #91B764",
"#d	c #91B765",
"#e	c #91B766",
"#f	c #91B767",
"#g	c #91B863",
"#h	c #91B864",
"#i	c #91B865",
"#j	c #91B866",
"#k	c #91B867",
"#l	c #91B868",
"#m	c #91B964",
"#n	c #91B965",
"#o	c #91B966",
"#p	c #91BA63",
"#q	c #91BA64",
"#r	c #929A5D",
"#s	c #929C5D",
"#t	c #929C5E",
"#u	c #929C5F",
"#v	c #92B664",
"#w	c #92B764",
"#x	c #92B765",
"#y	c #92B769",
"#z	c #92B864",
"#{	c #92B865",
"#|	c #92B868",
"#}	c #92B964",
"#~	c #92B965",
"$ 	c #92B966",
"$!	c #92BA62",
"$#	c #92BA63",
"$$	c #92BA64",
"$%	c #92BA67",
"$&	c #92BB64",
"$'	c #939B5F",
"$(	c #939C5E",
"$)	c #939C60",
"$*	c #93B868",
"$+	c #93B966",
"$,	c #93B967",
"$-	c #93B968",
"$.	c #93B969",
"$/	c #93B96A",
"$0	c #93BA64",
"$1	c #93BA65",
"$2	c #93BA66",
"$3	c #93BB65",
"$4	c #93BB67",
"$5	c #93BC64",
"$6	c #949A5E",
"$7	c #949C61",
"$8	c #94B865",
"$9	c #94B966",
"$:	c #94BA64",
"$;	c #94BA65",
"$<	c #94BA66",
"$=	c #94BA67",
"$>	c #94BA68",
"$?	c #94BB64",
"$@	c #94BB65",
"$A	c #94BB66",
"$B	c #94BB67",
"$C	c #94BC64",
"$D	c #94BD65",
"$E	c #959A5E",
"$F	c #95BA67",
"$G	c #95BA68",
"$H	c #95BB66",
"$I	c #95BB67",
"$J	c #95BC64",
"$K	c #95BC65",
"$L	c #95BC66",
"$M	c #95BC67",
"$N	c #95BC68",
"$O	c #95BD65",
"$P	c #95BD66",
"$Q	c #96BB66",
"$R	c #96BC66",
"$S	c #96BC67",
"$T	c #96BC68",
"$U	c #96BD66",
"$V	c #96BD67",
"$W	c #96BD68",
"$X	c #96BE64",
"$Y	c #96BE65",
"$Z	c #96BE66",
"$[	c #979A5F",
"$]	c #97BD69",
"$^	c #97BE65",
"$_	c #97BE66",
"$`	c #97BE68",
"$a	c #97BF65",
"$b	c #97BF66",
"$c	c #98BF68",
"$d	c #98C067",
"$e	c #99975F",
"$f	c #999963",
"$g	c #99BF68",
"$h	c #99BF69",
"$i	c #99C067",
"$j	c #9A975F",
"$k	c #9AC068",
"$l	c #9AC069",
"$m	c #9AC168",
"$n	c #9B9B61",
"$o	c #9B9F64",
"$p	c #9BC168",
"$q	c #9BC169",
"$r	c #9D965F",
"$s	c #A09B64",
"$t	c #A1A068",
"$u	c #A29E65",
"$v	c #A29E6A",
"$w	c #A6A16C",
"$x	c #A7A069",
"$y	c #A7A06A",
"$z	c #A7A16E",
"${	c #A89C68",
"$|	c #A99D69",
"$}	c #A99F6B",
"$~	c #AA9E6B",
"% 	c #AA9F6B",
"%!	c #AC9F6C",
"%#	c #ACA16D",
"%$	c #ADA16E",
"%%	c #AEA16E",
"%&	c #AEA36E",
"%'	c #B1A471",
"%(	c #B4A674",
"%)	c #B4A873",
"%*	c #B5A774",
"%+	c #B6A774",
"%,	c #B6A874",
"%-	c #BAA774",
"%.	c #BAA875",
"%/	c #BAA876",
"%0	c #BCA977",
"%1	c #BDAC7B",
"%2	c #BEAA79",
"%3	c #BEAB7A",
"%4	c #BFAC7B",
"%5	c #C0AC7A",
"%6	c #C0AC7C",
"%7	c #C2B07E",
"%8	c #C2B181",
"%9	c #C3AF7F",
"%:	c #C4B182",
"%;	c #C4B27F",
"%<	c #C4B280",
"%=	c #C4B281",
"%>	c #C4B380",
"%?	c #C5B181",
"%@	c #C9B685",
"%A	c #C9B686",
"%B	c #CAB684",
"%C	c #CAB685",
"%D	c #CAB889",
"%E	c #CBB786",
"%F	c #CBB787",
"%G	c #CBBA8A",
"%H	c #CBBA8C",
"%I	c #CCB988",
"%J	c #CCBA89",
"%K	c #CCBA8A",
"%L	c #CCBA8C",
"%M	c #CCBB8D",
"%N	c #CDBB8B",
"%O	c #CDBC8E",
"%P	c #CEBB8B",
"%Q	c #CEBB8C",
"%R	c #CEBC8C",
"%S	c #CEBC8D",
"%T	c #CEBD8F",
"%U	c #CEBE90",
"%V	c #CFBC8E",
"%W	c #CFBD8D",
"%X	c #CFBD8E",
"%Y	c #CFBD8F",
"%Z	c #CFBD90",
"%[	c #CFBE90",
"%]	c #CFBE92",
"%^	c #CFBE93",
"%_	c #CFBE94",
"%`	c #CFBF92",
"%a	c #CFBF93",
"%b	c #CFBF94",
"%c	c #D0BD8E",
"%d	c #D0BE8E",
"%e	c #D0BE90",
"%f	c #D0BE91",
"%g	c #D0BF93",
"%h	c #D0C094",
"%h%Z%2$r#O#@#2#'!]!6 l!+!b#:#C!l#(#d$G$F#S!p#>$$",
"%g%T%.$j#Z#^#_#A![!5 k ]!P#H#h#.#T$+$=#d#*!f#-#m",
"%h%O%.$e#r#s#^#3!@ T 8 ;!.#:#m#m$<$A$9#{#<#8#9#V",
"%g%T%5$s$6$(#_#4!) 5 7 J |!|#n$L$R$H$S$I$ #i$ $%",
"%g%U%?$x$E#t#^!h f 6 9 <!-!k#V$L$A$;$Q$T$B$A$2#K",
"%a%]%A%&$[#[#&!4 3 6 : K!8!n#F$@$3#}$1$<$4$M#z#)",
"%_%]%D%+$n#]!u r 3 4 I [!K#*#g$@$?$@$<#{#W$N$A#~",
"%b%a%L%1$u#u!Y c 2 H X z!^!v#7$:$0#g#K#G#j$2$2$2",
"%b%a%M%8$y$)!? d 2 S Y!,!`!M!E!{!o!1!=!s#K#J#J$$",
"%b%^%H%:%#$7!> P F U m!9!y!Q!;!;!1 p!'!I!}#,#X$U",
"%b%`%G%9%%$'!( O E R l }!/!0!2!2!:!% p!&!e#=$O$p",
"%a%[%F%6%!#? a D 2 + - . / L!#!;!F!$ ?!<#g$K$k$q",
"%]%Y%C%3% #/ b D * ! # $ / _!3!T!}#;#R$R$l$l$`$P",
"%f%X%@%0$}#$ ` B G , = ~!!!G###g$U$c$c$h$T#}#n$1",
"%e%W%B%/$|!g @ C Q Z ~!N!q#M$5$_$k$g$W$ #*!c#9$1",
"%e%c%E%-${!X ' 1 S ^! !R#o$D$Y$i$m$]$>#Q!k!j#*#h",
"%e%d%J%0$~!t   ( g z!D!~$$$Z$d$d$V$-$*#|#U#6#C$,",
"%X%c%N%4%$#Y & ( j {!a#H$!$b$d$C#n#|#|$/$.#f#U$>",
"%V%V%N%7%'$f N ) i {!_#I$C$a$^$##N#k#l#y#y#|#e#x",
"%V%V%N%=%($v!J A h!*!L#;$5$X$J#-!W!q# #D#a#b#T#B",
"%S%S%K%<%*$z#0 e V!*!C!m#X$C$#!H > M!%!w#P#P#B#,",
"%R%S%J%<%,$w#1 s W y!B!m#L$5#p!= % 0 n!x#`#v#5!d",
"%R%R%J%>%,$t#% t i x!A!i#=$&#q#! q o!U#c$8#w#7!S",
"%Q%P%I%;%)$o!Z u v w!7!L!}#L#J#I!r!V#+$:$;#E!z!O"};
