/* XPM */
static char *09[] = {
"24 24 312 2",
"  	c #81AA59",
" !	c #82AA5A",
" #	c #83AB5A",
" $	c #83AC59",
" %	c #83AC5A",
" &	c #83AD5A",
" '	c #83AD5B",
" (	c #84AC58",
" )	c #84AC5C",
" *	c #84AD5B",
" +	c #85AD5B",
" ,	c #85AD5C",
" -	c #85AD5E",
" .	c #85AE58",
" /	c #85AE5C",
" 0	c #86AB5E",
" 1	c #86AD5C",
" 2	c #86AD5F",
" 3	c #86AE5B",
" 4	c #86AF5A",
" 5	c #86AF5B",
" 6	c #86AF60",
" 7	c #87AD5E",
" 8	c #87AE5C",
" 9	c #87AE5D",
" :	c #87AF5E",
" ;	c #87AF60",
" <	c #87B05A",
" =	c #87B05C",
" >	c #87B05F",
" ?	c #87B15C",
" @	c #87B15D",
" A	c #88AD5E",
" B	c #88AD5F",
" C	c #88AF5C",
" D	c #88AF5D",
" E	c #88AF5E",
" F	c #88AF5F",
" G	c #88AF60",
" H	c #88B05B",
" I	c #88B05C",
" J	c #88B05D",
" K	c #88B05E",
" L	c #88B05F",
" M	c #88B061",
" N	c #88B15B",
" O	c #88B15C",
" P	c #88B15F",
" Q	c #88B25D",
" R	c #89AE5F",
" S	c #89B15C",
" T	c #89B15D",
" U	c #89B15E",
" V	c #89B15F",
" W	c #89B160",
" X	c #89B161",
" Y	c #89B162",
" Z	c #89B25C",
" [	c #89B25E",
" ]	c #89B25F",
" ^	c #89B261",
" _	c #89B262",
" `	c #89B362",
" a	c #89B363",
" b	c #8AB060",
" c	c #8AB15D",
" d	c #8AB160",
" e	c #8AB161",
" f	c #8AB25D",
" g	c #8AB25E",
" h	c #8AB260",
" i	c #8AB261",
" j	c #8AB262",
" k	c #8AB263",
" l	c #8AB35E",
" m	c #8AB45D",
" n	c #8AB45E",
" o	c #8BAF60",
" p	c #8BB060",
" q	c #8BB15F",
" r	c #8BB160",
" s	c #8BB161",
" t	c #8BB25D",
" u	c #8BB260",
" v	c #8BB261",
" w	c #8BB262",
" x	c #8BB35E",
" y	c #8BB35F",
" z	c #8BB360",
" {	c #8BB362",
" |	c #8BB363",
" }	c #8BB45E",
" ~	c #8BB45F",
"! 	c #8BB460",
"!!	c #8BB462",
"!#	c #8BB560",
"!$	c #8CB25E",
"!%	c #8CB261",
"!&	c #8CB262",
"!'	c #8CB263",
"!(	c #8CB35F",
"!)	c #8CB360",
"!*	c #8CB361",
"!+	c #8CB362",
"!,	c #8CB363",
"!-	c #8CB364",
"!.	c #8CB45F",
"!/	c #8CB460",
"!0	c #8CB461",
"!1	c #8CB462",
"!2	c #8CB55E",
"!3	c #8CB55F",
"!4	c #8CB563",
"!5	c #8CB565",
"!6	c #8CB65F",
"!7	c #8CB661",
"!8	c #8DB262",
"!9	c #8DB360",
"!:	c #8DB362",
"!;	c #8DB363",
"!<	c #8DB364",
"!=	c #8DB45F",
"!>	c #8DB461",
"!?	c #8DB462",
"!@	c #8DB464",
"!A	c #8DB466",
"!B	c #8DB55F",
"!C	c #8DB560",
"!D	c #8DB561",
"!E	c #8DB565",
"!F	c #8DB65F",
"!G	c #8DB660",
"!H	c #8DB666",
"!I	c #8DB762",
"!J	c #8EB363",
"!K	c #8EB460",
"!L	c #8EB461",
"!M	c #8EB462",
"!N	c #8EB463",
"!O	c #8EB464",
"!P	c #8EB465",
"!Q	c #8EB561",
"!R	c #8EB563",
"!S	c #8EB564",
"!T	c #8EB565",
"!U	c #8EB567",
"!V	c #8EB660",
"!W	c #8EB661",
"!X	c #8EB664",
"!Y	c #8EB666",
"!Z	c #8EB760",
"![	c #8EB761",
"!]	c #8EB862",
"!^	c #8FB462",
"!_	c #8FB464",
"!`	c #8FB465",
"!a	c #8FB561",
"!b	c #8FB562",
"!c	c #8FB563",
"!d	c #8FB564",
"!e	c #8FB565",
"!f	c #8FB566",
"!g	c #8FB661",
"!h	c #8FB662",
"!i	c #8FB663",
"!j	c #8FB664",
"!k	c #8FB665",
"!l	c #8FB761",
"!m	c #8FB762",
"!n	c #8FB763",
"!o	c #8FB764",
"!p	c #8FB765",
"!q	c #8FB766",
"!r	c #8FB861",
"!s	c #8FB862",
"!t	c #8FB863",
"!u	c #8FB963",
"!v	c #90B563",
"!w	c #90B564",
"!x	c #90B566",
"!y	c #90B568",
"!z	c #90B661",
"!{	c #90B663",
"!|	c #90B664",
"!}	c #90B665",
"!~	c #90B666",
"# 	c #90B763",
"#!	c #90B764",
"##	c #90B765",
"#$	c #90B766",
"#%	c #90B861",
"#&	c #90B862",
"#'	c #90B863",
"#(	c #90B864",
"#)	c #90B865",
"#*	c #90B962",
"#+	c #90B963",
"#,	c #91B664",
"#-	c #91B763",
"#.	c #91B764",
"#/	c #91B765",
"#0	c #91B766",
"#1	c #91B767",
"#2	c #91B768",
"#3	c #91B861",
"#4	c #91B862",
"#5	c #91B863",
"#6	c #91B864",
"#7	c #91B865",
"#8	c #91B866",
"#9	c #91B867",
"#:	c #91B868",
"#;	c #91B961",
"#<	c #91B962",
"#=	c #91B963",
"#>	c #91B964",
"#?	c #91B965",
"#@	c #91BA62",
"#A	c #91BA63",
"#B	c #91BA64",
"#C	c #91BA65",
"#D	c #91BB64",
"#E	c #92B763",
"#F	c #92B765",
"#G	c #92B863",
"#H	c #92B864",
"#I	c #92B865",
"#J	c #92B866",
"#K	c #92B868",
"#L	c #92B963",
"#M	c #92B964",
"#N	c #92B965",
"#O	c #92B966",
"#P	c #92B967",
"#Q	c #92BA63",
"#R	c #92BA64",
"#S	c #92BA65",
"#T	c #92BB65",
"#U	c #93B764",
"#V	c #93B865",
"#W	c #93B866",
"#X	c #93B867",
"#Y	c #93B965",
"#Z	c #93B966",
"#[	c #93BA62",
"#]	c #93BA63",
"#^	c #93BA64",
"#_	c #93BA65",
"#`	c #93BA66",
"#a	c #93BA67",
"#b	c #93BA69",
"#c	c #93BB63",
"#d	c #93BB65",
"#e	c #93BB66",
"#f	c #94B965",
"#g	c #94B966",
"#h	c #94B968",
"#i	c #94BA65",
"#j	c #94BA66",
"#k	c #94BA67",
"#l	c #94BB63",
"#m	c #94BB64",
"#n	c #94BB65",
"#o	c #94BB66",
"#p	c #94BB67",
"#q	c #94BB68",
"#r	c #94BB69",
"#s	c #94BC66",
"#t	c #94BC67",
"#u	c #95BB66",
"#v	c #95BB68",
"#w	c #95BC66",
"#x	c #95BC67",
"#y	c #95BC68",
"#z	c #95BC69",
"#{	c #95BD65",
"#|	c #95BD66",
"#}	c #95BD67",
"#~	c #95BD69",
"$ 	c #95BE66",
"$!	c #96BC65",
"$#	c #96BD65",
"$$	c #96BD66",
"$%	c #96BD68",
"$&	c #96BD69",
"$'	c #96BE65",
"$(	c #96BE66",
"$)	c #96BE67",
"$*	c #96BE68",
"$+	c #96BF65",
"$,	c #97BC69",
"$-	c #97BE65",
"$.	c #97BE66",
"$/	c #97BE67",
"$0	c #97BF65",
"$1	c #97BF66",
"$2	c #97BF67",
"$3	c #98BF66",
"$4	c #98BF67",
"$5	c #98BF68",
"$6	c #98C066",
"$7	c #98C067",
"$8	c #98C068",
"$9	c #98C069",
"$:	c #99BF68",
"$;	c #99C067",
"$<	c #99C068",
"$=	c #99C06A",
"$>	c #9AC167",
"$?	c #9AC168",
"$@	c #9BC269",
"$A	c #9CC269",
"#l$-$;$;#o###8#$!T!`!, M W U g!z!M d!& r 7 R B 0",
"#n$.$.#w#Z#P#r#9!O!e!P k e!0#(#f!^ v!% d b s o A",
"#S#_#5!j!k#9#b#:!f!x!f!-!&#7#y#H!M v d s!&!;!8 p",
"#7#7#)!j!R!k#1#K#2!y!U!A#0#v#p#I!M s v!&!8!;!_!O",
"!j#7#8#$!e!J!;!T!S { j!R#`#Z#7#k!d b w!O!O!_!e!d",
"!h##!~!~!T!+ W V K @ [!=!h!Q!c#g#/ w!,!k#8#0!w!N",
"#`#8!T!T!@ i W P K!D!a!(!/!># #Z#J##!}#Z#a#I#,!{",
"#p#8!'!-!< i W V!*#F#V#6#7#J#I#V#O#O#J#v$&#p#o#i",
"#}#j!d!f!k!+ u!M#/#U#I#Z#k#v#g#I#Y#Y#N#x$%#y#y#u",
"$?$:$$$)#Z!:!|#X#F!M!?!L!Q#I#k#Y#Y#j#p#x#e#e#o#o",
"$A$?$9$=#j!v#W#h!}!1 V 9 9!*#!# #6#`#y#t#>#?#p#p",
"$<$5$*#~#a#W#J#/!R V + ! # 1 P ] h!+#)#?!D!i#j#p",
"#|$)#}#S#q$,#/!^ q '   * / # ) > X G 2 - :!i#`#`",
"#^#n#S!g!b#.!c!L c % =!/!9 K , L Y M | M 6!}#Z#7",
"#^#_#M!g!$!K#6#  T & y#E#-!) D E ; M!q!E a!j#7!p",
"#i#i#M#&!g#5#`#5 I $ g#&#G!K C 8 F _!Y!H!4!X#)#)",
"$&#v#J#`#L#5#N#N!C 5 ?! !G!W!/ z ^ `!5!k!o#?#?#N",
"#z#k#I#Y!l!B!m#=!s } O Q l!V!s!t!4!!!X#N#d#}#|#m",
"#V#M!Q S O!3!m#4#%!6 }!G![!l!W!W!n!u#d$5$<$5$4$#",
"!a!C O . <!F#&#c#[!Z m!3#A#R#>#S#s#|$8$@$>$3$4$ ",
"!  f N N x!V#3$#$#!r n!2#B#C#>#s$)$4$?$;$0$0$(#T",
" [ Z t!B!V!.!.#]$!#=!s#+#D!I!G#d$/$7$>$6$-$+#{#'",
" 4 N!.!m ~ J!B#L#Q#&#*#A#+!7 }#Q$2$7$7$1$'#{#N!h",
" ( H!/ ~ 3 #! !n!l#<#;!s!]!# }#@$($($'#{#d#6!c u"};
