/* XPM */
static char *10[] = {
"24 24 287 2",
"  	c #81A95B",
" !	c #81AA5C",
" #	c #81AB5A",
" $	c #82AC5B",
" %	c #82AC5C",
" &	c #83AC5C",
" '	c #83AD5C",
" (	c #83AD5D",
" )	c #83AD5E",
" *	c #83AD5F",
" +	c #83AE5C",
" ,	c #84AC5C",
" -	c #84AD5E",
" .	c #84AE5C",
" /	c #84AE5D",
" 0	c #84AE5E",
" 1	c #84AF5C",
" 2	c #85AE5E",
" 3	c #85AF5D",
" 4	c #85AF5E",
" 5	c #85AF60",
" 6	c #85AF61",
" 7	c #85B05D",
" 8	c #86AC5E",
" 9	c #86AC60",
" :	c #86AE5F",
" ;	c #86B05D",
" <	c #86B05E",
" =	c #86B05F",
" >	c #86B15D",
" ?	c #87AF60",
" @	c #87B05E",
" A	c #87B060",
" B	c #87B15F",
" C	c #87B160",
" D	c #88AE5E",
" E	c #88AE5F",
" F	c #88B05D",
" G	c #88B15E",
" H	c #88B15F",
" I	c #88B25F",
" J	c #88B260",
" K	c #89AE5F",
" L	c #89AF62",
" M	c #89B05C",
" N	c #89B05E",
" O	c #89B161",
" P	c #89B260",
" Q	c #89B35E",
" R	c #89B45F",
" S	c #8AAF60",
" T	c #8AB060",
" U	c #8AB061",
" V	c #8AB160",
" W	c #8AB161",
" X	c #8AB162",
" Y	c #8AB25E",
" Z	c #8AB25F",
" [	c #8AB260",
" ]	c #8AB261",
" ^	c #8AB360",
" _	c #8AB361",
" `	c #8AB45F",
" a	c #8AB460",
" b	c #8AB461",
" c	c #8BB063",
" d	c #8BB160",
" e	c #8BB161",
" f	c #8BB162",
" g	c #8BB260",
" h	c #8BB261",
" i	c #8BB262",
" j	c #8BB263",
" k	c #8BB35E",
" l	c #8BB35F",
" m	c #8BB360",
" n	c #8BB361",
" o	c #8BB362",
" p	c #8BB45F",
" q	c #8BB461",
" r	c #8BB463",
" s	c #8BB561",
" t	c #8CB162",
" u	c #8CB163",
" v	c #8CB260",
" w	c #8CB261",
" x	c #8CB262",
" y	c #8CB35F",
" z	c #8CB361",
" {	c #8CB363",
" |	c #8CB364",
" }	c #8CB461",
" ~	c #8CB462",
"! 	c #8CB55F",
"!!	c #8CB561",
"!#	c #8CB562",
"!$	c #8DB263",
"!%	c #8DB361",
"!&	c #8DB362",
"!'	c #8DB363",
"!(	c #8DB461",
"!)	c #8DB462",
"!*	c #8DB463",
"!+	c #8DB464",
"!,	c #8DB561",
"!-	c #8DB562",
"!.	c #8DB563",
"!/	c #8DB661",
"!0	c #8DB663",
"!1	c #8DB765",
"!2	c #8EB461",
"!3	c #8EB462",
"!4	c #8EB463",
"!5	c #8EB464",
"!6	c #8EB561",
"!7	c #8EB562",
"!8	c #8EB563",
"!9	c #8EB564",
"!:	c #8EB565",
"!;	c #8EB661",
"!<	c #8EB662",
"!=	c #8EB663",
"!>	c #8EB664",
"!?	c #8EB75F",
"!@	c #8EB761",
"!A	c #8FB464",
"!B	c #8FB562",
"!C	c #8FB563",
"!D	c #8FB566",
"!E	c #8FB662",
"!F	c #8FB663",
"!G	c #8FB664",
"!H	c #8FB763",
"!I	c #8FB764",
"!J	c #8FB860",
"!K	c #8FB863",
"!L	c #8FB865",
"!M	c #90B463",
"!N	c #90B564",
"!O	c #90B565",
"!P	c #90B662",
"!Q	c #90B663",
"!R	c #90B664",
"!S	c #90B665",
"!T	c #90B666",
"!U	c #90B763",
"!V	c #90B764",
"!W	c #90B765",
"!X	c #90B766",
"!Y	c #90B860",
"!Z	c #90B861",
"![	c #90B862",
"!]	c #90B863",
"!^	c #90B864",
"!_	c #90B865",
"!`	c #90B963",
"!a	c #90BA65",
"!b	c #91B565",
"!c	c #91B664",
"!d	c #91B666",
"!e	c #91B764",
"!f	c #91B765",
"!g	c #91B766",
"!h	c #91B767",
"!i	c #91B863",
"!j	c #91B864",
"!k	c #91B865",
"!l	c #91B866",
"!m	c #91B961",
"!n	c #91B963",
"!o	c #91B964",
"!p	c #91B965",
"!q	c #91BA64",
"!r	c #91BB66",
"!s	c #92B665",
"!t	c #92B764",
"!u	c #92B765",
"!v	c #92B769",
"!w	c #92B864",
"!x	c #92B865",
"!y	c #92B866",
"!z	c #92B867",
"!{	c #92B868",
"!|	c #92B869",
"!}	c #92B962",
"!~	c #92B964",
"# 	c #92B965",
"#!	c #92B966",
"##	c #92B968",
"#$	c #92BA63",
"#%	c #92BA65",
"#&	c #92BA66",
"#'	c #92BB66",
"#(	c #93B865",
"#)	c #93B866",
"#*	c #93B868",
"#+	c #93B869",
"#,	c #93B86A",
"#-	c #93B964",
"#.	c #93B965",
"#/	c #93B966",
"#0	c #93B967",
"#1	c #93B96A",
"#2	c #93BA63",
"#3	c #93BA64",
"#4	c #93BA65",
"#5	c #93BA66",
"#6	c #93BA69",
"#7	c #93BB63",
"#8	c #93BB64",
"#9	c #93BB65",
"#:	c #93BB67",
"#;	c #93BB69",
"#<	c #93BC64",
"#=	c #93BC65",
"#>	c #94B866",
"#?	c #94B867",
"#@	c #94B868",
"#A	c #94B965",
"#B	c #94B967",
"#C	c #94BA65",
"#D	c #94BA66",
"#E	c #94BA67",
"#F	c #94BA68",
"#G	c #94BB63",
"#H	c #94BB64",
"#I	c #94BB65",
"#J	c #94BB66",
"#K	c #94BB67",
"#L	c #94BB69",
"#M	c #95BA65",
"#N	c #95BA66",
"#O	c #95BA67",
"#P	c #95BA68",
"#Q	c #95BB65",
"#R	c #95BB66",
"#S	c #95BB67",
"#T	c #95BB68",
"#U	c #95BC63",
"#V	c #95BC64",
"#W	c #95BC65",
"#X	c #95BC66",
"#Y	c #95BC67",
"#Z	c #95BC68",
"#[	c #95BD63",
"#]	c #95BD64",
"#^	c #95BD65",
"#_	c #95BE65",
"#`	c #96BB66",
"#a	c #96BB68",
"#b	c #96BB69",
"#c	c #96BC64",
"#d	c #96BC65",
"#e	c #96BC66",
"#f	c #96BD64",
"#g	c #96BD66",
"#h	c #96BD67",
"#i	c #96BD68",
"#j	c #96BD69",
"#k	c #96BE64",
"#l	c #96BE66",
"#m	c #97B967",
"#n	c #97BB67",
"#o	c #97BC68",
"#p	c #97BD67",
"#q	c #97BE67",
"#r	c #97BF65",
"#s	c #98BB67",
"#t	c #98BC67",
"#u	c #98BE68",
"#v	c #98BE69",
"#w	c #98BF67",
"#x	c #99BB68",
"#y	c #99BC6A",
"#z	c #99BD67",
"#{	c #99BF69",
"#|	c #99BF6A",
"#}	c #9ABD6B",
"#~	c #9ABF6A",
"$ 	c #9AC068",
"$!	c #9AC069",
"$#	c #9BBC69",
"$$	c #9BBD6A",
"$%	c #9BC169",
"$&	c #9BC268",
"$'	c #9CBE6C",
"$(	c #9DBE6C",
" 8 f!s#m$##}#@!A x w T E K E 9 L!$!b#P#O!P m!I#4",
" D x#>#x$($'#?!3 v d d S t c L u!O#/#O!y!( n!#!^",
" e!*!k#s$$#y#B!R!% v h w!'!$!$!b#P#S#O#)!8!7!7!H",
"!*!>!k#E#B#0#b#F!C!& z!&!&!A!g#P#T#D#n#a!l!V#!#:",
"!5!9!G!W!G!F!f!y!x!e!e!x#/!y#/#Z#J#C#e#i#K#5#&!L",
"!*!) z ~ ~ }!(!w#N#D#A#D#S#R#C#X#X#3#I#J#:#Y!o m",
"!F!= } P ]!3#.#t#z#M!t!e#J#X#d#d#d#I#J!k!l#Z#K!p",
"#.# !k!G!F!x#o#o#A#(!k!o#4#d#d#c#H!_!>!>!k#5#5#&",
"#4#4#.#/!x#/#E!f!8!W#&#4#I#I#2![ _ 5 ? r!I!H!K#%",
"#4#4#4#/#!!x# !V!:!9!'!<#3#3!, J 0 ) 6 O }!/!`#l",
"# #4#/!W!=!-!)!* { | U W!U!F H = 0 ( * 4 Z!@#^$&",
"#!# !x!R!8!)!' { f j X ^ ~ o J B B . # @!i#W$ $%",
"#!#!!x!y#(#(!u!g!S i!7!q!; s a R s!F!P#`#{$!#p#g",
"!V!V!k#!#/!f!R!f!j!E!}#^#<#=#<#9#h#u#u#v#i# !k#4",
"!8!)!)!-!- v g!E#$#G#[#k#r#w#q#u#~#{#Z#/!3 V!7#4",
"!I!8 z n [ g!6!~#V#U#f#k#_!r#'#u#|#j#;!X h V!(!j",
"# # !e!F!F!V# #I#^#f#]#8!a!1!I#S#j#L#6!|!T!5!8#0",
"#3#4#.!x# #!#!#4#I#I!n!! b b!#!e#/##!{#1#,!h!X#F",
"#H#C#4#.#!!k!4!j#Q!^ q < < C _!0!W!z#*#+!v!{!g!u",
"#8#4#4!j!I!( V!(!Q ~ H 7 . / 3 H ] x!+!D!d!d!S!C",
"!o!w!w!B!(!) n } z Z G ; 1 ' $ % , & : i!M!M!B!,",
"!]!x!t!B!F!G!.!U!i l G > 1 + ' % !   - i!N!c!2 Y",
"!6!Q!t!e!F!,!)#-#W!Z!  p ` Q Q I 2 ( A!R#>!t!6 M",
" N z!N!c!( F k!n#W#7!m!Y!J!J!J!? p I!!#4#M!P y M"};
