/* XPM */
static char *11[] = {
"24 24 478 2",
"  	c #78975A",
" !	c #79985A",
" #	c #79985B",
" $	c #79995B",
" %	c #799B5B",
" &	c #7A975A",
" '	c #7A985A",
" (	c #7A9B5B",
" )	c #7B975B",
" *	c #7B995D",
" +	c #7B9A5B",
" ,	c #7B9B5B",
" -	c #7B9C5B",
" .	c #7B9C5D",
" /	c #7B9D5B",
" 0	c #7C975B",
" 1	c #7C995A",
" 2	c #7C995B",
" 3	c #7C995D",
" 4	c #7C9B5C",
" 5	c #7C9F5D",
" 6	c #7CA15C",
" 7	c #7D975B",
" 8	c #7D985A",
" 9	c #7D995B",
" :	c #7D9A5C",
" ;	c #7D9C5C",
" <	c #7D9F5E",
" =	c #7DA35C",
" >	c #7E975B",
" ?	c #7E985B",
" @	c #7E995B",
" A	c #7E995C",
" B	c #7E9A5B",
" C	c #7E9C5A",
" D	c #7E9F5C",
" E	c #7E9F5E",
" F	c #7EA05C",
" G	c #7EA25D",
" H	c #7EA45C",
" I	c #7EA45D",
" J	c #7EA55B",
" K	c #7EA65C",
" L	c #7F985C",
" M	c #7F9C5C",
" N	c #7F9E5D",
" O	c #7F9F5E",
" P	c #7FA55C",
" Q	c #7FA65B",
" R	c #7FA65D",
" S	c #7FA65E",
" T	c #7FA85B",
" U	c #809E5E",
" V	c #80A05D",
" W	c #80A05F",
" X	c #80A15F",
" Y	c #80A25D",
" Z	c #80A45D",
" [	c #80A55F",
" ]	c #80A65E",
" ^	c #80A75D",
" _	c #80A75E",
" `	c #80A85B",
" a	c #819B5C",
" b	c #819C5D",
" c	c #819D5D",
" d	c #819F5E",
" e	c #81A15D",
" f	c #81A55E",
" g	c #81A55F",
" h	c #81A65E",
" i	c #81A75D",
" j	c #81A75E",
" k	c #81A95B",
" l	c #829A5C",
" m	c #829A5D",
" n	c #829C5B",
" o	c #82A35E",
" p	c #82A55F",
" q	c #82A65F",
" r	c #82A75E",
" s	c #82A75F",
" t	c #82AA5B",
" u	c #839A5D",
" v	c #839B5D",
" w	c #839D5F",
" x	c #83A360",
" y	c #83A45E",
" z	c #83A560",
" {	c #83A75F",
" |	c #83A95D",
" }	c #83A95E",
" ~	c #83AB5C",
"! 	c #83AD5C",
"!!	c #849A5D",
"!#	c #849B5D",
"!$	c #849C5D",
"!%	c #84A561",
"!&	c #84A660",
"!'	c #84A760",
"!(	c #84AD58",
"!)	c #84AE5B",
"!*	c #859A5D",
"!+	c #859B5E",
"!,	c #859C5D",
"!-	c #85A25F",
"!.	c #85A360",
"!/	c #85A461",
"!0	c #85A560",
"!1	c #85A762",
"!2	c #85A861",
"!3	c #85A960",
"!4	c #85AB5F",
"!5	c #85AD5C",
"!6	c #85AD5E",
"!7	c #85AF5A",
"!8	c #869A5D",
"!9	c #869D5E",
"!:	c #869E60",
"!;	c #869F5F",
"!<	c #86A360",
"!=	c #86A460",
"!>	c #86A662",
"!?	c #86A860",
"!@	c #86AA61",
"!A	c #86AE5B",
"!B	c #86AE5F",
"!C	c #86AF59",
"!D	c #879D5E",
"!E	c #87A060",
"!F	c #87A461",
"!G	c #87A762",
"!H	c #87B15A",
"!I	c #87B15F",
"!J	c #889E5F",
"!K	c #88A561",
"!L	c #88A662",
"!M	c #88A762",
"!N	c #88A862",
"!O	c #88AF60",
"!P	c #88B05B",
"!Q	c #88B15B",
"!R	c #88B15E",
"!S	c #88B25E",
"!T	c #899D5F",
"!U	c #899F60",
"!V	c #89A261",
"!W	c #89A461",
"!X	c #89A562",
"!Y	c #89A862",
"!Z	c #89A863",
"![	c #89AA62",
"!]	c #89AD61",
"!^	c #89AD62",
"!_	c #89B060",
"!`	c #89B25B",
"!a	c #89B25C",
"!b	c #89B25D",
"!c	c #89B25E",
"!d	c #8A9B5E",
"!e	c #8A9E5E",
"!f	c #8AA161",
"!g	c #8AA261",
"!h	c #8AA361",
"!i	c #8AA561",
"!j	c #8AA562",
"!k	c #8AAA63",
"!l	c #8AAB63",
"!m	c #8AB060",
"!n	c #8AB161",
"!o	c #8AB162",
"!p	c #8AB35C",
"!q	c #8AB35F",
"!r	c #8AB360",
"!s	c #8AB361",
"!t	c #8B9B5F",
"!u	c #8B9C5F",
"!v	c #8B9D5F",
"!w	c #8BA360",
"!x	c #8BA863",
"!y	c #8BA964",
"!z	c #8BAA63",
"!{	c #8BAC63",
"!|	c #8BB060",
"!}	c #8BB061",
"!~	c #8BB062",
"# 	c #8BB262",
"#!	c #8BB263",
"##	c #8BB35D",
"#$	c #8BB35E",
"#%	c #8BB35F",
"#&	c #8BB45E",
"#'	c #8BB45F",
"#(	c #8BB461",
"#)	c #8BB463",
"#*	c #8C9C5F",
"#+	c #8C9D5F",
"#,	c #8C9F60",
"#-	c #8CAA64",
"#.	c #8CAE62",
"#/	c #8CB061",
"#0	c #8CB062",
"#1	c #8CB161",
"#2	c #8CB261",
"#3	c #8CB262",
"#4	c #8CB263",
"#5	c #8CB360",
"#6	c #8CB365",
"#7	c #8CB45E",
"#8	c #8CB45F",
"#9	c #8CB460",
"#:	c #8CB55F",
"#;	c #8CB662",
"#<	c #8D9E5F",
"#=	c #8DAB65",
"#>	c #8DAF64",
"#?	c #8DB262",
"#@	c #8DB362",
"#A	c #8DB363",
"#B	c #8DB460",
"#C	c #8DB461",
"#D	c #8DB462",
"#E	c #8DB463",
"#F	c #8DB465",
"#G	c #8DB55E",
"#H	c #8DB55F",
"#I	c #8DB560",
"#J	c #8DB562",
"#K	c #8DB764",
"#L	c #8E9E60",
"#M	c #8EA161",
"#N	c #8EA461",
"#O	c #8EAE65",
"#P	c #8EB262",
"#Q	c #8EB264",
"#R	c #8EB362",
"#S	c #8EB363",
"#T	c #8EB460",
"#U	c #8EB462",
"#V	c #8EB463",
"#W	c #8EB55F",
"#X	c #8EB560",
"#Y	c #8EB562",
"#Z	c #8EB563",
"#[	c #8EB564",
"#]	c #8EB565",
"#^	c #8EB566",
"#_	c #8EB660",
"#`	c #8EB662",
"#a	c #8EB663",
"#b	c #8EB761",
"#c	c #8EB763",
"#d	c #8F9E60",
"#e	c #8F9F61",
"#f	c #8FAE67",
"#g	c #8FAF66",
"#h	c #8FB067",
"#i	c #8FB165",
"#j	c #8FB263",
"#k	c #8FB463",
"#l	c #8FB561",
"#m	c #8FB562",
"#n	c #8FB563",
"#o	c #8FB564",
"#p	c #8FB565",
"#q	c #8FB566",
"#r	c #8FB663",
"#s	c #8FB664",
"#t	c #8FB665",
"#u	c #8FB761",
"#v	c #8FB762",
"#w	c #8FB763",
"#x	c #8FB764",
"#y	c #909F60",
"#z	c #90A661",
"#{	c #90A662",
"#|	c #90B067",
"#}	c #90B364",
"#~	c #90B563",
"$ 	c #90B564",
"$!	c #90B660",
"$#	c #90B662",
"$$	c #90B663",
"$%	c #90B664",
"$&	c #90B665",
"$'	c #90B761",
"$(	c #90B764",
"$)	c #90B765",
"$*	c #90B766",
"$+	c #90B767",
"$,	c #90B861",
"$-	c #90B862",
"$.	c #919E61",
"$/	c #919E62",
"$0	c #91A261",
"$1	c #91B664",
"$2	c #91B665",
"$3	c #91B666",
"$4	c #91B762",
"$5	c #91B763",
"$6	c #91B764",
"$7	c #91B765",
"$8	c #91B766",
"$9	c #91B861",
"$:	c #91B863",
"$;	c #91B864",
"$<	c #91B865",
"$=	c #91B866",
"$>	c #91B965",
"$?	c #929E60",
"$@	c #929F60",
"$A	c #92A362",
"$B	c #92B765",
"$C	c #92B863",
"$D	c #92B864",
"$E	c #92B866",
"$F	c #92B867",
"$G	c #92B963",
"$H	c #92B964",
"$I	c #92B965",
"$J	c #92B967",
"$K	c #92BA65",
"$L	c #939F61",
"$M	c #93A362",
"$N	c #93B865",
"$O	c #93B866",
"$P	c #93B867",
"$Q	c #93B963",
"$R	c #93B964",
"$S	c #93B966",
"$T	c #93BA64",
"$U	c #93BA65",
"$V	c #93BA66",
"$W	c #93BA68",
"$X	c #93BB64",
"$Y	c #949F60",
"$Z	c #949F61",
"$[	c #949F62",
"$]	c #94B966",
"$^	c #94BA65",
"$_	c #94BA66",
"$`	c #94BA67",
"$a	c #94BB65",
"$b	c #94BB67",
"$c	c #94BB68",
"$d	c #94BC66",
"$e	c #959F61",
"$f	c #95BA67",
"$g	c #95BD66",
"$h	c #95BD67",
"$i	c #969F63",
"$j	c #96A063",
"$k	c #96BB68",
"$l	c #96BC69",
"$m	c #96BD66",
"$n	c #96BD68",
"$o	c #979F62",
"$p	c #97A265",
"$q	c #97BD67",
"$r	c #97BD69",
"$s	c #97BE66",
"$t	c #97BE68",
"$u	c #989F62",
"$v	c #989F63",
"$w	c #98A062",
"$x	c #98BF68",
"$y	c #999F63",
"$z	c #99C068",
"${	c #99C069",
"$|	c #99C06A",
"$}	c #9A9E64",
"$~	c #9A9F63",
"% 	c #9A9F64",
"%!	c #9AA063",
"%#	c #9AA163",
"%$	c #9AA266",
"%%	c #9AA366",
"%&	c #9AC168",
"%'	c #9BA063",
"%(	c #9BA164",
"%)	c #9BC168",
"%*	c #9C9E64",
"%+	c #9C9F64",
"%,	c #9CA063",
"%-	c #9CC268",
"%.	c #9FA065",
"%/	c #A09F64",
"%0	c #A09F65",
"%1	c #A0A066",
"%2	c #A2A166",
"%3	c #A39F66",
"%4	c #A3A065",
"%5	c #A49F64",
"%6	c #A5A067",
"%7	c #A69F68",
"%8	c #A6A067",
"%9	c #A6A167",
"%:	c #A6A269",
"%;	c #A79F68",
"%<	c #A7A167",
"%=	c #AAA36C",
"%>	c #ADA16C",
"%?	c #AE9F6B",
"%@	c #AEA16C",
"%A	c #AEA26D",
"%B	c #AEA46E",
"%C	c #AFA06C",
"%D	c #AFA36F",
"%E	c #B0A26D",
"%F	c #B0A36F",
"%G	c #B1A06C",
"%H	c #B2A16B",
"%I	c #B2A16C",
"%J	c #B2A16D",
"%K	c #B2A371",
"%L	c #B3A26D",
"%M	c #B4A471",
"%N	c #B6A572",
"%O	c #B6A672",
"%P	c #B7A672",
"%Q	c #B7A673",
"%R	c #B9A571",
"%S	c #B9A776",
"%T	c #BAA774",
"%U	c #BBA672",
"%V	c #BCA772",
"%W	c #BDAA76",
"%X	c #BEA874",
"%Y	c #BFA975",
"%Z	c #BFA976",
"%[	c #C0A976",
"%]	c #C2AB76",
"%^	c #C2AD7A",
"%_	c #C4AD7A",
"%`	c #CAB584",
"%a	c #CAB585",
"%b	c #CBB484",
"%c	c #CBB584",
"%d	c #CBB686",
"%e	c #CCB583",
"%f	c #CCB682",
"%g	c #CCB684",
"%h	c #CDB685",
"%i	c #CDB786",
"%j	c #CDB787",
"%k	c #CEB684",
"%l	c #CEB685",
"%m	c #CEB784",
"%n	c #CEB788",
"%o	c #CEB888",
"%p	c #CFB785",
"%q	c #CFB889",
"%r	c #CFB98A",
"%s	c #CFBC8C",
"%t	c #D0B886",
"%u	c #D0BA89",
"%v	c #D0BA8A",
"%w	c #D0BA8C",
"%x	c #D0BA8D",
"%y	c #D0BB8B",
"%z	c #D0BB8C",
"%{	c #D0BB8D",
"%|	c #D0BC8D",
"%}	c #D0BD8E",
"%~	c #D1BA8B",
"& 	c #D1BC8D",
"&!	c #D2BC8E",
"&#	c #D2BE90",
"&$	c #D2BF90",
"&%	c #D2C092",
"&&	c #D3C093",
"&'	c #D4C093",
"&(	c #D4C194",
"&)	c #D5C297",
"&*	c #D5C398",
"&+	c #D6C398",
"&,	c #D7C498",
"&-	c #D7C598",
"$R$Q$X$d$-#$#B$6$%#A!O!4!2 W * : a!J#y$w%5%]%u%z",
"$^$a$U$K$;$($<$E$%$&#s!n!3 O 3 A!$#,$?%!%8%_%v%{",
"$I$U$I#r#a$J$W$F#n#~$%#Z!] e 9 B!,#L$Y$~%<%^%v%{",
"$>$<$6#n#D#t$J$7#R#U#r#Y!~ y C n!e#y$Z$~%9%W%q%x",
"#x$)$8$*#[#E#V#k#~$1$$#R#.!G!-!w$0$[$i%'%4%O%n%w",
"#`$*$+$+#]# !m#k$]$O$2#?!l!L!i#{$M$e$v%,%/%E%d%r",
"$V$=#]#^#F!o!_#n$S$1$ #j![!=!W#z$A$L$o%+%/%>%a%n",
"$b$=#4#6#F#!!m#@#V#R#}#i!z!K!h#N#M#d$o%(%.%A%`%j",
"$h$_#o#q#p#@#3#1#/#0#i#g#=!j!V!f!T!d$Z%(%1%F%b%l",
"%&$z$s$q$B#S$3$3#P#>#h#|#=!X!E!:!#!8$@%'%2%K%c%k",
"%-%)${$|$_$ $P$P#Q!{#O#f#-!F w m l!*#e%#%:%M%e%m",
"$z$x$t$n$`$O$2#S!^!?!k#=!x!< b 7 L v#*$u%=%N%f%p",
"$g$s$m$K$c$k$1!}!@!'!N!y!Y!. c 0 > u!d$y%B%Q%g%t",
"$T$a$T#u#w$D$#!| { g!1!Z!M!/ U ) 7!!!v% %D%P%h%~",
"$T$T$G#_#T#l$4#2 r Z z!>!G x 4 & ?!##+$}%@%R%i&!",
"$^$^$G#v$#$5$C#@ } h p!0!% E # ' A!+!u%*%?%U%o&#",
"$r$k$D$H$H$:$C#C | j q!& X . $ ! @!D#<%0%G%Y%y&&",
"$l$f$D$H#v#W$'#5 k K _ g < ( #   2!D$.%6%L%[& &'",
"$N$H#W!a!b#7$!#% t J ] [ 5 % $   1!9$j%;%L%Z%|&(",
"#m#I!Q!C!H#7$9#I!) T R I 6 / + + M!U%$%7%J%X%|&)",
"#9!b!Q!`!p#G$,#b!S!  ` H = F N N d!g%%%7%H%V%s&*",
"!c!b###H#:#&#X#c#;!I ~ Q P f o V U!;$p%7%I%V%}&+",
"!7!Q#8#u#'!R#J#x#K!s!6 i ^ s Y D ; b$/%6%G%T&$&,",
"!(!P#9#&!A!5#(#)!r!q!B _ S G - , + 8!t%3%C%S&%&-"};
