/* XPM */
static char *12[] = {
"24 24 452 2",
"  	c #839D5D",
" !	c #83A05D",
" #	c #83AD5C",
" $	c #849B5C",
" %	c #84A25D",
" &	c #84A75F",
" '	c #859A5D",
" (	c #859B5B",
" )	c #859E5C",
" *	c #85A05F",
" +	c #85A15F",
" ,	c #85A55F",
" -	c #85A560",
" .	c #85AC5B",
" /	c #85AC5C",
" 0	c #85AE5F",
" 1	c #869759",
" 2	c #86975A",
" 3	c #869B5C",
" 4	c #869B5D",
" 5	c #869C5D",
" 6	c #869D5D",
" 7	c #869E5D",
" 8	c #869E5E",
" 9	c #869F5E",
" :	c #86A05F",
" ;	c #86A15E",
" <	c #86A15F",
" =	c #86A45E",
" >	c #86A560",
" ?	c #86A761",
" @	c #86A85E",
" A	c #86A85F",
" B	c #86A860",
" C	c #86AB5E",
" D	c #86AD5C",
" E	c #86AE5D",
" F	c #86AE5E",
" G	c #86AF5D",
" H	c #86AF60",
" I	c #87985B",
" J	c #87995A",
" K	c #879B5B",
" L	c #879B5C",
" M	c #879E5E",
" N	c #879F5E",
" O	c #87A05E",
" P	c #87AA5D",
" Q	c #87AA5E",
" R	c #87AA5F",
" S	c #87AB5E",
" T	c #87AE5C",
" U	c #87AE5D",
" V	c #87AE5E",
" W	c #87AE5F",
" X	c #87AE60",
" Y	c #87AF5E",
" Z	c #889A5C",
" [	c #889E5E",
" ]	c #88A15E",
" ^	c #88A560",
" _	c #88AD5F",
" `	c #88AD61",
" a	c #88AE60",
" b	c #88AF5E",
" c	c #88AF61",
" d	c #88AF62",
" e	c #88B05E",
" f	c #88B05F",
" g	c #88B160",
" h	c #899B5B",
" i	c #899B5C",
" j	c #89A560",
" k	c #89A65F",
" l	c #89A75F",
" m	c #89AD5F",
" n	c #89AE61",
" o	c #89B05C",
" p	c #89B05D",
" q	c #89B061",
" r	c #89B062",
" s	c #89B15C",
" t	c #89B15F",
" u	c #89B260",
" v	c #89B35F",
" w	c #8A9B5D",
" x	c #8A9F5F",
" y	c #8AB062",
" z	c #8AB064",
" {	c #8AB15E",
" |	c #8AB161",
" }	c #8AB162",
" ~	c #8AB163",
"! 	c #8AB260",
"!!	c #8AB262",
"!#	c #8AB35F",
"!$	c #8AB361",
"!%	c #8B9C5E",
"!&	c #8BB160",
"!'	c #8BB163",
"!(	c #8BB164",
"!)	c #8BB25D",
"!*	c #8BB25E",
"!+	c #8BB25F",
"!,	c #8BB361",
"!-	c #8BB45E",
"!.	c #8BB55F",
"!/	c #8C9C5E",
"!0	c #8C9D5D",
"!1	c #8CA35F",
"!2	c #8CB060",
"!3	c #8CB163",
"!4	c #8CB262",
"!5	c #8CB263",
"!6	c #8CB363",
"!7	c #8CB45F",
"!8	c #8CB460",
"!9	c #8CB55F",
"!:	c #8CB563",
"!;	c #8CB660",
"!<	c #8DA260",
"!=	c #8DA361",
"!>	c #8DA45F",
"!?	c #8DA760",
"!@	c #8DAB61",
"!A	c #8DAE63",
"!B	c #8DB05F",
"!C	c #8DB160",
"!D	c #8DB262",
"!E	c #8DB263",
"!F	c #8DB264",
"!G	c #8DB364",
"!H	c #8DB366",
"!I	c #8DB45F",
"!J	c #8DB560",
"!K	c #8DB561",
"!L	c #8DB562",
"!M	c #8DB65F",
"!N	c #8DB660",
"!O	c #8DB661",
"!P	c #8DB662",
"!Q	c #8DB760",
"!R	c #8DB761",
"!S	c #8EAB61",
"!T	c #8EB160",
"!U	c #8EB162",
"!V	c #8EB263",
"!W	c #8EB264",
"!X	c #8EB363",
"!Y	c #8EB365",
"!Z	c #8EB460",
"![	c #8EB463",
"!]	c #8EB465",
"!^	c #8EB55F",
"!_	c #8EB560",
"!`	c #8EB562",
"!a	c #8EB563",
"!b	c #8EB565",
"!c	c #8EB65F",
"!d	c #8EB661",
"!e	c #8EB662",
"!f	c #8EB760",
"!g	c #8EB763",
"!h	c #8EB861",
"!i	c #8F9E5E",
"!j	c #8F9E5F",
"!k	c #8FB361",
"!l	c #8FB362",
"!m	c #8FB363",
"!n	c #8FB364",
"!o	c #8FB365",
"!p	c #8FB461",
"!q	c #8FB462",
"!r	c #8FB465",
"!s	c #8FB55F",
"!t	c #8FB563",
"!u	c #8FB565",
"!v	c #8FB761",
"!w	c #8FB762",
"!x	c #8FB764",
"!y	c #8FB861",
"!z	c #8FB862",
"!{	c #8FB863",
"!|	c #90A75F",
"!}	c #90B060",
"!~	c #90B360",
"# 	c #90B366",
"#!	c #90B466",
"##	c #90B563",
"#$	c #90B564",
"#%	c #90B565",
"#&	c #90B661",
"#'	c #90B664",
"#(	c #90B75F",
"#)	c #90B760",
"#*	c #90B762",
"#+	c #90B763",
"#,	c #90B861",
"#-	c #90B962",
"#.	c #90B963",
"#/	c #90B964",
"#0	c #91A160",
"#1	c #91AF61",
"#2	c #91B460",
"#3	c #91B466",
"#4	c #91B563",
"#5	c #91B566",
"#6	c #91B567",
"#7	c #91B665",
"#8	c #91B667",
"#9	c #91B760",
"#:	c #91B761",
"#;	c #91B860",
"#<	c #91B962",
"#=	c #91B963",
"#>	c #91BA62",
"#?	c #929D5E",
"#@	c #929E5F",
"#A	c #92A061",
"#B	c #92A861",
"#C	c #92A863",
"#D	c #92AB61",
"#E	c #92B568",
"#F	c #92B661",
"#G	c #92B663",
"#H	c #92B664",
"#I	c #92B666",
"#J	c #92B667",
"#K	c #92B668",
"#L	c #92B761",
"#M	c #92B766",
"#N	c #92B863",
"#O	c #92B864",
"#P	c #92B963",
"#Q	c #92B967",
"#R	c #92BA63",
"#S	c #92BA64",
"#T	c #92BA67",
"#U	c #92BB64",
"#V	c #92BB65",
"#W	c #939C5F",
"#X	c #939F60",
"#Y	c #93A462",
"#Z	c #93A662",
"#[	c #93A861",
"#]	c #93B762",
"#^	c #93B765",
"#_	c #93B767",
"#`	c #93B768",
"#a	c #93B861",
"#b	c #93B863",
"#c	c #93B866",
"#d	c #93B867",
"#e	c #93B966",
"#f	c #93BA63",
"#g	c #93BA65",
"#h	c #93BA66",
"#i	c #93BB64",
"#j	c #93BC64",
"#k	c #93BC67",
"#l	c #949B5F",
"#m	c #949C5F",
"#n	c #949D60",
"#o	c #94A862",
"#p	c #94A963",
"#q	c #94AA60",
"#r	c #94AA62",
"#s	c #94AE62",
"#t	c #94B264",
"#u	c #94B561",
"#v	c #94B765",
"#w	c #94B769",
"#x	c #94B866",
"#y	c #94B961",
"#z	c #94B968",
"#{	c #94B969",
"#|	c #94BA62",
"#}	c #94BA64",
"#~	c #94BA68",
"$ 	c #94BB64",
"$!	c #94BC64",
"$#	c #94BC65",
"$$	c #94BD63",
"$%	c #94BD65",
"$&	c #94BD66",
"$'	c #959C5E",
"$(	c #959E5F",
"$)	c #959E60",
"$*	c #959F60",
"$+	c #95A261",
"$,	c #95A262",
"$-	c #95A461",
"$.	c #95AC63",
"$/	c #95B163",
"$0	c #95B263",
"$1	c #95B762",
"$2	c #95B767",
"$3	c #95B769",
"$4	c #95B868",
"$5	c #95B869",
"$6	c #95B967",
"$7	c #95BA62",
"$8	c #95BB64",
"$9	c #95BB65",
"$:	c #95BB66",
"$;	c #95BC64",
"$<	c #95BC65",
"$=	c #95BC66",
"$>	c #95BC67",
"$?	c #95BD65",
"$@	c #95BD66",
"$A	c #95BE65",
"$B	c #969D60",
"$C	c #96A261",
"$D	c #96A462",
"$E	c #96AA61",
"$F	c #96AB61",
"$G	c #96B862",
"$H	c #96B869",
"$I	c #96B968",
"$J	c #96BA69",
"$K	c #96BB63",
"$L	c #96BB68",
"$M	c #96BB69",
"$N	c #96BC65",
"$O	c #96BD64",
"$P	c #96BD66",
"$Q	c #96BD67",
"$R	c #96BD68",
"$S	c #979E60",
"$T	c #979E61",
"$U	c #97A762",
"$V	c #97A860",
"$W	c #97A861",
"$X	c #97AE63",
"$Y	c #97BA69",
"$Z	c #97BD65",
"$[	c #97BE67",
"$]	c #97BF67",
"$^	c #97C067",
"$_	c #97C068",
"$`	c #989E61",
"$a	c #989F60",
"$b	c #989F61",
"$c	c #98A061",
"$d	c #98AA62",
"$e	c #98B565",
"$f	c #999F61",
"$g	c #99A060",
"$h	c #99A160",
"$i	c #99A261",
"$j	c #99A461",
"$k	c #99A560",
"$l	c #99A563",
"$m	c #99AA62",
"$n	c #99C068",
"$o	c #9AA060",
"$p	c #9AA460",
"$q	c #9B9C63",
"$r	c #9B9E62",
"$s	c #9B9F63",
"$t	c #9BA062",
"$u	c #9BA163",
"$v	c #9BA662",
"$w	c #9C9E64",
"$x	c #9EA162",
"$y	c #9FA163",
"$z	c #9FA164",
"${	c #A09E62",
"$|	c #A09E64",
"$}	c #A09F61",
"$~	c #A0A062",
"% 	c #A19E65",
"%!	c #A29E63",
"%#	c #A29F65",
"%$	c #A2A165",
"%%	c #A39E64",
"%&	c #A3A166",
"%'	c #A3A266",
"%(	c #A5A066",
"%)	c #A6A069",
"%*	c #A7A168",
"%+	c #A89F68",
"%,	c #A9A267",
"%-	c #AAA168",
"%.	c #AB9E6A",
"%/	c #ABA06A",
"%0	c #ABA06B",
"%1	c #ABA168",
"%2	c #ABA269",
"%3	c #ABA369",
"%4	c #ACA46C",
"%5	c #ADA168",
"%6	c #ADA268",
"%7	c #ADA26A",
"%8	c #ADA36A",
"%9	c #ADA56A",
"%:	c #AEA56A",
"%;	c #AFA16B",
"%<	c #B1A46E",
"%=	c #B1A771",
"%>	c #B2A36E",
"%?	c #B7A572",
"%@	c #B7A871",
"%A	c #B7A872",
"%B	c #B8A573",
"%C	c #B8A872",
"%D	c #B8A873",
"%E	c #B8A874",
"%F	c #B8A972",
"%G	c #B9A873",
"%H	c #BBAA74",
"%I	c #BCA977",
"%J	c #BCAB77",
"%K	c #BDAB76",
"%L	c #BEA979",
"%M	c #BEAD7A",
"%N	c #BFAA7B",
"%O	c #C0AC7D",
"%P	c #C1AE7C",
"%Q	c #C1AF7B",
"%R	c #C3B17E",
"%S	c #C6B281",
"%T	c #C8B481",
"%U	c #CAB785",
"%V	c #CAB886",
"%W	c #CBB887",
"%X	c #CBB986",
"%Y	c #CBB987",
"%Z	c #CCB886",
"%[	c #CCB987",
"%]	c #CCBA89",
"%^	c #CDB889",
"%_	c #CDB988",
"%`	c #CDBA89",
"%a	c #CDBB8A",
"%b	c #CEB88A",
"%c	c #CEB98B",
"%d	c #CEBB8A",
"%e	c #CEBB8B",
"%f	c #CEBB8C",
"%g	c #CFBA8B",
"%h	c #CFBC8A",
"%i	c #CFBC8B",
"%j	c #CFBC8C",
"%k	c #CFBC8D",
"%l	c #CFBD8C",
"%m	c #D0BC8B",
"%n	c #D0BC8C",
"%o	c #D0BC8D",
"%p	c #D0BC8E",
"%q	c #D1BC8E",
"%f%e%W%R%=$T Z ( ) % B `!,!O!e!w!N!-!c#f#}#*!7 s",
"%e%e%U%M%4#n I 3 7 + ? `!$!P!{#/!z!;!M#R$9#P!_!)",
"%e%a%S%E%*#W 2 4 9 * > _! !R#.#V#.!;!9#R$@$ !v!I",
"%e%`%Q%<%(#l 1 3 8 * , W t!;#-#S#=!N!-#>$@$;#-!d",
"%h%[%J%7%%#m J 5 N + A W f!#!z#i#R!Q!9!z#U#U!y!J",
"%h%X%D%-%!$' h L M < R W V e!8#i#R#,#-#-!h!h!N!9",
"%h%Y%A%2%#$B!0 K 6 ; S F U U {#=#U#R$?#i!Q!f#-#S",
"%i%Y%F%9%&$`!i i 3 : C E U U p#<#j$!$n$P#<#j$@$>",
"%i%Y%A%:%'$b#@ w ' : Q D D D o#<$%$@$[$<$#$_$R#Q",
"%j%Y%@%8%$$f#X!% $ = P / . T!*#>$A$]$@$#$&#k#T#8",
"%j%W%@%3$z$a#@!/ [ l m b {!+!^$$$^$]$Q$=#h!x!b!H",
"%j%V%C%,$x$S#?!j!=!S!T!Z#&#)#;$O$[$R$R$L#M!X!3!(",
"%i%Y%G%1$y$b$(#A#C#t#]#9#L#a#|$N$>#~#z#{#_!n!' z",
"%l%]%H%6$y$c$c$,#p$e$G#y$K$Z$8#+!u#6#6#E#K!] ~ r",
"%j%a%K%6$~$g$i$-#B$0$1$7$O$Z#b |!5#5#!# !Y ~ q!4",
"%j%d%P%5$}$h$j$U#[#D#u#y#(#:#G!&!r#J#3!o!' d!G#c",
"%n%m%T%;${$o$k$W#r$.$/#2!s#b#^!m#I#w#`!] c!5#7#v",
"%n%n%Z%>$|$t$p$V$F$X#s!}#F#O#4#H$2$3$5!G a!b#$##",
"%k%n%_%?% $u$v$d$F#q#D#1!~!k!l$6$Y$H$5!F X!6![!t",
"%k%q%g%L%)$u$l$m$E!|!?!@!B!C!k#^$I$4#6 y H!!!a#'",
"%k%p%g%O%0$s$C$U#o!> ] k!2!p!q#$#c#x#% } 0 g!:!L",
"%k%o%c%N%.$r$*$D#Z!1 O j!U##!t!t#d$L#e!` Y # G e",
"%k%o%b%I%/$w$)$+#Y!< O ^!A!V!D!E#M$J$M#g!d u v!.",
"%k%n%^%B%+$q#n#X#0 x   ! - & @ n!W#J#~$:#N!K!g#."};
