/* XPM */
static char *13[] = {
"24 24 367 2",
"  	c #7EA858",
" !	c #7FA758",
" #	c #7FA959",
" $	c #80A659",
" %	c #80A95B",
" &	c #81A557",
" '	c #81A95C",
" (	c #81AB5A",
" )	c #82A95F",
" *	c #82AA59",
" +	c #82AA5D",
" ,	c #82AB5B",
" -	c #82AD5B",
" .	c #83AB5D",
" /	c #83AB5E",
" 0	c #83AB60",
" 1	c #83AB61",
" 2	c #83AC58",
" 3	c #83AC5B",
" 4	c #83AC5C",
" 5	c #83AC61",
" 6	c #83AD5A",
" 7	c #84AA5C",
" 8	c #84AB5D",
" 9	c #84AB60",
" :	c #84AC5B",
" ;	c #84AC5C",
" <	c #84AC5E",
" =	c #84AE5B",
" >	c #85AA5D",
" ?	c #85AC61",
" @	c #85AD59",
" A	c #85AD5C",
" B	c #85AD5D",
" C	c #85AD5E",
" D	c #85AE5B",
" E	c #85AE5C",
" F	c #85AE5D",
" G	c #85AE5E",
" H	c #85AE5F",
" I	c #85AF5A",
" J	c #85AF5D",
" K	c #86AB5D",
" L	c #86AB5E",
" M	c #86AD5D",
" N	c #86AD5E",
" O	c #86AD5F",
" P	c #86AD60",
" Q	c #86AD63",
" R	c #86AE5A",
" S	c #86AE5E",
" T	c #86AE5F",
" U	c #86AE64",
" V	c #86AF5D",
" W	c #86AF5E",
" X	c #86B05C",
" Y	c #87AC5E",
" Z	c #87AC60",
" [	c #87AD63",
" ]	c #87AD64",
" ^	c #87AE5D",
" _	c #87AE5E",
" `	c #87AF5B",
" a	c #87AF5D",
" b	c #87AF5F",
" c	c #87AF60",
" d	c #87AF62",
" e	c #87AF63",
" f	c #87B05B",
" g	c #87B05D",
" h	c #87B05E",
" i	c #87B05F",
" j	c #87B060",
" k	c #87B062",
" l	c #87B063",
" m	c #87B15C",
" n	c #88AC60",
" o	c #88AD5F",
" p	c #88AD60",
" q	c #88AE63",
" r	c #88AF5D",
" s	c #88AF5E",
" t	c #88AF60",
" u	c #88AF62",
" v	c #88AF64",
" w	c #88B05D",
" x	c #88B05E",
" y	c #88B05F",
" z	c #88B060",
" {	c #88B061",
" |	c #88B065",
" }	c #88B15D",
" ~	c #88B25D",
"! 	c #89AE62",
"!!	c #89AF61",
"!#	c #89AF62",
"!$	c #89AF65",
"!%	c #89AF66",
"!&	c #89B05E",
"!'	c #89B05F",
"!(	c #89B060",
"!)	c #89B062",
"!*	c #89B15D",
"!+	c #89B15E",
"!,	c #89B15F",
"!-	c #89B160",
"!.	c #89B161",
"!/	c #89B25D",
"!0	c #8AAF60",
"!1	c #8AB060",
"!2	c #8AB061",
"!3	c #8AB063",
"!4	c #8AB066",
"!5	c #8AB15E",
"!6	c #8AB15F",
"!7	c #8AB160",
"!8	c #8AB161",
"!9	c #8AB162",
"!:	c #8AB165",
"!;	c #8AB25D",
"!<	c #8AB25E",
"!=	c #8AB25F",
"!>	c #8AB260",
"!?	c #8AB262",
"!@	c #8AB264",
"!A	c #8AB35D",
"!B	c #8AB35E",
"!C	c #8AB360",
"!D	c #8AB361",
"!E	c #8AB362",
"!F	c #8BAF65",
"!G	c #8BB061",
"!H	c #8BB062",
"!I	c #8BB064",
"!J	c #8BB068",
"!K	c #8BB160",
"!L	c #8BB161",
"!M	c #8BB162",
"!N	c #8BB163",
"!O	c #8BB167",
"!P	c #8BB25F",
"!Q	c #8BB260",
"!R	c #8BB262",
"!S	c #8BB263",
"!T	c #8BB264",
"!U	c #8BB267",
"!V	c #8BB268",
"!W	c #8BB35E",
"!X	c #8BB35F",
"!Y	c #8BB360",
"!Z	c #8BB361",
"![	c #8BB362",
"!]	c #8BB363",
"!^	c #8BB364",
"!_	c #8BB45F",
"!`	c #8BB460",
"!a	c #8BB560",
"!b	c #8BB561",
"!c	c #8BB564",
"!d	c #8CB262",
"!e	c #8CB264",
"!f	c #8CB265",
"!g	c #8CB35E",
"!h	c #8CB35F",
"!i	c #8CB360",
"!j	c #8CB361",
"!k	c #8CB363",
"!l	c #8CB364",
"!m	c #8CB365",
"!n	c #8CB366",
"!o	c #8CB460",
"!p	c #8CB461",
"!q	c #8CB462",
"!r	c #8CB464",
"!s	c #8CB467",
"!t	c #8CB560",
"!u	c #8CB562",
"!v	c #8CB563",
"!w	c #8DB262",
"!x	c #8DB263",
"!y	c #8DB266",
"!z	c #8DB268",
"!{	c #8DB360",
"!|	c #8DB361",
"!}	c #8DB362",
"!~	c #8DB363",
"# 	c #8DB364",
"#!	c #8DB45F",
"##	c #8DB461",
"#$	c #8DB462",
"#%	c #8DB468",
"#&	c #8DB469",
"#'	c #8DB55F",
"#(	c #8DB560",
"#)	c #8DB561",
"#*	c #8DB563",
"#+	c #8DB564",
"#,	c #8DB565",
"#-	c #8DB566",
"#.	c #8DB661",
"#/	c #8DB665",
"#0	c #8DB762",
"#1	c #8EB165",
"#2	c #8EB262",
"#3	c #8EB269",
"#4	c #8EB362",
"#5	c #8EB364",
"#6	c #8EB365",
"#7	c #8EB462",
"#8	c #8EB463",
"#9	c #8EB464",
"#:	c #8EB465",
"#;	c #8EB466",
"#<	c #8EB467",
"#=	c #8EB560",
"#>	c #8EB563",
"#?	c #8EB564",
"#@	c #8EB566",
"#A	c #8EB567",
"#B	c #8EB660",
"#C	c #8EB661",
"#D	c #8EB662",
"#E	c #8EB663",
"#F	c #8EB665",
"#G	c #8EB666",
"#H	c #8EB761",
"#I	c #8EB762",
"#J	c #8EB765",
"#K	c #8FB363",
"#L	c #8FB369",
"#M	c #8FB36A",
"#N	c #8FB462",
"#O	c #8FB463",
"#P	c #8FB464",
"#Q	c #8FB468",
"#R	c #8FB469",
"#S	c #8FB562",
"#T	c #8FB564",
"#U	c #8FB565",
"#V	c #8FB567",
"#W	c #8FB569",
"#X	c #8FB661",
"#Y	c #8FB662",
"#Z	c #8FB663",
"#[	c #8FB664",
"#]	c #8FB667",
"#^	c #8FB761",
"#_	c #8FB762",
"#`	c #8FB763",
"#a	c #8FB764",
"#b	c #8FB864",
"#c	c #90B463",
"#d	c #90B465",
"#e	c #90B564",
"#f	c #90B565",
"#g	c #90B566",
"#h	c #90B569",
"#i	c #90B56B",
"#j	c #90B56C",
"#k	c #90B663",
"#l	c #90B664",
"#m	c #90B665",
"#n	c #90B668",
"#o	c #90B761",
"#p	c #90B762",
"#q	c #90B763",
"#r	c #90B764",
"#s	c #90B765",
"#t	c #90B767",
"#u	c #90B862",
"#v	c #90B863",
"#w	c #90B865",
"#x	c #90B867",
"#y	c #91B46C",
"#z	c #91B664",
"#{	c #91B665",
"#|	c #91B667",
"#}	c #91B762",
"#~	c #91B763",
"$ 	c #91B764",
"$!	c #91B765",
"$#	c #91B766",
"$$	c #91B767",
"$%	c #91B76B",
"$&	c #91B863",
"$'	c #91B864",
"$(	c #91B866",
"$)	c #91B868",
"$*	c #91B964",
"$+	c #91B965",
"$,	c #91B966",
"$-	c #91BA64",
"$.	c #91BA65",
"$/	c #91BA68",
"$0	c #92B564",
"$1	c #92B664",
"$2	c #92B763",
"$3	c #92B766",
"$4	c #92B863",
"$5	c #92B864",
"$6	c #92B866",
"$7	c #92B867",
"$8	c #92B962",
"$9	c #92B964",
"$:	c #92B965",
"$;	c #92B966",
"$<	c #92B967",
"$=	c #92B968",
"$>	c #92BA62",
"$?	c #92BA64",
"$@	c #92BA65",
"$A	c #92BA66",
"$B	c #92BA67",
"$C	c #92BA68",
"$D	c #92BB63",
"$E	c #93B768",
"$F	c #93B965",
"$G	c #93BA63",
"$H	c #93BA65",
"$I	c #93BA66",
"$J	c #93BA68",
"$K	c #93BB64",
"$L	c #93BB65",
"$M	c #93BB66",
"$N	c #93BB67",
"$O	c #93BB68",
"$P	c #94B765",
"$Q	c #94B769",
"$R	c #94B86A",
"$S	c #94B965",
"$T	c #94B967",
"$U	c #94B968",
"$V	c #94B96A",
"$W	c #94BA65",
"$X	c #94BA66",
"$Y	c #94BA68",
"$Z	c #94BB65",
"$[	c #94BB66",
"$]	c #94BC64",
"$^	c #94BC65",
"$_	c #94BC66",
"$`	c #94BC67",
"$a	c #94BD67",
"$b	c #95B865",
"$c	c #95B96B",
"$d	c #95BA67",
"$e	c #95BA68",
"$f	c #95BA69",
"$g	c #95BB66",
"$h	c #95BB67",
"$i	c #95BC64",
"$j	c #95BC66",
"$k	c #95BC67",
"$l	c #95BC68",
"$m	c #95BC69",
"$n	c #95BD64",
"$o	c #96BB67",
"$p	c #96BB68",
"$q	c #96BB69",
"$r	c #96BC68",
"$s	c #96BD65",
"$t	c #96BD69",
"$u	c #96BE66",
"$v	c #96BE67",
"$w	c #96BE68",
"$x	c #97BC68",
"$y	c #9BBD6C",
" R!*!C 6 * A A!C#u$]$D#I#0!a#.$-$^$^$n$?#$!}!j w",
"!W!X a 4 b c % a$?$v$a#b!b!u$@$j$_$K$K#D!7!K!7 g",
"#X!h A b!) P ' T$7$N$/#,![#w$w$k$[$*#D!= r x!& }",
"#p!i B z u 9 / d!s!@!:!m$<$l$F#X##!j!Q x a s!5!<",
"#=!6 N!M!I ] ? 0 5 U!U#]$(#* h A b!(!,!,!'!6!<!B",
"!h!' p#1#L!J [ ) 1!V#W#@!] i , ! 8 T S!'!6!6!+!/",
"$*#5!F#M#y#3!% ]!O#R#W#<#;#/!( & $ . ; ^ x!+!;!A",
"$`$B#n#i#j!z!$!4#%#Q#h$%$c$f#? K 7 < C!,!Y!o!_!A",
"$J$C#x#W#&!: q v | q!y$V$y$q!k _ O H T!Z#r$+#X!W",
"#n#V#G#A!n l e Q 9 + c#F$Y$! z M S G 3 x#?$'#_#B",
"!y!f!T!T!e!l#-!T P j!v#J#+!- B F N B B W!.!Z#)#^",
"!I!3!)!N#:$$$)!r!R$!$O$,!= E G W b b!?!c!E!,!Y#C",
"!3!3!M# $##t!^ {#Z$k$t$A!> w!+!P!i!i#Z$6$!#~#r#E",
"!M!d!x#P#f!~ {!q$I$M$.#I!p#D#q$5$&#q$g$r$p$h$:#D",
"#7#O#2#K#O!K y#l$;#Z#)#.#v$M$[$L$&#p$[$x$p$m#a!Y",
"$b$0#O#c#8!(!1#T#s#[#Z#p$H$j$[$H#p#X$&$k$r$l#a!=",
"$P$1#4#N!7 ;!(#f#m#U#>#`$W$[$:$:$5#}$F$X$F$F$9#q",
"#z#k!{!P :   b#9# !M!.!>!p!`!t#Y$5$S$r$X#~$2$W$Z",
"#z$ #S!, ( # B t u!) k H S V m#!#~$X$h$g$5#~$4$4",
"#r#k## h - 3!.!S!)!N!) T W E f#o$W$d$o$X#l#[#T#9",
"!j!P!/ ~ J V#[$7#g#g#6!9!- = @#}$X$T$e$ !L!M!N!H",
"!=#(#'#'!=!&#e$U$R$Q$E#U!D D 2!g$ $3#{#8!2!#!  n",
"#H$8$8$>#D!Q#8$=$V$Q$E#T!, X I `#$#P!x!w!H!! Z L",
"$G$i$s$u$?#$#>#s$$#|#d!8 x!* }!*!|!}!L!G!0 o Y >"};
