/* XPM */
static char *14[] = {
"24 24 307 2",
"  	c #84AD5D",
" !	c #85AB5E",
" #	c #85AC5B",
" $	c #86AC5E",
" %	c #86AC5F",
" &	c #86AD5F",
" '	c #86AE5C",
" (	c #86AE5F",
" )	c #86AF5D",
" *	c #87AE60",
" +	c #87AF5C",
" ,	c #87AF5E",
" -	c #87AF60",
" .	c #88AD5F",
" /	c #88AD60",
" 0	c #88AE60",
" 1	c #88AE61",
" 2	c #88AF5E",
" 3	c #88AF60",
" 4	c #88AF61",
" 5	c #88B05D",
" 6	c #88B05E",
" 7	c #88B160",
" 8	c #89AE61",
" 9	c #89AF60",
" :	c #89AF61",
" ;	c #89B05F",
" <	c #89B060",
" =	c #89B061",
" >	c #89B062",
" ?	c #89B15C",
" @	c #89B15D",
" A	c #89B162",
" B	c #89B25D",
" C	c #89B260",
" D	c #89B35C",
" E	c #89B35F",
" F	c #8AAF60",
" G	c #8AAF62",
" H	c #8AB060",
" I	c #8AB063",
" J	c #8AB064",
" K	c #8AB15F",
" L	c #8AB162",
" M	c #8AB25E",
" N	c #8AB261",
" O	c #8AB35C",
" P	c #8AB35D",
" Q	c #8AB35E",
" R	c #8AB45D",
" S	c #8AB45E",
" T	c #8AB55F",
" U	c #8BB061",
" V	c #8BB062",
" W	c #8BB063",
" X	c #8BB162",
" Y	c #8BB163",
" Z	c #8BB164",
" [	c #8BB25D",
" ]	c #8BB25E",
" ^	c #8BB260",
" _	c #8BB262",
" `	c #8BB35F",
" a	c #8BB360",
" b	c #8BB361",
" c	c #8BB45D",
" d	c #8BB45E",
" e	c #8BB55E",
" f	c #8BB560",
" g	c #8CB164",
" h	c #8CB260",
" i	c #8CB261",
" j	c #8CB262",
" k	c #8CB263",
" l	c #8CB264",
" m	c #8CB35F",
" n	c #8CB360",
" o	c #8CB361",
" p	c #8CB362",
" q	c #8CB45F",
" r	c #8CB460",
" s	c #8CB461",
" t	c #8CB55E",
" u	c #8CB55F",
" v	c #8CB560",
" w	c #8CB563",
" x	c #8CB65F",
" y	c #8CB660",
" z	c #8DB162",
" {	c #8DB263",
" |	c #8DB265",
" }	c #8DB360",
" ~	c #8DB361",
"! 	c #8DB362",
"!!	c #8DB364",
"!#	c #8DB365",
"!$	c #8DB366",
"!%	c #8DB45F",
"!&	c #8DB460",
"!'	c #8DB461",
"!(	c #8DB462",
"!)	c #8DB463",
"!*	c #8DB55F",
"!+	c #8DB560",
"!,	c #8DB561",
"!-	c #8DB562",
"!.	c #8DB65F",
"!/	c #8DB660",
"!0	c #8DB661",
"!1	c #8DB75F",
"!2	c #8DB760",
"!3	c #8DB861",
"!4	c #8EB264",
"!5	c #8EB363",
"!6	c #8EB364",
"!7	c #8EB365",
"!8	c #8EB366",
"!9	c #8EB460",
"!:	c #8EB461",
"!;	c #8EB462",
"!<	c #8EB463",
"!=	c #8EB465",
"!>	c #8EB560",
"!?	c #8EB561",
"!@	c #8EB562",
"!A	c #8EB563",
"!B	c #8EB564",
"!C	c #8EB65F",
"!D	c #8EB660",
"!E	c #8EB661",
"!F	c #8EB662",
"!G	c #8EB760",
"!H	c #8EB761",
"!I	c #8EB763",
"!J	c #8EB861",
"!K	c #8EB862",
"!L	c #8FB364",
"!M	c #8FB365",
"!N	c #8FB462",
"!O	c #8FB463",
"!P	c #8FB464",
"!Q	c #8FB465",
"!R	c #8FB466",
"!S	c #8FB561",
"!T	c #8FB562",
"!U	c #8FB563",
"!V	c #8FB564",
"!W	c #8FB660",
"!X	c #8FB661",
"!Y	c #8FB662",
"!Z	c #8FB663",
"![	c #8FB665",
"!]	c #8FB760",
"!^	c #8FB761",
"!_	c #8FB762",
"!`	c #8FB764",
"!a	c #8FB860",
"!b	c #8FB862",
"!c	c #8FB961",
"!d	c #8FB962",
"!e	c #90B366",
"!f	c #90B464",
"!g	c #90B466",
"!h	c #90B563",
"!i	c #90B564",
"!j	c #90B565",
"!k	c #90B663",
"!l	c #90B664",
"!m	c #90B665",
"!n	c #90B761",
"!o	c #90B762",
"!p	c #90B763",
"!q	c #90B764",
"!r	c #90B860",
"!s	c #90B861",
"!t	c #90B862",
"!u	c #90B863",
"!v	c #90B961",
"!w	c #90B962",
"!x	c #90B963",
"!y	c #91B466",
"!z	c #91B467",
"!{	c #91B565",
"!|	c #91B566",
"!}	c #91B567",
"!~	c #91B664",
"# 	c #91B665",
"#!	c #91B666",
"##	c #91B667",
"#$	c #91B763",
"#%	c #91B764",
"#&	c #91B765",
"#'	c #91B766",
"#(	c #91B767",
"#)	c #91B768",
"#*	c #91B861",
"#+	c #91B862",
"#,	c #91B863",
"#-	c #91B864",
"#.	c #91B865",
"#/	c #91B866",
"#0	c #91B961",
"#1	c #91B962",
"#2	c #91B963",
"#3	c #91BA62",
"#4	c #91BA64",
"#5	c #92B567",
"#6	c #92B665",
"#7	c #92B666",
"#8	c #92B667",
"#9	c #92B764",
"#:	c #92B765",
"#;	c #92B766",
"#<	c #92B767",
"#=	c #92B863",
"#>	c #92B864",
"#?	c #92B865",
"#@	c #92B962",
"#A	c #92B963",
"#B	c #92B964",
"#C	c #92B965",
"#D	c #92B967",
"#E	c #92BA62",
"#F	c #92BA63",
"#G	c #92BA64",
"#H	c #92BB63",
"#I	c #92BB64",
"#J	c #93B665",
"#K	c #93B767",
"#L	c #93B768",
"#M	c #93B868",
"#N	c #93B963",
"#O	c #93B964",
"#P	c #93B965",
"#Q	c #93B966",
"#R	c #93B967",
"#S	c #93BA63",
"#T	c #93BA64",
"#U	c #93BA66",
"#V	c #93BB64",
"#W	c #93BB65",
"#X	c #93BC64",
"#Y	c #93BC65",
"#Z	c #93BC67",
"#[	c #94B667",
"#]	c #94B767",
"#^	c #94B768",
"#_	c #94B865",
"#`	c #94B867",
"#a	c #94B868",
"#b	c #94B869",
"#c	c #94B968",
"#d	c #94BB63",
"#e	c #94BB64",
"#f	c #94BB66",
"#g	c #94BC64",
"#h	c #94BC65",
"#i	c #94BD65",
"#j	c #94BD66",
"#k	c #95B768",
"#l	c #95B867",
"#m	c #95B868",
"#n	c #95B869",
"#o	c #95B969",
"#p	c #95BA68",
"#q	c #95BB64",
"#r	c #95BB69",
"#s	c #95BC64",
"#t	c #95BC65",
"#u	c #95BC66",
"#v	c #95BC67",
"#w	c #95BC68",
"#x	c #95BD65",
"#y	c #95BD66",
"#z	c #95BD67",
"#{	c #95BE66",
"#|	c #95BE67",
"#}	c #96B868",
"#~	c #96B967",
"$ 	c #96B968",
"$!	c #96B969",
"$#	c #96BA67",
"$$	c #96BA68",
"$%	c #96BA69",
"$&	c #96BB68",
"$'	c #96BB69",
"$(	c #96BD65",
"$)	c #96BD66",
"$*	c #96BD68",
"$+	c #96BE66",
"$,	c #97BA6A",
"$-	c #97BC69",
"$.	c #97BD65",
"$/	c #97BD66",
"$0	c #97BD67",
"$1	c #97BE66",
"$2	c #97BE67",
"$3	c #97BE68",
"$4	c #97BE69",
"$5	c #97BF67",
"$6	c #97BF68",
"$7	c #97BF69",
"$8	c #98BE67",
"$9	c #98C068",
"$:	c #99BF67",
"$;	c #99BF68",
"$<	c #99C068",
" ' K!U!l!( M `#2#t#s#d#E#E#E#0!r!2 f!/#S#q!t q ?",
" + 5 h ~ n a!E#W$1$($(#g#X#V#S#E!c!3 x#F$(#F!D [",
" @ B ] q!+!H#3$+$1$(#x#g#H#T#S#S#3!3 T#4$2#e!^!%",
" Q q!W!n!t#1#F$+$1$(#s#F!t!x#V#S#3!2 S!d#{#s!w!E",
" Q!*#*#S#S#1#E$.$:$/#t#B!F!_#T#h#G!/ u!K#I#I!b!+",
" R t!]#F#F#*#N$8$;$/#w#/!A!,#,#y#F!G!w#2!J!J!/ u",
" e!1!a!v#+#1#t$8$0#v#R!V p s!u#y#V#1#t#V!G!G!w#G",
" P e t t!.!s#h#u#O#.![!) p b!_#h#t#s$<$)#1#g$)#v",
" P O D D R!*!b#+!o!-!(!( o b!D#V#x$($2#h#i$9$*#D",
"!2!. u d c t!H!_!E r s!' h o!E#F$+$5#j#Y#j#Z#D#(",
"!^!^!D!. t t!]!t!o!F!q#%!;!@#,#h$6$6#|#u#U!`!=!$",
"!0!/ y!/!.!C!s#+!o!p#?#?!Y!E!t#z$7$4$3#w#?!5 g Z",
"!+ q v!^#A#@#1!_!E!E!p!k!9 m!,#.#r$'#p#o#!!M Z J",
"!E!>!+!E!t!s!E!>!* q!X#$!? n ^ _!Q#5!}#8##!8 I >",
"!E!Y!F!E!?!&!?!Y!>!>!o#9!~!T i A |!z!e!e!8 I = j",
" r!@!Y#B#,!Y#-!q!U!p#-#&#&!U i X!R#L!y!M Y 4!!#:",
"!Y!k#-#f#P!p!p!Z!T!F!Z!l#&#'!O!6!}#b#^!= 4 k#:#_",
"#T#>#,#$!p!F!,!?!: m M h!(!m# #7#[#k#n!! 0!B!l!h",
"#,!p!S } }!k#C#&!i!~!  2 # ;!O#`$!#}#a l * p!;!U",
"!<!m#&!N#6$$$%#o#`#;# !) < H!f#M$!#m!} I - N!A!l",
" G!##)#<$ $,#n#n#L!|!f!6 k l!7!g#`#l!j L ( 7 w!-",
" / V!R#<#o$!#o#L!|!{!L z U = :!6#c$&#Q!; ,   ) 6",
" % 1 l!|#]#a#a#7!j!L { U 9 & % W#<$'$-#P!? C E f",
" ! 3!5#J#~$ #K#!!P j U F . $ $ 8!4#8#p$##=!,!I!x"};
