/* XPM */
static char *15[] = {
"24 24 491 2",
"  	c #749559",
" !	c #759056",
" #	c #759559",
" $	c #75955A",
" %	c #75965A",
" &	c #769156",
" '	c #769257",
" (	c #76965B",
" )	c #76975B",
" *	c #76985C",
" +	c #76995C",
" ,	c #779459",
" -	c #77975B",
" .	c #77985B",
" /	c #77995C",
" 0	c #78935A",
" 1	c #78965A",
" 2	c #78975B",
" 3	c #78975C",
" 4	c #78985C",
" 5	c #789C5D",
" 6	c #799157",
" 7	c #79935A",
" 8	c #79945A",
" 9	c #79975A",
" :	c #79975C",
" ;	c #79985A",
" <	c #79985C",
" =	c #79995B",
" >	c #799A5C",
" ?	c #799B5D",
" @	c #799C5D",
" A	c #799D5F",
" B	c #7A9259",
" C	c #7A9559",
" D	c #7A985B",
" E	c #7A995B",
" F	c #7A995C",
" G	c #7A9B5C",
" H	c #7A9C5D",
" I	c #7A9D5F",
" J	c #7B9258",
" K	c #7B965D",
" L	c #7B975B",
" M	c #7B985B",
" N	c #7B9A5C",
" O	c #7B9C5C",
" P	c #7B9D5C",
" Q	c #7B9D5E",
" R	c #7B9E5F",
" S	c #7BA05F",
" T	c #7C9258",
" U	c #7C9357",
" V	c #7C9359",
" W	c #7C985B",
" X	c #7C985E",
" Y	c #7C9A5C",
" Z	c #7C9A5D",
" [	c #7C9D5D",
" ]	c #7C9E5F",
" ^	c #7CA05E",
" _	c #7D995B",
" `	c #7D995C",
" a	c #7D9C5E",
" b	c #7D9E5E",
" c	c #7D9F5F",
" d	c #7D9F61",
" e	c #7DA061",
" f	c #7DA062",
" g	c #7E9458",
" h	c #7E9A5E",
" i	c #7E9B5D",
" j	c #7E9D5E",
" k	c #7E9F5D",
" l	c #7EA05F",
" m	c #7EA060",
" n	c #7EA160",
" o	c #7EA25F",
" p	c #7EA260",
" q	c #7F945A",
" r	c #7F965C",
" s	c #7F9E5D",
" t	c #7FA25F",
" u	c #7FA95A",
" v	c #809F5F",
" w	c #80A060",
" x	c #80A163",
" y	c #80A35F",
" z	c #81985D",
" {	c #81A361",
" |	c #81A362",
" }	c #81A460",
" ~	c #81A463",
"! 	c #81A564",
"!!	c #81A75E",
"!#	c #81A75F",
"!$	c #81A85D",
"!%	c #81A95B",
"!&	c #829A5E",
"!'	c #829D5D",
"!(	c #82A260",
"!)	c #82A360",
"!*	c #82A562",
"!+	c #82A563",
"!,	c #82A661",
"!-	c #82A95A",
"!.	c #82AC5B",
"!/	c #83965A",
"!0	c #83985A",
"!1	c #83A660",
"!2	c #83A661",
"!3	c #83A663",
"!4	c #83A761",
"!5	c #83A861",
"!6	c #83A960",
"!7	c #83AB5B",
"!8	c #83AC5D",
"!9	c #83AD5C",
"!:	c #84975A",
"!;	c #84975B",
"!<	c #849F60",
"!=	c #84A45F",
"!>	c #84A664",
"!?	c #84A860",
"!@	c #84AB5E",
"!A	c #84AB5F",
"!B	c #84AB60",
"!C	c #84AC5A",
"!D	c #84AC5C",
"!E	c #85965B",
"!F	c #85975A",
"!G	c #85A760",
"!H	c #85A862",
"!I	c #85A963",
"!J	c #85AC5D",
"!K	c #85AC5E",
"!L	c #85AC60",
"!M	c #85AD5D",
"!N	c #85AD5F",
"!O	c #85AF5D",
"!P	c #869A5F",
"!Q	c #869B5F",
"!R	c #86A160",
"!S	c #86A761",
"!T	c #86A964",
"!U	c #86AA62",
"!V	c #86AA64",
"!W	c #86AB62",
"!X	c #86AB64",
"!Y	c #86AC61",
"!Z	c #86AC64",
"![	c #86AD60",
"!]	c #86AD63",
"!^	c #86AE5A",
"!_	c #86AE60",
"!`	c #86AF5F",
"!a	c #86AF60",
"!b	c #87955B",
"!c	c #879A5E",
"!d	c #879B5E",
"!e	c #879B5F",
"!f	c #879C5E",
"!g	c #87A761",
"!h	c #87AA61",
"!i	c #87AA62",
"!j	c #87AB62",
"!k	c #87AB64",
"!l	c #87AC63",
"!m	c #87AE5F",
"!n	c #87AE62",
"!o	c #87AE63",
"!p	c #87AE64",
"!q	c #87AF5E",
"!r	c #87AF61",
"!s	c #87AF62",
"!t	c #87AF63",
"!u	c #87B05D",
"!v	c #88955B",
"!w	c #889E5F",
"!x	c #88AB63",
"!y	c #88AC63",
"!z	c #88AC66",
"!{	c #88AD62",
"!|	c #88AD63",
"!}	c #88AE61",
"!~	c #88AE62",
"# 	c #88AE63",
"#!	c #88AE64",
"##	c #88AF5E",
"#$	c #88AF60",
"#%	c #88AF61",
"#&	c #88AF62",
"#'	c #88AF63",
"#(	c #88B062",
"#)	c #88B15D",
"#*	c #88B160",
"#+	c #88B161",
"#,	c #89965C",
"#-	c #899E5F",
"#.	c #89A462",
"#/	c #89AE62",
"#0	c #89AE65",
"#1	c #89AF5F",
"#2	c #89AF63",
"#3	c #89B061",
"#4	c #89B062",
"#5	c #89B063",
"#6	c #89B15D",
"#7	c #89B15E",
"#8	c #89B15F",
"#9	c #89B160",
"#:	c #89B25F",
"#;	c #89B263",
"#<	c #89B360",
"#=	c #8A975C",
"#>	c #8A995C",
"#?	c #8AAE63",
"#@	c #8AAF65",
"#A	c #8AAF66",
"#B	c #8AB060",
"#C	c #8AB062",
"#D	c #8AB063",
"#E	c #8AB064",
"#F	c #8AB066",
"#G	c #8AB15F",
"#H	c #8AB164",
"#I	c #8AB25F",
"#J	c #8B9257",
"#K	c #8B975C",
"#L	c #8B985D",
"#M	c #8B9A5B",
"#N	c #8BA161",
"#O	c #8BA462",
"#P	c #8BAF65",
"#Q	c #8BB061",
"#R	c #8BB062",
"#S	c #8BB065",
"#T	c #8BB066",
"#U	c #8BB067",
"#V	c #8BB162",
"#W	c #8BB163",
"#X	c #8BB164",
"#Y	c #8BB167",
"#Z	c #8BB25F",
"#[	c #8BB260",
"#]	c #8BB262",
"#^	c #8BB264",
"#_	c #8BB265",
"#`	c #8BB35D",
"#a	c #8BB360",
"#b	c #8BB363",
"#c	c #8BB364",
"#d	c #8BB461",
"#e	c #8BB466",
"#f	c #8C9C5F",
"#g	c #8CA061",
"#h	c #8CB066",
"#i	c #8CB165",
"#j	c #8CB262",
"#k	c #8CB265",
"#l	c #8CB267",
"#m	c #8CB360",
"#n	c #8CB361",
"#o	c #8CB364",
"#p	c #8CB365",
"#q	c #8CB366",
"#r	c #8CB45F",
"#s	c #8CB461",
"#t	c #8CB564",
"#u	c #8CB665",
"#v	c #8D9A5D",
"#w	c #8D9B5C",
"#x	c #8DA162",
"#y	c #8DB263",
"#z	c #8DB265",
"#{	c #8DB361",
"#|	c #8DB364",
"#}	c #8DB369",
"#~	c #8DB460",
"$ 	c #8DB464",
"$!	c #8DB55F",
"$#	c #8DB560",
"$$	c #8DB562",
"$%	c #8DB565",
"$&	c #8DB661",
"$'	c #8DB766",
"$(	c #8E9F61",
"$)	c #8EA061",
"$*	c #8EB262",
"$+	c #8EB265",
"$,	c #8EB362",
"$-	c #8EB363",
"$.	c #8EB364",
"$/	c #8EB462",
"$0	c #8EB465",
"$1	c #8EB466",
"$2	c #8EB468",
"$3	c #8EB560",
"$4	c #8EB563",
"$5	c #8EB565",
"$6	c #8EB566",
"$7	c #8EB567",
"$8	c #8EB568",
"$9	c #8EB667",
"$:	c #8EB761",
"$;	c #8EB768",
"$<	c #8FA363",
"$=	c #8FB362",
"$>	c #8FB363",
"$?	c #8FB369",
"$@	c #8FB462",
"$A	c #8FB465",
"$B	c #8FB466",
"$C	c #8FB469",
"$D	c #8FB46A",
"$E	c #8FB562",
"$F	c #8FB565",
"$G	c #8FB566",
"$H	c #8FB567",
"$I	c #8FB568",
"$J	c #8FB660",
"$K	c #8FB664",
"$L	c #8FB665",
"$M	c #8FB666",
"$N	c #8FB668",
"$O	c #8FB766",
"$P	c #8FB866",
"$Q	c #909759",
"$R	c #90B369",
"$S	c #90B463",
"$T	c #90B46A",
"$U	c #90B46B",
"$V	c #90B564",
"$W	c #90B569",
"$X	c #90B663",
"$Y	c #90B664",
"$Z	c #90B665",
"$[	c #90B666",
"$]	c #90B668",
"$^	c #90B766",
"$_	c #90B767",
"$`	c #90B768",
"$a	c #90B867",
"$b	c #90B967",
"$c	c #919C5F",
"$d	c #91B567",
"$e	c #91B664",
"$f	c #91B668",
"$g	c #91B762",
"$h	c #91B764",
"$i	c #91B867",
"$j	c #91B868",
"$k	c #91B869",
"$l	c #91B964",
"$m	c #91BA67",
"$n	c #929F61",
"$o	c #92B664",
"$p	c #92B768",
"$q	c #92B869",
"$r	c #92B962",
"$s	c #92B966",
"$t	c #92B969",
"$u	c #92BA62",
"$v	c #92BA63",
"$w	c #92BA67",
"$x	c #92BB68",
"$y	c #92BC68",
"$z	c #939E61",
"${	c #939F62",
"$|	c #93B765",
"$}	c #93BA63",
"$~	c #93BA67",
"% 	c #93BA69",
"%!	c #93BB69",
"%#	c #949A5D",
"%$	c #949C5F",
"%%	c #949D61",
"%&	c #94B865",
"%'	c #94BB6A",
"%(	c #94BC67",
"%)	c #94BD69",
"%*	c #959B60",
"%+	c #959F62",
"%,	c #95BC64",
"%-	c #95BC68",
"%.	c #95BC69",
"%/	c #95BD69",
"%0	c #95BE69",
"%1	c #969B61",
"%2	c #96BE65",
"%3	c #979B61",
"%4	c #97BF66",
"%5	c #989E63",
"%6	c #9A9C61",
"%7	c #9B9D62",
"%8	c #9B9E63",
"%9	c #9E9F65",
"%:	c #9EA164",
"%;	c #9EA165",
"%<	c #9F9F64",
"%=	c #9FA065",
"%>	c #9FA066",
"%?	c #A09A64",
"%@	c #A19F65",
"%A	c #A1A065",
"%B	c #A29A65",
"%C	c #A29B64",
"%D	c #A29C65",
"%E	c #A29F66",
"%F	c #A2A066",
"%G	c #A2A267",
"%H	c #A39B64",
"%I	c #A3A068",
"%J	c #A49C65",
"%K	c #A49D66",
"%L	c #A49F66",
"%M	c #A4A368",
"%N	c #A59A66",
"%O	c #A79C66",
"%P	c #A7A16A",
"%Q	c #A89E67",
"%R	c #A89F68",
"%S	c #A8A068",
"%T	c #A99F68",
"%U	c #A9A06C",
"%V	c #AA9E6B",
"%W	c #AA9F6C",
"%X	c #AAA26B",
"%Y	c #AD9F6A",
"%Z	c #AD9F6C",
"%[	c #AEA06C",
"%]	c #AEA06D",
"%^	c #B3A371",
"%_	c #B5A370",
"%`	c #B5A773",
"%a	c #B9A877",
"%b	c #B9A978",
"%c	c #BAA979",
"%d	c #BCA775",
"%e	c #BEAC7D",
"%f	c #C1AF7D",
"%g	c #C2AF7D",
"%h	c #C2AF7E",
"%i	c #C2B282",
"%j	c #C3AF7F",
"%k	c #C4B180",
"%l	c #C5B285",
"%m	c #C9B385",
"%n	c #C9B583",
"%o	c #CAB485",
"%p	c #CAB58A",
"%q	c #CBB685",
"%r	c #CCB88B",
"%s	c #CDB787",
"%t	c #CDB988",
"%u	c #D0B98B",
"%v	c #D0BC8F",
"%w	c #D1BC8E",
"%x	c #D1BE91",
"%y	c #D2BD90",
"%z	c #D2BE8E",
"%{	c #D2BF92",
"%|	c #D3BD8E",
"%}	c #D3BD8F",
"%~	c #D3BF92",
"& 	c #D3BF93",
"&!	c #D4BF93",
"&#	c #D4C091",
"&$	c #D4C093",
"&%	c #D4C094",
"&&	c #D4C193",
"&'	c #D5BE91",
"&(	c #D5C08F",
"&)	c #D5C092",
"&*	c #D5C094",
"&+	c #D5C193",
"&,	c #D5C194",
"&-	c #D5C295",
"&.	c #D5C395",
"&/	c #D6C193",
"&0	c #D6C195",
"&1	c #D6C197",
"&2	c #D6C496",
"&3	c #D7C499",
"&4	c #D7C598",
"&5	c #D7C599",
"&6	c #D8C398",
"&7	c #D8C49A",
"&8	c #D8C598",
"&9	c #D8C59A",
"&:	c #D8C69A",
"!^#7#a!C!-!M!8!`#*#<!`!! ^ G = F F L!e%E%[%a&&&4",
"#`#m##!7!m!r!%!a#u#t#+!# A * ( . < L!P%@%]%b&-&5",
"$J#m!J!m#(![!$!s$;$'#;!6 S +   % 4 M!Q%<%Z%c&.&3",
"$g#n!M#$#&!L!A!n#e$9#c!B o ? $ # 2 W!c%8%V%e&2&5",
"$3#G!N#V#X!o!Y#2$8$`$6!} } ] / % - `!d%5%U%l&8&:",
"#r#1!{$+$?#F!]#5$I$k$M#]!? p 5 ) 2 i!f%+%P%p&6&7",
"$l$.#P$R$T#U!p#'$7$q$j$ #4!5 c > Y!'#-${%I%i&1&9",
"%($w$]$U$D#Y#0#q$t%'% $^$L#W!H!(!R#N#g$n%>%`%r%v",
"$~$w$i$W#}#F#!$G%.%/%!$O$M$0#/!g#O$<$)$z%:%R%j%m",
"$_$N$I$C#l!t# $F%-%0$x$%$5#|!~!S#.#x$($z%;%K%h%o",
"#p#_#_#_#_#^#o$s%/%)$P#H#i#i!|!=!<!w#f%%%=%D%f%q",
"#E#D#4#C$1$_$L$m$y$b#c!|#@#@!j s h!&#L%*%A%H%g%s",
"#D#D#V$.$p$[#3#b$a$1# !l#@#@!W j X z#K%1%F%J%k%u",
"#V#j#y$A$[#j#%#^$H#@!U!y#P#S!h Z K r#,%3%E%O%n%}",
"$/$/$*$>$-#Q#C#z#S!I!2!j#?#?!G D 8 V!b%3%L%Y%t&)",
"%&$o$S$>$,#R#D#P!X!, y!1!i!x!) : 0 J!v%6%S%^%z&+",
"$|$e$=$@#B!K#5#!!5!4 t t!2!2 [ 3 0 T#=%9%X%_&(&,",
"$Y$V#{#[!D u!_# !Z!k!* m { l = 1 7 q#v%G%T%d&#&$",
"$Y$h$E#8!. u!@#X$2#T!> x | w N , B!E%$%M%Q%o&/&$",
"$Y$X#~!u!9!7#V$f$d#A ~ e d b E ' 6!F%%%A%N%}&0&%",
"#s#Z#6#)!O!q$Z$p$+!V e I @ G 9 ! 6!/$c%7%B&'&*&$",
"#I$#$!$##:#8$K$[#h!  f R H G ; & J!;#w%#%?%y&!& ",
"$:$r$u$v$&#9$$$B!z!+ e Q H [ a C U!:#M$Q%C%w%~%{",
"$}%,%2%4$l#d$4#k!T!3 n O P k v _ g!0#>#J%W%|%x%x"};
