/* XPM */
static char *16[] = {
"24 24 470 2",
"  	c #749557",
" !	c #759456",
" #	c #759656",
" $	c #759657",
" %	c #759658",
" &	c #769557",
" '	c #769657",
" (	c #769658",
" )	c #769858",
" *	c #779255",
" +	c #779458",
" ,	c #779656",
" -	c #779657",
" .	c #779658",
" /	c #779659",
" 0	c #779757",
" 1	c #779A57",
" 2	c #779B56",
" 3	c #789455",
" 4	c #789556",
" 5	c #789558",
" 6	c #789658",
" 7	c #789659",
" 8	c #78965A",
" 9	c #789758",
" :	c #789759",
" ;	c #789959",
" <	c #78995B",
" =	c #789A59",
" >	c #799355",
" ?	c #799558",
" @	c #799657",
" A	c #799759",
" B	c #799859",
" C	c #79985B",
" D	c #799958",
" E	c #799959",
" F	c #79995B",
" G	c #799A58",
" H	c #799B58",
" I	c #799B59",
" J	c #799C5A",
" K	c #799D56",
" L	c #799D57",
" M	c #7A9558",
" N	c #7A9758",
" O	c #7A9859",
" P	c #7A985A",
" Q	c #7A985B",
" R	c #7A995A",
" S	c #7A9A58",
" T	c #7A9A59",
" U	c #7A9B59",
" V	c #7A9B5A",
" W	c #7A9E58",
" X	c #7B9657",
" Y	c #7B9658",
" Z	c #7B9659",
" [	c #7B9858",
" ]	c #7B995A",
" ^	c #7B9A5A",
" _	c #7B9A5B",
" `	c #7B9C59",
" a	c #7B9D58",
" b	c #7B9D59",
" c	c #7B9F57",
" d	c #7B9F59",
" e	c #7BA158",
" f	c #7C975A",
" g	c #7C9859",
" h	c #7C9A5A",
" i	c #7C9A5B",
" j	c #7C9C5A",
" k	c #7C9E5C",
" l	c #7CA455",
" m	c #7D9559",
" n	c #7D975A",
" o	c #7D975B",
" p	c #7D9B5B",
" q	c #7D9F5D",
" r	c #7DA458",
" s	c #7E9757",
" t	c #7E995A",
" u	c #7E9A5B",
" v	c #7E9F5C",
" w	c #7E9F5D",
" x	c #7E9F5E",
" y	c #7EA05C",
" z	c #7F995A",
" {	c #7FA35B",
" |	c #7FA45A",
" }	c #7FA559",
" ~	c #7FA55A",
"! 	c #7FA659",
"!!	c #7FA758",
"!#	c #809659",
"!$	c #80975A",
"!%	c #809959",
"!&	c #809A5B",
"!'	c #80A25C",
"!(	c #80A45C",
"!)	c #81A45C",
"!*	c #81A55C",
"!+	c #82985B",
"!,	c #82A45F",
"!-	c #82AB59",
"!.	c #83965A",
"!/	c #839958",
"!0	c #839959",
"!1	c #83995B",
"!2	c #839E5D",
"!3	c #83A85D",
"!4	c #83A95B",
"!5	c #83AA5C",
"!6	c #83AD5B",
"!7	c #84985C",
"!8	c #84995A",
"!9	c #849A5D",
"!:	c #849C5D",
"!;	c #849D5E",
"!<	c #85995C",
"!=	c #859D5C",
"!>	c #859D5E",
"!?	c #85AB5B",
"!@	c #85AE5D",
"!A	c #85B05B",
"!B	c #869C5C",
"!C	c #869C5D",
"!D	c #86A961",
"!E	c #86AF5C",
"!F	c #86B05B",
"!G	c #87AE5C",
"!H	c #87AF5A",
"!I	c #889B5B",
"!J	c #889B5C",
"!K	c #889B5D",
"!L	c #889D5D",
"!M	c #88B05D",
"!N	c #88B25E",
"!O	c #899E5F",
"!P	c #89B05F",
"!Q	c #89B35D",
"!R	c #89B45E",
"!S	c #8A955A",
"!T	c #8AB15F",
"!U	c #8AB260",
"!V	c #8AB45D",
"!W	c #8B995C",
"!X	c #8BAF64",
"!Y	c #8BB062",
"!Z	c #8BB35F",
"![	c #8BB361",
"!]	c #8BB45E",
"!^	c #8BB45F",
"!_	c #8BB55E",
"!`	c #8C9A5E",
"!a	c #8C9D5E",
"!b	c #8C9E5F",
"!c	c #8CB25F",
"!d	c #8CB65F",
"!e	c #8D965A",
"!f	c #8D995D",
"!g	c #8D9B5E",
"!h	c #8D9C5F",
"!i	c #8D9D5D",
"!j	c #8DA05E",
"!k	c #8DB361",
"!l	c #8DB461",
"!m	c #8DB55F",
"!n	c #8DB562",
"!o	c #8DB65E",
"!p	c #8DB662",
"!q	c #8E985C",
"!r	c #8EA05E",
"!s	c #8EB364",
"!t	c #8EB463",
"!u	c #8EB562",
"!v	c #8EB563",
"!w	c #8EB65F",
"!x	c #8EB663",
"!y	c #8EB763",
"!z	c #8F945C",
"!{	c #8F9E5D",
"!|	c #8F9F5F",
"!}	c #8FB662",
"!~	c #8FB763",
"# 	c #8FB861",
"#!	c #8FB862",
"##	c #90985E",
"#$	c #90995E",
"#%	c #909A5D",
"#&	c #909D5E",
"#'	c #90B661",
"#(	c #90B762",
"#)	c #90B862",
"#*	c #90B863",
"#+	c #90B962",
"#,	c #90BA62",
"#-	c #91955B",
"#.	c #91985D",
"#/	c #919D60",
"#0	c #91B763",
"#1	c #91B764",
"#2	c #91B766",
"#3	c #91B864",
"#4	c #91B865",
"#5	c #91B963",
"#6	c #91B964",
"#7	c #91B965",
"#8	c #91BA63",
"#9	c #92955A",
"#:	c #92975C",
"#;	c #92975E",
"#<	c #929A5D",
"#=	c #929B5F",
"#>	c #929D61",
"#?	c #929F61",
"#@	c #92B862",
"#A	c #92B865",
"#B	c #92B965",
"#C	c #92B966",
"#D	c #92BA62",
"#E	c #92BA63",
"#F	c #92BA64",
"#G	c #92BA65",
"#H	c #92BA66",
"#I	c #93975D",
"#J	c #93975E",
"#K	c #939F5F",
"#L	c #93B965",
"#M	c #93B966",
"#N	c #93BA63",
"#O	c #93BA65",
"#P	c #93BA66",
"#Q	c #93BA67",
"#R	c #93BB65",
"#S	c #94955D",
"#T	c #94955E",
"#U	c #94975C",
"#V	c #94985F",
"#W	c #94B967",
"#X	c #94B968",
"#Y	c #94BA67",
"#Z	c #94BB64",
"#[	c #94BB65",
"#]	c #94BB66",
"#^	c #94BB67",
"#_	c #94BC65",
"#`	c #94BC67",
"#a	c #94BC68",
"#b	c #95985E",
"#c	c #95A062",
"#d	c #95A15F",
"#e	c #95BA66",
"#f	c #95BB65",
"#g	c #95BB68",
"#h	c #95BC66",
"#i	c #95BC68",
"#j	c #969F60",
"#k	c #96A060",
"#l	c #96BC68",
"#m	c #979A60",
"#n	c #97A161",
"#o	c #97BC67",
"#p	c #989660",
"#q	c #989861",
"#r	c #989E62",
"#s	c #99955E",
"#t	c #99975F",
"#u	c #99985F",
"#v	c #9A9961",
"#w	c #9AA061",
"#x	c #9B9660",
"#y	c #9B9862",
"#z	c #9B9A62",
"#{	c #9B9B60",
"#|	c #9B9D62",
"#}	c #9C9662",
"#~	c #9C9A62",
"$ 	c #9D9A61",
"$!	c #9DA366",
"$#	c #9E9963",
"$$	c #9E9C65",
"$%	c #9E9E64",
"$&	c #9EA165",
"$'	c #9EA263",
"$(	c #9EA363",
"$)	c #9F9D64",
"$*	c #9F9E65",
"$+	c #9FA367",
"$,	c #9FA468",
"$-	c #A09662",
"$.	c #A0A165",
"$/	c #A19C65",
"$0	c #A1A066",
"$1	c #A1A266",
"$2	c #A29A65",
"$3	c #A29F67",
"$4	c #A2A066",
"$5	c #A2A166",
"$6	c #A2A265",
"$7	c #A2A568",
"$8	c #A39A65",
"$9	c #A39E66",
"$:	c #A39F66",
"$;	c #A3A367",
"$<	c #A3A467",
"$=	c #A3A468",
"$>	c #A3A568",
"$?	c #A3A569",
"$@	c #A4A166",
"$A	c #A4A467",
"$B	c #A5A067",
"$C	c #A5A169",
"$D	c #A5A468",
"$E	c #A6A168",
"$F	c #A6A267",
"$G	c #A6A468",
"$H	c #A79D68",
"$I	c #A79E6A",
"$J	c #A7A467",
"$K	c #A8A46A",
"$L	c #A99B66",
"$M	c #A9A267",
"$N	c #A9A468",
"$O	c #AA9E68",
"$P	c #AA9E69",
"$Q	c #AAA16B",
"$R	c #AAA26B",
"$S	c #ABA269",
"$T	c #AC9F69",
"$U	c #AEA06B",
"$V	c #AEA36D",
"$W	c #AEA56B",
"$X	c #AFA16E",
"$Y	c #AFA36C",
"$Z	c #B0A56D",
"$[	c #B0A66C",
"$]	c #B1A16D",
"$^	c #B1A36C",
"$_	c #B2A36E",
"$`	c #B3A46D",
"$a	c #B3A46F",
"$b	c #B4A270",
"$c	c #B5A76E",
"$d	c #B6A671",
"$e	c #B7A66F",
"$f	c #B7A671",
"$g	c #B8A570",
"$h	c #B8A670",
"$i	c #B8A671",
"$j	c #B8A875",
"$k	c #B9A771",
"$l	c #BAA673",
"$m	c #BAA674",
"$n	c #BAAB78",
"$o	c #BBA774",
"$p	c #BBAA72",
"$q	c #BCA672",
"$r	c #BCA872",
"$s	c #BCA875",
"$t	c #BCA978",
"$u	c #BDA874",
"$v	c #BDAA76",
"$w	c #BFA874",
"$x	c #BFAA74",
"$y	c #BFAA75",
"$z	c #BFAA77",
"${	c #BFAD7A",
"$|	c #BFAF7B",
"$}	c #C0AC7C",
"$~	c #C1AB77",
"% 	c #C1AD7B",
"%!	c #C1AE7B",
"%#	c #C2AA77",
"%$	c #C2AD7A",
"%%	c #C2AE79",
"%&	c #C4AD78",
"%'	c #C4AF7D",
"%(	c #C5AE7C",
"%)	c #C5AF7C",
"%*	c #C5B07D",
"%+	c #C5B280",
"%,	c #C5B37E",
"%-	c #C6AF7B",
"%.	c #C6AF7C",
"%/	c #C7B280",
"%0	c #C7B283",
"%1	c #C9B381",
"%2	c #C9B482",
"%3	c #C9B483",
"%4	c #CAB17E",
"%5	c #CAB380",
"%6	c #CAB684",
"%7	c #CAB787",
"%8	c #CAB887",
"%9	c #CBB380",
"%:	c #CBB684",
"%;	c #CBB685",
"%<	c #CBB784",
"%=	c #CBB98A",
"%>	c #CBBA8B",
"%?	c #CCB582",
"%@	c #CCB685",
"%A	c #CCB784",
"%B	c #CCB786",
"%C	c #CCB887",
"%D	c #CCB889",
"%E	c #CCB988",
"%F	c #CCB989",
"%G	c #CCB98A",
"%H	c #CCBA8B",
"%I	c #CDB783",
"%J	c #CDB786",
"%K	c #CDB887",
"%L	c #CDB988",
"%M	c #CDB98A",
"%N	c #CDBA89",
"%O	c #CDBA8A",
"%P	c #CDBA8B",
"%Q	c #CDBA8C",
"%R	c #CDBB8E",
"%S	c #CDBB8F",
"%T	c #CDBC8E",
"%U	c #CEB785",
"%V	c #CEB885",
"%W	c #CEB886",
"%X	c #CEB887",
"%Y	c #CEB888",
"%Z	c #CEB889",
"%[	c #CEB989",
"%]	c #CEBB8C",
"%^	c #CEBB8D",
"%_	c #CEBC8C",
"%`	c #CEBC8D",
"%a	c #CEBC8E",
"%b	c #CEBC8F",
"%c	c #CEBD8F",
"%d	c #CEBD90",
"%e	c #CFB784",
"%f	c #CFB98A",
"%g	c #CFBA8A",
"%h	c #CFBB8B",
"%i	c #CFBB8C",
"%j	c #CFBC8C",
"%k	c #CFBC8D",
"%l	c #CFBC8E",
"%m	c #CFBD8D",
"%n	c #CFBD8E",
"%o	c #CFBD8F",
"%p	c #CFBD90",
"%q	c #CFBE91",
"%r	c #D0B885",
"%s	c #D0B886",
"%t	c #D0BC8B",
"%u	c #D0BC8C",
"%v	c #D0BC8D",
"%w	c #D0BD8F",
"%x	c #D0BE8F",
"%y	c #D0BE90",
"%z	c #D0BF92",
"%{	c #D0C094",
"%|	c #D1B886",
"%}	c #D1BC8E",
"%~	c #D1BF90",
"& 	c #D1BF92",
"&!	c #D1C092",
"&#	c #D1C093",
"&$	c #D1C094",
"&%	c #D1C095",
"%k%j%0$]$/#m#=#&!a!: u i w!,!D!X!s#2#X#Y#(![!y#F",
"%u%[% $T$ #V#$!g!J!& Q C x!D!Y!t#1#B#W#A!k!U!n#6",
"%g%J$v$O#t#;##!`!< o 8 <!(!T#'#@#O#]#e#M!v!n!u#3",
"%[%<$o$P#u#J#.!f!7 f 7 V!4!m#D#Z#[#]#o#l#C#4#B#P",
"%K%6$l$U#z#I#:!q!+ Z Q y!G!w#N#f#]#P#h#l#a#`#H!~",
"%J%3$m$_$)#U#9!e!$ M _!)!H!o#E#[#[#O#O#Q#^#i#1!c",
"%J%2$s$a$9#b#-!S!# Y ^!'!?!]#8#_#_#R#G#7#C#g#P#0",
"%Y%:$z$d$R#|#<!W!8!& p v!*!E!d# #,#+#!!p!x#C#P#L",
"%Z%B%$$f$Y$5#k!{!L!2 h V k }!F!V!_!_!Q!N!^!}#6#*",
"%f%K%'$h$Y$M$'#d!j!= [ - E L!!!V!d!_!F!6!@!Z#)#5",
"%}%i%3$y$c$W$J$(!r!% ? 6 B G c!M!R!A!-!  ~!5!P!l",
"& %~%N%-$p$[$N$A!| > 5 A B E H |!! l r e K W {!3",
"&$&!%m%2$x$Z$F$A#c * 5 O P R D G S a d L 2 1 J q",
"&%&#%w%C%%$`$E$;$! m @ g A : 9 # ' ; H b ` I = F",
"&$&#%w%M%*$e$S$@$>#>!9 z 3 4 - !   % ) U j T : /",
"%{& %x%i%/$r$^$B$6$<$,!h s X A . & ( $ 0 0 , . +",
"%z%z%x%v%;$~$g$V$4$0$=$7#?!B t [ N O i ] [ g t n",
"%p%p%o%l%[%($q$i$Q#~$%$1$?$+#/!0!/!I!b!O!C!>!;!1",
"%b%b%a%^%P%2%#$w$k$2#q$$$C$K$G$6#w#j#n#K!i!a!K!.",
"%b%b%a%a%_%D%1%.%&$u$H#p#y$:$F$D$;$.$&#r#<#%!q!z",
"%b%b%T%`%_%O%L%@%5%4%)$j$I#p#S#{$0$3$*#v#T#p$8$X",
"%b%b%a%`%_%G%F%E%L%W%?%9%9%5$n$##s#x#}$-$L$b$t$}",
"%c%c%b%a%a%]%P%]%a%n%t%W%U%e%r%I%,$|${%!%+%7%=%>",
"%c%c%b%b%a%^%Q%^%d%q%y%h%X%s%|%|%s%V%A%6%8%H%R%S"};
