/* XPM */
static char *17[] = {
"24 24 451 2",
"  	c #769258",
" !	c #779158",
" #	c #799259",
" $	c #79965A",
" %	c #7B9459",
" &	c #7B955B",
" '	c #7B975C",
" (	c #7B9B5C",
" )	c #7C935A",
" *	c #7D935B",
" +	c #7D995B",
" ,	c #7EA25D",
" -	c #7F925A",
" .	c #7F935C",
" /	c #7F945C",
" 0	c #7F9E5D",
" 1	c #808D58",
" 2	c #80925B",
" 3	c #80975D",
" 4	c #818E59",
" 5	c #818F5A",
" 6	c #81955A",
" 7	c #819F5B",
" 8	c #81A05B",
" 9	c #81A25A",
" :	c #829059",
" ;	c #82915A",
" <	c #82935A",
" =	c #82935B",
" >	c #82985D",
" ?	c #829D5C",
" @	c #82A05B",
" A	c #82A35C",
" B	c #82A35D",
" C	c #82A55A",
" D	c #82A55B",
" E	c #839158",
" F	c #83935C",
" G	c #83995D",
" H	c #839E5B",
" I	c #83A65D",
" J	c #83A65E",
" K	c #83A85C",
" L	c #83AB5F",
" M	c #83AC5F",
" N	c #84925C",
" O	c #849359",
" P	c #84935A",
" Q	c #84945A",
" R	c #84945B",
" S	c #84955B",
" T	c #849E5A",
" U	c #84A35D",
" V	c #84A45D",
" W	c #84A75D",
" X	c #84AA5C",
" Y	c #85905B",
" Z	c #859259",
" [	c #85925B",
" ]	c #859359",
" ^	c #85935A",
" _	c #85955C",
" `	c #85985C",
" a	c #85985D",
" b	c #85995D",
" c	c #859A5E",
" d	c #85A95F",
" e	c #85AA60",
" f	c #85AB5F",
" g	c #85AC5B",
" h	c #85AC5E",
" i	c #85AC61",
" j	c #86915B",
" k	c #86925A",
" l	c #86965C",
" m	c #86975D",
" n	c #86985D",
" o	c #86995D",
" p	c #86A05C",
" q	c #86A35E",
" r	c #86A75F",
" s	c #86AA60",
" t	c #86AB5E",
" u	c #86AC61",
" v	c #86AF60",
" w	c #879259",
" x	c #87935C",
" y	c #87955D",
" z	c #879B5E",
" {	c #87A55E",
" |	c #87A560",
" }	c #87A65E",
" ~	c #87AC60",
"! 	c #87AD5E",
"!!	c #87AE5C",
"!#	c #87AE5E",
"!$	c #87AF5B",
"!%	c #87B15E",
"!&	c #88915B",
"!'	c #88965C",
"!(	c #88965E",
"!)	c #889C5E",
"!*	c #88A15E",
"!+	c #88A25E",
"!,	c #88A55E",
"!-	c #88AB5E",
"!.	c #88AD5E",
"!/	c #88AD5F",
"!0	c #88AF5F",
"!1	c #88B05B",
"!2	c #88B05E",
"!3	c #88B063",
"!4	c #88B15E",
"!5	c #89925C",
"!6	c #89945D",
"!7	c #899B5F",
"!8	c #89A05E",
"!9	c #89A060",
"!:	c #89A261",
"!;	c #89A65E",
"!<	c #89A760",
"!=	c #89AB5F",
"!>	c #89AE5E",
"!?	c #89AE5F",
"!@	c #89B060",
"!A	c #89B061",
"!B	c #89B15E",
"!C	c #89B15F",
"!D	c #89B160",
"!E	c #89B162",
"!F	c #89B25C",
"!G	c #8A8A57",
"!H	c #8A935B",
"!I	c #8A945C",
"!J	c #8A9D5E",
"!K	c #8A9F5E",
"!L	c #8AA45F",
"!M	c #8AA55F",
"!N	c #8AA560",
"!O	c #8AA860",
"!P	c #8AAC61",
"!Q	c #8AAD5E",
"!R	c #8AB060",
"!S	c #8AB160",
"!T	c #8AB161",
"!U	c #8AB163",
"!V	c #8AB261",
"!W	c #8B945C",
"!X	c #8B9F60",
"!Y	c #8BA161",
"!Z	c #8BA260",
"![	c #8BA361",
"!]	c #8BAC61",
"!^	c #8BAD63",
"!_	c #8BAE5F",
"!`	c #8BAF60",
"!a	c #8BB060",
"!b	c #8BB160",
"!c	c #8BB161",
"!d	c #8BB25E",
"!e	c #8BB261",
"!f	c #8BB263",
"!g	c #8BB35D",
"!h	c #8BB35E",
"!i	c #8BB363",
"!j	c #8BB45D",
"!k	c #8BB45F",
"!l	c #8C8C59",
"!m	c #8C925B",
"!n	c #8C955D",
"!o	c #8C9A5E",
"!p	c #8CA260",
"!q	c #8CAA64",
"!r	c #8CAB64",
"!s	c #8CAE63",
"!t	c #8CAF63",
"!u	c #8CB05F",
"!v	c #8CB060",
"!w	c #8CB165",
"!x	c #8CB25F",
"!y	c #8CB261",
"!z	c #8CB262",
"!{	c #8CB360",
"!|	c #8CB361",
"!}	c #8CB362",
"!~	c #8CB363",
"# 	c #8CB45E",
"#!	c #8CB45F",
"##	c #8CB560",
"#$	c #8D8C5B",
"#%	c #8D945B",
"#&	c #8D945C",
"#'	c #8D9C5E",
"#(	c #8D9F5F",
"#)	c #8D9F60",
"#*	c #8DA963",
"#+	c #8DAC65",
"#,	c #8DAF66",
"#-	c #8DB165",
"#.	c #8DB262",
"#/	c #8DB35E",
"#0	c #8DB360",
"#1	c #8DB362",
"#2	c #8DB363",
"#3	c #8DB364",
"#4	c #8DB45F",
"#5	c #8DB461",
"#6	c #8DB462",
"#7	c #8DB465",
"#8	c #8DB560",
"#9	c #8DB564",
"#:	c #8DB65E",
"#;	c #8E935B",
"#<	c #8EAD64",
"#=	c #8EAE65",
"#>	c #8EAF65",
"#?	c #8EB461",
"#@	c #8EB462",
"#A	c #8EB463",
"#B	c #8EB464",
"#C	c #8EB465",
"#D	c #8EB466",
"#E	c #8EB467",
"#F	c #8EB55E",
"#G	c #8EB563",
"#H	c #8EB564",
"#I	c #8EB565",
"#J	c #8EB663",
"#K	c #8EB664",
"#L	c #8F935D",
"#M	c #8F945C",
"#N	c #8F955C",
"#O	c #8FAB66",
"#P	c #8FB064",
"#Q	c #8FB164",
"#R	c #8FB365",
"#S	c #8FB462",
"#T	c #8FB464",
"#U	c #8FB561",
"#V	c #8FB562",
"#W	c #8FB563",
"#X	c #8FB564",
"#Y	c #8FB567",
"#Z	c #8FB663",
"#[	c #8FB664",
"#]	c #8FB665",
"#^	c #8FB75F",
"#_	c #8FB760",
"#`	c #8FB763",
"#a	c #8FB764",
"#b	c #8FB765",
"#c	c #90925C",
"#d	c #90935C",
"#e	c #90AE66",
"#f	c #90B165",
"#g	c #90B265",
"#h	c #90B365",
"#i	c #90B564",
"#j	c #90B566",
"#k	c #90B662",
"#l	c #90B663",
"#m	c #90B664",
"#n	c #90B665",
"#o	c #90B666",
"#p	c #90B667",
"#q	c #90B764",
"#r	c #90B765",
"#s	c #90B766",
"#t	c #90B860",
"#u	c #90B865",
"#v	c #90B866",
"#w	c #90B965",
"#x	c #91925B",
"#y	c #91945E",
"#z	c #91955C",
"#{	c #91B066",
"#|	c #91B268",
"#}	c #91B367",
"#~	c #91B467",
"$ 	c #91B567",
"$!	c #91B664",
"$#	c #91B764",
"$$	c #91B765",
"$%	c #91B766",
"$&	c #91B767",
"$'	c #91B768",
"$(	c #91B863",
"$)	c #91B864",
"$*	c #91B865",
"$+	c #91B866",
"$,	c #91B95F",
"$-	c #91B964",
"$.	c #91B966",
"$/	c #91BA61",
"$0	c #92945C",
"$1	c #92B467",
"$2	c #92B566",
"$3	c #92B667",
"$4	c #92B765",
"$5	c #92B766",
"$6	c #92B864",
"$7	c #92B865",
"$8	c #92B867",
"$9	c #92B868",
"$:	c #92B965",
"$;	c #92B966",
"$<	c #92B967",
"$=	c #92BA63",
"$>	c #92BA65",
"$?	c #93B667",
"$@	c #93B769",
"$A	c #93B866",
"$B	c #93B868",
"$C	c #93B869",
"$D	c #93B965",
"$E	c #93B966",
"$F	c #93B967",
"$G	c #93B969",
"$H	c #93BA61",
"$I	c #93BA63",
"$J	c #93BA64",
"$K	c #93BA66",
"$L	c #93BB62",
"$M	c #94935D",
"$N	c #94BA65",
"$O	c #94BA66",
"$P	c #94BA68",
"$Q	c #94BA69",
"$R	c #94BB62",
"$S	c #94BB64",
"$T	c #94BB65",
"$U	c #94BB67",
"$V	c #94BC66",
"$W	c #95945D",
"$X	c #95BA67",
"$Y	c #95BA68",
"$Z	c #95BA69",
"$[	c #95BB66",
"$]	c #95BB67",
"$^	c #95BB68",
"$_	c #95BB69",
"$`	c #95BC66",
"$a	c #95BC67",
"$b	c #96935F",
"$c	c #96955F",
"$d	c #96BB6A",
"$e	c #97BC67",
"$f	c #97BE66",
"$g	c #97BE67",
"$h	c #989562",
"$i	c #98965E",
"$j	c #98BD67",
"$k	c #98BD69",
"$l	c #999663",
"$m	c #99BE67",
"$n	c #99BE68",
"$o	c #99BE69",
"$p	c #99BF69",
"$q	c #99C067",
"$r	c #99C068",
"$s	c #9A9764",
"$t	c #9AC069",
"$u	c #9CBF6B",
"$v	c #9CC06A",
"$w	c #9CC26D",
"$x	c #9D9760",
"$y	c #9F9863",
"$z	c #A09661",
"${	c #A19762",
"$|	c #A29964",
"$}	c #A39864",
"$~	c #A39967",
"% 	c #A49A66",
"%!	c #A59966",
"%#	c #A59A6A",
"%$	c #A69966",
"%%	c #A69A69",
"%&	c #A69B67",
"%'	c #A79A67",
"%(	c #A89A69",
"%)	c #A89B6B",
"%*	c #AA9C69",
"%+	c #AA9E6A",
"%,	c #AB9E6B",
"%-	c #AC9F6C",
"%.	c #ADA06D",
"%/	c #ADA06E",
"%0	c #B0A06D",
"%1	c #B3A370",
"%2	c #B4A371",
"%3	c #B5A572",
"%4	c #B6A674",
"%5	c #B8A774",
"%6	c #B9A977",
"%7	c #BAA877",
"%8	c #BBAB79",
"%9	c #BCAB7A",
"%:	c #BDAC7B",
"%;	c #BDAD7C",
"%<	c #BEAC7C",
"%=	c #BFAD7D",
"%>	c #BFAE7D",
"%?	c #C0AE7F",
"%@	c #C0B07F",
"%A	c #C1AE7F",
"%B	c #C3AF80",
"%C	c #C3B081",
"%D	c #C3B182",
"%E	c #C3B282",
"%F	c #C3B383",
"%G	c #C4B283",
"%H	c #C4B382",
"%I	c #C4B383",
"%J	c #C4B484",
"%K	c #C5B283",
"%L	c #C5B382",
"%M	c #C5B383",
"%N	c #C5B484",
"%O	c #C6B484",
"%P	c #C6B585",
"%Q	c #C9B886",
"%R	c #CCBA8C",
"%S	c #CDBB8C",
"%T	c #CDBB8D",
"%U	c #CDBC8D",
"%V	c #CDBC8E",
"%W	c #CDBD8E",
"%X	c #CEBB8C",
"%Y	c #CEBB8D",
"%Z	c #CEBB8F",
"%[	c #CEBC8D",
"%]	c #CEBC8E",
"%^	c #CEBC8F",
"%_	c #CEBD8E",
"%`	c #CEBD8F",
"%a	c #CEBD90",
"%b	c #CEBD91",
"%c	c #CEBE8F",
"%d	c #CEBE90",
"%e	c #CEBE91",
"%f	c #CFBC8F",
"%g	c #CFBC90",
"%h	c #CFBD8D",
"%i	c #CFBD8E",
"%j	c #CFBD90",
"%k	c #CFBD91",
"%l	c #D0BD8D",
"%m	c #D0BD8E",
"%n	c #D1BD8E",
"%o	c #D1BD8F",
"%p	c #D1BE8D",
"$S$f$q$r$V#r$+#s#H#B#3!E!D!B!d#k#@!S!z!b! !?!/ t",
"$T$g$f$`$;$<$_$8#B#n#C!U!T#5$($D#S!e!y!S!R!c!`!.",
"$>$J$(#Z#[$8$Q$9#j#o#D!f#.$*$a$6#S!c!b!c!z#1#.!a",
"$:$)#a#J#G#n$&$C$'#p#Y#D$$$^$U$7#@!b!y!z#.#1#T#X",
"#q$*#u#b#K#1#2#H#9!i!~#X$F$E$*$7#W!b!e#6#A#@#W#X",
"#l$:#v#s#I!V!0!2!4!%!C!{#Z#@#l$7#m!|!}#X$$$##l#@",
"$O$;#9#7!f!0!2!4!4!k##!x!{#@$#$7$%#]#s$G$P$E$6#`",
"$7!} v!f#j$4$K$D$6$J$N$6$#$##m$!$7$;$*$.#w$-$J$=",
"#5!# M!3$Z$u$w$v$m$j$j$e$]$##@#?#U#8!h!h#!#_$I$R",
"#Z!@ L i#E$d$k$o$n$t$p$[#l#?#V#k#0!!!$!F!g#t$L$H",
"#G!A f u!w$@$Y$X$O$]$Y$A#i!y!v!b!. X g!1!j#t$/$,",
" h f e ~!t$ $B$5#T#R#h$2$?#h!- C D I K!!# #:#^#F",
" , J d s!s#~$3#j#-#,#>#f$1#}!P 9 8 A W!>#4!g#/!u",
" ( 0 B r!^#g#Q#P#+!r!q#<#{#|#= U 7 @ V!=!_!Q!_!]",
" $ ' + ? |!O!;!M!:!9!9![#*#e#O q H T p!, { }!O!<",
"   ! # & 3 > G c b a n m z!X!Y!) ` o!)!8!*!+!L!N",
" % ) * / . - 2 = < < Q Q R _ l _ = F m!7!J!K!Z!p",
" 6 S y!( N 1 1 4 : E ^ ] Z k [ P ; 5 ;!'!o#'#)#(",
" O w!m#x$b$l$s$h$M#d#;#%#%#&!W!I x Y j!6!n!H!5!&",
"$c$y%&%,%/%.%-%*%$%!$|$x$i$W$0#z#N#M#L#y#c!l!G#$",
"%4%7%9%:%;%8%6%5%3%2%1%0%+% ${$z$}%'%(%)%%$~%#%/",
"%A%B%C%D%K%L%M%H%H%I%P%N%?%<%=%>%@%D%F%J%G%E%O%Q",
"%R%S%T%V%]%X%Y%[%U%V%c%c%W%T%U%U%V%U%[%_%h%h%l%p",
"%Z%^%`%j%k%f%g%j%j%a%d%e%e%e%b%b%b%^%^%i%i%m%o%n"};
