/* XPM */
static char *18[] = {
"24 24 463 2",
"  	c #7D9659",
" !	c #7E9559",
" #	c #7E995A",
" $	c #7E9D5B",
" %	c #7E9F5A",
" &	c #7EA856",
" '	c #7F9F5A",
" (	c #7FA958",
" )	c #809659",
" *	c #809D5A",
" +	c #809D5B",
" ,	c #809E5A",
" -	c #809F5D",
" .	c #80A957",
" /	c #81975D",
" 0	c #819E5C",
" 1	c #81A05A",
" 2	c #81A958",
" 3	c #82905A",
" 4	c #82915A",
" 5	c #82925A",
" 6	c #82975A",
" 7	c #82A55C",
" 8	c #82A65B",
" 9	c #82A959",
" :	c #82AA5A",
" ;	c #82AB5A",
" <	c #838D57",
" =	c #838E58",
" >	c #838F59",
" ?	c #839259",
" @	c #83925B",
" A	c #83945B",
" B	c #83955B",
" C	c #83985B",
" D	c #83985D",
" E	c #839C5E",
" F	c #83A05D",
" G	c #83A35A",
" H	c #83A35F",
" I	c #83A85A",
" J	c #83A85F",
" K	c #83A95C",
" L	c #83AA5F",
" M	c #83AB5C",
" N	c #84915B",
" O	c #84925C",
" P	c #84935C",
" Q	c #84955B",
" R	c #849F5D",
" S	c #84A15D",
" T	c #84A25D",
" U	c #84A25E",
" V	c #84A55B",
" W	c #84A65E",
" X	c #84A65F",
" Y	c #84A75D",
" Z	c #84A75E",
" [	c #84A85C",
" ]	c #84A95B",
" ^	c #84A95C",
" _	c #84AB5B",
" `	c #84AB5C",
" a	c #84AC5A",
" b	c #858D59",
" c	c #858F5B",
" d	c #859B5A",
" e	c #859C5C",
" f	c #859D5D",
" g	c #85A15F",
" h	c #85A25D",
" i	c #85A55E",
" j	c #85A65F",
" k	c #85A95B",
" l	c #85A95C",
" m	c #85AC5B",
" n	c #85AD5B",
" o	c #85AE5B",
" p	c #868D5A",
" q	c #868F5A",
" r	c #86925A",
" s	c #86995B",
" t	c #86A05E",
" u	c #86A15D",
" v	c #86A25F",
" w	c #86A35D",
" x	c #86A35E",
" y	c #86A75F",
" z	c #86A85E",
" {	c #86A95E",
" |	c #86AA5D",
" }	c #86AA5E",
" ~	c #86AC5D",
"! 	c #86AC5E",
"!!	c #86AC5F",
"!#	c #86AD5B",
"!$	c #86AD5C",
"!%	c #86AD61",
"!&	c #86AF5C",
"!'	c #87915C",
"!(	c #87945C",
"!)	c #879E5C",
"!*	c #87A45D",
"!+	c #87A65D",
"!,	c #87A760",
"!-	c #87A95F",
"!.	c #87AA5F",
"!/	c #87AB5D",
"!0	c #87B05D",
"!1	c #88905B",
"!2	c #88925C",
"!3	c #88975A",
"!4	c #88985B",
"!5	c #88A55F",
"!6	c #88A65F",
"!7	c #88A860",
"!8	c #88AA60",
"!9	c #88AC61",
"!:	c #88AD5D",
"!;	c #88AD61",
"!<	c #88AD62",
"!=	c #88AE5E",
"!>	c #88AE5F",
"!?	c #88AE60",
"!@	c #88AF61",
"!A	c #88B25E",
"!B	c #89925A",
"!C	c #89945B",
"!D	c #89955B",
"!E	c #89965C",
"!F	c #89975D",
"!G	c #89985C",
"!H	c #89A15E",
"!I	c #89A560",
"!J	c #89A961",
"!K	c #89AB5F",
"!L	c #89AC60",
"!M	c #89AE5F",
"!N	c #89AE60",
"!O	c #89AF5D",
"!P	c #89AF5E",
"!Q	c #89AF60",
"!R	c #89AF62",
"!S	c #89B15E",
"!T	c #8A915D",
"!U	c #8A945C",
"!V	c #8A945D",
"!W	c #8A975B",
"!X	c #8A985C",
"!Y	c #8A9D5D",
"!Z	c #8AA35F",
"![	c #8AAD60",
"!]	c #8AB060",
"!^	c #8AB162",
"!_	c #8AB25E",
"!`	c #8AB361",
"!a	c #8B945D",
"!b	c #8B985D",
"!c	c #8BA15E",
"!d	c #8BA261",
"!e	c #8BA461",
"!f	c #8BB063",
"!g	c #8BB15F",
"!h	c #8BB160",
"!i	c #8BB161",
"!j	c #8BB25F",
"!k	c #8BB260",
"!l	c #8BB261",
"!m	c #8BB35E",
"!n	c #8BB35F",
"!o	c #8BB360",
"!p	c #8BB361",
"!q	c #8BB55F",
"!r	c #8C8F5B",
"!s	c #8C925E",
"!t	c #8C945B",
"!u	c #8C955E",
"!v	c #8CA360",
"!w	c #8CA461",
"!x	c #8CA462",
"!y	c #8CA561",
"!z	c #8CB05F",
"!{	c #8CB062",
"!|	c #8CB261",
"!}	c #8CB262",
"!~	c #8CB360",
"# 	c #8CB361",
"#!	c #8CB364",
"##	c #8CB45F",
"#$	c #8CB460",
"#%	c #8CB461",
"#&	c #8CB55F",
"#'	c #8CB65F",
"#(	c #8D945D",
"#)	c #8D955D",
"#*	c #8D9B5D",
"#+	c #8D9F5F",
"#,	c #8DB261",
"#-	c #8DB263",
"#.	c #8DB360",
"#/	c #8DB362",
"#0	c #8DB363",
"#1	c #8DB364",
"#2	c #8DB461",
"#3	c #8DB462",
"#4	c #8DB55E",
"#5	c #8DB560",
"#6	c #8DB561",
"#7	c #8DB562",
"#8	c #8DB761",
"#9	c #8DB860",
"#:	c #8E8F5C",
"#;	c #8E915D",
"#<	c #8E9E5F",
"#=	c #8EA05F",
"#>	c #8EA862",
"#?	c #8EA863",
"#@	c #8EB362",
"#A	c #8EB463",
"#B	c #8EB465",
"#C	c #8EB561",
"#D	c #8EB562",
"#E	c #8EB660",
"#F	c #8EB662",
"#G	c #8EB663",
"#H	c #8EB760",
"#I	c #8EB764",
"#J	c #8EB860",
"#K	c #8EB861",
"#L	c #8F935D",
"#M	c #8F9A60",
"#N	c #8FA260",
"#O	c #8FA261",
"#P	c #8FA462",
"#Q	c #8FB462",
"#R	c #8FB464",
"#S	c #8FB561",
"#T	c #8FB562",
"#U	c #8FB563",
"#V	c #8FB662",
"#W	c #8FB663",
"#X	c #8FB760",
"#Y	c #8FB761",
"#Z	c #8FB762",
"#[	c #8FB763",
"#]	c #8FB85F",
"#^	c #8FB860",
"#_	c #8FB862",
"#`	c #8FB960",
"#a	c #8FB964",
"#b	c #90925D",
"#c	c #90925E",
"#d	c #90945F",
"#e	c #90A361",
"#f	c #90B563",
"#g	c #90B662",
"#h	c #90B762",
"#i	c #90B763",
"#j	c #90B863",
"#k	c #90B864",
"#l	c #90B865",
"#m	c #90B962",
"#n	c #90B963",
"#o	c #90BA64",
"#p	c #919762",
"#q	c #91A362",
"#r	c #91B665",
"#s	c #91B666",
"#t	c #91B763",
"#u	c #91B764",
"#v	c #91B863",
"#w	c #91B864",
"#x	c #91B865",
"#y	c #91B95F",
"#z	c #91B962",
"#{	c #91B963",
"#|	c #91B964",
"#}	c #91B965",
"#~	c #91BA62",
"$ 	c #91BA65",
"$!	c #91BB61",
"$#	c #91BB62",
"$$	c #91BB63",
"$%	c #92965F",
"$&	c #929761",
"$'	c #929E60",
"$(	c #929F60",
"$)	c #92B665",
"$*	c #92B666",
"$+	c #92B763",
"$,	c #92B764",
"$-	c #92B765",
"$.	c #92B864",
"$/	c #92B865",
"$0	c #92B866",
"$1	c #92B867",
"$2	c #92B960",
"$3	c #92B963",
"$4	c #92B965",
"$5	c #92B966",
"$6	c #92BA64",
"$7	c #92BA65",
"$8	c #92BA66",
"$9	c #92BB63",
"$:	c #92BB64",
"$;	c #92BC65",
"$<	c #93955F",
"$=	c #939960",
"$>	c #93B866",
"$?	c #93B964",
"$@	c #93B965",
"$A	c #93B966",
"$B	c #93BA64",
"$C	c #93BA65",
"$D	c #93BA66",
"$E	c #93BB64",
"$F	c #93BB66",
"$G	c #93BB67",
"$H	c #949561",
"$I	c #949762",
"$J	c #949861",
"$K	c #94A863",
"$L	c #94A965",
"$M	c #94B868",
"$N	c #94B965",
"$O	c #94B966",
"$P	c #94B967",
"$Q	c #94BA66",
"$R	c #94BA67",
"$S	c #94BB64",
"$T	c #94BB65",
"$U	c #94BB67",
"$V	c #94BC65",
"$W	c #94BC68",
"$X	c #94BD63",
"$Y	c #94BD64",
"$Z	c #94BD65",
"$[	c #959660",
"$]	c #95B866",
"$^	c #95B867",
"$_	c #95B967",
"$`	c #95B968",
"$a	c #95BA67",
"$b	c #95BA68",
"$c	c #95BB65",
"$d	c #95BB66",
"$e	c #95BC66",
"$f	c #95BC67",
"$g	c #95BC68",
"$h	c #95BD64",
"$i	c #95BD65",
"$j	c #95BD66",
"$k	c #95BD68",
"$l	c #95BE65",
"$m	c #969761",
"$n	c #969962",
"$o	c #96B967",
"$p	c #96BA65",
"$q	c #96BB67",
"$r	c #96BC67",
"$s	c #96BC68",
"$t	c #96BD67",
"$u	c #96BD68",
"$v	c #96BE66",
"$w	c #96BE67",
"$x	c #97BC69",
"$y	c #97BE66",
"$z	c #97BF66",
"${	c #989363",
"$|	c #989661",
"$}	c #989863",
"$~	c #989963",
"% 	c #98BB68",
"%!	c #98BD68",
"%#	c #999661",
"%$	c #99BB69",
"%%	c #99BC6A",
"%&	c #9A945F",
"%'	c #9A9762",
"%(	c #9ABD6A",
"%)	c #9B9966",
"%*	c #9BBC6A",
"%+	c #9BBD6B",
"%,	c #9C9560",
"%-	c #9C9763",
"%.	c #9C9865",
"%/	c #9CBE6C",
"%0	c #9D9863",
"%1	c #9D9965",
"%2	c #9D9966",
"%3	c #9DBE6C",
"%4	c #9F9864",
"%5	c #9F9A68",
"%6	c #A09965",
"%7	c #A29966",
"%8	c #A29B67",
"%9	c #A69C68",
"%:	c #A79967",
"%;	c #A79B68",
"%<	c #A89B66",
"%=	c #A99864",
"%>	c #A99964",
"%?	c #A99B68",
"%@	c #A99D6B",
"%A	c #AA9D6B",
"%B	c #AC9B68",
"%C	c #AC9E6B",
"%D	c #ACA06E",
"%E	c #AE9F6B",
"%F	c #AF9E6A",
"%G	c #B09E69",
"%H	c #B1A06D",
"%I	c #B5A673",
"%J	c #B6A675",
"%K	c #B7A572",
"%L	c #B8A571",
"%M	c #B9A978",
"%N	c #BBA979",
"%O	c #BCA876",
"%P	c #BEAD78",
"%Q	c #C0AE79",
"%R	c #C0AE7A",
"%S	c #C1AB7B",
"%T	c #C2AF7A",
"%U	c #C3AF7B",
"%V	c #C6B380",
"%W	c #C7B27F",
"%X	c #C8B384",
"%Y	c #C8B581",
"%Z	c #C9B583",
"%[	c #CAB785",
"%]	c #CAB887",
"%^	c #CBB583",
"%_	c #CBB683",
"%`	c #CBB684",
"%a	c #CBB784",
"%b	c #CBB885",
"%c	c #CCB784",
"%d	c #CCB885",
"%e	c #CDB885",
"%f	c #CEB782",
"%g	c #CEB883",
"%h	c #CFB883",
"%i	c #CFB985",
"%j	c #CFBA88",
"%k	c #D0B984",
"%l	c #D0BA85",
"%m	c #D1BB88",
"%n	c #D1BC8A",
"%o	c #D1BD8B",
"%p	c #D2BB8B",
"%q	c #D2BC89",
"%r	c #D2BC8A",
"%s	c #D2BD8B",
"%t	c #D2BD8C",
"%u	c #D2BD8D",
"%v	c #D2BE8E",
"%w	c #D3BD8B",
"%x	c #D3BE8C",
"%y	c #D3BE8D",
"%z	c #D3BF8D",
"%{	c #D4BF8F",
"%|	c #D4BF90",
"! !i$)$o%*%($M#R!}!|!]!=!M!>!!!R#-#r$`$_#g!o#I$6",
"!>!}$]%$%3%/$^#@!h!h!i!Q!i!f!R#-#r$0$_$0#2!`#7#|",
"!i#/$-% %+%%$P#f!|!|!l!}#-#1#0$*$a$Q$a$A#G#7#D#w",
"#/#A#x$R$O$O$x$R#U#/# #/#/#B#s$b$a$D$q$f$5#w$4$D",
"#A#3#W#x#W#T#t$A$>$,#u$/$A$1$5$g$U$C$f$u$W$g$D#[",
"#7#7!~#7#7#$#2$+$N$@$4$D$s$d$T$e$e$C$7$8$G$k#w!n",
"#V#F#%!o!~#F$Q%!$p$@#i#v$T$j$i$i$i$E$7#[#k$r$c$.",
"#z#_#Z#S#6#7#7#}$B$?#{$3$S$Y$Y$l$y$j$;#a$6$t$d$7",
"$2#X#Y#v#h!0 ( ;!q#z$:$E$Z$9$!$h$z$l#o$ $j$w$T#j",
"#y!m!S#G#6 a & . o#&#m#~$$#`#]$X$l#z!p#a$j$v$V#|",
"#4!# m!h#.!O 9 2 n!A#H#^#`#9#J$#$9#E!@#7$V$l$i$F",
"!P ] I!:#Q#. _ : n!0#'#J#J#8#K#_#n#G!%!^$B$h$Z$7",
"!L Y 8!/#,!g ` M!$!&!_####!k!j#5#W#! L!?$7$Y$9#F",
"!J y z!.!N ~ K ^ k l | } [ 7 W!9!f!< J!;#l#{#C![",
"!6!,!7!- { V G 1 * + , ' % $ - H j Z X!8!{!z!K i",
"!I!5 w u e 6 ) !   # 0 S T F R g v h U x!+!* t E",
"!v!c s Q @ 5 A B C f!e#?#>!y!d!x!w!Z!H!) d C D /",
"#<!b r > 3 N!(!E!G!Y#P$L$K#q#=#O#e#N#+!4 ? 4 O P",
"!1 b < = c!'!2!C!D!F!F!G!X!W!3#*$($'#M!U q p!T!s",
"${%5%)$H#c#;#b#L#(#)!a!V!u!a!B!t$=$n$I#d!r#:%#%4",
"%J%N%M%I%D%;%9%8%1$~$J$&#p$&$%$<$}%.%2%-%&%,%<%F",
"%]%X%S%O%K%H%E%C%A%@%6$|$[$m%'%0%7%:%?%B%>%=%G%L",
"%v%v%t%n%j%e%c%a%b%[%V%R%P%Q%T%U%W%^%`%_%Y%Z%d%j",
"%v%|%{%y%u%t%w%z%z%x%q%l%k%h%f%g%i%m%r%s%n%o%s%p"};
