/* XPM */
static char *19[] = {
"24 24 478 2",
"  	c #708751",
" !	c #718752",
" #	c #718854",
" $	c #728752",
" %	c #728A54",
" &	c #738752",
" '	c #738852",
" (	c #738954",
" )	c #738955",
" *	c #738A53",
" +	c #748853",
" ,	c #748B56",
" -	c #758954",
" .	c #758C57",
" /	c #768954",
" 0	c #768955",
" 1	c #768B57",
" 2	c #768C54",
" 3	c #768D57",
" 4	c #778955",
" 5	c #778A55",
" 6	c #778D58",
" 7	c #778E59",
" 8	c #778F57",
" 9	c #778F59",
" :	c #798A55",
" ;	c #798B54",
" <	c #798D57",
" =	c #799056",
" >	c #799157",
" ?	c #7A8B56",
" @	c #7A8E58",
" A	c #7A925A",
" B	c #7A9C5B",
" C	c #7B8B56",
" D	c #7B8C56",
" E	c #7B8D57",
" F	c #7B9D5B",
" G	c #7C9059",
" H	c #7C9559",
" I	c #7C9D5B",
" J	c #7C9D5C",
" K	c #7D8C59",
" L	c #7D9159",
" M	c #7D925A",
" N	c #7D965B",
" O	c #7D9959",
" P	c #7D9D5A",
" Q	c #7D9E5D",
" R	c #7D9F5D",
" S	c #7DA05F",
" T	c #7E8E58",
" U	c #7E8F58",
" V	c #7E9259",
" W	c #7E9358",
" X	c #7E9359",
" Y	c #7E935A",
" Z	c #7E9457",
" [	c #7E965B",
" ]	c #7E9759",
" ^	c #7E975B",
" _	c #7E9959",
" `	c #7E9A5B",
" a	c #7E9B5C",
" b	c #7E9C5A",
" c	c #7E9D5B",
" d	c #7E9F5D",
" e	c #7EA05F",
" f	c #7F8E58",
" g	c #7F8F59",
" h	c #7F9557",
" i	c #7F995B",
" j	c #7F9B5C",
" k	c #7F9D5C",
" l	c #7F9E5D",
" m	c #7F9F5C",
" n	c #7FA160",
" o	c #808F59",
" p	c #80955C",
" q	c #809659",
" r	c #80995D",
" s	c #809B5B",
" t	c #809D5A",
" u	c #809F5A",
" v	c #809F5D",
" w	c #809F5E",
" x	c #80A05E",
" y	c #80A260",
" z	c #818B57",
" {	c #818F58",
" |	c #819057",
" }	c #819058",
" ~	c #81915B",
"! 	c #81915D",
"!!	c #819759",
"!#	c #819A5A",
"!$	c #819D5B",
"!%	c #819D5C",
"!&	c #819E5C",
"!'	c #81A05B",
"!(	c #81A05D",
"!)	c #81A15C",
"!*	c #81A25C",
"!+	c #829257",
"!,	c #82925B",
"!-	c #829759",
"!.	c #829B5B",
"!/	c #829F5D",
"!0	c #829F5E",
"!1	c #82A05D",
"!2	c #82A35A",
"!3	c #82A562",
"!4	c #82A563",
"!5	c #83915C",
"!6	c #83925C",
"!7	c #839358",
"!8	c #83935C",
"!9	c #839E5D",
"!:	c #83A05A",
"!;	c #83A15D",
"!<	c #83A563",
"!=	c #83A663",
"!>	c #848D59",
"!?	c #84905A",
"!@	c #84915C",
"!A	c #84925B",
"!B	c #84925D",
"!C	c #84965C",
"!D	c #84985B",
"!E	c #849E5D",
"!F	c #84A25C",
"!G	c #84A55C",
"!H	c #84A561",
"!I	c #84A75D",
"!J	c #859358",
"!K	c #859359",
"!L	c #859459",
"!M	c #85955B",
"!N	c #859659",
"!O	c #859C5E",
"!P	c #859F5F",
"!Q	c #85A15E",
"!R	c #85A660",
"!S	c #85A75C",
"!T	c #85A760",
"!U	c #85A761",
"!V	c #85A85B",
"!W	c #85A85C",
"!X	c #85A85F",
"!Y	c #85A864",
"!Z	c #868E5A",
"![	c #86915A",
"!]	c #86925A",
"!^	c #86975C",
"!_	c #86A460",
"!`	c #86A65D",
"!a	c #86A961",
"!b	c #86A963",
"!c	c #86AA5E",
"!d	c #86AA5F",
"!e	c #86AA63",
"!f	c #87925C",
"!g	c #87935A",
"!h	c #87935E",
"!i	c #87945A",
"!j	c #87945C",
"!k	c #87995C",
"!l	c #879E5E",
"!m	c #87A661",
"!n	c #87A860",
"!o	c #87A861",
"!p	c #87AA5E",
"!q	c #87AA62",
"!r	c #87AA64",
"!s	c #87AB5E",
"!t	c #87AB62",
"!u	c #87AB63",
"!v	c #88935C",
"!w	c #88975E",
"!x	c #889C5E",
"!y	c #88A05F",
"!z	c #88A260",
"!{	c #88A661",
"!|	c #88A95E",
"!}	c #88A962",
"!~	c #88AA62",
"# 	c #88AB5E",
"#!	c #88AB5F",
"##	c #88AC5F",
"#$	c #88AC60",
"#%	c #88AC61",
"#&	c #88AC62",
"#'	c #89945B",
"#(	c #89985C",
"#)	c #89995D",
"#*	c #899D5E",
"#+	c #89A361",
"#,	c #89A561",
"#-	c #89A662",
"#.	c #89A963",
"#/	c #89AB63",
"#0	c #89AC65",
"#1	c #89AD64",
"#2	c #89AE60",
"#3	c #89AE61",
"#4	c #89AE63",
"#5	c #8A935B",
"#6	c #8A9A5D",
"#7	c #8AA160",
"#8	c #8AA461",
"#9	c #8AAD64",
"#:	c #8AAD65",
"#;	c #8AAE62",
"#<	c #8AAE64",
"#=	c #8AAF63",
"#>	c #8B9058",
"#?	c #8BA161",
"#@	c #8BAE61",
"#A	c #8BAF64",
"#B	c #8BB063",
"#C	c #8BB064",
"#D	c #8BB065",
"#E	c #8BB163",
"#F	c #8CB264",
"#G	c #8D955C",
"#H	c #8D965F",
"#I	c #8DB264",
"#J	c #8DB364",
"#K	c #8DB365",
"#L	c #8DB463",
"#M	c #8DB465",
"#N	c #8EB365",
"#O	c #8EB465",
"#P	c #8EB466",
"#Q	c #8EB664",
"#R	c #8EB666",
"#S	c #8EB762",
"#T	c #8EB763",
"#U	c #8F9460",
"#V	c #8F975E",
"#W	c #8FB466",
"#X	c #8FB563",
"#Y	c #8FB564",
"#Z	c #8FB565",
"#[	c #8FB664",
"#]	c #8FB665",
"#^	c #8FB763",
"#_	c #8FB764",
"#`	c #90B665",
"#a	c #90B666",
"#b	c #90B765",
"#c	c #90B766",
"#d	c #90B863",
"#e	c #90B864",
"#f	c #91955D",
"#g	c #919660",
"#h	c #919661",
"#i	c #91975D",
"#j	c #91B765",
"#k	c #91B766",
"#l	c #91B865",
"#m	c #91B866",
"#n	c #91B965",
"#o	c #92955E",
"#p	c #92985F",
"#q	c #92B964",
"#r	c #92B965",
"#s	c #92BA64",
"#t	c #92BA65",
"#u	c #939862",
"#v	c #93BA66",
"#w	c #93BA67",
"#x	c #93BB66",
"#y	c #94985F",
"#z	c #949862",
"#{	c #94BB64",
"#|	c #94BB65",
"#}	c #94BB67",
"#~	c #94BC66",
"$ 	c #95BC66",
"$!	c #969860",
"$#	c #969964",
"$$	c #96BE66",
"$%	c #97945F",
"$&	c #979A63",
"$'	c #979A66",
"$(	c #97BE65",
"$)	c #989A65",
"$*	c #999A60",
"$+	c #999A66",
"$,	c #99C067",
"$-	c #9A9560",
"$.	c #9A9963",
"$/	c #9A9A60",
"$0	c #9F9864",
"$1	c #9F9865",
"$2	c #9F9964",
"$3	c #9F9A65",
"$4	c #9F9C68",
"$5	c #A09B66",
"$6	c #A09B68",
"$7	c #A19A66",
"$8	c #A19B67",
"$9	c #A39C68",
"$:	c #A39E67",
"$;	c #A39F66",
"$<	c #A39F68",
"$=	c #A49C69",
"$>	c #A4A167",
"$?	c #A59A66",
"$@	c #A59C69",
"$A	c #A59D68",
"$B	c #A59F6D",
"$C	c #A69E68",
"$D	c #A69E69",
"$E	c #A6A06E",
"$F	c #A6A16B",
"$G	c #A79E6A",
"$H	c #A79F6A",
"$I	c #A7A16B",
"$J	c #A89D69",
"$K	c #A8A36A",
"$L	c #A9A170",
"$M	c #AA9F6B",
"$N	c #AB9C69",
"$O	c #ABA06D",
"$P	c #AC9D68",
"$Q	c #ACA26D",
"$R	c #ADA26D",
"$S	c #AEA46D",
"$T	c #B1A06C",
"$U	c #B1A26F",
"$V	c #B1A871",
"$W	c #B2A26F",
"$X	c #B2A56F",
"$Y	c #B3A26F",
"$Z	c #B3A36F",
"$[	c #B4A471",
"$]	c #B4A572",
"$^	c #B5A472",
"$_	c #B6A972",
"$`	c #B6AA73",
"$a	c #B7A572",
"$b	c #B8A976",
"$c	c #BAA979",
"$d	c #BCAE78",
"$e	c #BEAE7A",
"$f	c #BFAA76",
"$g	c #BFAA7A",
"$h	c #BFAC77",
"$i	c #BFB07B",
"$j	c #C0AB7A",
"$k	c #C0AC76",
"$l	c #C1AB77",
"$m	c #C1AC77",
"$n	c #C2AE7B",
"$o	c #C2B37D",
"$p	c #C3AE7B",
"$q	c #C5AF80",
"$r	c #C5B081",
"$s	c #C5B283",
"$t	c #C5B480",
"$u	c #C6B17C",
"$v	c #C6B17F",
"$w	c #C6B27F",
"$x	c #C7B17E",
"$y	c #C7B582",
"$z	c #C9B285",
"${	c #C9B481",
"$|	c #C9B682",
"$}	c #C9B683",
"$~	c #CAB482",
"% 	c #CAB485",
"%!	c #CAB486",
"%#	c #CAB683",
"%$	c #CAB684",
"%%	c #CAB784",
"%&	c #CAB785",
"%'	c #CBB487",
"%(	c #CBB686",
"%)	c #CBB786",
"%*	c #CCB684",
"%+	c #CCB686",
"%,	c #CCB787",
"%-	c #CCB788",
"%.	c #CCB885",
"%/	c #CCB887",
"%0	c #CCB888",
"%1	c #CCB989",
"%2	c #CCB98A",
"%3	c #CDB784",
"%4	c #CDB885",
"%5	c #CDB887",
"%6	c #CDB888",
"%7	c #CDB986",
"%8	c #CDB987",
"%9	c #CDB988",
"%:	c #CDB989",
"%;	c #CDB98A",
"%<	c #CDBA8A",
"%=	c #CDBA8C",
"%>	c #CDBB8C",
"%?	c #CDBB8D",
"%@	c #CDBB8E",
"%A	c #CDBD8F",
"%B	c #CEB888",
"%C	c #CEB987",
"%D	c #CEB988",
"%E	c #CEB989",
"%F	c #CEBA87",
"%G	c #CEBA8B",
"%H	c #CEBA8D",
"%I	c #CEBB8C",
"%J	c #CEBB8D",
"%K	c #CEBC8D",
"%L	c #CEBC8E",
"%M	c #CEBD8E",
"%N	c #CEBD8F",
"%O	c #CEBD90",
"%P	c #CEBE91",
"%Q	c #CFB888",
"%R	c #CFB889",
"%S	c #CFB987",
"%T	c #CFB988",
"%U	c #CFB989",
"%V	c #CFB98A",
"%W	c #CFBA89",
"%X	c #CFBA8A",
"%Y	c #CFBA8B",
"%Z	c #CFBA8C",
"%[	c #CFBB8A",
"%]	c #CFBB8B",
"%^	c #CFBB8C",
"%_	c #CFBC8D",
"%`	c #CFBC8E",
"%a	c #CFBD8E",
"%b	c #CFBD8F",
"%c	c #CFBD90",
"%d	c #CFBD91",
"%e	c #CFBE90",
"%f	c #CFBE91",
"%g	c #CFBE92",
"%h	c #D0B988",
"%i	c #D0BA88",
"%j	c #D0BC8C",
"%k	c #D0BC8D",
"%l	c #D0BD8C",
"%m	c #D0BD8F",
"%n	c #D0BD90",
"%o	c #D0BD91",
"%p	c #D0BE91",
"%q	c #D0C094",
"%r	c #D0C095",
"%s	c #D0C096",
"%t	c #D0C196",
"%u	c #D0C197",
"%v	c #D0C198",
"%w	c #D0C299",
"%x	c #D0C399",
"%y	c #D1B989",
"%z	c #D1B98A",
"%{	c #D1BA8A",
"%|	c #D1BA8B",
"%}	c #D1BB88",
"%~	c #D1BB89",
"& 	c #D1BC8C",
"&!	c #D1BD8D",
"&#	c #D1BD8E",
"&$	c #D1BD8F",
"&%	c #D1BE8F",
"&&	c #D1BE90",
"&'	c #D1BE91",
"&(	c #D1C298",
"&)	c #D2BB8A",
"&*	c #D2BB8B",
"&+	c #D2BE91",
"&,	c #D3BB8E",
"&-	c #D4BC8F",
"#{$($,$,$ #e#_#K!e!3 n Q d x w a q!D#)#>$c&-&+&&",
"#|$$$$#~#}#v#w#P!u!= n R d m l j!!!N#(#f$s&,&'&&",
"#t#s#d#Q#[#r#w#W!b!< e B F P b ` h!7!i$.%!%|&$&%",
"#n#l#b#Q#L#Y#k#N!e!4 S B I c b O Z!+!K$4%'%U&!&$",
"#T#l#m#m#Z#J#J#D#0!Y y J I k!% s!-!J!g$E%'%6& &#",
"#S#l#`#c#R#F#=#<#:!r!H!( v!0!P!l!k!L![$L$z%(%X%j",
"#x#l#X#[#M#E#C#9!q!U!_!z#+#7#*#6!M |!?$B$q% %E%[",
"#t#l#[#]#K#B#A#1!q!o!{#8#?!x!C!w!8 f!h$6$g$r%B%W",
"#d#l#j#a#I#4#&#/#/#.#-!y!^ L @!6 ~ g#h$3$^$j%(%D",
"#q#r#O#E#;!t!q!~!}#.#+!D L 6 1 ? T }$A$=$O$h%*%E",
"#x#[#3#$#%!a!T!R!m#,!O M 7 , ( 4 D![$M$1$7$k%F%k",
"#^#2!c#$#$!X!*!;!Q!E [ 9 . # $ / E#o$H$0$?$u%l%n",
"#@!d!p###!!I!)!/!9 i A 3 ) ! & ;!]$:$Q$J$a%9%m%o",
"!n!G!W!s# !S!'!$!. N 8 % ! - E {#g$F$R$Z$x%Y%n%p",
"!1 u!2!V!|!` t _ ] > *   - T!A!v$&$I$U$m%*%=%c%f",
" r ^!#!:!F!& H = 2 ' + D }!]#5#p$<$X$l${%1%?%e%f",
" p Y V W X G < 5 0 : o!j#'#G#y$>$_$n$~%:%_%a%f%g",
"!, U C K! !B!5!5!@!f#H#V#i$*$K$d$w$~%5%]%`%b%f%P",
"!Z z!>#U$'$+$)$##u#z$!$/$;$V$o$}%$%)%:%^%b%f%f%P",
"$-$%$2$C$G$@$9$8$5$D$S$`$i$y%&%+%,%0%E%`%g%r%s%q",
"$N$P$T$Y$W$[$]$b$e$t$|%%%&%/%5%-%0%1%<%L%g%u%w%x",
"$f$p$v%#%.%3%4%C%8%7%7%/%0%:%:%;%;%;%<%K%f%t&(%v",
"%}%~%~%~%~%i%S%T%U%U%X%G%G%G%=%>%I%I%?%M%e%g%d%@",
"&*&)%{%z%y%h%Q%Q%R%V%Z%H%H%H%=%>%J%J%?%N%O%A%2%/"};
