/* XPM */
static char *button disable.png[] = {
"48 48 728 2",
"  	c #282828",
" !	c #282929",
" #	c #292A2B",
" $	c #2A2A2A",
" %	c #2A2A2B",
" &	c #2B2B2B",
" '	c #2B2C2C",
" (	c #2E2F30",
" )	c #301C0F",
" *	c #303131",
" +	c #313131",
" ,	c #313132",
" -	c #323233",
" .	c #323333",
" /	c #333333",
" 0	c #343435",
" 1	c #343536",
" 2	c #353637",
" 3	c #363636",
" 4	c #363637",
" 5	c #383839",
" 6	c #393839",
" 7	c #39383A",
" 8	c #393939",
" 9	c #3A393A",
" :	c #3B393B",
" ;	c #3B3A3C",
" <	c #3C3738",
" =	c #3C3C3D",
" >	c #3E4040",
" ?	c #3F4040",
" @	c #404140",
" A	c #404141",
" B	c #404143",
" C	c #414243",
" D	c #432B05",
" E	c #442B05",
" F	c #454648",
" G	c #462D06",
" H	c #464746",
" I	c #47311E",
" J	c #474444",
" K	c #484846",
" L	c #493320",
" M	c #494345",
" N	c #494747",
" O	c #494948",
" P	c #494949",
" Q	c #4A3421",
" R	c #4A4A47",
" S	c #4A4A4B",
" T	c #4A4C4B",
" U	c #4B4B4C",
" V	c #4B4E4E",
" W	c #4C4B4C",
" X	c #4C4C4C",
" Y	c #4D4C4D",
" Z	c #4D4D4E",
" [	c #4D4E4D",
" ]	c #4E4C4B",
" ^	c #4E4D4D",
" _	c #4E4D4E",
" `	c #4E4E4F",
" a	c #4E4E50",
" b	c #4F3924",
" c	c #4F4F4E",
" d	c #4F4F50",
" e	c #4F504F",
" f	c #505051",
" g	c #515151",
" h	c #525151",
" i	c #525152",
" j	c #525253",
" k	c #525350",
" l	c #535150",
" m	c #535253",
" n	c #535457",
" o	c #545352",
" p	c #545353",
" q	c #545354",
" r	c #545452",
" s	c #555254",
" t	c #555454",
" u	c #555556",
" v	c #565452",
" w	c #565556",
" x	c #56575B",
" y	c #585858",
" z	c #595755",
" {	c #595958",
" |	c #5A5959",
" }	c #5A5A59",
" ~	c #5B5A5C",
"! 	c #5B5D5F",
"!!	c #5B5F61",
"!#	c #5C5A5A",
"!$	c #5D5A5B",
"!%	c #5E5B5B",
"!&	c #5E5E5B",
"!'	c #5F5C5C",
"!(	c #5F5D5C",
"!)	c #605B5C",
"!*	c #616161",
"!+	c #62615F",
"!,	c #626160",
"!-	c #636464",
"!.	c #646361",
"!/	c #646362",
"!0	c #646464",
"!1	c #646565",
"!2	c #666462",
"!3	c #666666",
"!4	c #666766",
"!5	c #676666",
"!6	c #676766",
"!7	c #676A6B",
"!8	c #684A12",
"!9	c #684B12",
"!:	c #686665",
"!;	c #686769",
"!<	c #686867",
"!=	c #68686A",
"!>	c #694B13",
"!?	c #694C13",
"!@	c #69696B",
"!A	c #696A6B",
"!B	c #696A6D",
"!C	c #6A4D13",
"!D	c #6A5339",
"!E	c #6A6A69",
"!F	c #6A6E6D",
"!G	c #6B543A",
"!H	c #6B6A69",
"!I	c #6B6D6F",
"!J	c #6C4D14",
"!K	c #6C4E15",
"!L	c #6C553A",
"!M	c #6C6B6C",
"!N	c #6D6B6B",
"!O	c #6D6C6C",
"!P	c #6D706F",
"!Q	c #6E573C",
"!R	c #6F6D6D",
"!S	c #6F6F6F",
"!T	c #70593E",
"!U	c #706F71",
"!V	c #707170",
"!W	c #707173",
"!X	c #715A3E",
"!Y	c #725C40",
"!Z	c #727372",
"![	c #737271",
"!]	c #737474",
"!^	c #745E42",
"!_	c #746E6F",
"!`	c #747172",
"!a	c #747373",
"!b	c #755F43",
"!c	c #757371",
"!d	c #757474",
"!e	c #757573",
"!f	c #757776",
"!g	c #767271",
"!h	c #777573",
"!i	c #777777",
"!j	c #787878",
"!k	c #787979",
"!l	c #79777A",
"!m	c #797877",
"!n	c #797878",
"!o	c #797A7A",
"!p	c #797B7A",
"!q	c #7A7375",
"!r	c #7A7976",
"!s	c #7A7977",
"!t	c #7A7A79",
"!u	c #7A7A7A",
"!v	c #7B5C38",
"!w	c #7B7575",
"!x	c #7C5F3A",
"!y	c #7C7A7A",
"!z	c #7C7A7B",
"!{	c #7C7B7A",
"!|	c #7C7E7E",
"!}	c #7D5D1E",
"!~	c #7D7B7B",
"# 	c #7E5E1F",
"#!	c #7E7A7B",
"##	c #7F5F20",
"#$	c #7F7E7D",
"#%	c #806021",
"#&	c #807D7F",
"#'	c #807F82",
"#(	c #81807F",
"#)	c #818080",
"#*	c #818081",
"#+	c #818181",
"#,	c #818584",
"#-	c #826221",
"#.	c #826C4E",
"#/	c #827E80",
"#0	c #828180",
"#1	c #828181",
"#2	c #828383",
"#3	c #838382",
"#4	c #846F51",
"#5	c #847D7E",
"#6	c #848384",
"#7	c #85663E",
"#8	c #857051",
"#9	c #858584",
"#:	c #858786",
"#;	c #868688",
"#<	c #87807F",
"#=	c #878687",
"#>	c #878786",
"#?	c #878788",
"#@	c #878988",
"#A	c #887354",
"#B	c #898889",
"#C	c #89898B",
"#D	c #8A7556",
"#E	c #8A8583",
"#F	c #8B6C41",
"#G	c #8B7657",
"#H	c #8B8C8D",
"#I	c #8C6D42",
"#J	c #8C6E42",
"#K	c #8D8888",
"#L	c #8D8B8B",
"#M	c #8E7044",
"#N	c #8E8E90",
"#O	c #8F8F91",
"#P	c #90702D",
"#Q	c #907B5C",
"#R	c #90908F",
"#S	c #91712D",
"#T	c #91722E",
"#U	c #919291",
"#V	c #92722E",
"#W	c #927E5F",
"#X	c #937347",
"#Y	c #937446",
"#Z	c #937F5F",
"#[	c #938E8F",
"#]	c #948060",
"#^	c #957531",
"#_	c #957649",
"#`	c #957747",
"#a	c #959091",
"#b	c #959696",
"#c	c #96784C",
"#d	c #968262",
"#e	c #96918B",
"#f	c #978463",
"#g	c #979494",
"#h	c #979696",
"#i	c #97979A",
"#j	c #988564",
"#k	c #98999A",
"#l	c #998665",
"#m	c #9A8766",
"#n	c #9A999A",
"#o	c #9A9B9C",
"#p	c #9A9C9D",
"#q	c #9B9B9B",
"#r	c #9B9D9F",
"#s	c #9C7C4C",
"#t	c #9C7D49",
"#u	c #9C8968",
"#v	c #9C9897",
"#w	c #9D7D4C",
"#x	c #9D7D4E",
"#y	c #9D9B9A",
"#z	c #9E8B6A",
"#{	c #9F8D6C",
"#|	c #9F9F9D",
"#}	c #A08E6D",
"#~	c #A0A09E",
"$ 	c #A0A0A2",
"$!	c #A18F6E",
"$#	c #A19D9D",
"$$	c #A1A1A1",
"$%	c #A28251",
"$&	c #A29070",
"$'	c #A29D9D",
"$(	c #A2A1A1",
"$)	c #A39171",
"$*	c #A39F9D",
"$+	c #A39F9F",
"$,	c #A3A1A1",
"$-	c #A3A3A1",
"$.	c #A49272",
"$/	c #A4A0A2",
"$0	c #A4A1A2",
"$1	c #A5854B",
"$2	c #A5A2A3",
"$3	c #A5A3A1",
"$4	c #A69474",
"$5	c #A6A4A5",
"$6	c #A7874D",
"$7	c #A7AAA8",
"$8	c #A88654",
"$9	c #A89676",
"$:	c #A8A7A8",
"$;	c #A9A7A9",
"$<	c #A9A8A8",
"$=	c #AA9979",
"$>	c #AAA8A9",
"$?	c #AB8A57",
"$@	c #AB9A7A",
"$A	c #AC8A57",
"$B	c #ACAAAA",
"$C	c #ACAEAD",
"$D	c #AD8C5A",
"$E	c #AD9C7C",
"$F	c #AE8D5A",
"$G	c #AEB1B0",
"$H	c #AF8E5A",
"$I	c #AFADAE",
"$J	c #B08B53",
"$K	c #B0904E",
"$L	c #B09F80",
"$M	c #B0AFAE",
"$N	c #B0B0B0",
"$O	c #B18C53",
"$P	c #B1A081",
"$Q	c #B1B1B2",
"$R	c #B29353",
"$S	c #B2AFAF",
"$T	c #B38E56",
"$U	c #B3A384",
"$V	c #B4A485",
"$W	c #B59156",
"$X	c #B5915A",
"$Y	c #B69256",
"$Z	c #B6944D",
"$[	c #B69654",
"$]	c #B6A687",
"$^	c #B6B2B0",
"$_	c #B6B2B3",
"$`	c #B6B2B4",
"$a	c #B7954E",
"$b	c #B7964F",
"$c	c #B79750",
"$d	c #B7B4B4",
"$e	c #B7B8B7",
"$f	c #B8964F",
"$g	c #B89650",
"$h	c #B89750",
"$i	c #B8B5B4",
"$j	c #B8B6B7",
"$k	c #B8B8BA",
"$l	c #B8B9BA",
"$m	c #B99851",
"$n	c #B99A58",
"$o	c #BA9952",
"$p	c #BA9953",
"$q	c #BAB7B6",
"$r	c #BAB9B8",
"$s	c #BB9953",
"$t	c #BB9A53",
"$u	c #BB9B54",
"$v	c #BB9B55",
"$w	c #BC9D56",
"$x	c #BD9D56",
"$y	c #BDB9B9",
"$z	c #BDBBBB",
"${	c #BEB092",
"$|	c #BEBBBB",
"$}	c #BEC0BF",
"$~	c #BF9E5F",
"% 	c #BF9F5F",
"%!	c #BF9F60",
"%#	c #BFA059",
"%$	c #BFB193",
"%%	c #BFBDBF",
"%&	c #C09E5F",
"%'	c #C09F60",
"%(	c #C0A061",
"%)	c #C0B294",
"%*	c #C0C0C2",
"%+	c #C19F60",
"%,	c #C1B497",
"%-	c #C1C1C1",
"%.	c #C2A162",
"%/	c #C2A262",
"%0	c #C3A263",
"%1	c #C3A35D",
"%2	c #C3A364",
"%3	c #C4A45D",
"%4	c #C4A469",
"%5	c #C4A661",
"%6	c #C4C2C2",
"%7	c #C5A55F",
"%8	c #C5C6C8",
"%9	c #C6A660",
"%:	c #C6B99D",
"%;	c #C7BA9E",
"%<	c #C7C7C9",
"%=	c #C8AA64",
"%>	c #C8AA65",
"%?	c #C8AD6E",
"%@	c #C8BB9F",
"%A	c #C8BCA1",
"%B	c #C8C8C8",
"%C	c #C9AA64",
"%D	c #C9AD6F",
"%E	c #C9AE79",
"%F	c #CAA969",
"%G	c #CAAA65",
"%H	c #CAAB65",
"%I	c #CAAB66",
"%J	c #CAAB73",
"%K	c #CAB071",
"%L	c #CBAF6F",
"%M	c #CBB174",
"%N	c #CCAD73",
"%O	c #CCAE71",
"%P	c #CCCBCD",
"%Q	c #CDAF6A",
"%R	c #CDC2A7",
"%S	c #CEC3A8",
"%T	c #CFAE70",
"%U	c #CFB271",
"%V	c #CFD1CF",
"%W	c #D0B473",
"%X	c #D0CECF",
"%Y	c #D0D2D1",
"%Z	c #D1B375",
"%[	c #D3D2D2",
"%]	c #D3D4D5",
"%^	c #D3D4D6",
"%_	c #D4B472",
"%`	c #D4B77A",
"%a	c #D4D4D5",
"%b	c #D5B977",
"%c	c #D5D5D8",
"%d	c #D6B675",
"%e	c #D6B774",
"%f	c #D6CCB4",
"%g	c #D6D4D5",
"%h	c #D6D4D6",
"%i	c #D6D5D5",
"%j	c #D7B876",
"%k	c #D7BA78",
"%l	c #D7BF84",
"%m	c #D7CEB6",
"%n	c #D7D7D8",
"%o	c #D8B978",
"%p	c #D8BB78",
"%q	c #D8D8D9",
"%r	c #D9D8D8",
"%s	c #D9D8DA",
"%t	c #D9D9D9",
"%u	c #DAD1BA",
"%v	c #DADADA",
"%w	c #DADBDC",
"%x	c #DBD2BC",
"%y	c #DBDADA",
"%z	c #DBDADB",
"%{	c #DBDBDA",
"%|	c #DBDBDB",
"%}	c #DCBC7A",
"%~	c #DCD3BD",
"& 	c #DCD4BE",
"&!	c #DCDBDA",
"&#	c #DCDBDE",
"&$	c #DCDCDD",
"&%	c #DDBE7C",
"&&	c #DDBF7C",
"&'	c #DDBF7D",
"&(	c #DDD5C0",
"&)	c #DDDBDE",
"&*	c #DDDCDB",
"&+	c #DDDDDC",
"&,	c #DDDDDD",
"&-	c #DDDDDE",
"&.	c #DDDDDF",
"&/	c #DDDEDF",
"&0	c #DED6C1",
"&1	c #DED9D7",
"&2	c #DEDADC",
"&3	c #DEDBDA",
"&4	c #DEDBDC",
"&5	c #DEDCDC",
"&6	c #DEDCDD",
"&7	c #DEDCDE",
"&8	c #DEDDDD",
"&9	c #DEDDDE",
"&:	c #DEDDDF",
"&;	c #DEDEDE",
"&<	c #DEDEDF",
"&=	c #DFDBDB",
"&>	c #DFDCDC",
"&?	c #DFDDDD",
"&@	c #DFDDDE",
"&A	c #DFDDDF",
"&B	c #DFDEDD",
"&C	c #DFDEDE",
"&D	c #DFDEDF",
"&E	c #DFDEE0",
"&F	c #DFDEE1",
"&G	c #DFDFDF",
"&H	c #DFDFE0",
"&I	c #E0D9C4",
"&J	c #E0DEDF",
"&K	c #E0DFDF",
"&L	c #E0DFE0",
"&M	c #E0DFE1",
"&N	c #E0E0DA",
"&O	c #E0E0E0",
"&P	c #E0E0E1",
"&Q	c #E1DAC5",
"&R	c #E1DFE0",
"&S	c #E1DFE1",
"&T	c #E1E0E0",
"&U	c #E1E0E1",
"&V	c #E1E0E2",
"&W	c #E1E1E1",
"&X	c #E1E1E2",
"&Y	c #E1E2E2",
"&Z	c #E2DBC7",
"&[	c #E2E0E0",
"&]	c #E2E0E1",
"&^	c #E2E0E2",
"&_	c #E2E1E1",
"&`	c #E2E1E2",
"&a	c #E2E1E3",
"&b	c #E2E2E3",
"&c	c #E2E3E4",
"&d	c #E3C584",
"&e	c #E3DCC8",
"&f	c #E3E0E2",
"&g	c #E3E1E1",
"&h	c #E3E1E2",
"&i	c #E3E2E2",
"&j	c #E3E2E3",
"&k	c #E3E2E4",
"&l	c #E3E3E3",
"&m	c #E3E3E4",
"&n	c #E3E3E5",
"&o	c #E3E3E6",
"&p	c #E3E4E1",
"&q	c #E4E2E3",
"&r	c #E4E3E3",
"&s	c #E4E3E4",
"&t	c #E4E3E5",
"&u	c #E4E4E4",
"&v	c #E4E4E5",
"&w	c #E4E4E6",
"&x	c #E4E4E7",
"&y	c #E5DFCC",
"&z	c #E5E1E1",
"&{	c #E5E1E3",
"&|	c #E5E3E2",
"&}	c #E5E3E4",
"&~	c #E5E4E3",
"' 	c #E5E4E4",
"'!	c #E5E4E5",
"'#	c #E5E4E7",
"'$	c #E5E5E5",
"'%	c #E5E5E6",
"'&	c #E6C98A",
"''	c #E6E0CE",
"'(	c #E6E4E2",
"')	c #E6E4E4",
"'*	c #E6E4E5",
"'+	c #E6E4E6",
"',	c #E6E5E4",
"'-	c #E6E5E5",
"'.	c #E6E5E6",
"'/	c #E6E5E7",
"'0	c #E6E6E6",
"'1	c #E6E6E7",
"'2	c #E6E8E7",
"'3	c #E7E1CF",
"'4	c #E7E4E5",
"'5	c #E7E5E4",
"'6	c #E7E5E6",
"'7	c #E7E5E7",
"'8	c #E7E6E3",
"'9	c #E7E6E6",
"':	c #E7E6E7",
"';	c #E7E7E7",
"'<	c #E7E7E8",
"'=	c #E8E5E4",
"'>	c #E8E5E6",
"'?	c #E8E5E7",
"'@	c #E8E6E6",
"'A	c #E8E6E7",
"'B	c #E8E6E8",
"'C	c #E8E7E7",
"'D	c #E8E7E8",
"'E	c #E8E7E9",
"'F	c #E8E8E7",
"'G	c #E8E8E9",
"'H	c #E8E9E7",
"'I	c #E9E4D3",
"'J	c #E9E6E8",
"'K	c #E9E7E7",
"'L	c #E9E7E8",
"'M	c #E9E7E9",
"'N	c #E9E8E8",
"'O	c #E9E8E9",
"'P	c #E9E8EA",
"'Q	c #E9E9E9",
"'R	c #E9E9EA",
"'S	c #EAD39A",
"'T	c #EAE5D5",
"'U	c #EAE7E9",
"'V	c #EAE8E9",
"'W	c #EAE8EA",
"'X	c #EAE9E9",
"'Y	c #EAE9EA",
"'Z	c #EAEAEA",
"'[	c #EBD59C",
"']	c #EBE6D6",
"'^	c #EBE8E9",
"'_	c #EBE9EA",
"'`	c #EBEAE9",
"'a	c #EBEAEA",
"'b	c #EBEAEB",
"'c	c #EBEAEC",
"'d	c #EBEBEC",
"'e	c #ECD69D",
"'f	c #ECD8A0",
"'g	c #ECD8A1",
"'h	c #ECEAE7",
"'i	c #ECEAEC",
"'j	c #ECEBEB",
"'k	c #ECEBEC",
"'l	c #ECECEB",
"'m	c #ECECEC",
"'n	c #EDD9A3",
"'o	c #EDEAEB",
"'p	c #EDEBEC",
"'q	c #EDECEC",
"'r	c #EDECED",
"'s	c #EDECEE",
"'t	c #EDEDED",
"'u	c #EEECEC",
"'v	c #EEECED",
"'w	c #EEECEE",
"'x	c #EEEDEF",
"'y	c #EEEEEF",
"'z	c #EEEEF0",
"'{	c #EFECED",
"'|	c #EFECEE",
"'}	c #EFEDEE",
"'~	c #EFEDEF",
"( 	c #EFEEED",
"(!	c #EFEEEF",
"(#	c #EFEFEF",
"($	c #EFEFF0",
"(%	c #EFF0EF",
"(&	c #F0EDEF",
"('	c #F0EEEF",
"((	c #F0EEF0",
"()	c #F0EFEF",
"(*	c #F0EFF0",
"(+	c #F0F0F1",
"(,	c #F0F1F1",
"(-	c #F0F2F3",
"(.	c #F1EEF0",
"(/	c #F1EFF0",
"(0	c #F1EFF1",
"(1	c #F1F0F0",
"(2	c #F1F0F2",
"(3	c #F1F1F1",
"(4	c #F1F1F2",
"(5	c #F2EFF1",
"(6	c #F2F0F0",
"(7	c #F2F0F2",
"(8	c #F2F1F1",
"(9	c #F2F1F2",
"(:	c #F2F2F3",
"(;	c #F3EDEE",
"(<	c #F3F2F4",
"(=	c #F3F3F4",
"(>	c #F3F4F3",
"(?	c #F3F5F9",
"(@	c #F4F3F4",
"(A	c #F4F4F4",
"(B	c #F4F5F6",
"(C	c #F5F3F3",
"(D	c #F5F4F3",
"(E	c #F5F4F4",
"(F	c #F5F5F4",
"(G	c #F5F5F7",
"(H	c #F5F6F5",
"(I	c #F6F4F3",
"(J	c #F6F4F5",
"(K	c #F6F5F6",
"(L	c #F6F5F7",
"(M	c #F6F6F7",
"(N	c #F8F5F6",
"(O	c #F8F6F7",
"(P	c #F8F6F8",
"(Q	c #F8F7F8",
"(R	c #F8F9F7",
"(S	c #F8FAFE",
"(T	c #F9F6F8",
"(U	c #F9F9F9",
"(V	c #F9F9FB",
"(W	c #FAF8F9",
"(X	c #FAFBFD",
"(Y	c #FBFBFE",
"(Z	c #FBFCFD",
"([	c #FCFAFA",
"(]	c #FCFAFB",
"(^	c #FCFDFC",
"(_	c #FDFAFA",
"(`	c #FDFCFD",
"(a	c #FDFDFD",
"(b	c #FEFAFA",
"(c	c #FEFBFB",
"(d	c #FEFBFC",
"(e	c #FEFCFC",
"(f	c #FEFCFD",
"(g	c #FEFDFC",
"(h	c #FEFDFE",
"(i	c #FEFEFD",
"(j	c #FEFEFE",
"(k	c #FEFFFE",
"(l	c #FFFEF9",
"(m	c #FFFEFF",
"(n	c #FFFFFE",
"#h#b#p%g'-'!'*&O%w&m'w'~'r':'%'r'p'!&F&#&L'0'G'<&+%{%y%|&9&K&K&K&K&L&`&k&t'D'Y'%&j&j&o%i!! n!A!Z",
"#n#n#r%a'7'7'*&_&H&s'i'p'k'1'%'b'V&E%c%^%n%z&.&/%s%q%t%v&8&L&O&U&]&^&k&k&t':'K&s&j&s'1%Y! !f!|!a",
"$l$Q$ %-'/'<'-&u&j&}':'D'D'.&v'.&R%[%8%<%P%3%C%H%9%7$s%y&;&O&P&]&]&f&s&s&j&i&[&J&g'='F$7#,&N$(!`",
"'O'$%B$,%X'P'<'%&r&~'.'.'.'.&u&l&L$m$R#`#7!x!v#I#I#J#M#Y#t$K$h&U&]&V&V&$%n%g%h&4','H%V$N&p'h$5!M",
"'d'Z'2#j#d#f#d#d#m#{#{#m#G#8!G$t$6#X#F#F#F#F#F#F#F#F#F#F#s#s$%$1$o!G!G!G!G!G!G!G!G!G!G!G!D'5$I!@",
"'c'R#d(l(l(l(l(l&Q&e&Z%:%)$h$[#c#F#s#s#F#F#F#F#F#s#s#s#s#F#F#F#F#_$n$x#{#{${${${${${${${${!G%%!l",
"'W'1#](l%u#{!Y$P&e%R%@$.$m%O#x#s#s#s#s#s#s#s#s#s#s#s#s#s#s#s#s#s#s#x%N%1#{#{${${#{#4!G#{#{!G%6#*",
"' &:#](l#}(l$L#Q%S%A$)$m%Z$H$F$F$F$F$8$8$8$8$8$8$8$8#s#s#s$8$8$8$8#s#w%`%I#{${${#4%u#{!G#{!G$i!3",
"'`&M#Z(l b&I$]!b$L$.$b&'$?$8$8$8$8$F$F$F$F$8$8$8$8$8$8$8$F$F$F$F$J$J$J$T'&%G#{${ I#{#4 I#4!G$3 k",
"(@'##Z(l%;!b!b$P$.#4$w%E$F$F$F$F$F$F$8$8$8$8$F$8$8$8$F$F$F$F$W$W$W$J$J$J%J%Q!G${#{ I I#4#{!G$:!4",
"(@&x#W(l(l(l&Q%,#4$m&'$D$F$F$F$F$F$F$F$F$W$F$F$F$J$J$J$J$F$F$J$W$J$J$W$J$X&d%=!G#4#{#{${${!G w 3",
"(:&n#f(l(l&Z&(#4#{$h'e$Y$~$~$~$J$F$F$F$F$F$W$~$~$~$~$J$J$W$W$W$W$W$J$J$J$O'f%>#4!G#{${${${!G u 0",
"('&a#u(l&Z&0%$#4${#V'[$J$J$J$J$J$J$J$W$W$~$W$J$J$~$~$~$~$~$~$~$~$~$~%?%?$~'n%5#{!G#4#{#{${!G i +",
"'U&9#l&Z&I&(#4#{${#S'S$O$~%?%?%?%?$~$~$~$~$J$J$J$J$J$W$J$J$~$~$~$~$~$J$J% 'n%##{#4!G#{#{#{!G d -",
"&}&$#Z&I&Q(l#4${${!}%}$A$8$J$W$J$W$W$J$J$J$J$J$J$J$J$J$~$~$~$~%?%?%?%?%?%M'g$u#{#{!G#4#{#{!G ` 0",
"'m&m#Z&Z(l&I#{${%u!K$f%W%?%?%?%?%?%?%?%?%?%?$~$~$~$~$~$~%?%?%?%?%?%?%?%?%l&%!K#{#{#4!G#{#{!G Z 4",
"(F'Z#z(l(l#4#{%u%u!8# %}%+%?%?%?$~$~$~$J$J$J$W$J$W$W$J$J$J$J$J$~$~%?%?%K&&$a G#{#{#4!G#{#{!G d 5",
"(D';#{(l(l#4#{%u%u!8!8$a%T$J$J$J$W$W$J$J$J$J$J$J$~$~$~$~$~%?%?%?$~$~% %d$b!9 D#{#{#4!G#{#{!G f 8",
"(C'.#f(l(l#4#{%u%u!8!8!}$c%_$~$~$W$W$W$W$W$W$W$W$W$W$W$~$~$~$~$~%?%D%k$a!9 E D#{#{#4!G#{#{!G f 9",
"(I'<#D(l(l!G#{%u%u!8!8!J# $a%e%/$~$J$J$J$J$J$J$J$J$J$J$J$J$J$J$W%2%p$b!9 D D D#{#{#4 I#{#{!G j 6",
"(D'Q#8(l(l!G#4%u%u!8!>!J# # #P$Z%4$F$8$J$J$J$W$W$W$W$W$W$W$~%.%b$p#V D D D D!8#{#{ I I#{#{!G u 7",
"(A'Q!L(l(l!G#4${%u#{!9!>!}!}#P#P$Z$Z%o%U%L%'%&%!%!%'%(%0%F%j$v#^!? D D D D D#4#{#4 I I#{#{!G y :",
"(E'm!G(l(l!G#4$&%u%u!8!8!}!}#P#P#P#P# # $Z$Z$c$a$f$g$f$f#-#%!?!9!8 D D D D!8#{#{!G I I#{#{ I { =",
"(J't!G(l(l#{!G#4${%u#{!8!}!}#P#P#P#P!}# #P#P# !9# #T# !C!C# !9!8!8 D D D!8#4#{#4 I I!G#{#{ I t 2",
"(K'Y!G(l(l%~!G!G$&%u%u#{!8!}#P#P#P#P!}# #P#P!}!9###S!}!8!8!}!8!8!8 D D!8#4#{#{!G I I#{#{#{ I _ #",
"(/'.!G(l(l(l$U!G!G$&%u%u#{!8!8# #P#P!}# #P#P!}!9# #P!}!9!8!}!8!8 D D!8#4#{#{!G I I!G#{#{#{ I Y '",
"'V&m!Q(l(l(l&y!G!G!G$&%u%u%u#{!8!8!}!}# #P#P!}!8# #P!}!8!8!8 D D!8#{${${${#4 I I I#{#{#{#{ I X &",
"'D'+#A(l(l'I&e$)!G!G!G$&%u%u%u%u#{!8!8!8!8#P!}!8# #P!}!8!8!8!8#{${%u%u%u#{ I I I!G#{#{#{#{ I S  ",
"'%'.$)(l'T&y& %u#{!G!G!G$&${%u%u%u%u${$&#4!8!8!8!8!8!8#4$&${${%u%u%u${!G I I I!G#{#{#{#{${ I U !",
"&j&s$E'T''$=!L#{${$!!T!Q!L!G$&${%u%u%u%u${${%u%u${${${%u%u%u%u%u${!G I I I I!G#{#{#4!G#{#{ I Z $",
"&a&s$9&y$@(l#{!G%)%:$V#.!X!G#4#4#4!G#4${${%u%u${${${%u%u${#{ I I I I I I I!G#{#{#4%u#{!G#{ I ` $",
"'!'-#Z&0 L%u#{ Q$P%f'I&y$4!L#4#4#4!G!G!G!G!G I I!G I I I I I I I I I I!G#{#{#{#{ I#{#4 I#4 I Z %",
"'.'9!^%x${ I L$L%m'](l(l(l%u#{#4#4!G!G!G!G!G I I!G I I I I I I I I!G#{#{#{#{${${#{ I I#4#{ I W (",
"'+'.!G%u%u%u& '''T(l(l(l(l(l(l%u${#{#4!G!G!G I I!G I I I I!G#{${${${${${${${${${${${${${${ I h /",
"'7'< I%u%u%~&Q'3(l(l(l(l(l(l(l(l(l(l(l(l(l(l(l(l(l(l(l(l%u(l(l(l%u%u${%u(l%u${%u%u${${${${ ) q .",
"'L'O I ) ) I I ) ) I I I I!G!G I I I I I I I I!G I!G!G!G I I ) I ) ) I!G!G I!G!G I ) ) ) I ) j *",
"'O'O I ) ) I I ) ) I I I I!G!G I I I I I I I I!G I!G!G!G I I ) I ) ) I!G!G I!G!G I ) ) ) I ) j ,",
"'O'X I ) ) I I ) ) I I I I!G!G I I I I I I I I!G I!G!G!G I I ) I ) ) I!G!G I!G!G I ) ) ) I ) j -",
"'X'X I ) ) I I ) ) I I I I!G!G I I I I I I I I!G I!G!G!G I I ) I ) ) I!G!G I!G!G I ) ) ) I ) m 1",
"'a'a'l(#&+#k&)(.'A'>'4' &}&q&f&S&G&-&,&*&!&>&3&5&5&6&6&6&7&D&T&i&|')'>'?'A'V'_(5%*$G&w'6&[&^$<!P",
"'b'k( %r#o%](:'|'^'J'A'.'*&}&j&h&_&T&L&J&C&?&B&8&@&A&@&A&D&L&W&l&s'!'7'7'7'M'_'|(0$}#|%|&U&{$>!F",
"'_'p'(#'$k'x(!'p'_'V'L'C'@'.' &s&j&X&X&V&L&P&P&<&<&E&:&<&G&O&X&u&u'!'/'1'1'/'B'o(((-$e$-&m&z$;!7",
"&_&=#L#i(7(6(&'}'{'|'v'j'j'a'N'C'.&m&c&b&V&X&V&S&U&W&U&U&Y&m'0'G'E'D'E'<'<';'D'_'q(%'u#q$C'8#y!B",
"$y$/#~(N(](Q(P(L(L(O(Q(M(G(B(=(:(,($'y'r's'z(2(2(4(9(1()('(*(8(@(=(<(:(+(*(3(:(>(H(R(W')$$$M#;!I",
" ~!%#e&2(?(S(X(V(Y(m(n(`(Z(X(X(X(Z(a(`(`(h(j(j(j(j(h(f(d(c(b(_(e(f(j(g([(U(^(i(j(k(m(T(;&1#g!W!=",
" F B ; < M u!*!5!_#<#E!y!w#5#K#[#v$#$+$2$B$^$q$r$j$`$_$d$|$z$S$0$'$*#a#&!h!g!q#!!~!U x V p!) s a",
" X P H J ] e [ O o!,!.!&!2!c!r!m!s!{#$#)#+#3#9#>#?#@#:!p!]!d!V!O!H!R!N!:!+!,!' | }!$!# v R @ ? A",
" c ^ K N l z r g!;!z!e!H!S#/#0#(#1#6#=#B#C#H#N#N#O#U#R#2!o!t!u!j!i!k!n![!E!<!6!-!1!0!/!( T > A C"};
