/* XPM */
static char *button enable.png[] = {
"48 48 879 2",
"  	c #301C0F",
" !	c #331E11",
" #	c #332B29",
" $	c #332C2A",
" %	c #341F12",
" &	c #342E2C",
" '	c #352D2C",
" (	c #362E2C",
" )	c #372F2D",
" *	c #3A3231",
" +	c #3B3432",
" ,	c #3B3A3C",
" -	c #3C3738",
" .	c #3D3432",
" /	c #3D3433",
" 0	c #3D3534",
" 1	c #3E3634",
" 2	c #3E4040",
" 3	c #3F3634",
" 4	c #3F3837",
" 5	c #3F4040",
" 6	c #403736",
" 7	c #403938",
" 8	c #404140",
" 9	c #404141",
" :	c #404143",
" ;	c #413836",
" <	c #413A38",
" =	c #414243",
" >	c #423B37",
" ?	c #433B3A",
" @	c #443B3A",
" A	c #443B3B",
" B	c #443C3A",
" C	c #453C3B",
" D	c #454648",
" E	c #463C3C",
" F	c #464746",
" G	c #47311E",
" H	c #473F3E",
" I	c #474444",
" J	c #484846",
" K	c #493320",
" L	c #494345",
" M	c #494747",
" N	c #494948",
" O	c #494949",
" P	c #4A3421",
" Q	c #4A4A47",
" R	c #4A4C4B",
" S	c #4B4E4E",
" T	c #4C4C4C",
" U	c #4D4E4D",
" V	c #4E4C4B",
" W	c #4E4D4D",
" X	c #4E4E50",
" Y	c #4F3924",
" Z	c #4F4F4E",
" [	c #4F504F",
" ]	c #515151",
" ^	c #525350",
" _	c #535150",
" `	c #535457",
" a	c #545352",
" b	c #545353",
" c	c #545452",
" d	c #554D4C",
" e	c #555254",
" f	c #555556",
" g	c #564E4D",
" h	c #565452",
" i	c #56575B",
" j	c #574E4D",
" k	c #574F4D",
" l	c #584F4E",
" m	c #58504F",
" n	c #59504F",
" o	c #595150",
" p	c #595755",
" q	c #5A5251",
" r	c #5A5959",
" s	c #5A5A59",
" t	c #5B5352",
" u	c #5B5A5C",
" v	c #5B5D5F",
" w	c #5B5F61",
" x	c #5C5A5A",
" y	c #5D5452",
" z	c #5D5553",
" {	c #5D5554",
" |	c #5D5A5B",
" }	c #5E5554",
" ~	c #5E5B5B",
"! 	c #5E5E5B",
"!!	c #5F5655",
"!#	c #5F5C5C",
"!$	c #5F5D5C",
"!%	c #605855",
"!&	c #605B5C",
"!'	c #615857",
"!(	c #615957",
"!)	c #615A57",
"!*	c #616161",
"!+	c #62615F",
"!,	c #626160",
"!-	c #635B59",
"!.	c #636464",
"!/	c #646361",
"!0	c #646362",
"!1	c #646464",
"!2	c #646565",
"!3	c #655C59",
"!4	c #666462",
"!5	c #666666",
"!6	c #666766",
"!7	c #676666",
"!8	c #676766",
"!9	c #676A6B",
"!:	c #684A12",
"!;	c #684B12",
"!<	c #686665",
"!=	c #686769",
"!>	c #686867",
"!?	c #68686A",
"!@	c #69696B",
"!A	c #696A6B",
"!B	c #696A6D",
"!C	c #6A4D13",
"!D	c #6A6A69",
"!E	c #6A6E6D",
"!F	c #6B543A",
"!G	c #6B6A69",
"!H	c #6B6D6F",
"!I	c #6C553A",
"!J	c #6C6B6C",
"!K	c #6D6B6B",
"!L	c #6D6C6C",
"!M	c #6D706F",
"!N	c #6E5015",
"!O	c #6E573C",
"!P	c #6F5116",
"!Q	c #6F511B",
"!R	c #6F6D6D",
"!S	c #6F6F6F",
"!T	c #70593E",
"!U	c #706F71",
"!V	c #707170",
"!W	c #707173",
"!X	c #715A3E",
"!Y	c #725C40",
"!Z	c #727372",
"![	c #737271",
"!]	c #737474",
"!^	c #745E42",
"!_	c #746E6F",
"!`	c #747172",
"!a	c #747373",
"!b	c #755F43",
"!c	c #757371",
"!d	c #757474",
"!e	c #757573",
"!f	c #757776",
"!g	c #767271",
"!h	c #777573",
"!i	c #777777",
"!j	c #787878",
"!k	c #787979",
"!l	c #79777A",
"!m	c #797877",
"!n	c #797878",
"!o	c #797A7A",
"!p	c #797B7A",
"!q	c #7A5C38",
"!r	c #7A7375",
"!s	c #7A7976",
"!t	c #7A7977",
"!u	c #7A7A79",
"!v	c #7A7A7A",
"!w	c #7B5C1E",
"!x	c #7B5C37",
"!y	c #7B7575",
"!z	c #7C5E21",
"!{	c #7C5E22",
"!|	c #7C7A7A",
"!}	c #7C7A7B",
"!~	c #7C7B7A",
"# 	c #7C7E7E",
"#!	c #7D5D1E",
"##	c #7D5D22",
"#$	c #7D7B7B",
"#%	c #7E5F20",
"#&	c #7E5F21",
"#'	c #7E5F25",
"#(	c #7E5F36",
"#)	c #7E7A7B",
"#*	c #7F5F20",
"#+	c #7F7E7D",
"#,	c #806021",
"#-	c #807D7F",
"#.	c #807F82",
"#/	c #816121",
"#0	c #81807F",
"#1	c #818080",
"#2	c #818081",
"#3	c #818181",
"#4	c #818584",
"#5	c #826222",
"#6	c #826C4E",
"#7	c #827E80",
"#8	c #828180",
"#9	c #828181",
"#:	c #828383",
"#;	c #838382",
"#<	c #846F51",
"#=	c #847D7E",
"#>	c #848384",
"#?	c #856533",
"#@	c #856632",
"#A	c #857051",
"#B	c #858584",
"#C	c #858786",
"#D	c #868688",
"#E	c #87807F",
"#F	c #878687",
"#G	c #878786",
"#H	c #878788",
"#I	c #878988",
"#J	c #887354",
"#K	c #897351",
"#L	c #898889",
"#M	c #89898B",
"#N	c #8A6A28",
"#O	c #8A6B41",
"#P	c #8A7556",
"#Q	c #8A8583",
"#R	c #8B6B40",
"#S	c #8B6C41",
"#T	c #8B6D41",
"#U	c #8B7657",
"#V	c #8B8C8D",
"#W	c #8C6B28",
"#X	c #8C6C3E",
"#Y	c #8C6D41",
"#Z	c #8D6D30",
"#[	c #8D6E3B",
"#]	c #8D6E42",
"#^	c #8D6E43",
"#_	c #8D8888",
"#`	c #8D8B8B",
"#a	c #8E6F43",
"#b	c #8E8E90",
"#c	c #8F6F32",
"#d	c #8F8F91",
"#e	c #90702D",
"#f	c #90702F",
"#g	c #907044",
"#h	c #907145",
"#i	c #907B5C",
"#j	c #90908F",
"#k	c #917044",
"#l	c #91712D",
"#m	c #91713D",
"#n	c #917244",
"#o	c #919291",
"#p	c #92722E",
"#q	c #927230",
"#r	c #927331",
"#s	c #927346",
"#t	c #927E5F",
"#u	c #93723A",
"#v	c #93732F",
"#w	c #937F5F",
"#x	c #938E8F",
"#y	c #947430",
"#z	c #948060",
"#{	c #957530",
"#|	c #95753C",
"#}	c #959091",
"#~	c #959696",
"$ 	c #967647",
"$!	c #968262",
"$#	c #96918B",
"$$	c #978463",
"$%	c #979494",
"$&	c #979696",
"$'	c #97979A",
"$(	c #988564",
"$)	c #98999A",
"$*	c #99794A",
"$+	c #997A4A",
"$,	c #998665",
"$-	c #9A8766",
"$.	c #9A999A",
"$/	c #9A9B9C",
"$0	c #9A9C9D",
"$1	c #9B7A35",
"$2	c #9B7B4B",
"$3	c #9B7B4C",
"$4	c #9B7C4C",
"$5	c #9B9B9B",
"$6	c #9B9D9F",
"$7	c #9C7C4C",
"$8	c #9C8968",
"$9	c #9C9897",
"$:	c #9D7D40",
"$;	c #9D9B9A",
"$<	c #9E7D4C",
"$=	c #9E7D4D",
"$>	c #9E7E38",
"$?	c #9E7E4D",
"$@	c #9E8B6A",
"$A	c #9F7F39",
"$B	c #9F7F46",
"$C	c #9F7F4E",
"$D	c #9F8D6C",
"$E	c #9F9F9D",
"$F	c #A07F4F",
"$G	c #A0804F",
"$H	c #A08E6C",
"$I	c #A08E6D",
"$J	c #A0A09E",
"$K	c #A0A0A2",
"$L	c #A17E47",
"$M	c #A17F3A",
"$N	c #A1804F",
"$O	c #A18050",
"$P	c #A18F6E",
"$Q	c #A19D9D",
"$R	c #A1A1A1",
"$S	c #A28251",
"$T	c #A29070",
"$U	c #A29D9D",
"$V	c #A2A1A1",
"$W	c #A38352",
"$X	c #A39171",
"$Y	c #A39F9D",
"$Z	c #A39F9F",
"$[	c #A3A1A1",
"$]	c #A3A3A1",
"$^	c #A49272",
"$_	c #A4A0A2",
"$`	c #A4A1A2",
"$a	c #A5834D",
"$b	c #A58451",
"$c	c #A5A2A3",
"$d	c #A5A3A1",
"$e	c #A68551",
"$f	c #A6926E",
"$g	c #A69474",
"$h	c #A6A4A5",
"$i	c #A78450",
"$j	c #A78655",
"$k	c #A7AAA8",
"$l	c #A88654",
"$m	c #A88655",
"$n	c #A88B48",
"$o	c #A88E5F",
"$p	c #A89676",
"$q	c #A8A7A8",
"$r	c #A98654",
"$s	c #A98755",
"$t	c #A98856",
"$u	c #A9A7A9",
"$v	c #A9A8A8",
"$w	c #AA8856",
"$x	c #AA9979",
"$y	c #AAA8A9",
"$z	c #AB8A57",
"${	c #AB8A58",
"$|	c #AB9A7A",
"$}	c #AC8956",
"$~	c #AC8A57",
"% 	c #AC8A58",
"%!	c #AC8B55",
"%#	c #AC8B58",
"%$	c #AC8B59",
"%%	c #ACAAAA",
"%&	c #ACAEAD",
"%'	c #AD8750",
"%(	c #AD8953",
"%)	c #AD8A56",
"%*	c #AD8B59",
"%+	c #AD8C59",
"%,	c #AD8C5A",
"%-	c #AD8D5A",
"%.	c #AD9C7C",
"%/	c #AE8851",
"%0	c #AE8953",
"%1	c #AE8A54",
"%2	c #AE8A55",
"%3	c #AE8C58",
"%4	c #AE8D5A",
"%5	c #AE8D5B",
"%6	c #AEB1B0",
"%7	c #AF8A52",
"%8	c #AF8A53",
"%9	c #AF8A54",
"%:	c #AF8C56",
"%;	c #AF8C57",
"%<	c #AF8E5A",
"%=	c #AF8E5B",
"%>	c #AFADAE",
"%?	c #B08A53",
"%@	c #B08B53",
"%A	c #B08C55",
"%B	c #B08E5A",
"%C	c #B08F5A",
"%D	c #B09F80",
"%E	c #B0AFAE",
"%F	c #B0B0B0",
"%G	c #B18B53",
"%H	c #B18C53",
"%I	c #B18C54",
"%J	c #B18D54",
"%K	c #B18D55",
"%L	c #B18D56",
"%M	c #B18E5A",
"%N	c #B19049",
"%O	c #B19056",
"%P	c #B1A081",
"%Q	c #B1B1B2",
"%R	c #B28D54",
"%S	c #B28E55",
"%T	c #B29054",
"%U	c #B2AFAF",
"%V	c #B38E54",
"%W	c #B38F55",
"%X	c #B38F56",
"%Y	c #B39057",
"%Z	c #B39058",
"%[	c #B39352",
"%]	c #B3A384",
"%^	c #B48E55",
"%_	c #B48F54",
"%`	c #B48F55",
"%a	c #B48F56",
"%b	c #B49055",
"%c	c #B49056",
"%d	c #B49057",
"%e	c #B49157",
"%f	c #B49C6B",
"%g	c #B59156",
"%h	c #B59157",
"%i	c #B5915C",
"%j	c #B59259",
"%k	c #B59656",
"%l	c #B5A586",
"%m	c #B69257",
"%n	c #B69258",
"%o	c #B69358",
"%p	c #B69359",
"%q	c #B6935A",
"%r	c #B6945A",
"%s	c #B69A66",
"%t	c #B6A687",
"%u	c #B6B2B0",
"%v	c #B6B2B3",
"%w	c #B6B2B4",
"%x	c #B79458",
"%y	c #B79459",
"%z	c #B7945A",
"%{	c #B7955A",
"%|	c #B7955B",
"%}	c #B7B4B4",
"%~	c #B7B8B7",
"& 	c #B8925A",
"&!	c #B89357",
"&#	c #B89458",
"&$	c #B89459",
"&%	c #B89559",
"&&	c #B8955A",
"&'	c #B89853",
"&(	c #B8B5B4",
"&)	c #B8B6B7",
"&*	c #B8B8BA",
"&+	c #B8B9BA",
"&,	c #B99659",
"&-	c #B9965A",
"&.	c #B9975B",
"&/	c #B99B61",
"&0	c #BA985B",
"&1	c #BA985C",
"&2	c #BA9A5E",
"&3	c #BA9B60",
"&4	c #BAB7B6",
"&5	c #BAB9B8",
"&6	c #BB995B",
"&7	c #BB995C",
"&8	c #BB9A54",
"&9	c #BB9A55",
"&:	c #BB9A5E",
"&;	c #BB9B5E",
"&<	c #BB9B60",
"&=	c #BC9A5C",
"&>	c #BC9A5D",
"&?	c #BC9B5D",
"&@	c #BC9B5E",
"&A	c #BC9D5A",
"&B	c #BD9A5C",
"&C	c #BD9B5D",
"&D	c #BD9C5D",
"&E	c #BD9C5E",
"&F	c #BD9D5C",
"&G	c #BD9D5F",
"&H	c #BDAF90",
"&I	c #BDB9B9",
"&J	c #BDBBBB",
"&K	c #BE9C5E",
"&L	c #BE9D5E",
"&M	c #BE9D5F",
"&N	c #BE9E5E",
"&O	c #BE9E5F",
"&P	c #BE9F5F",
"&Q	c #BEA677",
"&R	c #BEAD8B",
"&S	c #BEB092",
"&T	c #BEBBBB",
"&U	c #BEC0BF",
"&V	c #BF9D5F",
"&W	c #BFA165",
"&X	c #BFAD87",
"&Y	c #BFB18F",
"&Z	c #BFB193",
"&[	c #BFBDBF",
"&]	c #C09E5F",
"&^	c #C09F60",
"&_	c #C0A060",
"&`	c #C0A061",
"&a	c #C0B294",
"&b	c #C0C0C2",
"&c	c #C1A161",
"&d	c #C1A162",
"&e	c #C1A263",
"&f	c #C1A365",
"&g	c #C1A366",
"&h	c #C1B396",
"&i	c #C1B497",
"&j	c #C1C1C1",
"&k	c #C2A161",
"&l	c #C2A262",
"&m	c #C2A263",
"&n	c #C2A35C",
"&o	c #C2A466",
"&p	c #C2A467",
"&q	c #C2A568",
"&r	c #C3A464",
"&s	c #C3A465",
"&t	c #C3A567",
"&u	c #C3A668",
"&v	c #C4A365",
"&w	c #C4A666",
"&x	c #C4A769",
"&y	c #C4A86A",
"&z	c #C4C2C2",
"&{	c #C59F60",
"&|	c #C5A763",
"&}	c #C5A869",
"&~	c #C5A86A",
"' 	c #C5C6C8",
"'!	c #C6A465",
"'#	c #C6A869",
"'$	c #C6AA69",
"'%	c #C6AA6B",
"'&	c #C6B99D",
"''	c #C7AB6B",
"'(	c #C7BA9E",
"')	c #C7C7C9",
"'*	c #C8A669",
"'+	c #C8AC6C",
"',	c #C8AD6E",
"'-	c #C8AE6F",
"'.	c #C8BB9F",
"'/	c #C8BCA1",
"'0	c #C8C8C8",
"'1	c #C9AE6D",
"'2	c #C9AE6F",
"'3	c #C9AF6F",
"'4	c #C9AF70",
"'5	c #CAAF70",
"'6	c #CBB171",
"'7	c #CBC9CB",
"'8	c #CCAF6E",
"'9	c #CCCBCD",
"':	c #CDB171",
"';	c #CDC2A7",
"'<	c #CEAF6C",
"'=	c #CEC3A8",
"'>	c #CECDCF",
"'?	c #CFD1CF",
"'@	c #D0CECF",
"'A	c #D0D2D1",
"'B	c #D1B16F",
"'C	c #D2B370",
"'D	c #D3D2D2",
"'E	c #D3D4D5",
"'F	c #D3D4D6",
"'G	c #D4D3D5",
"'H	c #D4D4D5",
"'I	c #D5D5D8",
"'J	c #D6CCB4",
"'K	c #D6D4D5",
"'L	c #D6D4D6",
"'M	c #D6D5D5",
"'N	c #D7CEB6",
"'O	c #D7D6D8",
"'P	c #D7D7D7",
"'Q	c #D7D7D8",
"'R	c #D8D7D8",
"'S	c #D8D8D9",
"'T	c #D9CFB7",
"'U	c #D9D0B8",
"'V	c #D9D0B9",
"'W	c #D9D8D8",
"'X	c #D9D8DA",
"'Y	c #D9D9D9",
"'Z	c #DAD1BA",
"'[	c #DAD9DA",
"']	c #DADADA",
"'^	c #DADBDC",
"'_	c #DBD2BC",
"'`	c #DBDADA",
"'a	c #DBDADB",
"'b	c #DBDBDA",
"'c	c #DBDBDB",
"'d	c #DCD3BD",
"'e	c #DCD4BE",
"'f	c #DCDBDA",
"'g	c #DCDBDE",
"'h	c #DCDCDD",
"'i	c #DDD5C0",
"'j	c #DDDBDE",
"'k	c #DDDCDB",
"'l	c #DDDDDC",
"'m	c #DDDDDD",
"'n	c #DDDDDE",
"'o	c #DDDDDF",
"'p	c #DDDEDF",
"'q	c #DED6C1",
"'r	c #DED9D7",
"'s	c #DEDADC",
"'t	c #DEDBDA",
"'u	c #DEDBDC",
"'v	c #DEDCDC",
"'w	c #DEDCDD",
"'x	c #DEDCDE",
"'y	c #DEDDDD",
"'z	c #DEDDDE",
"'{	c #DEDDDF",
"'|	c #DEDEDE",
"'}	c #DEDEDF",
"'~	c #DFDBDB",
"( 	c #DFDCDC",
"(!	c #DFDDDD",
"(#	c #DFDDDE",
"($	c #DFDDDF",
"(%	c #DFDEDD",
"(&	c #DFDEDE",
"('	c #DFDEDF",
"((	c #DFDEE0",
"()	c #DFDEE1",
"(*	c #DFDFDF",
"(+	c #DFDFE0",
"(,	c #E0D9C4",
"(-	c #E0DEDF",
"(.	c #E0DFDF",
"(/	c #E0DFE0",
"(0	c #E0DFE1",
"(1	c #E0E0DA",
"(2	c #E0E0E0",
"(3	c #E0E0E1",
"(4	c #E1DAC5",
"(5	c #E1DFE0",
"(6	c #E1DFE1",
"(7	c #E1E0E0",
"(8	c #E1E0E1",
"(9	c #E1E0E2",
"(:	c #E1E1E1",
"(;	c #E1E1E2",
"(<	c #E1E2E2",
"(=	c #E2C685",
"(>	c #E2C888",
"(?	c #E2DBC7",
"(@	c #E2E0E0",
"(A	c #E2E0E1",
"(B	c #E2E0E2",
"(C	c #E2E1E1",
"(D	c #E2E1E2",
"(E	c #E2E1E3",
"(F	c #E2E2E3",
"(G	c #E2E3E4",
"(H	c #E3DCC8",
"(I	c #E3E0E2",
"(J	c #E3E1E1",
"(K	c #E3E1E2",
"(L	c #E3E2E2",
"(M	c #E3E2E3",
"(N	c #E3E2E4",
"(O	c #E3E3E3",
"(P	c #E3E3E4",
"(Q	c #E3E3E5",
"(R	c #E3E3E6",
"(S	c #E3E4E1",
"(T	c #E4E2E3",
"(U	c #E4E3E3",
"(V	c #E4E3E4",
"(W	c #E4E3E5",
"(X	c #E4E4E4",
"(Y	c #E4E4E5",
"(Z	c #E4E4E6",
"([	c #E4E4E7",
"(]	c #E5DFCC",
"(^	c #E5E1E1",
"(_	c #E5E1E3",
"(`	c #E5E3E2",
"(a	c #E5E3E4",
"(b	c #E5E4E3",
"(c	c #E5E4E4",
"(d	c #E5E4E5",
"(e	c #E5E4E7",
"(f	c #E5E5E5",
"(g	c #E5E5E6",
"(h	c #E6E0CE",
"(i	c #E6E4E2",
"(j	c #E6E4E4",
"(k	c #E6E4E5",
"(l	c #E6E4E6",
"(m	c #E6E5E4",
"(n	c #E6E5E5",
"(o	c #E6E5E6",
"(p	c #E6E5E7",
"(q	c #E6E6E6",
"(r	c #E6E6E7",
"(s	c #E6E8E7",
"(t	c #E7E1CF",
"(u	c #E7E4E5",
"(v	c #E7E5E4",
"(w	c #E7E5E6",
"(x	c #E7E5E7",
"(y	c #E7E6E3",
"(z	c #E7E6E6",
"({	c #E7E6E7",
"(|	c #E7E7E7",
"(}	c #E7E7E8",
"(~	c #E8E5E4",
") 	c #E8E5E6",
")!	c #E8E5E7",
")#	c #E8E6E6",
")$	c #E8E6E7",
")%	c #E8E6E8",
")&	c #E8E7E7",
")'	c #E8E7E8",
")(	c #E8E7E9",
"))	c #E8E8E7",
")*	c #E8E8E9",
")+	c #E8E9E7",
"),	c #E9E4D3",
")-	c #E9E6E8",
").	c #E9E7E7",
")/	c #E9E7E8",
")0	c #E9E7E9",
")1	c #E9E8E8",
")2	c #E9E8E9",
")3	c #E9E8EA",
")4	c #E9E9E9",
")5	c #E9E9EA",
")6	c #EAE5D5",
")7	c #EAE7E9",
")8	c #EAE8E9",
")9	c #EAE8EA",
"):	c #EAE9E9",
");	c #EAE9EA",
")<	c #EAEAEA",
")=	c #EBE6D6",
")>	c #EBE8E9",
")?	c #EBE9EA",
")@	c #EBEAE9",
")A	c #EBEAEA",
")B	c #EBEAEB",
")C	c #EBEAEC",
")D	c #EBEBEC",
")E	c #ECEAE7",
")F	c #ECEAEC",
")G	c #ECEBEB",
")H	c #ECEBEC",
")I	c #ECECEB",
")J	c #ECECEC",
")K	c #EDEAEB",
")L	c #EDEBEC",
")M	c #EDECEC",
")N	c #EDECED",
")O	c #EDECEE",
")P	c #EDEDED",
")Q	c #EEECEC",
")R	c #EEECED",
")S	c #EEECEE",
")T	c #EEEDEF",
")U	c #EEEEEF",
")V	c #EEEEF0",
")W	c #EFECED",
")X	c #EFECEE",
")Y	c #EFEDEE",
")Z	c #EFEDEF",
")[	c #EFEEED",
")]	c #EFEEEF",
")^	c #EFEFEF",
")_	c #EFEFF0",
")`	c #EFF0EF",
")a	c #F0EDEF",
")b	c #F0EEEF",
")c	c #F0EEF0",
")d	c #F0EFEF",
")e	c #F0EFF0",
")f	c #F0F0F1",
")g	c #F0F1F1",
")h	c #F0F2F3",
")i	c #F1EEF0",
")j	c #F1EFF0",
")k	c #F1EFF1",
")l	c #F1F0F0",
")m	c #F1F0F2",
")n	c #F1F1F1",
")o	c #F1F1F2",
")p	c #F2EFF1",
")q	c #F2F0F0",
")r	c #F2F0F2",
")s	c #F2F1F1",
")t	c #F2F1F2",
")u	c #F2F2F3",
")v	c #F3EDEE",
")w	c #F3F2F4",
")x	c #F3F3F4",
")y	c #F3F4F3",
")z	c #F3F5F9",
"){	c #F4F3F4",
")|	c #F4F4F4",
")}	c #F4F5F6",
")~	c #F5F3F3",
"* 	c #F5F4F3",
"*!	c #F5F4F4",
"*#	c #F5F5F4",
"*$	c #F5F5F7",
"*%	c #F5F6F5",
"*&	c #F6F4F3",
"*'	c #F6F4F5",
"*(	c #F6F5F6",
"*)	c #F6F5F7",
"**	c #F6F6F7",
"*+	c #F8F5F6",
"*,	c #F8F6F7",
"*-	c #F8F6F8",
"*.	c #F8F7F8",
"*/	c #F8F9F7",
"*0	c #F8FAFE",
"*1	c #F9F6F8",
"*2	c #F9F9F9",
"*3	c #F9F9FB",
"*4	c #FAF8F9",
"*5	c #FAFBFD",
"*6	c #FBFBFE",
"*7	c #FBFCFD",
"*8	c #FCFAFA",
"*9	c #FCFAFB",
"*:	c #FCFDFC",
"*;	c #FDFAFA",
"*<	c #FDFCFD",
"*=	c #FDFDFD",
"*>	c #FEFAFA",
"*?	c #FEFBFB",
"*@	c #FEFBFC",
"*A	c #FEFCFC",
"*B	c #FEFCFD",
"*C	c #FEFDFC",
"*D	c #FEFDFE",
"*E	c #FEFEFD",
"*F	c #FEFEFE",
"*G	c #FEFFFE",
"*H	c #FFFEF9",
"*I	c #FFFEFF",
"*J	c #FFFFFE",
"$&#~$0'K(n(d(k(2'^(P)S)Z)N({(g)N)L(d()'g(/(q)*(}'l'b'`'c'z(.(.(.(.(/(D(N(W)');(g(M(M(R'M w `!A!Z",
"$.$.$6'H(x(x(k(C(+(V)F)L)H(r(g)B)8(('I'F'Q'a'o'p'X'S'Y']'y(/(2(8(A(B(N(N(W({).(V(M(V(r'A v!f# !a",
"&+%Q$K&j(p(}(n(X(M(a({)')'(o(Y(o(5'D' ')'9'7'>'G'O'R'R'`'|(2(3(A(A(I(V(V(M(L(@(-(J(~))$k#4(1$V!`",
")2(f'0$['@)3(}(g(U(b(o(o(o(o(X(O(/'['P#<#<#<#<#<!F!F!F!F!F(/(3(8(A(9(9'h'Q'K'L'u(m)+'?%F(S)E$h!J",
")D)<(s$($!$$$!$!$-$D$D$-#U#A#<!F!F#<#<$D$D$D$D$D$D$D$D$D#<!F!F!F!F!F!F!F!F!F!F!F!F!F!F!F!F(v%>!@",
")C)5$!*H*H*H*H*H(4(H(?'&&a&S#<#<$D&S&S&S&S&S&S$D$D$D$D$D$D$D$D#<!F!F$D&S&S&S&S&S&S&S&S&S&S!F&[!l",
")9(r#z*H'Z$D!Y%P(H';'.&i#<#<$D&S&S&S&S$D!F G G     G    !F#<$D$D$D#<!F!F$D&S&S&S$D#<!F$D$D!F&z#2",
"(c'{#z*H$I*H%D#i'='/&h#<$D&S&S&S$D!F G!F G G G     G          !F#<$D$D#<!F$D&S&S#<'Z$D!F$D!F&(!5",
")@(0#w*H Y(,%t!b%D$^#<$D&S&S$D!F G G!F!F G G G     G              !F#<$D#<!F$D&S G$D#< G#<!F$d ^",
"){(e#w*H'(!b!b%P$^#<$D&S$D!F G G G G!F!F G G G     G                !F#<$D#<!F&S$D G G#<$D!F$q!6",
"){([#t*H*H*H(4&i#<$D&S$D!F   G G G G!F!F G G G     G                  !F#<$D#<!F#<$D$D&S&S!F!( >",
")u(Q$$*H*H(?'i#<$D&S$D!F     G G G G!F G!N#/#e#e#e#e#5!P                !F$D$D#<!F$D&S&S&S!F!) 6",
")b(E$8*H(?'q&Z#<&S&S!F       G G  !C#,#Z#?#(!x!q#R#Y#T#R#X#@!Q %          #<$D$D!F#<$D&S&S!F z .",
")7'z$,(?(,'i#<$D&S$D          !;#&#c#[#a#Y#O#S#S#S#^#^#^#h$2$+#m#' !        $D$D#<!F$D$D&S!F q 3",
"(a'h#w(,(4*H#<&S&S!F      !:!w#f#u#g$ $?#s#a#a#a#a$7$7$<$*#]#a#n#k#|##      !F$D$D!F#<$D$D!F o ;",
")J(P#w(?*H(,$D&S'Z      !:!w#q$B$}$W$S$G$F$N$N$N$N$F$C$3$4$=$N$G$O$b$a!{      &S$D#<!F$D$D!F m <",
"*#)<$@*H*H#<$D'Z'Z    !:!w#e$L%i$~% %*%+%#%#$s$r$s$s$l$O$S$j%#${%)$i%9%T#!    &S$D#<!F$D$D!F q ?",
"* (|$D*H*H#<$D'Z'V  !:!w#e$:%B% % % %*$z$w$t$l$z$l$l$m%*%,%=%M%Z%c%R%G%^&F#!  &S&S#<!F$D$D!F t B",
")~(o$$*H*H#<$D'Z'Z  !w#e#e$e%4%-%4%5%4%+%#%L%3%,%$%(%0%A%:%5%;%b%V%?%W%H& &n  &S&S#<!F$D$D!F t C",
"*&(}#P*H*H!F$D'Z'Z!:!w#e#v%b&E&@&1%2%4%4%4%<%Y&>&E&C&7%7%J%d%c%g%c%I%I%@%H(=!z&S&S#< G$D$D!F { @",
"* )4#A*H*H!F#<'Z'Z!:#!#l$1%H%S%X%X%S%K%c%h&?%x%J%I&L&L&E&C&K&V&L&L&D&u&~&O(>#r&S&S G G$D$D!F!' A",
")|)4!I*H*H!F#<&S'Z$D#%#p$A%8&@&y&~&y&o&B&>&C%R%?%?%?%@%a%J%n&]&^&`&d%p%d&_&|#<&S$D G G$D$D!F!- E",
"*!)J!F*H*H!F#<$T'Z'Z#*#{$M%!%C%j&&%j&0%z%q%r%|%e%c%c%c%o&l&r&m'''4'-'2'3'1#y&S&S$D G G$D$D G!3 H",
"*')P!F*H*H$D!F#<&S'Z$D#N$>&A'8'6'6'5'%'+&x&p&q&G&=&=&=&0&:&g&W&t&}','2':$n#<&S&S G G!F$D$D G!% 7",
"*();!F*H*H'd!F!F$T'Z'Z$D#W%N&v'!&3&2&,&%%G%'%/%H%7&0&.%y%m%{&<&f&]&e'<%k#<&S'Z$D G G$D$D$D G n &",
")j(o!F*H*H*H%]!F!F$T'Z'Z$D#y&9'*&{&$%_%`%W%b%`%`%`&-&-&6&c&l&w&s'#'C%[#K'Z'Z$D G G!F$D$D$D G l )",
")8(P!O*H*H*H(]!F!F!F$T'Z'Z'Z$D&8'B&k&B%H%J%J%J%I%I%H%H%I%c%W%S&!&d%f&Y'Z'Z$D G G G$D$D$D&S G k (",
")'(l#J*H*H),(H$X!F!F!F$T'Z'Z'Z'Z$H&'%O$l%1%@%@%W%b%b%b%b%`&#&?%s&X'T'Z'Z$D G G G!F$D$D$D&S G d #",
"(g(o$X*H)6(]'e'Z$D!F!F!F$T&S'Z'Z'Z'Z&H$f$o'$&P&M&N&N&V&;&/&Q&R'U'Z'Z&S!F G G G!F$D$D$D&S&S G g $",
"(M(V%.)6(h$x!I$D&S$P!T!O!I!F$T&S'Z'Z'Z'Z&S&S'Z'Z&S&S&S'Z'Z'Z'Z'Z&S!F G G G G!F$D$D#<!F$D$D G m '",
"(E(V$p(]$|*H$D!F&a'&%l#6!X!F#<#<#<!F#<&S&S'Z'Z&S&S&S'Z'Z&S$D G G G G G G G!F$D$D#<'Z$D!F$D G o '",
"(d(n#w'q K'Z$D P%P'J),(]$g!I#<#<#<!F!F!F!F!F G G!F G G G G G G G G G G!F$D$D$D&S G$D#< G#< G m '",
"(o(z!^'_&S G K%D'N)=*H*H*H'Z$D#<#<!F!F!F!F!F G G!F G G G G G G G G!F$D$D$D&S&S&S$D G G#<$D G j *",
"(l(o!F'Z'Z'Z'e(h)6*H*H*H*H*H*H'Z&S$D#<!F!F!F G G!F G G G G!F$D&S&S&S&S&S&S&S&S&S&S&S&S&S&S G y 1",
"(x(} G'Z'Z'd(4(t*H*H*H*H*H*H*H*H*H*H*H*H*H*H*H*H*H*H*H*H'Z*H*H*H'Z'Z&S'Z*H'Z&S'Z'Z&S&S&S&S  !! 1",
")/)2 G     G G     G G G G!F!F G G G G G G G G!F G!F!F!F G G   G     G!F!F G!F!F G       G   { +",
")2)2 G     G G     G G G G!F!F G G G G G G G G!F G!F!F!F G G   G     G!F!F G!F!F G       G   { /",
")2): G     G G     G G G G!F!F G G G G G G G G!F G!F!F!F G G   G     G!F!F G!F!F G       G   { 0",
"):): G     G G     G G G G!F!F G G G G G G G G!F G!F!F!F G G   G     G!F!F G!F!F G       G   } 4",
")A)A)I)^'l$)'j)i)$) (u(c(a(T(I(6(*'n'm'k'f( 't'v'v'w'w'w'x('(7(L(`(j) )!)$)8)?)p&b%6(Z(w(@(B$v!M",
")B)H)['W$/'E)u)X)>)-)$(o(k(a(M(K(C(7(/(-(&(!(%'y(#($(#($('(/(:(O(V(d(x(x(x)0)?)X)k&U$E'c(8(_$y!E",
")?)L(i#.&*)T)])L)?)8)/)&)#(o(c(V(M(;(;(9(/(3(3'}'}(('{'}(*(2(;(X(X(d(p(r(r(p)%)K)c)h%~$](P(^$u!9",
"(C'~#`$')r)q)a)Y)W)X)R)G)G)A)1)&(o(P(G(F(9(;(9(6(8(:(8(8(<(P(q)*)()')((}(}(|)')?)M)`)Q$5%&(y$;!B",
"&I$_$J*+*9*.*-*)*)*,*.***$)})x)u)g)_)U)N)O)V)m)m)o)t)l)d)b)e)s){)x)w)u)f)e)n)u)y*%*/*4(j$R%E#D!H",
" u ~$#'s)z*0*5*3*6*I*J*<*7*5*5*5*7*=*<*<*D*F*F*F*F*D*B*@*?*>*;*A*B*F*C*8*2*:*E*F*G*I*1)v'r$%!W!?",
" D : , - L f!*!7!_#E#Q!|!y#=#_#x$9$Q$Z$c%%%u&4&5&)%w%v%}&T&J%U$`$U$Y#}#-!h!g!r#)#$!U i S b!& e X",
" T O F I V [ U N a!,!/! !4!c!s!m!t!~#+#1#3#;#B#G#H#I#C!p!]!d!V!L!G!R!K!<!+!,!# r s | x h Q 8 5 9",
" Z W J M _ p c ]!=!}!e!G!S#7#8#0#9#>#F#L#M#V#b#b#d#o#j#:!o!u!v!j!i!k!n![!D!>!8!.!2!1!0!$ R 2 9 ="};
