/* XPM */
static char *_0827c8ac19a46daf71d9e78cbf92feepmJo0Nd99NTNHBiV[] = {
/* columns rows colors chars-per-pixel */
"84 72 134 2 ",
"   c None",
".  c #040404",
"X  c #080707",
"o  c #070807",
"O  c #0A0A0A",
"+  c #131313",
"@  c #1C1B1C",
"#  c #232323",
"$  c #2C2C2C",
"%  c #333333",
"&  c #3B3B3B",
"*  c #454545",
"=  c #4D4D4D",
"-  c #535253",
";  c #5C5B5C",
":  c gray40",
">  c #686767",
",  c #6D6D6D",
"<  c #747373",
"1  c #7E7E7E",
"2  c #D11F3C",
"3  c #D2203D",
"4  c #D32643",
"5  c #D32A46",
"6  c #D42D49",
"7  c #D5324D",
"8  c #D63650",
"9  c #D73A54",
"0  c #D83E57",
"q  c #D73E58",
"w  c #D83F58",
"e  c #D9445C",
"r  c #D94760",
"t  c #DA4B63",
"y  c #DB5067",
"u  c #DB5269",
"i  c #DD596F",
"p  c #DE5D72",
"a  c #DE6176",
"s  c #DF6478",
"d  c #E0677B",
"f  c #E16B7E",
"g  c #E16F82",
"h  c #E27385",
"j  c #E37689",
"k  c #E47C8D",
"l  c #848383",
"z  c #8B8A8B",
"x  c #939292",
"c  c #989798",
"v  c #9E9D9E",
"b  c #A3A3A3",
"n  c #ADACAD",
"m  c #B3B2B2",
"M  c #B8B7B8",
"N  c #BAB9BA",
"B  c #E58394",
"V  c #E78C9B",
"C  c #E894A2",
"Z  c #EA99A6",
"A  c #EB9DAA",
"S  c #ECA3AE",
"D  c #ECA5B1",
"F  c #EDAAB5",
"G  c #EEADB9",
"H  c #EEB1BC",
"J  c #F0BCC5",
"K  c #F1BFC8",
"L  c #C2C2C2",
"P  c gray80",
"I  c #D5D4D4",
"U  c #DBDBDB",
"Y  c #F2C2CB",
"T  c #F3C8CF",
"R  c #F4CBD2",
"E  c #F5D1D7",
"W  c #F5D4DA",
"Q  c #F6D8DD",
"!  c #F7DADF",
"~  c #F7D9DE",
"^  c #F7DCE1",
"/  c #F7DDE2",
"(  c #F8DFE3",
")  c #F8DEE2",
"_  c #E4E4E4",
"`  c #E5E4E5",
"'  c #E6E6E6",
"]  c #E4E3E3",
"[  c #E8E6E7",
"{  c #E8E7E7",
"}  c #E8E7E8",
"|  c #E9E9E9",
" . c gray92",
".. c #EFEFEF",
"X. c #EAEAEA",
"o. c #F8E0E4",
"O. c #F8E1E5",
"+. c #F8E1E6",
"@. c #F8E2E7",
"#. c #F8E3E7",
"$. c #F9E2E6",
"%. c #F9E5E9",
"&. c #F9E6EA",
"*. c #FAE6E9",
"=. c #FAEAED",
"-. c #FBEFF2",
";. c gray97",
":. c #F4F4F4",
">. c #FBF5F6",
",. c #FCF4F5",
"<. c #FCF4F6",
"1. c #FDF5F7",
"2. c #FCF4F6",
"3. c #F9F7F8",
"4. c #FCF6F8",
"5. c #FDF6F8",
"6. c #FCF7F8",
"7. c #FCF7F9",
"8. c gray98",
"9. c #FDF8F9",
"0. c #FCF9FA",
"q. c #FEF9FB",
"w. c #FDFBFC",
"e. c #FDFCFD",
"r. c #FDFDFD",
"t. c #FEFCFD",
"y. c #FDFDFE",
"u. c #FEFCFE",
"i. c #FEFDFE",
"p. c #FFFEFE",
"a. c #FEFEFF",
"s. c #FEFFFF",
"d. c white",
"f. c #FFFFFF",
/* pixels */
"                                                                                                                                                                        ",
"                                                                                                                                                                        ",
"                                                                                                                                                                        ",
"                                      O O . # % % % $ + . O O .                                             O O . + $ # O O . O O O                                     ",
"                              O O . $ , L :.d.d.d.d.d.d.[ m z * . O                                 . . + & > m :.d.d.d.d.d.:.I m z % . O O                             ",
"                            O c P d.d.d.d.d.d.d.d.d.d.d.d.d.d.d.d.n # O                           . ; ' d.d.d.d.d.d.d.d.d.d.d.d.d.d.d.d.L b O                           ",
"                        O # | d.d.d.d.d.5.@.W J Y R Q %.%.,.d.d.d.d.d.b O o                   O O ' d.d.d.d.d.5.R Y Y Y Y W Q @.d.d.d.d.d.d.| $ .                       ",
"                      . n d.d.d.d.9.Y V a t e 8 9 0 e u u p Z @.d.d.d.d.d.b .               . n d.d.d.d.d.E Z a 0 8 9 9 9 e e t j G @.d.d.d.d.d.' @                     ",
"                  . + } d.d.d.J B a 8 7 w e t t t t t e e 0 6 t k R d.d.d.d.U O         . # | d.d.d.-.A h e 7 0 t t t t t t t e 8 7 t f A @.d.d.d.| #                   ",
"                . * | d.d.9.j 7 6 w t y y y y y y y y y y y y e 6 8 B @.d.d.d.| O     O * 8.d.d.d.S y 5 8 t y y y y y y y y y y y y e 8 6 q H d.d.d.| .                 ",
"              . ; d.d.d.,.p 7 t y y y y y y y y y y y y y y y y y t 7 w C d.d.d.| . O > d.d.d.,.g 5 q y y y y y y y y y y y y y y y y y y e 4 A d.d.d.| O               ",
"              + ..d.d.d.s 5 y y y y y y y y y y y y y y y y y y y y y e 6 B d.d.d.3.n d.d.d.9.d 6 t y y y y y y y y y y y y y y y y y y y y e 7 H d.d.d.| .             ",
"            . b d.d.5.a 7 y y y y y y y y y y y y y y y y y y y y y y y t 3 V d.d.d.d.w.d.%.u 8 y y y y y y y y y y y y y y y y y y y y y y u e 6 Y d.d.d.m .           ",
"            # d.d.d.h 5 y y y y y y y y y y y y y y y y y y y y y y y y y t 7 Z d.d.d.d.( y 6 y y y y y y y y y y y y y y y y y y y y y y y y u 0 e R d.d.d.+           ",
"          . ' d.d.C 5 y y y y y y y y y y y y y y y y y y y y y y y y y y y t 4 Z d.d.Q e 8 u y y y y y y y y y y y y y y y y y y y y y y y y y u 8 9 ^ d.d.l .         ",
"          ; d.d.R 7 t y y y y y y y y y y y y y y y y y y y y y y y y y y y y t 8 B Z y 9 u y y y y y y y y y y y y y y y y y y y y y y y y y y y y 8 p 9.d.:..         ",
"        O I d.d.V 6 y y y y y y y y y y y y y y y y y y y y y y y y y y y y y y t 8 7 e u y y y y y y y y y y y y y y y y y y y y y y y y y y y y y t 6 H d.d.> .       ",
"        & d.d.@.e t y y y y y y y y y y y y y y y y y y y y y y y y y y y y y y y y y y y y y y y y y y y y y y y y y y y y y y y y y y y y y y y y y 7 k d.d.U .       ",
"      O x d.d.C 6 y y y y y y y y y y y y y y y y y y y y y y y y y y y y y y y y y y y y y y y y y y y y y y y y y y y y y y y y y y y y y y y y y y e i >.d.d.$       ",
"      O U d.9.i w y y y y y y y y y y y y y y y y y y y y y y y y y y y y y y y y y y y y y y y y y y y y y y y y y y y y y y y y y y y y y y y y y y y 7 J d.d.< .     ",
"      O d.d.^ e t y y y y y y y y y y y y y y y y y y y y y y y y y y y y y y y y y y y y y y y y y y y y y y y y y y y y y y y y y y y y y y y y y y y 7 B d.d.,       ",
"      + d.d.Y 9 t y y y y y y y y y y y y y y y y y y y y y y y y y y y y y y y y y y y y y y y y y y y y y y y y y y y y y y y y y y y y y y y y y y y e p 5.d.,       ",
"      # d.d.G 8 t y y y y y y y y y y y y y y y y y y y y y y y y y y y y y y y y y y y y y y y y y y y y y y y y y y y y y y y y y y y y y y y y y y y t e W d.,       ",
"      - d.d.Z 7 y y y y y y y y y y y y y y y y y y y y y y y y y y y y y y y y y y y y y y y y y y y y y y y y y y y y y y y y y y y y y y y y y y y y t 0 R d.,       ",
"    . < d.d.A 7 y y y y y y y y y y y y y y y y y y y y y y y y y y y y y y y y y y y y y y y y y y y y y y y y y y y y y y y y y y y y y y y y y y y y t w R d.,       ",
"      ; d.d.A 7 y y y y y y y y y y y y y y y y y y y y y y y y y y y y y y y y y y y y y y y y y y y y y y y y y y y y y y y y y y y y y y y y y y y y t w R d.,       ",
"      $ d.d.A 7 y y y y y y y y y y y y y y y y y y y y y y y y y y y y y y y y y y y y y y y y y y y y y y y y y y y y y y y y y y y y y y y y y y y y t e W d.,       ",
"      @ d.d.A 7 y y y y y y y y y y y y y y y y y y y y y y y y y y y y y y y y y y y y y y y y y y y y y y y y y y y y y y y y y y y y y y y y y y y y t t Q d.,       ",
"      O d.d.H 8 t y y y y y y y y y y y y y y y y y y y y y y y y y y y y y y y y y y y y y y y y y y y y y y y y y y y y y y y y y y y y y y y y y y y t e ^ d.,       ",
"      O d.d.E e t y y y y y y y y y y y y y y y y y y y y y y y y y y y y y y y y y y y y y y y y y y y y y y y y y y y y y y y y y y y y y y y y y y y 8 s 9.d.1       ",
"      . :.d.9.p e y y y y y y y y y y y y y y y y y y y y y y y y y y y y y y y y y y y y y y y y y y y y y y y y y y y y y y y y y y y y y y y y y y t 7 H d.d.-       ",
"      O c d.d.V 6 y y y y y y y y y y y y y y y y y y y y y y y y y y y y y y y y y y y y y y y y y y y y y y y y y y y y y y y y y y y y y y y y y y w i d.d.d..       ",
"        @ d.d.W 9 t y y y y y y y y y y y y y y y y y y y y y y y y y y y y y y y y y y y y y y y y y y y y y y y y y y y y y y y y y y y y y y y y y 6 V d.d.P O       ",
"        O M d.d.k 7 y y y y y y y y y y y y y y y y y y y y y y y y y y y y y y y y y y y y y y y y y y y y y y y y y y y y y y y y y y y y y y y y t 9 ^ d.d.z .       ",
"          ; d.d.T 6 t y y y y y y y y y y y y y y y y y y y y y y y y y y y y y y y y y y y y y y y y y y y y y y y y y y y y y y y y y y y y y y y 7 V d.d.d.$         ",
"          + d.d.d.g 7 u y y y y y y y y y y y y y y y y y y y y y y y y y y y y y y y y y y y y y y y y y y y y y y y y y y y y y y y y y y y y y e 6 ^ d.d.M .         ",
"          O n d.d.=.y 8 u y y y y y y y y y y y y y y y y y y y y y y y y y y y y y y y y y y y y y y y y y y y y y y y y y y y y y y y y y y y t 5 Z d.d.:.O           ",
"            + | d.d.W 8 w u y y y y y y y y y y y y y y y y y y y y y y y y y y y y y y y y y y y y y y y y y y y y y y y y y y y y y y y y y y 4 B d.d.d.- .           ",
"              ; d.d.d.K 7 e y y y y y y y y y y y y y y y y y y y y y y y y y y y y y y y y y y y y y y y y y y y y y y y y y y y y y y y y u 7 f d.d.d.P .             ",
"              . z d.d.d.D 4 t y y y y y y y y y y y y y y y y y y y y y y y y y y y y y y y y y y y y y y y y y y y y y y y y y y y y y y u 5 p d.d.d.| O               ",
"                . | d.d.d.C 5 t y y y y y y y y y y y y y y y y y y y y y y y y y y y y y y y y y y y y y y y y y y y y y y y y y y y y y 9 y @.d.d.d.= .               ",
"                  . | d.d.d.Z 5 q y y y y y y y y y y y y y y y y y y y y y y y y y y y y y y y y y y y y y y y y y y y y y y y y y y y 6 e ,.d.d.d.l .                 ",
"                    + | d.d.d.F e 8 t y y y y y y y y y y y y y y y y y y y y y y y y y y y y y y y y y y y y y y y y y y y y y y y t 6 i R d.d.:.* .                   ",
"                      @ ..d.d.d.@.f 5 e u y y y y y y y y y y y y y y y y y y y y y y y y y y y y y y y y y y y y y y y y y y y y 7 7 B d.d.d.8.% .                     ",
"                      . @ ] d.d.d.d.G t 6 t y y y y y y y y y y y y y y y y y y y y y y y y y y y y y y y y y y y y y y y y y e 7 g R d.d.d.d.- .                       ",
"                          . : d.d.d.d.@.j 8 9 u y y y y y y y y y y y y y y y y y y y y y y y y y y y y y y y y y y y y y t 7 e S d.d.d.d...* .                         ",
"                            . + I d.d.d.d.Y u 5 t u y y y y y y y y y y y y y y y y y y y y y y y y y y y y y y y y y y 8 7 B %.d.d.d.d.b O .                           ",
"                                . * :.d.d.d.,.B 9 9 u y y y y y y y y y y y y y y y y y y y y y y y y y y y y y y y t 7 a Y d.d.d.d.v O O                               ",
"                                  . + L d.d.d.d.Y e 6 t y y y y y y y y y y y y y y y y y y y y y y y y y y y y u e 4 V d.d.d.d.U % .                                   ",
"                                      O @ | d.d.d.=.k 6 e y y y y y y y y y y y y y y y y y y y y y y y y y y y 7 t H d.d.d.:.= X                                       ",
"                                          . v d.d.d.d.S 9 8 u y y y y y y y y y y y y y y y y y y y y y y y t 6 p ( d.d.d.| $ .                                         ",
"                                            . % | d.d.d.^ a 5 t y y y y y y y y y y y y y y y y y y y y y e 6 V d.d.d.d.P . .                                           ",
"                                                . v d.d.d.,.f 7 t y y y y y y y y y y y y y y y y y y u 9 q G d.d.d.d.; .                                               ",
"                                                  . ; d.d.d.d.C 4 e u y y y y y y y y y y y y y y y y 5 i @.d.d.d.| $ .                                                 ",
"                                                    O # | d.d.d.F 8 0 u y y y y y y y y y y y y y y 8 s %.d.d.d.I O                                                     ",
"                                                        # | d.d.d.R e 7 u y y y y y y y y y y y t 3 g d.d.d.d.M .                                                       ",
"                                                          . ] d.d.d.( i 7 y u y y y y y y y y e 7 V 9.d.d.8.& .                                                         ",
"                                                            . M d.d.d.,.a 7 u y y y y y y y r 6 C d.d.d.| @ .                                                           ",
"                                                              . b d.w.d.,.e 7 u y y y y u e 6 H d.d.d.' .                                                               ",
"                                                                . b d.d.d.Q t 8 u y y y t 9 F d.d.d.U .                                                                 ",
"                                                                  . b d.d.d.( q 8 u y t 2 S d.d.d.P .                                                                   ",
"                                                                    . b d.d.d.( t 9 y 7 V d.d.d.I .                                                                     ",
"                                                                      . b d.d.d.R 7 3 j d.d.d.| .                                                                       ",
"                                                                        . b d.d.d.D t ,.d.d.| .                                                                         ",
"                                                                          . M d.d.d.,.d.d.| +                                                                           ",
"                                                                            . [ d.d.d.d.d.#                                                                             ",
"                                                                              . | d.d.d.- .                                                                             ",
"                                                                                + 1 1 , .                                                                               ",
"                                                                                  . . .                                                                                 ",
"                                                                                                                                                                        ",
"                                                                                                                                                                        ",
"                                                                                                                                                                        "
};
