/* XPM */
static char *1.png[] = {
"35 48 142 2",
"  	c #000000",
" !	c #030303",
" #	c #070707",
" $	c #0E0E0E",
" %	c #101010",
" &	c #1B1B1B",
" '	c #212121",
" (	c #242424",
" )	c #262626",
" *	c #2B2B2B",
" +	c #2C2C2C",
" ,	c #2D2D2D",
" -	c #373737",
" .	c #3C3C3C",
" /	c #3D3D3D",
" 0	c #3E3E3E",
" 1	c #414141",
" 2	c #434343",
" 3	c #484848",
" 4	c #494649",
" 5	c #494949",
" 6	c #4A464A",
" 7	c #4A4A4A",
" 8	c #4B474B",
" 9	c #4C484C",
" :	c #4C494C",
" ;	c #4D494D",
" <	c #4D4A4D",
" =	c #4E4A4E",
" >	c #4E4B4E",
" ?	c #4F4B4F",
" @	c #504D50",
" A	c #514D51",
" B	c #514E51",
" C	c #524F52",
" D	c #525252",
" E	c #555255",
" F	c #555355",
" G	c #565356",
" H	c #565456",
" I	c #575457",
" J	c #595759",
" K	c #5A585A",
" L	c #5A5A5A",
" M	c #5F5D5F",
" N	c #606060",
" O	c #646264",
" P	c #686868",
" Q	c #6A686A",
" R	c #6B696B",
" S	c #6B6B6B",
" T	c #6C6B6C",
" U	c #737373",
" V	c #747374",
" W	c #747474",
" X	c #767576",
" Y	c #767676",
" Z	c #7C7B7C",
" [	c #7D7C7D",
" ]	c #807F80",
" ^	c #838383",
" _	c #848284",
" `	c #848384",
" a	c #858385",
" b	c #868486",
" c	c #868686",
" d	c #878587",
" e	c #878687",
" f	c #888688",
" g	c #888888",
" h	c #898789",
" i	c #8B898B",
" j	c #8C8A8C",
" k	c #909090",
" l	c #929292",
" m	c #939393",
" n	c #949494",
" o	c #969696",
" p	c #979797",
" q	c #9F9F9F",
" r	c #A1A1A1",
" s	c #A5A5A5",
" t	c #A8A8A8",
" u	c #AAA9AA",
" v	c #ABABAB",
" w	c #ACACAC",
" x	c #B3B3B3",
" y	c #B4B4B4",
" z	c #B5B4B5",
" {	c #B6B5B6",
" |	c #BABABA",
" }	c #BBBBBB",
" ~	c #BEBEBE",
"! 	c #BFBFBF",
"!!	c #C0BFC0",
"!#	c #C0C0C0",
"!$	c #C1C1C1",
"!%	c #C2C1C2",
"!&	c #C2C2C2",
"!'	c #C3C3C3",
"!(	c #C4C3C4",
"!)	c #C5C4C5",
"!*	c #C7C6C7",
"!+	c #C8C8C8",
"!,	c #CACACA",
"!-	c #CBCBCB",
"!.	c #CDCDCD",
"!/	c #CECDCE",
"!0	c #CFCFCF",
"!1	c #D2D2D2",
"!2	c #D4D3D4",
"!3	c #D4D4D4",
"!4	c #D5D5D5",
"!5	c #D8D7D8",
"!6	c #D9D9D9",
"!7	c #DBDBDB",
"!8	c #DCDBDC",
"!9	c #DDDCDD",
"!:	c #DEDDDE",
"!;	c #DFDEDF",
"!<	c #DFDFDF",
"!=	c #E2E1E2",
"!>	c #E3E3E3",
"!?	c #E5E5E5",
"!@	c #E6E6E6",
"!A	c #E7E7E7",
"!B	c #E9E9E9",
"!C	c #EAEAEA",
"!D	c #EBEAEB",
"!E	c #EBEBEB",
"!F	c #EDEDED",
"!G	c #EFEFEF",
"!H	c #F1F1F1",
"!I	c #F4F4F4",
"!J	c #F7F7F7",
"!K	c #F8F8F8",
"!L	c #FAFAFA",
"!M	c #FBFBFB",
"!N	c #FCFCFC",
"!O	c #FDFDFD",
"!P	c #FEFEFE",
"!Q	c #FFFFFF",
" = = = = = = = = = = = = = = = = < J F F I C = = = = = = = = = = = = =",
" = = = = = = = = = = = = = = = = e!Q!Q!Q!Q!! = = = = = = = = = = = = =",
" = = = = = = = = = = = = = = = u!Q!Q!Q!Q!Q!! = = = = = = = = = = = = =",
" = = = = = = = = = = = = = 9 s!Q!Q!Q!Q!Q!Q!! = = = = = = = = = = = = =",
" = = = = = = = = = = = = 8 z!Q!Q!Q!Q!Q!Q!Q!! = = = = = = = = = = = = =",
" = = = = = = = = = = = 6!'!Q!Q!Q!Q!Q!O!Q!Q!! = = = = = = = = = = = = =",
" = = = = = = = = = = <!1!Q!Q!Q!Q!Q!Q!,!C!Q!! = = = = = = = = = = = = =",
" = = = = = = = = = <!H!Q!Q!Q ~!+!Q!Q ^ y!Q!# = = = = = = = = = = = = =",
" = = = = = = = = G!Q!Q!0 [ B = V!Q!Q 7 o!Q!! = = = = = = = = = = = = =",
" = = = = = = = =!! X A = = = = j!Q!Q ) g!Q!! = = = = = = = = = = = = =",
" = = = = = = = : 9 = = = = = = b!Q!Q # S!Q!$ = = = = = = = = = = = = =",
" = = = = = = = = = = = = = = = _!Q!E   D!Q!% = = = = = = = = = = = = =",
" = = = = = = = = = = = = = = = a!Q!    .!Q!( = = = = = = = = = = = = =",
" = = = = = = = = = = = = = = = a!Q r   *!Q!- = = = = = = = = = = = = =",
" = = = = = = = = = = = = = = = b!Q g   %!Q!2 = = = = = = = = = = = = =",
" = = = = = = = = = = = = = = = e!Q S    !C!7 = = = = = = = = = = = = =",
" = = = = = = = = = = = = = = = i!Q 0    !&!: = = = = = = = = = = = = =",
" = = = = = = = = = = = = = = = j!Q ,     x!; = = = = = = = = = = = = =",
" = = = = = = = = = = = = = = = b!Q p   (!Q!/ = = = = = = = = = = = = =",
" = = = = = = = = = = = = = = = `!Q!Q 3 q!Q!! = = = = = = = = = = = = =",
" = = = = = = = = = = = = = = = a!Q!Q!Q!Q!Q!! = = = = = = = = = = = = =",
" = = = = = = = = = = = = = = = a!Q!Q!Q!Q!Q!! = = = = = = = = = = = = =",
" = = = = = = = = = = = = = = = a!Q!Q W }!Q!! = = = = = = = = = = = = =",
" = = = = = = = = = = = = = = = d!Q c   $!L!2 = = = = = = = = = = = = =",
" = = = = = = = = = = = = = = = e!Q P    !B!5 = = = = = = = = = = = = =",
" = = = = = = = = = = = = = = = a!Q!Q / n!Q!# = = = = = = = = = = = = =",
" = = = = = = = = = = = = = = = a!Q!Q!Q!Q!Q!! = = = = = = = = = = = = =",
" = = = = = = = = = = = = = = = a!Q!Q!Q!Q!Q!! = = = = = = = = = = = = =",
" = = = = = = = = = = = = = = = a!Q!Q |!3!Q!! = = = = = = = = = = = = =",
" = = = = = = = = = = = = = = = `!Q!J   2!Q!) = = = = = = = = = = = = =",
" = = = = = = = = = = = = = = = f!Q N    !.!8 = = = = = = = = = = = = =",
" = = = = = = = = = = = = = = = h!Q 5     w!; = = = = = = = = = = = = =",
" = = = = = = = = = = = = = = = d!Q U    !<!9 = = = = = = = = = = = = =",
" = = = = = = = = = = = = = = = a!Q k   #!O!4 = = = = = = = = = = = = =",
" = = = = = = = = = = = = = = = a!Q v   &!Q!0 = = = = = = = = = = = = =",
" = = = = = = = = = = = = = = = a!Q!-   +!Q!* = = = = = = = = = = = = =",
" = = = = = = = = = = = = = = = a!Q!F   1!Q!% = = = = = = = = = = = = =",
" = = = = = = = = = = = = = = = a!Q!P ! L!Q!$ = = = = = = = = = = = = =",
" = = = = = = = = = = = = = = = a!Q!Q ' Y!Q!$ = = = = = = = = = = = = =",
" = = = = = = = = = = = = = = = a!Q!Q - l!Q!! = = = = = = = = = = = = =",
" = = = = = = = = = = = = = = = b!Q!Q P r!Q ~ = = = = = = = = = = = = =",
" = = = = = = = = = = = = = = = Z!Q!Q m!&!Q { = = = = = = = = = = = = =",
" = = = = = = = = = = = = = = = f!Q!Q!1!G!Q!N 4 = = = = = = = = = = = =",
" = = = = = = = = = = = = = @ t!Q!Q!Q!Q!Q!Q!Q!Q h = = = = = = = = = = =",
" = = = = = = = = = = = = T!O!Q!Q!Q!Q!Q!Q!Q!Q!Q!Q!? C = = = = = = = = =",
" = = = = = = = = = = Q!K!Q!Q!Q!Q!Q!Q!Q!Q!Q!Q!Q!Q!Q!Q x > = = = = = = =",
" = = = = = = = = : ]!M!Q!D!>!A!@!@!A!A!A!@!A!@!A!=!I!Q!6 E ; = = = = =",
" = = = = = = = = ? M O I H H I I H I I I I H I H I E K R H ; = = = = ="};
