/* XPM */
static char *2.png[] = {
"35 48 193 2",
"  	c #000000",
" !	c #030303",
" #	c #090909",
" $	c #0C0C0C",
" %	c #111111",
" &	c #131313",
" '	c #161616",
" (	c #222222",
" )	c #242424",
" *	c #262626",
" +	c #282828",
" ,	c #2A2A2A",
" -	c #2B2B2B",
" .	c #383838",
" /	c #404040",
" 0	c #444444",
" 1	c #464346",
" 2	c #474447",
" 3	c #474747",
" 4	c #494549",
" 5	c #4A464A",
" 6	c #4A474A",
" 7	c #4B474B",
" 8	c #4B484B",
" 9	c #4C484C",
" :	c #4C494C",
" ;	c #4C4C4C",
" <	c #4D494D",
" =	c #4D4A4D",
" >	c #4E4A4E",
" ?	c #4E4B4E",
" @	c #4F4C4F",
" A	c #4F4F4F",
" B	c #504D50",
" C	c #505050",
" D	c #514D51",
" E	c #514E51",
" F	c #524F52",
" G	c #525252",
" H	c #535153",
" I	c #545154",
" J	c #545254",
" K	c #545454",
" L	c #555255",
" M	c #565356",
" N	c #575557",
" O	c #585658",
" P	c #5B585B",
" Q	c #5B595B",
" R	c #5C595C",
" S	c #5E5B5E",
" T	c #615E61",
" U	c #626262",
" V	c #636063",
" W	c #636163",
" X	c #646264",
" Y	c #646464",
" Z	c #656265",
" [	c #656365",
" ]	c #676567",
" ^	c #686668",
" _	c #6A676A",
" `	c #6A686A",
" a	c #6B686B",
" b	c #6C6A6C",
" c	c #6C6C6C",
" d	c #6D6A6D",
" e	c #6D6B6D",
" f	c #6E6C6E",
" g	c #6F6D6F",
" h	c #706E70",
" i	c #716F71",
" j	c #726F72",
" k	c #727272",
" l	c #737173",
" m	c #747274",
" n	c #747374",
" o	c #757475",
" p	c #757575",
" q	c #797779",
" r	c #7B797B",
" s	c #7D7C7D",
" t	c #7E7D7E",
" u	c #7F7E7F",
" v	c #807E80",
" w	c #838283",
" x	c #858485",
" y	c #858585",
" z	c #868586",
" {	c #878687",
" |	c #878787",
" }	c #898889",
" ~	c #8A888A",
"! 	c #8A898A",
"!!	c #8A8A8A",
"!#	c #8B8A8B",
"!$	c #8C8B8C",
"!%	c #8C8C8C",
"!&	c #8D8B8D",
"!'	c #8D8C8D",
"!(	c #8D8D8D",
"!)	c #8E8D8E",
"!*	c #8E8E8E",
"!+	c #908E90",
"!,	c #919091",
"!-	c #939193",
"!.	c #939293",
"!/	c #949394",
"!0	c #969596",
"!1	c #979797",
"!2	c #989798",
"!3	c #999899",
"!4	c #9A9A9A",
"!5	c #9B9A9B",
"!6	c #9C9B9C",
"!7	c #9E9D9E",
"!8	c #9F9E9F",
"!9	c #A19FA1",
"!:	c #A3A2A3",
"!;	c #A4A3A4",
"!<	c #A4A4A4",
"!=	c #A6A5A6",
"!>	c #A7A7A7",
"!?	c #A8A7A8",
"!@	c #A9A8A9",
"!A	c #A9A9A9",
"!B	c #ABAAAB",
"!C	c #ABABAB",
"!D	c #ADACAD",
"!E	c #B0AFB0",
"!F	c #B0B0B0",
"!G	c #B1B0B1",
"!H	c #B2B1B2",
"!I	c #B2B2B2",
"!J	c #B3B3B3",
"!K	c #B4B4B4",
"!L	c #B5B4B5",
"!M	c #B6B6B6",
"!N	c #B7B7B7",
"!O	c #B8B8B8",
"!P	c #B9B8B9",
"!Q	c #BCBCBC",
"!R	c #BDBCBD",
"!S	c #BEBDBE",
"!T	c #BFBEBF",
"!U	c #C0BFC0",
"!V	c #C1C1C1",
"!W	c #C3C3C3",
"!X	c #C4C4C4",
"!Y	c #C5C5C5",
"!Z	c #C6C5C6",
"![	c #C7C6C7",
"!]	c #C7C7C7",
"!^	c #C9C9C9",
"!_	c #CAC9CA",
"!`	c #CACACA",
"!a	c #CCCBCC",
"!b	c #D1D1D1",
"!c	c #D3D3D3",
"!d	c #D4D4D4",
"!e	c #D6D5D6",
"!f	c #D8D8D8",
"!g	c #DBDBDB",
"!h	c #DCDBDC",
"!i	c #DCDCDC",
"!j	c #DEDDDE",
"!k	c #DFDFDF",
"!l	c #E0E0E0",
"!m	c #E1E0E1",
"!n	c #E2E2E2",
"!o	c #E3E2E3",
"!p	c #E3E3E3",
"!q	c #E4E4E4",
"!r	c #E6E6E6",
"!s	c #E8E8E8",
"!t	c #EAEAEA",
"!u	c #EDEDED",
"!v	c #EEEEEE",
"!w	c #EFEFEF",
"!x	c #F0F0F0",
"!y	c #F2F2F2",
"!z	c #F3F3F3",
"!{	c #F4F4F4",
"!|	c #F5F5F5",
"!}	c #F6F6F6",
"!~	c #F7F7F7",
"# 	c #F9F9F9",
"#!	c #FAFAFA",
"##	c #FBFBFB",
"#$	c #FCFCFC",
"#%	c #FDFDFD",
"#&	c #FEFEFE",
"#'	c #FFFFFF",
" > > > > > > > > > > > > > > > 7 D B N Q H F 9 > > > > > > > > > > > >",
" > > > > > > > > > > > > F `!,!i#$#'#'#'#'#'!l!, T > > > > > > > > > >",
" > > > > > > > > > > : i!l#'#'#'#'#'# !x#&#'#'#'#' z ? > > > > > > > >",
" > > > > > > > > > B!q#'#'#'#'#&!K k ; , $ $ K!M#'#'!U 9 > > > > > > >",
" > > > > > > > > :#&#'#'#'#'#'#'!r!r!w!l!> G     U#'#'!= > > > > > > >",
" > > > > > > > >!F#'#'#'#'#'#'#'#'#'#'#'#'#'!^ %   C#'#' P > > > > > >",
" > > > > > > > <#'#'#'#'#'#'#'!8 m a M b!+!y#'!i     p#'!n 9 > > > > >",
" > > > > > > > f#'#'#'#'#'!v H > > > > > > 2!j#' c    !X#' L > > > > >",
" > > > > > > >!T#'#'#'#'!G : > > > > > > > > 8#'#      /#' ~ > > > > >",
" > > > > > > ?#'#'#'#'!@ 7 > > > > > > > > > > q#' |   '#'!^ > > > > >",
" > > > > > > h#'#'#'!  > > > > > > > > > > > > 4#&#'!* A#'!t = > > > >",
" > > > > > <!e#'#' r > > > > > > > > > > > > > >!V#'#'#'#'!{ R > > > >",
" > > > > > M#'#' f > > > > > > > > > > > > > > >!0#'#'#'#'## _ > > > >",
" > > > > >!B#' e > > > > > > > > > > > > > > > > ]#'#'!M#'#' d > > > >",
" > > > > 5#& ] > > > > > > > > > > > > > > > > > V#'!!  !(#' V > > > >",
" > > > > X W > > > > > > > > > > > > > > > > > > j#' +   (!{ R > > > >",
" > > > > 9 > > > > > > > > > > > > > > > > > > > Z#'!I #!]!x : > > > >",
" > > > > > > > > > > > > > > > > > > > > > > > > ]#'#'!f#'!E > > > > >",
" > > > > > > > > > > > > > > > > > > > > > > > >!3#'#'#'#' s > > > > >",
" > > > > > > > > > > > > > > > > > > > > > > > >!S#'#'#'#' I > > > > >",
" > > > > > > > > > > > > > > > > > > > > > > > >#$#'#'#'!o < > > > > >",
" > > > > > > > > > > > > > > > > > > > > > > > Q#'#'#'#' x > > > > > >",
" > > > > > > > > > > > > > > > > > > > > > > >!H#'#'#'#' E > > > > > >",
" > > > > > > > > > > > > > > > > > > > > > > ?#'#'#'#'!L > > > > > > >",
" > > > > > > > > > > > > > > > > > > > > > > t#'#'#'#' ? > > > > > > >",
" > > > > > > > > > > > > > > > > > > > > > 8#%#'#'#'!D > > > > > > > >",
" > > > > > > > > > > > > > > > > > > > > > l#'#'#'#' 4 > > > > > > > >",
" > > > > > > > > > > > > > > > > > > > > 6#'#'#'#' ^ > > > > > > > > >",
" > > > > > > > > > > > > > > > > > > > > u#'#'#'!Q > > > > > > > > > >",
" > > > > > > > > > > > > > > > > > > > ?#'#'#'#! 5 > > > > > > > > > >",
" > > > > > > > > > > > > > > > > > > >!c#'#'#' S > > > > > > > > > > >",
" > > > > > > > > > > > > > > > > > > o#'#'#' w > > > > > > > > > > > >",
" > > > > > > > > > > > > > > > > > ?#'#'#'!_ < > > > > > > > > > > > >",
" > > > > > > > > > > > > > > > > 5!w#'#'#% 8 > > > > > > > > > > > > >",
" > > > > > > > > > > > > > > > >!A#'#'#' N > > > > > > > > > > > > > >",
" > > > > > > > > > > > > > > > v#'#'#'!# > > > > > > > > > > > > > > >",
" > > > > > > > > > > > > > > L#'#'#'!X > > > > > > > > > > > > > > > 6",
" > > > > > > > > > > > > > @#'#'#'!} : > > > > > > > > > > > > > =!P Q",
" > > > > > > > > > > > > 8!f#'#'#' B > > > > > > > > > > > > > @!g#' <",
" > > > > > > > > > > > >!A#'#'#' ] > > > > > > > > > > > > > l#'#' n >",
" > > > > > > > > > > > }#'#'#' { > > > > > > > > > > > > <!.#'#'#& ? >",
" > > > > > > > > > > [#'#'#'!N > > > > > > > > > > > > J!p#'#'#'!5 > >",
" > > > > > > > > > O#'#'#'#'!u![!m!k!h!d!a!Z!Y!W!W!T!R#'#'#'#'#' B > >",
" > > > > > > > > 8#'#'#'#'!1 p!C!`!s!~#'#'#'#'#'#'#'#'#'#'#'#'!c < > >",
" > > > > > > > 1!z#'#'!* $               % * 0 Y!%!O!x#'#'#'#' g > > >",
" > > > > > > 9!p#'#'#'!4 )         ! & - . 3 Y y!<!]!|#'#'#'#& 7 > > >",
" > > > > > B#'#'#'#'#'#'#'!g!J!b!{#'#'#'#'#'#'#'#'#'#'#'#'#'!7 > > > >",
" > > > > > g!;!'!'!'!'!'!-!:!?!=!9!6!2!/!,!)!'!'!'!'!&!'!)!$ F > > > >"};
