/* XPM */
static char *4.png[] = {
"35 48 185 2",
"  	c #000000",
" !	c #030303",
" #	c #080808",
" $	c #0B0B0B",
" %	c #0D0D0D",
" &	c #101010",
" '	c #191919",
" (	c #212121",
" )	c #222222",
" *	c #232323",
" +	c #242424",
" ,	c #2A2A2A",
" -	c #323232",
" .	c #333333",
" /	c #373737",
" 0	c #414141",
" 1	c #494549",
" 2	c #494649",
" 3	c #4A464A",
" 4	c #4A474A",
" 5	c #4B474B",
" 6	c #4B484B",
" 7	c #4B4B4B",
" 8	c #4C484C",
" 9	c #4C494C",
" :	c #4D494D",
" ;	c #4E4A4E",
" <	c #4E4B4E",
" =	c #4E4C4E",
" >	c #4F4B4F",
" ?	c #4F4C4F",
" @	c #504D50",
" A	c #514D51",
" B	c #514E51",
" C	c #524F52",
" D	c #535053",
" E	c #535153",
" F	c #535353",
" G	c #545154",
" H	c #545254",
" I	c #555255",
" J	c #555355",
" K	c #565356",
" L	c #565456",
" M	c #575457",
" N	c #575557",
" O	c #585458",
" P	c #585558",
" Q	c #585658",
" R	c #595559",
" S	c #595659",
" T	c #595759",
" U	c #5A575A",
" V	c #5D5B5D",
" W	c #5E5B5E",
" X	c #5F5D5F",
" Y	c #5F5F5F",
" Z	c #605E60",
" [	c #606060",
" ]	c #636363",
" ^	c #646264",
" _	c #666566",
" `	c #666666",
" a	c #676567",
" b	c #696769",
" c	c #6A686A",
" d	c #6C6A6C",
" e	c #6F6D6F",
" f	c #706E70",
" g	c #716E71",
" h	c #717071",
" i	c #726F72",
" j	c #727072",
" k	c #727272",
" l	c #737073",
" m	c #747174",
" n	c #747274",
" o	c #747374",
" p	c #757575",
" q	c #777477",
" r	c #777577",
" s	c #7A797A",
" t	c #7A7A7A",
" u	c #7B797B",
" v	c #7C7A7C",
" w	c #7E7B7E",
" x	c #7F7C7F",
" y	c #7F7D7F",
" z	c #7F7F7F",
" {	c #807F80",
" |	c #817F81",
" }	c #827F82",
" ~	c #838383",
"! 	c #848284",
"!!	c #848484",
"!#	c #858585",
"!$	c #868586",
"!%	c #868686",
"!&	c #878787",
"!'	c #888588",
"!(	c #888688",
"!)	c #888788",
"!*	c #898889",
"!+	c #8A898A",
"!,	c #8B8B8B",
"!-	c #8C8B8C",
"!.	c #929292",
"!/	c #969696",
"!0	c #979697",
"!1	c #999799",
"!2	c #9A999A",
"!3	c #9C9B9C",
"!4	c #9D9D9D",
"!5	c #A09FA0",
"!6	c #A0A0A0",
"!7	c #A2A2A2",
"!8	c #A4A4A4",
"!9	c #A5A5A5",
"!:	c #AAAAAA",
"!;	c #ADACAD",
"!<	c #AEAEAE",
"!=	c #AFAFAF",
"!>	c #B3B2B3",
"!?	c #B7B6B7",
"!@	c #B7B7B7",
"!A	c #BABABA",
"!B	c #BEBEBE",
"!C	c #BFBEBF",
"!D	c #C0BFC0",
"!E	c #C2C2C2",
"!F	c #C3C3C3",
"!G	c #C4C3C4",
"!H	c #C5C5C5",
"!I	c #C6C6C6",
"!J	c #C8C8C8",
"!K	c #CACACA",
"!L	c #CBCACB",
"!M	c #CBCBCB",
"!N	c #CECECE",
"!O	c #CFCECF",
"!P	c #D0CFD0",
"!Q	c #D0D0D0",
"!R	c #D1D0D1",
"!S	c #D1D1D1",
"!T	c #D2D1D2",
"!U	c #D3D3D3",
"!V	c #D5D4D5",
"!W	c #D6D5D6",
"!X	c #D6D6D6",
"!Y	c #D7D7D7",
"!Z	c #D8D7D8",
"![	c #D8D8D8",
"!]	c #D9D8D9",
"!^	c #DAD9DA",
"!_	c #DCDBDC",
"!`	c #DCDCDC",
"!a	c #DDDDDD",
"!b	c #DEDEDE",
"!c	c #E3E2E3",
"!d	c #E3E3E3",
"!e	c #E4E3E4",
"!f	c #E4E4E4",
"!g	c #E6E6E6",
"!h	c #E7E7E7",
"!i	c #E9E9E9",
"!j	c #EAE9EA",
"!k	c #EAEAEA",
"!l	c #ECECEC",
"!m	c #EFEEEF",
"!n	c #EFEFEF",
"!o	c #F1F1F1",
"!p	c #F2F1F2",
"!q	c #F3F3F3",
"!r	c #F4F4F4",
"!s	c #F5F5F5",
"!t	c #F6F6F6",
"!u	c #F7F7F7",
"!v	c #F8F8F8",
"!w	c #F9F9F9",
"!x	c #FAFAFA",
"!y	c #FBFBFB",
"!z	c #FCFCFC",
"!{	c #FDFDFD",
"!|	c #FEFEFE",
"!}	c #FFFFFF",
" ; ; ; ; ; ; ; ; ; ; ; ; ; ; ; ; ; ; ; ; ; ; C J J I G N A ; ; ; ; ; ;",
" ; ; ; ; ; ; ; ; ; ; ; ; ; ; ; ; ; ; ; ; ; 1!z!}!}!}!}!} P ; ; ; ; ; ;",
" ; ; ; ; ; ; ; ; ; ; ; ; ; ; ; ; ; ; ; ; ;!;!}!}!}!}!}!w P ; ; ; ; ; ;",
" ; ; ; ; ; ; ; ; ; ; ; ; ; ; ; ; ; ; ; ; D!}!}!}!}!}!}!t O ; ; ; ; ; ;",
" ; ; ; ; ; ; ; ; ; ; ; ; ; ; ; ; ; ; ; 5!h!}!}!}!}!}!}!s O ; ; ; ; ; ;",
" ; ; ; ; ; ; ; ; ; ; ; ; ; ; ; ; ; ; ;!$!}!}!}!}!}!|!}!s O ; ; ; ; ; ;",
" ; ; ; ; ; ; ; ; ; ; ; ; ; ; ; ; ; ; ?!}!}!}!}!}!h!A!}!t O ; ; ; ; ; ;",
" ; ; ; ; ; ; ; ; ; ; ; ; ; ; ; ; ; :!I!}!}!z!r!}!H z!}!v O ; ; ; ; ; ;",
" ; ; ; ; ; ; ; ; ; ; ; ; ; ; ; ; ; _!}!}!} f!5!}!= F!}!z O ; ; ; ; ; ;",
" ; ; ; ; ; ; ; ; ; ; ; ; ; ; ; ; 3!|!}!}!? ;!G!}!4 )!}!| O ; ; ; ; ; ;",
" ; ; ; ; ; ; ; ; ; ; ; ; ; ; ; ;!:!}!}!} < ;!_!} z  !}!} O ; ; ; ; ; ;",
" ; ; ; ; ; ; ; ; ; ; ; ; ; ; ; J!}!}!}!1 ; ;!^!} [  !u!} O ; ; ; ; ; ;",
" ; ; ; ; ; ; ; ; ; ; ; ; ; ; 5!j!}!}!z 4 ; ;!Z!} 7  ![!} O ; ; ; ; ; ;",
" ; ; ; ; ; ; ; ; ; ; ; ; ; ;!*!}!}!} a ; ; ;!W!} /  !B!} O ; ; ; ; ; ;",
" ; ; ; ; ; ; ; ; ; ; ; ; ; B!}!}!}!Q ; ; ; ;!^!} *  !7!} P ; ; ; ; ; ;",
" ; ; ; ; ; ; ; ; ; ; ; ; ;!D!}!}!} @ ; ; ; ;!^!w $   ~!} P ; ; ; ; ; ;",
" ; ; ; ; ; ; ; ; ; ; ; ; h!}!}!}!- ; ; ; ; ;!^!Y     Y!} R ; ; ; ; ; ;",
" ; ; ; ; ; ; ; ; ; ; ; 2!y!}!}!y 8 ; ; ; ; ;!^!E     0!} R ; ; ; ; ; ;",
" ; ; ; ; ; ; ; ; ; ; ;!9!}!}!} X ; ; ; ; ; ;!]!y '  !:!} P ; ; ; ; ; ;",
" ; ; ; ; ; ; ; ; ; ; H!}!}!}!C ; ; ; ; ; ; ;!P!}!/ .!}!{ M ; ; ; ; ; ;",
" ; ; ; ; ; ; ; ; ; 8!n!}!}!} ; ; ; ; ; ; ; ;!O!}!}!}!}!q O ; ; ; ; ; ;",
" ; ; ; ; ; ; ; ; ;! !}!}!} { ; ; ; ; ; ; ; ;!P!}!}!}!}!q O ; ; ; ; ; ;",
" ; ; ; ; ; ; ; ; 9!}!}!}!n ; ; ; ; ; ; ; ; ;!N!}!U!,!}!x M ; ; ; ; ; ;",
" ; ; ; ; ; ; ; ;!L!}!}!} U ; ; ; ; ; ; ; ; ;!Z!z ,  !<!} P ; ; ; ; ; ;",
" ; ; ; ; ; ; ; e!}!}!}!> ; ; ; ; ; ; ; ; ; ;!^!o     k!} P ; ; ; ; ; ;",
" ; ; ; ; ; ; 2!z!}!}!} 9 ; ; ; ; ; ; ; ; ; ;!T!}!% +!}!} O ; ; ; ; ; ;",
" ; ; ; ; ; ;!:!}!}!} n ; ; ; ; ; ; ; ; ; ; ;!O!}!}!z!}!r O ; ; ; ; ; ;",
" ; ; ; ; ; H!}!}!}!` ; ; ; ; ; ; ; ; ; ; ; ;!P!}!}!}!}!q O ; ; ; ; ; ;",
" ; ; ; ; 8!k!}!}!} U ; ; ; ; ; ; ; ; ; ; ; ;!O!}!y!J!}!v O ; ; ; ; ; ;",
" ; ; ; ;!+!}!}!}!2 ; ; ; ; ; ; ; ; ; ; ; ; ;!R!}!& !!z!} K ; ; ; ; ; ;",
" ; ; ; 9!}!}!}!M ; ; ; ; ; ; ; ; ; ; ; ; ; ;!V!w &   p!} > ; ; ; ; ; ;",
" ; ; 5!E!}!}!}!0 W w q i m m m l l l l l l g!d!X     0!}!( } x!' G ; ;",
" ; ; d!}!}!}!}!}!}!}!}!}!}!}!}!}!}!}!}!}!}!}!}!i #   `!}!}!}!}!} = ; ;",
" ; ; |!}!}!}!}!}!}!}!}!}!}!}!}!}!}!}!}!}!}!}!}!} (  !#!}!}!}!}!l ; ; ;",
" ; ;!)!}!}!}!}!}!}!}!}!}!}!}!}!}!}!}!}!}!}!}!}!} /  !6!}!}!}!} s ; ; ;",
" ; ; G y v u u u u u u u u u v u u u v v r j!m!} 7  !H!}!  o s : ; ; ;",
" ; ; ; ; ; ; ; ; ; ; ; ; ; ; ; ; ; ; ; ; ; ;!e!} ]  !k!} > ; ; ; ; ; ;",
" ; ; ; ; ; ; ; ; ; ; ; ; ; ; ; ; ; ; ; ; ; ;!f!} t  !}!} S ; ; ; ; ; ;",
" ; ; ; ; ; ; ; ; ; ; ; ; ; ; ; ; ; ; ; ; ; ;!a!}!. %!}!} O ; ; ; ; ; ;",
" ; ; ; ; ; ; ; ; ; ; ; ; ; ; ; ; ; ; ; ; ; ;!a!}!8 -!}!| O ; ; ; ; ; ;",
" ; ; ; ; ; ; ; ; ; ; ; ; ; ; ; ; ; ; ; ; ; ;!b!}!= F!}!z O ; ; ; ; ; ;",
" ; ; ; ; ; ; ; ; ; ; ; ; ; ; ; ; ; ; ; ; ; ;!c!}!J!!!}!u P ; ; ; ; ; ;",
" ; ; ; ; ; ; ; ; ; ; ; ; ; ; ; ; ; ; ; ; ; ;!K!}!o!N!}!t > ; ; ; ; ; ;",
" ; ; ; ; ; ; ; ; ; ; ; ; ; ; ; ; ; ; ; ; ? j!i!}!}!}!}!{ | ; ; ; ; ; ;",
" ; ; ; ; ; ; ; ; ; ; ; ; ; ; ; ; ; ; ; X!S!}!}!}!}!}!}!}!}!F E ; ; ; ;",
" ; ; ; ; ; ; ; ; ; ; ; ; ; ; ; ; ; c!a!}!}!}!}!}!}!}!}!}!}!}!}!@ T ; ;",
" ; ; ; ; ; ; ; ; ; ; ; ; ; ; ; 6!3!y!}!l!g!h!g!h!h!h!g!h!h!h!p!}!h b 5",
" ; ; ; ; ; ; ; ; ; ; ; ; ; ; ; < a Z N M M L M L M L L M L M M Q ^ V 8"};
