/* XPM */
static char *6.png[] = {
"35 48 232 2",
"  	c #000000",
" !	c #010101",
" #	c #020202",
" $	c #070707",
" %	c #0F0F0F",
" &	c #131313",
" '	c #151515",
" (	c #161616",
" )	c #181818",
" *	c #1B1B1B",
" +	c #1C1C1C",
" ,	c #1D1D1D",
" -	c #252525",
" .	c #2A2A2A",
" /	c #313131",
" 0	c #323232",
" 1	c #333333",
" 2	c #363636",
" 3	c #383838",
" 4	c #393939",
" 5	c #3A3A3A",
" 6	c #424242",
" 7	c #464646",
" 8	c #474447",
" 9	c #474747",
" :	c #484448",
" ;	c #494649",
" <	c #4A464A",
" =	c #4A474A",
" >	c #4B474B",
" ?	c #4B484B",
" @	c #4C484C",
" A	c #4C494C",
" B	c #4D494D",
" C	c #4D4A4D",
" D	c #4E4A4E",
" E	c #4E4B4E",
" F	c #4F4B4F",
" G	c #4F4C4F",
" H	c #4F4D4F",
" I	c #504D50",
" J	c #504E50",
" K	c #505050",
" L	c #514D51",
" M	c #514E51",
" N	c #524F52",
" O	c #534F53",
" P	c #535053",
" Q	c #545154",
" R	c #555355",
" S	c #565356",
" T	c #565656",
" U	c #575457",
" V	c #585558",
" W	c #585658",
" X	c #585858",
" Y	c #595759",
" Z	c #5B575B",
" [	c #5B585B",
" ]	c #5B595B",
" ^	c #5C595C",
" _	c #5C5A5C",
" `	c #5D5A5D",
" a	c #5D5B5D",
" b	c #5E5B5E",
" c	c #5E5C5E",
" d	c #5F5D5F",
" e	c #605D60",
" f	c #605E60",
" g	c #615E61",
" h	c #615F61",
" i	c #626062",
" j	c #636163",
" k	c #636363",
" l	c #646164",
" m	c #646464",
" n	c #656365",
" o	c #666466",
" p	c #666666",
" q	c #676567",
" r	c #686668",
" s	c #686768",
" t	c #696969",
" u	c #6B696B",
" v	c #6C6B6C",
" w	c #6C6C6C",
" x	c #6D6D6D",
" y	c #6F6D6F",
" z	c #706E70",
" {	c #707070",
" |	c #716F71",
" }	c #717171",
" ~	c #727072",
"! 	c #727272",
"!!	c #737273",
"!#	c #737373",
"!$	c #757375",
"!%	c #767476",
"!&	c #767576",
"!'	c #767676",
"!(	c #777577",
"!)	c #7A797A",
"!*	c #7D7C7D",
"!+	c #7E7D7E",
"!,	c #7F7D7F",
"!-	c #7F7E7F",
"!.	c #807E80",
"!/	c #807F80",
"!0	c #828082",
"!1	c #838183",
"!2	c #848284",
"!3	c #848384",
"!4	c #848484",
"!5	c #858385",
"!6	c #858585",
"!7	c #868586",
"!8	c #878687",
"!9	c #888788",
"!:	c #888888",
"!;	c #898789",
"!<	c #8A898A",
"!=	c #8B8A8B",
"!>	c #8C8B8C",
"!?	c #8E8D8E",
"!@	c #8F8F8F",
"!A	c #908F90",
"!B	c #918F91",
"!C	c #929292",
"!D	c #939293",
"!E	c #949494",
"!F	c #979697",
"!G	c #989698",
"!H	c #989798",
"!I	c #999899",
"!J	c #9A999A",
"!K	c #9A9A9A",
"!L	c #9B9A9B",
"!M	c #9C9B9C",
"!N	c #9C9C9C",
"!O	c #9E9D9E",
"!P	c #9E9E9E",
"!Q	c #A09FA0",
"!R	c #A0A0A0",
"!S	c #A1A0A1",
"!T	c #A4A3A4",
"!U	c #A4A4A4",
"!V	c #A5A4A5",
"!W	c #A5A5A5",
"!X	c #A6A5A6",
"!Y	c #A6A6A6",
"!Z	c #A7A7A7",
"![	c #A8A7A8",
"!]	c #A8A8A8",
"!^	c #AAA9AA",
"!_	c #AAAAAA",
"!`	c #ABAAAB",
"!a	c #ABABAB",
"!b	c #ACACAC",
"!c	c #ADACAD",
"!d	c #ADADAD",
"!e	c #AFAEAF",
"!f	c #AFAFAF",
"!g	c #B0AFB0",
"!h	c #B0B0B0",
"!i	c #B2B2B2",
"!j	c #B4B3B4",
"!k	c #B4B4B4",
"!l	c #B7B7B7",
"!m	c #B8B7B8",
"!n	c #B8B8B8",
"!o	c #BAB9BA",
"!p	c #BABABA",
"!q	c #BCBCBC",
"!r	c #BDBDBD",
"!s	c #BEBEBE",
"!t	c #BFBEBF",
"!u	c #C0BFC0",
"!v	c #C1C1C1",
"!w	c #C2C1C2",
"!x	c #C2C2C2",
"!y	c #C4C4C4",
"!z	c #C6C5C6",
"!{	c #C6C6C6",
"!|	c #C7C6C7",
"!}	c #C8C7C8",
"!~	c #C8C8C8",
"# 	c #C9C9C9",
"#!	c #CAC9CA",
"##	c #CBCACB",
"#$	c #CBCBCB",
"#%	c #CCCBCC",
"#&	c #CCCCCC",
"#'	c #CFCFCF",
"#(	c #D0D0D0",
"#)	c #D1D0D1",
"#*	c #D1D1D1",
"#+	c #D6D6D6",
"#,	c #D7D7D7",
"#-	c #D8D8D8",
"#.	c #D9D8D9",
"#/	c #DADADA",
"#0	c #DCDCDC",
"#1	c #DDDCDD",
"#2	c #DDDDDD",
"#3	c #DEDEDE",
"#4	c #E0E0E0",
"#5	c #E2E2E2",
"#6	c #E5E4E5",
"#7	c #E6E5E6",
"#8	c #E6E6E6",
"#9	c #E7E7E7",
"#:	c #E8E8E8",
"#;	c #E9E9E9",
"#<	c #EAEAEA",
"#=	c #EBEBEB",
"#>	c #ECECEC",
"#?	c #EEEEEE",
"#@	c #F0F0F0",
"#A	c #F1F0F1",
"#B	c #F1F1F1",
"#C	c #F2F2F2",
"#D	c #F3F3F3",
"#E	c #F6F6F6",
"#F	c #F7F7F7",
"#G	c #F8F8F8",
"#H	c #F9F9F9",
"#I	c #FAFAFA",
"#J	c #FBFBFB",
"#K	c #FCFCFC",
"#L	c #FDFDFD",
"#M	c #FEFEFE",
"#N	c #FFFFFF",
" D D D D D D D D D D D D D D D I!$!I!o# !t!]!9 a L D D D D D D D D D D",
" D D D D D D D D D D D D B ~#.#N#N#N#N#N#N#N#N#N#N!V G D D D D D D D D",
" D D D D D D D D D D D D#!#N#N#N#N#N#N#N#N#N#N#N#N#N#N v D D D D D D D",
" D D D D D D D D D D ]#M#N#K#L#N#N#>!L!7!5![#L#N#N#N#N#N!/ D D D D D D",
" D D D D D D D D D q#N#N!{!b#N#C q L D D D D N!f#N#N#N#N#N f D D D D D",
" D D D D D D D D S#N#N!K K#N#5 = D D D D D D D D![#N#N#N#N#M P D D D D",
" D D D D D D D =#N#N!P  #9#M ; D D D D D D D D D!!#N#N#N#N#N v D D D D",
" D D D D D D B!j#N!n  !Z#N W D D D D D D D D D <#=#N#N#N#L!) C D D D D",
" D D D D D D f#N#8   9#N!m D D D D D D D D D D Y#N#N#N#' = D D D D D D",
" D D D D D @#3#N /  #8#N ] D D D D D D D D D D!h#N#N!0 D D D D D D D D",
" D D D D D r#N!a   T#N#9 > D D D D D D D D D ]#N#1 E D D D D D D D D D",
" D D D D D!}#N 0  !U#N!; D D D D D D D D D D!S!O D D D D D D D D D D D",
" D D D D A#N#&    #,#N u D D D D D D D D D = N D D D D D D D D D D D D",
" D D D D!)#N k   %#M#N I D D D D D D D D D D D D D D D D D D D D D D D",
" D D D D!|#N +   (#N#M P D D D D D D D D D D D D D D D D D D D D D D D",
" D D D N#N!x     )#N#/ D D D D D D D D ? M P E @ D D D D D D D D D D D",
" D D D g#N!v     m#N!g D D D D D U!&!c#8#J#L#E#!!< l D D D D D D D D D",
" D D F!2#N#N - '#N#N!S D D D H!o#N#N#N#N#N#N#N#N#N#N!| R D D D D D D D",
" D D ?!,#N#N!q!~#N#N!D D L!z#N#N#N#M#%!u#D#N#N#N#N#N#N#N!A D D D D D D",
" D D A!X#N#N#N#N#N#N!? _#N#N#N#N!O M D D B!-#K#N#N#N#N#N#N!r @ D D D D",
" D D I!|#N#N#N#N#N#N#N#N#N#N#N i D D D D D D ;#5#N#N#N#N#N#N!_ C D D D",
" D D W#-#N#+!6#N#N#N#N#N#N#N y D D D D D D D D C#0#N#N#N#N#N#N!/ D D D",
" D D a#A#N 1  ! #N#N#N#N#N!9 D D D D D D D D D D ;#L#N#N#N#N#N#N C D D",
" D D d#D#@     3#N#N#N#N#6 > D D D D D D D D D D D o#N#N#N#N#N#N!d D D",
" D D c#:#N!@ ##5#N#N#N#N q D D D D D D D D D D D D B!x#N#N#N#N#N#N J D",
" D D [#2#N#N#B#N#N#N#N#; < D D D D D D D D D D D D D W#N#N#N#N#N#N!7 D",
" D D R#(#N#N#N#N#N#N#N!+ D D D D D D D D D D D D D D ?#4#N#N#N#N#N#+ @",
" D D E!w#N#N#N#N#N#N#N U D D D D D D D D D D D D D D D!1#N#N!E!N#N#N ?",
" D D 8!Q#N#N!4!{#N#N#F F D D D D D D D D D D D D D D D c#N#N * *#N#N a",
" D D D!8#N#-   2#N#N!l B D D D D D D D D D D D D D D D C#N#(    !N#N z",
" D D O!M#N t    !@#N!M D D D D D D D D D D D D D D D D B#D w     -#N!,",
" D D D n#N!#     x#N!G D D D D D D D D D D D D D D D D D#;!:     5#N!(",
" D D D Q#N!i     {#N!F D D D D D D D D D D D D D D D D D#:#H    !k#N q",
" D D D C#:#M $   }#N!T D D D D D D D D D D D D D D D D >#B#N 4 )#N#N N",
" D D D D!J#N 7   p#N!~ D D D D D D D D D D D D D D D D M#I#N!h!W#N#N A",
" D D D D Y#N!R   6#N#M M D D D D D D D D D D D D D D D h#N#N#N#N#N#* @",
" D D D D >#I#N    #G#N ` D D D D D D D D D D D D D D D!;#N#N#N#N#N!3 D",
" D D D D D!B#N!'  !@#N!> D D D D D D D D D D D D D D >#7#N#N#N#N#N ^ D",
" D D D D D A#N#N $ &#N#N ? D D D D D D D D D D D D D Y#N#N#N#N#N#$ @ D",
" D D D D D D!=#N!l  !C#N!. D D D D D D D D D D D D B!s#N#N#N#N#N j D D",
" D D D D D D :#K#N X !#N#N I D D D D D D D D D D D u#N#N#N#N#N#) @ D D",
" D D D D D D D a#N#N , T#N!~ A D D D D D D D D D ?#N#N#N#N#N#N N D D D",
" D D D D D D D D!.#N#? .!Y#N!y B D D D D D D D E#E#N#N#N#N#N!$ D D D D",
" D D D D D D D D D!H#N#;!@#D#N!p F D D D D D V#<#N#N#N#N#N!- D D D D D",
" D D D D D D D D D D!*#N#N#K#N#N#H!1 b Z e!e#N#N#N#N#N#N!% D D D D D D",
" D D D D D D D D D D D ]#9#N#N#N#N#N#N#N#N#N#N#N#N#N#2 ^ D D D D D D D",
" D D D D D D D D D D D D B i###N#N#N#N#N#N#N#N#N#- | @ D D D D D D D D",
" D D D D D D D D D D D D D D D U _!3!M!`!^!? s Q D D D D D D D D D D D"};
