/* XPM */
static char *out.png[] = {
"48 48 106 2",
"  	c #060403",
" !	c #080503",
" #	c #090604",
" $	c #0B0604",
" %	c #0C0705",
" &	c #0D0806",
" '	c #0F0906",
" (	c #100A07",
" )	c #120B07",
" *	c #130C08",
" +	c #140C09",
" ,	c #160D09",
" -	c #170E0A",
" .	c #180F0B",
" /	c #1A100B",
" 0	c #1B110C",
" 1	c #1D120C",
" 2	c #1E130D",
" 3	c #1F130E",
" 4	c #21140E",
" 5	c #22150F",
" 6	c #24160F",
" 7	c #251710",
" 8	c #261811",
" 9	c #281911",
" :	c #291912",
" ;	c #2B1A12",
" <	c #2C1B13",
" =	c #2D1C14",
" >	c #2F1D14",
" ?	c #301E15",
" @	c #311F16",
" A	c #331F16",
" B	c #342017",
" C	c #362117",
" D	c #372218",
" E	c #382319",
" F	c #3A2419",
" G	c #3B251A",
" H	c #3D261A",
" I	c #3E261B",
" J	c #3F271C",
" K	c #41281C",
" L	c #42291D",
" M	c #432A1E",
" N	c #452B1E",
" O	c #462C1F",
" P	c #482C1F",
" Q	c #492D20",
" R	c #4A2E21",
" S	c #4C2F21",
" T	c #4D3022",
" U	c #4F3122",
" V	c #503223",
" W	c #513224",
" X	c #533324",
" Y	c #543425",
" Z	c #563525",
" [	c #573626",
" ]	c #583727",
" ^	c #5A3827",
" _	c #5B3928",
" `	c #5C3929",
" a	c #5E3A29",
" b	c #5F3B2A",
" c	c #613C2A",
" d	c #623D2B",
" e	c #633E2C",
" f	c #653F2C",
" g	c #663F2D",
" h	c #68402D",
" i	c #69412E",
" j	c #6A422F",
" k	c #6C432F",
" l	c #6D4430",
" m	c #6E4531",
" n	c #704531",
" o	c #714632",
" p	c #734732",
" q	c #744833",
" r	c #754934",
" s	c #774A34",
" t	c #784B35",
" u	c #785D13",
" v	c #795E14",
" w	c #7A4C35",
" x	c #7B4C36",
" y	c #7C4D37",
" z	c #7E4E37",
" {	c #7F4F38",
" |	c #7F6214",
" }	c #815038",
" ~	c #825139",
"! 	c #83523A",
"!!	c #85523A",
"!#	c #86533B",
"!$	c #876816",
"!%	c #89553C",
"!&	c #896A16",
"!'	c #8A563D",
"!(	c #8C573D",
"!)	c #8D583E",
"!*	c #8E583F",
"!+	c #8E6E17",
"!,	c #917018",
"!-	c #C89B21",
" I N I N N C N I C N I N C N C C I I C C I C N C N N I I N I N I I I C I C N N I N I C C C I I I",
" N b G F ` z { t s!! { }!*!*!'!'!*!*!*!'!'!'!* C C n s q l f f a [ ^ b a d i l i l p q ^ C C ` I",
" I E!-!+ C i X c q r k f { { w { y w y { y w C!- v C k s p f _ ^ U T W S X i l p q p n C!- v E N",
" N E!+!, E y b n!#!)!% z!*!*!*!*!*!*!*!*!'!' C |!& C m!% z m q!'!' q V Q S a i i k n w E |!& C N",
" I Y / 7 - 3 3 / / / 3 3 3 3 3 / / 3 3 / 3 3 3 / / / / 3 3 3 3 3 3 / / 3 3 / / / 3 3 3 2 C A [ N",
" N e B E / $ & + + + + + & & & + + / / / + + / / / + / + / + / / / / / / / / / / / & + = m i i N",
" U e B C / & & & & & + + + + + / / / / 3 3 / + / / + + / 3 3 3 / + / + / 3 / / / + + & = i ` h I",
" I d A @ / $ ! ! ! ! ! ! $ ! ! ! ! $ ! $ ! ! ! $ ! ! ! ! $ & $ ! ! ! ! ! ! ! $ $ & $ $ = k a k I",
" I n S I + $ & $ $ $ $ ! & & $ $ $ $ & $ & $ $ $ & & & $ & & $ $ & & & ! & $ & & & & + = l d k I",
" N y ` ] / $ & $ + + + $ + + & & + + + $ & + + + + & + $ + + + + + + + ! + + + + + + + 8 j V [ I",
" N } b ^ / $ & & & & + $ + & & $ / + / $ / / 3 3 3 / / $ 3 / 3 8 8 / 3 $ / / + + + + + 8 f E I I",
" I x [ F + 0 5 2 0 * . + , , ) + 2 + / ! + + / 3 8 / / ! 3 3 3 8 3 / / $ / / / / + + + 8 f K I I",
" I n S S / : O F < = @ = ; ; 8 > + + + $ / / + + / / / ! / / + / 3 + + $ + / / 3 3 + + 8 n V W N",
" I x [ d 3 < G 8 8 = > : 8 3 9 C , & & ! + / + + + + + ! & / / / + & & $ + + + + & + + = w V R I",
" C z f ] / : I > A E > < A ; A G , $ & $ & + & + + + + ! & & + + + & & $ & & + & & + $ = m R d I",
" C e X P + < M E E G A @ @ B B H # & $ $ $ & & & & & $ ! & + & & & & + $ $ & & & $ & & = s f y N",
" C h M [ + > S K I E E F D F D M # $ ! ! ! ! ! & & ! ! ! & & & & & & & $ $ & & & & & & 8 m S c I",
" C y K Y / @ V P J F I N K H E O % # % & & # $ % & ' & ' 5 + & & & ! & ! $ & & ! $ ! $ 8 i F K N",
" I q F G / C Y O K K R U S K I U % $ , , + , , , - - 2 5 , + $ $ & & & ! ! $ $ ! ! $ $ = w V W C",
" I n K H / H a P R V Z ` W P N d % $ ) & * + + * , - 6 8 , & ! ! ! $ $ $ ! ! $ $ $ $ $ 8 ~ ] ` I",
" N z f U / I f ` Z ` ` a b Y W g ' # , , / / - , 1 3 : 9 , $ ! ! ! ! $ ! ! ! ! $ $ ! $ 8 x a d C",
" I!* y w / O r f b d h p j h b s & % - 0 0 1 - 2 1 7 9 < # $ $ ! $ $ ! ! ! ! ! $ $ ! $ = z i f C",
" I!! C C / Q t k f g k s r n f y % % 0 1 0 0 2 6 3 7 ; = # & $ $ ! ! ! ! ! ! $ $ $ ! ! 8 C C d C",
" C C!- v / O q h a ` j n l l a r & & 1 2 1 3 6 9 9 ; ; A * $ ! $ ! ! % ! % % % ! !     3!- v C C",
" I C |!& + K h ^ X Z b f f ` Z j ' & 0 4 4 7 9 > ? > > D ' $ % % ' + + + + ( % ( $ $ $ 3 |!& C I",
" I } C C + F ` U U X Z ` ` V T g ( ' 2 7 : = = D E A E K & $ ' + + + ' + % ( ( , $ $ $ 8 C C k I",
" C y t p + C X R Q U W X X W U f ' ' 3 ; > @ C H K I I R ( $ ' + + + + , ( ( ( ( $   $ = f ^ g C",
" N!% n m / @ W Q P O P R V R O ^ ' ( 6 ? C C I O U R K Y ) & % + + + ( , , ( ( ,   $ $ = l a f C",
" N } ` S / > T P I G M P O R I X % ( 6 ? C E L T X X P ^ ' & ' % + + , , ( ) & $ $     = m h f I",
" C!  _ X / : O K E @ G L K N C R & ' 5 ? C E K Q V U K ^ ) & ' ( + 0 0 , , & & & $ $   3 n h f N",
" I ~ ^ ] / 6 G G A C E I G F C P ' ' 3 = @ B I L P L J V ) ! % ( , ( , , ) ' & ' $ ! ! 8 o f h N",
" N } ^ _ / 6 C A @ > D K C > B Q ' ' 3 : > ? C J K I G Q ) & % ( , ) , , ' ' ) ' ! $ ! 8 l e d I",
" U } ` ^ / 4 = C > = ? B @ ; ? M ' & 1 9 : = @ E G D C L ) % ' ( ) , , - ) ) ) ) $ ! ! 8 k d f C",
" N } ^ ` + 2 A > 9 8 = @ A @ 3 N ' & 0 8 9 = > C F E B F ) % ( , , , ) - ' ) ) - $ $ % = k e f I",
" C } _ ` / 4 B > / 2 < ? ? C 9 @ ' & 0 7 9 ; = B C C > C ) % ' , , , , - ) ) ) ) $ ! % = k f i I",
" I ~ b a / 2 A = , 2 9 ? > B > E ' % 0 6 8 8 < > @ @ : > ' & % , , , ) , , ) ) - ! $ % 8 q f k N",
" N!  h i / 3 C 7 2 9 @ C @ @ @ K ( % / 3 6 8 8 > > = 8 > ( & ' % , , , , ) ( ' % $ ! # 8 z j k I",
" C!! h k / 5 B 6 4 ? C F @ E C M ' % , 2 5 4 7 : 8 9 8 > & & ' ' , 0 0 , , & & & $ $ # 8!! q s N",
" N!( l l / / = 3 3 > @ C C E C X ' $ + 0 1 3 4 8 4 9 6 @ ' $ + % + ' + ( & & & & $ ! # 3!# t y N",
" C!% k f / + 8 : > > C E K D I R + $ ) 0 0 1 2 3 3 7 8 > % $ % % + % ' ( & $ $ & $ ! # 3 y j q C",
" I!# e ] / & 1 8 7 9 < C H F > Q ( $ * . / - / 1 2 4 6 9 % $ % ' + % % ( & & & $ $ % # 8 q ] k C",
" I { ` Y 3 ' / 8 / 8 @ @ E I C F ) # + - / / - / 2 4 4 8 % $ % % % % ' & & % $ $ $ % # 8 p ^ i I",
" C } ^ V / ( . 0 * 5 > C > E O O & # ) , - , . 2 2 1 4 9 & $ $ ! % % ' % % & $ $ ! ! # = y m l C",
" C ` 8 7 - 8 8 8 = 8 = 8 8 3 8 8 = 8 8 8 8 3 8 8 8 3 8 3 3 = 3 = 8 8 = 8 8 8 8 3 3 8 3 6 C : ^ C",
" C I!- u 8 _ q z l d l n d c _ c w } z y y y C!- v C x { { ~ t y x r k l n y!% x k h s I!- v D C",
" I J |!$ 0 P l p ^ ^ f d W N S T ` c ` a d d C |!& C i p q i g c Z f c X ^ f o k f V ^ 9 |!& E I",
" I ` K K d!'!*!*!'!*!'!*!'!'!'!'!'!'!'!*!*!'!' C C!*!*!'!*!'!*!*!'!*!*!*!*!'!'!*!' w w _ E E ` N",
" + / + / 3 3 / 3 3 / 3 / / / / / / / + / / / / + / / 3 / / 3 3 3 3 3 3 / + / 3 3 3 3 / / / 3 3 3"};
