/* XPM */
static char *0.png[] = {
"35 48 243 2",
"  	c #000000",
" !	c #010101",
" #	c #020202",
" $	c #030303",
" %	c #050505",
" &	c #060606",
" '	c #080808",
" (	c #0A0A0A",
" )	c #0D0D0D",
" *	c #0F0F0F",
" +	c #101010",
" ,	c #131313",
" -	c #141414",
" .	c #151515",
" /	c #161616",
" 0	c #1B1B1B",
" 1	c #1C1C1C",
" 2	c #1F1F1F",
" 3	c #2B2B2B",
" 4	c #2C2C2C",
" 5	c #2D2D2D",
" 6	c #2E2E2E",
" 7	c #2F2F2F",
" 8	c #343434",
" 9	c #353535",
" :	c #373737",
" ;	c #383838",
" <	c #393939",
" =	c #3B3B3B",
" >	c #3C3C3C",
" ?	c #3D3D3D",
" @	c #404040",
" A	c #424242",
" B	c #434343",
" C	c #454245",
" D	c #484548",
" E	c #484848",
" F	c #494549",
" G	c #494649",
" H	c #494949",
" I	c #4A464A",
" J	c #4A474A",
" K	c #4A4A4A",
" L	c #4B474B",
" M	c #4B484B",
" N	c #4C484C",
" O	c #4C494C",
" P	c #4C4C4C",
" Q	c #4D494D",
" R	c #4D4A4D",
" S	c #4D4D4D",
" T	c #4E4A4E",
" U	c #4E4B4E",
" V	c #4F4B4F",
" W	c #4F4C4F",
" X	c #504C50",
" Y	c #504E50",
" Z	c #514D51",
" [	c #514E51",
" ]	c #514F51",
" ^	c #524F52",
" _	c #525052",
" `	c #525252",
" a	c #534F53",
" b	c #535153",
" c	c #535353",
" d	c #545254",
" e	c #555255",
" f	c #555355",
" g	c #555555",
" h	c #565356",
" i	c #575457",
" j	c #575557",
" k	c #575757",
" l	c #585558",
" m	c #585658",
" n	c #595659",
" o	c #595759",
" p	c #5A575A",
" q	c #5B585B",
" r	c #5B595B",
" s	c #5C595C",
" t	c #5E5E5E",
" u	c #5F5C5F",
" v	c #5F5D5F",
" w	c #605D60",
" x	c #615F61",
" y	c #626062",
" z	c #636163",
" {	c #636363",
" |	c #646164",
" }	c #656365",
" ~	c #656565",
"! 	c #666366",
"!!	c #666466",
"!#	c #666666",
"!$	c #686668",
"!%	c #696769",
"!&	c #6A686A",
"!'	c #6A6A6A",
"!(	c #6C6A6C",
"!)	c #6D6B6D",
"!*	c #6E6C6E",
"!+	c #6E6E6E",
"!,	c #6F6C6F",
"!-	c #716F71",
"!.	c #727072",
"!/	c #727272",
"!0	c #747274",
"!1	c #767476",
"!2	c #767576",
"!3	c #787678",
"!4	c #787878",
"!5	c #797779",
"!6	c #797879",
"!7	c #7A7A7A",
"!8	c #7B797B",
"!9	c #7C7A7C",
"!:	c #7D7B7D",
"!;	c #7E7C7E",
"!<	c #7E7D7E",
"!=	c #7F7D7F",
"!>	c #7F7E7F",
"!?	c #807E80",
"!@	c #807F80",
"!A	c #808080",
"!B	c #828282",
"!C	c #838183",
"!D	c #838283",
"!E	c #848284",
"!F	c #848484",
"!G	c #858385",
"!H	c #858485",
"!I	c #868586",
"!J	c #878787",
"!K	c #888688",
"!L	c #898989",
"!M	c #8A888A",
"!N	c #8A898A",
"!O	c #8A8A8A",
"!P	c #8B8B8B",
"!Q	c #8C8B8C",
"!R	c #8E8D8E",
"!S	c #8E8E8E",
"!T	c #919091",
"!U	c #919191",
"!V	c #929292",
"!W	c #949294",
"!X	c #959495",
"!Y	c #969696",
"!Z	c #989798",
"![	c #9A999A",
"!]	c #9B9A9B",
"!^	c #9C9C9C",
"!_	c #9D9D9D",
"!`	c #9E9E9E",
"!a	c #9F9E9F",
"!b	c #A1A1A1",
"!c	c #A2A2A2",
"!d	c #A3A2A3",
"!e	c #A3A3A3",
"!f	c #A4A4A4",
"!g	c #A6A5A6",
"!h	c #A6A6A6",
"!i	c #A7A7A7",
"!j	c #A8A8A8",
"!k	c #A9A9A9",
"!l	c #ACABAC",
"!m	c #ACACAC",
"!n	c #ADACAD",
"!o	c #AEADAE",
"!p	c #AFAFAF",
"!q	c #B0AFB0",
"!r	c #B0B0B0",
"!s	c #B1B0B1",
"!t	c #B1B1B1",
"!u	c #B4B3B4",
"!v	c #B5B4B5",
"!w	c #B5B5B5",
"!x	c #B6B6B6",
"!y	c #B7B6B7",
"!z	c #B8B7B8",
"!{	c #BBBBBB",
"!|	c #BCBCBC",
"!}	c #BEBEBE",
"!~	c #BFBEBF",
"# 	c #C0BFC0",
"#!	c #C0C0C0",
"##	c #C1C1C1",
"#$	c #C2C2C2",
"#%	c #C3C3C3",
"#&	c #C4C4C4",
"#'	c #C7C6C7",
"#(	c #CAC9CA",
"#)	c #CACACA",
"#*	c #CBCACB",
"#+	c #CCCBCC",
"#,	c #CCCCCC",
"#-	c #CDCDCD",
"#.	c #CECECE",
"#/	c #D0D0D0",
"#0	c #D1D1D1",
"#1	c #D2D2D2",
"#2	c #D3D3D3",
"#3	c #D4D4D4",
"#4	c #D5D5D5",
"#5	c #D6D6D6",
"#6	c #D7D7D7",
"#7	c #D8D7D8",
"#8	c #D8D8D8",
"#9	c #DADADA",
"#:	c #DBDADB",
"#;	c #DDDCDD",
"#<	c #DDDDDD",
"#=	c #DEDEDE",
"#>	c #E0E0E0",
"#?	c #E1E1E1",
"#@	c #E2E2E2",
"#A	c #E3E3E3",
"#B	c #E4E4E4",
"#C	c #E5E4E5",
"#D	c #E5E5E5",
"#E	c #E6E6E6",
"#F	c #E8E8E8",
"#G	c #EAEAEA",
"#H	c #ECECEC",
"#I	c #EDEDED",
"#J	c #EEEEEE",
"#K	c #F0F0F0",
"#L	c #F1F1F1",
"#M	c #F2F2F2",
"#N	c #F4F4F4",
"#O	c #F5F5F5",
"#P	c #F6F6F6",
"#Q	c #F7F7F7",
"#R	c #F8F8F8",
"#S	c #F9F9F9",
"#T	c #FAFAFA",
"#U	c #FBFBFB",
"#V	c #FCFCFC",
"#W	c #FDFDFD",
"#X	c #FEFEFE",
"#Y	c #FFFFFF",
" T T T T T T T T T T T T T T T V n!! [ m s T T T T T T T T T T T T T T",
" T T T T T T T T T T T T T T e!K!l#:#G#C!~!H x Q T T T T T T T T T T T",
" T T T T T T T T T T T T L!T#W#Y#Y#Y#Y#Y#Y#Y#Y!{ s T T T T T T T T T T",
" T T T T T T T T T T T }#W#Y#Y#Y#U!6 y!<#V#Y#Y#Y#Y!I T T T T T T T T T",
" T T T T T T T T T T!:#Y#Y#Y#Y#( R T T T ^#/#Y#W#Y#Y!q J T T T T T T T",
" T T T T T T T T T!M#Y#B!p#Y#O G T T T T T M#Y#Y!_#9#Y!x Q T T T T T T",
" T T T T T T T T!-#Y#> 9#=#Y ^ T T T T T T T r#Y#. 6#B#Y![ T T T T T T",
" T T T T T T T O#Y#Y /!L#Y!a T T T T T T T T T!v#Y!B 1#Y#Y y T T T T T",
" T T T T T T Q#2#Y K ,#Y#Y I T T T T T T T T T W#Y#Y ' t#Y#Y N T T T T",
" T T T T T T!$#Y!m  !i#Y!] T T T T T T T T T T T!z#Y!_  !|#Y![ T T T T",
" T T T T T N#P#Y # )#Y#Y q T T T T T T T T T T T o#Y#Y % (#Y#Y N T T T",
" T T T T T }#Y!4   ~#Y#? Q T T T T T T T T T T T N#S#Y c  !S#Y!> T T T",
" T T T T T#5#Y $  !^#Y!> T T T T T T T T T T T T T!d#Y!P   +#Y#M N T T",
" T T T T O#Y!f    #%#Y f T T T T T T T T T T T T T!*#Y!k    !m#Y ^ T T",
" T T T T!,#Y :    #K#Y X T T T T T T T T T T T T T _#Y#-     S#Y!9 T T",
" T T T T!Z#Y     &#Y#; T T T T T T T T T T T T T T O#N#V     -#Y#' T T",
" T T T L!|#Y 7   {#Y!] T T T T T T T T T T T T T T T!y#Y k   >#Y#K Q T",
" T T T T#D#Y!c -#S#Y!! T T T T T T T T T T T T T T T!1#Y#H +!t#Y#U p T",
" T T T O#W#Y#W#@#Y#Y | T T T T T T T T T T T T T T T!=#Y#Y#<#Y#Y#Y e T",
" T T T d#Y#Y#Y#Y#Y#Y e T T T T T T T T T T T T T T T!.#Y#Y#Y#Y#Y#Y!% T",
" T T T z#Y#Y#Y#Y#Y#T D T T T T T T T T T T T T T T T e#Y#Y#Y#Y#Y#Y!@ T",
" T T T!.#Y#Y!F!r#Y#L D T T T T T T T T T T T T T T T M#Y#Y!`!J#Y#Y!Q T",
" T T T!9#Y!}   !#J#L T T T T T T T T T T T T T T T T D#Y#8    ###Y!Z T",
" T T T!E#Y!i    #F#J T T T T T T T T T T T T T T T T l#Y#&    !h#Y!d T",
" T T T!C#Y#Y `!F#Y#4 T T T T T T T T T T T T T T T T w#S#Y!+ g#Y#Y!g T",
" T T T!;#Y#Y#Y#Y#Y#6 T T T T T T T T T T T T T T T T a#U#Y#Y#Y#Y#Y!] T",
" T T T!0#Y#Y#Y#Y#Y#B Q T T T T T T T T T T T T T T T C#Y#Y#Y#Y#Y#Y!T T",
" T T T!%#Y#Y#Y#Y#Y#P C T T T T T T T T T T T T T T T U#Y#Y#Y#Y#Y#Y!D T",
" T T T v#Y#Y!b!P#Y#Y W T T T T T T T T T T T T T T T l#Y#Y!7!j#Y#Y!) T",
" T T T [#Y#Y .  #K#Y y T T T T T T T T T T T T T T T!3#Y#=   2#Y#Y p T",
" T T T T#W#$    !'#Y!  T T T T T T T T T T T T T T T!=#Y E    #!#Y | T",
" T T T Q#R#,     K#Y!? T T T T T T T T T T T T T T T!N#Y 3    #3#Y Z T",
" T T T N!y#Y '   H#Y!z T T T T T T T T T T T T T T T#0#Y 4   *#Y#> T T",
" T T T T!W#Y =   <#Y#K V T T T T T T T T T T T T T O#U#Y 1   @#Y!R T T",
" T T T T!$#Y!O   0#Y#Y e T T T T T T T T T T T T T b#Y#J $  !O#Y r T T",
" T T T T J#Y#J    #H#Y!$ T T T T T T T T T T T T T!;#Y#!    #L#Y J T T",
" T T T T T#&#Y 8  !w#Y#  T T T T T T T T T T T T T#)#Y!Y   B#Y!o T T T",
" T T T T T }#Y#%  !##Y#Y a T T T T T T T T T T T O#Y#Y P  #.#Y x T T T",
" T T T T T N#U#Y 5 $#Y#Y!G T T T T T T T T T T T!;#Y#X   6#Y#P N T T T",
" T T T T T T!&#Y#A  !F#Y#O L T T T T T T T T T N#T#Y!+  #E#Y!2 T T T T",
" T T T T T T T#2#Y!/  #W#Y!1 T T T T T T T T T!8#Y#Q  !4#Y#O J T T T T",
" T T T T T T T M#Y#Y ; A#Y#Y L T T T T T T T F#Y#Y 9 ?#Y#Y } T T T T T",
" T T T T T T T T j#Y#Y =!f#Y#* N T T T T T Q#-#Y!U =#Y#Y!n T T T T T T",
" T T T T T T T T T!&#Y#Y!V#=#Y!s V T T T N!e#Y#1!A#Y#Y#7 I T T T T T T",
" T T T T T T T T T T i#Q#Y#V#Y#Y#<!& i u#2#Y#Y#E#Y#Y!u D T T T T T T T",
" T T T T T T T T T T T ^!X#Y#Y#Y#Y#Y#Y#Y#Y#Y#Y#Y#Q!5 Q T T T T T T T T",
" T T T T T T T T T T T T T W!=#+#K#Y#Y#Y#Y#I!z!( L T T T T T T T T T T",
" T T T T T T T T T T T T T T T T h w Y ] p i T T T T T T T T T T T T T"};
