/* XPM */
static char *3.png[] = {
"35 48 181 2",
"  	c #000000",
" !	c #121212",
" #	c #1B1B1B",
" $	c #202020",
" %	c #282828",
" &	c #303030",
" '	c #3C3C3C",
" (	c #404040",
" )	c #484548",
" *	c #494549",
" +	c #494649",
" ,	c #4A464A",
" -	c #4B474B",
" .	c #4B484B",
" /	c #4B494B",
" 0	c #4C484C",
" 1	c #4C494C",
" 2	c #4C4C4C",
" 3	c #4D494D",
" 4	c #4D4A4D",
" 5	c #4D4B4D",
" 6	c #4E4A4E",
" 7	c #4E4B4E",
" 8	c #4F4B4F",
" 9	c #4F4C4F",
" :	c #504D50",
" ;	c #504E50",
" <	c #514D51",
" =	c #514E51",
" >	c #524F52",
" ?	c #525052",
" @	c #535053",
" A	c #535153",
" B	c #545154",
" C	c #545254",
" D	c #565356",
" E	c #575757",
" F	c #585658",
" G	c #595659",
" H	c #5A575A",
" I	c #5B595B",
" J	c #5C595C",
" K	c #5D5B5D",
" L	c #5E5B5E",
" M	c #5E5C5E",
" N	c #605E60",
" O	c #615E61",
" P	c #615F61",
" Q	c #625F62",
" R	c #626062",
" S	c #636163",
" T	c #646364",
" U	c #656265",
" V	c #656465",
" W	c #656565",
" X	c #666366",
" Y	c #666466",
" Z	c #676567",
" [	c #676667",
" ]	c #676767",
" ^	c #696769",
" _	c #6A676A",
" `	c #6A686A",
" a	c #6B696B",
" b	c #6C6A6C",
" c	c #6C6B6C",
" d	c #6E6C6E",
" e	c #706E70",
" f	c #716F71",
" g	c #737173",
" h	c #747274",
" i	c #757375",
" j	c #767476",
" k	c #767676",
" l	c #787778",
" m	c #797879",
" n	c #7B797B",
" o	c #7C7A7C",
" p	c #7C7B7C",
" q	c #7D7B7D",
" r	c #7D7C7D",
" s	c #7D7D7D",
" t	c #7E7C7E",
" u	c #7E7D7E",
" v	c #7F7E7F",
" w	c #807E80",
" x	c #807F80",
" y	c #817F81",
" z	c #818081",
" {	c #828182",
" |	c #848284",
" }	c #848384",
" ~	c #868686",
"! 	c #878687",
"!!	c #888688",
"!#	c #898989",
"!$	c #8A8A8A",
"!%	c #8B8A8B",
"!&	c #8C8B8C",
"!'	c #8D8C8D",
"!(	c #929192",
"!)	c #949394",
"!*	c #959495",
"!+	c #979697",
"!,	c #9A999A",
"!-	c #9B9A9B",
"!.	c #9B9B9B",
"!/	c #9C9B9C",
"!0	c #9D9B9D",
"!1	c #A09FA0",
"!2	c #A4A3A4",
"!3	c #A5A4A5",
"!4	c #A6A4A6",
"!5	c #A7A6A7",
"!6	c #AAA9AA",
"!7	c #ABAAAB",
"!8	c #ADACAD",
"!9	c #AEADAE",
"!:	c #AEAEAE",
"!;	c #AFAEAF",
"!<	c #B0B0B0",
"!=	c #B1B0B1",
"!>	c #B2B1B2",
"!?	c #B3B3B3",
"!@	c #B4B3B4",
"!A	c #B5B4B5",
"!B	c #B6B5B6",
"!C	c #B6B6B6",
"!D	c #B7B5B7",
"!E	c #B8B7B8",
"!F	c #BABABA",
"!G	c #BBBABB",
"!H	c #BFBFBF",
"!I	c #C1BFC1",
"!J	c #C1C0C1",
"!K	c #C1C1C1",
"!L	c #C2C2C2",
"!M	c #C3C3C3",
"!N	c #C4C4C4",
"!O	c #C5C4C5",
"!P	c #C7C6C7",
"!Q	c #C7C7C7",
"!R	c #C8C8C8",
"!S	c #C9C9C9",
"!T	c #CACACA",
"!U	c #CDCDCD",
"!V	c #CECECE",
"!W	c #CFCFCF",
"!X	c #D0D0D0",
"!Y	c #D2D2D2",
"!Z	c #D5D5D5",
"![	c #D6D5D6",
"!]	c #D6D6D6",
"!^	c #D8D8D8",
"!_	c #D9D8D9",
"!`	c #DCDCDC",
"!a	c #DDDCDD",
"!b	c #DEDEDE",
"!c	c #DFDFDF",
"!d	c #E2E2E2",
"!e	c #E4E4E4",
"!f	c #E5E5E5",
"!g	c #E8E8E8",
"!h	c #E9E9E9",
"!i	c #EAEAEA",
"!j	c #EBEBEB",
"!k	c #EDEDED",
"!l	c #EEEEEE",
"!m	c #F0F0F0",
"!n	c #F1F1F1",
"!o	c #F2F2F2",
"!p	c #F3F3F3",
"!q	c #F4F4F4",
"!r	c #F5F4F5",
"!s	c #F5F5F5",
"!t	c #F7F7F7",
"!u	c #FBFBFB",
"!v	c #FCFCFC",
"!w	c #FDFDFD",
"!x	c #FEFEFE",
"!y	c #FFFFFF",
" 6 6 6 6 6 6 6 6 6 6 6 6 6 6 D S r!,!6!3!- w U G 6 6 6 6 6 6 6 6 6 6 6",
" 6 6 6 6 6 6 6 6 6 6 6 6 ;!A!w!y!y!y!y!y!y!y!y!x!O K 6 6 6 6 6 6 6 6 6",
" 6 6 6 6 6 6 6 6 6 6 <!;!y!y!y!y!y!y!y!y!y!y!y!y!y!y!N 3 6 6 6 6 6 6 6",
" 6 6 6 6 6 6 6 6 6 1!o!y!y!y!y!w!B!*!4!3!d!y!y!y!y!y!y!v 1 6 6 6 6 6 6",
" 6 6 6 6 6 6 6 6 B!y!y!y!y!y!( : 6 6 6 6 8 l!y!y!y!y!y!y!_ , 6 6 6 6 6",
" 6 6 6 6 6 6 6 3!N!y!y!y!y!S 0 6 6 6 6 6 6 6 C!y!y!y!y!y!y t 6 6 6 6 6",
" 6 6 6 6 6 6 6 =!y!y!y!y!X , 6 6 6 6 6 6 6 6 6 I!y!y!y!y!y!q + 6 6 6 6",
" 6 6 6 6 6 6 6 g!y!y!y!e . 6 6 6 6 6 6 6 6 6 6 3!U!y!y!#!Z!y d 6 6 6 6",
" 6 6 6 6 6 6 6!>!y!y!w . 6 6 6 6 6 6 6 6 6 6 6 6 h!y!u   k!y!  6 6 6 6",
" 6 6 6 6 6 6 )!u!y!y 4 6 6 6 6 6 6 6 6 6 6 6 6 6 F!y!C   $!y!@ 6 6 6 6",
" 6 6 6 6 6 6 L!y!y C 6 6 6 6 6 6 6 6 6 6 6 6 6 6 5!y W    !K!V 6 6 6 6",
" 6 6 6 6 6 6!(!y P 6 6 6 6 6 6 6 6 6 6 6 6 6 6 6 ;!y!$    !^!O 6 6 6 6",
" 6 6 6 6 6 3!w p 6 6 6 6 6 6 6 6 6 6 6 6 6 6 6 6 S!y!g   (!y!& 6 6 6 6",
" 6 6 6 6 6 Q } 6 6 6 6 6 6 6 6 6 6 6 6 6 6 6 6 6 e!y!y % ~!y o 6 6 6 6",
" 6 6 6 6 6 : * 6 6 6 6 6 6 6 6 6 6 6 6 6 6 6 6 6!+!y!y!H!i!y @ 6 6 6 6",
" 6 6 6 6 6 6 6 6 6 6 6 6 6 6 6 6 6 6 6 6 6 6 6 )!w!y!y!y!y!< 6 6 6 6 6",
" 6 6 6 6 6 6 6 6 6 6 6 6 6 6 6 6 6 6 6 6 6 6 6 y!y!y!y!y!y @ 6 6 6 6 6",
" 6 6 6 6 6 6 6 6 6 6 6 6 6 6 6 6 6 6 6 6 6 6 M!y!y!y!y!y!! 6 6 6 6 6 6",
" 6 6 6 6 6 6 6 6 6 6 6 6 6 6 6 6 6 6 6 6 6 M!y!y!y!y!y!E 1 6 6 6 6 6 6",
" 6 6 6 6 6 6 6 6 6 6 6 6 6 6 6 6 6 6 6 >!+!y!y!y!y!y!8 - 6 6 6 6 6 6 6",
" 6 6 6 6 6 6 6 6 6 6 6 6 6 6 3 ; N f!3!u!y!y!y!y!y m 6 6 6 6 6 6 6 6 6",
" 6 6 6 6 6 6 6 6 6 6 6 6 6 6 w!y!y!y!y!y!y!y!y!G , 6 6 6 6 6 6 6 6 6 6",
" 6 6 6 6 6 6 6 6 6 6 6 6 6 6!`!y!y!y!y!y!y!y!y!p!, = 6 6 6 6 6 6 6 6 6",
" 6 6 6 6 6 6 6 6 6 6 6 6 6 0 Y V [ u!2!k!y!y!y!y!y!y!: . 6 6 6 6 6 6 6",
" 6 6 6 6 6 6 6 6 6 6 6 6 6 6 6 6 6 6 6 8 Z!S!y!y!y!y!y!n @ 6 6 6 6 6 6",
" 6 6 6 6 6 6 6 6 6 6 6 6 6 6 6 6 6 6 6 6 6 6 p!y!y!y!y!y!y 9 6 6 6 6 6",
" 6 6 6 6 6 6 6 6 6 6 6 6 6 6 6 6 6 6 6 6 6 6 6 M!y!y!y!y!y!h . 6 6 6 6",
" 6 6 6 6 6 6 6 6 6 6 6 6 6 6 6 6 6 6 6 6 6 6 6 6 |!y!y!y!y!y!) 6 6 6 6",
" 6 6 6 6 6 6 6 6 6 6 6 6 6 6 6 6 6 6 6 6 6 6 6 6 0!b!y!y!y!y!y 4 6 6 6",
" 6 6 6 6 6 6 6 6 6 6 6 6 6 6 6 6 6 6 6 6 6 6 6 6 6 a!y!y!y!y!y z . 6 6",
" 6 6 6 6 6 6 6 6 6 6 6 6 6 6 6 6 6 6 6 6 6 6 6 6 6 7!y!y!T!?!y!M > 6 6",
" 6 6 6 6 6 6 6 6 6 6 6 6 6 6 6 6 6 6 6 6 6 6 6 6 6 <!a!y ] #!y!t h 6 6",
" 6 6 6 6 6 6 6 6 6 6 6 6 6 6 6 6 6 6 6 6 6 6 6 6 6 6!>!y &  !M!y!2 6 6",
" 6 6 6 6 6 6 6 6 6 6 6 6 6 6 6 6 6 6 6 6 6 6 6 6 6 6!J!l     2!y!I 6 6",
" 6 6 6 6 6 6 6 6 6 6 6 6 6 6 6 6 6 6 6 6 6 6 6 6 6 6!J!s     E!y!D 6 6",
" 6 6 6 6 6 3 6 6 6 6 6 6 6 6 6 6 6 6 6 6 6 6 6 6 6 6!9!y '  !R!y!) 6 6",
" 6 6 6 6 6 T O 6 6 6 6 6 6 6 6 6 6 6 6 6 6 6 6 6 6 9!Y!y s !!y!s b 6 6",
" 6 6 6 6 6 ^!y 4 6 6 6 6 6 6 6 6 6 6 6 6 6 6 6 6 6 9!y!y!Q!.!y!P ? 6 6",
" 6 6 6 6 6 1!j!y H 6 6 6 6 6 6 6 6 6 6 6 6 6 6 6 6 `!y!y!y!y!y!% 1 6 6",
" 6 6 6 6 6 6 x!y!y R 6 6 6 6 6 6 6 6 6 6 6 6 6 6 *!q!y!y!y!y!y = 6 6 6",
" 6 6 6 6 6 6 1!y!y!y { 6 6 6 6 6 6 6 6 6 6 6 6 6!'!y!y!y!y!y!F 6 6 6 6",
" 6 6 6 6 6 6 6!]!y!y!y!7 4 6 6 6 6 6 6 6 6 6 6 ^!y!y!y!y!y!y A 6 6 6 6",
" 6 6 6 6 6 6 6 v!y!y!y!y!J . 6 6 6 6 6 6 6 0!/!y!y!y!y!y!y { 6 6 6 6 6",
" 6 6 6 6 6 6 6 =!y!y!y!y!y!r!5 c j _ D U n!f!y!y!y!y!y!y!= 3 6 6 6 6 6",
" 6 6 6 6 6 6 6 4!B!y!y!y!y!y!y!y!y!w!u!y!y!y!y!y!y!y!y!, 3 6 6 6 6 6 6",
" 6 6 6 6 6 6 6 6 6 q!c!y!y!y!y!y!y!y!y!y!y!y!y!y!y!W R 6 6 6 6 6 6 6 6",
" 6 6 6 6 6 6 6 6 6 6 6 J i!1![!m!w!y!y!y!w!l!L!0 X 3 6 6 6 6 6 6 6 6 6",
" 6 6 6 6 6 6 6 6 6 6 6 6 6 6 8 0 1 / : 1 9 6 6 6 6 6 6 6 6 6 6 6 6 6 6"};
