/* XPM */
static char *5.png[] = {
"35 48 196 2",
"  	c #000000",
" !	c #070707",
" #	c #090909",
" $	c #0D0D0D",
" %	c #101010",
" &	c #171717",
" '	c #202020",
" (	c #222222",
" )	c #282828",
" *	c #2B2B2B",
" +	c #383838",
" ,	c #3C3C3C",
" -	c #434343",
" .	c #484548",
" /	c #494549",
" 0	c #494649",
" 1	c #4A474A",
" 2	c #4A4A4A",
" 3	c #4B474B",
" 4	c #4B484B",
" 5	c #4C484C",
" 6	c #4C494C",
" 7	c #4D494D",
" 8	c #4D4A4D",
" 9	c #4E4A4E",
" :	c #4E4B4E",
" ;	c #4E4C4E",
" <	c #4F4B4F",
" =	c #4F4C4F",
" >	c #4F4D4F",
" ?	c #504C50",
" @	c #504D50",
" A	c #514D51",
" B	c #514E51",
" C	c #514F51",
" D	c #524F52",
" E	c #535153",
" F	c #535353",
" G	c #545054",
" H	c #545154",
" I	c #545454",
" J	c #565356",
" K	c #565456",
" L	c #575557",
" M	c #585558",
" N	c #585858",
" O	c #595759",
" P	c #5A575A",
" Q	c #5C5A5C",
" R	c #5D5A5D",
" S	c #5E5B5E",
" T	c #5F5C5F",
" U	c #5F5D5F",
" V	c #5F5F5F",
" W	c #605E60",
" X	c #615F61",
" Y	c #636163",
" Z	c #656365",
" [	c #666666",
" ]	c #676567",
" ^	c #686568",
" _	c #686668",
" `	c #696769",
" a	c #6B696B",
" b	c #6D6C6D",
" c	c #6E6C6E",
" d	c #737373",
" e	c #747274",
" f	c #747374",
" g	c #767476",
" h	c #767576",
" i	c #777577",
" j	c #787778",
" k	c #797779",
" l	c #797979",
" m	c #7B797B",
" n	c #7C7B7C",
" o	c #7C7C7C",
" p	c #7D7B7D",
" q	c #7E7C7E",
" r	c #7E7E7E",
" s	c #7F7E7F",
" t	c #807E80",
" u	c #807F80",
" v	c #808080",
" w	c #817F81",
" x	c #848284",
" y	c #848384",
" z	c #858485",
" {	c #868486",
" |	c #878687",
" }	c #888788",
" ~	c #898889",
"! 	c #8A8A8A",
"!!	c #8B898B",
"!#	c #8B8A8B",
"!$	c #8B8B8B",
"!%	c #8C8B8C",
"!&	c #8C8C8C",
"!'	c #8D8C8D",
"!(	c #8E8D8E",
"!)	c #8F8D8F",
"!*	c #908E90",
"!+	c #908F90",
"!,	c #918F91",
"!-	c #919091",
"!.	c #929192",
"!/	c #939193",
"!0	c #939293",
"!1	c #949394",
"!2	c #959495",
"!3	c #969496",
"!4	c #979697",
"!5	c #989698",
"!6	c #989798",
"!7	c #9A999A",
"!8	c #9B9A9B",
"!9	c #9C9A9C",
"!:	c #9D9B9D",
"!;	c #A09FA0",
"!<	c #A1A0A1",
"!=	c #A1A1A1",
"!>	c #A4A3A4",
"!?	c #A4A4A4",
"!@	c #A6A4A6",
"!A	c #A6A6A6",
"!B	c #A7A6A7",
"!C	c #A8A7A8",
"!D	c #AAA9AA",
"!E	c #ACABAC",
"!F	c #ADACAD",
"!G	c #ADADAD",
"!H	c #AEADAE",
"!I	c #AFAEAF",
"!J	c #AFAFAF",
"!K	c #B1B0B1",
"!L	c #B2B2B2",
"!M	c #B3B3B3",
"!N	c #B4B3B4",
"!O	c #B5B4B5",
"!P	c #B8B8B8",
"!Q	c #B9B8B9",
"!R	c #BBBBBB",
"!S	c #BDBCBD",
"!T	c #BDBDBD",
"!U	c #C0BFC0",
"!V	c #C1C0C1",
"!W	c #C1C1C1",
"!X	c #C2C2C2",
"!Y	c #C3C2C3",
"!Z	c #C3C3C3",
"![	c #C4C3C4",
"!]	c #C6C5C6",
"!^	c #C7C6C7",
"!_	c #C7C7C7",
"!`	c #C8C7C8",
"!a	c #C9C8C9",
"!b	c #C9C9C9",
"!c	c #CBCBCB",
"!d	c #CECECE",
"!e	c #CFCECF",
"!f	c #D0CFD0",
"!g	c #D1D0D1",
"!h	c #D2D1D2",
"!i	c #D4D4D4",
"!j	c #D5D4D5",
"!k	c #D7D7D7",
"!l	c #D8D8D8",
"!m	c #DBDADB",
"!n	c #DCDCDC",
"!o	c #DDDCDD",
"!p	c #DEDDDE",
"!q	c #DFDEDF",
"!r	c #DFDFDF",
"!s	c #E0DFE0",
"!t	c #E0E0E0",
"!u	c #E1E0E1",
"!v	c #E1E1E1",
"!w	c #E2E2E2",
"!x	c #E3E3E3",
"!y	c #E5E4E5",
"!z	c #E7E7E7",
"!{	c #EAEAEA",
"!|	c #EBEBEB",
"!}	c #EFEFEF",
"!~	c #F1F1F1",
"# 	c #F2F2F2",
"#!	c #F4F4F4",
"##	c #F5F5F5",
"#$	c #F8F8F8",
"#%	c #F9F9F9",
"#&	c #FAFAFA",
"#'	c #FCFCFC",
"#(	c #FDFDFD",
"#)	c #FEFEFE",
"#*	c #FFFFFF",
" 9 9 9 9 9 9 `!'!!!#!#!6!>!@!<!9!5!3!/!)!!!#!#!#!!!#!!!. Q 9 9 9 9 9 9",
" 9 9 9 9 9 9!P#*#*#*#*#*!G!P!r#)#*#*#*#*#*#*#*#*#*#*#*#*!p 9 9 9 9 9 9",
" 9 9 9 9 9 9!8#*#*#) v #         ! $ ( + I d!$!?!k#*#*#*#* ; 9 9 9 9 9",
" 9 9 9 9 9 9!8#*#*#( V               % ' * F o!=!c#*#*#*#*!0 9 9 9 9 9",
" 9 9 9 9 9 9!8#*#*#*#*!t r!&!L!i!}#*#*#*#*#*#*#*#*#*#*#*#*#& 7 9 9 9 9",
" 9 9 9 9 9 9!8#*#*!~!P!o!u!w!u!s!q!l!f!a!^!]!Z!Q#*#*#*#*#*#* ] 9 9 9 9",
" 9 9 9 9 9 9!8#*#*!F 9 9 9 9 9 9 9 9 9 9 9 9 9 9 4!R#*#*#*#*!` 9 9 9 9",
" 9 9 9 9 9 9!7#*#*!N 9 9 9 9 9 9 9 9 9 9 9 9 9 9 9 7 |#*#*#*#* C 9 9 9",
" 9 9 9 9 9 9!7#*#*!H 9 9 9 9 9 9 9 9 9 9 9 9 9 9 9 9 9 W!~#*#*!. 9 9 9",
" 9 9 9 9 9 9!7#*#*!I 9 9 9 9 9 9 9 9 9 9 9 9 9 9 9 9 9 9 1!E#*#' = 9 9",
" 9 9 9 9 9 9!8#*#*!H 9 9 9 9 9 9 9 9 9 9 9 9 9 9 9 9 9 9 9 9 p#* f 9 9",
" 9 9 9 9 9 9!8#*#*!I 9 9 9 9 9 9 9 9 9 9 9 9 9 9 9 9 9 9 9 9 9 Z!J 1 9",
" 9 9 9 9 9 9!8#*#*!H 9 9 9 9 9 9 9 9 9 9 9 9 9 9 9 9 9 9 9 9 9 9 9 4 9",
" 9 9 9 9 9 9!8#*#*!H 9 9 9 9 9 9 9 9 9 9 9 9 9 9 9 9 9 9 9 9 9 9 9 9 9",
" 9 9 9 9 9 9!7#*#*!H 9 9 9 9 9 9 9 9 9 9 9 9 9 9 9 9 9 9 9 9 9 9 9 9 9",
" 9 9 9 9 9 9!8#*#*!K 9 9 9 9 B X!%!D!O!K!8 m L ? 9 9 9 9 9 9 9 9 9 9 9",
" 9 9 9 9 9 9!7#*#*!U 9 9 H!;#)#*#*#*#*#*#*#*#*!~!7 L 9 9 9 9 9 9 9 9 9",
" 9 9 9 9 9 9!7#*#*!: 9 h#*#*#*#*#*#*#*#*#*#*#*#*#*#* t 9 9 9 9 9 9 9 9",
" 9 9 9 9 9 9!8#*#*!B!1#*#*#*#*!h!#!3!.!?###*#*#*#*#*#*!f : 9 9 9 9 9 9",
" 9 9 9 9 9 9!8#*#*#*#*#*#*![ M < 9 9 9 9 B O!d#*#*#*#*#*#& @ 9 9 9 9 9",
" 9 9 9 9 9 9!7#*#*#*#*#* } 5 9 9 9 9 9 9 9 9 3!4#*#*#*#*#*#! / 9 9 9 9",
" 9 9 9 9 9 9!C#*#*#*#* b 9 9 9 9 9 9 9 9 9 9 9 9 y#*#*#*#*#*!W 9 9 9 9",
" 9 9 9 9 9 9!,#*#*#*!2 9 9 9 9 9 9 9 9 9 9 9 9 9 9!g#*#*#*#*#* W 9 9 9",
" 9 9 9 9 9 9 5 P!e!{ 7 9 9 9 9 9 9 9 9 9 9 9 9 9 9 4#*#*#*#*#*!| 6 9 9",
" 9 9 9 9 9 9 9 9 < 5 9 9 9 9 9 9 9 9 9 9 9 9 9 9 9 9!K#*#*#*#*#* T 9 9",
" 9 9 9 9 9 9 9 9 9 9 9 9 9 9 9 9 9 9 9 9 9 9 9 9 9 9 Y#*#*#*#*#*!H 9 9",
" 9 9 9 9 9 9 9 9 9 9 9 9 9 9 9 9 9 9 9 9 9 9 9 9 9 9 5#%#*#'#&#*#' 6 9",
" 9 9 9 9 9 9 9 9 9 9 9 9 9 9 9 9 9 9 9 9 9 9 9 9 9 9 9!X#*!M 2#*#* J 9",
" 9 9 9 9 9 9 9 9 9 9 9 9 9 9 9 9 9 9 9 9 9 9 9 9 9 9 9!-#* l  !n#* e 9",
" 9 9 9 9 9 9 9 9 9 9 9 9 9 9 9 9 9 9 9 9 9 9 9 9 9 9 9 s#* )   N#*!* 9",
" 9 9 9 9 9 9 9 9 9 9 9 9 9 9 9 9 9 9 9 9 9 9 9 9 9 9 9 a#*     &#*!9 9",
" 9 9 9 9 9 9 9 9 9 9 9 9 9 9 9 9 9 9 9 9 9 9 9 9 9 9 9 q#* ,   [#* { 9",
" 9 9 9 9 9 9 9 9 9 9 9 9 9 9 9 9 9 9 9 9 9 9 9 9 9 9 9 x#*!   !d#* k 9",
" 9 9 9 9 9 9 9 9 9 9 9 9 9 9 9 9 9 9 9 9 9 9 9 9 9 9 9 U#*!_ -#*#* Y 9",
" 9 9 9 9 9 9 9 9 9 9 9 9 9 9 9 9 9 9 9 9 9 9 9 9 9 9 9 g#*#(!~#*#* @ 9",
" 9 9 9 9 9 K G 9 9 9 9 9 9 9 9 9 9 9 9 9 9 9 9 9 9 9 9!4#*#*#*#*!} 8 9",
" 9 9 9 9 9 n!v 7 9 9 9 9 9 9 9 9 9 9 9 9 9 9 9 9 9 9 7!m#*#*#*#*!F 9 9",
" 9 9 9 9 9 =#*!X / 9 9 9 9 9 9 9 9 9 9 9 9 9 9 9 9 9 @#*#*#*#*#* _ 9 9",
" 9 9 9 9 9 9![#*!j 6 9 9 9 9 9 9 9 9 9 9 9 9 9 9 9 9 u#*#*#*#*#* @ 9 9",
" 9 9 9 9 9 9 i#*#*!z = 9 9 9 9 9 9 9 9 9 9 9 9 9 9 8#%#*#*#*#*!; 9 9 9",
" 9 9 9 9 9 9 :#*#*#*#% 4 9 9 9 9 9 9 9 9 9 9 9 9 9!8#*#*#*#*#* 0 9 9 9",
" 9 9 9 9 9 9 6!y#*#*#*#* E 9 9 9 9 9 9 9 9 9 9 9 g#*#*#*#*#* m 9 9 9 9",
" 9 9 9 9 9 9 9!/#*#*#*#*#* X 9 9 9 9 9 9 9 9 8 j#*#*#*#*#*!V 9 9 9 9 9",
" 9 9 9 9 9 9 9 Z#*#*#*#*#*#*!S j Y A 8 H ^ w!w#*#*#*#*#*!O 7 9 9 9 9 9",
" 9 9 9 9 9 9 9 4 z#&#*#*#*#*#*#*#*#!# #$#*#*#*#*#*#*#*!( 5 9 9 9 9 9 9",
" 9 9 9 9 9 9 9 9 9 8 c!I!x#*#*#*#*#*#*#*#*#*#*#*#&!A O 9 9 9 9 9 9 9 9",
" 9 9 9 9 9 9 9 9 9 9 9 9 D R Z!* ~!C!T!_!b!Y!+ m S 9 9 9 9 9 9 9 9 9 9",
" 9 9 9 9 9 9 9 9 9 9 9 9 9 9 9 ? 4 ? . : > 8 3 9 9 9 9 9 9 9 9 9 9 9 9"};
