/* XPM */
static char *7.png[] = {
"35 48 167 2",
"  	c #000000",
" !	c #080808",
" #	c #0A0A0A",
" $	c #141414",
" %	c #202020",
" &	c #282828",
" '	c #2B2B2B",
" (	c #2C2C2C",
" )	c #313131",
" *	c #333333",
" +	c #3A3A3A",
" ,	c #3E3E3E",
" -	c #414141",
" .	c #434343",
" /	c #484448",
" 0	c #484548",
" 1	c #494649",
" 2	c #4A464A",
" 3	c #4A474A",
" 4	c #4B474B",
" 5	c #4B484B",
" 6	c #4C484C",
" 7	c #4C494C",
" 8	c #4D494D",
" 9	c #4D4A4D",
" :	c #4D4B4D",
" ;	c #4E4A4E",
" <	c #4E4B4E",
" =	c #4E4C4E",
" >	c #4F4C4F",
" ?	c #4F4D4F",
" @	c #505050",
" A	c #514E51",
" B	c #514F51",
" C	c #524F52",
" D	c #525052",
" E	c #525252",
" F	c #534F53",
" G	c #535053",
" H	c #545054",
" I	c #545154",
" J	c #545254",
" K	c #545454",
" L	c #555255",
" M	c #555355",
" N	c #565356",
" O	c #565456",
" P	c #575457",
" Q	c #585658",
" R	c #5A585A",
" S	c #5B585B",
" T	c #5B5B5B",
" U	c #5C595C",
" V	c #5C5A5C",
" W	c #5D5A5D",
" X	c #5E5C5E",
" Y	c #5F5D5F",
" Z	c #615F61",
" [	c #626062",
" ]	c #626262",
" ^	c #636163",
" _	c #636363",
" `	c #646264",
" a	c #666466",
" b	c #696769",
" c	c #6B696B",
" d	c #6B6B6B",
" e	c #6C6A6C",
" f	c #706E70",
" g	c #727072",
" h	c #737373",
" i	c #747374",
" j	c #757575",
" k	c #777577",
" l	c #777777",
" m	c #787678",
" n	c #7A797A",
" o	c #7C7C7C",
" p	c #7D7D7D",
" q	c #7E7D7E",
" r	c #828082",
" s	c #828282",
" t	c #838383",
" u	c #858485",
" v	c #858585",
" w	c #868686",
" x	c #898789",
" y	c #8E8D8E",
" z	c #8F8D8F",
" {	c #908F90",
" |	c #919091",
" }	c #949494",
" ~	c #969696",
"! 	c #979697",
"!!	c #989898",
"!#	c #9B9A9B",
"!$	c #9F9E9F",
"!%	c #A1A1A1",
"!&	c #A3A3A3",
"!'	c #A4A4A4",
"!(	c #A6A5A6",
"!)	c #A7A6A7",
"!*	c #A8A8A8",
"!+	c #A9A7A9",
"!,	c #A9A9A9",
"!-	c #AAA9AA",
"!.	c #AAAAAA",
"!/	c #ABA9AB",
"!0	c #ABAAAB",
"!1	c #ADACAD",
"!2	c #AEADAE",
"!3	c #AFAFAF",
"!4	c #B1B0B1",
"!5	c #B2B0B2",
"!6	c #B3B3B3",
"!7	c #B6B5B6",
"!8	c #B6B6B6",
"!9	c #B7B7B7",
"!:	c #B8B7B8",
"!;	c #B9B8B9",
"!<	c #BBBABB",
"!=	c #BBBBBB",
"!>	c #BDBDBD",
"!?	c #BFBEBF",
"!@	c #C1C1C1",
"!A	c #C2C2C2",
"!B	c #C3C3C3",
"!C	c #C5C4C5",
"!D	c #C5C5C5",
"!E	c #C6C5C6",
"!F	c #C6C6C6",
"!G	c #C8C7C8",
"!H	c #CBCBCB",
"!I	c #CCCCCC",
"!J	c #CFCECF",
"!K	c #D1D1D1",
"!L	c #D2D2D2",
"!M	c #D3D2D3",
"!N	c #D4D4D4",
"!O	c #D5D4D5",
"!P	c #D6D6D6",
"!Q	c #D7D7D7",
"!R	c #D8D8D8",
"!S	c #DADADA",
"!T	c #E0E0E0",
"!U	c #E2E2E2",
"!V	c #E5E5E5",
"!W	c #E6E6E6",
"!X	c #E7E7E7",
"!Y	c #E8E7E8",
"!Z	c #EAEAEA",
"![	c #EBEAEB",
"!]	c #EBEBEB",
"!^	c #EEEEEE",
"!_	c #EFEFEF",
"!`	c #F0F0F0",
"!a	c #F2F2F2",
"!b	c #F4F4F4",
"!c	c #F5F5F5",
"!d	c #F7F7F7",
"!e	c #F9F9F9",
"!f	c #FAFAFA",
"!g	c #FBFBFB",
"!h	c #FCFCFC",
"!i	c #FDFDFD",
"!j	c #FEFEFE",
"!k	c #FFFFFF",
" ; ; ; ; H W D M L M M L M M M L L M M M L L M M L L M M L M L L M M S",
" ; ; ; ; q!k!k!k!k!k!k!k!k!k!k!k!k!k!k!k!k!k!k!k!k!k!k!k!k!k!k!k!k!k Q",
" ; ; ; 5![!k!k!k!k!k!k!k!k!k!k!k!k!k!k!k!k!k!k!k!k!k!k!k!k!k!k!k!k y ;",
" ; ; ; [!k!k!k!k!k!4!(!/!/!/!/!/!/!/!/!/!/!-!+!5!; {!a!k!k!k!k!k!g 3 ;",
" ; ; ;!7!k!k!k!k ? ; ; ; ; ; ; ; ; ; ; ; ; ; ; ; ; 0!d!k!k!k!k!k f ; ;",
" ; ; I!k!k!k!h J ; ; ; ; ; ; ; ; ; ; ; ; ; ; ; ; ;!G!k!k!i!k!k!S 8 ; ;",
" ; ; n!k!k!h : ; ; ; ; ; ; ; ; ; ; ; ; ; ; ; ; ; `!k!k!A!b!k!k I ; ; ;",
" ; 6!f!k!R 5 ; ; ; ; ; ; ; ; ; ; ; ; ; ; ; ; ; 3!d!k!9 w!k!k!< ; ; ; ;",
" ; a!k!M 3 ; ; ; ; ; ; ; ; ; ; ; ; ; ; ; ; ; ; q!k!f (!N!k!k > ; ; ; ;",
" ;!g!E 8 ; ; ; ; ; ; ; ; ; ; ; ; ; ; ; ; ; ; 1!k!k - *!k!k!  ; ; ; ; ;",
" V!= 4 ; ; ; ; ; ; ; ; ; ; ; ; ; ; ; ; ; ; ;!.!k!*  !F!k!j 3 ; ; ; ; ;",
" A 5 ; ; ; ; ; ; ; ; ; ; ; ; ; ; ; ; ; ; ; B!k!i   %!k!k g ; ; ; ; ; ;",
" ; ; ; ; ; ; ; ; ; ; ; ; ; ; ; ; ; ; ; ; ;!J!k .  !&!k!b 8 ; ; ; ; ; ;",
" ; ; ; ; ; ; ; ; ; ; ; ; ; ; ; ; ; ; ; ; c!k ~   #!k!k Z ; ; ; ; ; ; ;",
" ; ; ; ; ; ; ; ; ; ; ; ; ; ; ; ; ; ; ; 6!j!^     d!k!O ; ; ; ; ; ; ; ;",
" ; ; ; ; ; ; ; ; ; ; ; ; ; ; ; ; ; ; ; u!k '    !X!k < ; ; ; ; ; ; ; ;",
" ; ; ; ; ; ; ; ; ; ; ; ; ; ; ; ; ; ; 1!k s     +!k!? ; ; ; ; ; ; ; ; ;",
" ; ; ; ; ; ; ; ; ; ; ; ; ; ; ; ; ; ;!0!k &    !8!k 5 ; ; ; ; ; ; ; ; ;",
" ; ; ; ; ; ; ; ; ; ; ; ; ; ; ; ; ; A!k!k $   E!k z ; ; ; ; ; ; ; ; ; ;",
" ; ; ; ; ; ; ; ; ; ; ; ; ; ; ; ; ;!C!k!k t!6!k!j 4 ; ; ; ; ; ; ; ; ; ;",
" ; ; ; ; ; ; ; ; ; ; ; ; ; ; ; ; ^!k!k!k!k!k!k e ; ; ; ; ; ; ; ; ; ; ;",
" ; ; ; ; ; ; ; ; ; ; ; ; ; ; ; 6!d!k!k!k!k!k!T 8 ; ; ; ; ; ; ; ; ; ; ;",
" ; ; ; ; ; ; ; ; ; ; ; ; ; ; ; q!k!B @!6!k!k [ ; ; ; ; ; ; ; ; ; ; ; ;",
" ; ; ; ; ; ; ; ; ; ; ; ; ; ; 4!k!U     }!k!: ; ; ; ; ; ; ; ; ; ; ; ; ;",
" ; ; ; ; ; ; ; ; ; ; ; ; ; ;!#!k!8    !@!k 7 ; ; ; ; ; ; ; ; ; ; ; ; ;",
" ; ; ; ; ; ; ; ; ; ; ; ; ; G!k!k!P o!L!k!$ ; ; ; ; ; ; ; ; ; ; ; ; ; ;",
" ; ; ; ; ; ; ; ; ; ; ; ; ;!I!k!k!k!k!k!k 5 ; ; ; ; ; ; ; ; ; ; ; ; ; ;",
" ; ; ; ; ; ; ; ; ; ; ; ; X!k!k!k!k!k!k f ; ; ; ; ; ; ; ; ; ; ; ; ; ; ;",
" ; ; ; ; ; ; ; ; ; ; ; 2!d!k!!!,!k!k!Z 6 ; ; ; ; ; ; ; ; ; ; ; ; ; ; ;",
" ; ; ; ; ; ; ; ; ; ; ; x!k @   ]!k!k W ; ; ; ; ; ; ; ; ; ; ; ; ; ; ; ;",
" ; ; ; ; ; ; ; ; ; ; 3!k!>     h!k!C ; ; ; ; ; ; ; ; ; ; ; ; ; ; ; ; ;",
" ; ; ; ; ; ; ; ; ; ;!)!k )    !H!k = ; ; ; ; ; ; ; ; ; ; ; ; ; ; ; ; ;",
" ; ; ; ; ; ; ; ; ; <!k!P     p!k!1 ; ; ; ; ; ; ; ; ; ; ; ; ; ; ; ; ; ;",
" ; ; ; ; ; ; ; ; ;!H!k K   *!k!k 1 ; ; ; ; ; ; ; ; ; ; ; ; ; ; ; ; ; ;",
" ; ; ; ; ; ; ; ; Y!k!`    !V!k r ; ; ; ; ; ; ; ; ; ; ; ; ; ; ; ; ; ; ;",
" ; ; ; ; ; ; ; 6!`!k _  !%!k!a 1 ; ; ; ; ; ; ; ; ; ; ; ; ; ; ; ; ; ; ;",
" ; ; ; ; ; ; ; i!k!k   ,!k!k b ; ; ; ; ; ; ; ; ; ; ; ; ; ; ; ; ; ; ; ;",
" ; ; ; ; ; ; 9!k!k j  !e!k!Q 9 ; ; ; ; ; ; ; ; ; ; ; ; ; ; ; ; ; ; ; ;",
" ; ; ; ; ; ;!%!k!g !!'!k!k Q ; ; ; ; ; ; ; ; ; ; ; ; ; ; ; ; ; ; ; ; ;",
" ; ; ; ; ; >!k!k v T!k!k!D ; ; ; ; ; ; ; ; ; ; ; ; ; ; ; ; ; ; ; ; ; ;",
" ; ; ; ; ;!@!k!d l!c!k!k < ; ; ; ; ; ; ; ; ; ; ; ; ; ; ; ; ; ; ; ; ; ;",
" ; ; ; ; ^!k!k!K!N!k!k | ; ; ; ; ; ; ; ; ; ; ; ; ; ; ; ; ; ; ; ; ; ; ;",
" ; ; ; 4!_!k!k!i!k!k!f 4 ; ; ; ; ; ; ; ; ; ; ; ; ; ; ; ; ; ; ; ; ; ; ;",
" ; ; ; k!k!k!k!k!k!k m ; ; ; ; ; ; ; ; ; ; ; ; ; ; ; ; ; ; ; ; ; ; ; ;",
" ; ; /!i!k!k!k!k!k!X 8 ; ; ; ; ; ; ; ; ; ; ; ; ; ; ; ; ; ; ; ; ; ; ; ;",
" ; ;!3!k!k!k!k!k!k U ; ; ; ; ; ; ; ; ; ; ; ; ; ; ; ; ; ; ; ; ; ; ; ; ;",
" ; A!e!Y!W!X!X!]!2 ; ; ; ; ; ; ; ; ; ; ; ; ; ; ; ; ; ; ; ; ; ; ; ; ; ;",
" ; F R P O O O N C ; ; ; ; ; ; ; ; ; ; ; ; ; ; ; ; ; ; ; ; ; ; ; ; ; ;"};
