/* XPM */
static char *8.png[] = {
"35 48 221 2",
"  	c #000000",
" !	c #030303",
" #	c #050505",
" $	c #0C0C0C",
" %	c #0D0D0D",
" &	c #0F0F0F",
" '	c #121212",
" (	c #181818",
" )	c #1D1D1D",
" *	c #1E1E1E",
" +	c #212121",
" ,	c #232323",
" -	c #242424",
" .	c #262626",
" /	c #282828",
" 0	c #313131",
" 1	c #323232",
" 2	c #333333",
" 3	c #3A3A3A",
" 4	c #434343",
" 5	c #474347",
" 6	c #474447",
" 7	c #474747",
" 8	c #494549",
" 9	c #494649",
" :	c #4A464A",
" ;	c #4A474A",
" <	c #4A4A4A",
" =	c #4B474B",
" >	c #4B484B",
" ?	c #4C484C",
" @	c #4C494C",
" A	c #4C4C4C",
" B	c #4D494D",
" C	c #4D4A4D",
" D	c #4D4D4D",
" E	c #4E4A4E",
" F	c #4E4B4E",
" G	c #4F4C4F",
" H	c #504D50",
" I	c #514D51",
" J	c #514E51",
" K	c #525052",
" L	c #535053",
" M	c #535153",
" N	c #545054",
" O	c #545154",
" P	c #545254",
" Q	c #555255",
" R	c #565356",
" S	c #565456",
" T	c #575557",
" U	c #585558",
" V	c #585658",
" W	c #595659",
" X	c #595759",
" Y	c #5A575A",
" Z	c #5B585B",
" [	c #5B595B",
" ]	c #5C595C",
" ^	c #5C5A5C",
" _	c #5C5C5C",
" `	c #5D5B5D",
" a	c #5D5D5D",
" b	c #5E5C5E",
" c	c #5F5C5F",
" d	c #605D60",
" e	c #605E60",
" f	c #615F61",
" g	c #625F62",
" h	c #626062",
" i	c #626162",
" j	c #636163",
" k	c #646264",
" l	c #646464",
" m	c #656365",
" n	c #656465",
" o	c #666466",
" p	c #676467",
" q	c #676567",
" r	c #696669",
" s	c #696769",
" t	c #6A686A",
" u	c #6A696A",
" v	c #6B696B",
" w	c #6C696C",
" x	c #6D6A6D",
" y	c #6D6B6D",
" z	c #6E6C6E",
" {	c #6E6E6E",
" |	c #6F6D6F",
" }	c #706E70",
" ~	c #706F70",
"! 	c #716F71",
"!!	c #727072",
"!#	c #727172",
"!$	c #737173",
"!%	c #737373",
"!&	c #757375",
"!'	c #767476",
"!(	c #767576",
"!)	c #777577",
"!*	c #787678",
"!+	c #787878",
"!,	c #7A797A",
"!-	c #7B797B",
"!.	c #7C7A7C",
"!/	c #7F7C7F",
"!0	c #7F7D7F",
"!1	c #7F7E7F",
"!2	c #807E80",
"!3	c #807F80",
"!4	c #817F81",
"!5	c #818081",
"!6	c #818181",
"!7	c #828182",
"!8	c #838183",
"!9	c #848384",
"!:	c #868486",
"!;	c #868686",
"!<	c #888788",
"!=	c #888888",
"!>	c #8A888A",
"!?	c #8B898B",
"!@	c #8B8A8B",
"!A	c #8C8C8C",
"!B	c #8D8B8D",
"!C	c #8D8D8D",
"!D	c #8E8C8E",
"!E	c #8E8D8E",
"!F	c #8E8E8E",
"!G	c #8F8D8F",
"!H	c #8F8E8F",
"!I	c #8F8F8F",
"!J	c #908F90",
"!K	c #939293",
"!L	c #949394",
"!M	c #959395",
"!N	c #969496",
"!O	c #969596",
"!P	c #979697",
"!Q	c #989698",
"!R	c #989798",
"!S	c #999899",
"!T	c #999999",
"!U	c #9C9B9C",
"!V	c #9D9D9D",
"!W	c #9E9D9E",
"!X	c #9F9D9F",
"!Y	c #9F9E9F",
"!Z	c #A1A0A1",
"![	c #A3A2A3",
"!]	c #A4A3A4",
"!^	c #A5A5A5",
"!_	c #A9A8A9",
"!`	c #AAA9AA",
"!a	c #ACABAC",
"!b	c #ADABAD",
"!c	c #ADACAD",
"!d	c #AEADAE",
"!e	c #B0B0B0",
"!f	c #B2B2B2",
"!g	c #B7B6B7",
"!h	c #B8B7B8",
"!i	c #B8B8B8",
"!j	c #BBBABB",
"!k	c #BCBCBC",
"!l	c #BDBCBD",
"!m	c #BDBDBD",
"!n	c #C0C0C0",
"!o	c #C1C1C1",
"!p	c #C2C2C2",
"!q	c #C3C2C3",
"!r	c #C3C3C3",
"!s	c #C4C4C4",
"!t	c #C5C5C5",
"!u	c #C6C5C6",
"!v	c #C7C7C7",
"!w	c #C8C7C8",
"!x	c #C8C8C8",
"!y	c #C9C8C9",
"!z	c #C9C9C9",
"!{	c #CDCDCD",
"!|	c #CFCFCF",
"!}	c #D0D0D0",
"!~	c #D2D1D2",
"# 	c #D2D2D2",
"#!	c #D5D5D5",
"##	c #D6D6D6",
"#$	c #D7D7D7",
"#%	c #D8D8D8",
"#&	c #D9D8D9",
"#'	c #DADADA",
"#(	c #DCDBDC",
"#)	c #DCDCDC",
"#*	c #DDDCDD",
"#+	c #DDDDDD",
"#,	c #E0DFE0",
"#-	c #E3E3E3",
"#.	c #E4E4E4",
"#/	c #E5E5E5",
"#0	c #E9E8E9",
"#1	c #E9E9E9",
"#2	c #ECECEC",
"#3	c #EDEDED",
"#4	c #EEEEEE",
"#5	c #EFEFEF",
"#6	c #F0F0F0",
"#7	c #F1F1F1",
"#8	c #F2F2F2",
"#9	c #F3F3F3",
"#:	c #F5F5F5",
"#;	c #F7F7F7",
"#<	c #F8F8F8",
"#=	c #F9F9F9",
"#>	c #FAFAFA",
"#?	c #FBFBFB",
"#@	c #FCFCFC",
"#A	c #FDFDFD",
"#B	c #FEFEFE",
"#C	c #FFFFFF",
" E E E E E E E E E E E E E @ L j!)!4!:!. k H @ E E E E E E E E E E E E",
" E E E E E E E E E E E d!W#0#C#C#C#C#C#C#C#C#/!O X E E E E E E E E E E",
" E E E E E E E E E V#$#C#C#C#C#C#C#B#?#C#C#C#C#C#C!w H E E E E E E E E",
" E E E E E E E E!7#C#C#C#C#C#C!O R I N E z#/#C#C#C#C#C!# E E E E E E E",
" E E E E E E E!5#C#C#C#C#C#2 Y E E E E E E E!h#C#C#C#C#C!# E E E E E E",
" E E E E E E e#C#C#C#C#C#5 ; E E E E E E E E E!P#C#C#C#C#C ^ E E E E E",
" E E E E E C#.#C#C#C#C#C F E E E E E E E E E E 8#$#C#C#C#C#- ? E E E E",
" E E E E E m#C#C#C#C#C!] E E E E E E E E E E E E M#C#C#C#C#C o E E E E",
" E E E E E!k#C!k#C#C#C U E E E E E E E E E E E E @!q#C#>!{#C!l E E E E",
" E E E E 9#B!s $#9#C#1 ? E E E E E E E E E E E E E!!#C#  ,#=#C ? E E E",
" E E E E S#C!+  !C#C!] E E E E E E E E E E E E E E W#C!^  !I#C [ E E E",
" E E E E r#C -   (#C!L E E E E E E E E E E E E E E @#C A   *#C!* E E E",
" E E E E y#C )   %#C!D E E E E E E E E E E E E E E Y#C 1   ##:!/ E E E",
" E E E E c#C {   {#C!> E E E E E E E E E E E E E E G#C!=   a#C t E E E",
" E E E E F#C!k  !t#C!` E E E E E E E E E E E E E E K#C!|  !f#C J E E E",
" E E E E ?#,#C!%#@#C#2 @ E E E E E E E E E E E E E!'#C#8 l#C#; : E E E",
" E E E E E!3#C#B#C#C#C S E E E E E E E E E E E E =#&#C#C#@#C!U E E E E",
" E E E E E ;#=#C#C#C#C!g B E E E E E E E E E E E q#C#C#C#C#C b E E E E",
" E E E E E E m#C#C#C#C#C ~ E E E E E E E E E E 6#@#C#C#C#C!G E E E E E",
" E E E E E E E!1#C#C#C#C#C | E E E E E E E E C#&#C#C#C#C!z ; E E E E E",
" E E E E E E E E z#C#C#C#C#C![ U E E E E C v#@#C#C#C#C!v > E E E E E E",
" E E E E E E E E E @!d#?#C#C#C#C!z!U!M!_#4#C#C#C#C#>!7 ? E E E E E E E",
" E E E E E E E E E E ;!F#C#C#C#C#C#C#C#C#C#C#C#C#C ` E E E E E E E E E",
" E E E E E E E E I!4#%#C#C#C#C#C#C#C#C#C#C#C#C#C#C#7!S Z E E E E E E E",
" E E E E E E E n#C#C#C#C#C#C#B!a z g b j!W#?#C#C#C#C#C#C!& E E E E E E",
" E E E E E E!]#C#C#C#C#C#C!S G E E E E E E F!N#C#C#C#C#C#C!] E E E E E",
" E E E E E!W#C#C#C#C#C#C!  E E E E E E E E E E j#C#C#C#C#C#C!L E E E E",
" E E E E h#C#C#C#C#C#C T E E E E E E E E E E E E J#C#C#C#C#C#C o E E E",
" E E E 9#=#C#C#C#C#C!$ E E E E E E E E E E E E E E }#C#C#C#C#C#7 @ E E",
" E E E |#C#C#C#C#C!w ? E E E E E E E E E E E E E E B!h#C#C#C#C#C v E E",
" E E ?!y#C#/#C#C#C d E E E E E E E E E E E E E E E E P#C#C#A#6#C!x B E",
" E E G#C#9 0#+#C#* @ E E E E E E E E E E E E E E E E ?###C!m 4#C#C C E",
" E E q#C!V  !A#C!S E E E E E E E E E E E E E E E E E E!E#C!;  !r#C s E",
" E E!B#C 2   +#C ~ E E E E E E E E E E E E E E E E E E u#C 3   <#C!Q E",
" E E!X#6 !    !|!M E E E E E E E E E E E E E E E E E E!0#A &   '#?!b E",
" E E!8#C 7   /#C!- E E E E E E E E E E E E E E E E E E! #C D   _#C!H E",
" E E h#C!e  !6#C!, E E E E E E E E E E E E E E E E E E!(#C!T  !i#C q E",
" E E J#C#C .!n#C!l E E E E E E E E E E E E E E E E E E!c#C!} 3#B#C J E",
" E E B!t#C#)#>#C#C @ E E E E E E E E E E E E E E E E C#C#C#?#-#C!u B E",
" E E E y#C#C#C#C#C!$ E E E E E E E E E E E E E E E E!2#C#C#C#C#C | E E",
" E E E E#A#C#C#C#C#> 5 E E E E E E E E E E E E E E F#C#C#C#C#C#< @ E E",
" E E E E y#C#C#C#C#C!Z E E E E E E E E E E E E E ?!g#C#C#C#C#C i E E E",
" E E E E E!g#C#C#C#C#C!) E E E E E E E E E E E E!Y#C#C#C#C#C!J E E E E",
" E E E E E 9!v#C#C#C#C#C!@ E E E E E E E E E ?!Y#C#C#C#C#C!j > E E E E",
" E E E E E E ?!d#C#C#C#C#C#  c E E E E E E ]#'#C#C#C#C#C!9 E E E E E E",
" E E E E E E E E k#;#C#C#C#C#C#(!K } w!5!~#C#C#C#C#C#3 f E E E E E E E",
" E E E E E E E E E E p!t#@#C#C#C#C#C#C#C#C#C#C#A!o ` E E E E E E E E E",
" E E E E E E E E E E E E Q y!?!R!p#!#!!s!U!< x O E E E E E E E E E E E"};
