/* XPM */
static char *9.png[] = {
"35 48 232 2",
"  	c #000000",
" !	c #010101",
" #	c #030303",
" $	c #040404",
" %	c #0B0B0B",
" &	c #0E0E0E",
" '	c #101010",
" (	c #121212",
" )	c #171717",
" *	c #1E1E1E",
" +	c #1F1F1F",
" ,	c #212121",
" -	c #252525",
" .	c #262626",
" /	c #2E2E2E",
" 0	c #393939",
" 1	c #3B3B3B",
" 2	c #3C3C3C",
" 3	c #434343",
" 4	c #464646",
" 5	c #474447",
" 6	c #484448",
" 7	c #494549",
" 8	c #494649",
" 9	c #494749",
" :	c #4A464A",
" ;	c #4A474A",
" <	c #4B474B",
" =	c #4B484B",
" >	c #4B4B4B",
" ?	c #4C484C",
" @	c #4C494C",
" A	c #4D494D",
" B	c #4D4A4D",
" C	c #4E4A4E",
" D	c #4E4B4E",
" E	c #4F4B4F",
" F	c #4F4C4F",
" G	c #4F4D4F",
" H	c #504C50",
" I	c #504D50",
" J	c #504E50",
" K	c #514E51",
" L	c #524E52",
" M	c #524F52",
" N	c #525052",
" O	c #525252",
" P	c #534F53",
" Q	c #535053",
" R	c #535153",
" S	c #545154",
" T	c #555155",
" U	c #555255",
" V	c #555355",
" W	c #565356",
" X	c #565456",
" Y	c #575557",
" Z	c #585558",
" [	c #585658",
" ]	c #595659",
" ^	c #5A575A",
" _	c #5A585A",
" `	c #5B585B",
" a	c #5B595B",
" b	c #5C5A5C",
" c	c #5D5A5D",
" d	c #5D5B5D",
" e	c #5E5B5E",
" f	c #5E5C5E",
" g	c #5F5D5F",
" h	c #605E60",
" i	c #615E61",
" j	c #615F61",
" k	c #626262",
" l	c #636163",
" m	c #636363",
" n	c #646264",
" o	c #646464",
" p	c #656365",
" q	c #666366",
" r	c #666466",
" s	c #676467",
" t	c #676567",
" u	c #686668",
" v	c #696769",
" w	c #696969",
" x	c #6A686A",
" y	c #6A6A6A",
" z	c #6C696C",
" {	c #6C6B6C",
" |	c #6C6C6C",
" }	c #6D6B6D",
" ~	c #6D6C6D",
"! 	c #6D6D6D",
"!!	c #6E6E6E",
"!#	c #6F6D6F",
"!$	c #706E70",
"!%	c #707070",
"!&	c #716F71",
"!'	c #727072",
"!(	c #727272",
"!)	c #747374",
"!*	c #757375",
"!+	c #767476",
"!,	c #767576",
"!-	c #767676",
"!.	c #787678",
"!/	c #797779",
"!0	c #797879",
"!1	c #7A797A",
"!2	c #7B797B",
"!3	c #7C7A7C",
"!4	c #7C7B7C",
"!5	c #7D7C7D",
"!6	c #7E7C7E",
"!7	c #7F7F7F",
"!8	c #807E80",
"!9	c #808080",
"!:	c #818181",
"!;	c #828182",
"!<	c #838383",
"!=	c #848284",
"!>	c #848384",
"!?	c #878687",
"!@	c #888688",
"!A	c #888888",
"!B	c #898889",
"!C	c #8A888A",
"!D	c #8A898A",
"!E	c #8B8A8B",
"!F	c #8B8B8B",
"!G	c #8D8D8D",
"!H	c #8E8D8E",
"!I	c #8E8E8E",
"!J	c #908F90",
"!K	c #919091",
"!L	c #929092",
"!M	c #939293",
"!N	c #949394",
"!O	c #949494",
"!P	c #979697",
"!Q	c #979797",
"!R	c #999899",
"!S	c #9C9B9C",
"!T	c #9D9D9D",
"!U	c #A0A0A0",
"!V	c #A1A1A1",
"!W	c #A2A2A2",
"!X	c #A3A2A3",
"!Y	c #A3A3A3",
"!Z	c #A4A3A4",
"![	c #A4A4A4",
"!]	c #A5A5A5",
"!^	c #A6A6A6",
"!_	c #A9A8A9",
"!`	c #AAA9AA",
"!a	c #ABABAB",
"!b	c #ACABAC",
"!c	c #ADACAD",
"!d	c #AEAEAE",
"!e	c #AFAEAF",
"!f	c #B1B1B1",
"!g	c #B2B1B2",
"!h	c #B4B3B4",
"!i	c #B5B5B5",
"!j	c #B7B6B7",
"!k	c #B7B7B7",
"!l	c #B8B7B8",
"!m	c #B8B8B8",
"!n	c #B9B9B9",
"!o	c #BAB9BA",
"!p	c #BABABA",
"!q	c #BBBBBB",
"!r	c #BCBBBC",
"!s	c #BDBCBD",
"!t	c #BDBDBD",
"!u	c #BFBEBF",
"!v	c #BFBFBF",
"!w	c #C1C1C1",
"!x	c #C2C1C2",
"!y	c #C2C2C2",
"!z	c #C5C4C5",
"!{	c #C6C6C6",
"!|	c #C7C6C7",
"!}	c #C8C8C8",
"!~	c #CACACA",
"# 	c #CCCCCC",
"#!	c #CDCCCD",
"##	c #CECECE",
"#$	c #CFCFCF",
"#%	c #D0CFD0",
"#&	c #D0D0D0",
"#'	c #D1D1D1",
"#(	c #D5D5D5",
"#)	c #D6D6D6",
"#*	c #D7D7D7",
"#+	c #D9D9D9",
"#,	c #DADADA",
"#-	c #DBDBDB",
"#.	c #DCDCDC",
"#/	c #DDDDDD",
"#0	c #DEDEDE",
"#1	c #DFDFDF",
"#2	c #E0E0E0",
"#3	c #E2E1E2",
"#4	c #E2E2E2",
"#5	c #E4E4E4",
"#6	c #E5E5E5",
"#7	c #E6E5E6",
"#8	c #E6E6E6",
"#9	c #EBEAEB",
"#:	c #ECECEC",
"#;	c #EDEDED",
"#<	c #EEEEEE",
"#=	c #EFEFEF",
"#>	c #F0F0F0",
"#?	c #F1F1F1",
"#@	c #F2F2F2",
"#A	c #F3F3F3",
"#B	c #F4F4F4",
"#C	c #F5F5F5",
"#D	c #F6F6F6",
"#E	c #F7F7F7",
"#F	c #F8F8F8",
"#G	c #F9F9F9",
"#H	c #FAFAFA",
"#I	c #FBFBFB",
"#J	c #FCFBFC",
"#K	c #FCFCFC",
"#L	c #FDFDFD",
"#M	c #FEFEFE",
"#N	c #FFFFFF",
" C C C C C C C C C C C C C M v!M!n!|!s!W!> b C C C C C C C C C C C C C",
" C C C C C C C C C C C e!w#N#N#N#N#N#N#N#N#N#A!R U C C C C C C C C C C",
" C C C C C C C C C F!b#N#N#N#N#N#N#N#N#N#N#N#N#N#N!M @ C C C C C C C C",
" C C C C C C C C S#M#N#N#N#N#N#! l K I _!l#N#N#M#F#N#, F C C C C C C C",
" C C C C C C C Y#N#N#N#N#N#N ~ C C C C C C u#N#N!]!Y#N#G D C C C C C C",
" C C C C C C F#N#N#N#N#N#N!# C C C C C C C C l#N#N 2!-#N#< 8 C C C C C",
" C C C C C ?!z#N#N#N#N#N!* C C C C C C C C C C t#N#.  !T#N!h A C C C C",
" C C C C C!)#N#N#N#N#N!k C C C C C C C C C C C C!Z#N!-  #6#N l C C C C",
" C C C C 7#A#N#N#N#N#N B C C C C C C C C C C C C =#N#N # /#N#K 7 C C C",
" C C C C!&#N#N#N#N#N!S C C C C C C C C C C C C C C!@#N!I  !G#N!1 C C C",
" C C C B!~#N#N#N#N#N [ C C C C C C C C C C C C C C K#N#M $ !#N#M I C C",
" C C C Z#N#N#N#N#N#5 A C C C C C C C C C C C C C C A###N y  !A#N j C C",
" C C C v#N#N#N#N#N!X C C C C C C C C C C C C C C C C!M#N!a   -#N!` C C",
" C C C!K#N#,!7#N#N!0 C C C C C C C C C C C C C C C C {#N#$    #(#N A C",
" C C ;!{#N!:  #-#N h C C C C C C C C C C C C C C C C Z#N#2    !:#N q C",
" C C B#?#N *  !7#N s C C C C C C C C C C C C C C C C [#N#/     1#N!B C",
" C C I#I!Q     )#K z C C C C C C C C C C C C C C C C ^#N#*     '#N!o C",
" C C K#J!F     %#N p C C C C C C C C C C C C C C C C [#N#L *   (#H#@ L",
" C C F#G#N ,   |#N!2 C C C C C C C C C C C C C C C C t#N#N!k  ! #N#@ <",
" C C A#-#N!Q  !}#N!_ C C C C C C C C C C C C C C C C!N#N#N#N!O#+#N#N 9",
" C C C!^#N#:!<#L#N#= ; C C C C C C C C C C C C C C @#%#N#N#N#N#N#N#N N",
" C C C!.#N#N#N#N#N#N ] C C C C C C C C C C C C C C I#N#N#N#N#N#N#N#N a",
" C C C W#N#N#N#N#N#N!e C C C C C C C C C C C C C C!=#N#N#N#N#?#:#N#N j",
" C C C ?#&#N#N#N#N#N#N ` C C C C C C C C C C C C @#I#N#N#N#N 2 +#N#N p",
" C C C C x#N#N#N#N#N#N#  = C C C C C C C C C C C!D#N#N#N#N!T    !(#N r",
" C C C C 8#8#N#N#N#N#N#N!5 C C C C C C C C C C J#N#N#N#N#N#5 %  !y#N i",
" C C C C C [#N#N#N#N#N#N#N!' C C C C C C C C D#?#N#N#N#N#N#N!y!d#N#N f",
" C C C C C C!6#N#N#N#N#N#N#N!4 C C C C C C ;#C#N#N#N#L#N#N#N#N#N#N#N Q",
" C C C C C C C!N#N#N#N#N#N#N#N!r c F C U!L#E#N#N#N!N a#N#N#N#N#N#N#L 5",
" C C C C C C C C!B#N#N#N#N#N#N#N#M#7#+#F#N#N#N#N!8 C H#N#N#G!V#I#N#4 A",
" C C C C C C C C C Z#3#N#N#N#N#N#N#N#N#N#N#N!P T C C Y#N#N!9  !p#N!j C",
" C C C C C C C C C C ?!'#&#N#N#N#N#N#N#1!H ^ C C C C f#N!v     >#N!C C",
" C C C C C C C C C C C C C = f!$!+ p G A C C C C C C!,#N!%     O#N u C",
" C C C C C C C C C C C C C C C C C C C C C C C C C C!M#N!!    !f#N B C",
" C C C C C C C C C C C C C C C C C C C C C C C C C C!g#N k   (#N!c C C",
" C C C C C C C C C C C B C C C C C C C C C C C C C Q#B#N 3   m#N d C C",
" C C C C C C C C C l#  = C C C C C C C C C C C C C V#N#N &  #0#@ = C C",
" C C C C C C C ;!R#N!? C C C C C C C C C C C C C C!;#N!i   4#N!$ C C C",
" C C C C C C g#>#N#N = C C C C C C C C C C C C C :#L#N 0  #A#< ? C C C",
" C C C C =!X#N#N#N!N C C C C C C C C C C C C C C!$#N!U  ![#N X C C C C",
" C C C n#H#N#N#N#N R C C C C C C C C C C C C C ?#N#N   o#N!N C C C C C",
" C C t#N#N#N#N#N!k C C C C C C C C C C C C C ?!t#N . >#N#' : C C C C C",
" C C ?!c#N#N#N#N#D f C C C C C C C C C C C A!o#N!- w#N#E 6 C C C C C C",
" C C C A!S#N#N#N#N#N!= P C C C C C C C C W!x#N#)!m#N#9 @ C C C C C C C",
" C C C C C p#H#N#N#N#N#I!s!2 [ f e ]!$!w#N#N#N#N#N!u 8 C C C C C C C C",
" C C C C C C H!S#B#N#N#N#N#N#N#N#N#N#N#N#N#N#N#K!3 C C C C C C C C C C",
" C C C C C C C C ?!/!q#A#N#N#N#N#N#N#N#N#N#;!E < C C C C C C C C C C C",
" C C C C C C C C C C C M i x!J!Z!b!`!N } Z E C C C C C C C C C C C C C"};
