/* XPM */
static char *bar.png[] = {
"19 48 522 2",
"  	c #1D6647",
" !	c #287754",
" #	c #297251",
" $	c #2E7656",
" %	c #2FA672",
" &	c #307E5C",
" '	c #307F5C",
" (	c #31795A",
" )	c #357D5E",
" *	c #358261",
" +	c #378463",
" ,	c #388061",
" -	c #388563",
" .	c #38A374",
" /	c #39AD7A",
" 0	c #39AE7A",
" 1	c #39AF7A",
" 2	c #3A8765",
" 3	c #3CAD7C",
" 4	c #3D8364",
" 5	c #3D8967",
" 6	c #3D8968",
" 7	c #3D8A69",
" 8	c #3E8A69",
" 9	c #3EAD7C",
" :	c #3F8B6A",
" ;	c #408C6B",
" <	c #40A77A",
" =	c #40AD7E",
" >	c #418768",
" ?	c #41A77A",
" @	c #428D6C",
" A	c #428E6C",
" B	c #42AD7F",
" C	c #438F6D",
" D	c #43A77B",
" E	c #43AD7F",
" F	c #44A87C",
" G	c #45906F",
" H	c #45A87D",
" I	c #45AE80",
" J	c #468B6D",
" K	c #469170",
" L	c #46A77D",
" M	c #479271",
" N	c #479372",
" O	c #47AE80",
" P	c #489372",
" Q	c #48A87E",
" R	c #48AA7F",
" S	c #49AD80",
" T	c #4A8F70",
" U	c #4A9574",
" V	c #4AA87F",
" W	c #4B9575",
" X	c #4BA87F",
" Y	c #4BAD81",
" Z	c #4C9576",
" [	c #4C9776",
" ]	c #4CAD82",
" ^	c #4D9876",
" _	c #4D9877",
" `	c #4DA981",
" a	c #4E9274",
" b	c #4E9877",
" c	c #4EA880",
" d	c #4EAA82",
" e	c #4F9777",
" f	c #4F9979",
" g	c #4FA982",
" h	c #4FAD84",
" i	c #509979",
" j	c #50997A",
" k	c #509A7A",
" l	c #50A982",
" m	c #50AC83",
" n	c #519678",
" o	c #529A7A",
" p	c #529B7B",
" q	c #52AD85",
" r	c #539B7B",
" s	c #53AA84",
" t	c #549C7C",
" u	c #54AD85",
" v	c #559A7B",
" w	c #559D7D",
" x	c #559D7E",
" y	c #559E7E",
" z	c #55AA85",
" {	c #55AB85",
" |	c #569E7E",
" }	c #569E7F",
" ~	c #579E7F",
"! 	c #579F80",
"!!	c #57A181",
"!#	c #57AA85",
"!$	c #57AA86",
"!%	c #57AB87",
"!&	c #57AC87",
"!'	c #57AD87",
"!(	c #58A080",
"!)	c #58A081",
"!*	c #58AB86",
"!+	c #58AC88",
"!,	c #599D7F",
"!-	c #59A181",
"!.	c #59A182",
"!/	c #59AC88",
"!0	c #59AC88",
"!1	c #5AA283",
"!2	c #5AAA87",
"!3	c #5AAB88",
"!4	c #5BA284",
"!5	c #5BA384",
"!6	c #5BAC89",
"!7	c #5BAD89",
"!8	c #5CA083",
"!9	c #5CA384",
"!:	c #5CAB88",
"!;	c #5CAD8B",
"!<	c #5DA384",
"!=	c #5DA485",
"!>	c #5DAC89",
"!?	c #5DAD8A",
"!@	c #5DAD8A",
"!A	c #5EA585",
"!B	c #5EA586",
"!C	c #5EA788",
"!D	c #5EAD8A",
"!E	c #5FA586",
"!F	c #5FA686",
"!G	c #5FA687",
"!H	c #5FAB8A",
"!I	c #5FAE8B",
"!J	c #5FAE8B",
"!K	c #60A687",
"!L	c #60A688",
"!M	c #60A788",
"!N	c #60AB8B",
"!O	c #60AD8C",
"!P	c #61A486",
"!Q	c #61A688",
"!R	c #61AD8C",
"!S	c #62A387",
"!T	c #62A889",
"!U	c #62A98A",
"!V	c #62AD8C",
"!W	c #63A98B",
"!X	c #63AD8D",
"!Y	c #63AE8D",
"!Z	c #63AE8D",
"![	c #64A88A",
"!]	c #64AA8B",
"!^	c #64AA8C",
"!_	c #65A88A",
"!`	c #65AB8C",
"!a	c #65AC8D",
"!b	c #65AE8D",
"!c	c #66AB8D",
"!d	c #66AC8D",
"!e	c #66AC8E",
"!f	c #66AE8E",
"!g	c #66AE8F",
"!h	c #67AD8E",
"!i	c #67AD8F",
"!j	c #67AE8F",
"!k	c #67AF8F",
"!l	c #68AA8D",
"!m	c #69AB8E",
"!n	c #69AE90",
"!o	c #69AF90",
"!p	c #6AAE90",
"!q	c #6AAF90",
"!r	c #6AAF91",
"!s	c #6AAF91",
"!t	c #6AB091",
"!u	c #6BAF91",
"!v	c #6BB092",
"!w	c #6BB092",
"!x	c #6BB192",
"!y	c #6CAE92",
"!z	c #6CB092",
"!{	c #6CB193",
"!|	c #6DAD90",
"!}	c #6DB193",
"!~	c #6DB696",
"# 	c #6DB998",
"#!	c #6EB596",
"##	c #6FB194",
"#$	c #70B295",
"#%	c #70B295",
"#&	c #70B697",
"#'	c #71B194",
"#(	c #71B295",
"#)	c #71B295",
"#*	c #72AF95",
"#+	c #72B296",
"#,	c #72B396",
"#-	c #72B396",
"#.	c #73B296",
"#/	c #73B396",
"#0	c #73B397",
"#1	c #73B698",
"#2	c #74B397",
"#3	c #74B398",
"#4	c #75B398",
"#5	c #76B399",
"#6	c #76B498",
"#7	c #76B499",
"#8	c #76B499",
"#9	c #77B499",
"#:	c #77B499",
"#;	c #77B69A",
"#<	c #78B299",
"#=	c #78B399",
"#>	c #78B49A",
"#?	c #79B49A",
"#@	c #79B49A",
"#A	c #79B49B",
"#B	c #79B59A",
"#C	c #79B59B",
"#D	c #7AB49B",
"#E	c #7AB59B",
"#F	c #7AB59B",
"#G	c #7BB49A",
"#H	c #7BB49C",
"#I	c #7BB59C",
"#J	c #7BB69C",
"#K	c #7CB59C",
"#L	c #7CB59D",
"#M	c #7CB79E",
"#N	c #7DB69D",
"#O	c #7DB69E",
"#P	c #7DB79E",
"#Q	c #7EB59D",
"#R	c #7EB59E",
"#S	c #7EB79E",
"#T	c #7EB9A0",
"#U	c #7FB59E",
"#V	c #7FB79E",
"#W	c #7FB79F",
"#X	c #7FB79F",
"#Y	c #80B79E",
"#Z	c #80B79F",
"#[	c #80B79F",
"#]	c #80B7A0",
"#^	c #80B8A0",
"#_	c #81B7A0",
"#`	c #82B7A0",
"#a	c #82B8A0",
"#b	c #82B9A1",
"#c	c #83B7A1",
"#d	c #83B8A0",
"#e	c #83B8A1",
"#f	c #83B8A1",
"#g	c #83B9A2",
"#h	c #84B7A1",
"#i	c #84B9A1",
"#j	c #84B9A2",
"#k	c #85B8A2",
"#l	c #85B9A2",
"#m	c #86B9A2",
"#n	c #86B9A3",
"#o	c #86BAA3",
"#p	c #87B8A2",
"#q	c #87B9A3",
"#r	c #87B9A3",
"#s	c #87BAA3",
"#t	c #87BAA4",
"#u	c #87BAA4",
"#v	c #88BAA4",
"#w	c #88BAA5",
"#x	c #88BBA5",
"#y	c #89BAA5",
"#z	c #8ABBA5",
"#{	c #8ABBA6",
"#|	c #8ABBA6",
"#}	c #8BBAA5",
"#~	c #8BBBA6",
"$ 	c #8BBBA7",
"$!	c #8BBBA7",
"$#	c #8BBCA7",
"$$	c #8CBBA7",
"$%	c #8DBBA7",
"$&	c #8DBBA8",
"$'	c #8EBBA7",
"$(	c #8EBBA8",
"$)	c #8EBBA8",
"$*	c #8FBBA7",
"$+	c #8FBBA8",
"$,	c #8FBCA8",
"$-	c #8FBCA8",
"$.	c #8FBCA9",
"$/	c #90BCA8",
"$0	c #90BCA9",
"$1	c #90BCAA",
"$2	c #90BDAA",
"$3	c #91BDAB",
"$4	c #91BDAB",
"$5	c #92BCA9",
"$6	c #92BDAA",
"$7	c #93BDAA",
"$8	c #93BDAB",
"$9	c #93BDAC",
"$:	c #94BCAB",
"$;	c #94BEAB",
"$<	c #94BEAC",
"$=	c #95BEAC",
"$>	c #95BEAC",
"$?	c #95BEAC",
"$@	c #95C0AD",
"$A	c #95C6B1",
"$B	c #95C6B1",
"$C	c #96BEAC",
"$D	c #96BEAC",
"$E	c #97BEAD",
"$F	c #97BFAD",
"$G	c #97BFAE",
"$H	c #97C7B3",
"$I	c #98BEAD",
"$J	c #98BFAD",
"$K	c #98BFAD",
"$L	c #98BFAE",
"$M	c #98BFAF",
"$N	c #98C0AE",
"$O	c #99C0AE",
"$P	c #99C0AF",
"$Q	c #99C7B3",
"$R	c #99C7B4",
"$S	c #99C7B4",
"$T	c #9AC0AE",
"$U	c #9AC0AF",
"$V	c #9AC0B0",
"$W	c #9AC2B1",
"$X	c #9AC7B4",
"$Y	c #9AC7B5",
"$Z	c #9BC0B0",
"$[	c #9BC1B0",
"$]	c #9BC7B4",
"$^	c #9BC7B5",
"$_	c #9CBFB0",
"$`	c #9CC0B1",
"$a	c #9CC1B1",
"$b	c #9CC8B5",
"$c	c #9CC8B6",
"$d	c #9CC8B6",
"$e	c #9DC1B1",
"$f	c #9DC1B2",
"$g	c #9DC8B5",
"$h	c #9DC8B6",
"$i	c #9DC8B6",
"$j	c #9EC2B2",
"$k	c #9EC2B2",
"$l	c #9EC2B3",
"$m	c #9EC8B6",
"$n	c #9EC8B6",
"$o	c #9EC8B6",
"$p	c #9EC8B7",
"$q	c #9FC0B2",
"$r	c #9FC1B3",
"$s	c #9FC2B3",
"$t	c #9FC2B3",
"$u	c #9FC8B7",
"$v	c #A0C1B3",
"$w	c #A0C2B3",
"$x	c #A0C2B4",
"$y	c #A0C2B4",
"$z	c #A0C3B4",
"${	c #A0C8B6",
"$|	c #A0C8B8",
"$}	c #A1C2B4",
"$~	c #A1C3B4",
"% 	c #A1C3B5",
"%!	c #A1C9B7",
"%#	c #A1C9B8",
"%$	c #A1C9B9",
"%%	c #A1C9BA",
"%&	c #A2C3B4",
"%'	c #A2C3B5",
"%(	c #A2C9B7",
"%)	c #A3C2B4",
"%*	c #A3C3B4",
"%+	c #A3C3B5",
"%,	c #A3C4B6",
"%-	c #A3C9B8",
"%.	c #A3C9B9",
"%/	c #A4C3B5",
"%0	c #A4C3B6",
"%1	c #A4C9B9",
"%2	c #A4C9BB",
"%3	c #A5C4B7",
"%4	c #A5C9B9",
"%5	c #A5C9BA",
"%6	c #A6C4B7",
"%7	c #A6C4B7",
"%8	c #A6C9BA",
"%9	c #A7C3B6",
"%:	c #A7C3B7",
"%;	c #A7C4B7",
"%<	c #A7C4B8",
"%=	c #A7C4B8",
"%>	c #A8C4B9",
"%?	c #A8C5B9",
"%@	c #A8C9BB",
"%A	c #A8CABC",
"%B	c #A9C4B9",
"%C	c #A9C5B9",
"%D	c #A9C6BA",
"%E	c #A9C9BB",
"%F	c #A9CABC",
"%G	c #A9CABD",
"%H	c #AAC5BA",
"%I	c #AAC9BC",
"%J	c #ABC5BA",
"%K	c #ABC6BB",
"%L	c #ABCABD",
"%M	c #ACC5BB",
"%N	c #ACC6BB",
"%O	c #ACCBBE",
"%P	c #ADC6BB",
"%Q	c #ADC6BB",
"%R	c #ADC6BC",
"%S	c #ADCABE",
"%T	c #ADCBBF",
"%U	c #AEC5BB",
"%V	c #AEC6BB",
"%W	c #AEC6BC",
"%X	c #AEC7BB",
"%Y	c #AEC7BC",
"%Z	c #AECABE",
"%[	c #AECBBF",
"%]	c #AFC6BD",
"%^	c #AFC7BC",
"%_	c #AFC7BD",
"%`	c #AFC9BE",
"%a	c #AFCABE",
"%b	c #AFCBC0",
"%c	c #B0CABF",
"%d	c #B0CABF",
"%e	c #B0CAC0",
"%f	c #B0CBBF",
"%g	c #B0CBC0",
"%h	c #B1C6BD",
"%i	c #B1C8BD",
"%j	c #B1C8BE",
"%k	c #B1C8BF",
"%l	c #B1C9BF",
"%m	c #B1CABF",
"%n	c #B1CAC0",
"%o	c #B1CCC1",
"%p	c #B2C7BE",
"%q	c #B2C8BF",
"%r	c #B2C9BF",
"%s	c #B2C9C0",
"%t	c #B2CABF",
"%u	c #B2CAC0",
"%v	c #B2CAC0",
"%w	c #B2CAC1",
"%x	c #B3C8BF",
"%y	c #B3C8C0",
"%z	c #B3C9BF",
"%{	c #B3CAC0",
"%|	c #B3CAC1",
"%}	c #B4C9C0",
"%~	c #B4CBC1",
"& 	c #B4CBC2",
"&!	c #B4CCC3",
"&#	c #B4CCC3",
"&$	c #B5C9C0",
"&%	c #B6C8C0",
"&&	c #B6C8C1",
"&'	c #B6C9C0",
"&(	c #B6C9C1",
"&)	c #B6CAC0",
"&*	c #B6CBC2",
"&+	c #B6CBC3",
"&,	c #B7CAC2",
"&-	c #B7CBC2",
"&.	c #B7CBC3",
"&/	c #B8C9C1",
"&0	c #B8C9C1",
"&1	c #B8CAC2",
"&2	c #B8CAC3",
"&3	c #B8CBC3",
"&4	c #B8CDC5",
"&5	c #B9C9C2",
"&6	c #B9C9C3",
"&7	c #B9CAC2",
"&8	c #B9CAC3",
"&9	c #B9CBC3",
"&:	c #B9CBC4",
"&;	c #BAC9C2",
"&<	c #BACAC3",
"&=	c #BACAC3",
"&>	c #BACBC3",
"&?	c #BBCBC3",
"&@	c #BBCBC4",
"&A	c #BBCBC4",
"&B	c #BBCCC5",
"&C	c #BCCAC3",
"&D	c #BCCCC5",
"&E	c #BCCCC6",
"&F	c #BCCEC7",
"&G	c #BDCBC5",
"&H	c #BDCCC5",
"&I	c #BDCCC6",
"&J	c #BECCC6",
"&K	c #BECCC6",
"&L	c #BFCDC7",
"&M	c #BFCDC7",
"&N	c #C0CDC7",
"&O	c #C0CDC7",
"&P	c #C1CCC7",
"&Q	c #C1CDC8",
"&R	c #C1CFCA",
"&S	c #C3CDC9",
"&T	c #C4CEC9",
"&U	c #C5CECA",
"&V	c #C6CECB",
"&W	c #C6D0CC",
"&X	c #C8CFCC",
"&Y	c #CACFCE",
"%c&/%P%6$f$=$(#q#W#9#(!r!f!R!D!6!% {!?",
" R&S&1%k%C%*$Z$?$+#v#b#M#;#1#&#!!~#  d",
" .%[&7%W%<$x$J$3#{#h#Q#<#*!|!l![!Q!S %",
" <&0$s$>$ #e#?#$!g!C!! k N : - & !   1",
" ?&5% $N$+#m#N#2!x!U!9 x _ K 7 + ' # 0",
" D&6%'$V$/#u#X#4!}!`!= } f P ; 2 * $ /",
" F&=%'$V$0#u#X#8!}!e!B!  j U A 5 + ( 3",
" H&=%+$V$6#v#[#:##!d!G!) r Z G 8 2 ) 9",
" L&?%+$Z$7#|#_#@#%!i!T!1 t ^ M @ 6 , =",
" Q&@%7$a$8#~#a#I#/!q!W!9 | i U G ; 4 B",
" V&@%=$k$?$$#i#I#/!w!^!A!( r [ P C > E",
" X&J%=$t$F$&#n#S#4!}!e!M!. w f W M J I",
" `&L%>$z$L$-#u#X#:##!n!T!< ~ p e W T O",
" g&N%H%'$P$6#y#_#@#)!w!^!F!. w o b a S",
" l&Q%N%/$Z$;#~#d#I#2!}!h!T!<!( x o n Y",
" s&T%Y%3$e$?$%#o#X#:##!s!]!K!4!( y v ]",
" z&U%_%=$w$F$+#v#[#C#/!{!h!W!A!5!-!, h",
"!$&V%k%C$}$P$6$!#d#I#8##!u!d!T!E!<!8 m",
"!*&X%}%N%+$[$<$%#s#V#A#/!}!o!c!T!L!P q",
"!3&Y&$%Y%7$t$G$-#|#`#K#8#+!{!n!e!]!_ u",
"!>&Y&1%_%=$}$V$8$%#n#X#D#3#%!{!o!h!m!'",
"!N&W&A%z%K%+$a$D$-#v#f#O#C#3#%!}!w!y!&",
"!X&R&K&$%X%7$y$P$8$!#r#_#L#>#2#-###)!0",
"!j&F&O&2%^%?%*$[$D$+#|#k#]#L#A#4#0#5!7",
"!z&4&D&A%y%N%3$w$O$8$&#w#i#[#N#F#@#H!@",
"##&!&3&M&$%Y%>%&$[$D$4$$#v#j#[#X#K#Y!J",
"#.%g& &O&1%r%N%3$y$U$?$1$$#v#l#d#[#l!O",
"#>%O%m&B&D%}%]%B%*$k$M$9$.$%#w#s#n#y!V",
"#G%A%S&*&O&1%s%N%=$}$a$N$;$1$%$!#z$'!Z",
"#R%.%E%v&D&D&$%_%H%0$z$[$F$<$6$-$'$8!b",
"#c$p%4%Z&.&O&1%y%Y%>%+$y$a$T$D$;$8$K!t",
"#p$h%!%I%|&D&I&)%k%M%=%+$y$e$U$F$D$Z#%",
"#}$m$b%8%Z&*&O&A&$%_%N%=%/$~$r$`$Z$y#6",
"$%$m$X%!%I%n&:&O&8%}%^%N%=%7%+$}$y%/#N",
"$5$h$b$b%5%S%~&E&M&1%y%_%Q%C%=%3%+%=#f",
"$:$h$b$]${%@%f&+&K&G&,%}%i%Y%N%B%=%N#w",
"$I$c$b$b$b%1%L%m&3&O&D&1%}%q%_%V%N%j$)",
"$_$c$b$b$b$o%8%S%v&9&M&D&:&'%}%x%k%}$8",
"$v$c$b$b$b$]${%@%S& &9&M&M&A&1&(%}&1$U",
"%)$^$b$b$b$b$b%(%@%Z%{&3&E&O&K&A&>&H$}",
"%9$^$b$b$b$b$b$g%-%@%S%m&*&:&I&O&M&S%;",
"%J$R$b$b$b$b$b$]$g%-%@%S%d%w&+&9&B&M%Q",
"%U$R$b$b$b$b$b$b$]$g%-%@%I%S%e%t& %~&%",
"%p$R$]$]$b$b$b$b$b$]$g%#%5%F%L%S%a%S&P",
"&&$B$H$Q$S$Y$d$i$n$u$|%$%2%G%T%b%o&#%!",
"&C$A&-%`%D%,$l$W$@$2$##x#g#^#P#J#E#7%%",
"%l&K&;%h%:$q$E$*#p#U#=#'!p!a!H!:!2!##T",
"%u&<%R%6$j$C$,#t#Z#B#,!v!k!Y!I!;!/!+ c"};
