/* XPM */
static char *00[] = {
"24 24 512 2",
"  	c #B49B7A",
" !	c #C7AD86",
" #	c #CFC4B9",
" $	c #D0C5BB",
" %	c #D0C6BA",
" &	c #D0C7B4",
" '	c #D1C4B3",
" (	c #D1C7BC",
" )	c #D1C7BD",
" *	c #D2C6BA",
" +	c #D2C8B7",
" ,	c #D2C8B9",
" -	c #D2C8BA",
" .	c #D2C9B6",
" /	c #D2C9BB",
" 0	c #D2C9BD",
" 1	c #D2CBBE",
" 2	c #D3BE95",
" 3	c #D3C8BC",
" 4	c #D3CABD",
" 5	c #D3CABF",
" 6	c #D3CCBC",
" 7	c #D4CABE",
" 8	c #D4CBC1",
" 9	c #D5B490",
" :	c #D5B689",
" ;	c #D5CCC1",
" <	c #D6CEC4",
" =	c #D6D0C5",
" >	c #D7BD98",
" ?	c #D7CFC4",
" @	c #D7CFC5",
" A	c #D7CFC7",
" B	c #D8B993",
" C	c #D8BA94",
" D	c #D8BA98",
" E	c #D8CFC0",
" F	c #D8CFC5",
" G	c #D8D0C6",
" H	c #D8D0C7",
" I	c #D8D1C7",
" J	c #D9B88C",
" K	c #D9BC96",
" L	c #D9C2A1",
" M	c #D9CDBD",
" N	c #D9D0C5",
" O	c #D9D3CA",
" P	c #DAB886",
" Q	c #DAB987",
" R	c #DAB988",
" S	c #DABA8E",
" T	c #DABA8F",
" U	c #DABA92",
" V	c #DABF9F",
" W	c #DAD3CB",
" X	c #DAD6CF",
" Y	c #DBB785",
" Z	c #DBB786",
" [	c #DBB88E",
" ]	c #DBB987",
" ^	c #DBB988",
" _	c #DBBD9B",
" `	c #DBD3CA",
" a	c #DBD6CE",
" b	c #DCB888",
" c	c #DCB889",
" d	c #DCB88A",
" e	c #DCB988",
" f	c #DCB989",
" g	c #DCBA8A",
" h	c #DCBB8F",
" i	c #DCBD93",
" j	c #DCBE92",
" k	c #DCBE97",
" l	c #DCD2CC",
" m	c #DCD8D2",
" n	c #DDB88B",
" o	c #DDB987",
" p	c #DDBB8B",
" q	c #DDBB8C",
" r	c #DDBC8D",
" s	c #DDBE8F",
" t	c #DDBE9A",
" u	c #DDC097",
" v	c #DDC19D",
" w	c #DDC29D",
" x	c #DDC4A5",
" y	c #DDD5CD",
" z	c #DEBA8E",
" {	c #DEBB8C",
" |	c #DEBC8E",
" }	c #DEBC8F",
" ~	c #DEBD91",
"! 	c #DEC197",
"!!	c #DEC3A1",
"!#	c #DEC4A0",
"!$	c #DECBAD",
"!%	c #DED9D5",
"!&	c #DED9D6",
"!'	c #DEDAD8",
"!(	c #DFBB93",
"!)	c #DFBD90",
"!*	c #DFBD92",
"!+	c #DFBE8D",
"!,	c #DFBF8E",
"!-	c #DFC1A1",
"!.	c #DFC29E",
"!/	c #DFC2A1",
"!0	c #DFC79B",
"!1	c #DFD0BC",
"!2	c #DFD5CD",
"!3	c #DFD7CD",
"!4	c #DFD8CD",
"!5	c #E0BE8E",
"!6	c #E0BE91",
"!7	c #E0C091",
"!8	c #E0C092",
"!9	c #E0C094",
"!:	c #E0C196",
"!;	c #E0C28F",
"!<	c #E0C29A",
"!=	c #E0C6A4",
"!>	c #E0CAB0",
"!?	c #E0CAB1",
"!@	c #E0DBD0",
"!A	c #E1C08F",
"!B	c #E1C192",
"!C	c #E1C195",
"!D	c #E1C291",
"!E	c #E1C39C",
"!F	c #E1C4A2",
"!G	c #E1C59F",
"!H	c #E1C5A0",
"!I	c #E2C192",
"!J	c #E2C194",
"!K	c #E2C292",
"!L	c #E2C296",
"!M	c #E2C398",
"!N	c #E2C59E",
"!O	c #E2DEDD",
"!P	c #E3BF92",
"!Q	c #E3C195",
"!R	c #E3C293",
"!S	c #E3C393",
"!T	c #E3C397",
"!U	c #E3C39B",
"!V	c #E3C59F",
"!W	c #E3C69D",
"!X	c #E3CCAF",
"!Y	c #E3CFB7",
"!Z	c #E3D7C4",
"![	c #E3DFDF",
"!]	c #E3E0E1",
"!^	c #E4C396",
"!_	c #E4C397",
"!`	c #E4C494",
"!a	c #E4C499",
"!b	c #E4C596",
"!c	c #E4C597",
"!d	c #E4C599",
"!e	c #E4C59A",
"!f	c #E4C59C",
"!g	c #E4C696",
"!h	c #E4C6A0",
"!i	c #E4C796",
"!j	c #E4C89E",
"!k	c #E4DFDA",
"!l	c #E5C494",
"!m	c #E5C495",
"!n	c #E5C594",
"!o	c #E5C596",
"!p	c #E5C597",
"!q	c #E5C599",
"!r	c #E5C696",
"!s	c #E5C697",
"!t	c #E5C79A",
"!u	c #E5C79B",
"!v	c #E5C79E",
"!w	c #E5C89B",
"!x	c #E5C99A",
"!y	c #E5CEAE",
"!z	c #E5D1BC",
"!{	c #E5E2DF",
"!|	c #E5E2E2",
"!}	c #E6C495",
"!~	c #E6C496",
"# 	c #E6C595",
"#!	c #E6C697",
"##	c #E6C796",
"#$	c #E6C79A",
"#%	c #E6C898",
"#&	c #E6C899",
"#'	c #E6C89E",
"#(	c #E6C8A1",
"#)	c #E6C999",
"#*	c #E6C9A0",
"#+	c #E6CAA0",
"#,	c #E6E2DD",
"#-	c #E6E3E2",
"#.	c #E7C597",
"#/	c #E7C799",
"#0	c #E7C897",
"#1	c #E7C898",
"#2	c #E7C899",
"#3	c #E7C998",
"#4	c #E7C99C",
"#5	c #E7CA99",
"#6	c #E7CA9B",
"#7	c #E7CAA2",
"#8	c #E7CB9A",
"#9	c #E7CB9B",
"#:	c #E7CB9E",
"#;	c #E7CEA1",
"#<	c #E7E1DD",
"#=	c #E7E2DC",
"#>	c #E8C699",
"#?	c #E8C89B",
"#@	c #E8C89C",
"#A	c #E8C999",
"#B	c #E8C99A",
"#C	c #E8CA98",
"#D	c #E8CA99",
"#E	c #E8CA9B",
"#F	c #E8CA9C",
"#G	c #E8CA9D",
"#H	c #E8CB9A",
"#I	c #E8CB9B",
"#J	c #E8CB9C",
"#K	c #E8CB9D",
"#L	c #E8CC9C",
"#M	c #E8CEA4",
"#N	c #E8D3BF",
"#O	c #E8D7C6",
"#P	c #E8D7C9",
"#Q	c #E8E1DD",
"#R	c #E8E5E1",
"#S	c #E9C898",
"#T	c #E9C899",
"#U	c #E9C89A",
"#V	c #E9C89B",
"#W	c #E9C99A",
"#X	c #E9C99B",
"#Y	c #E9C99C",
"#Z	c #E9CA9C",
"#[	c #E9CB9A",
"#]	c #E9CB9B",
"#^	c #E9CC9B",
"#_	c #E9CD9A",
"#`	c #E9D1A9",
"#a	c #E9D5C4",
"#b	c #E9DACB",
"#c	c #E9E2D6",
"#d	c #E9E5E0",
"#e	c #EACA9D",
"#f	c #EACC9A",
"#g	c #EACC9D",
"#h	c #EACC9F",
"#i	c #EACDA0",
"#j	c #EACE9C",
"#k	c #EACEAE",
"#l	c #EACF9D",
"#m	c #EAD3AA",
"#n	c #EAD6B6",
"#o	c #EAD9BB",
"#p	c #EADCCA",
"#q	c #EAE8DC",
"#r	c #EBCA97",
"#s	c #EBCDA5",
"#t	c #EBD6B0",
"#u	c #EBD8B6",
"#v	c #EBDACB",
"#w	c #ECCE9E",
"#x	c #ECCFA0",
"#y	c #ECD2A0",
"#z	c #ECD8AF",
"#{	c #ECD8B9",
"#|	c #ECD8C6",
"#}	c #ECDDCC",
"#~	c #ECDDCF",
"$ 	c #EDCF9D",
"$!	c #EDD1A1",
"$#	c #EDD5AB",
"$$	c #EDE8E7",
"$%	c #EED3A0",
"$&	c #EED4B8",
"$'	c #EED5A0",
"$(	c #EED7A5",
"$)	c #EED7A8",
"$*	c #EEDCC9",
"$+	c #EEE1D5",
"$,	c #EEEAE8",
"$-	c #EEEBE9",
"$.	c #EEEDE7",
"$/	c #EFD2A1",
"$0	c #EFD2A3",
"$1	c #EFD4A4",
"$2	c #EFEBE6",
"$3	c #EFEDEE",
"$4	c #F0DDCB",
"$5	c #F0E3D4",
"$6	c #F0E3D8",
"$7	c #F0E4DC",
"$8	c #F1D7A2",
"$9	c #F1D8A5",
"$:	c #F1DDAB",
"$;	c #F1EAEC",
"$<	c #F1EDE8",
"$=	c #F1EEE7",
"$>	c #F2D9A4",
"$?	c #F2DAA4",
"$@	c #F2DAAB",
"$A	c #F2E0C0",
"$B	c #F2E1C3",
"$C	c #F2E3CA",
"$D	c #F2E7D6",
"$E	c #F2E7D9",
"$F	c #F2EEE7",
"$G	c #F2EFE7",
"$H	c #F3DFB0",
"$I	c #F3E0AA",
"$J	c #F3E2AC",
"$K	c #F3E2D1",
"$L	c #F3E3C6",
"$M	c #F3E4C7",
"$N	c #F3E6CC",
"$O	c #F3E6D8",
"$P	c #F3EADC",
"$Q	c #F3EBE5",
"$R	c #F3ECE5",
"$S	c #F3EDE7",
"$T	c #F3EFE8",
"$U	c #F3EFEB",
"$V	c #F3F0F2",
"$W	c #F3F1EF",
"$X	c #F4DCA6",
"$Y	c #F4DDA9",
"$Z	c #F4DEB1",
"$[	c #F4E1AB",
"$]	c #F4E3C5",
"$^	c #F4E4D5",
"$_	c #F4E5C8",
"$`	c #F4E5D6",
"$a	c #F4E7DA",
"$b	c #F4E8CA",
"$c	c #F4E8CB",
"$d	c #F4E8CC",
"$e	c #F4E9D1",
"$f	c #F4ECDE",
"$g	c #F4F0EB",
"$h	c #F5DEAD",
"$i	c #F5DFA9",
"$j	c #F5DFBC",
"$k	c #F5E3C7",
"$l	c #F5E5C7",
"$m	c #F5E8CA",
"$n	c #F5E8CC",
"$o	c #F5E9CD",
"$p	c #F5E9CE",
"$q	c #F5E9CF",
"$r	c #F5EAD0",
"$s	c #F5EADB",
"$t	c #F5EBE0",
"$u	c #F5F2E4",
"$v	c #F5F2F3",
"$w	c #F6E0B1",
"$x	c #F6E8D5",
"$y	c #F6E9CD",
"$z	c #F6E9CE",
"${	c #F6EACE",
"$|	c #F6EACF",
"$}	c #F6EAD0",
"$~	c #F6EAD3",
"% 	c #F6EBCF",
"%!	c #F6EBD0",
"%#	c #F6EBD1",
"%$	c #F6ECCF",
"%%	c #F6ECD0",
"%&	c #F6ECD1",
"%'	c #F6ECE2",
"%(	c #F6EDE4",
"%)	c #F6EED7",
"%*	c #F6EFDC",
"%+	c #F6F0EC",
"%,	c #F6F4F1",
"%-	c #F6F6F6",
"%.	c #F7E3C5",
"%/	c #F7E5C8",
"%0	c #F7EAD0",
"%1	c #F7EBCF",
"%2	c #F7EBD0",
"%3	c #F7EBD2",
"%4	c #F7EBD3",
"%5	c #F7EBD5",
"%6	c #F7EBDD",
"%7	c #F7ECD0",
"%8	c #F7ECD1",
"%9	c #F7ECDA",
"%:	c #F7ECDE",
"%;	c #F7EED6",
"%<	c #F7EEE5",
"%=	c #F7EFE3",
"%>	c #F7F0EA",
"%?	c #F7F1EA",
"%@	c #F7F2EB",
"%A	c #F7F2ED",
"%B	c #F7F2EE",
"%C	c #F7F7F3",
"%D	c #F8ECD0",
"%E	c #F8ECD2",
"%F	c #F8ECD4",
"%G	c #F8ECD6",
"%H	c #F8EED8",
"%I	c #F8EEDA",
"%J	c #F8EFD8",
"%K	c #F8EFDD",
"%L	c #F8F0E8",
"%M	c #F8F1EC",
"%N	c #F8F2EE",
"%O	c #F8F2F2",
"%P	c #F8F3EA",
"%Q	c #F8F3F2",
"%R	c #F8F4F1",
"%S	c #F8F4F6",
"%T	c #F8F5F1",
"%U	c #F8F5F8",
"%V	c #F8F5F9",
"%W	c #F8F6F4",
"%X	c #F8F7F5",
"%Y	c #F8F8F6",
"%Z	c #F8F8FE",
"%[	c #F8F9FD",
"%]	c #F9EEDE",
"%^	c #F9F0DB",
"%_	c #F9F0E4",
"%`	c #F9F3E9",
"%a	c #F9F5F2",
"%b	c #F9F5F7",
"%c	c #F9F5F8",
"%d	c #F9F6F1",
"%e	c #F9F6F3",
"%f	c #F9F6F6",
"%g	c #F9F7F6",
"%h	c #F9F7F7",
"%i	c #F9F7F8",
"%j	c #F9F7F9",
"%k	c #F9F8F6",
"%l	c #F9F8F8",
"%m	c #F9F9FB",
"%n	c #FAEBD6",
"%o	c #FAEBDE",
"%p	c #FAF1ED",
"%q	c #FAF5F4",
"%r	c #FAF5F7",
"%s	c #FAF6F7",
"%t	c #FAF6F9",
"%u	c #FAF7F6",
"%v	c #FAF7F8",
"%w	c #FAF8F5",
"%x	c #FAF8F7",
"%y	c #FAF8F8",
"%z	c #FAF8FD",
"%{	c #FAF9F9",
"%|	c #FBF1E1",
"%}	c #FBF2DF",
"%~	c #FBF4F1",
"& 	c #FBF4F5",
"&!	c #FBF7EE",
"&#	c #FBF7F4",
"&$	c #FBF8F6",
"&%	c #FBF8FA",
"&&	c #FBF8FB",
"&'	c #FBF8FC",
"&(	c #FBF8FD",
"&)	c #FBF9FB",
"&*	c #FBF9FC",
"&+	c #FBFAFD",
"&,	c #FCF2DB",
"&-	c #FCF3D8",
"&.	c #FCF7F6",
"&/	c #FCF8F4",
"&0	c #FCF8FD",
"&1	c #FCF9F6",
"&2	c #FCFCFA",
"&3	c #FDF4E1",
"&4	c #FDF6E5",
"&5	c #FDF6F3",
"&6	c #FDF7F6",
"&7	c #FDF7F8",
"&8	c #FDF7FC",
"&9	c #FDF8F5",
"&:	c #FDF9FC",
"&;	c #FDFBFB",
"&<	c #FDFDFC",
"&=	c #FEF6E5",
"&>	c #FEF7F5",
"&?	c #FEF8F9",
"&@	c #FEFAF2",
"&A	c #FEFCFF",
"&B	c #FEFDFD",
"&C	c #FFFAFA",
"&D	c #FFFAFF",
"&E	c #FFFBFB",
"&F	c #FFFBFD",
"&G	c #FFFCFA",
"&H	c #FFFDF9",
"&I	c #FFFDFA",
"&J	c #FFFDFB",
"&K	c #FFFDFD",
"&L	c #FFFEFA",
"&M	c #FFFEFC",
"&N	c #FFFEFF",
"&O	c #FFFFFC",
"   !#9#]#[#K#`#t#o%r$`#h#W#W#V#Y#e#e#@!: 9$6%e%R",
" 2!0#L#H#I#J#M#m#{&:$K#E#S#S#T#U#X#Y#?!C B$7%d$P",
"$H$)#9#5#6#6#:#;#u&0$4!g!l# !}!m!o!m!_ ~ C$Q%<$#",
"$(#y#8#)#2#&#%!x#n&'#|!A!P!I!6!) | z!( [ D%i%:$0",
"#l#j#D##!b!R!K!B!y&($;#O!z!Y!? x!!!=!>!$!Z&A$x$ ",
"#[#[#D!`!7 r p q!#%S%V%h%-$W$-#d#,#=#R#q$S&D$^#r",
"#H#[#D!S } n c f k& $V#<!k!{#-!|!]![!O!@#c&8%p#s",
"#H#H#3!D { d c ^ K%U$3 y W a m!%!'!& X 6 M%q&C$&",
"#A#D##!, g b b Q >%Z$$ N ? I O ` O = 1 & ,%e&9#k",
"#3#1!n!+ e Z o P V%z#Q E @ H I 8 ) ( 4 + 7%v%'!v",
"!r!o!S!5 f Y ] R L%O!2 . / 0 $ # % ( 5 -!3&&$+ t",
"!<!E!H!N!  j u w!1$, l ' * 3 ; F G < A!4$U%{$S#p",
"$R%>%~&5&>&7&)%m%[%j$v$<$2$.$=$G$F$T$g%R%k%Y%,%A",
"&-&,&3&=&4%}%^%H%;%J%)%*$u%C%W%X%g%h%i&%%y%l%x%g",
"$8$9$@$Z$w$h$Y$i$I$J$[$:#z$f%Q%f%i%t%r%q%T%B%?%=",
"#f#C#0#^#x#x$!$1$>$X$?$'!i$*%~%+%(%6%5%4%F%F%E%0",
"#g#B!b#!#.!~#!#B#w$/$%#_!;#N&6$t$e$z${%1%2%D%D%7",
"#i#G!t!w!q!Q!J!^#/#Y#Z!s s#a&E%9$p$y${% %!%%%7%8",
"#F#4!u#+#*!f!M!d#$#/#>!Q J#~&F$~$c$y$|%#%#%&%8%8",
"!p!c!a#'#7#(!j!W!e!T!L!* :$E&C%3$m$n$r%#%#%%%%%$",
"!8!8!9!U!h!V!G!/!-!. v _!X%N&.%G$l$M$N$q$}$o$d$b",
" h S T i U!F%o&G&2&;&?&#&#&$&/%]$k$A$B$]$L$_%I&!",
"#}#v#P#b$5%`&L&H&H&J&I&J&J&B&K&1%L$a$O$D$s%P&<&M",
"%u%s%c%{%w%@%'%_%|%n%.$j%/%K&@&O&N&+%b%M%a&*%y$C"};
