/* XPM */
static char *01[] = {
"24 24 494 2",
"  	c #997F65",
" !	c #B8A17E",
" #	c #BEA57D",
" $	c #C2B9A3",
" %	c #C4BAA4",
" &	c #C5BEA7",
" '	c #C6BDA5",
" (	c #C7B8A9",
" )	c #C9BDA9",
" *	c #CBBDA6",
" +	c #CBBDAA",
" ,	c #CCBDB1",
" -	c #CDBEAB",
" .	c #CDBFA7",
" /	c #CFC6B1",
" 0	c #D3B890",
" 1	c #D4C5B6",
" 2	c #D5CDBA",
" 3	c #D8BA95",
" 4	c #D9B585",
" 5	c #D9B586",
" 6	c #D9B587",
" 7	c #D9B686",
" 8	c #D9B687",
" 9	c #D9B688",
" :	c #D9B786",
" ;	c #D9B787",
" <	c #D9B788",
" =	c #D9B789",
" >	c #D9B888",
" ?	c #D9B98B",
" @	c #D9B993",
" A	c #D9BA8A",
" B	c #DAB585",
" C	c #DAB685",
" D	c #DAB686",
" E	c #DAB687",
" F	c #DAB688",
" G	c #DAB785",
" H	c #DAB787",
" I	c #DAB788",
" J	c #DAB887",
" K	c #DAB888",
" L	c #DAB889",
" M	c #DAB88A",
" N	c #DAB98B",
" O	c #DAD2C0",
" P	c #DBB686",
" Q	c #DBB785",
" R	c #DBB788",
" S	c #DBB888",
" T	c #DBB88A",
" U	c #DBB989",
" V	c #DBBA8B",
" W	c #DBBA8E",
" X	c #DBBD96",
" Y	c #DBBE99",
" Z	c #DBBF96",
" [	c #DCB785",
" ]	c #DCB786",
" ^	c #DCB889",
" _	c #DCBB8D",
" `	c #DCBD92",
" a	c #DCC197",
" b	c #DCD4CD",
" c	c #DDB986",
" d	c #DDB988",
" e	c #DDBB8C",
" f	c #DDBC8D",
" g	c #DDBE8F",
" h	c #DDBE96",
" i	c #DDBE97",
" j	c #DDBE99",
" k	c #DDBF9B",
" l	c #DDBF9C",
" m	c #DDC19D",
" n	c #DEBE92",
" o	c #DEBE93",
" p	c #DEBF92",
" q	c #DEBF93",
" r	c #DEC090",
" s	c #DFBD89",
" t	c #DFBD8F",
" u	c #DFBF8F",
" v	c #DFBF90",
" w	c #DFBF92",
" x	c #DFC294",
" y	c #DFC49D",
" z	c #DFC49E",
" {	c #DFDACE",
" |	c #E0BD95",
" }	c #E0BE8E",
" ~	c #E0BE91",
"! 	c #E0BF92",
"!!	c #E0C092",
"!#	c #E0C093",
"!$	c #E1BF90",
"!%	c #E1C08D",
"!&	c #E1C090",
"!'	c #E1C093",
"!(	c #E1C292",
"!)	c #E1C296",
"!*	c #E1C393",
"!+	c #E1C396",
"!,	c #E1C397",
"!-	c #E1C491",
"!.	c #E1C496",
"!/	c #E1C59A",
"!0	c #E1C7A5",
"!1	c #E2C093",
"!2	c #E2C292",
"!3	c #E2C395",
"!4	c #E2C397",
"!5	c #E2C494",
"!6	c #E2C495",
"!7	c #E2C69A",
"!8	c #E2C89D",
"!9	c #E2CAA0",
"!:	c #E2DED7",
"!;	c #E3C192",
"!<	c #E3C393",
"!=	c #E3C494",
"!>	c #E3C594",
"!?	c #E3C595",
"!@	c #E3C696",
"!A	c #E3CAB0",
"!B	c #E3CBA6",
"!C	c #E3E0D9",
"!D	c #E4C495",
"!E	c #E4C595",
"!F	c #E4C596",
"!G	c #E4C598",
"!H	c #E4C599",
"!I	c #E4C698",
"!J	c #E4C798",
"!K	c #E4DED9",
"!L	c #E4DFD9",
"!M	c #E4DFDA",
"!N	c #E5C295",
"!O	c #E5C494",
"!P	c #E5C596",
"!Q	c #E5C599",
"!R	c #E5C694",
"!S	c #E5C799",
"!T	c #E5C896",
"!U	c #E5C897",
"!V	c #E5C998",
"!W	c #E5CCA0",
"!X	c #E5DFDB",
"!Y	c #E5E0DA",
"!Z	c #E5E0DB",
"![	c #E5E1D5",
"!]	c #E5E1DD",
"!^	c #E6C193",
"!_	c #E6C697",
"!`	c #E6C69A",
"!a	c #E6C898",
"!b	c #E6C89A",
"!c	c #E6C99A",
"!d	c #E6CB99",
"!e	c #E6CBA0",
"!f	c #E6CC9F",
"!g	c #E6E0DA",
"!h	c #E6E0DB",
"!i	c #E6E1DA",
"!j	c #E6E1DB",
"!k	c #E6E1DC",
"!l	c #E6E2DC",
"!m	c #E6E2DD",
"!n	c #E7C79B",
"!o	c #E7C897",
"!p	c #E7C89A",
"!q	c #E7C89C",
"!r	c #E7C89D",
"!s	c #E7C99C",
"!t	c #E7CA9D",
"!u	c #E7CA9E",
"!v	c #E7CB99",
"!w	c #E7CB9A",
"!x	c #E7CB9B",
"!y	c #E7CB9C",
"!z	c #E7CC9D",
"!{	c #E7D2BD",
"!|	c #E7D5C1",
"!}	c #E7E2DC",
"!~	c #E7E2DD",
"# 	c #E7E2DE",
"#!	c #E7E3DD",
"##	c #E7E3DE",
"#$	c #E7E4DE",
"#%	c #E7E4DF",
"#&	c #E8C795",
"#'	c #E8C79B",
"#(	c #E8C897",
"#)	c #E8C99B",
"#*	c #E8C99C",
"#+	c #E8CA9C",
"#,	c #E8CA9D",
"#-	c #E8CB9C",
"#.	c #E8CB9D",
"#/	c #E8CC9C",
"#0	c #E8CC9D",
"#1	c #E8CC9E",
"#2	c #E8CC9F",
"#3	c #E8CD9E",
"#4	c #E8CD9F",
"#5	c #E8CDA4",
"#6	c #E8D0A6",
"#7	c #E8E0D7",
"#8	c #E8E2DD",
"#9	c #E8E3DE",
"#:	c #E8E4DE",
"#;	c #E8E4DF",
"#<	c #E9CA9D",
"#=	c #E9CB9B",
"#>	c #E9CC9D",
"#?	c #E9CC9E",
"#@	c #E9CD9D",
"#A	c #E9CD9F",
"#B	c #E9CFA0",
"#C	c #E9D0A2",
"#D	c #E9D4B9",
"#E	c #E9DFD4",
"#F	c #E9E1D9",
"#G	c #E9E3DB",
"#H	c #E9E4DD",
"#I	c #E9E4DE",
"#J	c #E9E5DF",
"#K	c #EACA9D",
"#L	c #EACA9E",
"#M	c #EACA9F",
"#N	c #EACD9C",
"#O	c #EAD1A0",
"#P	c #EAE3DC",
"#Q	c #EAE5DA",
"#R	c #EAE5E3",
"#S	c #EBCA9F",
"#T	c #EBCB9F",
"#U	c #EBCBA1",
"#V	c #EBCC9C",
"#W	c #EBCC9F",
"#X	c #EBCCA0",
"#Y	c #EBCD9F",
"#Z	c #EBCDA0",
"#[	c #EBD4A0",
"#]	c #EBD9C8",
"#^	c #EBDCCA",
"#_	c #EBE5DE",
"#`	c #EBE6E0",
"#a	c #EBE8E3",
"#b	c #ECCB99",
"#c	c #ECCCA0",
"#d	c #ECCCA1",
"#e	c #ECCDA0",
"#f	c #ECCEA0",
"#g	c #ECD0A2",
"#h	c #ECD3A8",
"#i	c #ECD9CB",
"#j	c #ECE5E3",
"#k	c #ECE6DF",
"#l	c #ECE9E5",
"#m	c #EDCC9B",
"#n	c #EDCDA1",
"#o	c #EDCE9E",
"#p	c #EDCE9F",
"#q	c #EDCEA1",
"#r	c #EDCFA1",
"#s	c #EDD4AB",
"#t	c #EDD9C9",
"#u	c #EDDACB",
"#v	c #EDDBC9",
"#w	c #EDE0D5",
"#x	c #EDE9E4",
"#y	c #EDECE7",
"#z	c #EECFA1",
"#{	c #EED1A1",
"#|	c #EEDACA",
"#}	c #EEDBCB",
"#~	c #EEE0D0",
"$ 	c #EEE7E1",
"$!	c #EEE8E5",
"$#	c #EEEAE2",
"$$	c #EFCF9F",
"$%	c #EFD1A2",
"$&	c #EFD2A0",
"$'	c #EFD3A3",
"$(	c #EFD3A4",
"$)	c #EFD4A7",
"$*	c #EFD6A5",
"$+	c #EFDCBD",
"$,	c #EFDED0",
"$-	c #EFDFC8",
"$.	c #EFEAE5",
"$/	c #EFEAE7",
"$0	c #EFEBE8",
"$1	c #EFECE5",
"$2	c #F0D1A0",
"$3	c #F0D4A5",
"$4	c #F0D5A5",
"$5	c #F0D9A3",
"$6	c #F0D9B3",
"$7	c #F0E1C3",
"$8	c #F0ECEB",
"$9	c #F0EDEA",
"$:	c #F0EEEA",
"$;	c #F1D59F",
"$<	c #F1D5A3",
"$=	c #F1D7A6",
"$>	c #F1D8A7",
"$?	c #F1D9A7",
"$@	c #F1E3CD",
"$A	c #F1E4C8",
"$B	c #F1E5D4",
"$C	c #F1ECE8",
"$D	c #F1EEED",
"$E	c #F2D6A4",
"$F	c #F2DAA1",
"$G	c #F2DCA6",
"$H	c #F2DDAC",
"$I	c #F2DEAC",
"$J	c #F2E1B0",
"$K	c #F2E2BE",
"$L	c #F2E3C8",
"$M	c #F2E3CA",
"$N	c #F2E4CC",
"$O	c #F2E5C7",
"$P	c #F2E7D3",
"$Q	c #F2E7DE",
"$R	c #F2F2EC",
"$S	c #F3D9A9",
"$T	c #F3DAA9",
"$U	c #F3DBB1",
"$V	c #F3DBB3",
"$W	c #F3DCAC",
"$X	c #F3DDA7",
"$Y	c #F3E2C2",
"$Z	c #F3E5D6",
"$[	c #F3E6C9",
"$]	c #F3E7CD",
"$^	c #F3E7D6",
"$_	c #F3EBDB",
"$`	c #F3EDEC",
"$a	c #F3EEE6",
"$b	c #F3EEEC",
"$c	c #F3EFEE",
"$d	c #F3F0E9",
"$e	c #F3F1EA",
"$f	c #F4DEA6",
"$g	c #F4DFA8",
"$h	c #F4E6CF",
"$i	c #F4E7C9",
"$j	c #F4E8BD",
"$k	c #F4E8CB",
"$l	c #F4E8CC",
"$m	c #F4E8D0",
"$n	c #F4E9CC",
"$o	c #F4F4EF",
"$p	c #F5E0A9",
"$q	c #F5E2C5",
"$r	c #F5E6C4",
"$s	c #F5E7C4",
"$t	c #F5E8D7",
"$u	c #F5E9CE",
"$v	c #F5EACB",
"$w	c #F6E9CA",
"$x	c #F6EBCD",
"$y	c #F6EBCF",
"$z	c #F6EBD8",
"${	c #F6ECD1",
"$|	c #F6EDDC",
"$}	c #F6EEE7",
"$~	c #F6F1EE",
"% 	c #F6F2F3",
"%!	c #F6F3ED",
"%#	c #F6F3F7",
"%$	c #F6F4F0",
"%%	c #F6F4F3",
"%&	c #F7E9CF",
"%'	c #F7EACB",
"%(	c #F7EACE",
"%)	c #F7EACF",
"%*	c #F7EBCE",
"%+	c #F7EBD0",
"%,	c #F7ECE7",
"%-	c #F7EDDB",
"%.	c #F7EEEE",
"%/	c #F7EFE4",
"%0	c #F7EFE6",
"%1	c #F7F0D9",
"%2	c #F7F0DA",
"%3	c #F7F1DD",
"%4	c #F7F3ED",
"%5	c #F7F3F2",
"%6	c #F7F3F6",
"%7	c #F7F4F1",
"%8	c #F7F4F2",
"%9	c #F8EAD0",
"%:	c #F8EBD1",
"%;	c #F8ECD0",
"%<	c #F8ECD1",
"%=	c #F8ECD2",
"%>	c #F8ECD7",
"%?	c #F8EEE8",
"%@	c #F8EFDD",
"%A	c #F8F0EC",
"%B	c #F8F3EA",
"%C	c #F8F4EF",
"%D	c #F8F5F2",
"%E	c #F8F5F3",
"%F	c #F8F6F3",
"%G	c #F8F6F6",
"%H	c #F8F6F7",
"%I	c #F8F7F2",
"%J	c #F8F7FD",
"%K	c #F9F2F2",
"%L	c #F9F4EC",
"%M	c #F9F4ED",
"%N	c #F9F4F4",
"%O	c #F9F5EA",
"%P	c #F9F5EC",
"%Q	c #F9F5F2",
"%R	c #F9F5F8",
"%S	c #F9F6F7",
"%T	c #F9F7F1",
"%U	c #F9F7F5",
"%V	c #F9F7F8",
"%W	c #F9F8F8",
"%X	c #FAF4F5",
"%Y	c #FAF6F2",
"%Z	c #FAF7F6",
"%[	c #FAF7F9",
"%]	c #FAF8F5",
"%^	c #FAF8F6",
"%_	c #FAF8FA",
"%`	c #FAF8FB",
"%a	c #FAF9F9",
"%b	c #FBF2E8",
"%c	c #FBF4E3",
"%d	c #FBF4E8",
"%e	c #FBF4F5",
"%f	c #FBF6F5",
"%g	c #FBF6FA",
"%h	c #FBF7F7",
"%i	c #FBF8FA",
"%j	c #FBF9FA",
"%k	c #FBF9FB",
"%l	c #FCF2E8",
"%m	c #FCF5F7",
"%n	c #FCF5F9",
"%o	c #FCF6E6",
"%p	c #FCF6F5",
"%q	c #FCF7F2",
"%r	c #FCF7F6",
"%s	c #FCF7F7",
"%t	c #FCF8EC",
"%u	c #FCF8F4",
"%v	c #FCF8FA",
"%w	c #FCF9FB",
"%x	c #FCF9FD",
"%y	c #FDF1EF",
"%z	c #FDF4F5",
"%{	c #FDF5E4",
"%|	c #FDF6F8",
"%}	c #FDF7E8",
"%~	c #FDF8F9",
"& 	c #FDF9F8",
"&!	c #FDF9FE",
"&#	c #FDFAF0",
"&$	c #FDFAF8",
"&%	c #FDFBF7",
"&&	c #FEF3EF",
"&'	c #FEF7E7",
"&(	c #FEF7ED",
"&)	c #FEF8E8",
"&*	c #FEF8EA",
"&+	c #FEF8FA",
"&,	c #FEF9F9",
"&-	c #FEFAF4",
"&.	c #FEFAF7",
"&/	c #FEFCFB",
"&0	c #FEFDFC",
"&1	c #FFF4EF",
"&2	c #FFF6EA",
"&3	c #FFFAF3",
"&4	c #FFFAFB",
"&5	c #FFFBFB",
"&6	c #FFFCFC",
"&7	c #FFFCFE",
"&8	c #FFFCFF",
"&9	c #FFFDFE",
"&:	c #FFFDFF",
"&;	c #FFFEFE",
"&<	c #FFFEFF",
"&=	c #FFFFFF",
"%5%7%$%!%4%C%E%S%G%D%M%d$h#h#C#B#A#0#1#1#@#4 !  ",
"$m${%1%1%2%2%3%@%-$^%/%b$+#3#?#0#>#-#.#.!z#2 0 #",
"$;$F$f$p$g$X$G$5#[!W$B%l#5!%!$!&!<!O!D!J!S!c#3#B",
"$2$<$>$?$=$4$(#g#2!8$Z&1!/ d ^ S U T M e v!5!x#3",
"$$$&$($'$'$%#r#Y#) x#v&& p [ P 7 8 8 9 I K f!U#/",
"#m#o#r#r#z#q#e#T!n w!{%y _ Q B 5 6 5 5 5 5 R!=!w",
"#b#p#f#e#q#n#d#M!` n!|%m W C 4 5 6 6 5 5 5 F!2!v",
"#&#V#Z#Y#e#e#c#X!q!+#^&+!# ] D 8 E E 8 8 8 9!(!d",
"!^!_#*#L#W#X#T#U!u!7#~%|!I c G : H E 8 I 8 I!*!V",
"!N!P!H!Q#'#<#K#S!r!.$,%n!f s S > < ; ; J S V!>!U",
" |!'!  ~ t }!$!;!1 u#t%X$-!e r ? A L = L N g!6!@",
"#]!A l j i X h Z a!B$Q%Z%8%0$P#D!0 k @ 3 Y m z y",
"%7%W%a%[%V%k%s%5$R$o%I%]%W%`%J&!%g%K%,$}%q&.&$&$",
"%U%T%P%O%L%^%j%%#y#l#x$.$/$`% %_%x%v%f%u&-&3&(&2",
"$|%>%=$y$]$_%F$9!Y!M!X!Z!g#F#Q$#%[%v$~$t$q$V$)#{",
"%9%=%;$l$A$@%Q$0!L!K!h!j!i!i#G 2#k%h$z$U#{#(!R!E",
"%;%=%+$n$O$N%r$8!Y!h!}!}!~!~#% /#7%r$s$*#N!o!a!a",
"%<%:%&$u$[$N%p$D!]!m###!!~#9!l )#H&,$K#O!y!p#+#,",
"%=%:%)%($i$M%z$c!m# #:#9#!#$!C %#a%~$6#=!b!b!s!t",
"%*%*%'$w$r$7%?$a![#8#J#I#;#` b $$:&+#s!T!F!G!S!S",
"$k$x$v$i$Y$L%A$  O {!:!k#P#E 1 '$C%e#6!?!3!)!4!,",
"&%&0&/&5&4&7&:&;$! , ( - . * + &#j%.!9!-!! o q `",
"%t%}&*&)&'%{%c%o&#$b#R#9#_$1$e$d%i%##w#}#|#u#u#i",
"$3$E$T$S$W$H$I$J$j%B%w&8&<&=&9&6& %Y%N%6%R%k%_%H"};
