/* XPM */
static char *02[] = {
"24 24 487 2",
"  	c #876347",
" !	c #8E6547",
" #	c #8E6548",
" $	c #906748",
" %	c #916E50",
" &	c #A68B6A",
" '	c #A9896C",
" (	c #AD9573",
" )	c #BA9972",
" *	c #BD9F78",
" +	c #BE9C74",
" ,	c #BF9F77",
" -	c #C6AA81",
" .	c #CDC4B6",
" /	c #CEC6B9",
" 0	c #CFB68D",
" 1	c #CFC2B2",
" 2	c #CFC5B8",
" 3	c #CFC6B6",
" 4	c #CFC6B8",
" 5	c #CFC6B9",
" 6	c #CFC6BA",
" 7	c #D0C3B3",
" 8	c #D0C4B7",
" 9	c #D0C5B7",
" :	c #D0C5B8",
" ;	c #D0C5B9",
" <	c #D0C6B7",
" =	c #D0C6B8",
" >	c #D0C6B9",
" ?	c #D0C6BA",
" @	c #D0C7B8",
" A	c #D0C7B9",
" B	c #D0C7BA",
" C	c #D0C7BB",
" D	c #D0C8BB",
" E	c #D0C8BF",
" F	c #D1C5B7",
" G	c #D1C6B8",
" H	c #D1C6B9",
" I	c #D1C6BA",
" J	c #D1C6BB",
" K	c #D1C7B8",
" L	c #D1C7BB",
" M	c #D1C7BC",
" N	c #D1C8BC",
" O	c #D2BB93",
" P	c #D2C5B8",
" Q	c #D2C6B6",
" R	c #D2C6B7",
" S	c #D2C6B8",
" T	c #D2C6BB",
" U	c #D2C7BA",
" V	c #D2C8B8",
" W	c #D2C9BA",
" X	c #D2C9BD",
" Y	c #D2C9BF",
" Z	c #D2CABF",
" [	c #D3B68E",
" ]	c #D3C7B8",
" ^	c #D3CABE",
" _	c #D3CABF",
" `	c #D4C8B8",
" a	c #D4C9B9",
" b	c #D4C9BC",
" c	c #D4CBC0",
" d	c #D4CCBF",
" e	c #D5C8B7",
" f	c #D5CABD",
" g	c #D5CABF",
" h	c #D5CCC1",
" i	c #D5CDC1",
" j	c #D6CABA",
" k	c #D6CABC",
" l	c #D6CBBF",
" m	c #D6CDC2",
" n	c #D7CBBB",
" o	c #D7CCBC",
" p	c #D7CDC0",
" q	c #D7D1C7",
" r	c #D8CCBE",
" s	c #D8CCC0",
" t	c #D8CDBE",
" u	c #D8CDC0",
" v	c #D8CDC1",
" w	c #D8CDC2",
" x	c #D8D0C4",
" y	c #D8D0C5",
" z	c #D8D1C7",
" {	c #D9B686",
" |	c #D9B786",
" }	c #D9B788",
" ~	c #D9B886",
"! 	c #D9B887",
"!!	c #D9B889",
"!#	c #D9CCC0",
"!$	c #D9CDBE",
"!%	c #D9CEBE",
"!&	c #D9CEBF",
"!'	c #D9D1C7",
"!(	c #D9D2CB",
"!)	c #DAB585",
"!*	c #DAB685",
"!+	c #DAB687",
"!,	c #DAB688",
"!-	c #DAB787",
"!.	c #DAB788",
"!/	c #DAB988",
"!0	c #DAB98B",
"!1	c #DACDC0",
"!2	c #DACEC6",
"!3	c #DAD0C3",
"!4	c #DAD0C7",
"!5	c #DAD2C7",
"!6	c #DAD4CA",
"!7	c #DAD4CB",
"!8	c #DBB785",
"!9	c #DBB788",
"!:	c #DBB887",
"!;	c #DBB888",
"!<	c #DBB889",
"!=	c #DBB88A",
"!>	c #DBB989",
"!?	c #DBBA8B",
"!@	c #DBBA8E",
"!A	c #DBCCBE",
"!B	c #DBD0C1",
"!C	c #DBD0C2",
"!D	c #DBD4CB",
"!E	c #DCB889",
"!F	c #DCB88A",
"!G	c #DCB988",
"!H	c #DCB98A",
"!I	c #DCB98B",
"!J	c #DCBB8B",
"!K	c #DCBE93",
"!L	c #DCCFBF",
"!M	c #DCD0BF",
"!N	c #DCD0C2",
"!O	c #DCD1C2",
"!P	c #DCD1C3",
"!Q	c #DCD2C3",
"!R	c #DDBA8A",
"!S	c #DDBA8B",
"!T	c #DDBA8C",
"!U	c #DDC099",
"!V	c #DDD1C0",
"!W	c #DDD1C2",
"!X	c #DDD1C3",
"!Y	c #DDD2C4",
"!Z	c #DEBB8C",
"![	c #DEBB8E",
"!]	c #DEBC8B",
"!^	c #DEC29C",
"!_	c #DED1C1",
"!`	c #DED4C6",
"!a	c #DED6CD",
"!b	c #DFBB8D",
"!c	c #DFBC8D",
"!d	c #DFBC8E",
"!e	c #DFBD8E",
"!f	c #DFBD8F",
"!g	c #DFBE90",
"!h	c #DFC097",
"!i	c #DFC298",
"!j	c #DFD2C4",
"!k	c #DFD4C1",
"!l	c #DFD8CE",
"!m	c #DFD9CE",
"!n	c #E0BD8F",
"!o	c #E0BE8F",
"!p	c #E0BE90",
"!q	c #E0C094",
"!r	c #E0D4C1",
"!s	c #E0D8CF",
"!t	c #E1BF91",
"!u	c #E1C192",
"!v	c #E1C294",
"!w	c #E1C296",
"!x	c #E1C299",
"!y	c #E1C399",
"!z	c #E1C59B",
"!{	c #E1D3C2",
"!|	c #E1D4C3",
"!}	c #E1D9D0",
"!~	c #E1D9D1",
"# 	c #E2BF90",
"#!	c #E2C08E",
"##	c #E2C091",
"#$	c #E2C192",
"#%	c #E2C193",
"#&	c #E2C194",
"#'	c #E2C293",
"#(	c #E2C294",
"#)	c #E2C498",
"#*	c #E2C8A0",
"#+	c #E2D3C3",
"#,	c #E3C192",
"#-	c #E3C193",
"#.	c #E3C194",
"#/	c #E3C294",
"#0	c #E3C295",
"#1	c #E3C297",
"#2	c #E3C298",
"#3	c #E3C395",
"#4	c #E3C396",
"#5	c #E3C496",
"#6	c #E3C79A",
"#7	c #E3D8CC",
"#8	c #E3DBD3",
"#9	c #E3DCD7",
"#:	c #E3DDD6",
"#;	c #E4C091",
"#<	c #E4C395",
"#=	c #E4C89C",
"#>	c #E4C99C",
"#?	c #E4CBAA",
"#@	c #E4CCAD",
"#A	c #E4CDA6",
"#B	c #E4D6C6",
"#C	c #E4D9D0",
"#D	c #E4DBD2",
"#E	c #E4DFD6",
"#F	c #E5C593",
"#G	c #E5C697",
"#H	c #E5CA9F",
"#I	c #E5CDAE",
"#J	c #E5D6C8",
"#K	c #E5D8C9",
"#L	c #E5DDD5",
"#M	c #E5DED9",
"#N	c #E6C292",
"#O	c #E6C798",
"#P	c #E6C899",
"#Q	c #E6C89B",
"#R	c #E6CEA7",
"#S	c #E6CFA9",
"#T	c #E6D2C2",
"#U	c #E6D4BC",
"#V	c #E6D5C1",
"#W	c #E6DDD3",
"#X	c #E6DED4",
"#Y	c #E6E0DA",
"#Z	c #E6E3DC",
"#[	c #E7C494",
"#]	c #E7C696",
"#^	c #E7C999",
"#_	c #E7CA9C",
"#`	c #E7CA9D",
"#a	c #E7CC9F",
"#b	c #E7D0A8",
"#c	c #E7D4C1",
"#d	c #E7D8C3",
"#e	c #E7DCCB",
"#f	c #E7DFDA",
"#g	c #E7E0D6",
"#h	c #E7E1DA",
"#i	c #E7E5DF",
"#j	c #E7E6E3",
"#k	c #E8C697",
"#l	c #E8C698",
"#m	c #E8C798",
"#n	c #E8C79A",
"#o	c #E8C899",
"#p	c #E8CB9E",
"#q	c #E8CC9E",
"#r	c #E8CCA3",
"#s	c #E8D0A3",
"#t	c #E8D3A9",
"#u	c #E8D3AA",
"#v	c #E8DBD0",
"#w	c #E8E1DA",
"#x	c #E9C796",
"#y	c #E9C798",
"#z	c #E9C898",
"#{	c #E9C995",
"#|	c #E9CC98",
"#}	c #E9CFA4",
"#~	c #E9D4A7",
"$ 	c #E9D6C2",
"$!	c #E9D8C0",
"$#	c #E9DAC4",
"$$	c #E9DACA",
"$%	c #E9DDCC",
"$&	c #E9E1D7",
"$'	c #E9E5DB",
"$(	c #E9E7E4",
"$)	c #EAC999",
"$*	c #EACC9B",
"$+	c #EACD9B",
"$,	c #EACFA4",
"$-	c #EAD1AB",
"$.	c #EAD7C6",
"$/	c #EAD7C8",
"$0	c #EAD8C6",
"$1	c #EADBC7",
"$2	c #EADECE",
"$3	c #EAE2D9",
"$4	c #EAE5E4",
"$5	c #EBC998",
"$6	c #EBC999",
"$7	c #EBCA9A",
"$8	c #EBCC96",
"$9	c #EBCC9B",
"$:	c #EBCD9B",
"$;	c #EBCE97",
"$<	c #EBD2A6",
"$=	c #EBD3A6",
"$>	c #EBD4AA",
"$?	c #EBD7C5",
"$@	c #EBDAC9",
"$A	c #EBDFCC",
"$B	c #EBDFCE",
"$C	c #EBE3D8",
"$D	c #EBE3D9",
"$E	c #EBE6DF",
"$F	c #EBE6E0",
"$G	c #ECCA97",
"$H	c #ECCA98",
"$I	c #ECCA99",
"$J	c #ECCB99",
"$K	c #ECCB9A",
"$L	c #ECCB9F",
"$M	c #ECD1AC",
"$N	c #ECD4A7",
"$O	c #ECD4A9",
"$P	c #ECD5B1",
"$Q	c #ECD6AA",
"$R	c #ECD6AB",
"$S	c #ECD7AB",
"$T	c #ECDAC9",
"$U	c #ECDECC",
"$V	c #ECE1D1",
"$W	c #ECE3DA",
"$X	c #ECE4D9",
"$Y	c #ECE4DA",
"$Z	c #ECE7DF",
"$[	c #ECE7E1",
"$]	c #EDCA98",
"$^	c #EDCB97",
"$_	c #EDCB98",
"$`	c #EDCC99",
"$a	c #EDCD97",
"$b	c #EDCD9B",
"$c	c #EDCE9C",
"$d	c #EDD29B",
"$e	c #EDD6AA",
"$f	c #EDD6AB",
"$g	c #EDD7AB",
"$h	c #EDD7AC",
"$i	c #EDD8AB",
"$j	c #EDD8AE",
"$k	c #EDD9AF",
"$l	c #EDDBCC",
"$m	c #EDDCCD",
"$n	c #EDDDCD",
"$o	c #EDDFCD",
"$p	c #EDE3DA",
"$q	c #EDE7E1",
"$r	c #EECF99",
"$s	c #EECF9E",
"$t	c #EED09B",
"$u	c #EED09C",
"$v	c #EED8AD",
"$w	c #EED9AC",
"$x	c #EED9AD",
"$y	c #EED9AE",
"$z	c #EED9AF",
"${	c #EEE3D4",
"$|	c #EEE7DD",
"$}	c #EEECE6",
"$~	c #EFD09C",
"% 	c #EFD2A0",
"%!	c #EFD49F",
"%#	c #EFDDB6",
"%$	c #EFE1D1",
"%%	c #EFE5D8",
"%&	c #EFEBE3",
"%'	c #F0D39D",
"%(	c #F0D49D",
"%)	c #F0D5A4",
"%*	c #F0DCC5",
"%+	c #F0E3D5",
"%,	c #F0E4D8",
"%-	c #F0E9E4",
"%.	c #F0EDE8",
"%/	c #F1D8A4",
"%0	c #F1DAC3",
"%1	c #F1E6DC",
"%2	c #F1EBEC",
"%3	c #F2D9A8",
"%4	c #F2DEB3",
"%5	c #F2E0B3",
"%6	c #F2E2C8",
"%7	c #F2E4D3",
"%8	c #F2E5D8",
"%9	c #F2E7D9",
"%:	c #F2EBE4",
"%;	c #F2EDEB",
"%<	c #F2EDED",
"%=	c #F2EEEA",
"%>	c #F2EFE9",
"%?	c #F2F0F0",
"%@	c #F2F0F2",
"%A	c #F3DEAC",
"%B	c #F3E0CE",
"%C	c #F3EDE4",
"%D	c #F3F0E8",
"%E	c #F4DBA8",
"%F	c #F4DBAF",
"%G	c #F4E3B9",
"%H	c #F4E9DF",
"%I	c #F4F0EE",
"%J	c #F5E6D4",
"%K	c #F5EDE0",
"%L	c #F5EEE5",
"%M	c #F5EEEB",
"%N	c #F5F0EA",
"%O	c #F5F0EB",
"%P	c #F5F0EF",
"%Q	c #F5F2EB",
"%R	c #F5F2EF",
"%S	c #F5F2F4",
"%T	c #F5F3F0",
"%U	c #F5F8FB",
"%V	c #F6EFE6",
"%W	c #F6F0E8",
"%X	c #F6F0E9",
"%Y	c #F6F1EC",
"%Z	c #F6F2F2",
"%[	c #F6F3F6",
"%]	c #F6F6F7",
"%^	c #F6F8FA",
"%_	c #F7EDE1",
"%`	c #F7EFE5",
"%a	c #F7EFE9",
"%b	c #F7F0E7",
"%c	c #F7F1EB",
"%d	c #F7F3EA",
"%e	c #F7F3F7",
"%f	c #F7F6F1",
"%g	c #F7F6F7",
"%h	c #F8F1E6",
"%i	c #F8F2EC",
"%j	c #F8F3EB",
"%k	c #F8F3F1",
"%l	c #F8F4F2",
"%m	c #F8F5FA",
"%n	c #F8F6F0",
"%o	c #F8F7F2",
"%p	c #F8F7FA",
"%q	c #F8F8F2",
"%r	c #F8F8F4",
"%s	c #F9ECE1",
"%t	c #F9F4ED",
"%u	c #F9F7F3",
"%v	c #F9F7F4",
"%w	c #F9F9F5",
"%x	c #F9F9FD",
"%y	c #F9FAFA",
"%z	c #F9FBFD",
"%{	c #FAF6EF",
"%|	c #FAF6F2",
"%}	c #FAF6F4",
"%~	c #FAF6F6",
"& 	c #FAF6F8",
"&!	c #FAF9FA",
"&#	c #FBF9F7",
"&$	c #FBFAFD",
"&%	c #FBFBFB",
"&&	c #FCF6F3",
"&'	c #FCF9F8",
"&(	c #FCF9FE",
"&)	c #FCFAF9",
"&*	c #FCFBFC",
"&+	c #FCFBFD",
"&,	c #FCFBFE",
"&-	c #FCFDFD",
"&.	c #FDF9FC",
"&/	c #FDFAF8",
"&0	c #FDFAFF",
"&1	c #FDFBF9",
"&2	c #FDFBFE",
"&3	c #FDFDFF",
"&4	c #FEFDFE",
"&5	c #FEFEFF",
"&6	c #FFFBFC",
"!k!r!{!|#+#J%H%_%6%F$u$8$;$t%)%4%G%5%A%/%#&&%7$J",
"!M!M!V!_!L!A%1%8$P%E$~$G$^$_$a$r%'%(%!$d#~&)%*#{",
"!O!O!Q!Y!C!#$p$V$-%3$s$I$I$]$_$`$b$:$+#|#R&5%B#O",
"!W!X!P!X!B!#$W$2$M% $c$7$6$H$I$J$K$6#z#F!z&3%J#^",
"!O!O!N!P!% t%-$U#r$*$9$)$)$5$5$5$)#x#[#!!h&0%s$L",
"!&!&!$!& n o%2$1#6#G#o#n#l#y#m#k#]#N#;!]!^&.%}%0",
" ` j a ] e#7%S$%!w# #<#1#.#%#(#0#-!o!p!J#@&6&,&!",
" Q 7 1 k#W%P%p%?#v#T$?$l$T$@$m$n$$#B#K#e%:&$&(&*",
" g s#C%M&#&*&-%z%e%@%x&4&4&2&+&%%y%^%U%^%]%[& %k",
"%~&'&1&/%|%L$##?#2!c$A%y$|!j!#!3!m#Z#j$(#i#M%=%X",
"%K%9$o$!#I!x!?!>!; ~#U%g!` S I L h z!(!7 z Z$E%d",
"#H#=!v!e!R!=!!!/!8! #c%m!4 T J M c y!D!6 q E#Y%{",
"#3#/!g!Z!G!-!-!-!* |$ %Z v U I L ^ m x!5!' Y#9%t",
"#,#$!e!R!:!+!+!.!) }$0%I p I I C X _ d i m 6#:%j",
"#4#&!f!H!-!+!+!9 {!0$/%; u H ; 6 C ? B B > .#E%a",
"!U!y!q!T!E!,!,!F!<!@$.%<!2 P 8 6 ? > : < 2 d$q%W",
" ' [#)!n!S!H!I![!e!K#V%T$4#f#8!l!a!~#L#w$F%.%u%n",
"   ,#P##!c!Z!b!t#/!i#d%o%r%q$}$'#h$[%D%>%R%v%w%f",
" ! )#>#%!o!d!p#4#Q#*$B%l#D r P H : K W V w%&%Q$Z",
" $ +#a#G#'!u#5#p$,#A${%Y!1 R = : > = @ 3 H$D%C!s",
" # *#s#q#_#`#}$O$>#S%%%O l G H > > A B 4 J$3%V!}",
" % -$=$<$N$f$j$v$R#b%,%N f F I > > 5 5 4 N$Y%b#g",
" & 0$Q$e$w$z$k$y$S#t%+%i b 9 I > ? 6 5 5 L$X%h$&",
" ( O$g$i$x$z$z$y$h#u%$%c b 9 ? ; ? 6 6 / D$C%`#X"};
