/* XPM */
static char *03[] = {
"24 24 508 2",
"  	c #7C644C",
" !	c #7E6544",
" #	c #7F654A",
" $	c #7F6645",
" %	c #7F664F",
" &	c #806549",
" '	c #826549",
" (	c #8F745B",
" )	c #A08464",
" *	c #A08567",
" +	c #A38562",
" ,	c #A38564",
" -	c #AE9172",
" .	c #AF997C",
" /	c #B8A78F",
" 0	c #BA9F7B",
" 1	c #C2A681",
" 2	c #CBC4BC",
" 3	c #CCC6BD",
" 4	c #CEC6BD",
" 5	c #CFC7BC",
" 6	c #D1C5B9",
" 7	c #D1C6BA",
" 8	c #D1C9BE",
" 9	c #D2C6BA",
" :	c #D2C6BC",
" ;	c #D2CBC2",
" <	c #D2CCC2",
" =	c #D2CDC6",
" >	c #D3B58E",
" ?	c #D3C9BD",
" @	c #D3C9BE",
" A	c #D3CBC2",
" B	c #D4C8B8",
" C	c #D4C8BA",
" D	c #D4C8BD",
" E	c #D4CDC5",
" F	c #D5C8BE",
" G	c #D5C9B9",
" H	c #D5C9BE",
" I	c #D5CABB",
" J	c #D5CBBB",
" K	c #D5CDC5",
" L	c #D5CEC4",
" M	c #D5CEC5",
" N	c #D6B385",
" O	c #D6B586",
" P	c #D6B68B",
" Q	c #D6B891",
" R	c #D6CABA",
" S	c #D6CBBB",
" T	c #D6CCBE",
" U	c #D6CEC5",
" V	c #D7B687",
" W	c #D7B688",
" X	c #D7CBBC",
" Y	c #D7CDBF",
" Z	c #D7D1C7",
" [	c #D7D4CC",
" ]	c #D8B58A",
" ^	c #D8BA94",
" _	c #D8CBBC",
" `	c #D8CCBD",
" a	c #D8CDBF",
" b	c #D8CEBF",
" c	c #D8CEC0",
" d	c #D8CEC1",
" e	c #D9CDBD",
" f	c #D9CDBE",
" g	c #D9CEBF",
" h	c #D9CFC1",
" i	c #D9CFC2",
" j	c #D9D2C9",
" k	c #D9D3C8",
" l	c #D9D3CA",
" m	c #D9D3CB",
" n	c #D9D5C8",
" o	c #DAB88B",
" p	c #DAB896",
" q	c #DAB98B",
" r	c #DABE9A",
" s	c #DACEBC",
" t	c #DACEC0",
" u	c #DAD0C2",
" v	c #DAD1C5",
" w	c #DBB789",
" x	c #DBBC91",
" y	c #DBBD91",
" z	c #DBCFBD",
" {	c #DBCFBF",
" |	c #DBD0C0",
" }	c #DBD0C1",
" ~	c #DBD0C2",
"! 	c #DBD1C2",
"!!	c #DBD1C3",
"!#	c #DBD2C4",
"!$	c #DBD3C8",
"!%	c #DBD5CD",
"!&	c #DCB989",
"!'	c #DCBA89",
"!(	c #DCBA8A",
"!)	c #DCD1C2",
"!*	c #DCD1C3",
"!+	c #DCD1C4",
"!,	c #DCD2C0",
"!-	c #DCD2C2",
"!.	c #DCD2C4",
"!/	c #DDB988",
"!0	c #DDBA89",
"!1	c #DDBA8A",
"!2	c #DDBB8C",
"!3	c #DDBC8D",
"!4	c #DDC5A5",
"!5	c #DDC6AA",
"!6	c #DDD0BD",
"!7	c #DDD1C2",
"!8	c #DDD1C5",
"!9	c #DDD2C3",
"!:	c #DDD2C4",
"!;	c #DDD3C5",
"!<	c #DDD4CB",
"!=	c #DDD8D1",
"!>	c #DEBA88",
"!?	c #DEBD8A",
"!@	c #DEBE8C",
"!A	c #DEBE8E",
"!B	c #DED3C4",
"!C	c #DED3C5",
"!D	c #DED4C4",
"!E	c #DED5CB",
"!F	c #DFBD8C",
"!G	c #DFBD90",
"!H	c #DFBF8F",
"!I	c #DFD1BD",
"!J	c #DFD2C1",
"!K	c #DFD3C2",
"!L	c #DFD4C4",
"!M	c #DFD5C5",
"!N	c #DFDBD4",
"!O	c #E0BB88",
"!P	c #E0BB8A",
"!Q	c #E0BD89",
"!R	c #E0BF91",
"!S	c #E0BF92",
"!T	c #E0C294",
"!U	c #E0C295",
"!V	c #E0C297",
"!W	c #E0C396",
"!X	c #E0D4C3",
"!Y	c #E0D4C5",
"!Z	c #E0D5C4",
"![	c #E0D5C5",
"!]	c #E0D6C6",
"!^	c #E0DAD3",
"!_	c #E0DDD6",
"!`	c #E1BD89",
"!a	c #E1BE8E",
"!b	c #E1C094",
"!c	c #E1C195",
"!d	c #E1C28F",
"!e	c #E1C295",
"!f	c #E1C296",
"!g	c #E1C390",
"!h	c #E1C492",
"!i	c #E1C496",
"!j	c #E1CBAE",
"!k	c #E1CEB7",
"!l	c #E1D4C1",
"!m	c #E1D5C4",
"!n	c #E1D5C5",
"!o	c #E1D5C7",
"!p	c #E1DBD3",
"!q	c #E1DBD4",
"!r	c #E1DCD4",
"!s	c #E2C28F",
"!t	c #E2C295",
"!u	c #E2C394",
"!v	c #E2C397",
"!w	c #E2C499",
"!x	c #E2CAAB",
"!y	c #E2CDB6",
"!z	c #E2DDD4",
"!{	c #E3C28B",
"!|	c #E3C396",
"!}	c #E3C398",
"!~	c #E3C69B",
"# 	c #E3C79B",
"#!	c #E3D6C4",
"##	c #E3DDD4",
"#$	c #E4C38E",
"#%	c #E4C497",
"#&	c #E4C499",
"#'	c #E4C599",
"#(	c #E4C99F",
"#)	c #E4D7C6",
"#*	c #E4D8C6",
"#+	c #E4DAD0",
"#,	c #E4DAD5",
"#-	c #E5C593",
"#.	c #E5C699",
"#/	c #E5C69A",
"#0	c #E5C798",
"#1	c #E5C79B",
"#2	c #E5C89F",
"#3	c #E5D9CE",
"#4	c #E5E0D8",
"#5	c #E5E0DA",
"#6	c #E6C797",
"#7	c #E6C798",
"#8	c #E6C79A",
"#9	c #E6C79B",
"#:	c #E6C79C",
"#;	c #E6C89E",
"#<	c #E6C99D",
"#=	c #E7C892",
"#>	c #E7C89B",
"#?	c #E7C89C",
"#@	c #E7C89E",
"#A	c #E7C99A",
"#B	c #E7C99B",
"#C	c #E7C99C",
"#D	c #E7CD9C",
"#E	c #E7D6C2",
"#F	c #E7DDD3",
"#G	c #E7E1D9",
"#H	c #E7E2DB",
"#I	c #E8C89D",
"#J	c #E8C89F",
"#K	c #E8C99B",
"#L	c #E8C99C",
"#M	c #E8C99E",
"#N	c #E8C99F",
"#O	c #E8CA99",
"#P	c #E8CA9C",
"#Q	c #E8CB9E",
"#R	c #E8CC9F",
"#S	c #E8D0B3",
"#T	c #E8D6BB",
"#U	c #E9C89D",
"#V	c #E9C99C",
"#W	c #E9C99D",
"#X	c #E9C99E",
"#Y	c #E9C9A1",
"#Z	c #E9CA9C",
"#[	c #E9CA9D",
"#]	c #E9CB9C",
"#^	c #E9D4B7",
"#_	c #E9D7BD",
"#`	c #E9DBBF",
"#a	c #EAC99B",
"#b	c #EACA96",
"#c	c #EACB9C",
"#d	c #EACB9F",
"#e	c #EACD9E",
"#f	c #EACE9E",
"#g	c #EACFA0",
"#h	c #EAD6AF",
"#i	c #EAE4DF",
"#j	c #EAE6E2",
"#k	c #EBC99A",
"#l	c #EBC99B",
"#m	c #EBCE9E",
"#n	c #EBCEAA",
"#o	c #EBD1A2",
"#p	c #EBD29E",
"#q	c #EBD3A4",
"#r	c #EBD4A0",
"#s	c #EBD7BD",
"#t	c #EBD9BB",
"#u	c #EBD9C0",
"#v	c #EBDBC6",
"#w	c #ECCB9D",
"#x	c #ECCFA0",
"#y	c #ECD29F",
"#z	c #ECD4A2",
"#{	c #ECDCBF",
"#|	c #ECDDC1",
"#}	c #ECE3DB",
"#~	c #EDC899",
"$ 	c #EDCF98",
"$!	c #EDD1A2",
"$#	c #EDD5A3",
"$$	c #EDD9BB",
"$%	c #EDDCC0",
"$&	c #EDDDBF",
"$'	c #EDDEC1",
"$(	c #EDDEC4",
"$)	c #EDDEC6",
"$*	c #EDE0C9",
"$+	c #EDE1C8",
"$,	c #EDE9E3",
"$-	c #EECEAB",
"$.	c #EED4A3",
"$/	c #EED5A3",
"$0	c #EEDCC1",
"$1	c #EEDEC0",
"$2	c #EEDEC4",
"$3	c #EEE1CD",
"$4	c #EEE9E2",
"$5	c #EFD399",
"$6	c #EFDEBB",
"$7	c #EFE0CD",
"$8	c #EFE1C8",
"$9	c #EFEAE5",
"$:	c #EFEDE7",
"$;	c #F0D9A6",
"$<	c #F0E1C4",
"$=	c #F0E3C6",
"$>	c #F0E3CE",
"$?	c #F1E1C2",
"$@	c #F1E4CF",
"$A	c #F1E5C8",
"$B	c #F1E7CA",
"$C	c #F1E7D5",
"$D	c #F1EBE4",
"$E	c #F1ECE8",
"$F	c #F2D79F",
"$G	c #F2DFAE",
"$H	c #F2E1C0",
"$I	c #F2E1C2",
"$J	c #F2E5CE",
"$K	c #F2E7CB",
"$L	c #F2E8D0",
"$M	c #F2E9D9",
"$N	c #F2EDE8",
"$O	c #F2F1F0",
"$P	c #F3E4D3",
"$Q	c #F3E7CC",
"$R	c #F3EADB",
"$S	c #F3EBDC",
"$T	c #F3EBE1",
"$U	c #F3EBE7",
"$V	c #F3ECE2",
"$W	c #F3EEE9",
"$X	c #F4DBA5",
"$Y	c #F4DDAB",
"$Z	c #F4E8D0",
"$[	c #F4E9CF",
"$]	c #F4E9D1",
"$^	c #F4E9D5",
"$_	c #F4E9D6",
"$`	c #F4E9D9",
"$a	c #F4EAD6",
"$b	c #F4EAD7",
"$c	c #F4EAD8",
"$d	c #F4EAD9",
"$e	c #F4EBD6",
"$f	c #F4EBD7",
"$g	c #F4ECD8",
"$h	c #F4ECDB",
"$i	c #F4ECDC",
"$j	c #F4EDE7",
"$k	c #F4EEE6",
"$l	c #F4EEE7",
"$m	c #F4F0EC",
"$n	c #F5DCA6",
"$o	c #F5E9D4",
"$p	c #F5EAD3",
"$q	c #F5EAD4",
"$r	c #F5EAD5",
"$s	c #F5EAD7",
"$t	c #F5EAD8",
"$u	c #F5EAD9",
"$v	c #F5EADA",
"$w	c #F5EBD7",
"$x	c #F5EBD8",
"$y	c #F5EBDA",
"$z	c #F5EBDB",
"${	c #F5EBDD",
"$|	c #F5ECD5",
"$}	c #F5ECD6",
"$~	c #F5ECD7",
"% 	c #F5ECD8",
"%!	c #F5ECDB",
"%#	c #F5ECE0",
"%$	c #F5EDDB",
"%%	c #F5EDE5",
"%&	c #F5F0E8",
"%'	c #F5F0EB",
"%(	c #F5F1EF",
"%)	c #F6EAD9",
"%*	c #F6EBD5",
"%+	c #F6EBD8",
"%,	c #F6EBDD",
"%-	c #F6ECD5",
"%.	c #F6ECD6",
"%/	c #F6ECD7",
"%0	c #F6ECD8",
"%1	c #F6ECE0",
"%2	c #F6ECE1",
"%3	c #F6EDD7",
"%4	c #F6EDD9",
"%5	c #F6EDDC",
"%6	c #F6EEDB",
"%7	c #F6EEDD",
"%8	c #F6EEE6",
"%9	c #F6EFDD",
"%:	c #F6EFE5",
"%;	c #F6F3F3",
"%<	c #F6F4F1",
"%=	c #F7EBD5",
"%>	c #F7EBD8",
"%?	c #F7ECD6",
"%@	c #F7ECD7",
"%A	c #F7ECD8",
"%B	c #F7EDD8",
"%C	c #F7EDD9",
"%D	c #F7EFE5",
"%E	c #F7F1DB",
"%F	c #F8EBD6",
"%G	c #F8EBD9",
"%H	c #F8ECD6",
"%I	c #F8F0DD",
"%J	c #F8F0E6",
"%K	c #F8F1DB",
"%L	c #F8F1E7",
"%M	c #F8F2E8",
"%N	c #F8F2E9",
"%O	c #F8F3E7",
"%P	c #F8F3EE",
"%Q	c #F8F4EB",
"%R	c #F8F4F2",
"%S	c #F8F4F4",
"%T	c #F8F5F1",
"%U	c #F8F5FA",
"%V	c #F8F6F6",
"%W	c #F8F9FF",
"%X	c #F9F1E6",
"%Y	c #F9F1E9",
"%Z	c #F9F1EC",
"%[	c #F9F2E6",
"%]	c #F9F3E6",
"%^	c #F9F3ED",
"%_	c #F9F4EB",
"%`	c #F9F5ED",
"%a	c #F9F5F1",
"%b	c #F9F5F2",
"%c	c #F9F6F1",
"%d	c #F9F6F3",
"%e	c #F9F6F7",
"%f	c #F9F8FB",
"%g	c #F9F8FE",
"%h	c #F9FCFD",
"%i	c #FAF4E2",
"%j	c #FAF4E8",
"%k	c #FAF4E9",
"%l	c #FAF4EA",
"%m	c #FAF4F0",
"%n	c #FAF5EA",
"%o	c #FAF5F0",
"%p	c #FAF6F3",
"%q	c #FAF6F7",
"%r	c #FAF7EF",
"%s	c #FAF7F6",
"%t	c #FAF7FA",
"%u	c #FAF7FB",
"%v	c #FAF8FA",
"%w	c #FAF9FF",
"%x	c #FAFAFE",
"%y	c #FAFAFF",
"%z	c #FBEFDC",
"%{	c #FBF0E1",
"%|	c #FBF1DB",
"%}	c #FBF1DC",
"%~	c #FBF2E7",
"& 	c #FBF4E0",
"&!	c #FBF6EB",
"&#	c #FBF6EE",
"&$	c #FBF6F5",
"&%	c #FBF6F9",
"&&	c #FBF7F6",
"&'	c #FBF7F8",
"&(	c #FBF7FC",
"&)	c #FBF7FD",
"&*	c #FBF8F7",
"&+	c #FBF8F9",
"&,	c #FBF8FD",
"&-	c #FBF9FC",
"&.	c #FBFBFD",
"&/	c #FBFBFE",
"&0	c #FCF1DC",
"&1	c #FCF6EC",
"&2	c #FCF6F4",
"&3	c #FCF7F4",
"&4	c #FCF7FB",
"&5	c #FCF8F6",
"&6	c #FCF8F7",
"&7	c #FCF8F8",
"&8	c #FCF8F9",
"&9	c #FCF8FA",
"&:	c #FCF8FB",
"&;	c #FCF9F8",
"&<	c #FCF9FD",
"&=	c #FDF9ED",
"&>	c #FDF9F4",
"&?	c #FDF9FC",
"&@	c #FDFAFE",
"&A	c #FDFBFE",
"&B	c #FDFCFF",
"&C	c #FEF7F6",
"&D	c #FEF9E8",
"&E	c #FEF9F7",
"&F	c #FEF9FC",
"&G	c #FEFAEA",
"&H	c #FEFBFD",
"&I	c #FFF8E7",
"&J	c #FFF9FC",
"&K	c #FFF9FE",
"#~#w#c#]#e#f#g#o#r$G%3%'$:$4#}#F#3!o!6!I!l#!#)#*",
"#k#l#V#Z#P#A#B#Q#R#D$%$D#4!E!8!+!* { s z!J!X!n!m",
"#a#V#U#W#>#.#8#?#C!T!y$W#i!<!+!.!:!-!,!K!Z!]!]!M",
"#L#[#X#I#?#.#/#/!t!3!5$,#5!$!.!.!:!9!B!L!Y![![!B",
"#V#d#Y#J#:#'!}!S w O!k$O!q v!!!#!;!;!C!D!D!D!B!7",
"$-#n#S#^!x r ^ Q >!4$E%h#j i d h u u ~! !) } | t",
"%p%<%;%V%f%g%w%y%W%x&.&/%v#+ T Y c b a g f e ` X",
"%o%M%J%X%Y%^%m%a%c%P%D%&&B$U _ C I J S R G B B G",
"${%)$u$u$`$d$y$y$g$f$Q$+&?%t#, @ : 9 6 7 D ? H F",
"$v$t$s$s$b$_$b$e$|%-$K#`&&&A%u%U%q%S%R%T%b%d%s&'",
"$z$t$s$w$w%+%0%B%3%3$B#t&C&2%I%i&D&G&I& %K%E$}$L",
"%!$s$t$x%+%+%A%A%0% $A$$&J%{$Y$n$X$;$/#y#p#z$##q",
"%!%+%+$x%+%+%+%+%0%0$=$0&K%z$F#=#$!s!d!g!h#O$!$.",
"$a%@%C%4%0%0%+%>%>%G$<$2&F&0$5!{!Q!?!?!@!H#6#m#x",
"$*$8$J$]$|%.%*%H%?%F$6#|&E%}$ !`!>!1!'!(!A#7#K!W",
"$>$+$)$'$&#{$1$?$I$H#h#{&>%|#b!O!/!&!&!(!R#0 y 0",
"$T$V$l$k%%%2%1${$R$M$C%:&*%=#-!P!0!&!&!2!b#8 1 (",
"$m%R&;&+&:&<&@&H&?&-&8&6&5$@!u!a!F!2!2!G!t#& - %",
"!z#H$9$N%(%e&%&4&)&,&(&9&7$3!i#%!|!e!c!v!w!V *  ",
" A l!r##!p#G$j%8%#%#%Z&$&3#T!U#9#<#2#;#@#:!~ ) #",
" ; m!N!_ [ n$S%.$Z$[%5%_%L!j x!f# #(#N#M#1#M , &",
" Z!%!^!= = k%$%/$p$p%7%l%O#E p ] V W q o N P + '",
" j M U L 3 E$h$~$q$r%9%j%k%[%,$P$7#v#u#_#s$( . $",
" K 4 5 8 2 <$i$c$^$o%6%]%n&!&1&#%r%`%Q%N%~&= / !"};
