/* XPM */
static char *04[] = {
"24 24 475 2",
"  	c #947754",
" !	c #997C58",
" #	c #9B805C",
" $	c #A0815E",
" %	c #A1825C",
" &	c #A38661",
" '	c #A48964",
" (	c #A58863",
" )	c #A68A65",
" *	c #A78C67",
" +	c #A78E71",
" ,	c #A88E69",
" -	c #A98F72",
" .	c #A9916C",
" /	c #A99371",
" 0	c #AA8B65",
" 1	c #AA8E6B",
" 2	c #AB8D65",
" 3	c #AB8E64",
" 4	c #AB9168",
" 5	c #AB9474",
" 6	c #AC8E65",
" 7	c #AC8E66",
" 8	c #AC8F66",
" 9	c #AC9375",
" :	c #AC9573",
" ;	c #AC9574",
" <	c #AD8F65",
" =	c #AD8F66",
" >	c #AD936B",
" ?	c #AD967B",
" @	c #AD9775",
" A	c #AE9166",
" B	c #AE9875",
" C	c #B0936B",
" D	c #B09977",
" E	c #B49271",
" F	c #B49A70",
" G	c #B5976F",
" H	c #B79D71",
" I	c #B79E71",
" J	c #B89C71",
" K	c #B89E70",
" L	c #B89F71",
" M	c #BA9E72",
" N	c #BBA072",
" O	c #BC9D73",
" P	c #BCA27C",
" Q	c #BEA585",
" R	c #BEA98D",
" S	c #BFA77D",
" T	c #C0A77E",
" U	c #C1A579",
" V	c #C3AA81",
" W	c #C5A071",
" X	c #C6A072",
" Y	c #C6AE86",
" Z	c #C7A073",
" [	c #C7B194",
" ]	c #C8AD7F",
" ^	c #C8B189",
" _	c #C9B188",
" `	c #C9B492",
" a	c #CAA274",
" b	c #CAAE83",
" c	c #CCAA7A",
" d	c #CCAA7F",
" e	c #CCB492",
" f	c #CDB084",
" g	c #CDB184",
" h	c #CDB59F",
" i	c #CEB185",
" j	c #CEB283",
" k	c #CEB88E",
" l	c #CFB085",
" m	c #CFB086",
" n	c #CFB285",
" o	c #CFB286",
" p	c #CFBFAF",
" q	c #D0AF88",
" r	c #D0B28A",
" s	c #D0B385",
" t	c #D0B589",
" u	c #D0B98E",
" v	c #D0BA94",
" w	c #D1B17F",
" x	c #D1B591",
" y	c #D2B489",
" z	c #D2BD92",
" {	c #D2BD94",
" |	c #D3B584",
" }	c #D3B58E",
" ~	c #D3BEA6",
"! 	c #D4B384",
"!!	c #D4BA8D",
"!#	c #D4BC8E",
"!$	c #D4BE93",
"!%	c #D5B587",
"!&	c #D5BD8E",
"!'	c #D5BE91",
"!(	c #D5BF90",
"!)	c #D6B886",
"!*	c #D6BB8E",
"!+	c #D6BFA0",
"!,	c #D7B888",
"!-	c #D7B986",
"!.	c #D7BB98",
"!/	c #D7BD8F",
"!0	c #D7BE90",
"!1	c #D7C192",
"!2	c #D7C193",
"!3	c #D8B68F",
"!4	c #D8B986",
"!5	c #D8B988",
"!6	c #D8B98C",
"!7	c #D9B787",
"!8	c #DABA8A",
"!9	c #DABA8C",
"!:	c #DABB87",
"!;	c #DABB8A",
"!<	c #DABF8E",
"!=	c #DABFA2",
"!>	c #DAC196",
"!?	c #DBBB8C",
"!@	c #DBBB8E",
"!A	c #DBBE8B",
"!B	c #DDBE93",
"!C	c #DEBF93",
"!D	c #DEC092",
"!E	c #DEC190",
"!F	c #DFBB86",
"!G	c #DFBF94",
"!H	c #DFC295",
"!I	c #DFCEB7",
"!J	c #E0C393",
"!K	c #E0C6A3",
"!L	c #E1C08D",
"!M	c #E1C396",
"!N	c #E1C496",
"!O	c #E1C595",
"!P	c #E2C392",
"!Q	c #E2C494",
"!R	c #E2C497",
"!S	c #E2C695",
"!T	c #E2C6A2",
"!U	c #E2C797",
"!V	c #E2C798",
"!W	c #E2C897",
"!X	c #E2C898",
"!Y	c #E3C594",
"!Z	c #E3C699",
"![	c #E3C897",
"!]	c #E4C795",
"!^	c #E4C796",
"!_	c #E4C896",
"!`	c #E4C898",
"!a	c #E4C996",
"!b	c #E4C999",
"!c	c #E4CA9A",
"!d	c #E4CAA0",
"!e	c #E4CB9A",
"!f	c #E4CCAB",
"!g	c #E5C796",
"!h	c #E5C999",
"!i	c #E5CA98",
"!j	c #E5CA9B",
"!k	c #E5CC9C",
"!l	c #E5D0B2",
"!m	c #E6C793",
"!n	c #E6C895",
"!o	c #E6C999",
"!p	c #E6C99A",
"!q	c #E6CA9A",
"!r	c #E6CA9B",
"!s	c #E6CA9C",
"!t	c #E6CB9A",
"!u	c #E6CB9B",
"!v	c #E6D4B7",
"!w	c #E7CA98",
"!x	c #E7CA99",
"!y	c #E7CA9A",
"!z	c #E7CA9B",
"!{	c #E7CB9A",
"!|	c #E7CC9B",
"!}	c #E7CC9C",
"!~	c #E7CD9D",
"# 	c #E7CE9A",
"#!	c #E7CF9D",
"##	c #E8CB9B",
"#$	c #E8CC9C",
"#%	c #E8CC9D",
"#&	c #E8CD9C",
"#'	c #E8CD9D",
"#(	c #E9CB97",
"#)	c #E9CB98",
"#*	c #E9CB99",
"#+	c #E9CE9E",
"#,	c #E9CFA0",
"#-	c #E9D09F",
"#.	c #E9D0A0",
"#/	c #E9D1A1",
"#0	c #E9D2B9",
"#1	c #EACE9C",
"#2	c #EACF9D",
"#3	c #EACF9E",
"#4	c #EAD09F",
"#5	c #EAD0A1",
"#6	c #EAD1A0",
"#7	c #EAD1A1",
"#8	c #EAD1A2",
"#9	c #EAD2A2",
"#:	c #EAD2B5",
"#;	c #EAD3A3",
"#<	c #EBCE9A",
"#=	c #EBD09F",
"#>	c #EBD0A0",
"#?	c #EBD0A1",
"#@	c #EBD0A2",
"#A	c #EBD1A1",
"#B	c #EBD1A2",
"#C	c #EBD1A3",
"#D	c #EBD1A4",
"#E	c #EBD2A1",
"#F	c #EBD2A2",
"#G	c #EBD2A3",
"#H	c #EBD3A3",
"#I	c #EBD4A5",
"#J	c #EBD4BE",
"#K	c #ECD0A0",
"#L	c #ECD1A2",
"#M	c #ECD2A0",
"#N	c #ECD2A2",
"#O	c #ECD2A4",
"#P	c #ECD2A5",
"#Q	c #ECD3A3",
"#R	c #ECD3A4",
"#S	c #ECD4A4",
"#T	c #ECD6A7",
"#U	c #ECD8BC",
"#V	c #EDD2A1",
"#W	c #EDD3A3",
"#X	c #EDD3A4",
"#Y	c #EDD4A3",
"#Z	c #EDD4A4",
"#[	c #EDD6A5",
"#]	c #EDDAC2",
"#^	c #EDDCC0",
"#_	c #EED4A2",
"#`	c #EED4A3",
"#a	c #EED4A4",
"#b	c #EED4A5",
"#c	c #EED5A4",
"#d	c #EED5A5",
"#e	c #EED9AA",
"#f	c #EED9AC",
"#g	c #EEDEC0",
"#h	c #EFD6A6",
"#i	c #EFD7A5",
"#j	c #EFD7A6",
"#k	c #EFD8A6",
"#l	c #EFD8A8",
"#m	c #EFD9A9",
"#n	c #EFDABB",
"#o	c #EFDBAC",
"#p	c #EFDCAF",
"#q	c #EFDFBF",
"#r	c #EFDFC4",
"#s	c #EFE0C4",
"#t	c #EFE1C6",
"#u	c #F0D8A8",
"#v	c #F0D9A8",
"#w	c #F0D9A9",
"#x	c #F0DAA9",
"#y	c #F0DAAE",
"#z	c #F0DBAB",
"#{	c #F0DEBE",
"#|	c #F0DECA",
"#}	c #F0DFBD",
"#~	c #F0DFBF",
"$ 	c #F0DFC0",
"$!	c #F0E0BD",
"$#	c #F0E0C4",
"$$	c #F0E0C6",
"$%	c #F0E1C6",
"$&	c #F0E1C7",
"$'	c #F0E2C6",
"$(	c #F0E3CA",
"$)	c #F1D6A5",
"$*	c #F1DAA9",
"$+	c #F1DBAD",
"$,	c #F1DCAB",
"$-	c #F1DCAD",
"$.	c #F1DFB1",
"$/	c #F1DFBF",
"$0	c #F1DFC2",
"$1	c #F1E0C3",
"$2	c #F1E0C4",
"$3	c #F1E0C5",
"$4	c #F1E1C7",
"$5	c #F1E1C8",
"$6	c #F1E2BE",
"$7	c #F1E2C8",
"$8	c #F1E2C9",
"$9	c #F1E2D1",
"$:	c #F1E3C7",
"$;	c #F1E3C8",
"$<	c #F1E3C9",
"$=	c #F1E3D1",
"$>	c #F2DAAA",
"$?	c #F2DBAA",
"$@	c #F2DCAB",
"$A	c #F2DCB0",
"$B	c #F2DDB1",
"$C	c #F2DEAD",
"$D	c #F2DEC1",
"$E	c #F2DFAE",
"$F	c #F2E1B1",
"$G	c #F2E1C4",
"$H	c #F2E1C5",
"$I	c #F2E1C6",
"$J	c #F2E2C6",
"$K	c #F2E2C7",
"$L	c #F2E2D5",
"$M	c #F2E3C9",
"$N	c #F2E3CA",
"$O	c #F2E3CB",
"$P	c #F2E4C9",
"$Q	c #F2E4CA",
"$R	c #F2E4CC",
"$S	c #F2E4CD",
"$T	c #F2E4CE",
"$U	c #F2E4D1",
"$V	c #F2E4D2",
"$W	c #F2E5CD",
"$X	c #F2E5D6",
"$Y	c #F2E6D6",
"$Z	c #F2E7D9",
"$[	c #F3DCB6",
"$]	c #F3DDAC",
"$^	c #F3DEAD",
"$_	c #F3DFAE",
"$`	c #F3DFAF",
"$a	c #F3DFB0",
"$b	c #F3E0AF",
"$c	c #F3E0B0",
"$d	c #F3E1AF",
"$e	c #F3E2BD",
"$f	c #F3E2C6",
"$g	c #F3E2D4",
"$h	c #F3E3C1",
"$i	c #F3E3C7",
"$j	c #F3E3C8",
"$k	c #F3E3C9",
"$l	c #F3E4C9",
"$m	c #F3E4CA",
"$n	c #F3E4CB",
"$o	c #F3E4D1",
"$p	c #F3E5C9",
"$q	c #F3E5CA",
"$r	c #F3E5CB",
"$s	c #F3E5CC",
"$t	c #F3E5CD",
"$u	c #F3E5CE",
"$v	c #F3E5CF",
"$w	c #F3E5D1",
"$x	c #F3E6D0",
"$y	c #F3E6D2",
"$z	c #F3E8D6",
"${	c #F3E8D7",
"$|	c #F3E9D7",
"$}	c #F3E9D9",
"$~	c #F3E9E2",
"% 	c #F3F0F1",
"%!	c #F4DEAE",
"%#	c #F4DFAE",
"%$	c #F4E1B1",
"%%	c #F4E5CB",
"%&	c #F4E5CC",
"%'	c #F4E5CD",
"%(	c #F4E9D7",
"%)	c #F4EBDF",
"%*	c #F5DAA9",
"%+	c #F5E0AE",
"%,	c #F5E1B1",
"%-	c #F5E1C7",
"%.	c #F5E2B0",
"%/	c #F5E3B3",
"%0	c #F5E6CF",
"%1	c #F5E8D6",
"%2	c #F5E9DA",
"%3	c #F5ECEA",
"%4	c #F6DEAC",
"%5	c #F6DFAF",
"%6	c #F6E2B1",
"%7	c #F6E2B3",
"%8	c #F6E3B2",
"%9	c #F6E3B3",
"%:	c #F6E3C6",
"%;	c #F6E9E1",
"%<	c #F6EAD8",
"%=	c #F6EEE3",
"%>	c #F6EEE5",
"%?	c #F6EFE2",
"%@	c #F7E4B4",
"%A	c #F7E5CF",
"%B	c #F7EDE7",
"%C	c #F7EDEB",
"%D	c #F7EEEA",
"%E	c #F7F6F5",
"%F	c #F8EBDF",
"%G	c #F8F0E8",
"%H	c #F8F1F1",
"%I	c #F8F4ED",
"%J	c #F8F5EE",
"%K	c #F8F5F5",
"%L	c #F8F6F9",
"%M	c #F8F7F8",
"%N	c #F8F8F7",
"%O	c #F8FAFD",
"%P	c #F9EBD8",
"%Q	c #F9F1ED",
"%R	c #F9F1F2",
"%S	c #F9F2F5",
"%T	c #F9F3ED",
"%U	c #F9F4ED",
"%V	c #F9F5F4",
"%W	c #F9F9F6",
"%X	c #FAEBD9",
"%Y	c #FAF0E9",
"%Z	c #FAF1E7",
"%[	c #FAF2ED",
"%]	c #FAF3E4",
"%^	c #FAF3E9",
"%_	c #FAF3EA",
"%`	c #FAF3EB",
"%a	c #FAF3ED",
"%b	c #FAF3EF",
"%c	c #FAF5EE",
"%d	c #FAF6EF",
"%e	c #FBEFF0",
"%f	c #FBF1E3",
"%g	c #FBF3F2",
"%h	c #FBF4EC",
"%i	c #FBF5EC",
"%j	c #FBF5EE",
"%k	c #FBF5F0",
"%l	c #FBF6ED",
"%m	c #FBF6F5",
"%n	c #FBF6F9",
"%o	c #FBF7F1",
"%p	c #FBF7F3",
"%q	c #FBF8F3",
"%r	c #FBF8F9",
"%s	c #FBF9FC",
"%t	c #FCF1E6",
"%u	c #FCF3E7",
"%v	c #FCF3EB",
"%w	c #FCF4F2",
"%x	c #FCF5F6",
"%y	c #FCF6F3",
"%z	c #FCF6F6",
"%{	c #FCF8F9",
"%|	c #FCF9F4",
"%}	c #FCFCFA",
"%~	c #FDF6F0",
"& 	c #FDF7F5",
"&!	c #FDF7F7",
"&#	c #FDFCFA",
"&$	c #FDFCFC",
"&%	c #FDFDFC",
"&&	c #FDFDFD",
"&'	c #FDFEFD",
"&(	c #FEF5E7",
"&)	c #FEFDFB",
"&*	c #FFFAFC",
"   ! & ' ) ( ) > F H I L K N M J G C 0 % $ 1 ; ?",
" # * P S T V _ u!'!1!2!(!#!&!0!/!! t b O E h ~ [",
" , Y#p$F$a$`$d%.%6%6%.$_$^$?#u#h#X#@#/ | q%t&($[",
" . ^$.%$$b$E$E%!%#%+%#$^$]$>#j#Z#A#%!U c l%u%X#b",
" : k%7%,$`$,#x#l#w$?$@$*#v#j#W#E#-!j!D w!*%v%A#<",
" B!$%@%$$C#T#H#8#;#[#h#d#c#W#B#A#.!k!H!-!>%Y%-#(",
" D z%8$c#z#I#9#7#7#Q#d#a#`#W#L#A#6!~!R!;!<%F%:#*",
" @ {%/$a#m#G#B#E#F#N#W#W#W#N#>#4#+!r!M!8!5$g#n!m",
" 5 v%9$+#S#?#7#G#G#G#G#C#B#A#+!|!`!H!B!9! $L#:!L",
" 9 e$A#R#,#5#5#O#P#O#D#C#B#?#'!h!N!C!G!?!%%;#0!F",
" - Q!d!Z!Q!P!Y!O!J!^!S!E!A!:!4!)!,!6!@!7 y%3$~#J",
" + R!v!l!f!K!T!3 X W Z a d x!+!=!. } r m!I%O&'&#",
" / p&$&*%n%S%R%e%C%D%B%=%^%h%~%y%m%H% %E&%%}%J%1",
" 4 `%]%|%q%d%o%i%f%P%Z%c%U%a%a%a%[%T%`%_%?$|$S$I",
" 8 U$B#}$!$6$h$e#y#d$u%j%>%($y$x$v$T$R$W$($($P$k",
" = ]%5$-#o#f#e#Y#2#!$=%x$w$J$N$Q$Q$Q$Q$q$<$;$p$q",
" A j%4#k#i#Y#M#1#)# $z%g$8$i$l$q$q$r%%%&$q$Q$m$q",
" A s%*#_#M#3!|!w!n!i$}%Q$5$K$m$r$s$s%&%'$s$n$M$7",
" < s$)#3#&!}!{!w!]!a${%Q$4$J$m$n$r$s$s$t$R$O$M$:",
" 3 n#V#$!|!r!q!o!_!_$X%b$H$G$j$j$M$M$k$k$<$&#t$'",
" 2 f#3!{!y!q!p!p![!X$9%w$f$0$1$2$2$G$2$3$%#s#r#s",
" 6 i#=##!z!r!p!q!b!V#|%z%0$D$/$ #{#~#q#g#^$#%<%l",
" 6 o#K!x!r!r!r!t!c!X#]%{%G%2$o$U$U$V$Y$Z%)%I&&&)",
" 7 g#3!g!`!s!r!u!e!W#U&!%k%p%W%N%M%L%r& %V%s%K$$"};
