/* XPM */
static char *05[] = {
"24 24 451 2",
"  	c #AB9374",
" !	c #AC906E",
" #	c #AC9474",
" $	c #AC9476",
" %	c #AD9371",
" &	c #AD9677",
" '	c #AD967D",
" (	c #AD9777",
" )	c #AD977C",
" *	c #AD977D",
" +	c #AE9575",
" ,	c #AE9675",
" -	c #AE977A",
" .	c #AE977D",
" /	c #AE997E",
" 0	c #AF9679",
" 1	c #AF987D",
" 2	c #AF997D",
" 3	c #B09A7E",
" 4	c #B29A7D",
" 5	c #B29A7E",
" 6	c #C4BAA4",
" 7	c #C5BAA7",
" 8	c #C6BCA5",
" 9	c #C6BDA5",
" :	c #C7BAA6",
" ;	c #C7BFA8",
" <	c #C8BAA4",
" =	c #CAB38E",
" >	c #CABCAD",
" ?	c #CBBDA5",
" @	c #CCB48A",
" A	c #CCB48D",
" B	c #CCBFAB",
" C	c #CCC2AC",
" D	c #CDB68F",
" E	c #CDB78D",
" F	c #CDB88F",
" G	c #CDB890",
" H	c #CDB991",
" I	c #CDBEB4",
" J	c #CEB78E",
" K	c #CEB891",
" L	c #CEB990",
" M	c #CEBA93",
" N	c #CEBB90",
" O	c #CEBB94",
" P	c #CEBC94",
" Q	c #CFBA91",
" R	c #CFBC95",
" S	c #CFBD92",
" T	c #D0BA90",
" U	c #D0BD96",
" V	c #D0BE94",
" W	c #D0BE95",
" X	c #D0BF95",
" Y	c #D1BB93",
" Z	c #D2C4B6",
" [	c #D2C8B3",
" ]	c #D8B98C",
" ^	c #D9B787",
" _	c #DBB989",
" `	c #DBD2C2",
" a	c #DCB887",
" b	c #DCBE92",
" c	c #DCD5CE",
" d	c #DDBC8C",
" e	c #DDBD8F",
" f	c #DDBE93",
" g	c #DDC094",
" h	c #DDC29A",
" i	c #DEBB8A",
" j	c #DEBB8B",
" k	c #DEBB8C",
" l	c #DEBE8D",
" m	c #DEBF92",
" n	c #DEC194",
" o	c #DEC195",
" p	c #DFBA88",
" q	c #DFBE8E",
" r	c #DFC094",
" s	c #DFC296",
" t	c #E0C297",
" u	c #E0DBD0",
" v	c #E1BE8C",
" w	c #E1BF8D",
" x	c #E1C08F",
" y	c #E1C090",
" z	c #E1C190",
" {	c #E1C194",
" |	c #E1C28F",
" }	c #E2C08E",
" ~	c #E2C190",
"! 	c #E2C191",
"!!	c #E2C290",
"!#	c #E2C291",
"!$	c #E2C396",
"!%	c #E2C591",
"!&	c #E2C592",
"!'	c #E2C69D",
"!(	c #E2C9A0",
"!)	c #E2C9A8",
"!*	c #E3C191",
"!+	c #E3C291",
"!,	c #E3C292",
"!-	c #E3C391",
"!.	c #E3C392",
"!/	c #E3C396",
"!0	c #E3C493",
"!1	c #E3C496",
"!2	c #E3C593",
"!3	c #E3C59B",
"!4	c #E3C79E",
"!5	c #E3CFA5",
"!6	c #E3E0D9",
"!7	c #E3E0DA",
"!8	c #E4C392",
"!9	c #E4C393",
"!:	c #E4C491",
"!;	c #E4C492",
"!<	c #E4C493",
"!=	c #E4C494",
"!>	c #E4C592",
"!?	c #E4C594",
"!@	c #E4C693",
"!A	c #E4C696",
"!B	c #E4C698",
"!C	c #E4C794",
"!D	c #E4CFB6",
"!E	c #E5C492",
"!F	c #E5C493",
"!G	c #E5C593",
"!H	c #E5C594",
"!I	c #E5C595",
"!J	c #E5C692",
"!K	c #E5C693",
"!L	c #E5C694",
"!M	c #E5C695",
"!N	c #E5C696",
"!O	c #E5C697",
"!P	c #E5C698",
"!Q	c #E5C799",
"!R	c #E5DED9",
"!S	c #E5DFDA",
"!T	c #E6C592",
"!U	c #E6C593",
"!V	c #E6C694",
"!W	c #E6C695",
"!X	c #E6C795",
"!Y	c #E6C796",
"!Z	c #E6C896",
"![	c #E6D0BB",
"!]	c #E6D1BE",
"!^	c #E6D2A8",
"!_	c #E6D2BE",
"!`	c #E6E0DA",
"!a	c #E6E1DA",
"!b	c #E6E1DB",
"!c	c #E6E1DC",
"!d	c #E6E2DA",
"!e	c #E6E2DC",
"!f	c #E6E2DD",
"!g	c #E6E5DD",
"!h	c #E7C695",
"!i	c #E7C798",
"!j	c #E7C895",
"!k	c #E7C896",
"!l	c #E7C898",
"!m	c #E7C996",
"!n	c #E7C997",
"!o	c #E7C999",
"!p	c #E7C99C",
"!q	c #E7CA98",
"!r	c #E7CFBB",
"!s	c #E7DED4",
"!t	c #E7E0DA",
"!u	c #E7E1DA",
"!v	c #E7E1DB",
"!w	c #E7E1DC",
"!x	c #E7E1DD",
"!y	c #E7E2D7",
"!z	c #E7E2DD",
"!{	c #E7E2DE",
"!|	c #E7E3DD",
"!}	c #E7E4DD",
"!~	c #E7E4DE",
"# 	c #E8C796",
"#!	c #E8C895",
"##	c #E8C899",
"#$	c #E8C89A",
"#%	c #E8C995",
"#&	c #E8C997",
"#'	c #E8C998",
"#(	c #E8C999",
"#)	c #E8C99B",
"#*	c #E8C99C",
"#+	c #E8CA96",
"#,	c #E8CA97",
"#-	c #E8CA98",
"#.	c #E8CA99",
"#/	c #E8CA9B",
"#0	c #E8CB98",
"#1	c #E8CB99",
"#2	c #E8CB9D",
"#3	c #E8D3B4",
"#4	c #E8D4C0",
"#5	c #E8E0D8",
"#6	c #E8E0D9",
"#7	c #E8E0DB",
"#8	c #E8E0DC",
"#9	c #E8E1DB",
"#:	c #E8E1DE",
"#;	c #E8E2DA",
"#<	c #E8E2DB",
"#=	c #E8E2DD",
"#>	c #E8E3D3",
"#?	c #E9C998",
"#@	c #E9CA98",
"#A	c #E9CA99",
"#B	c #E9CA9A",
"#C	c #E9CA9E",
"#D	c #E9CB99",
"#E	c #E9CC99",
"#F	c #E9CD9A",
"#G	c #E9CD9B",
"#H	c #E9CE9A",
"#I	c #E9CE9B",
"#J	c #E9D09E",
"#K	c #E9E1DB",
"#L	c #E9E2DA",
"#M	c #E9E2DC",
"#N	c #E9E3DD",
"#O	c #E9E4DF",
"#P	c #EACE9E",
"#Q	c #EADED2",
"#R	c #EAE3DB",
"#S	c #EAE3DF",
"#T	c #EAE7E3",
"#U	c #EBCF9B",
"#V	c #EBD1A7",
"#W	c #EBD29E",
"#X	c #EBD8C5",
"#Y	c #EBE6E3",
"#Z	c #ECCF9A",
"#[	c #ECD2A2",
"#]	c #ECD3A0",
"#^	c #ECDAC6",
"#_	c #ECDFC4",
"#`	c #ECE1D8",
"#a	c #ECE4DD",
"#b	c #EDD09F",
"#c	c #EDDAC3",
"#d	c #EDDDC4",
"#e	c #EDDFC2",
"#f	c #EDE2CA",
"#g	c #EDE2CC",
"#h	c #EED09D",
"#i	c #EEDCCB",
"#j	c #EEDCCC",
"#k	c #EEDEBE",
"#l	c #EEDEC5",
"#m	c #EEDECE",
"#n	c #EEDFC1",
"#o	c #EEDFC2",
"#p	c #EEDFC3",
"#q	c #EEDFC6",
"#r	c #EEDFC7",
"#s	c #EEE0C3",
"#t	c #EEE0C4",
"#u	c #EEE2CD",
"#v	c #EEE7E6",
"#w	c #EEECE5",
"#x	c #EFD19E",
"#y	c #EFD3A4",
"#z	c #EFD7B0",
"#{	c #EFDCCB",
"#|	c #EFDECD",
"#}	c #EFDFC0",
"#~	c #EFDFC3",
"$ 	c #EFE0C1",
"$!	c #EFE0C2",
"$#	c #EFE0C3",
"$$	c #EFE0C5",
"$%	c #EFE1C5",
"$&	c #EFE9E6",
"$'	c #EFECEA",
"$(	c #F0DCA9",
"$)	c #F0DEAE",
"$*	c #F0DFC0",
"$+	c #F0E0C3",
"$,	c #F0E0C4",
"$-	c #F0E0C5",
"$.	c #F0E1C2",
"$/	c #F0E1C4",
"$0	c #F0E1C5",
"$1	c #F0E1C6",
"$2	c #F0E2C4",
"$3	c #F0E2C6",
"$4	c #F0E6D0",
"$5	c #F0EBE9",
"$6	c #F1D5A4",
"$7	c #F1D6A4",
"$8	c #F1D8A7",
"$9	c #F1DAA9",
"$:	c #F1DDA9",
"$;	c #F1E0C4",
"$<	c #F1E0C5",
"$=	c #F1E1C5",
"$>	c #F1E1C6",
"$?	c #F1E2C4",
"$@	c #F1E2C5",
"$A	c #F1E2C6",
"$B	c #F1E2C7",
"$C	c #F1E3C8",
"$D	c #F1EBE8",
"$E	c #F1ECEA",
"$F	c #F1EDEB",
"$G	c #F2D9A9",
"$H	c #F2DAA9",
"$I	c #F2E0C5",
"$J	c #F2E0C6",
"$K	c #F2E2C8",
"$L	c #F2E3C9",
"$M	c #F2EDEB",
"$N	c #F3DCB0",
"$O	c #F3DEA6",
"$P	c #F3E1C8",
"$Q	c #F3E3C8",
"$R	c #F3E4CA",
"$S	c #F3E5CA",
"$T	c #F3EEEE",
"$U	c #F4DFAC",
"$V	c #F4E0AD",
"$W	c #F4E1AC",
"$X	c #F4E9BF",
"$Y	c #F4EDEC",
"$Z	c #F4F1EC",
"$[	c #F4F1F2",
"$]	c #F4F2EA",
"$^	c #F4F2F0",
"$_	c #F4F3EB",
"$`	c #F5DDB7",
"$a	c #F5DFA6",
"$b	c #F5E0AD",
"$c	c #F5E3BF",
"$d	c #F5E6D0",
"$e	c #F5F1F1",
"$f	c #F5F2F1",
"$g	c #F5F2F3",
"$h	c #F6DFA5",
"$i	c #F6E0A7",
"$j	c #F6E1AE",
"$k	c #F6EFEE",
"$l	c #F6F0EB",
"$m	c #F6F1EA",
"$n	c #F6F2ED",
"$o	c #F6F4F4",
"$p	c #F6F5F1",
"$q	c #F7E2AE",
"$r	c #F7EAD8",
"$s	c #F7F2F1",
"$t	c #F7F3F4",
"$u	c #F7F3F5",
"$v	c #F7F4F9",
"$w	c #F8E3B0",
"$x	c #F8E4AF",
"$y	c #F8E5AC",
"$z	c #F8E5B1",
"${	c #F8E9CA",
"$|	c #F8F2F7",
"$}	c #F8F4F4",
"$~	c #F8F4F6",
"% 	c #F8F7F6",
"%!	c #F9E8B3",
"%#	c #F9F1F4",
"%$	c #F9F4EA",
"%%	c #F9F4F3",
"%&	c #F9F5F4",
"%'	c #F9F5F6",
"%(	c #F9F5F7",
"%)	c #F9F5F8",
"%*	c #F9F6FC",
"%+	c #F9F6FD",
"%,	c #F9F9F7",
"%-	c #F9FAF9",
"%.	c #F9FAFD",
"%/	c #FAE9B5",
"%0	c #FAEAB3",
"%1	c #FAEBB4",
"%2	c #FAECB6",
"%3	c #FAF1DF",
"%4	c #FAF4EC",
"%5	c #FAF4EE",
"%6	c #FAF4F4",
"%7	c #FAF5F3",
"%8	c #FAF7F2",
"%9	c #FAF7F9",
"%:	c #FAF7FA",
"%;	c #FAF8FB",
"%<	c #FAF9F8",
"%=	c #FAF9FE",
"%>	c #FAFAF7",
"%?	c #FAFAFC",
"%@	c #FBE9B2",
"%A	c #FBEBB5",
"%B	c #FBF3E0",
"%C	c #FBF3EF",
"%D	c #FBF5E5",
"%E	c #FBF5F7",
"%F	c #FBF6F2",
"%G	c #FBF6F6",
"%H	c #FBF7F6",
"%I	c #FBF8F8",
"%J	c #FBFAF8",
"%K	c #FBFAF9",
"%L	c #FCF0DB",
"%M	c #FCF1DE",
"%N	c #FCF5E3",
"%O	c #FCF6EB",
"%P	c #FCF8FA",
"%Q	c #FCF8FB",
"%R	c #FCF9FB",
"%S	c #FCF9FC",
"%T	c #FCFBFB",
"%U	c #FDF5E5",
"%V	c #FDF6E6",
"%W	c #FDF7F6",
"%X	c #FDF8F9",
"%Y	c #FDF9F7",
"%Z	c #FDF9FB",
"%[	c #FDFAF7",
"%]	c #FDFAF8",
"%^	c #FDFBF2",
"%_	c #FDFBFE",
"%`	c #FDFDFF",
"%a	c #FEF6E7",
"%b	c #FEF8FA",
"%c	c #FEFBFB",
"%d	c #FEFCFA",
"%e	c #FEFCFD",
"%f	c #FEFEFE",
"%g	c #FFF9FA",
"%h	c #FFF9FB",
"%i	c #FFFAF2",
"%j	c #FFFAFA",
"%k	c #FFFCF9",
"%l	c #FFFCFC",
"%m	c #FFFCFF",
"%n	c #FFFEFD",
"%o	c #FFFEFE",
"%p	c #FFFFFF",
" * ' ) . / 2 1 2 3 5 4 - & ( , , #   $ 0 0 + % !",
" = A D E L K H M P O R U W X V S N F G Q Y T J @",
"$O$h$a$i$y%@%0%A%2%1%/%/%!$z$w$x$x$q$j$b$W$V$U$:",
"#Z#%!G!V#+#U#W#]#J!o!N!?!?!H!W!Z#-#D#F#G#G#I#I#H",
"#!!T!8!8!H!X!M!W!I!8!+!#!-!;!G!Y#&#'#A#D#1#1#E#0",
"!h!E!8!9!<!<!8!8!8!+!!!+!:!V!k#?#@#@#@#.#-#.#-#-",
"# !G!<!=!=!.!.!,!+!+!+!+!F!k#&#@#A#A#A#A#.#.#A#A",
"!U!E!0!=!9!+!+!#! !*!+!8!L#&#-#@#A#B#B#B#.#.#B#B",
" v w x! !,!  y x } } ~!-!G!Z!n!q#.#A#A#.#.#.#.#.",
" p a ^ _ d l d j i k q z!>!j!m#&#,#&#-#@#-#-#,#&",
"!r![!]!_#4#X#^#c#3 h ] d |!J!L!C!K!@!?!2!%!&!%!%",
"%J%F%C%4%5%I%Z%K%>$m#Q!D!)!(!'!4!3 t f b g o s n",
"$P$J$$#t#p$4$p%-%,%<%?%.%=%+$|%)%($~%&%W%j%g%h%b",
"$I$<#~#o#e#q$n%-$^$E$D$M$T$g$t%;%S%Q%c%k%i%a%M%L",
"$Q$>$,$/$!#l%8% #Y#8#7#9#<#L#6#N$}%'$l$d$`$6#h#x",
"$R$K$-$-$##d%H$o!{!S!`!`!a!d!y [#a%%$r$N#b#&!i!l",
"$S$L$>$1$##r%T$[!b!`!v!b!e!}!g C#5%G${$8#P#(###$",
"$C$B$=$0#s#f%`$e!u!t!w!x!f!|!c 7#S%X$c#[#2#/#*#C",
"$B$A$;$+#n#g%f$f#;#K#=!z!z!~!7 8#T%E#z#/#)#)!p!p",
"$?$.$*$ #k#_%:$Z#>#R#N!z!z#O c 6$'%6#V!Y!O!P!Q!B",
"$%$@$2$3#}#u%*$F ` u!6!f#M!s Z 9$5$s!^!A!1!$!/ {",
"%[%d%k%k%]%_%m%n$& I > B ? < : ;#v$k!5!2 { r m e",
"%O%U%V%V%N%B%3%D%^$Y#:!R#<#w$]$_%R$v#`#j#{#i#|#m",
"#y$7$H$G$9$9$($)$X%$%P%m%p%p%o%l%Y%7%#$u%9%R%e%e"};
