/* XPM */
static char *06[] = {
"24 24 500 2",
"  	c #A88C6A",
" !	c #AA8A60",
" #	c #AB8B60",
" $	c #AB8C68",
" %	c #AB9171",
" &	c #AC8B64",
" '	c #AC8C62",
" (	c #AD8D62",
" )	c #AD8F67",
" *	c #AD8F6E",
" +	c #AE916E",
" ,	c #AF8F64",
" -	c #B09065",
" .	c #B09066",
" /	c #B0916E",
" 0	c #B09475",
" 1	c #B2946F",
" 2	c #B29670",
" 3	c #B2987B",
" 4	c #B39973",
" 5	c #B59D7C",
" 6	c #B59E7F",
" 7	c #B6A082",
" 8	c #BAA284",
" 9	c #BEA27A",
" :	c #C6A67C",
" ;	c #C6A67D",
" <	c #C7AF86",
" =	c #C8AE82",
" >	c #C8AE83",
" ?	c #C9AF84",
" @	c #CAB190",
" A	c #CAB38A",
" B	c #CAB6A1",
" C	c #CBB083",
" D	c #CBB286",
" E	c #CBB389",
" F	c #CCB389",
" G	c #CDB588",
" H	c #CDB99E",
" I	c #CDBAA4",
" J	c #CEB486",
" K	c #CEB890",
" L	c #CEB995",
" M	c #CFAE85",
" N	c #CFB58B",
" O	c #CFB68A",
" P	c #CFB789",
" Q	c #CFB88B",
" R	c #D0B080",
" S	c #D1B082",
" T	c #D1BC95",
" U	c #D2BB8E",
" V	c #D3B687",
" W	c #D4B488",
" X	c #D6B78C",
" Y	c #D7B58A",
" Z	c #DAB88A",
" [	c #DABA91",
" ]	c #DABA92",
" ^	c #DABB8D",
" _	c #DABC8E",
" `	c #DABD92",
" a	c #DAC29D",
" b	c #DBB98A",
" c	c #DBBC8A",
" d	c #DBBC8B",
" e	c #DBBD8E",
" f	c #DBBD9B",
" g	c #DBBE8C",
" h	c #DBBF9E",
" i	c #DBC096",
" j	c #DBC09A",
" k	c #DBC292",
" l	c #DCB988",
" m	c #DCBA8A",
" n	c #DCBA8B",
" o	c #DCBE8B",
" p	c #DCBE95",
" q	c #DDB98B",
" r	c #DDBA85",
" s	c #DDBA8C",
" t	c #DDBC8F",
" u	c #DDBD8B",
" v	c #DDC09D",
" w	c #DDC194",
" x	c #DEB886",
" y	c #DEBA88",
" z	c #DEBB89",
" {	c #DEBC88",
" |	c #DEBC89",
" }	c #DEBD8C",
" ~	c #DEBE8D",
"! 	c #DEBF8D",
"!!	c #DEBF93",
"!#	c #DEC08F",
"!$	c #DEC193",
"!%	c #DEC199",
"!&	c #DEC19E",
"!'	c #DEC3A3",
"!(	c #DFB986",
"!)	c #DFBA86",
"!*	c #DFBA87",
"!+	c #DFBB85",
"!,	c #DFBB86",
"!-	c #DFBB88",
"!.	c #DFBB89",
"!/	c #DFC091",
"!0	c #DFC297",
"!1	c #DFC29E",
"!2	c #DFC498",
"!3	c #DFC7A5",
"!4	c #E0B986",
"!5	c #E0BA85",
"!6	c #E0BA86",
"!7	c #E0BB86",
"!8	c #E0BB87",
"!9	c #E0BB88",
"!:	c #E0BC87",
"!;	c #E0BC89",
"!<	c #E0BC8A",
"!=	c #E0C8A2",
"!>	c #E1BC87",
"!?	c #E1BE8B",
"!@	c #E1BE8C",
"!A	c #E1BE8D",
"!B	c #E1BF8E",
"!C	c #E1BF95",
"!D	c #E1C193",
"!E	c #E1C291",
"!F	c #E1C294",
"!G	c #E1C596",
"!H	c #E1C7A4",
"!I	c #E2BE8C",
"!J	c #E2BF8C",
"!K	c #E2BF8D",
"!L	c #E2BF8E",
"!M	c #E2C08C",
"!N	c #E2C08E",
"!O	c #E2C08F",
"!P	c #E2C392",
"!Q	c #E2C397",
"!R	c #E2C69E",
"!S	c #E2CAA3",
"!T	c #E2CEB3",
"!U	c #E3C08E",
"!V	c #E3C08F",
"!W	c #E3C093",
"!X	c #E3C095",
"!Y	c #E3C18E",
"!Z	c #E3C18F",
"![	c #E3C190",
"!]	c #E3C290",
"!^	c #E3C291",
"!_	c #E3C391",
"!`	c #E3C392",
"!a	c #E3C394",
"!b	c #E3C492",
"!c	c #E3C494",
"!d	c #E3C499",
"!e	c #E3C591",
"!f	c #E3C69D",
"!g	c #E3CA9D",
"!h	c #E3D0B5",
"!i	c #E4C18E",
"!j	c #E4C190",
"!k	c #E4C290",
"!l	c #E4C391",
"!m	c #E4C392",
"!n	c #E4C393",
"!o	c #E4C394",
"!p	c #E4C499",
"!q	c #E4C597",
"!r	c #E4C59A",
"!s	c #E4C69F",
"!t	c #E5C390",
"!u	c #E5C396",
"!v	c #E5C495",
"!w	c #E5C49A",
"!x	c #E5C591",
"!y	c #E5C593",
"!z	c #E5C594",
"!{	c #E5C595",
"!|	c #E5C596",
"!}	c #E5C693",
"!~	c #E5C698",
"# 	c #E5C699",
"#!	c #E5C69E",
"##	c #E5C79B",
"#$	c #E5C7A0",
"#%	c #E5C897",
"#&	c #E5C89E",
"#'	c #E5C8A2",
"#(	c #E5C9A0",
"#)	c #E5C9A7",
"#*	c #E5CCA7",
"#+	c #E5CEB3",
"#,	c #E5D2BE",
"#-	c #E6C593",
"#.	c #E6C693",
"#/	c #E6C695",
"#0	c #E6C697",
"#1	c #E6C795",
"#2	c #E6C799",
"#3	c #E6C79C",
"#4	c #E6C99C",
"#5	c #E6C9A0",
"#6	c #E6CAA0",
"#7	c #E6CBA1",
"#8	c #E7C797",
"#9	c #E7C799",
"#:	c #E7C89A",
"#;	c #E7C89B",
"#<	c #E7C89C",
"#=	c #E7C997",
"#>	c #E7C998",
"#?	c #E7C999",
"#@	c #E7CA97",
"#A	c #E7CA99",
"#B	c #E7CAA5",
"#C	c #E7CB99",
"#D	c #E7CBA4",
"#E	c #E7CDA2",
"#F	c #E7CEAE",
"#G	c #E7D5C6",
"#H	c #E8C89A",
"#I	c #E8C997",
"#J	c #E8C99A",
"#K	c #E8C99B",
"#L	c #E8CA98",
"#M	c #E8CA99",
"#N	c #E8CA9A",
"#O	c #E8CB98",
"#P	c #E8CB99",
"#Q	c #E8CBA3",
"#R	c #E8CC9A",
"#S	c #E8CE9B",
"#T	c #E8CFAE",
"#U	c #E8D3C2",
"#V	c #E8D4BC",
"#W	c #E8D4C4",
"#X	c #E8D7B4",
"#Y	c #E9C997",
"#Z	c #E9C998",
"#[	c #E9CA9A",
"#]	c #E9CA9D",
"#^	c #E9CA9E",
"#_	c #E9CB99",
"#`	c #E9CCAE",
"#a	c #E9CD9D",
"#b	c #E9CE9A",
"#c	c #E9D4A7",
"#d	c #E9D7C5",
"#e	c #E9D9CA",
"#f	c #E9DACD",
"#g	c #EACB9A",
"#h	c #EACB9D",
"#i	c #EACC97",
"#j	c #EACC9B",
"#k	c #EAD09F",
"#l	c #EAD9CA",
"#m	c #EBCE9D",
"#n	c #EBCF9E",
"#o	c #EBCF9F",
"#p	c #EBDCCD",
"#q	c #ECCE9C",
"#r	c #ECCF9E",
"#s	c #ECCFA1",
"#t	c #ECD19D",
"#u	c #ECD4A6",
"#v	c #ECD7BC",
"#w	c #EDCF9F",
"#x	c #EDD09E",
"#y	c #EDD29F",
"#z	c #EDD4A1",
"#{	c #EDDBBF",
"#|	c #EDDDC9",
"#}	c #EDDECE",
"#~	c #EDDED0",
"$ 	c #EDDFC6",
"$!	c #EECF99",
"$#	c #EED09C",
"$$	c #EED3A0",
"$%	c #EED4A2",
"$&	c #EEDCC7",
"$'	c #EEDEC7",
"$(	c #EEDFCE",
"$)	c #EFD09C",
"$*	c #EFD1A0",
"$+	c #EFD4A0",
"$,	c #EFDCBF",
"$-	c #EFE0D6",
"$.	c #F0D49F",
"$/	c #F0D4A0",
"$0	c #F0D6A3",
"$1	c #F0DDC4",
"$2	c #F0DFC0",
"$3	c #F0E0BC",
"$4	c #F0E0D4",
"$5	c #F0E3D4",
"$6	c #F0E4CE",
"$7	c #F1D4A1",
"$8	c #F1D5A0",
"$9	c #F1D7A2",
"$:	c #F1DBA8",
"$;	c #F1DCAA",
"$<	c #F1DEAA",
"$=	c #F1DEAB",
"$>	c #F1E1C4",
"$?	c #F1E5DA",
"$@	c #F2D6A5",
"$A	c #F2D7A3",
"$B	c #F2D8A9",
"$C	c #F2D9A9",
"$D	c #F2DBA7",
"$E	c #F2E0C2",
"$F	c #F2E0C3",
"$G	c #F2E2CE",
"$H	c #F2E3C8",
"$I	c #F2E6D6",
"$J	c #F2E6D8",
"$K	c #F2E8DC",
"$L	c #F2EEE9",
"$M	c #F2EFE7",
"$N	c #F3D9A4",
"$O	c #F3DEAC",
"$P	c #F3DEB1",
"$Q	c #F3DEBB",
"$R	c #F3DFAD",
"$S	c #F3DFAE",
"$T	c #F3E3C4",
"$U	c #F3E3D5",
"$V	c #F3E4C6",
"$W	c #F3E5D4",
"$X	c #F3E6C8",
"$Y	c #F3E6C9",
"$Z	c #F3E7CA",
"$[	c #F3E9D8",
"$]	c #F3EEE9",
"$^	c #F4DEB1",
"$_	c #F4DFB1",
"$`	c #F4E4CB",
"$a	c #F4E6CC",
"$b	c #F4E8CD",
"$c	c #F4E8D2",
"$d	c #F4E8D9",
"$e	c #F4E9D0",
"$f	c #F4EBD8",
"$g	c #F4EFEA",
"$h	c #F5E5C7",
"$i	c #F5E8CE",
"$j	c #F5E9CC",
"$k	c #F5E9CD",
"$l	c #F5E9CE",
"$m	c #F5EACC",
"$n	c #F5EACE",
"$o	c #F5EACF",
"$p	c #F5EAD3",
"$q	c #F5EAE2",
"$r	c #F5EBCE",
"$s	c #F5EBD0",
"$t	c #F5EBDA",
"$u	c #F5EBDB",
"$v	c #F5ECE4",
"$w	c #F5ECE6",
"$x	c #F5EEDE",
"$y	c #F5EEE1",
"$z	c #F5EEE5",
"${	c #F5EFEB",
"$|	c #F5F1F0",
"$}	c #F5F1F5",
"$~	c #F6DDA6",
"% 	c #F6E1AC",
"%!	c #F6E1AE",
"%#	c #F6E2C4",
"%$	c #F6E4C8",
"%%	c #F6E9CE",
"%&	c #F6EAD0",
"%'	c #F6EAD4",
"%(	c #F6EAD5",
"%)	c #F6EAD8",
"%*	c #F6EBCF",
"%+	c #F6EBD0",
"%,	c #F6EBD1",
"%-	c #F6EBD4",
"%.	c #F6EBD9",
"%/	c #F6ECD1",
"%0	c #F6ECE3",
"%1	c #F6EDDB",
"%2	c #F6EDE0",
"%3	c #F6EDE2",
"%4	c #F6EDE4",
"%5	c #F6EEE5",
"%6	c #F6EFE2",
"%7	c #F6F0EA",
"%8	c #F6F1E8",
"%9	c #F6F1EC",
"%:	c #F6F2E3",
"%;	c #F7E4B1",
"%<	c #F7EACE",
"%=	c #F7EBCE",
"%>	c #F7EBD1",
"%?	c #F7EBD4",
"%@	c #F7ECD0",
"%A	c #F7ECD1",
"%B	c #F7ECD2",
"%C	c #F7ECD3",
"%D	c #F7ECD5",
"%E	c #F7EDD5",
"%F	c #F7EDD9",
"%G	c #F7EEDC",
"%H	c #F7EFDE",
"%I	c #F7F0E9",
"%J	c #F7F1EC",
"%K	c #F7F1EF",
"%L	c #F7F2F6",
"%M	c #F7F4F1",
"%N	c #F8E5B1",
"%O	c #F8E6B3",
"%P	c #F8E8CF",
"%Q	c #F8ECCF",
"%R	c #F8F0E6",
"%S	c #F8F1ED",
"%T	c #F8F2ED",
"%U	c #F8F2F2",
"%V	c #F8F2F3",
"%W	c #F8F3E9",
"%X	c #F8F3EB",
"%Y	c #F8F3EF",
"%Z	c #F8F3F1",
"%[	c #F8F3F3",
"%]	c #F8F4EF",
"%^	c #F8F4F5",
"%_	c #F8F5F2",
"%`	c #F8F5F7",
"%a	c #F9E7B3",
"%b	c #F9F1E4",
"%c	c #F9F2EC",
"%d	c #F9F2F1",
"%e	c #F9F3F0",
"%f	c #F9F3F1",
"%g	c #F9F4EE",
"%h	c #F9F5F2",
"%i	c #F9F5F4",
"%j	c #F9F5F5",
"%k	c #F9F5F6",
"%l	c #F9F6F7",
"%m	c #F9F6FA",
"%n	c #FAE3AF",
"%o	c #FAF4F7",
"%p	c #FAF5F1",
"%q	c #FAF5F4",
"%r	c #FAF5F5",
"%s	c #FAF6ED",
"%t	c #FAF6F2",
"%u	c #FAF6F5",
"%v	c #FAF7FA",
"%w	c #FAF8F9",
"%x	c #FAF9F8",
"%y	c #FAF9FA",
"%z	c #FBF0DC",
"%{	c #FBF5F4",
"%|	c #FBF6F4",
"%}	c #FBF6F6",
"%~	c #FBF6F7",
"& 	c #FBF7F7",
"&!	c #FBF8F4",
"&#	c #FBF9F8",
"&$	c #FBF9FB",
"&%	c #FBFAF1",
"&&	c #FBFAFA",
"&'	c #FCF5E8",
"&(	c #FCF5F7",
"&)	c #FCF6F2",
"&*	c #FCF7F8",
"&+	c #FCF8F7",
"&,	c #FCF9F7",
"&-	c #FCFAF7",
"&.	c #FCFCFD",
"&/	c #FDF2DE",
"&0	c #FDF4E4",
"&1	c #FDF7F6",
"&2	c #FDF7F9",
"&3	c #FDF9F9",
"&4	c #FDFBF8",
"&5	c #FDFCFC",
"&6	c #FEF5E8",
"&7	c #FEF8F1",
"&8	c #FEF9FA",
"&9	c #FEFBF9",
"&:	c #FEFCFA",
"&;	c #FEFDFF",
"&<	c #FEFEFD",
"&=	c #FFF9FA",
"&>	c #FFFCFA",
"&?	c #FFFDFB",
"&@	c #FFFEFD",
"&A	c #FFFEFE",
"&B	c #FFFEFF",
"&C	c #FFFFFC",
" + 1 2 /   % 6 7 5 4 ) ! # , . - , ( ' & $ * 0 3",
" F Q U N 9 8 B I H L E = C J O P G D ? > < A K T",
"$:$;$=$: k @#f$W#{#c#k#o#z$D% %N%a%O%;%!$R$S$O$<",
"#b#S#S#R u :#,!h!!!*!( y {!M!t!x!}!}#.#-!z!z!y!l",
"#O#P#C#@ } ;#d#F!8!4!6!-!.!?!U!U!j!k!Z!Z!Z!Z!i!U",
"#L#M#A#@ c M$-#`!8!5!>!;!<!K!O!O!O!O!B!K!K!K!J!I",
"#M#M#A#= d W$?#)!,!7!:!;!;!I!N!N!O!O!N!L!L!K!K!A",
"#M#_#_#M!# S$G#$!+!)!9 z y!<!I!K!V![![!Z!O!N!N!L",
"#M#_#g#[!  R#v#B r x m s q l |!@!Y!]!_!m!_!^!k!l",
"#I#Y#Z#J o V#p$(#T#*!= a j [ Z n ~!E!`!z#/#/#1#0",
"!e!}!b!P g!T$|%`%r%{%Y%7$q$4#V!H ` e!/!c#%#?#[#h",
" w!0!2!S$ %Z%m%w%]%9%8%:$M$}%U%5#|!3 i!$!G!g#E#X",
"&2&2&1%}&#%x%y$[#u#x$*#w#s$1$L$]$g${$w$v%3%2$t$6",
"&/&0&6&'%b%G%P$B$!$)$##q#n$,%M%h%[%^%i%u%p%g%W$x",
"$7$@$C$P$^$_%n$~$8$/$.#t#m$'%l%j%k%V%d%T%I$z%6$f",
"#>#=#8#M#a#m$%$0$A$N$9#y#i$&%~%K%4%)%'%-%D%?%C$e",
"#K#9!|!|!{!n!v#J#r$+$$#j!Z#U& %0$c%%%*%+%>%A%@$l",
"#^#]#<#3# !a!W!u#2#N#N!o b#W&8%.$j$m$r$s%/%A%A$o",
"#<#;#4#6#7#&!d!w#<#:#H!X Y#~&=$p$Z$j$n%,%,%B%B%>",
"!q!~###5#Q#D#(!R!f!r!p!C X$K&,%E$X$Y$b%&%+%A%B%Q",
"!D!F!Q#!#'!s!% h!'!& v f#+%J%|%F$V$>$H$a$i$k%<%=",
" t ^ _ p ]!1$U&:&:&*&(%f%e%_%t%1$T$3$2$E$F$h%z&7",
"#}#l#G#e$5%X&@&?&4&9&>&>&9&5&5&!%R$d$J$I$u%s&<&A",
"&3%o%L%v&+%q%S%c$y%(%#$Q%$%H&%&C&B&.&$&)&-&;&&$`"};
