/* XPM */
static char *07[] = {
"24 24 527 2",
"  	c #715C41",
" !	c #715D41",
" #	c #725B40",
" $	c #745C42",
" %	c #755D42",
" &	c #756043",
" '	c #766043",
" (	c #776045",
" )	c #786144",
" *	c #786145",
" +	c #795F45",
" ,	c #796043",
" -	c #796045",
" .	c #796143",
" /	c #796146",
" 0	c #7B6247",
" 1	c #7B6346",
" 2	c #7C6548",
" 3	c #7D6548",
" 4	c #81674B",
" 5	c #816A4D",
" 6	c #826A4D",
" 7	c #886F52",
" 8	c #8F7658",
" 9	c #957654",
" :	c #997956",
" ;	c #9B7C5A",
" <	c #9B8162",
" =	c #9C7C57",
" >	c #9D825F",
" ?	c #9E7F5D",
" @	c #A07F5A",
" A	c #A28D72",
" B	c #A38661",
" C	c #A4855F",
" D	c #A68964",
" E	c #A68D6E",
" F	c #A78963",
" G	c #A88963",
" H	c #A99276",
" I	c #AB8E68",
" J	c #AB9274",
" K	c #AC9273",
" L	c #AC9376",
" M	c #AD9274",
" N	c #AD9476",
" O	c #AE926C",
" P	c #AE9476",
" Q	c #AF9578",
" R	c #B0977A",
" S	c #B19672",
" T	c #B19876",
" U	c #B2987B",
" V	c #B2997B",
" W	c #B29B7A",
" X	c #B5A082",
" Y	c #B5A184",
" Z	c #B89E7C",
" [	c #B9A07D",
" ]	c #BCA384",
" ^	c #BE9A6C",
" _	c #C09B6C",
" `	c #C0A890",
" a	c #C29C6D",
" b	c #C2A177",
" c	c #C2AD8B",
" d	c #C39C6D",
" e	c #C3AA82",
" f	c #C3AC8B",
" g	c #C49E70",
" h	c #C4AC85",
" i	c #C4AE8B",
" j	c #C59E6F",
" k	c #C59E70",
" l	c #C5AB83",
" m	c #C5AB85",
" n	c #C69F6F",
" o	c #C6A06E",
" p	c #C6A070",
" q	c #C6AE8A",
" r	c #C7A06D",
" s	c #C7A06F",
" t	c #C7A072",
" u	c #C7A170",
" v	c #C7A273",
" w	c #C7A274",
" x	c #C7AF8B",
" y	c #C7BDAD",
" z	c #C8A06F",
" {	c #C8A072",
" |	c #C8A170",
" }	c #C8A273",
" ~	c #C8A275",
"! 	c #C8A375",
"!!	c #C8A476",
"!#	c #C9A272",
"!$	c #C9A273",
"!%	c #C9A373",
"!&	c #C9A473",
"!'	c #C9A476",
"!(	c #C9AF87",
"!)	c #CAA172",
"!*	c #CAA576",
"!+	c #CAA678",
"!,	c #CBA26F",
"!-	c #CBA679",
"!.	c #CBB48C",
"!/	c #CBB48D",
"!0	c #CCA371",
"!1	c #CCA573",
"!2	c #CCA577",
"!3	c #CCAA7B",
"!4	c #CCC2B4",
"!5	c #CCC2B5",
"!6	c #CDB28E",
"!7	c #CDC4B5",
"!8	c #CDC4B6",
"!9	c #CDC4B7",
"!:	c #CDC5B8",
"!;	c #CDC5B9",
"!<	c #CEA773",
"!=	c #CEA777",
"!>	c #CEA879",
"!?	c #CEA978",
"!@	c #CEA97D",
"!A	c #CEC3B7",
"!B	c #CEC4BA",
"!C	c #CEC6BB",
"!D	c #CEC7BE",
"!E	c #CFA774",
"!F	c #CFA976",
"!G	c #CFAD79",
"!H	c #CFB490",
"!I	c #CFB695",
"!J	c #CFC6BA",
"!K	c #CFC7BB",
"!L	c #CFCAC1",
"!M	c #D0AA79",
"!N	c #D0C9BC",
"!O	c #D0CAC2",
"!P	c #D1A975",
"!Q	c #D1AB7A",
"!R	c #D1BA92",
"!S	c #D1BB91",
"!T	c #D1BC93",
"!U	c #D1BC97",
"!V	c #D1BD95",
"!W	c #D1C9C0",
"!X	c #D1CABF",
"!Y	c #D1CBC1",
"!Z	c #D2A878",
"![	c #D2A976",
"!]	c #D2C7BA",
"!^	c #D3AA76",
"!_	c #D3B380",
"!`	c #D3B385",
"!a	c #D3B897",
"!b	c #D3BE96",
"!c	c #D3C9BB",
"!d	c #D4AB78",
"!e	c #D4AE7D",
"!f	c #D4B794",
"!g	c #D4CABE",
"!h	c #D5AD7B",
"!i	c #D5AF7C",
"!j	c #D5B182",
"!k	c #D5B27D",
"!l	c #D5BF97",
"!m	c #D5BF9B",
"!n	c #D5CDBD",
"!o	c #D5CEBF",
"!p	c #D6AD78",
"!q	c #D6AE7C",
"!r	c #D6AF7E",
"!s	c #D6B07C",
"!t	c #D6B07F",
"!u	c #D6C096",
"!v	c #D6C1AF",
"!w	c #D6CCBB",
"!x	c #D6CEC4",
"!y	c #D6CFC4",
"!z	c #D7AE7B",
"!{	c #D7AF7F",
"!|	c #D7B17F",
"!}	c #D7B280",
"!~	c #D7B98E",
"# 	c #D7BF9E",
"#!	c #D7C29D",
"##	c #D7C5AB",
"#$	c #D7CEC2",
"#%	c #D7D0C7",
"#&	c #D8AF7C",
"#'	c #D8B281",
"#(	c #D8B37F",
"#)	c #D8C2AF",
"#*	c #D8C4B3",
"#+	c #D9B07B",
"#,	c #D9B17B",
"#-	c #D9B17F",
"#.	c #D9B47A",
"#/	c #D9B481",
"#0	c #D9B686",
"#1	c #DAB07D",
"#2	c #DAB17E",
"#3	c #DAB281",
"#4	c #DAB483",
"#5	c #DAB484",
"#6	c #DAB582",
"#7	c #DAB587",
"#8	c #DABA86",
"#9	c #DAC0A5",
"#:	c #DAC498",
"#;	c #DACFC1",
"#<	c #DBB381",
"#=	c #DBB481",
"#>	c #DBB582",
"#?	c #DBB886",
"#@	c #DBB985",
"#A	c #DBC5A5",
"#B	c #DCB381",
"#C	c #DCB481",
"#D	c #DCB482",
"#E	c #DCB582",
"#F	c #DCB584",
"#G	c #DCB685",
"#H	c #DCB784",
"#I	c #DCB885",
"#J	c #DCBA87",
"#K	c #DCC8A2",
"#L	c #DCC8B8",
"#M	c #DDB686",
"#N	c #DDB785",
"#O	c #DDB786",
"#P	c #DDB888",
"#Q	c #DDB984",
"#R	c #DDBB87",
"#S	c #DDBB88",
"#T	c #DDBC87",
"#U	c #DDBE92",
"#V	c #DDCBAD",
"#W	c #DEB885",
"#X	c #DEB888",
"#Y	c #DEB986",
"#Z	c #DEBA86",
"#[	c #DEBA87",
"#]	c #DEBB87",
"#^	c #DEBE8A",
"#_	c #DEC191",
"#`	c #DFB783",
"#a	c #DFB784",
"#b	c #DFBA86",
"#c	c #DFBA87",
"#d	c #DFBA8B",
"#e	c #DFBB8F",
"#f	c #DFBC88",
"#g	c #DFBD89",
"#h	c #DFBE8A",
"#i	c #DFBE8B",
"#j	c #DFBE8C",
"#k	c #E0BA87",
"#l	c #E0BB88",
"#m	c #E0BB8D",
"#n	c #E0BC88",
"#o	c #E0BC89",
"#p	c #E0BD89",
"#q	c #E0BD8B",
"#r	c #E0BE8A",
"#s	c #E0BE8C",
"#t	c #E0C291",
"#u	c #E0C7AF",
"#v	c #E0CA9C",
"#w	c #E1BC89",
"#x	c #E1BE8A",
"#y	c #E1BE8B",
"#z	c #E1BE8C",
"#{	c #E1BE8D",
"#|	c #E1BF8B",
"#}	c #E1BF8C",
"#~	c #E1BF8D",
"$ 	c #E1BF8E",
"$!	c #E1C08C",
"$#	c #E2BC89",
"$$	c #E2BE8C",
"$%	c #E2BF8B",
"$&	c #E2BF8C",
"$'	c #E2BF8D",
"$(	c #E2BF90",
"$)	c #E2C08C",
"$*	c #E2C08D",
"$+	c #E2C08E",
"$,	c #E2C18E",
"$-	c #E2C18F",
"$.	c #E2C8A3",
"$/	c #E2D0AC",
"$0	c #E2DBCD",
"$1	c #E3BF8C",
"$2	c #E3C08C",
"$3	c #E3C08E",
"$4	c #E3C18D",
"$5	c #E3C18E",
"$6	c #E3C18F",
"$7	c #E3C28F",
"$8	c #E3C290",
"$9	c #E3CCAD",
"$:	c #E4C28E",
"$;	c #E4C291",
"$<	c #E4C493",
"$=	c #E4C498",
"$>	c #E4C595",
"$?	c #E4C795",
"$@	c #E4C894",
"$A	c #E4D1A5",
"$B	c #E4D9CE",
"$C	c #E5BF8C",
"$D	c #E5C495",
"$E	c #E5C590",
"$F	c #E5C69B",
"$G	c #E5C797",
"$H	c #E5CA96",
"$I	c #E5CCB3",
"$J	c #E5CDB8",
"$K	c #E5CEB5",
"$L	c #E5CFB4",
"$M	c #E5D3BE",
"$N	c #E5D4C0",
"$O	c #E6C797",
"$P	c #E7C9A1",
"$Q	c #E7CB97",
"$R	c #E7CBAA",
"$S	c #E7CE98",
"$T	c #E7CFB3",
"$U	c #E7D0C1",
"$V	c #E7DDCF",
"$W	c #E8C994",
"$X	c #E8CDA1",
"$Y	c #E8D09C",
"$Z	c #E8D2BA",
"$[	c #E8D7C1",
"$]	c #E8DED2",
"$^	c #E9CE99",
"$_	c #E9D2B8",
"$`	c #E9D3BB",
"$a	c #E9E2D8",
"$b	c #E9E2D9",
"$c	c #EAC996",
"$d	c #EAD1A6",
"$e	c #EAD1B5",
"$f	c #EAD2A0",
"$g	c #EAD2AA",
"$h	c #EAD2BA",
"$i	c #EAD3AA",
"$j	c #EAD4BD",
"$k	c #EADFCC",
"$l	c #EAE4D8",
"$m	c #EBD5BE",
"$n	c #EBDDC4",
"$o	c #ECD29D",
"$p	c #ECD2A7",
"$q	c #ECD5AC",
"$r	c #ECD5B3",
"$s	c #ECD7C0",
"$t	c #ECD8BE",
"$u	c #ECD9C1",
"$v	c #ECDBC2",
"$w	c #ECDDC6",
"$x	c #ECDEC4",
"$y	c #ECDECE",
"$z	c #EDDCBF",
"${	c #EDDCC4",
"$|	c #EDDEC6",
"$}	c #EDDFC3",
"$~	c #EDE0C4",
"% 	c #EDE0C7",
"%!	c #EED6A3",
"%#	c #EEDEC2",
"%$	c #EEDFC6",
"%%	c #EEDFC8",
"%&	c #EEE0C8",
"%'	c #EEE1C5",
"%(	c #EEE1CA",
"%)	c #EEE2C6",
"%*	c #EEE2D6",
"%+	c #EEE8E0",
"%,	c #EFDDB3",
"%-	c #EFDFC5",
"%.	c #EFDFD2",
"%/	c #EFE0C2",
"%0	c #EFE2C5",
"%1	c #EFE3C8",
"%2	c #EFEADF",
"%3	c #F0D9B4",
"%4	c #F0DCBB",
"%5	c #F0DCC7",
"%6	c #F0DFCD",
"%7	c #F0E0C7",
"%8	c #F0E2C6",
"%9	c #F0E4CD",
"%:	c #F0E5C9",
"%;	c #F0E5CC",
"%<	c #F0E8D3",
"%=	c #F1D5A4",
"%>	c #F1D6B0",
"%?	c #F1D8A3",
"%@	c #F1DCAA",
"%A	c #F1E4C7",
"%B	c #F1E5CA",
"%C	c #F1E5CB",
"%D	c #F1E6CB",
"%E	c #F1E8DE",
"%F	c #F1E8E2",
"%G	c #F1EADE",
"%H	c #F1EAE1",
"%I	c #F1ECE4",
"%J	c #F1EDEA",
"%K	c #F2D6A3",
"%L	c #F2D9A8",
"%M	c #F2DCAF",
"%N	c #F2DDAD",
"%O	c #F2E5C9",
"%P	c #F2E6CB",
"%Q	c #F2E6CC",
"%R	c #F2E7CB",
"%S	c #F2E7CD",
"%T	c #F2EBDD",
"%U	c #F2EBDF",
"%V	c #F2EDE4",
"%W	c #F3DBAA",
"%X	c #F3DDAA",
"%Y	c #F3E0AA",
"%Z	c #F3E7C9",
"%[	c #F3E7CD",
"%]	c #F3E7CE",
"%^	c #F3E8CD",
"%_	c #F3E8CE",
"%`	c #F3E8CF",
"%a	c #F3E8D8",
"%b	c #F4DDAB",
"%c	c #F4DDAC",
"%d	c #F4E8CB",
"%e	c #F4E8CE",
"%f	c #F4E9CF",
"%g	c #F4EBDC",
"%h	c #F4ECDF",
"%i	c #F4F0E7",
"%j	c #F4F1F1",
"%k	c #F5E3B6",
"%l	c #F5E8CF",
"%m	c #F5EBE2",
"%n	c #F5ECE0",
"%o	c #F5ECE2",
"%p	c #F5EDDF",
"%q	c #F5EED9",
"%r	c #F5EEE8",
"%s	c #F5EFE0",
"%t	c #F5F1EB",
"%u	c #F5F1ED",
"%v	c #F5F4E9",
"%w	c #F6E0AA",
"%x	c #F6EACC",
"%y	c #F6EACF",
"%z	c #F6EBCF",
"%{	c #F6EDE9",
"%|	c #F6EFE9",
"%}	c #F6F1DF",
"%~	c #F6F2EA",
"& 	c #F6F2EB",
"&!	c #F6F3E6",
"&#	c #F7E3AC",
"&$	c #F7E9D1",
"&%	c #F7EACC",
"&&	c #F7EBD1",
"&'	c #F7ECCD",
"&(	c #F7F3EC",
"&)	c #F7F4F2",
"&*	c #F7F5EC",
"&+	c #F8E6CB",
"&,	c #F8EBCE",
"&-	c #F8F2F4",
"&.	c #F9F2DF",
"&/	c #F9F4E7",
"&0	c #F9F5F1",
"&1	c #F9F5F5",
"&2	c #F9F5F6",
"&3	c #FAEFEB",
"&4	c #FAF2DF",
"&5	c #FAF3DC",
"&6	c #FAF3EC",
"&7	c #FAF5F3",
"&8	c #FAF7EE",
"&9	c #FAF7F6",
"&:	c #FAF8F0",
"&;	c #FAF8F1",
"&<	c #FAF9F6",
"&=	c #FAF9FB",
"&>	c #FAF9FD",
"&?	c #FBF2EC",
"&@	c #FBF4DA",
"&A	c #FCF3E8",
"&B	c #FCF4E3",
"&C	c #FCF5E4",
"&D	c #FCF5EF",
"&E	c #FCF6F7",
"&F	c #FCF7F2",
"&G	c #FCF8EA",
"&H	c #FCF8F7",
"&I	c #FCF8FE",
"&J	c #FCF9F9",
"&K	c #FCFAFA",
"&L	c #FCFAFF",
"&M	c #FCFBFF",
"&N	c #FDF6E5",
"&O	c #FDF6E6",
"&P	c #FDF7EA",
"&Q	c #FDFBFD",
"&R	c #FEF8F5",
"&S	c #FEF9F6",
"&T	c #FEF9F8",
"&U	c #FEF9F9",
"&V	c #FEFCF6",
"&W	c #FEFCFC",
"&X	c #FFF6EB",
"&Y	c #FFF6F1",
"&Z	c #FFF9F8",
"&[	c #FFFCF9",
"&]	c #FFFDFC",
"&^	c #FFFFFB",
"&_	c #FFFFFC",
" V U Q L J K M P N H R [ c!U!b!R!/ x q i f ] 7 ,",
"!V!T!S!. h e l!( m Z `###V$/$A#v#:!u!l#!#K!m 8 .",
"%Y&#%w%?$o$^$S$Q#t b#*&G&$%,$f$@$H$Y%!%N%M$d < 1",
"$7$-$+#~#|#i#h#r#? ^#)&X%4$?#y#f#T#R#J#0!j!` > 3",
"$&#z#z$$$&#z#q#g#@ _!v&Y$i$,#o#[#Z#W#6!e!>!3 B 3",
"#z#y$$$'$'#{#s#i#S p#L&Z$q$E#y#l#c#N!|!?!'!- F 0",
"#z#z#}$&$&#z#~#}#^!G$N&]%3$W$4#p#Y#/!M!*!!!+ G (",
"#~$*$!$)$)#|#|#|#f!k$[&S%>$c$:#b#(!F!% v w!  C -",
"$8$6$5$*$*$2$%#y#n!_$M%{$F#x#Q#+![!, s n g { @ +",
"$G$>$<$;$6$3$&$ #j!~$y%E#8#.#,!p!^!E!# k a d = 0",
"$g$z%$$w${$v$t$u$n$k%r%t$I$R$T$K$L$9# !H!6!f E 4",
"%<%}%s%h%U%i%u& %~%V%H%|&3&D&*%v&!%q%)$x%`&+ X 6",
"% $~$}%/%#%&%G%2$0!n!w$V&?%5$D$O$p$X#_#U$.$r W 5",
"%;%1%8%0%'$|%T$l!c!8!7#;&6$e$#$C$1#]#I#P#e$P T 2",
"%S%Q%P%R%:%-%p$a!B!J!9!g&($_#d#w#k#H#>#F#X$= S )",
"%]%[%]%^%B%7%g$b!B!N!:#$&F$`#M#a#`#E#=#D#G$( O '",
"%e%e%_%_%C%%%n%+!D!X!;!x&R$Z#5#B#C#=#<#3#4#m I &",
"%f%e%e%e%D%(%o%I!L!Y!C#%&T$h#'#1#2#-!{!r!t#7 D !",
"%z%y%e%e%P%9%m%F!O!W!K!y&E$j!}#&!z!h!Q!=!2!@ ?  ",
"&,&%%d%d%Z%O%a$]!8!5!4!o&U$m!s!d!P!1!&!$ } ~ ; #",
"%x&'&&%l%A% %*$B!]!A y!X&1$s!i!Z!0 z u | j!) : $",
"&V&^&_&[&J&I&L&M&>&=&)%J&-%6#O!q!< r o o n t 9 %",
"&P&C&N&N&O&B&4&.&8&Q&W&K&K&7%.$U$J#u#9!a!I#A A *",
"%=%K%L%W%c%b%X%@%k&A&H&9&<&H&2%j&0&;&:&/&5&@ Y /"};
