/* XPM */
static char *08[] = {
"24 24 517 2",
"  	c #A48360",
" !	c #A88563",
" #	c #A88862",
" $	c #A98D6C",
" %	c #AA8C66",
" &	c #AB8D64",
" '	c #AB8F68",
" (	c #AC8E63",
" )	c #AC8E66",
" *	c #AC8F64",
" +	c #AD8E64",
" ,	c #AD8E65",
" -	c #AD9066",
" .	c #AE8F66",
" /	c #AE9067",
" 0	c #AE9068",
" 1	c #AE9167",
" 2	c #AE9979",
" 3	c #AF9168",
" 4	c #AF9169",
" 5	c #AF916A",
" 6	c #AF916B",
" 7	c #AF997B",
" 8	c #AF9A77",
" 9	c #B09478",
" :	c #B09A77",
" ;	c #B5956D",
" <	c #BA996F",
" =	c #BFA178",
" >	c #C09F71",
" ?	c #C2A072",
" @	c #C2A78E",
" A	c #C3A77A",
" B	c #C3A77D",
" C	c #C5A374",
" D	c #C5A87A",
" E	c #C6A477",
" F	c #C6A577",
" G	c #C6B194",
" H	c #C7AA7E",
" I	c #C8AB7E",
" J	c #C8AD83",
" K	c #C9AE81",
" L	c #C9B198",
" M	c #CAAE82",
" N	c #CAAF84",
" O	c #CABAA2",
" P	c #CAC0B2",
" Q	c #CBAE82",
" R	c #CBB38E",
" S	c #CCAE83",
" T	c #CCAF82",
" U	c #CCAF83",
" V	c #CCB083",
" W	c #CCC1B3",
" X	c #CDB084",
" Y	c #CDB184",
" Z	c #CDC3B6",
" [	c #CEB89E",
" ]	c #CEBDA7",
" ^	c #CEC4B6",
" _	c #CEC4B8",
" `	c #CEC5B7",
" a	c #CFC6BA",
" b	c #D0C6B9",
" c	c #D0C6BA",
" d	c #D0C7B8",
" e	c #D0C7B9",
" f	c #D0C7BB",
" g	c #D0C8BC",
" h	c #D0C8BD",
" i	c #D1C6B9",
" j	c #D1C7B9",
" k	c #D1C8BA",
" l	c #D1C8BB",
" m	c #D1C8BC",
" n	c #D1C9BD",
" o	c #D2BDA4",
" p	c #D2C8BA",
" q	c #D2C8BB",
" r	c #D2C8BC",
" s	c #D2C9BC",
" t	c #D2C9BD",
" u	c #D2C9BE",
" v	c #D2CABE",
" w	c #D2CAC0",
" x	c #D3B184",
" y	c #D3C8BA",
" z	c #D3C8BB",
" {	c #D3C9BC",
" |	c #D3C9BD",
" }	c #D3C9BE",
" ~	c #D3CABC",
"! 	c #D3CABE",
"!!	c #D3CABF",
"!#	c #D3CBBF",
"!$	c #D4B181",
"!%	c #D4B280",
"!&	c #D4B58D",
"!'	c #D4C1A9",
"!(	c #D4CBC1",
"!)	c #D4CCC0",
"!*	c #D4CCC1",
"!+	c #D4CDC3",
"!,	c #D4CEC1",
"!-	c #D5B182",
"!.	c #D5B283",
"!/	c #D5B381",
"!0	c #D5B382",
"!1	c #D5B383",
"!2	c #D5B489",
"!3	c #D5B68E",
"!4	c #D5CCBE",
"!5	c #D5CCC1",
"!6	c #D5CDC3",
"!7	c #D5CEC1",
"!8	c #D5CEC2",
"!9	c #D5CEC3",
"!:	c #D5CFC5",
"!;	c #D6B482",
"!<	c #D6B486",
"!=	c #D6BA94",
"!>	c #D6CDC2",
"!?	c #D6CEC4",
"!@	c #D6CFC2",
"!A	c #D6CFC4",
"!B	c #D6CFC5",
"!C	c #D6CFC6",
"!D	c #D6D0C2",
"!E	c #D6D0C5",
"!F	c #D7B383",
"!G	c #D7B384",
"!H	c #D7B385",
"!I	c #D7B485",
"!J	c #D7B486",
"!K	c #D7B585",
"!L	c #D7CDC1",
"!M	c #D7CEC3",
"!N	c #D7CFC3",
"!O	c #D7CFC4",
"!P	c #D7D0C5",
"!Q	c #D7D1C2",
"!R	c #D8B383",
"!S	c #D8B484",
"!T	c #D8B486",
"!U	c #D8B585",
"!V	c #D8B586",
"!W	c #D8B588",
"!X	c #D8B687",
"!Y	c #D8B68B",
"!Z	c #D8B78A",
"![	c #D8CDC0",
"!]	c #D8CDC2",
"!^	c #D8CFC2",
"!_	c #D8D0C4",
"!`	c #D8D1C0",
"!a	c #D8D1C5",
"!b	c #D8D1C6",
"!c	c #D8D2C6",
"!d	c #D9B585",
"!e	c #D9B686",
"!f	c #D9B687",
"!g	c #D9B689",
"!h	c #D9B888",
"!i	c #D9B989",
"!j	c #D9B98A",
"!k	c #D9D0C2",
"!l	c #D9D1C5",
"!m	c #D9D3C7",
"!n	c #DAB687",
"!o	c #DAB788",
"!p	c #DAB789",
"!q	c #DAB888",
"!r	c #DAB988",
"!s	c #DAB989",
"!t	c #DAB98A",
"!u	c #DAB98B",
"!v	c #DABA8A",
"!w	c #DABA8B",
"!x	c #DABF9C",
"!y	c #DAD2C6",
"!z	c #DBB888",
"!{	c #DBBA8C",
"!|	c #DBBB8B",
"!}	c #DBC3A3",
"!~	c #DBD3C2",
"# 	c #DBD4C5",
"#!	c #DCB98C",
"##	c #DCBC8A",
"#$	c #DCBC8C",
"#%	c #DCBF92",
"#&	c #DCD4C5",
"#'	c #DCD5CC",
"#(	c #DDBC8D",
"#)	c #DDBD8D",
"#*	c #DDBD8E",
"#+	c #DDBE8F",
"#,	c #DDC09B",
"#-	c #DDC7AC",
"#.	c #DDCAB6",
"#/	c #DDD5C8",
"#0	c #DDD5CB",
"#1	c #DDD6C8",
"#2	c #DEBC8A",
"#3	c #DEBC8D",
"#4	c #DEBD8E",
"#5	c #DEBE8E",
"#6	c #DEBE8F",
"#7	c #DEC192",
"#8	c #DEC3A1",
"#9	c #DEC6A5",
"#:	c #DED5C7",
"#;	c #DED6C9",
"#<	c #DFBE8F",
"#=	c #DFBF91",
"#>	c #DFC090",
"#?	c #DFC092",
"#@	c #DFC49E",
"#A	c #DFD8CD",
"#B	c #DFD9CF",
"#C	c #E0BF91",
"#D	c #E0C290",
"#E	c #E0C69F",
"#F	c #E0CCB4",
"#G	c #E0D9CF",
"#H	c #E1BD8E",
"#I	c #E1C08B",
"#J	c #E1C291",
"#K	c #E1C494",
"#L	c #E1C496",
"#M	c #E1D7C7",
"#N	c #E1D7C9",
"#O	c #E1D9CD",
"#P	c #E1DBD3",
"#Q	c #E2BF8F",
"#R	c #E2C293",
"#S	c #E2C393",
"#T	c #E2C594",
"#U	c #E2C597",
"#V	c #E2C696",
"#W	c #E2C9A5",
"#X	c #E2DACB",
"#Y	c #E2DBD2",
"#Z	c #E3C395",
"#[	c #E3C495",
"#]	c #E3C594",
"#^	c #E3CCB1",
"#_	c #E3DCD6",
"#`	c #E3DDD3",
"#a	c #E4C594",
"#b	c #E4C696",
"#c	c #E4CDA3",
"#d	c #E4D9C9",
"#e	c #E4DCCD",
"#f	c #E4DDD9",
"#g	c #E4DFD8",
"#h	c #E4E0D9",
"#i	c #E5C590",
"#j	c #E5C898",
"#k	c #E5C998",
"#l	c #E5CB9A",
"#m	c #E5CBA5",
"#n	c #E5E0DC",
"#o	c #E6C491",
"#p	c #E6C492",
"#q	c #E6CA99",
"#r	c #E6CA9A",
"#s	c #E6CA9B",
"#t	c #E6CB9A",
"#u	c #E6CB9B",
"#v	c #E6CC9C",
"#w	c #E6CFAF",
"#x	c #E6E1DB",
"#y	c #E6E2DB",
"#z	c #E7C99B",
"#{	c #E7D8C8",
"#|	c #E7D8C9",
"#}	c #E7E0D2",
"#~	c #E7E1D9",
"$ 	c #E7E2DB",
"$!	c #E8CA97",
"$#	c #E8CA9C",
"$$	c #E8CE9F",
"$%	c #E8CFA2",
"$&	c #E8DCCA",
"$'	c #E8E2DE",
"$(	c #E9C996",
"$)	c #E9C99B",
"$*	c #E9CD97",
"$+	c #E9CE9C",
"$,	c #E9CE9D",
"$-	c #E9E2DA",
"$.	c #E9E6E3",
"$/	c #EACF9F",
"$0	c #EAD09C",
"$1	c #EAD0A5",
"$2	c #EAD1A3",
"$3	c #EAD1A5",
"$4	c #EAD2A9",
"$5	c #EAD3A6",
"$6	c #EAE3D9",
"$7	c #EAE3DD",
"$8	c #EAE5E0",
"$9	c #EAE8E5",
"$:	c #EBCB98",
"$;	c #EBCB99",
"$<	c #EBCCA1",
"$=	c #EBD09E",
"$>	c #EBD09F",
"$?	c #EBD1A0",
"$@	c #EBD9C5",
"$A	c #EBE4D6",
"$B	c #EBE4E1",
"$C	c #ECD09D",
"$D	c #ECD19E",
"$E	c #ECD3A6",
"$F	c #ECD5B3",
"$G	c #ECD6BC",
"$H	c #ECD7BD",
"$I	c #ECD7BE",
"$J	c #ECE0CF",
"$K	c #ECE6DE",
"$L	c #EDCF9A",
"$M	c #EDD2A1",
"$N	c #EDD2A2",
"$O	c #EDD4A2",
"$P	c #EDD8B3",
"$Q	c #EDE2D9",
"$R	c #EED09D",
"$S	c #EED19E",
"$T	c #EED299",
"$U	c #EED29B",
"$V	c #EED3A2",
"$W	c #EEDBC7",
"$X	c #EEE1D3",
"$Y	c #EFD49C",
"$Z	c #EFD4A3",
"$[	c #EFD59C",
"$]	c #EFD5A3",
"$^	c #EFD5A4",
"$_	c #EFD6A7",
"$`	c #EFD7BD",
"$a	c #EFDFCE",
"$b	c #EFE8DA",
"$c	c #EFE9E1",
"$d	c #EFE9E6",
"$e	c #F0D7A5",
"$f	c #F0DCB7",
"$g	c #F0DDB2",
"$h	c #F0DDC5",
"$i	c #F0E4D2",
"$j	c #F1D5A2",
"$k	c #F1D6A5",
"$l	c #F1D7A6",
"$m	c #F1DAAC",
"$n	c #F1E3CF",
"$o	c #F1E5D6",
"$p	c #F1EAD9",
"$q	c #F1EAE3",
"$r	c #F2D7A0",
"$s	c #F2D7A5",
"$t	c #F2D9A1",
"$u	c #F2DAA6",
"$v	c #F2DCB2",
"$w	c #F2DFC3",
"$x	c #F2E0C0",
"$y	c #F2E1BB",
"$z	c #F2E5D2",
"${	c #F2E7D9",
"$|	c #F2ECE1",
"$}	c #F2ECE5",
"$~	c #F2ECE7",
"% 	c #F3D6A3",
"%!	c #F3DBAD",
"%#	c #F3DCA6",
"%$	c #F3DEAE",
"%%	c #F3E1C9",
"%&	c #F3E6DA",
"%'	c #F3E7D1",
"%(	c #F3E8D7",
"%)	c #F3E9DC",
"%*	c #F3EADB",
"%+	c #F3F0EF",
"%,	c #F4DAA5",
"%-	c #F4DAA7",
"%.	c #F4DBA3",
"%/	c #F4DDAB",
"%0	c #F4DDAC",
"%1	c #F4DFB4",
"%2	c #F4E2D0",
"%3	c #F4E9D7",
"%4	c #F4ECE2",
"%5	c #F4EDDF",
"%6	c #F4EDE1",
"%7	c #F4F0ED",
"%8	c #F5DBA5",
"%9	c #F5DCA6",
"%:	c #F5DDA5",
"%;	c #F5DFAA",
"%<	c #F5DFB2",
"%=	c #F5E2BD",
"%>	c #F5E5CD",
"%?	c #F5E6C7",
"%@	c #F5E7D6",
"%A	c #F5E9CE",
"%B	c #F5ECE5",
"%C	c #F5EDE7",
"%D	c #F5EEE6",
"%E	c #F5F0E9",
"%F	c #F5F2F0",
"%G	c #F5F2F1",
"%H	c #F5F2F5",
"%I	c #F5F9FA",
"%J	c #F6DDA6",
"%K	c #F6DFA9",
"%L	c #F6E1B5",
"%M	c #F6E6CA",
"%N	c #F6ECDF",
"%O	c #F6EDE2",
"%P	c #F6EEE6",
"%Q	c #F6EFE7",
"%R	c #F6F1EE",
"%S	c #F6F3EF",
"%T	c #F6F4F1",
"%U	c #F7ECE5",
"%V	c #F7EDD9",
"%W	c #F7EDE1",
"%X	c #F7EFE9",
"%Y	c #F7F0E5",
"%Z	c #F7F1E9",
"%[	c #F7F1EE",
"%]	c #F7F2E4",
"%^	c #F7F2ED",
"%_	c #F7F2EF",
"%`	c #F7F3ED",
"%a	c #F7F4F1",
"%b	c #F7F5ED",
"%c	c #F7FAFE",
"%d	c #F8ECE7",
"%e	c #F8F0E8",
"%f	c #F8F0E9",
"%g	c #F8F2EC",
"%h	c #F8F2EF",
"%i	c #F8F4EE",
"%j	c #F8F4EF",
"%k	c #F8F5F1",
"%l	c #F8F5F3",
"%m	c #F8F5F4",
"%n	c #F8F6F4",
"%o	c #F8F6F7",
"%p	c #F8F8F7",
"%q	c #F8F8F9",
"%r	c #F9EDE1",
"%s	c #F9F1EB",
"%t	c #F9F2E8",
"%u	c #F9F2ED",
"%v	c #F9F3EB",
"%w	c #F9F3EC",
"%x	c #F9F3EE",
"%y	c #F9F4EE",
"%z	c #F9F5EF",
"%{	c #F9F6EB",
"%|	c #F9F6F6",
"%}	c #F9F6F7",
"%~	c #F9F7EF",
"& 	c #F9F7F6",
"&!	c #F9F8EE",
"&#	c #F9FBFD",
"&$	c #FAEEE7",
"&%	c #FAF0E7",
"&&	c #FAF1E8",
"&'	c #FAF3EB",
"&(	c #FAF3ED",
"&)	c #FAF3EE",
"&*	c #FAF3EF",
"&+	c #FAF4F2",
"&,	c #FAF4F4",
"&-	c #FAF5F2",
"&.	c #FAF5F4",
"&/	c #FAF6F3",
"&0	c #FAF7F1",
"&1	c #FAF7F7",
"&2	c #FAF7F8",
"&3	c #FAF7FA",
"&4	c #FAF8FB",
"&5	c #FAF8FC",
"&6	c #FAF9F7",
"&7	c #FBF2EA",
"&8	c #FBF2EF",
"&9	c #FBF5F0",
"&:	c #FBF6F5",
"&;	c #FBF8F7",
"&<	c #FBF9F5",
"&=	c #FBFAF2",
"&>	c #FBFAF4",
"&?	c #FBFAF9",
"&@	c #FBFBF6",
"&A	c #FCF7F6",
"&B	c #FCF8F2",
"&C	c #FCF9F6",
"&D	c #FCF9F8",
"&E	c #FCF9F9",
"&F	c #FCF9FB",
"&G	c #FCF9FE",
"&H	c #FCFAF4",
"&I	c #FCFAF8",
"&J	c #FCFAFA",
"&K	c #FCFBF9",
"&L	c #FCFCF6",
"&M	c #FCFCFF",
"&N	c #FDFCFB",
"&O	c #FEFCFD",
"&P	c #FEFCFE",
"&Q	c #FEFDFE",
"&R	c #FEFDFF",
"&S	c #FFFCFD",
"&T	c #FFFCFF",
" & Q$,#[#K#s#s#u#l#V$H&A%t%V%A%?$y$g%$%-$P&9$n$;",
" ) S$>#R#*#b#r#t#q#D$G&*%M%1%/%#$t$[$Y$T$%&1$h$!",
" 0 X$N#S!t#>#j#k#T##$I&%%L%K%:%.$r$U$L$*#m&M%2#z",
" 4 Y$M#]!v!w#Z#[#4!i$W&$%<%;%J%8% $R$(#i#E&R%@$#",
" 3 U$M#a!|!u#C#=!u!Z$a%d%L%;%9%,$j$:#o#I#@&T%r$<",
" * I$=#J!s!g#!!{!W!Y%&%U%=%0$u$s$S#p#Q#2#W&T&-$`",
" ( D$C#<!X!T!T!f!I#,&)%C%%$v$m$_$)#H#3!r#w&T&G%m",
" + A$D#)!V!H!G!I x$@&I%S%D%O%N%)$X#{#|$&$q&4&5&F",
" , H$V#)!e!G!F!.!2%4&<%~%i%_&.& %p%I%c&#%q%H&3%|",
" . T$^#5!n!S!R!-!&%B&0$6![ y z!4!l#B#n$9$.$'%+%^",
" / V$k#<!o!S!G!$!3%Q%E#/ i c l s! !)!6!C!B!*$8%b",
" - K$Z#4!q!S!G!%!=%`$}!y u m t! !#!(!>!O!: w#x&H",
" 1 M$]#(!o!U!I!/!x%j$c!_ u m n v!!!!!(!M!M }#f&B",
" 5 N$l#3!z!d!V!;#8&/$K!^!  g h u v s t!  } _#_&'",
" 6 J$e#6!h!U!J!0#9&:$-!L } f f t ~ k e b Z P#P%P",
" ' B$?#7!s!K!<!1#-&,$7!] { a c r ~ p j ` W ^$B%h",
" % =#v#U#+!j!p!X#F&+$~#Y#A#'#0#`#~$ #y#h#g$d&;&K",
" # ;#%#L#?#$!t!J#^&8%g$|%]%{&!&=&L&@&>%T%G&2&J&6",
"   ! < E F > ? C!}%X%w%6$p%*$b$A#}#e#X!~!5%7&?%l",
" $ 9 @ L [ o!'#.$Q%[%x%Y$J#M#;#1#:#&# !` d%F&N%k",
" 7 ]%W&&&7%s&(%z%u%f%x%e#d!k!c!b!l!a!m!Q |%o&Q&C",
" 2 O%5${$o$i$z%>$x$f%3%Z#N!@!P!A!O!P!b!D q%n&O&E",
" 8 G$w$F$4$1$3$E$2$5%'%v#O!N!A!9!?!A!E!7 c%a&S&D",
" : R%!$O$0$+$/$?$$#c%(%y#G!8!+!+!9!9!9!, a%R&P%}"};
