/* XPM */
static char *09[] = {
"24 24 498 2",
"  	c #CDC2BA",
" !	c #CDC4B7",
" #	c #CEC6BD",
" $	c #CFC2B5",
" %	c #CFC5B6",
" &	c #CFC9BA",
" '	c #D0C3B4",
" (	c #D0C4B7",
" )	c #D0C4BA",
" *	c #D0C5B7",
" +	c #D0C6BA",
" ,	c #D1C9C1",
" -	c #D2B48C",
" .	c #D2C6B7",
" /	c #D2C7B7",
" 0	c #D2C9BE",
" 1	c #D2C9C0",
" 2	c #D3C7BE",
" 3	c #D3C8B8",
" 4	c #D3CABC",
" 5	c #D3CBC0",
" 6	c #D4B78E",
" 7	c #D4C8B7",
" 8	c #D4C8B8",
" 9	c #D5C9B9",
" :	c #D5CABC",
" ;	c #D5CABD",
" <	c #D5CBC2",
" =	c #D5CCBC",
" >	c #D5D1C4",
" ?	c #D6CAB9",
" @	c #D6CABD",
" A	c #D6CBBC",
" B	c #D6CCBE",
" C	c #D6CDC3",
" D	c #D7B890",
" E	c #D7B991",
" F	c #D7CBBF",
" G	c #D7CCBE",
" H	c #D7CDC0",
" I	c #D7CDC2",
" J	c #D7CEC0",
" K	c #D7D0C6",
" L	c #D8B587",
" M	c #D8B992",
" N	c #D8CDC1",
" O	c #D8CEC0",
" P	c #D8D2C7",
" Q	c #D9CDBE",
" R	c #D9CEBF",
" S	c #D9CFC0",
" T	c #D9D0C3",
" U	c #D9D1C7",
" V	c #DABB92",
" W	c #DABC96",
" X	c #DAC3A8",
" Y	c #DACEBE",
" Z	c #DACEBF",
" [	c #DAD0C9",
" ]	c #DBB995",
" ^	c #DBBF9B",
" _	c #DBCFC0",
" `	c #DBD0BD",
" a	c #DBD0C1",
" b	c #DBD1C3",
" c	c #DBD2C4",
" d	c #DBD3C7",
" e	c #DBD3CB",
" f	c #DCBC94",
" g	c #DCC6A6",
" h	c #DCD0C0",
" i	c #DCD0C1",
" j	c #DCD1C4",
" k	c #DCD2C1",
" l	c #DCD2C4",
" m	c #DCD4CA",
" n	c #DDBB8D",
" o	c #DDBC8B",
" p	c #DDBD90",
" q	c #DDC0A0",
" r	c #DDC39E",
" s	c #DDD1C1",
" t	c #DDD2C0",
" u	c #DDD2C1",
" v	c #DDD2C2",
" w	c #DDD2C3",
" x	c #DDD2C4",
" y	c #DDD2C5",
" z	c #DDD3C3",
" {	c #DDD3C4",
" |	c #DDD6CA",
" }	c #DDD8D0",
" ~	c #DED1C2",
"! 	c #DED2BE",
"!!	c #DED2C2",
"!#	c #DED3C3",
"!$	c #DED3C4",
"!%	c #DEDAD2",
"!&	c #DFBD8D",
"!'	c #DFBF8E",
"!(	c #DFC194",
"!)	c #DFD2BD",
"!*	c #DFD3C3",
"!+	c #DFD3C4",
"!,	c #DFD4C3",
"!-	c #DFD4C4",
"!.	c #DFD4C5",
"!/	c #DFD8CE",
"!0	c #DFD9D1",
"!1	c #DFDAD2",
"!2	c #E0BE8F",
"!3	c #E0BF8F",
"!4	c #E0CBB1",
"!5	c #E0D4C4",
"!6	c #E0D8CD",
"!7	c #E1C08F",
"!8	c #E1C194",
"!9	c #E1D8D3",
"!:	c #E2C090",
"!;	c #E2C190",
"!<	c #E2C290",
"!=	c #E2C292",
"!>	c #E2C294",
"!?	c #E2C397",
"!@	c #E2CDAE",
"!A	c #E2CFBA",
"!B	c #E2D7C9",
"!C	c #E2D7CD",
"!D	c #E2DACF",
"!E	c #E2DBD5",
"!F	c #E2DCD8",
"!G	c #E3C296",
"!H	c #E3C499",
"!I	c #E3D5C3",
"!J	c #E4BF8F",
"!K	c #E4C392",
"!L	c #E4C492",
"!M	c #E4C497",
"!N	c #E4C597",
"!O	c #E4C598",
"!P	c #E4C699",
"!Q	c #E4D9C9",
"!R	c #E4DED6",
"!S	c #E5C194",
"!T	c #E5C294",
"!U	c #E5C295",
"!V	c #E5C393",
"!W	c #E5C394",
"!X	c #E5C396",
"!Y	c #E5C492",
"!Z	c #E5C599",
"![	c #E5C69A",
"!]	c #E5CEB0",
"!^	c #E5DDD5",
"!_	c #E5DED6",
"!`	c #E5DED9",
"!a	c #E5DFD8",
"!b	c #E6C395",
"!c	c #E6C494",
"!d	c #E6C495",
"!e	c #E6C496",
"!f	c #E6C594",
"!g	c #E6C598",
"!h	c #E6C699",
"!i	c #E6C69A",
"!j	c #E6C69C",
"!k	c #E6C79B",
"!l	c #E6D9C8",
"!m	c #E6DBCA",
"!n	c #E6DBD0",
"!o	c #E6DCD1",
"!p	c #E6E0DA",
"!q	c #E7C596",
"!r	c #E7C899",
"!s	c #E7C99B",
"!t	c #E7CA9D",
"!u	c #E7CC9E",
"!v	c #E7CE9D",
"!w	c #E7D4C5",
"!x	c #E7D8BC",
"!y	c #E8C595",
"!z	c #E8C694",
"!{	c #E8C696",
"!|	c #E8C795",
"!}	c #E8C79C",
"!~	c #E8C896",
"# 	c #E8C89A",
"#!	c #E8C89C",
"##	c #E8C89D",
"#$	c #E8C89E",
"#%	c #E8C8A0",
"#&	c #E8C99B",
"#'	c #E8C99C",
"#(	c #E8CBA7",
"#)	c #E8D3B7",
"#*	c #E8E1DC",
"#+	c #E8E3DD",
"#,	c #E9C697",
"#-	c #E9C797",
"#.	c #E9C89B",
"#/	c #E9C997",
"#0	c #E9C99C",
"#1	c #E9C99F",
"#2	c #E9CA9E",
"#3	c #E9CAA1",
"#4	c #E9CB97",
"#5	c #E9D5C6",
"#6	c #E9E4DF",
"#7	c #EAC795",
"#8	c #EAC896",
"#9	c #EAC897",
"#:	c #EAC899",
"#;	c #EAC996",
"#<	c #EAC99B",
"#=	c #EACAA0",
"#>	c #EACB98",
"#?	c #EACC9E",
"#@	c #EACD9E",
"#A	c #EACE99",
"#B	c #EACE9F",
"#C	c #EAD1A2",
"#D	c #EAD5AB",
"#E	c #EAD5C3",
"#F	c #EAE2D9",
"#G	c #EBC895",
"#H	c #EBC997",
"#I	c #EBC999",
"#J	c #EBCA97",
"#K	c #EBCB94",
"#L	c #EBCBA9",
"#M	c #EBCC93",
"#N	c #EBCC9E",
"#O	c #EBCD9E",
"#P	c #EBD8BA",
"#Q	c #EBDABC",
"#R	c #ECCB96",
"#S	c #ECCE98",
"#T	c #ECD195",
"#U	c #ECD6A2",
"#V	c #ECD8C5",
"#W	c #ECDCBD",
"#X	c #ECDCBF",
"#Y	c #ECDDC0",
"#Z	c #ECDEC5",
"#[	c #ECE0C9",
"#]	c #ECE0D4",
"#^	c #EDCD96",
"#_	c #EDCE98",
"#`	c #EDD9CD",
"#a	c #EDDBBC",
"#b	c #EDDCC1",
"#c	c #EDE0CE",
"#d	c #EDE1C9",
"#e	c #EDE2D8",
"#f	c #EECE95",
"#g	c #EECE98",
"#h	c #EED299",
"#i	c #EED39F",
"#j	c #EEE9E2",
"#k	c #EFD29B",
"#l	c #EFD399",
"#m	c #EFD7A3",
"#n	c #EFDABB",
"#o	c #EFDBC9",
"#p	c #EFDDB9",
"#q	c #EFDEC0",
"#r	c #EFDEC1",
"#s	c #EFE1D1",
"#t	c #EFE3CA",
"#u	c #EFE4CC",
"#v	c #EFE9E1",
"#w	c #F0DDB9",
"#x	c #F0DEC7",
"#y	c #F0DFC1",
"#z	c #F0EBE4",
"#{	c #F0EDE8",
"#|	c #F1E0BD",
"#}	c #F1E5C9",
"#~	c #F1E5D3",
"$ 	c #F1E6C8",
"$!	c #F1E6CB",
"$#	c #F1E7CD",
"$$	c #F1E8C9",
"$%	c #F1E9E4",
"$&	c #F1EFE9",
"$'	c #F2E2BF",
"$(	c #F2E5C9",
"$)	c #F2E6C9",
"$*	c #F2E6CF",
"$+	c #F2E7CC",
"$,	c #F2E7DA",
"$-	c #F2F0EC",
"$.	c #F3DAA8",
"$/	c #F3DCA5",
"$0	c #F3E2B1",
"$1	c #F3E6D1",
"$2	c #F3E8D3",
"$3	c #F3E9CF",
"$4	c #F3E9D0",
"$5	c #F3EAD3",
"$6	c #F3EDE7",
"$7	c #F3EFEF",
"$8	c #F3F1F2",
"$9	c #F4E5CE",
"$:	c #F4E5DE",
"$;	c #F4E8D1",
"$<	c #F4E8D5",
"$=	c #F4E8D8",
"$>	c #F4E9D5",
"$?	c #F4E9D7",
"$@	c #F4E9D8",
"$A	c #F4EAD0",
"$B	c #F4EAD2",
"$C	c #F4EAD4",
"$D	c #F4EAD5",
"$E	c #F4EAD6",
"$F	c #F4EAD9",
"$G	c #F4EBD5",
"$H	c #F4EBD7",
"$I	c #F4EBD8",
"$J	c #F4EDDA",
"$K	c #F4EDE0",
"$L	c #F4EEEA",
"$M	c #F4EFEB",
"$N	c #F4EFF0",
"$O	c #F4F0EC",
"$P	c #F5D8A2",
"$Q	c #F5DBA4",
"$R	c #F5E7D7",
"$S	c #F5E9D6",
"$T	c #F5EACE",
"$U	c #F5EACF",
"$V	c #F5EAD1",
"$W	c #F5EAD3",
"$X	c #F5EAD4",
"$Y	c #F5EAD5",
"$Z	c #F5EAD6",
"$[	c #F5EAD7",
"$]	c #F5EAD9",
"$^	c #F5EBD4",
"$_	c #F5EBD5",
"$`	c #F5EBD6",
"$a	c #F5EBD7",
"$b	c #F5EBD8",
"$c	c #F5EBDB",
"$d	c #F5EBDF",
"$e	c #F5ECD7",
"$f	c #F5ECDE",
"$g	c #F5EDE1",
"$h	c #F5F0EB",
"$i	c #F5F0F2",
"$j	c #F5F4F8",
"$k	c #F6EACD",
"$l	c #F6EACE",
"$m	c #F6EAD1",
"$n	c #F6EAD4",
"$o	c #F6EAD7",
"$p	c #F6EBD2",
"$q	c #F6EBD4",
"$r	c #F6EBD6",
"$s	c #F6EBD7",
"$t	c #F6EBD8",
"$u	c #F6EBDD",
"$v	c #F6ECD3",
"$w	c #F6ECD8",
"$x	c #F6ECDA",
"$y	c #F6EDE4",
"$z	c #F6EEE3",
"${	c #F6EEE4",
"$|	c #F6F6F5",
"$}	c #F7EAD2",
"$~	c #F7EAD7",
"% 	c #F7EBD2",
"%!	c #F7EBD3",
"%#	c #F7EBD4",
"%$	c #F7EBD5",
"%%	c #F7EBD6",
"%&	c #F7EBD7",
"%'	c #F7EBD8",
"%(	c #F7ECD2",
"%)	c #F7ECD3",
"%*	c #F7ECD4",
"%+	c #F7ECD5",
"%,	c #F7ECD7",
"%-	c #F7EDD9",
"%.	c #F7EEDC",
"%/	c #F7EEE0",
"%0	c #F7EEE2",
"%1	c #F7EEE3",
"%2	c #F7F0E7",
"%3	c #F7F1EA",
"%4	c #F7F2ED",
"%5	c #F7F5F5",
"%6	c #F7F8FE",
"%7	c #F7F9FD",
"%8	c #F8EBD5",
"%9	c #F8EBD7",
"%:	c #F8ECDA",
"%;	c #F8EDD2",
"%<	c #F8EDD4",
"%=	c #F8EEE3",
"%>	c #F8EFDE",
"%?	c #F8F0E3",
"%@	c #F8F0E8",
"%A	c #F8F1E0",
"%B	c #F8F1E7",
"%C	c #F8F1E8",
"%D	c #F8F1E9",
"%E	c #F8F1EE",
"%F	c #F8F2EB",
"%G	c #F8F3E2",
"%H	c #F8F3EE",
"%I	c #F8F3EF",
"%J	c #F8F4F1",
"%K	c #F8F4F3",
"%L	c #F8F5F4",
"%M	c #F8F6F5",
"%N	c #F8FAFE",
"%O	c #F9EBD6",
"%P	c #F9ECD5",
"%Q	c #F9EEDE",
"%R	c #F9F0E2",
"%S	c #F9F0E3",
"%T	c #F9F1E8",
"%U	c #F9F3EB",
"%V	c #F9F4ED",
"%W	c #F9F4EE",
"%X	c #F9F4F5",
"%Y	c #F9F4F8",
"%Z	c #F9F5F0",
"%[	c #F9F6F0",
"%]	c #F9F6FD",
"%^	c #F9F7F7",
"%_	c #F9F8F7",
"%`	c #F9FAFF",
"%a	c #F9FDFE",
"%b	c #FAEBD1",
"%c	c #FAECD7",
"%d	c #FAEDD7",
"%e	c #FAF3EC",
"%f	c #FAF3F1",
"%g	c #FAF5F0",
"%h	c #FAF5F5",
"%i	c #FAF6F2",
"%j	c #FAF6F4",
"%k	c #FAF7E6",
"%l	c #FAF7F1",
"%m	c #FAF7F6",
"%n	c #FAF8FB",
"%o	c #FAF9FE",
"%p	c #FAFAFD",
"%q	c #FAFCFF",
"%r	c #FBF0DA",
"%s	c #FBF0DB",
"%t	c #FBF1E2",
"%u	c #FBF3E3",
"%v	c #FBF3E5",
"%w	c #FBF4E7",
"%x	c #FBF4F3",
"%y	c #FBF7F9",
"%z	c #FBF8FE",
"%{	c #FBF9FB",
"%|	c #FBF9FC",
"%}	c #FBF9FD",
"%~	c #FBFCFF",
"& 	c #FCF7FD",
"&!	c #FCF8F5",
"&#	c #FCF8FA",
"&$	c #FCF8FC",
"&%	c #FCF9EA",
"&&	c #FCFBFD",
"&'	c #FCFBFF",
"&(	c #FDF7E8",
"&)	c #FDF8F6",
"&*	c #FDF8FB",
"&+	c #FDF9FC",
"&,	c #FDF9FE",
"&-	c #FDFAFD",
"&.	c #FDFAFE",
"&/	c #FDFAFF",
"&0	c #FDFBFC",
"&1	c #FDFBFE",
"&2	c #FDFDFF",
"&3	c #FEF7F7",
"&4	c #FEF7FD",
"&5	c #FEF8FE",
"&6	c #FEF9FE",
"&7	c #FEFAFC",
"&8	c #FEFAFE",
"&9	c #FEFAFF",
"&:	c #FEFBFF",
"&;	c #FFF9FB",
"&<	c #FFF9FC",
"&=	c #FFF9FD",
"&>	c #FFF9FF",
"&?	c #FFFAFD",
"&@	c #FFFAFF",
"&A	c #FFFCFE",
"#I#N#O#?#@#B#B#C#U$0$_$L#{#j#F!o!n!B! !)!I!l!m!Q",
"#:#<#'#&# !r!s!t!u!v#Q#v!R | y x w h ` ` t!,!5!!",
"#.#0##!}!h!N!P!k![!(!4$6#+ m j l x v k u!#!.!-!!",
"#!#2#1#$!i!M!O!Z!G p X#z!a d l l x z!#!*!+!-!$ ~",
"#$#=#3#%!j!H!?!8 n L!A$|!E T b c l { {!$!$!$ w s",
"#L#(!]#)!@ r W D - g$O%a#6 N H J O S S a a i _ Z",
"$h$&$-%K%n%o%`%q%q%~&&%p%_!C ; @ B A A R Y Q G :",
"%g%2${$z%C%V%Z%[%l%Z%2%3&A$% 9 . 3 8 9 ? 7 / % *",
"$d$R$=$?$F$I$b$]$H$G$!#u&7%y!9 2 ) $ ' ( + 5 I F",
"$@$<$S$a$[$>$D$D$5$B$ !x%j&1%z%]%Y$i$7$8$j%N%7%6",
"$F$<$>$E$[$Z$r$r$_$_$$#P&)&!%A%u&(&%%k%G$J$1#x#]",
"$c$>$>$>$[$o$s$s$a$e$)#n&?%t$.$P$Q$/#m#i#A#/!Y f",
"$x$Y$Y$D$[$o$o$t$b$w#}#a&>%c#l#f#^#_#S#>!~!|!L V",
"$C%+$`$`$s%&$~%'%'%:$(#b&@%d#T#M#K#R#J#-!q!{!K M",
"#[#t$*$;$X$q$n%8%%%9$'#y&<%r#h#;#8#9#,!b!U!b!: ]",
"#~#d#Z#Y#X#q#r#|#p#w#D#W&3%s#k#H#7!{!d!T!S!W!; q",
"%H%H%4%F%@%=$g$f$f%0$u%D&-%b#g#G!z!f!V!T!T!e!< ^",
"%L%{&/&8&:&.&.&/&/&9&=&;&0$9#4!y!f!c!c!U!X!g!= E",
"!p#*$M%E%h&$&#&+& & &4&6%}$,!}!J!7!'!3!&!2!> o 6",
" 1 C!/!D!6!`%X%f$y%1%R%T%^%5$:#`#5!w#E#V#o#s#c#e",
" [ e!1!% > &%I%S$l$T$k$U%.%e%x&*&8&6&5&6&,&'&2&?",
"!^ e!0 } K <%M%w%<%!% $m$}%P%O$~%,%>%W&+%|%J%?%Q",
"!_ 0 P U 4 =%g%v%;%)%($m$m$m$}%!$p$A$2%U%m%/%$%#",
"!F   # , ! 0$N%B$3$#$W$^$V$m%!%)$v$4$+$K%i%-%*%*"};
