/* XPM */
static char *10[] = {
"24 24 496 2",
"  	c #C6BAA9",
" !	c #CCBFAE",
" #	c #CEC5B4",
" $	c #CFC3B4",
" %	c #CFC5B6",
" &	c #CFC5BA",
" '	c #CFC7BA",
" (	c #CFC7BC",
" )	c #CFC8BB",
" *	c #D0C7BC",
" +	c #D1C8BA",
" ,	c #D1C8BC",
" -	c #D1C9BE",
" .	c #D2CAC1",
" /	c #D3C8BD",
" 0	c #D3CABB",
" 1	c #D3CBBD",
" 2	c #D3CCC1",
" 3	c #D4C8B9",
" 4	c #D4C8BA",
" 5	c #D4CABC",
" 6	c #D4CBC0",
" 7	c #D4CCC1",
" 8	c #D4CCC3",
" 9	c #D4CDC2",
" :	c #D5C8BA",
" ;	c #D5C9B8",
" <	c #D5C9BD",
" =	c #D5CDC2",
" >	c #D6CEC1",
" ?	c #D7D0C5",
" @	c #D7D0C7",
" A	c #D8CDBC",
" B	c #D8CDBF",
" C	c #D8D0C6",
" D	c #D8D2CA",
" E	c #D9CBBE",
" F	c #D9CCC0",
" G	c #D9CEBE",
" H	c #D9CEBF",
" I	c #D9D1C9",
" J	c #D9D2C7",
" K	c #DACDBD",
" L	c #DACEC0",
" M	c #DACFBF",
" N	c #DAD0BF",
" O	c #DAD4C9",
" P	c #DBBC8A",
" Q	c #DBD0BD",
" R	c #DBD1C4",
" S	c #DBD4CA",
" T	c #DBD4CB",
" U	c #DBD5CC",
" V	c #DBD6CE",
" W	c #DCBA91",
" X	c #DCCFBE",
" Y	c #DCD0BF",
" Z	c #DCD0C2",
" [	c #DCD1C2",
" ]	c #DCD2C2",
" ^	c #DCD2C3",
" _	c #DCD5CC",
" `	c #DCD6CF",
" a	c #DDBA90",
" b	c #DDBB91",
" c	c #DDD1C2",
" d	c #DDD2C2",
" e	c #DDD7D0",
" f	c #DEC49D",
" g	c #DED1C1",
" h	c #DED7D0",
" i	c #DFBD8A",
" j	c #DFBD8E",
" k	c #DFBE91",
" l	c #DFBF93",
" m	c #DFBF97",
" n	c #DFC39D",
" o	c #DFD0BF",
" p	c #DFD1C0",
" q	c #DFD7CF",
" r	c #DFD8CF",
" s	c #DFD8D0",
" t	c #E0BF92",
" u	c #E0C090",
" v	c #E0D3C2",
" w	c #E0D8D0",
" x	c #E1BC8E",
" y	c #E1C090",
" z	c #E1C298",
" {	c #E1D4C4",
" |	c #E2BF90",
" }	c #E2C08C",
" ~	c #E2C294",
"! 	c #E2C395",
"!!	c #E2D5C4",
"!#	c #E2DCD5",
"!$	c #E3C190",
"!%	c #E3CBA0",
"!&	c #E3DCD7",
"!'	c #E3DDD5",
"!(	c #E3DED9",
"!)	c #E4C190",
"!*	c #E4C191",
"!+	c #E4C292",
"!,	c #E4C293",
"!-	c #E4C491",
"!.	c #E4C592",
"!/	c #E4C797",
"!0	c #E5C599",
"!1	c #E5CBA2",
"!2	c #E5CEBD",
"!3	c #E5DDD9",
"!4	c #E5DFD9",
"!5	c #E5E0DD",
"!6	c #E6CFAF",
"!7	c #E6E1DD",
"!8	c #E7C391",
"!9	c #E7C593",
"!:	c #E7C699",
"!;	c #E7C69A",
"!<	c #E7C797",
"!=	c #E7C799",
"!>	c #E7C898",
"!?	c #E7C899",
"!@	c #E7E1DD",
"!A	c #E8C695",
"!B	c #E8C799",
"!C	c #E8C892",
"!D	c #E8C899",
"!E	c #E8CA97",
"!F	c #E8CA9A",
"!G	c #E8DBCA",
"!H	c #E8E3DE",
"!I	c #E9C68F",
"!J	c #E9C796",
"!K	c #E9C797",
"!L	c #E9C798",
"!M	c #E9C997",
"!N	c #E9CA96",
"!O	c #E9CB9A",
"!P	c #E9D2A5",
"!Q	c #E9D5B4",
"!R	c #E9DCCD",
"!S	c #E9DCCE",
"!T	c #E9E0D8",
"!U	c #E9E2D7",
"!V	c #E9E5DE",
"!W	c #EAC799",
"!X	c #EAC898",
"!Y	c #EAC899",
"!Z	c #EAC998",
"![	c #EAC999",
"!]	c #EAD6C4",
"!^	c #EAD7BA",
"!_	c #EAD8B9",
"!`	c #EAD9B9",
"!a	c #EAD9BB",
"!b	c #EADFCE",
"!c	c #EAE5DD",
"!d	c #EAE5DE",
"!e	c #EAE5E2",
"!f	c #EAE6DF",
"!g	c #EBC899",
"!h	c #EBC995",
"!i	c #EBC998",
"!j	c #EBC999",
"!k	c #EBCA96",
"!l	c #EBCA99",
"!m	c #EBCA9A",
"!n	c #EBCA9E",
"!o	c #EBCB94",
"!p	c #EBCB99",
"!q	c #EBCB9A",
"!r	c #EBCD95",
"!s	c #EBCE9B",
"!t	c #EBD6B9",
"!u	c #EBD9BC",
"!v	c #EBD9C1",
"!w	c #EBDED1",
"!x	c #EBE4DE",
"!y	c #EBE5E3",
"!z	c #ECC995",
"!{	c #ECC997",
"!|	c #ECCA95",
"!}	c #ECCA97",
"!~	c #ECCA98",
"# 	c #ECCB95",
"#!	c #ECCB97",
"##	c #ECCB98",
"#$	c #ECCB99",
"#%	c #ECCB9F",
"#&	c #ECCC99",
"#'	c #ECCD98",
"#(	c #ECCE96",
"#)	c #ECCE9D",
"#*	c #ECD8BA",
"#+	c #ECDCCD",
"#,	c #ECDFCE",
"#-	c #ECE6E4",
"#.	c #ECE7E1",
"#/	c #EDCC9A",
"#0	c #EDCD97",
"#1	c #EDD19A",
"#2	c #EDD29D",
"#3	c #EDE8E2",
"#4	c #EDE9E5",
"#5	c #EECE9B",
"#6	c #EECF9A",
"#7	c #EED19B",
"#8	c #EED1A0",
"#9	c #EED29C",
"#:	c #EED6AF",
"#;	c #EED7B3",
"#<	c #EEDDCC",
"#=	c #EEDECF",
"#>	c #EEE0C4",
"#?	c #EEE0C9",
"#@	c #EEE7E1",
"#A	c #EFCEA2",
"#B	c #EFCF97",
"#C	c #EFCF9A",
"#D	c #EFD19B",
"#E	c #EFD3A4",
"#F	c #EFD7A1",
"#G	c #EFDDBF",
"#H	c #EFDFC6",
"#I	c #EFE0CE",
"#J	c #EFE5CE",
"#K	c #EFEBE6",
"#L	c #F0CFA0",
"#M	c #F0D09A",
"#N	c #F0D198",
"#O	c #F0D1A1",
"#P	c #F0D1A2",
"#Q	c #F0D9B1",
"#R	c #F0DEC7",
"#S	c #F0DFCD",
"#T	c #F0E3CC",
"#U	c #F0E6D0",
"#V	c #F0E7CF",
"#W	c #F0ECE8",
"#X	c #F0EDEA",
"#Y	c #F1D6A5",
"#Z	c #F1DAAE",
"#[	c #F1DDB5",
"#]	c #F1DDB9",
"#^	c #F1DEB9",
"#_	c #F1DFB1",
"#`	c #F1E4CC",
"#a	c #F1E5D1",
"#b	c #F1E7D0",
"#c	c #F1E7D2",
"#d	c #F1E7D4",
"#e	c #F1E8D5",
"#f	c #F1E8DD",
"#g	c #F2D3A1",
"#h	c #F2D5A0",
"#i	c #F2E0B3",
"#j	c #F2E2CB",
"#k	c #F2E4DA",
"#l	c #F2E4DC",
"#m	c #F2E5D3",
"#n	c #F2E6D1",
"#o	c #F2E7D3",
"#p	c #F2E7D4",
"#q	c #F2E8DF",
"#r	c #F2EEE9",
"#s	c #F3D39D",
"#t	c #F3DBA5",
"#u	c #F3DCB0",
"#v	c #F3E2CF",
"#w	c #F3E3BB",
"#x	c #F3E5DB",
"#y	c #F3E6DF",
"#z	c #F3E8D4",
"#{	c #F3E8D5",
"#|	c #F3E9D5",
"#}	c #F3EAD3",
"#~	c #F3EAD4",
"$ 	c #F3EAE0",
"$!	c #F4D8A2",
"$#	c #F4DDC8",
"$$	c #F4E0AF",
"$%	c #F4E7C5",
"$&	c #F4E7D3",
"$'	c #F4E7D5",
"$(	c #F4E9D6",
"$)	c #F4EAD4",
"$*	c #F4EAD6",
"$+	c #F4EBD6",
"$,	c #F4EBDB",
"$-	c #F4EBDF",
"$.	c #F4EBE5",
"$/	c #F4ECE1",
"$0	c #F4EDE6",
"$1	c #F4F0EE",
"$2	c #F4F1EF",
"$3	c #F4F5F5",
"$4	c #F5DCA6",
"$5	c #F5DCA7",
"$6	c #F5DDAA",
"$7	c #F5DEB3",
"$8	c #F5E2B6",
"$9	c #F5E5C8",
"$:	c #F5E9D6",
"$;	c #F5EAD2",
"$<	c #F5EAD7",
"$=	c #F5EAE0",
"$>	c #F5EBD4",
"$?	c #F5EBD5",
"$@	c #F5EBD7",
"$A	c #F5EBD8",
"$B	c #F5EBD9",
"$C	c #F5EBDA",
"$D	c #F5ECD6",
"$E	c #F5ECD7",
"$F	c #F5ECD9",
"$G	c #F5ECDB",
"$H	c #F5EDDB",
"$I	c #F5EDE0",
"$J	c #F5EDE1",
"$K	c #F5EEDC",
"$L	c #F5EEE5",
"$M	c #F5EEE7",
"$N	c #F5EFE1",
"$O	c #F5EFE6",
"$P	c #F5EFEA",
"$Q	c #F5F0E9",
"$R	c #F5F1E7",
"$S	c #F5F2EC",
"$T	c #F5F3F1",
"$U	c #F5F4EE",
"$V	c #F6DEAC",
"$W	c #F6E6C2",
"$X	c #F6EADF",
"$Y	c #F6EBD8",
"$Z	c #F6EBD9",
"$[	c #F6ECD7",
"$]	c #F6ECD8",
"$^	c #F6ECD9",
"$_	c #F6ECDA",
"$`	c #F6ECE1",
"$a	c #F6ECE2",
"$b	c #F6ECE5",
"$c	c #F6EDD6",
"$d	c #F6EDD9",
"$e	c #F6EDDA",
"$f	c #F6EEDA",
"$g	c #F6EEDD",
"$h	c #F6EFE4",
"$i	c #F6F0EA",
"$j	c #F6F1E7",
"$k	c #F6F1F0",
"$l	c #F6F3EC",
"$m	c #F6F4F6",
"$n	c #F6F6F5",
"$o	c #F6F7F8",
"$p	c #F7E8CA",
"$q	c #F7EBE7",
"$r	c #F7ECD4",
"$s	c #F7ECD5",
"$t	c #F7ECD6",
"$u	c #F7ECDA",
"$v	c #F7EDD6",
"$w	c #F7EDDA",
"$x	c #F7EDDC",
"$y	c #F7EED9",
"$z	c #F7EEE5",
"${	c #F7EFE7",
"$|	c #F7EFE9",
"$}	c #F7F0E2",
"$~	c #F7F0E9",
"% 	c #F7F1EB",
"%!	c #F7F1EE",
"%#	c #F7F1F2",
"%$	c #F7F2E9",
"%%	c #F7F2ED",
"%&	c #F7F2F2",
"%'	c #F7F3EC",
"%(	c #F7F3F0",
"%)	c #F7F3F2",
"%*	c #F7F4F6",
"%+	c #F7F6F7",
"%,	c #F7F8FA",
"%-	c #F8DEAB",
"%.	c #F8E6BC",
"%/	c #F8E9C1",
"%0	c #F8EFE3",
"%1	c #F8F0E8",
"%2	c #F8F1EB",
"%3	c #F8F1EC",
"%4	c #F8F3F2",
"%5	c #F8F4EC",
"%6	c #F8F4F2",
"%7	c #F8F6F8",
"%8	c #F8F7F7",
"%9	c #F8F7FB",
"%:	c #F9EEE1",
"%;	c #F9F1E7",
"%<	c #F9F1E8",
"%=	c #F9F1EB",
"%>	c #F9F2E7",
"%?	c #F9F2EB",
"%@	c #F9F2F1",
"%A	c #F9F3EB",
"%B	c #F9F3EC",
"%C	c #F9F3F0",
"%D	c #F9F3F1",
"%E	c #F9F4EE",
"%F	c #F9F4F7",
"%G	c #F9F5F0",
"%H	c #F9F6EA",
"%I	c #F9F6F2",
"%J	c #F9F6F5",
"%K	c #F9F6F7",
"%L	c #F9F6FC",
"%M	c #F9F8FA",
"%N	c #F9F8FC",
"%O	c #FAE6B9",
"%P	c #FAF2E9",
"%Q	c #FAF3E9",
"%R	c #FAF3ED",
"%S	c #FAF3F1",
"%T	c #FAF4F0",
"%U	c #FAF5ED",
"%V	c #FAF5F0",
"%W	c #FAF5F1",
"%X	c #FAF5F2",
"%Y	c #FAF6F7",
"%Z	c #FAF6F9",
"%[	c #FAF6FA",
"%]	c #FAF7F7",
"%^	c #FAF7F9",
"%_	c #FAF7FC",
"%`	c #FAF7FD",
"%a	c #FAF8F1",
"%b	c #FAF8F4",
"%c	c #FAF8F8",
"%d	c #FAF8F9",
"%e	c #FAF8FA",
"%f	c #FAF8FB",
"%g	c #FAF9F3",
"%h	c #FAF9F9",
"%i	c #FBF2EF",
"%j	c #FBF6F9",
"%k	c #FBF7F3",
"%l	c #FBF7F7",
"%m	c #FBF7F8",
"%n	c #FBF7F9",
"%o	c #FBF7FD",
"%p	c #FBF8F4",
"%q	c #FBF8F8",
"%r	c #FBF8F9",
"%s	c #FBF8FA",
"%t	c #FBF8FB",
"%u	c #FBF8FD",
"%v	c #FBF8FF",
"%w	c #FBF9F9",
"%x	c #FBF9FA",
"%y	c #FBF9FB",
"%z	c #FBF9FC",
"%{	c #FBF9FD",
"%|	c #FCF5EF",
"%}	c #FCF6EE",
"%~	c #FCF7F1",
"& 	c #FCF7F5",
"&!	c #FCF7F9",
"&#	c #FCF8F8",
"&$	c #FCF8F9",
"&%	c #FCF8FB",
"&&	c #FCF9F9",
"&'	c #FCF9FC",
"&(	c #FCF9FE",
"&)	c #FCFAF8",
"&*	c #FCFAFC",
"&+	c #FCFAFE",
"&,	c #FCFBFB",
"&-	c #FCFBFC",
"&.	c #FDF8F5",
"&/	c #FDF8F9",
"&0	c #FDF8FA",
"&1	c #FDF9F7",
"&2	c #FDF9FA",
"&3	c #FDFAFF",
"&4	c #FDFBFE",
"&5	c #FDFCFE",
"&6	c #FDFCFF",
"&7	c #FDFDFD",
"&8	c #FDFEFD",
"&9	c #FEFBFF",
"&:	c #FEFCFE",
"&;	c #FEFEF8",
"&<	c #FFFBFC",
"&=	c #FFFCFF",
"&>	c #FFFEFC",
"&?	c #FFFEFF",
" { p o v!!!S$|%}$;$7#D!o!r#6#E#u#i#_$$$5#^&.#m#$",
" g Y X Y Q K%3%|#G%-#M!|# #!#'#C#D#7#2#1!P&,#R!N",
" d d [ ] N E$k%%#*$V#5!{!}!~###$#&!q!O!E!1&?#v!?",
" d c [ [ M F%)%'#]#Y#/!i!i!i!i!l!m![!<!. z&?$&!>",
" c c Z ^ A B%r$~#:#)!p!Y![!j![!Z!X!J!9 } m&9%:#%",
" L L G H ; R&+$ !%!F!D!=!:!W!L!K!A!8!) i n&<&1$#",
" 4 : 3 % #!x%o#f f k ~!  t!*!+!, | x j P!6&>&?&-",
" $ !   ,!c%Y%f$T!w!2!]#=#+#<#S#I#,!G!R!b$M&5&6&:",
" < / w%6&)%r%b%G%E%3%C%{&3%u%M%8$n$3%,$o%+%*%K%!",
"%N%Z&!&0&#%R$g$_$u$A#z$/%h%9$m#W!H!7!5!@!(!##K$O",
"%q&$%S%?%0$w$c$[$?#~#b#p%p&*%7!e ` s h r O =!d%5",
"$-%B$I$H$d$E$D$D$+#~#V#U%k&+%t#4 U T _ S @ .!4%~",
"$b%Q$K$f$d$[$[$@$*#|#b#b%T&'%^#X V @ ? J C 6!&%U",
"%i%;$F$e$d$]$Y$Y$A$<#z#c%D&%%d$1 V 8 2 9 7 *!#%$",
"&/${$A$^$^$^$Y$Y$A$A#{#d%(%y%s$2 D - ( ) ' &!'$L",
"&7%1$@$u$u$^$B$Z$Y$<#o#e%'%z%e$2 I 1 5 0 + >#@$0",
"&4%P$>$e$x$G$C$C$Z$:#n#e$j%x%e%&!y#-#.!V!f#r%I$S",
"%@%>#`#a$($B$_$B$'#j#H#T$N%d%^%k%g&8&;%a$U%]%b$l",
"$q%<#?!v!^!`!a!u!t!Q!_#>$J%m%s$}$%%/%O$6#;%A%W#3",
"%j&2%V%2$.#q$=$a$h$z$`$z%4&&%X#Q#0#s#h#(!/$X%  e",
"&1& %l%]%[%L%v&3&=&(%F%#$Q%H$p!C!I!z!M!- l#x$i q",
"$y$^$Y$<$Z$,$R%c%w$9#Z#[#w%.$4# !h!g!B!$ b#k%=!T",
"$r$v$t$c$)#J%$&%%n$8#N#9#F#t$!#g#L#%!; y a#l%A!U",
"$s$v$v$c#}#U%J%`%_$W#B!k!s#8#O#P#A!n!0 u W#y$P!3"};
