/* XPM */
static char *11[] = {
"24 24 524 2",
"  	c #745C42",
" !	c #755F42",
" #	c #765D44",
" $	c #766143",
" %	c #775F41",
" &	c #776043",
" '	c #785E43",
" (	c #785F43",
" )	c #785F44",
" *	c #786044",
" +	c #786045",
" ,	c #795F43",
" -	c #796043",
" .	c #796146",
" /	c #796245",
" 0	c #7A6246",
" 1	c #7B6045",
" 2	c #7B6244",
" 3	c #7F6548",
" 4	c #84674A",
" 5	c #84694C",
" 6	c #8B6D4E",
" 7	c #917352",
" 8	c #99836B",
" 9	c #9B7C5A",
" :	c #9C7F5D",
" ;	c #9F815D",
" <	c #A0825F",
" =	c #A1815D",
" >	c #A28460",
" ?	c #A48560",
" @	c #A5855F",
" A	c #A68762",
" B	c #A78861",
" C	c #A88962",
" D	c #A98B65",
" E	c #AB8C65",
" F	c #AB8F69",
" G	c #AC906E",
" H	c #AC9374",
" I	c #AD926C",
" J	c #AD997F",
" K	c #AE8F67",
" L	c #AF8E68",
" M	c #AF936C",
" N	c #B19673",
" O	c #B99569",
" P	c #B9A082",
" Q	c #BB9465",
" R	c #C0A486",
" S	c #C29A6B",
" T	c #C69E6E",
" U	c #C7A272",
" V	c #C8A16F",
" W	c #C8A270",
" X	c #C8A271",
" Y	c #C8A273",
" Z	c #C8A374",
" [	c #C8A474",
" ]	c #C9A16F",
" ^	c #C9A273",
" _	c #C9A373",
" `	c #C9A374",
" a	c #C9A474",
" b	c #C9A475",
" c	c #C9A576",
" d	c #CAA270",
" e	c #CAA375",
" f	c #CAA475",
" g	c #CAA576",
" h	c #CAA677",
" i	c #CAAF94",
" j	c #CAB49A",
" k	c #CAC3B8",
" l	c #CBA373",
" m	c #CBA574",
" n	c #CBA577",
" o	c #CBA678",
" p	c #CBA778",
" q	c #CBC3B8",
" r	c #CCA571",
" s	c #CCA778",
" t	c #CCA779",
" u	c #CDA571",
" v	c #CDA676",
" w	c #CDA778",
" x	c #CDA87A",
" y	c #CDA97B",
" z	c #CDC5BB",
" {	c #CEA979",
" |	c #CEAA7C",
" }	c #CEC5BB",
" ~	c #CFA774",
"! 	c #CFAA7B",
"!!	c #CFAB7B",
"!#	c #CFC8BD",
"!$	c #D0A979",
"!%	c #D1A976",
"!&	c #D1AD7E",
"!'	c #D1AE7F",
"!(	c #D1CAC1",
"!)	c #D2C9BB",
"!*	c #D2C9C0",
"!+	c #D3A977",
"!,	c #D3AA79",
"!-	c #D3AD7C",
"!.	c #D3AE7D",
"!/	c #D3AF7F",
"!0	c #D3AF80",
"!1	c #D3B080",
"!2	c #D3B082",
"!3	c #D3B590",
"!4	c #D3CBC0",
"!5	c #D4BA9F",
"!6	c #D4CEC3",
"!7	c #D5AD7B",
"!8	c #D5B082",
"!9	c #D5B183",
"!:	c #D5B283",
"!;	c #D5B894",
"!<	c #D5CFC4",
"!=	c #D6AC79",
"!>	c #D6B07F",
"!?	c #D6B181",
"!@	c #D6B182",
"!A	c #D6B793",
"!B	c #D6CEC5",
"!C	c #D7B383",
"!D	c #D7B387",
"!E	c #D7B485",
"!F	c #D7B486",
"!G	c #D7B689",
"!H	c #D7CEC4",
"!I	c #D8B27F",
"!J	c #D8B485",
"!K	c #D8B588",
"!L	c #D8B688",
"!M	c #D8D0C6",
"!N	c #D8D1C9",
"!O	c #D8D2CB",
"!P	c #D8D4CB",
"!Q	c #D9B17F",
"!R	c #D9B281",
"!S	c #D9B383",
"!T	c #D9D0C5",
"!U	c #D9D2C9",
"!V	c #DAB37F",
"!W	c #DAB380",
"!X	c #DAB482",
"!Y	c #DAB581",
"!Z	c #DABF9D",
"![	c #DAD2C8",
"!]	c #DAD4CC",
"!^	c #DBB787",
"!_	c #DBB88A",
"!`	c #DBD4CD",
"!a	c #DCB381",
"!b	c #DCB581",
"!c	c #DCB682",
"!d	c #DCB685",
"!e	c #DCB783",
"!f	c #DCB888",
"!g	c #DCB98E",
"!h	c #DCBA8C",
"!i	c #DDB682",
"!j	c #DDB886",
"!k	c #DDB987",
"!l	c #DDBA8C",
"!m	c #DDBB8F",
"!n	c #DDC4AD",
"!o	c #DEBA8C",
"!p	c #DEBC8F",
"!q	c #DEBD8C",
"!r	c #DFBD8D",
"!s	c #DFBF93",
"!t	c #DFBF95",
"!u	c #DFD9D2",
"!v	c #E0BC8B",
"!w	c #E0BC8C",
"!x	c #E0BC8D",
"!y	c #E0BD8C",
"!z	c #E0BD8E",
"!{	c #E0BD8F",
"!|	c #E0BD90",
"!}	c #E0BE91",
"!~	c #E0BF8E",
"# 	c #E0BF8F",
"#!	c #E0C099",
"##	c #E0C8A9",
"#$	c #E0CCB6",
"#%	c #E0DAD4",
"#&	c #E0DBD4",
"#'	c #E0DCD5",
"#(	c #E1BD8D",
"#)	c #E1BE8A",
"#*	c #E1BE8C",
"#+	c #E1BF91",
"#,	c #E1BF92",
"#-	c #E1C192",
"#.	c #E1C194",
"#/	c #E1C492",
"#0	c #E1CAAB",
"#1	c #E1DBD4",
"#2	c #E2BF8E",
"#3	c #E2C08C",
"#4	c #E2C08D",
"#5	c #E2C093",
"#6	c #E2C094",
"#7	c #E2DCD4",
"#8	c #E3CAAA",
"#9	c #E3DED6",
"#:	c #E4C497",
"#;	c #E4CAAB",
"#<	c #E4CEB1",
"#=	c #E5C99D",
"#>	c #E5CBB6",
"#?	c #E5CEB0",
"#@	c #E5D4C2",
"#A	c #E6C390",
"#B	c #E6C692",
"#C	c #E6C69A",
"#D	c #E6C791",
"#E	c #E6C897",
"#F	c #E6CBAA",
"#G	c #E6E0D7",
"#H	c #E6E0D9",
"#I	c #E7C691",
"#J	c #E7C694",
"#K	c #E7C791",
"#L	c #E7C89A",
"#M	c #E7C89C",
"#N	c #E7E2DB",
"#O	c #E8C795",
"#P	c #E8C892",
"#Q	c #E8C89B",
"#R	c #E8C89E",
"#S	c #E8C99C",
"#T	c #E8C9A6",
"#U	c #E8D1A8",
"#V	c #E8D6B3",
"#W	c #E8D9C7",
"#X	c #E8DEC9",
"#Y	c #E8E1D5",
"#Z	c #E9C892",
"#[	c #E9C893",
"#]	c #E9C995",
"#^	c #E9C99D",
"#_	c #E9CA9C",
"#`	c #E9CA9D",
"#a	c #E9CA9E",
"#b	c #E9CB9D",
"#c	c #E9CD9C",
"#d	c #E9D1A8",
"#e	c #E9D8C4",
"#f	c #E9DCC3",
"#g	c #E9DCC9",
"#h	c #EAC99B",
"#i	c #EAC99C",
"#j	c #EACA99",
"#k	c #EACA9E",
"#l	c #EACA9F",
"#m	c #EACB96",
"#n	c #EACB97",
"#o	c #EACB98",
"#p	c #EACB9E",
"#q	c #EACBA0",
"#r	c #EACBA1",
"#s	c #EACC98",
"#t	c #EACC9E",
"#u	c #EADEC7",
"#v	c #EAE4DF",
"#w	c #EAE5DB",
"#x	c #EAE5DF",
"#y	c #EBC99A",
"#z	c #EBCA9D",
"#{	c #EBCBA0",
"#|	c #EBCCA1",
"#}	c #EBCCA3",
"#~	c #EBCD9E",
"$ 	c #EBCDA0",
"$!	c #EBCE9E",
"$#	c #EBCEA2",
"$$	c #EBD6B9",
"$%	c #EBD8C8",
"$&	c #ECC898",
"$'	c #ECCA9C",
"$(	c #ECCC9D",
"$)	c #ECCFA0",
"$*	c #ECD0A0",
"$+	c #ECD1A3",
"$,	c #ECD3A1",
"$-	c #ECD5A3",
"$.	c #ECD8B9",
"$/	c #ECDBBE",
"$0	c #ECDEC3",
"$1	c #ECDFC6",
"$2	c #ECE5DD",
"$3	c #EDCE98",
"$4	c #EDCE99",
"$5	c #EDCE9A",
"$6	c #EDD0A2",
"$7	c #EDD19E",
"$8	c #EDD4A4",
"$9	c #EDD5A1",
"$:	c #EDD6AE",
"$;	c #EDDAB6",
"$<	c #EDDBBD",
"$=	c #EDDEBF",
"$>	c #EECCAA",
"$?	c #EED19A",
"$@	c #EED19B",
"$A	c #EED29A",
"$B	c #EED9BB",
"$C	c #EEDDC3",
"$D	c #EEDEC1",
"$E	c #EEDEC4",
"$F	c #EEDFC3",
"$G	c #EEE0C9",
"$H	c #EEE1C7",
"$I	c #EEE1CA",
"$J	c #EFD39C",
"$K	c #EFD7A7",
"$L	c #EFD8AD",
"$M	c #EFD9A6",
"$N	c #EFDAA9",
"$O	c #EFDAB8",
"$P	c #EFDBAE",
"$Q	c #EFDEBC",
"$R	c #EFE1C6",
"$S	c #EFE1CA",
"$T	c #EFE1CD",
"$U	c #EFE7D9",
"$V	c #EFEBDF",
"$W	c #EFEBEC",
"$X	c #EFECE9",
"$Y	c #F0D5A1",
"$Z	c #F0D8A8",
"$[	c #F0DAA7",
"$]	c #F0DAA9",
"$^	c #F0E1C9",
"$_	c #F0E8DF",
"$`	c #F0ECE6",
"$a	c #F1D6A1",
"$b	c #F1D7A2",
"$c	c #F1D8A2",
"$d	c #F1D8AF",
"$e	c #F1DAA9",
"$f	c #F1DAB2",
"$g	c #F1DDB5",
"$h	c #F1DDBC",
"$i	c #F1E1C2",
"$j	c #F1E3D1",
"$k	c #F1E4CF",
"$l	c #F1E7D6",
"$m	c #F1E8DC",
"$n	c #F1E9E0",
"$o	c #F1EDE5",
"$p	c #F1EDEB",
"$q	c #F2DCAA",
"$r	c #F2DDAD",
"$s	c #F2E0B5",
"$t	c #F2E1C6",
"$u	c #F2E4D0",
"$v	c #F2E4D4",
"$w	c #F2E5CB",
"$x	c #F2E7CD",
"$y	c #F2E7DA",
"$z	c #F2EADE",
"${	c #F2EDE8",
"$|	c #F3DDBD",
"$}	c #F3DFB0",
"$~	c #F3DFB9",
"% 	c #F3E0BB",
"%!	c #F3E2C0",
"%#	c #F3E5CC",
"%$	c #F3E6CA",
"%%	c #F3E6CD",
"%&	c #F3E8D2",
"%'	c #F3E8D9",
"%(	c #F3E9D6",
"%)	c #F3EBDE",
"%*	c #F3EDE4",
"%+	c #F3EEE6",
"%,	c #F3EFEE",
"%-	c #F4DBB0",
"%.	c #F4E1B4",
"%/	c #F4E6C9",
"%0	c #F4E8CC",
"%1	c #F4E8D1",
"%2	c #F4E8D2",
"%3	c #F4E9D0",
"%4	c #F4E9D6",
"%5	c #F4E9D8",
"%6	c #F4E9D9",
"%7	c #F4E9DC",
"%8	c #F4EAD0",
"%9	c #F4EAD1",
"%:	c #F4EAD2",
"%;	c #F4EAD4",
"%<	c #F4EAD5",
"%=	c #F4EAD6",
"%>	c #F4EAD7",
"%?	c #F4EAD8",
"%@	c #F4EADA",
"%A	c #F4EBD3",
"%B	c #F4EBD9",
"%C	c #F4EBDA",
"%D	c #F4EDE6",
"%E	c #F5E3C5",
"%F	c #F5E5C9",
"%G	c #F5E9CF",
"%H	c #F5E9D0",
"%I	c #F5EAD4",
"%J	c #F5EAD7",
"%K	c #F5EAD8",
"%L	c #F5EADD",
"%M	c #F5EBD7",
"%N	c #F5EBD8",
"%O	c #F5EBD9",
"%P	c #F5EBDC",
"%Q	c #F5ECDA",
"%R	c #F5ECDB",
"%S	c #F5ECDD",
"%T	c #F5ECDE",
"%U	c #F5ECE3",
"%V	c #F5EDE5",
"%W	c #F5EFE8",
"%X	c #F5EFEA",
"%Y	c #F5F6FB",
"%Z	c #F6DDB4",
"%[	c #F6E5D3",
"%]	c #F6E9D4",
"%^	c #F6EAD1",
"%_	c #F6EAD3",
"%`	c #F6EAD7",
"%a	c #F6EAD8",
"%b	c #F6EBD1",
"%c	c #F6EBD4",
"%d	c #F6EBD7",
"%e	c #F6EBD8",
"%f	c #F6ECD2",
"%g	c #F6ECD6",
"%h	c #F6ECD8",
"%i	c #F6ECD9",
"%j	c #F6ECDA",
"%k	c #F6EDD5",
"%l	c #F6EDD8",
"%m	c #F6EDE1",
"%n	c #F6EEE6",
"%o	c #F6F0E9",
"%p	c #F7EAD1",
"%q	c #F7EAD7",
"%r	c #F7EADA",
"%s	c #F7EBD5",
"%t	c #F7EBD7",
"%u	c #F7EBD8",
"%v	c #F7EBDE",
"%w	c #F7ECD5",
"%x	c #F7ECD6",
"%y	c #F7ECD8",
"%z	c #F7ECD9",
"%{	c #F7EDD8",
"%|	c #F7EDE2",
"%}	c #F7EDE3",
"%~	c #F7EEE3",
"& 	c #F7F0EA",
"&!	c #F7F1E5",
"&#	c #F7F1F0",
"&$	c #F7F2EE",
"&%	c #F7F2EF",
"&&	c #F8ECD4",
"&'	c #F8EDD6",
"&(	c #F8EDD8",
"&)	c #F8EDDA",
"&*	c #F8EFE4",
"&+	c #F8F0E6",
"&,	c #F8F0EB",
"&-	c #F8F1E7",
"&.	c #F8F1EA",
"&/	c #F8F2EA",
"&0	c #F8F2EE",
"&1	c #F8F4F5",
"&2	c #F8F6F8",
"&3	c #F9EEDA",
"&4	c #F9F0E3",
"&5	c #F9F2E7",
"&6	c #F9F4EE",
"&7	c #F9F6F3",
"&8	c #F9F6FA",
"&9	c #F9F7F6",
"&:	c #F9F7FE",
"&;	c #FAEFDE",
"&<	c #FAF0DE",
"&=	c #FAF3E9",
"&>	c #FAF4EE",
"&?	c #FAF5F2",
"&@	c #FAF5F4",
"&A	c #FAF9FF",
"&B	c #FBEEDA",
"&C	c #FBF6F1",
"&D	c #FBF6F5",
"&E	c #FBF7F8",
"&F	c #FBF7F9",
"&G	c #FBF8F4",
"&H	c #FBF9FA",
"&I	c #FBFBFF",
"&J	c #FBFCFE",
"&K	c #FBFDFF",
"&L	c #FCF4EF",
"&M	c #FCF7F4",
"&N	c #FCF7F6",
"&O	c #FCF8FB",
"&P	c #FCF8FD",
"&Q	c #FCFDFF",
"&R	c #FDF8F9",
"&S	c #FDF8FC",
"&T	c #FDF8FD",
"&U	c #FDF9F6",
"&V	c #FDFAFE",
"&W	c #FEF9FD",
"&X	c #FEFAFE",
"&Y	c #FEFBFF",
"&Z	c #FFFBFE",
"&[	c #FFFCFF",
"$&$(#~$!$)$*$6$+$,$}%j${$o$l$|$d%-%.$s$P$L%Z N )",
"#y$'#p#p#b#_#t$ $##c$<$n$2#u$K$Y$a$c$b$J#o#j I !",
"#h#z#q#l#`#L#S#k#^!s#<$V#v#X$9$@$?$A$3#Z#3!~ F $",
"#Q#p#|#q#a#M#L#C#6!g###w#x#f$7#[#K#I#A!v!J!E D /",
"#i#{#}#}#r#R#:!m!D!G#$$W#H#V#s#)#*#2#(!^!1!0 A 0",
"$>#T#;#?#8!Z!;!3!A#0$p%Y#Y#U#D!e!k!w!x!^!'!/ ? .",
"&#$X%,&1&8&:&A&I&Q&K&J&2$z$O#P!c!j!y!z!l!:!@ > +",
"&M&/&-&5&=&>&C&G&G&?&,%U%T%E#]!b!d!{#,#+!l!F < *",
"%7%6%@%5%?%B%Q%C%>%&%%$^$v%F#O!W!X!o!}#5!|!L :  ",
"%@%O%K%4%(%4%=%<%A%8%$$/$u%$#J!R!S!f!_!l!h!K ; #",
"%P%K%J%J%N%e%t%x%k%k%0$.%v%^#m!I!>!C!?!8!9!2 B 5",
"%S%5%>%J%e%e%q%u%h%l$x$B&L&B$4!Y!.!&!! {!  | K 6",
"%R%e%M%J%K%a%`%u%i%{$w$C&U&;$5!c!- w c g t y L 4",
"%<%g%h%M%`%d%d%u%y&)%#$H&U&<#n!V!$ a Z b s x E 3",
"$I$S$k%2%c%s%w&&%_%]$i$E&M&3#B!7 v Y U [ n x C 2",
"$T$G$1$0$F$D$=$Q$Q$h$;$R&N%z#4!, m U U _ f p @ ,",
"$m$z%*%D%n%}%|%m%m%L$j$U&7$t!i!% r W X ^ e o = -",
"%+&%&D&F&O&V&Y&[&Z&X&R&D&G$$!Q!+ u d ] l ` h 9 1",
"#9#N$`%W&0&@&E&S&T&P&T&W&H#e!a!= ~ V T S Q O 7 -",
"!(!N#1#G#7#7%o&.&*%~&+&$&9%X$%#>!n!5 i R P j 8 &",
"!*!]#&#'!P!6%)%M%9%:%f%I%l&!&6& %V$y#g#@#W%[ J %",
"!M!`#%!u!O!<%'%;%3%G%b%_%/%!$~$f$:#d#=#.#!#F H (",
"!T!H!U![!4!)%r&'%H%G%^%p% $r$q$e$Z$8#E# !p!t G '",
"!B } q!# k z$_&4%t%1%d&($g$]$[$M$N$-#/!q!r#- M 0"};
