/* XPM */
static char *12[] = {
"24 24 492 2",
"  	c #AE9474",
" !	c #AF9169",
" #	c #AF9675",
" $	c #B0936A",
" %	c #B09469",
" &	c #B09476",
" '	c #B09971",
" (	c #B09978",
" )	c #B09A76",
" *	c #B09A78",
" +	c #B09A79",
" ,	c #B09B79",
" -	c #B19568",
" .	c #B19A76",
" /	c #B19B77",
" 0	c #B29569",
" 1	c #B2956B",
" 2	c #B29A77",
" 3	c #B3956B",
" 4	c #B3966A",
" 5	c #B3966B",
" 6	c #B3976C",
" 7	c #B39D7D",
" 8	c #B59270",
" 9	c #B79977",
" :	c #B99670",
" ;	c #BB9A74",
" <	c #BB9B78",
" =	c #BB9C77",
" >	c #BB9D78",
" ?	c #C09F71",
" @	c #C09F78",
" A	c #C0A581",
" B	c #C3A87C",
" C	c #C5A277",
" D	c #C6A979",
" E	c #C6A986",
" F	c #C6AF88",
" G	c #C6B49C",
" H	c #C8A67D",
" I	c #C8AB7F",
" J	c #C9A374",
" K	c #C9BCA7",
" L	c #CAA97E",
" M	c #CAAD81",
" N	c #CAB38A",
" O	c #CAB9A1",
" P	c #CBAE7E",
" Q	c #CBB48C",
" R	c #CBB791",
" S	c #CCAF82",
" T	c #CCB082",
" U	c #CCC4B8",
" V	c #CDB081",
" W	c #CDBDAC",
" X	c #CDBEAA",
" Y	c #CDC1B1",
" Z	c #CDC1B2",
" [	c #CDC2B3",
" ]	c #CDC2B4",
" ^	c #CDC4B7",
" _	c #CDC4B8",
" `	c #CDC5B8",
" a	c #CDC5B9",
" b	c #CEAD7E",
" c	c #CEB284",
" d	c #CEB78D",
" e	c #CEC2B3",
" f	c #CEC3B6",
" g	c #CEC4B4",
" h	c #CEC4B6",
" i	c #CEC4B8",
" j	c #CEC5B9",
" k	c #CEC5BB",
" l	c #CEC6BA",
" m	c #CEC7BC",
" n	c #CFAA7D",
" o	c #CFAE81",
" p	c #CFB284",
" q	c #CFB78D",
" r	c #CFC5B6",
" s	c #CFC5B7",
" t	c #CFC5B8",
" u	c #CFC5B9",
" v	c #CFC6B9",
" w	c #CFC6BA",
" x	c #CFC6BB",
" y	c #CFC6BC",
" z	c #CFC7B7",
" {	c #CFC7BB",
" |	c #CFC8B9",
" }	c #D0B88E",
" ~	c #D0C7BA",
"! 	c #D0C7BC",
"!!	c #D0C7BD",
"!#	c #D0C8BC",
"!$	c #D0C8BD",
"!%	c #D0C8BE",
"!&	c #D0C9BB",
"!'	c #D0C9BC",
"!(	c #D1B990",
"!)	c #D1C7BC",
"!*	c #D1C7BD",
"!+	c #D1C9BD",
"!,	c #D1C9BF",
"!-	c #D2B184",
"!.	c #D2B589",
"!/	c #D2BA91",
"!0	c #D2C8BE",
"!1	c #D2C9BE",
"!2	c #D2CABD",
"!3	c #D2CAC0",
"!4	c #D2CAC1",
"!5	c #D2CBBD",
"!6	c #D3C9BB",
"!7	c #D3CABB",
"!8	c #D3CBBE",
"!9	c #D3CBC0",
"!:	c #D3CBC1",
"!;	c #D3CCBF",
"!<	c #D3CCC0",
"!=	c #D3CCC2",
"!>	c #D3CDC1",
"!?	c #D4C9BB",
"!@	c #D4CBC0",
"!A	c #D4CCBF",
"!B	c #D4CCC0",
"!C	c #D4CCC2",
"!D	c #D4CDC2",
"!E	c #D4CDC3",
"!F	c #D5B284",
"!G	c #D5B383",
"!H	c #D5B386",
"!I	c #D5CDC2",
"!J	c #D5CDC3",
"!K	c #D5CEC3",
"!L	c #D6B78A",
"!M	c #D6B889",
"!N	c #D6CDC1",
"!O	c #D7C9B8",
"!P	c #D7CEC0",
"!Q	c #D7CEC1",
"!R	c #D8B583",
"!S	c #D8B686",
"!T	c #D8D1C7",
"!U	c #D9B78A",
"!V	c #D9BB8F",
"!W	c #D9D2C8",
"!X	c #DAB585",
"!Y	c #DAB889",
"!Z	c #DAB989",
"![	c #DAB98A",
"!]	c #DAB98C",
"!^	c #DBB88A",
"!_	c #DBB989",
"!`	c #DBBA89",
"!a	c #DBC192",
"!b	c #DBD4CB",
"!c	c #DCB988",
"!d	c #DCB989",
"!e	c #DCB98A",
"!f	c #DCB98B",
"!g	c #DCBA8A",
"!h	c #DCBA8B",
"!i	c #DCBA8C",
"!j	c #DCBC8C",
"!k	c #DDBD8B",
"!l	c #DDBD8C",
"!m	c #DDBD8E",
"!n	c #DDBD8F",
"!o	c #DDC191",
"!p	c #DDC293",
"!q	c #DEBC8D",
"!r	c #DEBD8C",
"!s	c #DEBD8D",
"!t	c #DEBE8E",
"!u	c #DEC194",
"!v	c #DFBE8F",
"!w	c #DFBF8F",
"!x	c #DFC090",
"!y	c #DFC9B3",
"!z	c #DFD9CF",
"!{	c #E0BE8F",
"!|	c #E0BE90",
"!}	c #E0BF8E",
"!~	c #E0C291",
"# 	c #E0CEBD",
"#!	c #E0CFBF",
"##	c #E0D1C2",
"#$	c #E1C293",
"#%	c #E1C294",
"#&	c #E1C394",
"#'	c #E1C492",
"#(	c #E1DBD1",
"#)	c #E2C08F",
"#*	c #E2C393",
"#+	c #E2C493",
"#,	c #E2C593",
"#-	c #E2D0BF",
"#.	c #E3C492",
"#/	c #E3C595",
"#0	c #E3C79C",
"#1	c #E3CDBB",
"#2	c #E3D6C6",
"#3	c #E4C896",
"#4	c #E4C897",
"#5	c #E4C898",
"#6	c #E4C8A1",
"#7	c #E4CEBB",
"#8	c #E5CE9E",
"#9	c #E6C895",
"#:	c #E6C998",
"#;	c #E6C999",
"#<	c #E6CA98",
"#=	c #E6CA99",
"#>	c #E6CA9E",
"#?	c #E6CC9D",
"#@	c #E6CD9A",
"#A	c #E6D0BF",
"#B	c #E6D1BD",
"#C	c #E6D1BE",
"#D	c #E7C998",
"#E	c #E7CA9A",
"#F	c #E7CB96",
"#G	c #E7CC9A",
"#H	c #E7CDA6",
"#I	c #E8CA97",
"#J	c #E8CA99",
"#K	c #E8CB99",
"#L	c #E8CC9A",
"#M	c #E8CC9C",
"#N	c #E8CD9A",
"#O	c #E8CE9A",
"#P	c #E9CD9C",
"#Q	c #E9CD9D",
"#R	c #E9CD9E",
"#S	c #E9CE9C",
"#T	c #E9CE9D",
"#U	c #E9CEA0",
"#V	c #E9CF9B",
"#W	c #E9CF9D",
"#X	c #E9CF9F",
"#Y	c #E9D8CB",
"#Z	c #EACE9F",
"#[	c #EACF9D",
"#]	c #EACF9E",
"#^	c #EACF9F",
"#_	c #EAD09D",
"#`	c #EAD19F",
"#a	c #EBD09C",
"#b	c #EBD19D",
"#c	c #EBD19F",
"#d	c #EBD1A1",
"#e	c #EBD1A4",
"#f	c #EBD3B7",
"#g	c #EBD9C4",
"#h	c #EBDBB9",
"#i	c #ECD0A0",
"#j	c #ECD19F",
"#k	c #ECD5A3",
"#l	c #ECD6A7",
"#m	c #ECDBC3",
"#n	c #ECDBC6",
"#o	c #ECE1D4",
"#p	c #ECE5DB",
"#q	c #EDD2A1",
"#r	c #EDDAAF",
"#s	c #EDE4DD",
"#t	c #EED3A2",
"#u	c #EED5A5",
"#v	c #EEDEC2",
"#w	c #EFD2A0",
"#x	c #EFD4A0",
"#y	c #EFD5A3",
"#z	c #EFD7A3",
"#{	c #EFDAAF",
"#|	c #EFDCB4",
"#}	c #EFDEC3",
"#~	c #EFE0C4",
"$ 	c #EFE0C5",
"$!	c #EFE0C6",
"$#	c #EFE1C5",
"$$	c #EFE1C7",
"$%	c #F0D5A2",
"$&	c #F0D5AD",
"$'	c #F0D7A2",
"$(	c #F0D7A4",
"$)	c #F0D8A8",
"$*	c #F0DBB1",
"$+	c #F0DFC4",
"$,	c #F0E0C4",
"$-	c #F0E0C5",
"$.	c #F0E1C5",
"$/	c #F0E1C6",
"$0	c #F0E1C7",
"$1	c #F0E2C4",
"$2	c #F0E2C8",
"$3	c #F0E3C6",
"$4	c #F0E4CA",
"$5	c #F0E9E0",
"$6	c #F0EBE5",
"$7	c #F0EBE6",
"$8	c #F1D6A7",
"$9	c #F1DAA8",
"$:	c #F1E0C1",
"$;	c #F1E1C6",
"$<	c #F1E1C7",
"$=	c #F1E2C6",
"$>	c #F1E2C7",
"$?	c #F1E2C9",
"$@	c #F1E3C7",
"$A	c #F1E3C8",
"$B	c #F1E3CA",
"$C	c #F1E3CB",
"$D	c #F1E5D0",
"$E	c #F1E6D4",
"$F	c #F2D7AD",
"$G	c #F2D9A5",
"$H	c #F2D9A8",
"$I	c #F2DAA5",
"$J	c #F2DBAA",
"$K	c #F2DFB7",
"$L	c #F2E0C6",
"$M	c #F2E2C4",
"$N	c #F2E3C7",
"$O	c #F2E3C8",
"$P	c #F2E3CB",
"$Q	c #F2E4CA",
"$R	c #F2E4CB",
"$S	c #F2E6DA",
"$T	c #F2E8DE",
"$U	c #F2E9E2",
"$V	c #F2EAE4",
"$W	c #F3DDAA",
"$X	c #F3E4CB",
"$Y	c #F3E5C9",
"$Z	c #F3E5CA",
"$[	c #F3E5CF",
"$]	c #F3E6D0",
"$^	c #F3E9D9",
"$_	c #F3EBDE",
"$`	c #F3EBE6",
"$a	c #F3ECDB",
"$b	c #F3EDE7",
"$c	c #F4DBA9",
"$d	c #F4DCAB",
"$e	c #F4DDAB",
"$f	c #F4E5C8",
"$g	c #F4E5CA",
"$h	c #F4E5CB",
"$i	c #F4E7CE",
"$j	c #F4E9E3",
"$k	c #F5DDAC",
"$l	c #F5E4C6",
"$m	c #F5E6C9",
"$n	c #F5E7CB",
"$o	c #F5E7CF",
"$p	c #F5EACB",
"$q	c #F5EFEA",
"$r	c #F5F2ED",
"$s	c #F6E8CC",
"$t	c #F6E9CE",
"$u	c #F6EACD",
"$v	c #F6EACF",
"$w	c #F6EAD1",
"$x	c #F6EBCF",
"$y	c #F6EBD1",
"$z	c #F6EBDB",
"${	c #F6ECD4",
"$|	c #F6ECDE",
"$}	c #F6EDE3",
"$~	c #F6EEDD",
"% 	c #F6EEE0",
"%!	c #F6EFDF",
"%#	c #F6EFE3",
"%$	c #F6F2EF",
"%%	c #F6F2F0",
"%&	c #F6F2F1",
"%'	c #F6F2F2",
"%(	c #F6F3F4",
"%)	c #F6F4F2",
"%*	c #F6F4F3",
"%+	c #F7EACF",
"%,	c #F7EAD2",
"%-	c #F7EBCF",
"%.	c #F7EBD0",
"%/	c #F7ECCF",
"%0	c #F7ECD0",
"%1	c #F7ECD1",
"%2	c #F7ECD3",
"%3	c #F7ECDE",
"%4	c #F7EDD1",
"%5	c #F7EDE0",
"%6	c #F7EEDF",
"%7	c #F7EFDF",
"%8	c #F7F0ED",
"%9	c #F7F2E9",
"%:	c #F7F2F1",
"%;	c #F7F3F4",
"%<	c #F7F4F3",
"%=	c #F8ECD0",
"%>	c #F8ECD1",
"%?	c #F8ECD2",
"%@	c #F8ECD4",
"%A	c #F8ECD7",
"%B	c #F8EDD0",
"%C	c #F8EDD1",
"%D	c #F8EDD2",
"%E	c #F8EDD3",
"%F	c #F8EFE2",
"%G	c #F8F1DD",
"%H	c #F8F1E1",
"%I	c #F8F1E5",
"%J	c #F8F1E6",
"%K	c #F8F2E7",
"%L	c #F8F4F2",
"%M	c #F8F5F6",
"%N	c #F9EDD1",
"%O	c #F9EDD2",
"%P	c #F9EDD3",
"%Q	c #F9EDD4",
"%R	c #F9F1E5",
"%S	c #F9F2E2",
"%T	c #F9F2E7",
"%U	c #F9F2EA",
"%V	c #F9F2EC",
"%W	c #F9F3ED",
"%X	c #F9F4E9",
"%Y	c #F9F4EE",
"%Z	c #F9F4F1",
"%[	c #F9F4F3",
"%]	c #F9F5ED",
"%^	c #F9F5EE",
"%_	c #F9F6FB",
"%`	c #F9F7F6",
"%a	c #FAEFD8",
"%b	c #FAF2E2",
"%c	c #FAF3E3",
"%d	c #FAF3E5",
"%e	c #FAF3EF",
"%f	c #FAF4E3",
"%g	c #FAF4EA",
"%h	c #FAF4EF",
"%i	c #FAF5F7",
"%j	c #FAF6F2",
"%k	c #FAF7F5",
"%l	c #FBEEEB",
"%m	c #FBF0DC",
"%n	c #FBF2DD",
"%o	c #FBF2E0",
"%p	c #FBF5E0",
"%q	c #FBF6E4",
"%r	c #FBF6E5",
"%s	c #FBF6E8",
"%t	c #FBF6F0",
"%u	c #FBF6F1",
"%v	c #FBF7F1",
"%w	c #FBF7F4",
"%x	c #FBF7F9",
"%y	c #FBF8F9",
"%z	c #FBF9FC",
"%{	c #FBFAFE",
"%|	c #FCF3DD",
"%}	c #FCF3E0",
"%~	c #FCF5EB",
"& 	c #FCF5EC",
"&!	c #FCF6F9",
"&#	c #FCF7F1",
"&$	c #FCF8F4",
"&%	c #FCF8F5",
"&&	c #FCF8F7",
"&'	c #FCF8F8",
"&(	c #FCF8FA",
"&)	c #FCF9F9",
"&*	c #FCFBFE",
"&+	c #FDF6E5",
"&,	c #FDF8EF",
"&-	c #FDF9FC",
"&.	c #FDFAF6",
"&/	c #FDFBFA",
"&0	c #FEF8F8",
"&1	c #FEF9F7",
"&2	c #FEFAFC",
"&3	c #FEFBFC",
"&4	c #FEFCFB",
"&5	c #FEFEFB",
"&6	c #FFFCFD",
"&7	c #FFFDFE",
"&8	c #FFFEFB",
"&9	c #FFFEFD",
"&:	c #FFFEFE",
"&;	c #FFFFFE",
" , d$W#z#b#S#]#i#R#0$D%]#(!J!=!=!E!E!K!> m$b&3%x",
" * }$e$(#j#T#^#d#U!u#g%W!z!=!3!4!C!D!D!;!#$5&.% ",
" )!($d#u#M#E#Z#d#d!V#C%V!b!,!%!%!3!:!<!2!7#p%I$*",
" )!/$k#q#*!{#;#X#Q!L#A%h!W!$!!!!!0!9!B!8!A$6%o$G",
" ) q$c#P!v!f!|#/#*!H#1%t!T!$ y x!*!1!@!5!N$r%|$'",
" . N$H#D!s!^!f!j!Z!-#7%u!T!  x k x! !1!&!Q%Y%n#y",
" 2 Q$J#J!q!^!^!_!S o#B&#!T { { x y! !+ |!P%9%}$8",
" / N$9#<!w![!Y!Y!G L#-%Y!I l { x w x!' z!6%#&+$F",
" + F#k#@#+!n!]!U!F H#!$q!# ` j a _ a ~ g e$_%q$&",
" ( A#8#d#X#?#%!U n C# $` v U j j i ^ u Y W$T%G#e",
" # 9!.!o!p!a!M b J ?!y#s ] [ s t h Z [ K O$j%3#H",
"   & 8 : ; < = > @ E#Y$7!? r!)!* w f f X!O%[%U#m",
" 7 G###2#o$V%8%%%)%L%w&%%*%(%M%`%<%$%<%k&-&6&&%&",
" ' R$v%p%r%b%m%a%S&$%^$~$z$|%6%7%H%d& &,%~%f%c%T",
" 1 B#l#r#|#{$)$I$K%X% $3$L$>$B$P$i%,%@%Q%2$y%1${",
" % D#w#[#`#_#V#a#h&)%F$1#}$;$A$A$Z$t%>%C%=%-$x%.",
" - P#x#O#N#F#9#I$4&9%R$=$+$.$>$@$Z%+%D%O%N%N%B%N",
" 0 V$%#L#:#.#)#K%!&5%I$?$-$,$-$/$g%+%?%Q%Q%P%P%P",
" 4 p#t#=#&!m!}#5$a&/%J$C$!#~$ $0$h%+%>%E%E%Q%P%P",
" 6 c#q#;!x!h!q#$#v&*%e$[$<$#$$$2$Y$s%-%?%?%D%4%/",
" 5 T#c#3!s!d!g!t#>%l&!%5$]$R$Q$X$N$O$n%+%0$x$u$p",
" 3 S#W#,!r!e!d!i!k#6$U%:%Z%j%v%s$w$:$M$l$f$m%A%g",
" $ M#G#'!l!h!e!e!Z!`#n%i&'&2&7&;&.$}$S$E$^%K&/&;",
" ! I#4!~!l!h!e!c!X!R#f&0&1&(&4&8&:%{%_%'%;%z%y$o"};
