/* XPM */
static char *13[] = {
"24 24 515 2",
"  	c #C7BFAA",
" !	c #C8BEAC",
" #	c #CABFAD",
" $	c #CAC0AB",
" %	c #CAC0AE",
" &	c #CAC1B0",
" '	c #CAC2AF",
" (	c #CCC3B1",
" )	c #CEC4B5",
" *	c #CEC5B5",
" +	c #D0CAB5",
" ,	c #D2CBC5",
" -	c #D3C6BA",
" .	c #D3C9BD",
" /	c #D3CBC1",
" 0	c #D3CCC4",
" 1	c #D5CABB",
" 2	c #D5CDC2",
" 3	c #D5CFC6",
" 4	c #D6CDC3",
" 5	c #D6D0BF",
" 6	c #D7D1CA",
" 7	c #D8D1C6",
" 8	c #D8D3CC",
" 9	c #D9CBBE",
" :	c #D9D1C7",
" ;	c #D9D3C9",
" <	c #DAD2C8",
" =	c #DAD3CA",
" >	c #DAD4CB",
" ?	c #DCBE94",
" @	c #DCBE98",
" A	c #DCD2C6",
" B	c #DDBD91",
" C	c #DDBE8D",
" D	c #DDD6CC",
" E	c #DDD6CE",
" F	c #DDD7CE",
" G	c #DEBB7A",
" H	c #DEBD90",
" I	c #DEBF97",
" J	c #DEBF9B",
" K	c #DED8D2",
" L	c #DED9D3",
" M	c #DFBE90",
" N	c #DFBF92",
" O	c #DFBF96",
" P	c #DFC09B",
" Q	c #DFC194",
" R	c #DFC296",
" S	c #DFD8D0",
" T	c #DFD8D2",
" U	c #E0C09B",
" V	c #E0C497",
" W	c #E0C592",
" X	c #E0C9A7",
" Y	c #E0DDD8",
" Z	c #E1BE8F",
" [	c #E1BF92",
" ]	c #E1C093",
" ^	c #E1C094",
" _	c #E1C194",
" `	c #E1C393",
" a	c #E1DAD7",
" b	c #E1DBD5",
" c	c #E1DCD4",
" d	c #E1DDD7",
" e	c #E2C193",
" f	c #E2C295",
" g	c #E2C391",
" h	c #E2C9A0",
" i	c #E2DAD6",
" j	c #E2DCD6",
" k	c #E2DDD4",
" l	c #E2DED8",
" m	c #E3C295",
" n	c #E3C494",
" o	c #E3C597",
" p	c #E3CDA4",
" q	c #E3DDD6",
" r	c #E3DDD7",
" s	c #E3DED7",
" t	c #E3DED8",
" u	c #E3DFD8",
" v	c #E3DFD9",
" w	c #E4C193",
" x	c #E4C294",
" y	c #E4C494",
" z	c #E4C496",
" {	c #E4C497",
" |	c #E4C596",
" }	c #E4DBD1",
" ~	c #E5C494",
"! 	c #E5C497",
"!!	c #E5C597",
"!#	c #E5C69A",
"!$	c #E5C7AA",
"!%	c #E5C89D",
"!&	c #E5CEA4",
"!'	c #E5DFD8",
"!(	c #E5DFD9",
"!)	c #E5DFDA",
"!*	c #E5E0DB",
"!+	c #E5E1D8",
"!,	c #E5E1DA",
"!-	c #E5E2DB",
"!.	c #E6C596",
"!/	c #E6C59C",
"!0	c #E6C699",
"!1	c #E6C896",
"!2	c #E6C89B",
"!3	c #E6DED5",
"!4	c #E6E0DE",
"!5	c #E6E1DA",
"!6	c #E6E1DB",
"!7	c #E7C593",
"!8	c #E7C896",
"!9	c #E7C898",
"!:	c #E7C89A",
"!;	c #E7C89B",
"!<	c #E7C89C",
"!=	c #E7C987",
"!>	c #E7C996",
"!?	c #E7C99B",
"!@	c #E7CD9C",
"!A	c #E7CF9B",
"!B	c #E7E2D9",
"!C	c #E8C996",
"!D	c #E8C998",
"!E	c #E8C999",
"!F	c #E8C99C",
"!G	c #E8CA98",
"!H	c #E8CA9B",
"!I	c #E8CA9C",
"!J	c #E8CB9D",
"!K	c #E8E0DA",
"!L	c #E8E5DC",
"!M	c #E8E6DB",
"!N	c #E9C999",
"!O	c #E9C99B",
"!P	c #E9CA9C",
"!Q	c #E9CA9E",
"!R	c #E9CE9B",
"!S	c #E9E3DF",
"!T	c #E9E4E1",
"!U	c #EAC795",
"!V	c #EACA9E",
"!W	c #EACC9B",
"!X	c #EACC9E",
"!Y	c #EACC9F",
"!Z	c #EACCA1",
"![	c #EACD9C",
"!]	c #EACD9F",
"!^	c #EAD4AA",
"!_	c #EAD4BF",
"!`	c #EAD7C6",
"!a	c #EBCB99",
"!b	c #EBCC9E",
"!c	c #EBCD9B",
"!d	c #EBCD9D",
"!e	c #EBCDA0",
"!f	c #EBCE9B",
"!g	c #EBCE9F",
"!h	c #EBCF9B",
"!i	c #EBD09F",
"!j	c #ECCC8E",
"!k	c #ECCC9F",
"!l	c #ECCCA0",
"!m	c #ECCD9A",
"!n	c #ECCD9F",
"!o	c #ECCDA0",
"!p	c #ECCEA1",
"!q	c #ECCFA0",
"!r	c #ECD19C",
"!s	c #ECD1A0",
"!t	c #ECD9CA",
"!u	c #ECE5E3",
"!v	c #ECE6DF",
"!w	c #ECEAE8",
"!x	c #EDCFA0",
"!y	c #EDD09B",
"!z	c #EDD0A1",
"!{	c #EDD19C",
"!|	c #EDD29F",
"!}	c #EDD2A0",
"!~	c #EDD6A7",
"# 	c #EDDBC7",
"#!	c #EDE4D4",
"##	c #EDE9E3",
"#$	c #EDEAE3",
"#%	c #EED1A2",
"#&	c #EED2AB",
"#'	c #EED39D",
"#(	c #EED3A2",
"#)	c #EEDABA",
"#*	c #EEDBCC",
"#+	c #EEDDCC",
"#,	c #EEDEC4",
"#-	c #EEDECF",
"#.	c #EEE1CF",
"#/	c #EEEAE5",
"#0	c #EEEAE7",
"#1	c #EEEBE6",
"#2	c #EFD2A2",
"#3	c #EFD6A4",
"#4	c #EFD7AF",
"#5	c #EFDBC2",
"#6	c #EFDBCA",
"#7	c #EFDDCB",
"#8	c #EFDFCD",
"#9	c #EFDFD3",
"#:	c #EFE2C5",
"#;	c #EFE3D1",
"#<	c #EFE4CC",
"#=	c #EFE8E5",
"#>	c #EFEBE3",
"#?	c #EFEBEA",
"#@	c #F0D49F",
"#A	c #F0D4A3",
"#B	c #F0D6A3",
"#C	c #F0D6A8",
"#D	c #F0D9A7",
"#E	c #F0DAAE",
"#F	c #F0E3C9",
"#G	c #F0E4CE",
"#H	c #F0E4D9",
"#I	c #F0E8DE",
"#J	c #F0EDEA",
"#K	c #F1D7A5",
"#L	c #F1D9A0",
"#M	c #F1D9AC",
"#N	c #F1DBB5",
"#O	c #F1DCC2",
"#P	c #F1DFC3",
"#Q	c #F1E1C4",
"#R	c #F1E3CC",
"#S	c #F1E4CD",
"#T	c #F1E4CE",
"#U	c #F1E4D3",
"#V	c #F1E5D0",
"#W	c #F1EEEA",
"#X	c #F1F0EC",
"#Y	c #F2D49C",
"#Z	c #F2D59C",
"#[	c #F2D8A6",
"#]	c #F2DAA8",
"#^	c #F2DBB3",
"#_	c #F2DDA9",
"#`	c #F2E2D4",
"#a	c #F2E3CB",
"#b	c #F2E4C5",
"#c	c #F2E4C7",
"#d	c #F2E4D0",
"#e	c #F2E5CB",
"#f	c #F2E5CC",
"#g	c #F2E5CE",
"#h	c #F2E5CF",
"#i	c #F2E6CC",
"#j	c #F2E6CE",
"#k	c #F2EFEA",
"#l	c #F2F0EA",
"#m	c #F3D8A7",
"#n	c #F3D8A8",
"#o	c #F3DCA2",
"#p	c #F3E5C8",
"#q	c #F3E5CE",
"#r	c #F3E5D0",
"#s	c #F3E5D8",
"#t	c #F3E6C9",
"#u	c #F3E6CD",
"#v	c #F3E7C9",
"#w	c #F3E8D1",
"#x	c #F3E9DF",
"#y	c #F3EEE7",
"#z	c #F3F0E9",
"#{	c #F3F0EF",
"#|	c #F4E1AE",
"#}	c #F4E2BD",
"#~	c #F4E6C9",
"$ 	c #F4E6CB",
"$!	c #F4E7C9",
"$#	c #F4E7CE",
"$$	c #F4E7D0",
"$%	c #F4E7D1",
"$&	c #F4E8CB",
"$'	c #F4E8D1",
"$(	c #F4E8D6",
"$)	c #F4E8D8",
"$*	c #F4E8E0",
"$+	c #F4EACE",
"$,	c #F4EBDD",
"$-	c #F4EDDE",
"$.	c #F4EDE7",
"$/	c #F5DCAC",
"$0	c #F5E0AB",
"$1	c #F5E7D1",
"$2	c #F5E8CD",
"$3	c #F5E8CF",
"$4	c #F5E9CE",
"$5	c #F5E9D0",
"$6	c #F5EACB",
"$7	c #F5EACE",
"$8	c #F5EAD4",
"$9	c #F5EBCD",
"$:	c #F5EBDB",
"$;	c #F5ECD3",
"$<	c #F5ECE0",
"$=	c #F5F0E6",
"$>	c #F5F0F0",
"$?	c #F5F0F3",
"$@	c #F5F1EE",
"$A	c #F5F3F3",
"$B	c #F6E1AE",
"$C	c #F6E2B0",
"$D	c #F6E3B0",
"$E	c #F6E3B2",
"$F	c #F6E4B1",
"$G	c #F6E4C9",
"$H	c #F6E7C7",
"$I	c #F6E8CD",
"$J	c #F6E9CB",
"$K	c #F6E9D4",
"$L	c #F6EACD",
"$M	c #F6EAD0",
"$N	c #F6EBD0",
"$O	c #F6EBD4",
"$P	c #F6EBD5",
"$Q	c #F6EBD6",
"$R	c #F6ECD0",
"$S	c #F6ECD4",
"$T	c #F6ECD5",
"$U	c #F6ECD7",
"$V	c #F6ECD9",
"$W	c #F6ECE8",
"$X	c #F6EDD6",
"$Y	c #F6EDD9",
"$Z	c #F6EDE8",
"$[	c #F6EEE5",
"$]	c #F6F2F1",
"$^	c #F6F4F1",
"$_	c #F6F4F5",
"$`	c #F7E2C1",
"$a	c #F7E7D2",
"$b	c #F7EAC1",
"$c	c #F7EACD",
"$d	c #F7EAD0",
"$e	c #F7EAD3",
"$f	c #F7EBCE",
"$g	c #F7EBD4",
"$h	c #F7EBD5",
"$i	c #F7ECD0",
"$j	c #F7ECD2",
"$k	c #F7ECD5",
"$l	c #F7ECD6",
"$m	c #F7ECD9",
"$n	c #F7EDD4",
"$o	c #F7EDD5",
"$p	c #F7EDD7",
"$q	c #F7EDD8",
"$r	c #F7EDD9",
"$s	c #F7EDE6",
"$t	c #F7EED6",
"$u	c #F7EEDA",
"$v	c #F7EEDB",
"$w	c #F7EEDD",
"$x	c #F7EFE1",
"$y	c #F7EFE9",
"$z	c #F7F0DC",
"${	c #F7F1EC",
"$|	c #F7F1EF",
"$}	c #F7F1F2",
"$~	c #F7F4ED",
"% 	c #F8EBCD",
"%!	c #F8EBD4",
"%#	c #F8EBD5",
"%$	c #F8ECD2",
"%%	c #F8ECD5",
"%&	c #F8ECD6",
"%'	c #F8EDCF",
"%(	c #F8EDD1",
"%)	c #F8EDD5",
"%*	c #F8EDD6",
"%+	c #F8EDD8",
"%,	c #F8EED8",
"%-	c #F8EEE9",
"%.	c #F8F0E5",
"%/	c #F8F1EA",
"%0	c #F8F2F0",
"%1	c #F8F3E7",
"%2	c #F8F3F0",
"%3	c #F8F3F3",
"%4	c #F8F5F4",
"%5	c #F8F6F4",
"%6	c #F9E5CD",
"%7	c #F9ECD2",
"%8	c #F9EDD2",
"%9	c #F9EDD3",
"%:	c #F9EDD5",
"%;	c #F9EDD6",
"%<	c #F9EFE9",
"%=	c #F9F0E0",
"%>	c #F9F1E5",
"%?	c #F9F1EC",
"%@	c #F9F2DF",
"%A	c #F9F2EE",
"%B	c #F9F2EF",
"%C	c #F9F3DE",
"%D	c #F9F3E9",
"%E	c #F9F3F0",
"%F	c #F9F4EB",
"%G	c #F9F5ED",
"%H	c #F9F5EE",
"%I	c #F9F5F1",
"%J	c #F9F5F4",
"%K	c #F9F6F8",
"%L	c #F9F7F6",
"%M	c #F9F7FA",
"%N	c #F9F8FB",
"%O	c #FAF1D9",
"%P	c #FAF2ED",
"%Q	c #FAF3EC",
"%R	c #FAF3F2",
"%S	c #FAF4EC",
"%T	c #FAF5EC",
"%U	c #FAF5F0",
"%V	c #FAF6F0",
"%W	c #FAF7F7",
"%X	c #FAF7FB",
"%Y	c #FAF8F7",
"%Z	c #FAF8F9",
"%[	c #FAF8FA",
"%]	c #FBF3F0",
"%^	c #FBF3F1",
"%_	c #FBF4F4",
"%`	c #FBF5E3",
"%a	c #FBF5F2",
"%b	c #FBF5F4",
"%c	c #FBF5F5",
"%d	c #FBF6F6",
"%e	c #FBF7E2",
"%f	c #FBF7FD",
"%g	c #FBF8F0",
"%h	c #FBF8F7",
"%i	c #FBF8FA",
"%j	c #FBF9FA",
"%k	c #FBF9FB",
"%l	c #FBF9FD",
"%m	c #FBF9FE",
"%n	c #FBFBFD",
"%o	c #FCF3E4",
"%p	c #FCF4F0",
"%q	c #FCF5F2",
"%r	c #FCF5F3",
"%s	c #FCF5F5",
"%t	c #FCF6F8",
"%u	c #FCF7F4",
"%v	c #FCF7F5",
"%w	c #FCF7F7",
"%x	c #FCF7F8",
"%y	c #FCF8F5",
"%z	c #FCF8F7",
"%{	c #FCF8F9",
"%|	c #FCF8FD",
"%}	c #FCF9F5",
"%~	c #FCF9F9",
"& 	c #FCF9FA",
"&!	c #FCF9FC",
"&#	c #FCF9FD",
"&$	c #FCFAFB",
"&%	c #FCFAFC",
"&&	c #FCFAFD",
"&'	c #FCFBF8",
"&(	c #FDF2ED",
"&)	c #FDF6F4",
"&*	c #FDF6F6",
"&+	c #FDF6F8",
"&,	c #FDF7E5",
"&-	c #FDF8F9",
"&.	c #FDF8FB",
"&/	c #FDF8FC",
"&0	c #FDF9EA",
"&1	c #FDF9F9",
"&2	c #FDF9FB",
"&3	c #FDF9FC",
"&4	c #FDFAFF",
"&5	c #FDFBFA",
"&6	c #FDFBFD",
"&7	c #FEF6E5",
"&8	c #FEF7E3",
"&9	c #FEF7E7",
"&:	c #FEF8E9",
"&;	c #FEF8FA",
"&<	c #FEF9F7",
"&=	c #FEF9F9",
"&>	c #FEFAEF",
"&?	c #FEFAFA",
"&@	c #FEFAFB",
"&A	c #FEFAFD",
"&B	c #FEFCF5",
"&C	c #FEFDFE",
"&D	c #FEFEF6",
"&E	c #FFF7E5",
"&F	c #FFF9F6",
"&G	c #FFF9FA",
"&H	c #FFFAF5",
"&I	c #FFFCFB",
"&J	c #FFFCFD",
"&K	c #FFFCFE",
"&L	c #FFFDFD",
"&M	c #FFFDFE",
"&N	c #FFFDFF",
"&O	c #FFFEFC",
"&P	c #FFFEFE",
"&Q	c #FFFFFC",
"&R	c #FFFFFF",
"%X$?$}$]$@%3%i%Y$~#y%1$w$O$g%%%%$g$'#i$<%a$q%)$o",
"$j%'%O%C%e%`%@$z$m#;$=%>$U%%%&%#$h$%#h$s%b$V%*$l",
"#L#o$0$D$F#|#_#D!~ p#!%F%+%%%!$h$K#r#G$y%t$Y$o$k",
"#'#@#K#]#[#A#2!i!@ h$*%u%=%;%!$e$1#S#<%/&G$v$t%*",
"!y!{!}#(#%!z!x!d!9 R#9&F%o%:$3$##u#e#F%.%r$p$n$o",
"!m!f!g!q!p!o!e!V { B!`&=%D$(#R#q$$#V#d${%0$S$;$S",
"!a!W!g!g!o!o!l!Q!  B!t&;%E$Z%-%p%_%R%d&/%]%,$k$l",
"!U!N!X!]!n!n!n!Y!# Q#-&A%c%B%^&*%q&(&)&-%P$r$T$p",
"!7 ~!:!I!b!k!n!Z!% V#.&C#x# #5#P#^#&#O%<%?$P#w$8",
"!. y z!!!0!O!P!V!< `#U%a!A!j#Y#Z!= G W#s%Q$Q#f#g",
"!/ m ] ^ [ M Z w x C#`%_$G$`%6$a#Q#)$1%S%g$x#a#,",
"!_!$ U P J @ I O ? X$.&3%{&2%f%|&.%w%v%}&'%U$)#,",
"%Z%n%N%M%K%K%J$|#k$^%W&!&#&4%m%l%k%~%z&1&6&I%H$,",
"%H%V%H%H%U%L%Z$A#X#W#0!w#?#{$_%j%k%i%x%y%T$u$N$c",
"$X$T$M$4$3$-%5#J!) q d Y l!+!M#>%4%Y%2$5#E!r!h!|",
"$R$i$L#v#c#T%I#1 K b t v u!,!L 5!v%h$m#M!c!C!>!8",
"%(%8$f$&#p#q%A!S 6 L s!(!*!6!- +!3&<$H#3!R!G!D!E",
"%9%$$d$2$ #j$W a , 8 T j!(!5!' &!K&=#}!s!J!H!F!F",
"%9%7$d$I#~#e$[ i 0 3 > F S c k '!T&@#N![!?!;!?!2",
"$f% $J$!#b#:$: } / 4 : ; = E D (#/&K#4!1 | | o o",
"$6$9$7$+#t#i%>#I 1 . 2 7 < A 9 $##&?!^ n e _ f f",
"&B&O&O&Q&O&N&R&P#= - ) * # ! %  !u&+!& g [ N N H",
"&>&:&9&7&E&8&,&0&D$>!4 r!B#$#l#z& %l#H#*#6#7#8#+",
"#C#B#m#n$/$B$C$E$b%G&&&J&L&R&P&M&5&H%s%[&%&!&$%W"};
