/* XPM */
static char *14[] = {
"24 24 509 2",
"  	c #C9BEB2",
" !	c #CBC0B2",
" #	c #CBC1B6",
" $	c #CDC3B4",
" %	c #CEC5B1",
" &	c #CEC5B7",
" '	c #CEC6B9",
" (	c #CFC5B9",
" )	c #D0C6B6",
" *	c #D0C7B6",
" +	c #D0C8BB",
" ,	c #D0C9B8",
" -	c #D1C6B8",
" .	c #D1C6B9",
" /	c #D1C7BB",
" 0	c #D1C8BB",
" 1	c #D1C8BD",
" 2	c #D1C9BC",
" 3	c #D1CABD",
" 4	c #D2C7B7",
" 5	c #D4CABE",
" 6	c #D4CAC0",
" 7	c #D5CCBE",
" 8	c #D5CDC3",
" 9	c #D5CEBD",
" :	c #D6B687",
" ;	c #D6CEC5",
" <	c #D6CFC4",
" =	c #D6D0C7",
" >	c #D6D1C9",
" ?	c #D7CCBA",
" @	c #D7CEC7",
" A	c #D7D0C7",
" B	c #D7D0C8",
" C	c #D7D1C8",
" D	c #D8CFBE",
" E	c #D8CFC4",
" F	c #D8CFC6",
" G	c #D8D0C7",
" H	c #D8D1C8",
" I	c #D8D2C9",
" J	c #D8D3CB",
" K	c #D9B88A",
" L	c #D9D2C9",
" M	c #D9D3C9",
" N	c #DABA94",
" O	c #DABC97",
" P	c #DABC98",
" Q	c #DAD3CA",
" R	c #DAD5CF",
" S	c #DBBB93",
" T	c #DBBC90",
" U	c #DBBC91",
" V	c #DBBC96",
" W	c #DBBD98",
" X	c #DBD4C9",
" Y	c #DCD5CC",
" Z	c #DCD6CC",
" [	c #DCD6CD",
" ]	c #DCD6D1",
" ^	c #DCD7D0",
" _	c #DCD7D1",
" `	c #DCD8D4",
" a	c #DCD8D5",
" b	c #DDBA90",
" c	c #DDBC90",
" d	c #DDBD9A",
" e	c #DDBE96",
" f	c #DDC49F",
" g	c #DDC4A4",
" h	c #DDD9D5",
" i	c #DDDAD7",
" j	c #DEC09A",
" k	c #DEC9AC",
" l	c #DED9D1",
" m	c #DFC090",
" n	c #DFD7CD",
" o	c #DFD7CE",
" p	c #E0BE91",
" q	c #E0BE92",
" r	c #E0BE95",
" s	c #E0BF91",
" t	c #E0BF92",
" u	c #E0C092",
" v	c #E0C093",
" w	c #E0C196",
" x	c #E0C29E",
" y	c #E0C4A3",
" z	c #E0C6A2",
" {	c #E0C9AF",
" |	c #E1BF93",
" }	c #E1C094",
" ~	c #E1C194",
"! 	c #E1C29D",
"!!	c #E1DAD1",
"!#	c #E1DBD0",
"!$	c #E2BF8F",
"!%	c #E2C092",
"!&	c #E2C194",
"!'	c #E2C397",
"!(	c #E2C499",
"!)	c #E2C49F",
"!*	c #E2C59E",
"!+	c #E2C5A4",
"!,	c #E2CAB0",
"!-	c #E3C291",
"!.	c #E3C295",
"!/	c #E3C394",
"!0	c #E3C397",
"!1	c #E3C496",
"!2	c #E3C498",
"!3	c #E3C499",
"!4	c #E3C593",
"!5	c #E3C59B",
"!6	c #E3C69D",
"!7	c #E3D0BA",
"!8	c #E3E0DF",
"!9	c #E4C396",
"!:	c #E4C496",
"!;	c #E4C596",
"!<	c #E4C598",
"!=	c #E4C599",
"!>	c #E4C59C",
"!?	c #E4C69A",
"!@	c #E4C79D",
"!A	c #E4CBAF",
"!B	c #E4D6C4",
"!C	c #E4E1E1",
"!D	c #E5C191",
"!E	c #E5C290",
"!F	c #E5C396",
"!G	c #E5C498",
"!H	c #E5C596",
"!I	c #E5C599",
"!J	c #E5C69C",
"!K	c #E5C79D",
"!L	c #E5C79F",
"!M	c #E5C7A0",
"!N	c #E5C89F",
"!O	c #E5D4C2",
"!P	c #E5DFD8",
"!Q	c #E5E1DF",
"!R	c #E6C496",
"!S	c #E6C595",
"!T	c #E6C597",
"!U	c #E6C599",
"!V	c #E6C697",
"!W	c #E6C698",
"!X	c #E6C699",
"!Y	c #E6C796",
"!Z	c #E6C799",
"![	c #E6C896",
"!]	c #E6C89B",
"!^	c #E6C89F",
"!_	c #E6CA98",
"!`	c #E6DFD5",
"!a	c #E6E3E3",
"!b	c #E6E4E4",
"!c	c #E7C799",
"!d	c #E7C897",
"!e	c #E7C89A",
"!f	c #E7C89B",
"!g	c #E7C996",
"!h	c #E7C999",
"!i	c #E7CA97",
"!j	c #E7CA98",
"!k	c #E7D5C8",
"!l	c #E7D7C8",
"!m	c #E7E3E0",
"!n	c #E7E5E3",
"!o	c #E8C693",
"!p	c #E8C69A",
"!q	c #E8C797",
"!r	c #E8C799",
"!s	c #E8C79A",
"!t	c #E8C99B",
"!u	c #E8CA9C",
"!v	c #E8D5C3",
"!w	c #E8D7C5",
"!x	c #E8E3DE",
"!y	c #E8E5E4",
"!z	c #E9C794",
"!{	c #E9C89A",
"!|	c #E9C89C",
"!}	c #E9C99B",
"!~	c #E9CC9C",
"# 	c #E9CCAC",
"#!	c #E9D3BF",
"##	c #E9D7C5",
"#$	c #EAC996",
"#%	c #EACA98",
"#&	c #EACA9E",
"#'	c #EACB9D",
"#(	c #EACCA2",
"#)	c #EACE9D",
"#*	c #EAE4DC",
"#+	c #EAE5E1",
"#,	c #EAE6DF",
"#-	c #EBCB99",
"#.	c #EBCC9D",
"#/	c #EBCE9E",
"#0	c #EBCF9F",
"#1	c #EBD0A0",
"#2	c #EBD9CB",
"#3	c #EBD9CC",
"#4	c #EBDCCD",
"#5	c #EBDDC4",
"#6	c #EBDECE",
"#7	c #EBE6E0",
"#8	c #EBEAE0",
"#9	c #ECCB9D",
"#:	c #ECD09F",
"#;	c #ECD2A1",
"#<	c #ECD5B2",
"#=	c #ECE0CF",
"#>	c #ECE7DC",
"#?	c #ECEAE7",
"#@	c #EDCC96",
"#A	c #EDCF9D",
"#B	c #EDD1B2",
"#C	c #EDD4A2",
"#D	c #EDDCC2",
"#E	c #EDDEC5",
"#F	c #EDDECC",
"#G	c #EDDED1",
"#H	c #EDEBE9",
"#I	c #EECF99",
"#J	c #EED6A3",
"#K	c #EED7AC",
"#L	c #EED9C6",
"#M	c #EEDFC9",
"#N	c #EEEAEA",
"#O	c #EFD2A3",
"#P	c #EFD9B0",
"#Q	c #EFDCC2",
"#R	c #EFDDC1",
"#S	c #EFDFBF",
"#T	c #EFE1C6",
"#U	c #F0D8A4",
"#V	c #F0D9A5",
"#W	c #F0DDB9",
"#X	c #F0DFBD",
"#Y	c #F0E0C9",
"#Z	c #F0E3C9",
"#[	c #F0E3D2",
"#]	c #F0EBEC",
"#^	c #F0EFEE",
"#_	c #F0F1F0",
"#`	c #F1D6A1",
"#a	c #F1E2C8",
"#b	c #F1E3CA",
"#c	c #F1E3CD",
"#d	c #F1E5DB",
"#e	c #F1E7D2",
"#f	c #F1E7D5",
"#g	c #F1E9E4",
"#h	c #F1F3F5",
"#i	c #F2D8A4",
"#j	c #F2DAA9",
"#k	c #F2DDAC",
"#l	c #F2DFAD",
"#m	c #F2E1C4",
"#n	c #F2E2C3",
"#o	c #F2E3C6",
"#p	c #F2E3C9",
"#q	c #F2E4C9",
"#r	c #F2E7D0",
"#s	c #F2E7D8",
"#t	c #F2E7D9",
"#u	c #F2E7DF",
"#v	c #F2E8D2",
"#w	c #F2E9D1",
"#x	c #F2EEE6",
"#y	c #F2EFEF",
"#z	c #F3DDAD",
"#{	c #F3DDAF",
"#|	c #F3E1C6",
"#}	c #F3E6DC",
"#~	c #F3E7CA",
"$ 	c #F3E7D2",
"$!	c #F3E7DB",
"$#	c #F3E7DC",
"$$	c #F3E8D4",
"$%	c #F3E9D3",
"$&	c #F3E9D6",
"$'	c #F3E9D9",
"$(	c #F3E9DA",
"$)	c #F3EAD1",
"$*	c #F3EAD3",
"$+	c #F3EAD4",
"$,	c #F4E1AB",
"$-	c #F4E2AB",
"$.	c #F4E4C9",
"$/	c #F4E7C8",
"$0	c #F4E7CA",
"$1	c #F4E7CC",
"$2	c #F4E7CE",
"$3	c #F4E7D2",
"$4	c #F4E7D6",
"$5	c #F4E8CE",
"$6	c #F4E8D3",
"$7	c #F4E9CF",
"$8	c #F4E9D3",
"$9	c #F4E9D6",
"$:	c #F4E9D7",
"$;	c #F4EAD2",
"$<	c #F4EAD3",
"$=	c #F4EAD9",
"$>	c #F4EFEA",
"$?	c #F4F0E3",
"$@	c #F4F1EE",
"$A	c #F4F6F8",
"$B	c #F5DFB0",
"$C	c #F5E0B2",
"$D	c #F5E2AB",
"$E	c #F5E5C2",
"$F	c #F5E5C5",
"$G	c #F5E7CA",
"$H	c #F5E7CC",
"$I	c #F5E9DF",
"$J	c #F5EAD6",
"$K	c #F5EAD7",
"$L	c #F5EADA",
"$M	c #F5EBD6",
"$N	c #F5ECE6",
"$O	c #F5EEEF",
"$P	c #F5F0EF",
"$Q	c #F5F2EF",
"$R	c #F5F6F9",
"$S	c #F6E5CA",
"$T	c #F6E8D7",
"$U	c #F6E9CD",
"$V	c #F6EACD",
"$W	c #F6EACE",
"$X	c #F6EACF",
"$Y	c #F6EBCF",
"$Z	c #F6EBD0",
"$[	c #F6EBD3",
"$]	c #F6EBD6",
"$^	c #F6ECD5",
"$_	c #F6ECD6",
"$`	c #F6ECD7",
"$a	c #F6EDD6",
"$b	c #F6EDE0",
"$c	c #F6F3FA",
"$d	c #F6F5F7",
"$e	c #F7E2C4",
"$f	c #F7E4C7",
"$g	c #F7E8C9",
"$h	c #F7E9CE",
"$i	c #F7EACE",
"$j	c #F7EAD7",
"$k	c #F7EBD0",
"$l	c #F7EBD2",
"$m	c #F7EBD6",
"$n	c #F7ECD0",
"$o	c #F7ECD1",
"$p	c #F7ECD6",
"$q	c #F7ECD7",
"$r	c #F7EDD1",
"$s	c #F7EDD6",
"$t	c #F7EDD7",
"$u	c #F7EDD8",
"$v	c #F7EDDE",
"$w	c #F7EEE4",
"$x	c #F7EFE1",
"$y	c #F7F1E0",
"$z	c #F7F2EB",
"${	c #F7F2F3",
"$|	c #F7F4F7",
"$}	c #F7F5F2",
"$~	c #F7F6F6",
"% 	c #F8EBD1",
"%!	c #F8ECD1",
"%#	c #F8EDD1",
"%$	c #F8EDDA",
"%%	c #F8EDDD",
"%&	c #F8EDE0",
"%'	c #F8EED5",
"%(	c #F8EFE5",
"%)	c #F8F0E0",
"%*	c #F8F0E7",
"%+	c #F8F1DD",
"%,	c #F8F1EB",
"%-	c #F8F1F1",
"%.	c #F8F2DE",
"%/	c #F8F2E9",
"%0	c #F8F2F1",
"%1	c #F8F3E9",
"%2	c #F8F3EA",
"%3	c #F8F3EF",
"%4	c #F8F5F2",
"%5	c #F8F5F5",
"%6	c #F8F5F7",
"%7	c #F8F5F8",
"%8	c #F8F7F7",
"%9	c #F9ECD6",
"%:	c #F9EDD1",
"%;	c #F9EDDF",
"%<	c #F9EED2",
"%=	c #F9EED7",
"%>	c #F9EFDE",
"%?	c #F9F0DA",
"%@	c #F9F0DB",
"%A	c #F9F0DF",
"%B	c #F9F1DD",
"%C	c #F9F1E5",
"%D	c #F9F2EE",
"%E	c #F9F2EF",
"%F	c #F9F3EA",
"%G	c #F9F3EC",
"%H	c #F9F3F1",
"%I	c #F9F3F3",
"%J	c #F9F4F5",
"%K	c #F9F5F0",
"%L	c #F9F5F7",
"%M	c #F9F6F3",
"%N	c #F9F6F5",
"%O	c #F9F6F7",
"%P	c #F9F6F9",
"%Q	c #F9F7F4",
"%R	c #F9F7F6",
"%S	c #F9F7F9",
"%T	c #F9F7FA",
"%U	c #F9F8F8",
"%V	c #F9F8F9",
"%W	c #F9F8FB",
"%X	c #FAECD3",
"%Y	c #FAEFD9",
"%Z	c #FAF1E1",
"%[	c #FAF1EC",
"%]	c #FAF2F3",
"%^	c #FAF3F0",
"%_	c #FAF3F6",
"%`	c #FAF4F1",
"%a	c #FAF4F2",
"%b	c #FAF4F3",
"%c	c #FAF5F6",
"%d	c #FAF5F8",
"%e	c #FAF6F3",
"%f	c #FAF6F7",
"%g	c #FAF6FA",
"%h	c #FAF6FC",
"%i	c #FAF7F9",
"%j	c #FAF8FA",
"%k	c #FAF9F8",
"%l	c #FAF9FB",
"%m	c #FAFAF9",
"%n	c #FBF1E1",
"%o	c #FBF2E7",
"%p	c #FBF4F1",
"%q	c #FBF5F4",
"%r	c #FBF6F6",
"%s	c #FBF6F9",
"%t	c #FBF6FA",
"%u	c #FBF7F3",
"%v	c #FBF7F8",
"%w	c #FBF7F9",
"%x	c #FBF7FA",
"%y	c #FBF7FB",
"%z	c #FBF7FD",
"%{	c #FBF8F7",
"%|	c #FBF8FA",
"%}	c #FBF8FB",
"%~	c #FBF9F8",
"& 	c #FBF9FB",
"&!	c #FBFAFB",
"&#	c #FBFAFC",
"&$	c #FBFAFD",
"&%	c #FCF6EA",
"&&	c #FCF6F5",
"&'	c #FCF7EC",
"&(	c #FCF7F7",
"&)	c #FCF8F5",
"&*	c #FCF8F9",
"&+	c #FCF8FB",
"&,	c #FCF8FE",
"&-	c #FCF9F6",
"&.	c #FCF9F8",
"&/	c #FCF9FB",
"&0	c #FCF9FC",
"&1	c #FCF9FD",
"&2	c #FCFAFD",
"&3	c #FCFBFF",
"&4	c #FDF7F8",
"&5	c #FDF9EE",
"&6	c #FDF9F8",
"&7	c #FDFBF9",
"&8	c #FDFBFB",
"&9	c #FDFCFC",
"&:	c #FEF9F8",
"&;	c #FEFBFA",
"&<	c #FEFCFC",
"&=	c #FEFCFF",
"&>	c #FEFDFB",
"&?	c #FFF9F9",
"&@	c #FFFCFA",
"&A	c #FFFCFE",
"&B	c #FFFDFD",
"&C	c #FFFDFE",
"&D	c #FFFEFA",
"&E	c #FFFEFC",
"&F	c #FFFEFD",
"&G	c #FFFEFE",
"&H	c #FFFEFF",
"&I	c #FFFFF7",
"&J	c #FFFFFB",
"&K	c #FFFFFD",
"&L	c #FFFFFF",
"$p$t$t$s$<$&%d%h%x$g#I#$#-#.#9#'#&!|!I v N#}%3$P",
"$q$u$t$_$;$K%_%s%r$E#@!o!q!}!{!r!s!p!U ~ V#d%K$'",
"$]$q$q$_$)#v%]%s%q#W!z!E!-!H!T!S!R!F!G t O#u%*#K",
"$t$t$p$a$)#w%0%t%J#<!D!$ s!% | u s p r b P${%&#O",
"$s$t$_$_$*#e%-%y$d#*#2##!O!7!, g f z { k!B&=$j#A",
"$^$_$_$_$<#f%I%S#^#_$R$A#h#_#H#+!x#,#?#8$>&H$T#%",
"$p$q$`$_$+$:&&#y ^!!!P!m!n!y!b!a!C!8!Q!##>&A%[#(",
"$q$q$]$]$%$4%c#N B H [ l _ ] ` a i h R , D&(&:#B",
"$M$J$6$8#r#[%L#] = ; L J > H Q I I < 3 % )%4%u# ",
"$$$9$ $3#c#=%|$Q M @ G A C L F 8 6 1 2 * 5%O$I!L",
"#E#b#p#a#R#5%`#x 9 0 + ' & $ !   # ( / - n& #G d",
"#D#T#Z#Y#Q#M$O#7 ? 4 . / 7 E X Z Z Y o!`$@&!#g!w",
"$w%D%e&-%{%z&,%W$|$c%7%7%6$~$~%8%U%k&.&;&9%m%N%H",
"%X%Y%n&%&'%o%A%+%.$y%)$x%1%R%T%j%l%}&+&0&1&#&2%l",
"#`#i#j#{$C$B#z#l$-$D$,#k#P$L%b%v%i%g%w&*%j%S%5%/",
"!i!g![!j#)#0#1#;#J#V#U#C!_#L%p$N$b$v%$%@%B%?%'% ",
"!h!d!H!;!V!Y!Y!h!~#/#:!~!4#!&6$=$7$V$W%#%<%<%:%!",
"!u!f!=!?!=!1!/!;!Z!e!t!W m!v&G$p$U$i$Y$o$r$r$r$k",
"!]!Z!=!K!@!(!'!<!X!c!r!9 K#4&L$[$0$h$k$o$o$o$r$o",
"!;!:!2!J!^!N!6!5!3!0!. q :#t&C%=$/$G$X$l$k$Z$Z$n",
"!& } w!>!M!*!) y!+!  j W!A%E&?%>$F#n#q$2$5$1$H#~",
" c T U e S x%;&F&G&8&4%a%^%M&)%C$.#X#S#m#|#o$m%F",
"#F#3!k!l#6$?&D&D&J&K&E&E&@&<&B&7%,$#$!#s$(%2&>&E",
"%f%|%P%V%Q$z%(%o%Z%9$f$e$S%%&5&I&F&$&/%G$}&3%~#p"};
