/* XPM */
static char *15[] = {
"24 24 528 2",
"  	c #785F44",
" !	c #786045",
" #	c #796043",
" $	c #796045",
" %	c #7A6044",
" &	c #7A6143",
" '	c #7A6145",
" (	c #7B6045",
" )	c #7B6144",
" *	c #7B6146",
" +	c #7B6246",
" ,	c #7C6346",
" -	c #7C6347",
" .	c #7D6347",
" /	c #7D6445",
" 0	c #7D6548",
" 1	c #7E6548",
" 2	c #7F6447",
" 3	c #806548",
" 4	c #80664A",
" 5	c #806748",
" 6	c #816749",
" 7	c #826649",
" 8	c #947450",
" 9	c #947452",
" :	c #9A7A56",
" ;	c #9B7A57",
" <	c #9C7C58",
" =	c #9C7C59",
" >	c #9D7E5B",
" ?	c #9E7F5B",
" @	c #9F815E",
" A	c #A07F59",
" B	c #A0815D",
" C	c #A0825C",
" D	c #A1835F",
" E	c #A2815C",
" F	c #A2835F",
" G	c #A68763",
" H	c #A88966",
" I	c #A98965",
" J	c #AC8B63",
" K	c #AD8B62",
" L	c #B19066",
" M	c #B29066",
" N	c #B2936C",
" O	c #B4966F",
" P	c #C89F70",
" Q	c #C9A071",
" R	c #C9A476",
" S	c #C9A477",
" T	c #CBA678",
" U	c #CBA778",
" V	c #CBA879",
" W	c #CCA778",
" X	c #CCA779",
" Y	c #CCA879",
" Z	c #CCA87A",
" [	c #CCA97A",
" ]	c #CDA77A",
" ^	c #CDA879",
" _	c #CDA87A",
" `	c #CDA97A",
" a	c #CDAA7A",
" b	c #CEA97A",
" c	c #CEAB7B",
" d	c #CFA879",
" e	c #CFAA7B",
" f	c #CFAB7B",
" g	c #CFAB7D",
" h	c #CFAC7E",
" i	c #D0A876",
" j	c #D0AE7D",
" k	c #D1A978",
" l	c #D1AC7E",
" m	c #D1AD7E",
" n	c #D2AA79",
" o	c #D2AA7B",
" p	c #D2AB7C",
" q	c #D2AF81",
" r	c #D2B186",
" s	c #D3AE7F",
" t	c #D3AF7E",
" u	c #D3B080",
" v	c #D3B181",
" w	c #D3B287",
" x	c #D4AC7C",
" y	c #D4B081",
" z	c #D4B287",
" {	c #D4B389",
" |	c #D4CCC0",
" }	c #D5AE7E",
" ~	c #D5B283",
"! 	c #D5CBB9",
"!!	c #D5CBBB",
"!#	c #D5CBBC",
"!$	c #D5CBBD",
"!%	c #D5CCC0",
"!&	c #D5CDBF",
"!'	c #D5CDC1",
"!(	c #D6B080",
"!)	c #D6B283",
"!*	c #D6B384",
"!+	c #D6B585",
"!,	c #D7AE7B",
"!-	c #D7AF7C",
"!.	c #D7B081",
"!/	c #D7B180",
"!0	c #D7B484",
"!1	c #D7B58B",
"!2	c #D7B787",
"!3	c #D7CBBE",
"!4	c #D7CCBC",
"!5	c #D7CCBD",
"!6	c #D7CDBC",
"!7	c #D7CDC2",
"!8	c #D8B07F",
"!9	c #D8B081",
"!:	c #D8B17E",
"!;	c #D8B17F",
"!<	c #D8B180",
"!=	c #D8B383",
"!>	c #D8B483",
"!?	c #D8B583",
"!@	c #D8B586",
"!A	c #D8B58B",
"!B	c #D8B787",
"!C	c #D8B78C",
"!D	c #D8B88F",
"!E	c #D8CAC0",
"!F	c #D8CBBB",
"!G	c #D8CBBE",
"!H	c #D8CDC1",
"!I	c #D8CDC3",
"!J	c #D9B17E",
"!K	c #D9B17F",
"!L	c #D9B37F",
"!M	c #D9B380",
"!N	c #D9B688",
"!O	c #D9B68E",
"!P	c #D9B889",
"!Q	c #D9B988",
"!R	c #D9BD94",
"!S	c #DAB17F",
"!T	c #DAB380",
"!U	c #DAB482",
"!V	c #DAB581",
"!W	c #DAB888",
"!X	c #DAB988",
"!Y	c #DAB98A",
"!Z	c #DABA89",
"![	c #DABA8A",
"!]	c #DACABD",
"!^	c #DBB380",
"!_	c #DBB481",
"!`	c #DBB482",
"!a	c #DBB583",
"!b	c #DBB782",
"!c	c #DBB888",
"!d	c #DBBA8B",
"!e	c #DBBA92",
"!f	c #DBBB8B",
"!g	c #DBBB92",
"!h	c #DBBB93",
"!i	c #DBBC8B",
"!j	c #DCB581",
"!k	c #DCB98A",
"!l	c #DCBA8A",
"!m	c #DCBC8A",
"!n	c #DCBC8B",
"!o	c #DCBC8D",
"!p	c #DCBD8D",
"!q	c #DCBD96",
"!r	c #DDB682",
"!s	c #DDB783",
"!t	c #DDB784",
"!u	c #DDB885",
"!v	c #DDB98A",
"!w	c #DDBA8B",
"!x	c #DDBD8D",
"!y	c #DDBE8D",
"!z	c #DDBE8E",
"!{	c #DDD3C5",
"!|	c #DDD5C8",
"!}	c #DEB884",
"!~	c #DEB885",
"# 	c #DEB984",
"#!	c #DEB985",
"##	c #DEB986",
"#$	c #DEB987",
"#%	c #DEBA86",
"#&	c #DEBD8D",
"#'	c #DEBD8E",
"#(	c #DEBF8F",
"#)	c #DEBF99",
"#*	c #DED2CA",
"#+	c #DED6CC",
"#,	c #DED7CF",
"#-	c #DFB884",
"#.	c #DFB986",
"#/	c #DFB987",
"#0	c #DFBA86",
"#1	c #DFBA87",
"#2	c #DFBF93",
"#3	c #DFC199",
"#4	c #DFD7CC",
"#5	c #E0BA87",
"#6	c #E0BC8D",
"#7	c #E0BE90",
"#8	c #E0C08F",
"#9	c #E0C199",
"#:	c #E0C19B",
"#;	c #E0CBA7",
"#<	c #E0D9CC",
"#=	c #E0D9D1",
"#>	c #E0DACF",
"#?	c #E1BE8E",
"#@	c #E1BE90",
"#A	c #E1BE91",
"#B	c #E1BF92",
"#C	c #E1C394",
"#D	c #E1C396",
"#E	c #E1DAD0",
"#F	c #E1DCD1",
"#G	c #E2BF8F",
"#H	c #E2C092",
"#I	c #E2C392",
"#J	c #E2C394",
"#K	c #E2C395",
"#L	c #E2C396",
"#M	c #E2C496",
"#N	c #E2D9CC",
"#O	c #E3C092",
"#P	c #E3C195",
"#Q	c #E3C295",
"#R	c #E3C495",
"#S	c #E3C696",
"#T	c #E3C699",
"#U	c #E3CAAE",
"#V	c #E4C696",
"#W	c #E4C69B",
"#X	c #E4C798",
"#Y	c #E4C999",
"#Z	c #E4DAD0",
"#[	c #E4E0DC",
"#]	c #E5C598",
"#^	c #E5C696",
"#_	c #E5C798",
"#`	c #E5C897",
"#a	c #E5DCD7",
"#b	c #E5DFDA",
"#c	c #E5E1DD",
"#d	c #E5E1DE",
"#e	c #E6C395",
"#f	c #E6C596",
"#g	c #E6C598",
"#h	c #E6C79A",
"#i	c #E6C79B",
"#j	c #E6C999",
"#k	c #E6CA9C",
"#l	c #E6DAD3",
"#m	c #E6DFDA",
"#n	c #E7C593",
"#o	c #E7C79A",
"#p	c #E7C89B",
"#q	c #E7C89D",
"#r	c #E7C99D",
"#s	c #E7CC9B",
"#t	c #E7DFD8",
"#u	c #E7E1D8",
"#v	c #E7E1DA",
"#w	c #E7E1DC",
"#x	c #E8C79B",
"#y	c #E8C99A",
"#z	c #E8CD9A",
"#{	c #E8CEA2",
"#|	c #E8D1BB",
"#}	c #E8D5BE",
"#~	c #E9C89C",
"$ 	c #E9C99C",
"$!	c #E9CB9E",
"$#	c #E9CEA0",
"$$	c #E9D0A5",
"$%	c #E9D4BE",
"$&	c #E9E1D9",
"$'	c #E9E3DA",
"$(	c #E9E3DC",
"$)	c #E9E4DD",
"$*	c #EAC998",
"$+	c #EAC99D",
"$,	c #EACA9E",
"$-	c #EACA9F",
"$.	c #EACB9E",
"$/	c #EACC9D",
"$0	c #EACCA0",
"$1	c #EACD9E",
"$2	c #EACD9F",
"$3	c #EAD0A0",
"$4	c #EAD1A8",
"$5	c #EAD2A0",
"$6	c #EAD9C8",
"$7	c #EADED8",
"$8	c #EAE4DE",
"$9	c #EAE4DF",
"$:	c #EBCB9E",
"$;	c #EBCB9F",
"$<	c #EBCC9D",
"$=	c #EBCC9E",
"$>	c #EBCC9F",
"$?	c #EBCCA0",
"$@	c #EBCEA0",
"$A	c #EBD0A1",
"$B	c #EBD3A3",
"$C	c #ECCA9A",
"$D	c #ECCBA0",
"$E	c #ECCC9F",
"$F	c #ECCDA0",
"$G	c #ECCDA1",
"$H	c #ECCF9F",
"$I	c #ECCFA1",
"$J	c #ECD1A1",
"$K	c #ECD2A2",
"$L	c #ECD4A3",
"$M	c #ECD5A4",
"$N	c #ECD5A5",
"$O	c #ECD8C6",
"$P	c #ECD9B2",
"$Q	c #ECE6E2",
"$R	c #ECE6E3",
"$S	c #EDCDA2",
"$T	c #EDCE9E",
"$U	c #EDCEA1",
"$V	c #EDD6A7",
"$W	c #EDDCB6",
"$X	c #EDE3CE",
"$Y	c #EDE6E3",
"$Z	c #EDE8E4",
"$[	c #EED0A2",
"$]	c #EED3A2",
"$^	c #EEDAB0",
"$_	c #EEDAB3",
"$`	c #EEDAC7",
"$a	c #EEDBB8",
"$b	c #EEDCC8",
"$c	c #EEEAE5",
"$d	c #EFCE9D",
"$e	c #EFD09E",
"$f	c #EFD19F",
"$g	c #EFD1A2",
"$h	c #EFD3A3",
"$i	c #EFD4A3",
"$j	c #EFD5A6",
"$k	c #EFD8A7",
"$l	c #EFD8A8",
"$m	c #EFDAB4",
"$n	c #EFDAB8",
"$o	c #EFE0BF",
"$p	c #EFE1CC",
"$q	c #EFE4DA",
"$r	c #EFE4DD",
"$s	c #EFE6DE",
"$t	c #EFEAE3",
"$u	c #EFEBE4",
"$v	c #F0D4A4",
"$w	c #F0DBB4",
"$x	c #F0DCBB",
"$y	c #F0DEBA",
"$z	c #F0DEBC",
"${	c #F0DECB",
"$|	c #F0E1D2",
"$}	c #F0E8D6",
"$~	c #F0EBE9",
"% 	c #F1D49E",
"%!	c #F1D5A2",
"%#	c #F1D6A2",
"%$	c #F1D8A7",
"%%	c #F1D8A9",
"%&	c #F1D9A3",
"%'	c #F1D9A7",
"%(	c #F1DBA8",
"%)	c #F1E3CB",
"%*	c #F1E5DD",
"%+	c #F1ECE5",
"%,	c #F1ECE7",
"%-	c #F1EFEC",
"%.	c #F1F1F0",
"%/	c #F2D6A5",
"%0	c #F2D8A6",
"%1	c #F2D8A7",
"%2	c #F2DAA7",
"%3	c #F2DAA9",
"%4	c #F2DBAB",
"%5	c #F2E5C7",
"%6	c #F2E5C8",
"%7	c #F2E5CD",
"%8	c #F2E7D4",
"%9	c #F2ECEA",
"%:	c #F2EEEB",
"%;	c #F3DDAD",
"%<	c #F3DEAB",
"%=	c #F3DFAA",
"%>	c #F3E0AD",
"%?	c #F3E1B3",
"%@	c #F3E3CA",
"%A	c #F3E4CC",
"%B	c #F3E6C7",
"%C	c #F3E8C8",
"%D	c #F3E9C9",
"%E	c #F3EBDD",
"%F	c #F3F0EE",
"%G	c #F3F1F1",
"%H	c #F4E0AD",
"%I	c #F4E1AE",
"%J	c #F4E6C9",
"%K	c #F4E6CB",
"%L	c #F4E8C7",
"%M	c #F4E8CB",
"%N	c #F4E8CD",
"%O	c #F4EBD8",
"%P	c #F4F1DB",
"%Q	c #F4F1F0",
"%R	c #F4F2F0",
"%S	c #F5E5C4",
"%T	c #F5E6C5",
"%U	c #F5E6CE",
"%V	c #F5E8C4",
"%W	c #F5E9CC",
"%X	c #F5F2EE",
"%Y	c #F5F2F2",
"%Z	c #F5F3EF",
"%[	c #F5F3F3",
"%]	c #F6E7CA",
"%^	c #F6E8C9",
"%_	c #F6EACE",
"%`	c #F6EBCD",
"%a	c #F6EED5",
"%b	c #F6EFD6",
"%c	c #F6EFEB",
"%d	c #F6F0EC",
"%e	c #F6F0F2",
"%f	c #F6F2EE",
"%g	c #F6F4EB",
"%h	c #F7E9CB",
"%i	c #F7E9CE",
"%j	c #F7EACF",
"%k	c #F7EBCE",
"%l	c #F7EBD0",
"%m	c #F7ECD0",
"%n	c #F7ECD1",
"%o	c #F7EFEC",
"%p	c #F7F1EF",
"%q	c #F7F2F0",
"%r	c #F7F2F1",
"%s	c #F7F3F6",
"%t	c #F7F4E9",
"%u	c #F7F4F6",
"%v	c #F7F6F7",
"%w	c #F8EBCD",
"%x	c #F8EBCF",
"%y	c #F8EBD0",
"%z	c #F8EBD1",
"%{	c #F8EEDB",
"%|	c #F8F0D7",
"%}	c #F8F1DF",
"%~	c #F8F2F3",
"& 	c #F8F3F0",
"&!	c #F8F4EF",
"&#	c #F8F4F2",
"&$	c #F8F7F2",
"&%	c #F9EBD1",
"&&	c #F9ECD1",
"&'	c #F9EDD6",
"&(	c #F9F1DB",
"&)	c #F9F2ED",
"&*	c #F9F4E9",
"&+	c #F9F4F2",
"&,	c #F9F6F8",
"&-	c #F9F7F0",
"&.	c #F9F8F6",
"&/	c #F9F8FA",
"&0	c #FAEEDD",
"&1	c #FAF2EF",
"&2	c #FAF3DF",
"&3	c #FAF3E9",
"&4	c #FAF3F4",
"&5	c #FAF5F5",
"&6	c #FAF6EB",
"&7	c #FAF6EC",
"&8	c #FAF6F5",
"&9	c #FAF7FA",
"&:	c #FAF8F5",
"&;	c #FAF9F9",
"&<	c #FAF9FC",
"&=	c #FAFBFC",
"&>	c #FBF1F1",
"&?	c #FBF1F2",
"&@	c #FBF2E5",
"&A	c #FBF4E4",
"&B	c #FBF6E8",
"&C	c #FBF6ED",
"&D	c #FBF6EF",
"&E	c #FBF8F7",
"&F	c #FBF8F8",
"&G	c #FBF8FC",
"&H	c #FBF9F5",
"&I	c #FBFAF8",
"&J	c #FBFAFD",
"&K	c #FCF8F4",
"&L	c #FCFBF9",
"&M	c #FCFCFB",
"&N	c #FDF6E6",
"&O	c #FDFAF5",
"&P	c #FDFAFB",
"&Q	c #FDFAFD",
"&R	c #FDFBF9",
"&S	c #FDFBFA",
"&T	c #FEF9EC",
"&U	c #FEF9F9",
"&V	c #FEFAEF",
"&W	c #FEFBF9",
"&X	c #FEFBFE",
"&Y	c #FFF8E9",
"&Z	c #FFF9EB",
"&[	c #FFFBFA",
"&]	c #FFFCFB",
"&^	c #FFFCFF",
"&_	c #FFFDFC",
"&`	c #FFFDFD",
"%u%[%Q%:$~%q&P&Q&F&!&-&@$w$l$k$N$B#j#7#?#G#O O /",
"%N%`%a%b%|&(&2%}&0%8%t&3$_$V$B#Y#C#'!w!v!k#6 N 5",
"% %&%<%H%I%>%=%(%%$$$X&7$W$L#s#(!f!N!@!) y y I 4",
"$e%!%$%1%0%/$v$]$A#{$|&O$y$K#_!p!2!* ~ y m g B 0",
"$d$f$i$i$h$g$[$H$/#k$O&W$z$A#V!i!+ u s l e [ > -",
"$C$T$I$I$U$S$G$0#i#L#|&R$x$@#R!d v f b ^ ] V @ ,",
"$*$<$2$2$F$D$D$-#]#2$%&S$n$1#J!P m U W _ _ Y F .",
"#n#y$!$.$=$E$>$;#i#M$b&`$a$##K!Y h S R T T Z C +",
"#e#^#p#~$,$>$:$?#r#T$p&_$m$3#S!o q T R R R X ? !",
"#g#X#h#o#x$ $+$-#q#D${&U$^$5#`!y!0 j c a ` m D $",
"#9#K#Q#P#B#7#@#H#A#&$`&#$o$M#z#8!n![!Q!B!@!c H *",
"$6#U#)#3!q!e!g!h!R#;%*%f%E$P$J#I!Z!x!z!p!l!k G %",
"&.&=&<&G&,&/&9%s%.%Z%d%c%X$}$4#f t f!X!m!W!= =  ",
"&;&H&D&6&*&$&J%v%-$c$&#N#Z%+#}#W } P d!?!>!( : '",
"%{&'&&%m%M%O&I%R$)#a!|! !F$'$q#:!; i Q o!/!. < &",
"&%%y%k%W%6%A&E%F#m#t#<!#!4$(%o!O!:!- n x!<!9 ; #",
"%z%y%x%_%J%@&+%G#[#v#>!&!6$8&1 z!L!j!s!a!8 p 9 %",
"%l%z%l%j%K%)%p%G#d#b#,!'!5$9&> r!V#!#0!t!K k 8 (",
"%n%z%j%i%]%7&5%Y#c#w#= |!!$R&? w!b#0#%!~!^!; A )",
"%k%w%h%^%T%5&)%,#F#u#E!%!$$Z&4 {!u#1##!~!_!` J 2",
"%B%L%C%D%S%U& $t!{#4#+!7!G$Q%r!A#!#1#$!u!U!_ L 3",
"&K&L&M&]&[&X&^&W$s!]!H!I!3$Y%e!1# #5#/!u!M!^ M 7",
"&V&Z&T&Z&Y&N&A&B&C$r#l#*!E%9%~!C!}#0#.!t!T!S K 6",
"$j%#%2%'%3%4%;%?%V%P%g$u$7&:&8!D!s#-!}!r!J!, E 1"};
