/* XPM */
static char *16[] = {
"24 24 547 2",
"  	c #342619",
" !	c #36281C",
" #	c #372A1C",
" $	c #3B2C1E",
" %	c #3E2F20",
" &	c #3E2F22",
" '	c #473423",
" (	c #473827",
" )	c #493321",
" *	c #4C341D",
" +	c #4C3521",
" ,	c #4C3A27",
" -	c #4D3824",
" .	c #4D3927",
" /	c #4D3A28",
" 0	c #4E3926",
" 1	c #4E3C2C",
" 2	c #4F3928",
" 3	c #4F3B2A",
" 4	c #503A26",
" 5	c #503E2C",
" 6	c #503E2D",
" 7	c #513B27",
" 8	c #523722",
" 9	c #523C29",
" :	c #533923",
" ;	c #543927",
" <	c #543F2B",
" =	c #553C28",
" >	c #553C2B",
" ?	c #563B23",
" @	c #56412D",
" A	c #584430",
" B	c #5A3B24",
" C	c #5A3C26",
" D	c #5A3F28",
" E	c #5B4531",
" F	c #5D3D25",
" G	c #5F3E26",
" H	c #5F4A34",
" I	c #604028",
" J	c #604933",
" K	c #605040",
" L	c #613F27",
" M	c #614127",
" N	c #614228",
" O	c #614932",
" P	c #624027",
" Q	c #624128",
" R	c #62432A",
" S	c #624730",
" T	c #624931",
" U	c #644128",
" V	c #644228",
" W	c #644229",
" X	c #65462A",
" Y	c #664B32",
" Z	c #67442C",
" [	c #67452A",
" ]	c #674D37",
" ^	c #68452C",
" _	c #68472A",
" `	c #684C33",
" a	c #684C34",
" b	c #69472B",
" c	c #69472E",
" d	c #694F34",
" e	c #69523B",
" f	c #69543F",
" g	c #695641",
" h	c #6A472D",
" i	c #6A482B",
" j	c #6A482C",
" k	c #6A492B",
" l	c #6A492C",
" m	c #6A4C32",
" n	c #6A5139",
" o	c #6B472F",
" p	c #6B482B",
" q	c #6B482F",
" r	c #6B4830",
" s	c #6B492B",
" t	c #6B4A30",
" u	c #6B4B2F",
" v	c #6B4B30",
" w	c #6B4C33",
" x	c #6B4D34",
" y	c #6B553F",
" z	c #6B563F",
" {	c #6C4A30",
" |	c #6C4B30",
" }	c #6C4C33",
" ~	c #6D482E",
"! 	c #6D4A2F",
"!!	c #6D4C30",
"!#	c #6D4C31",
"!$	c #6D5139",
"!%	c #6D523C",
"!&	c #6D553E",
"!'	c #6E4A30",
"!(	c #6E4C32",
"!)	c #6E4D32",
"!*	c #6E4F34",
"!+	c #6F4D33",
"!,	c #6F4E33",
"!-	c #6F4F31",
"!.	c #6F4F33",
"!/	c #6F4F34",
"!0	c #705D47",
"!1	c #715439",
"!2	c #715944",
"!3	c #715B43",
"!4	c #724C2F",
"!5	c #724E32",
"!6	c #725037",
"!7	c #725135",
"!8	c #725136",
"!9	c #725F49",
"!:	c #734E2E",
"!;	c #735236",
"!<	c #735237",
"!=	c #73543B",
"!>	c #735A43",
"!?	c #735D42",
"!@	c #735F45",
"!A	c #736049",
"!B	c #73614D",
"!C	c #745337",
"!D	c #745439",
"!E	c #755438",
"!F	c #75543A",
"!G	c #75553A",
"!H	c #755D43",
"!I	c #756551",
"!J	c #764E33",
"!K	c #765A3E",
"!L	c #766655",
"!M	c #775539",
"!N	c #77563A",
"!O	c #77573A",
"!P	c #785639",
"!Q	c #78573B",
"!R	c #78573D",
"!S	c #785A3E",
"!T	c #785C3F",
"!U	c #796854",
"!V	c #7A5333",
"!W	c #7A5335",
"!X	c #7A533A",
"!Y	c #7A593B",
"!Z	c #7A5B3E",
"![	c #7B5534",
"!]	c #7B593B",
"!^	c #7B593D",
"!_	c #7B5B3D",
"!`	c #7B5C40",
"!a	c #7C5937",
"!b	c #7C5A3B",
"!c	c #7C5B3B",
"!d	c #7C5B3D",
"!e	c #7C6954",
"!f	c #7D5A3A",
"!g	c #7D5B3A",
"!h	c #7D5B3B",
"!i	c #7D5B3D",
"!j	c #7D5C3E",
"!k	c #7E5C3A",
"!l	c #7E5C3B",
"!m	c #7E674D",
"!n	c #7E6F5C",
"!o	c #7F5838",
"!p	c #7F5D3E",
"!q	c #7F6247",
"!r	c #7F6F5D",
"!s	c #805A37",
"!t	c #805E3D",
"!u	c #805F3F",
"!v	c #806242",
"!w	c #815739",
"!x	c #815D3E",
"!y	c #815F40",
"!z	c #82573A",
"!{	c #82583A",
"!|	c #825B39",
"!}	c #825F40",
"!~	c #826041",
"# 	c #82684B",
"#!	c #835A3B",
"##	c #835A3C",
"#$	c #836244",
"#%	c #836444",
"#&	c #837462",
"#'	c #845936",
"#(	c #845A3C",
"#)	c #845C3B",
"#*	c #84603D",
"#+	c #846144",
"#,	c #855B38",
"#-	c #855C3D",
"#.	c #855D3C",
"#/	c #865C3C",
"#0	c #865E3D",
"#1	c #865F3B",
"#2	c #865F3F",
"#3	c #865F40",
"#4	c #865F41",
"#5	c #875F39",
"#6	c #875F3E",
"#7	c #875F3F",
"#8	c #87603F",
"#9	c #876141",
"#:	c #87694B",
"#;	c #876B4F",
"#<	c #885D3E",
"#=	c #88603E",
"#>	c #88603F",
"#?	c #88613D",
"#@	c #88623E",
"#A	c #88694C",
"#B	c #886F55",
"#C	c #89603D",
"#D	c #896543",
"#E	c #89684B",
"#F	c #897055",
"#G	c #897765",
"#H	c #8A603D",
"#I	c #8A6040",
"#J	c #8A6849",
"#K	c #8A694C",
"#L	c #8A7156",
"#M	c #8A745A",
"#N	c #8A7865",
"#O	c #8B613D",
"#P	c #8B613F",
"#Q	c #8B623B",
"#R	c #8B633E",
"#S	c #8B6644",
"#T	c #8B6B48",
"#U	c #8B7256",
"#V	c #8B7B6A",
"#W	c #8B7B6C",
"#X	c #8C613A",
"#Y	c #8C623A",
"#Z	c #8C623E",
"#[	c #8C7050",
"#]	c #8D6140",
"#^	c #8D653F",
"#_	c #8D6E4F",
"#`	c #8D7356",
"#a	c #8D785E",
"#b	c #8D7D6D",
"#c	c #8D7F70",
"#d	c #8E6341",
"#e	c #8E664D",
"#f	c #8E7459",
"#g	c #8E755B",
"#h	c #8F613A",
"#i	c #8F613F",
"#j	c #8F623B",
"#k	c #8F6241",
"#l	c #8F6642",
"#m	c #8F6643",
"#n	c #8F6646",
"#o	c #8F755B",
"#p	c #8F755C",
"#q	c #906545",
"#r	c #906747",
"#s	c #907254",
"#t	c #90765C",
"#u	c #916545",
"#v	c #916546",
"#w	c #916645",
"#x	c #916647",
"#y	c #916747",
"#z	c #916949",
"#{	c #918372",
"#|	c #92643B",
"#}	c #926A4A",
"#~	c #926B48",
"$ 	c #926E48",
"$!	c #936941",
"$#	c #936A45",
"$$	c #936A4A",
"$%	c #936A4B",
"$&	c #937F6B",
"$'	c #946743",
"$(	c #946843",
"$)	c #946B49",
"$*	c #946E49",
"$+	c #95673C",
"$,	c #95673F",
"$-	c #956741",
"$.	c #956842",
"$/	c #956D4C",
"$0	c #966D4C",
"$1	c #976B42",
"$2	c #976B43",
"$3	c #977958",
"$4	c #97795B",
"$5	c #986A3D",
"$6	c #986A41",
"$7	c #986B40",
"$8	c #986B41",
"$9	c #986C4B",
"$:	c #986E4B",
"$;	c #986E4D",
"$<	c #986F4D",
"$=	c #987150",
"$>	c #987957",
"$?	c #987F60",
"$@	c #988166",
"$A	c #98836E",
"$B	c #988876",
"$C	c #988972",
"$D	c #996B3F",
"$E	c #996F4B",
"$F	c #997050",
"$G	c #99775C",
"$H	c #9A6B40",
"$I	c #9A6C40",
"$J	c #9A6C44",
"$K	c #9A704C",
"$L	c #9A714D",
"$M	c #9B6D42",
"$N	c #9B6E45",
"$O	c #9B704B",
"$P	c #9C6F43",
"$Q	c #9C7046",
"$R	c #9C704B",
"$S	c #9C7350",
"$T	c #9C7452",
"$U	c #9C7555",
"$V	c #9C7655",
"$W	c #9C7E5B",
"$X	c #9D6F43",
"$Y	c #9D7759",
"$Z	c #9D7D5B",
"$[	c #9E7046",
"$]	c #9E7047",
"$^	c #9E7145",
"$_	c #9E7146",
"$`	c #9E7652",
"$a	c #9F7045",
"$b	c #9F7145",
"$c	c #9F7651",
"$d	c #9F7652",
"$e	c #9F784E",
"$f	c #9F784F",
"$g	c #9F7958",
"$h	c #9F805E",
"$i	c #9F805F",
"$j	c #A07245",
"$k	c #A07247",
"$l	c #A07346",
"$m	c #A07753",
"$n	c #A0815F",
"$o	c #A08462",
"$p	c #A09282",
"$q	c #A17246",
"$r	c #A17346",
"$s	c #A1774F",
"$t	c #A17B55",
"$u	c #A17B57",
"$v	c #A27246",
"$w	c #A27954",
"$x	c #A27B55",
"$y	c #A27D56",
"$z	c #A27D5E",
"${	c #A2835F",
"$|	c #A37346",
"$}	c #A37347",
"$~	c #A37752",
"% 	c #A37A52",
"%!	c #A37C58",
"%#	c #A37D5D",
"%$	c #A37F5A",
"%%	c #A38363",
"%&	c #A38E7B",
"%'	c #A47F60",
"%(	c #A4805D",
"%)	c #A48062",
"%*	c #A48361",
"%+	c #A48563",
"%,	c #A48764",
"%-	c #A5794F",
"%.	c #A57A50",
"%/	c #A57A55",
"%0	c #A57B56",
"%1	c #A57F5A",
"%2	c #A5805D",
"%3	c #A58665",
"%4	c #A58763",
"%5	c #A58D77",
"%6	c #A67851",
"%7	c #A67A4E",
"%8	c #A6835F",
"%9	c #A68762",
"%:	c #A68763",
"%;	c #A68966",
"%<	c #A6896D",
"%=	c #A68A66",
"%>	c #A68C74",
"%?	c #A68C75",
"%@	c #A69682",
"%A	c #A77851",
"%B	c #A77951",
"%C	c #A77D57",
"%D	c #A77E58",
"%E	c #A77F53",
"%F	c #A7825E",
"%G	c #A7825F",
"%H	c #A78264",
"%I	c #A78663",
"%J	c #A78762",
"%K	c #A79381",
"%L	c #A79482",
"%M	c #A87851",
"%N	c #A87951",
"%O	c #A88055",
"%P	c #A98567",
"%Q	c #A98E76",
"%R	c #A99583",
"%S	c #A99686",
"%T	c #A99785",
"%U	c #AA7A52",
"%V	c #AA7B52",
"%W	c #AA8566",
"%X	c #AA8C71",
"%Y	c #AA9075",
"%Z	c #AA917C",
"%[	c #AB8A66",
"%]	c #AB8E74",
"%^	c #AB9988",
"%_	c #AC7B51",
"%`	c #AC7C51",
"%a	c #AC8659",
"%b	c #AC8763",
"%c	c #AC8969",
"%d	c #AC9A89",
"%e	c #AD7E50",
"%f	c #AD8C6F",
"%g	c #AD9583",
"%h	c #AD9B8B",
"%i	c #AE7D51",
"%j	c #AF8E6D",
"%k	c #B1885A",
"%l	c #B1885D",
"%m	c #B1906B",
"%n	c #B19E90",
"%o	c #B2885D",
"%p	c #B28C60",
"%q	c #B2A392",
"%r	c #B3875D",
"%s	c #B3895E",
"%t	c #B39171",
"%u	c #B39B89",
"%v	c #B59576",
"%w	c #B68C5D",
"%x	c #B69571",
"%y	c #B78D5F",
"%z	c #B79470",
"%{	c #B88E5D",
"%|	c #B89A79",
"%}	c #B8A291",
"%~	c #B8A38F",
"& 	c #B98E60",
"&!	c #B9AEA1",
"&#	c #BA8F5F",
"&$	c #BA905F",
"&%	c #BA9062",
"&&	c #BB8E5F",
"&'	c #BB9C7F",
"&(	c #BBA48C",
"&)	c #BC905F",
"&*	c #BC9365",
"&+	c #BC9666",
"&,	c #BCA590",
"&-	c #BCA690",
"&.	c #BCB3AB",
"&/	c #BD9B72",
"&0	c #BDA58A",
"&1	c #BE9360",
"&2	c #BEAC9E",
"&3	c #C09561",
"&4	c #C09B6C",
"&5	c #C0A385",
"&6	c #C0A480",
"&7	c #C19661",
"&8	c #C1AA98",
"&9	c #C1B9B3",
"&:	c #C29F70",
"&;	c #C29F77",
"&<	c #C2A47B",
"&=	c #C2A685",
"&>	c #C2B3A9",
"&?	c #C3A68A",
"&@	c #C3A787",
"&A	c #C3A989",
"&B	c #C3AB8C",
"&C	c #C4A175",
"&D	c #C4A77E",
"&E	c #C4A87C",
"&F	c #C4B3A1",
"&G	c #C5A277",
"&H	c #C5A378",
"&I	c #C5A57C",
"&J	c #C6A782",
"&K	c #C6AC8F",
"&L	c #C6B8AC",
"&M	c #C7A37C",
"&N	c #C7AA7F",
"&O	c #C7AA8C",
"&P	c #C7AB80",
"&Q	c #C7AE8B",
"&R	c #C8AC81",
"&S	c #C8AD82",
"&T	c #C8AE89",
"&U	c #C8B497",
"&V	c #C9A683",
"&W	c #C9AC80",
"&X	c #C9AC81",
"&Y	c #C9AC8C",
"&Z	c #C9B69B",
"&[	c #C9BBB4",
"&]	c #CAAD81",
"&^	c #CAAE83",
"&_	c #CAB79E",
"&`	c #CBAF84",
"&a	c #CBBFBD",
"&b	c #CCB085",
"&c	c #CCB186",
"&d	c #CDB187",
"&e	c #CEBCAC",
"&f	c #CEC2B2",
"&g	c #CEC3B7",
"&h	c #D0BFAA",
"&i	c #D0C4B7",
"&j	c #D1C1AE",
"&k	c #D3BFA4",
"&l	c #D3C6BA",
"&m	c #D5C5B4",
"&n	c #D8CDC2",
"&o	c #D8D4D5",
"&p	c #DCCEB9",
"&q	c #DDD0C8",
"&r	c #E4E2DE",
"&s	c #E6E0DA",
"#K%%%z%b%1%!$u$t$x$y%$%G%8%F%2%(%#$g$V$T$T$U$=$:",
"!5#9%D%C%0%/$w$m$c$d$`$S$F$0$%$$#z#r#n#v#x#u#w#q",
"!4!W#m#l#d#P#/#)#.#0#6#>#7#-###!!{!w!z#(#<#I#]#k",
" B F G L P Q M M Q W ^ q { |! !' ~ ^ Z c r o!+!6",
" * ? X l i b _ b i p s k k i j h [ I C ; > ]!&!%",
"!a!s#5#Q#Y#X#j#|$+$5$H$I$D$7$8$6$,#h#'!J!X%]$Y#i",
"#*#@$!$^$X$M$P$b$r$|$v$a$a$a$j$v$}$q$1#,#+&8%f$-",
"#D#S$#$]$J$($.$'$($2$N$Q$[$_$k$l$l$J#Z!o!R%}&-$9",
"!j!p!x#2#3#4#8#=#C#H#O#R#^#R#?#1!|![!V!:!-%~%u#e",
"!S!T!q#:$4%<%Y%Q%>%?%5%&%L%T%K%R%S%^%h%d%q&L&2%g",
"!v#T%p&+&4&:&C&G&H&I&J&=&0&F&l&g&i&i&f&j&h&_&Z&U",
"$ %E&7&3&1&)&$&#&#&%&*& %a%Z&q&(&6&D&E&P&R&W&]&X",
"$*$f%k%{%w%l%l%o%r%s%y&&%O%n&s&B&<&N&`&d&c&b&^&S",
"#E#A#_$>$Z$h$n%*%I%[%m%x%X&[&r&m&K&@&A&Q&T&T&k&p",
" f!2$G$z%'%)%H%W%c%j%t%v&'&?&O&Y&V&M&;&/%|&n&e&5",
" A!$$~%A%B%6%B%N%M%U%V%_%`%i%e%7%-%.% $e$i&o&,$s",
" & @#J$<$L$;$/#}#y$)$E$R$O$K#~!y!u!}!~!t#$&a&>%P",
" # $ 6 e!H!m#B#L#B#F#f#o#g#t#p#f#`#U#M#a$&&.&9&!",
" ( 1!>#;#s$3$W${%J%9%:%4%+%3%;%=%,$o$?$@$A$B$p%@",
" ! 2!`!Z!^!]!Y!b!h!g!l!k!f!c!h!h!d!i!_#%#[#N#{$C",
"   4!G!;!7!8!<!<!C!E!M!P!O!Q!N!F!D!=!1!K# #G#c#b",
" % ' `!.!# u v t u!!!(!)!,!/!* } x w m a n!e#V#W",
" 5 , < J O T Y ` S 9 . . / 3 0 ) + : D = 7 g!U!L",
" E H y!A!B!I!n#&!r!9!3!@!@!? d N U V R 8 - z!0 K"};
