/* XPM */
static char *17[] = {
"24 24 541 2",
"  	c #544739",
" !	c #574A3D",
" #	c #574B3E",
" $	c #5B4F41",
" %	c #5B5042",
" &	c #5C4D3D",
" '	c #5E4029",
" (	c #5F3F28",
" )	c #613F27",
" *	c #62422B",
" +	c #624935",
" ,	c #63422A",
" -	c #63452E",
" .	c #634C37",
" /	c #64422A",
" 0	c #64452C",
" 1	c #65442B",
" 2	c #65442E",
" 3	c #65452C",
" 4	c #654730",
" 5	c #664831",
" 6	c #664932",
" 7	c #674831",
" 8	c #674931",
" 9	c #674934",
" :	c #674B33",
" ;	c #674B37",
" <	c #694A33",
" =	c #694C35",
" >	c #694D36",
" ?	c #694F3B",
" @	c #6A4D34",
" A	c #6A4F38",
" B	c #6B4C35",
" C	c #6C4C37",
" D	c #6C4C38",
" E	c #6C4D36",
" F	c #6D4C36",
" G	c #6D4D37",
" H	c #6E4E37",
" I	c #6E5137",
" J	c #6E523B",
" K	c #6E533C",
" L	c #6E543D",
" M	c #6E5841",
" N	c #6E6151",
" O	c #6F5036",
" P	c #6F543B",
" Q	c #6F5841",
" R	c #705237",
" S	c #705339",
" T	c #70553C",
" U	c #70553F",
" V	c #705D49",
" W	c #715338",
" X	c #71543D",
" Y	c #71563F",
" Z	c #716453",
" [	c #725339",
" ]	c #72553C",
" ^	c #725B43",
" _	c #725D49",
" `	c #73553A",
" a	c #73553B",
" b	c #745035",
" c	c #74563C",
" d	c #74563D",
" e	c #75533A",
" f	c #755A42",
" g	c #756554",
" h	c #765A40",
" i	c #765F42",
" j	c #766047",
" k	c #766755",
" l	c #775334",
" m	c #775336",
" n	c #775B46",
" o	c #775F42",
" p	c #775F43",
" q	c #776043",
" r	c #776047",
" s	c #776652",
" t	c #776653",
" u	c #785135",
" v	c #785336",
" w	c #786B5A",
" x	c #795337",
" y	c #796146",
" z	c #796449",
" {	c #796552",
" |	c #7A5637",
" }	c #7B7063",
" ~	c #7C634D",
"! 	c #7C6E5D",
"!!	c #7C7065",
"!#	c #7C7160",
"!$	c #7C7164",
"!%	c #7D573E",
"!&	c #7D7062",
"!'	c #7E7164",
"!(	c #7E7165",
"!)	c #7E7264",
"!*	c #7F5232",
"!+	c #7F5435",
"!,	c #7F573A",
"!-	c #7F674E",
"!.	c #7F7364",
"!/	c #807261",
"!0	c #815838",
"!1	c #815939",
"!2	c #815A38",
"!3	c #816B54",
"!4	c #825938",
"!5	c #82593A",
"!6	c #825A39",
"!7	c #825A3B",
"!8	c #826850",
"!9	c #82766B",
"!:	c #835839",
"!;	c #845A3B",
"!<	c #845A3D",
"!=	c #846F59",
"!>	c #855F40",
"!?	c #85735E",
"!@	c #857665",
"!A	c #865E3E",
"!B	c #867159",
"!C	c #86715A",
"!D	c #875E3E",
"!E	c #87623D",
"!F	c #87735B",
"!G	c #88674A",
"!H	c #88735B",
"!I	c #888276",
"!J	c #89603F",
"!K	c #896D4E",
"!L	c #897156",
"!M	c #89745C",
"!N	c #897E72",
"!O	c #8A755C",
"!P	c #8A7B6A",
"!Q	c #8A7F72",
"!R	c #8B603E",
"!S	c #8B7155",
"!T	c #8C7A69",
"!U	c #8C7C6C",
"!V	c #8C7D6D",
"!W	c #8D6240",
"!X	c #8D6C4C",
"!Y	c #8D7559",
"!Z	c #8D7C6B",
"![	c #8D7D6C",
"!]	c #8D7E6D",
"!^	c #8E613F",
"!_	c #8E745F",
"!`	c #8E7F6F",
"!a	c #8E8274",
"!b	c #8F6547",
"!c	c #8F725B",
"!d	c #90633D",
"!e	c #906441",
"!f	c #906443",
"!g	c #906544",
"!h	c #906E4F",
"!i	c #906F4C",
"!j	c #908272",
"!k	c #908375",
"!l	c #916443",
"!m	c #916643",
"!n	c #916644",
"!o	c #916C48",
"!p	c #918373",
"!q	c #918374",
"!r	c #918473",
"!s	c #918474",
"!t	c #918678",
"!u	c #92643F",
"!v	c #926441",
"!w	c #926442",
"!x	c #926543",
"!y	c #926846",
"!z	c #928575",
"!{	c #92897D",
"!|	c #93653E",
"!}	c #936543",
"!~	c #936844",
"# 	c #937050",
"#!	c #93795C",
"##	c #937A60",
"#$	c #938270",
"#%	c #938779",
"#&	c #94653E",
"#'	c #94653F",
"#(	c #946642",
"#)	c #947A5A",
"#*	c #948776",
"#+	c #956641",
"#,	c #956643",
"#-	c #956740",
"#.	c #956744",
"#/	c #956945",
"#0	c #956A46",
"#1	c #956A47",
"#2	c #957559",
"#3	c #95785F",
"#4	c #957A5A",
"#5	c #957B5B",
"#6	c #958877",
"#7	c #96673F",
"#8	c #966844",
"#9	c #966845",
"#:	c #966B48",
"#;	c #96785E",
"#<	c #967A58",
"#=	c #967B5B",
"#>	c #968B80",
"#?	c #97673F",
"#@	c #976743",
"#A	c #976840",
"#B	c #976843",
"#C	c #976945",
"#D	c #976B47",
"#E	c #976C47",
"#F	c #986842",
"#G	c #986844",
"#H	c #986946",
"#I	c #986D4A",
"#J	c #986D4B",
"#K	c #987353",
"#L	c #987A5F",
"#M	c #987D5A",
"#N	c #987D5B",
"#O	c #988A79",
"#P	c #988A7A",
"#Q	c #996844",
"#R	c #996A46",
"#S	c #996D48",
"#T	c #996F4B",
"#U	c #998B7A",
"#V	c #998B7B",
"#W	c #9A6A46",
"#X	c #9A6A47",
"#Y	c #9A6E4A",
"#Z	c #9A7653",
"#[	c #9A7B61",
"#]	c #9A8160",
"#^	c #9B7049",
"#_	c #9B704B",
"#`	c #9B704D",
"#a	c #9B724C",
"#b	c #9B7752",
"#c	c #9B7952",
"#d	c #9B7B5F",
"#e	c #9B9186",
"#f	c #9B9389",
"#g	c #9C714A",
"#h	c #9C7854",
"#i	c #9C9182",
"#j	c #9C9387",
"#k	c #9D724D",
"#l	c #9D7951",
"#m	c #9D8768",
"#n	c #9D886C",
"#o	c #9D9286",
"#p	c #9D9387",
"#q	c #9D958C",
"#r	c #9D968B",
"#s	c #9E734B",
"#t	c #9E907C",
"#u	c #9E9382",
"#v	c #9E9386",
"#w	c #9E9487",
"#x	c #9E958C",
"#y	c #9F754F",
"#z	c #9F7651",
"#{	c #9F7956",
"#|	c #9F7A54",
"#}	c #9F8C79",
"#~	c #9F9585",
"$ 	c #A07750",
"$!	c #A07B54",
"$#	c #A07B57",
"$$	c #A07C5D",
"$%	c #A07D54",
"$&	c #A0886B",
"$'	c #A0978C",
"$(	c #A0988F",
"$)	c #A09890",
"$*	c #A0998E",
"$+	c #A09991",
"$,	c #A1774F",
"$-	c #A17752",
"$.	c #A17954",
"$/	c #A17957",
"$0	c #A17A55",
"$1	c #A17A59",
"$2	c #A17B5E",
"$3	c #A17E57",
"$4	c #A17F5C",
"$5	c #A18063",
"$6	c #A1846B",
"$7	c #A1856D",
"$8	c #A1896A",
"$9	c #A1896B",
"$:	c #A18C77",
"$;	c #A1917E",
"$<	c #A19383",
"$=	c #A1958B",
"$>	c #A19B93",
"$?	c #A27752",
"$@	c #A27851",
"$A	c #A27953",
"$B	c #A27955",
"$C	c #A27B55",
"$D	c #A27F57",
"$E	c #A2896A",
"$F	c #A28A69",
"$G	c #A29584",
"$H	c #A29990",
"$I	c #A29A8C",
"$J	c #A37752",
"$K	c #A37951",
"$L	c #A37955",
"$M	c #A37A54",
"$N	c #A37A57",
"$O	c #A37C55",
"$P	c #A37E5B",
"$Q	c #A37F61",
"$R	c #A3805E",
"$S	c #A38263",
"$T	c #A38567",
"$U	c #A3896A",
"$V	c #A39583",
"$W	c #A39684",
"$X	c #A47952",
"$Y	c #A47C56",
"$Z	c #A47D5A",
"$[	c #A47F60",
"$]	c #A48969",
"$^	c #A48A69",
"$_	c #A49484",
"$`	c #A49585",
"$a	c #A49A8F",
"$b	c #A49C91",
"$c	c #A57953",
"$d	c #A57A53",
"$e	c #A57A55",
"$f	c #A5805A",
"$g	c #A58164",
"$h	c #A5825E",
"$i	c #A58B69",
"$j	c #A5907C",
"$k	c #A59481",
"$l	c #A59584",
"$m	c #A59D91",
"$n	c #A59D92",
"$o	c #A67B56",
"$p	c #A67C56",
"$q	c #A67C58",
"$r	c #A67D56",
"$s	c #A67F5B",
"$t	c #A67F5C",
"$u	c #A67F63",
"$v	c #A68161",
"$w	c #A68365",
"$x	c #A68B6D",
"$y	c #A69686",
"$z	c #A69E93",
"${	c #A77F58",
"$|	c #A78161",
"$}	c #A78465",
"$~	c #A78666",
"% 	c #A78768",
"%!	c #A7896A",
"%#	c #A7896E",
"%$	c #A78A6B",
"%%	c #A78B72",
"%&	c #A79480",
"%'	c #A79788",
"%(	c #A79E93",
"%)	c #A8805E",
"%*	c #A88463",
"%+	c #A88465",
"%,	c #A88D6C",
"%-	c #A8947B",
"%.	c #A89A89",
"%/	c #A89D91",
"%0	c #A98D6E",
"%1	c #A99378",
"%2	c #A99379",
"%3	c #A99988",
"%4	c #AA7F57",
"%5	c #AA8360",
"%6	c #AA8868",
"%7	c #AA896C",
"%8	c #AA9479",
"%9	c #AA947A",
"%:	c #AAA192",
"%;	c #AAA296",
"%<	c #AB8662",
"%=	c #AB876A",
"%>	c #AB8A70",
"%?	c #AB947A",
"%@	c #AB967F",
"%A	c #AB9D8F",
"%B	c #ABA092",
"%C	c #ABA196",
"%D	c #ABA297",
"%E	c #ABA49D",
"%F	c #AC825F",
"%G	c #AC8466",
"%H	c #AC8A6D",
"%I	c #AC8B6E",
"%J	c #AC957A",
"%K	c #AC9675",
"%L	c #ACA498",
"%M	c #ACA49A",
"%N	c #AD8E71",
"%O	c #AD8E72",
"%P	c #AD9173",
"%Q	c #AD9678",
"%R	c #AD9783",
"%S	c #AD9886",
"%T	c #ADA294",
"%U	c #AE8760",
"%V	c #AE8D6A",
"%W	c #AE9070",
"%X	c #AE9179",
"%Y	c #AE9379",
"%Z	c #AE9883",
"%[	c #AE9985",
"%]	c #AE9B89",
"%^	c #AEA49A",
"%_	c #AF8766",
"%`	c #AF8861",
"%a	c #AF8B64",
"%b	c #AF8C66",
"%c	c #AF8C67",
"%d	c #B08E69",
"%e	c #B09377",
"%f	c #B09E8A",
"%g	c #B0A291",
"%h	c #B0A598",
"%i	c #B19F8B",
"%j	c #B29A83",
"%k	c #B29F8B",
"%l	c #B38D66",
"%m	c #B3967B",
"%n	c #B3A493",
"%o	c #B3A594",
"%p	c #B3A698",
"%q	c #B3AA9E",
"%r	c #B4895B",
"%s	c #B49A83",
"%t	c #B59A79",
"%u	c #B5A99A",
"%v	c #B69C81",
"%w	c #B6A998",
"%x	c #B6ACA1",
"%y	c #B79C7E",
"%z	c #B79E7A",
"%{	c #B7ABA0",
"%|	c #B7AEA9",
"%}	c #B8A28B",
"%~	c #B8AEA1",
"& 	c #B8AEA2",
"&!	c #B8AFA4",
"&#	c #B99B71",
"&$	c #B9A28E",
"&%	c #BA946E",
"&&	c #BAA08A",
"&'	c #BAA893",
"&(	c #BAAEA2",
"&)	c #BBA998",
"&*	c #BBAEA2",
"&+	c #BBB4AE",
"&,	c #BCA085",
"&-	c #BCA48D",
"&.	c #BCAF9E",
"&/	c #BCB1A3",
"&0	c #BCB3A7",
"&1	c #BE9D79",
"&2	c #BE9E7E",
"&3	c #BEB2A6",
"&4	c #BF9F7D",
"&5	c #BF9F7E",
"&6	c #BFA278",
"&7	c #BFA784",
"&8	c #BFA88F",
"&9	c #BFB5AF",
"&:	c #C09D77",
"&;	c #C09E7A",
"&<	c #C0A17C",
"&=	c #C0A27F",
"&>	c #C0AC93",
"&?	c #C1B19D",
"&@	c #C1B9B5",
"&A	c #C1BCB4",
"&B	c #C2AC99",
"&C	c #C4A67B",
"&D	c #C5B6A7",
"&E	c #C5BEB7",
"&F	c #C6B6A9",
"&G	c #C7AA80",
"&H	c #C7B08A",
"&I	c #C7B4A1",
"&J	c #C7B8AD",
"&K	c #C7BCB3",
"&L	c #C8AB81",
"&M	c #C9AB7F",
"&N	c #C9AE83",
"&O	c #C9AE84",
"&P	c #C9B39F",
"&Q	c #C9BAB0",
"&R	c #CAAB81",
"&S	c #CAAD82",
"&T	c #CAB394",
"&U	c #CAB6A0",
"&V	c #CABDB0",
"&W	c #CBBCB0",
"&X	c #CCB694",
"&Y	c #CCBCAC",
"&Z	c #CDB590",
"&[	c #CDBEAA",
"&]	c #CDC0B5",
"&^	c #CEBFB4",
"&_	c #D1C4B9",
"&`	c #D1C5C4",
"&a	c #D2C7B3",
"&b	c #D3C8BE",
"&c	c #D3CAC3",
"&d	c #D4CBC2",
"&e	c #D6CCC1",
"&f	c #D6D0C2",
"&g	c #D7C7B2",
"&h	c #D8D0C7",
"&i	c #DACAB6",
"&j	c #DAD2BF",
"&k	c #DBCBB6",
"&l	c #DCCDB7",
"&m	c #DDCDB9",
"#I#J#T#a#y$ #z$-$M$0#h$4&I%s$$$1$Z$s$t%)%5%<#{!>",
"!g!g!g!n#1#_#k$?$e$J#`!o$:%%$/$N$p$p$p$r$o$p#Y!*",
"!e!w!x!}#/#S#^#s#g#E!5 e$j#[!A!J!y#:#D#0!~!m!+!<",
" H C D G E F E B 7 - ' 4 n @ ) ) , 3 0 1 / * ( 2",
" K P T ] a a c d X ? U h R W ` [ I > ; Y f L J S",
"#'#-#7#A#?#&!|!d!R!%#2%W$h$#$!#|#b!i!X$T%P$R$P$f",
"#F#@#G#Q#Q#B#@#,!^!7#;&-%Y%!% %$%0$x%#%j%v%b%a%a",
"#+#8#C#H#R#R#X#W#9!D$7&B%X%7%H%N%I%=%>&$%}%V%c%d",
"!b!n!f!f!l!v!u#(#.!W%O&8$|%F%_%G$u$2$g&&&?%m%6$~",
"%i%f%[%Z%R%]%k%S#}%&&)&D&F&J&Q&]&^&W&V&Y&[&U&,%e",
"&T&X&Z&H&7&>&c&+$+$>$)$($H$m%/%B&K&b&P&;&%%l%`%U",
"&M&S&R&C&#%t&`%|#x$'$a$b$n$b$I!#%M&h&:%r%4$.$B$q",
"&O&N&L&G&6%z&_&9#j$z%D%C%;%(#o }%E&e%c${$O$C$Y$Y",
"&m&l&k&i&g&a&j&f%q#q#f#e#w#v#>!I&@&d%,%*%+$w$}$w",
"&2&2&2&5&5&4&1&<&=%y&'&/%^%L%h%:%T%A#t$;$k$l$y$`",
"$K$d$c$X$K$,$@$A$L#K$6&.$*!{!t#%!z!r#*#6#O#U#V#P",
"$v$[$Q$S$5#d#L#3!c!_%'&A#r!Q!N!a!k!q!p!s!p!p!j!`",
"%w%n%g%o%u%{& &!%x%~&(&0&E$=!9!!!$!'!'!.!)!'!(!&",
"%-%8%?%8%1%2%9%J%Q%K$F##&*&3%3$_$W$G$V$<#u#~#i#p",
"#n$&$9$8$E$E$U$]$i$^#]!L%p%@#c#l$%$D$3#Z# !h!G!8",
"!M!Y#!#)#4#5#=#N#M#<!K!-%.#m!E!2!1!6!4!0!:!;!, A",
"!?!B!M!M!O!H!F!M!F!C!3!=#$!S | l v v v m u x b +",
" N Z w! !/!@!P!]!V!U!Z![!T ~ O < 5 6 9 6 8 = : .",
"   # % $ ! & _ r p i o q y z j ^ Q M V t k g s {"};
