/* XPM */
static char *18[] = {
"24 24 556 2",
"  	c #563824",
" !	c #563923",
" #	c #5A3921",
" $	c #5A3922",
" %	c #5B3B25",
" &	c #5B3D27",
" '	c #5C3B23",
" (	c #5C3C23",
" )	c #5C422A",
" *	c #5D3C25",
" +	c #5E3D25",
" ,	c #5E3F29",
" -	c #5E4E3F",
" .	c #5F3C25",
" /	c #5F3F26",
" 0	c #5F564D",
" 1	c #64432A",
" 2	c #645850",
" 3	c #645A50",
" 4	c #645B51",
" 5	c #65432B",
" 6	c #65442A",
" 7	c #65442D",
" 8	c #65482F",
" 9	c #655A50",
" :	c #664429",
" ;	c #66442A",
" <	c #67462F",
" =	c #67472D",
" >	c #684429",
" ?	c #68442A",
" @	c #684529",
" A	c #68452A",
" B	c #684629",
" C	c #685F56",
" D	c #694429",
" E	c #69442A",
" F	c #69452B",
" G	c #69462B",
" H	c #69462C",
" I	c #69472D",
" J	c #6A4E38",
" K	c #6A4E3B",
" L	c #6B6156",
" M	c #6C4D34",
" N	c #6D4B32",
" O	c #6E5136",
" P	c #6F5137",
" Q	c #6F523A",
" R	c #705036",
" S	c #70533A",
" T	c #715238",
" U	c #71675B",
" V	c #72573A",
" W	c #725C45",
" X	c #73553C",
" Y	c #735C43",
" Z	c #735C47",
" [	c #736556",
" ]	c #736A5E",
" ^	c #745E46",
" _	c #74614D",
" `	c #74634E",
" a	c #746656",
" b	c #746A5F",
" c	c #746A60",
" d	c #746C61",
" e	c #75563E",
" f	c #755E49",
" g	c #75624C",
" h	c #756856",
" i	c #756857",
" j	c #765A45",
" k	c #766046",
" l	c #76624A",
" m	c #766451",
" n	c #766754",
" o	c #766955",
" p	c #766956",
" q	c #776048",
" r	c #776B5E",
" s	c #776E62",
" t	c #786047",
" u	c #786249",
" v	c #78624A",
" w	c #78634D",
" x	c #78644A",
" y	c #78644F",
" z	c #786E61",
" {	c #795136",
" |	c #79654C",
" }	c #796B5C",
" ~	c #796B5D",
"! 	c #796C5E",
"!!	c #7A6249",
"!#	c #7A654D",
"!$	c #7A674F",
"!%	c #7A6A5C",
"!&	c #7A6B5A",
"!'	c #7A6C5D",
"!(	c #7A6D5D",
"!)	c #7A6D5E",
"!*	c #7A6D60",
"!+	c #7B6049",
"!,	c #7B6449",
"!-	c #7B644A",
"!.	c #7B644B",
"!/	c #7B6A5C",
"!0	c #7B6C5E",
"!1	c #7B6E5E",
"!2	c #7C5237",
"!3	c #7C6B5A",
"!4	c #7D5135",
"!5	c #7D5237",
"!6	c #7D6345",
"!7	c #7D6E5F",
"!8	c #7E5235",
"!9	c #7E5337",
"!:	c #7E593F",
"!;	c #7E6D5B",
"!<	c #7E7061",
"!=	c #7E7265",
"!>	c #7F634B",
"!?	c #7F684F",
"!@	c #7F6B57",
"!A	c #80573A",
"!B	c #80593B",
"!C	c #806F5F",
"!D	c #807365",
"!E	c #81573B",
"!F	c #81694F",
"!G	c #817262",
"!H	c #817264",
"!I	c #817466",
"!J	c #81786D",
"!K	c #826748",
"!L	c #826F59",
"!M	c #826F60",
"!N	c #827466",
"!O	c #827567",
"!P	c #827568",
"!Q	c #837566",
"!R	c #837567",
"!S	c #83776B",
"!T	c #847567",
"!U	c #855C40",
"!V	c #85725C",
"!W	c #857562",
"!X	c #866D54",
"!Y	c #86765F",
"!Z	c #867C6E",
"![	c #875E40",
"!]	c #876B4A",
"!^	c #876B4B",
"!_	c #877053",
"!`	c #87705A",
"!a	c #87796C",
"!b	c #877C70",
"!c	c #887153",
"!d	c #887766",
"!e	c #89765E",
"!f	c #897D6F",
"!g	c #897E71",
"!h	c #8A7156",
"!i	c #8A7255",
"!j	c #8B7355",
"!k	c #8B7460",
"!l	c #8B755F",
"!m	c #8B7D6A",
"!n	c #8C7562",
"!o	c #8C7659",
"!p	c #8C7661",
"!q	c #8D8070",
"!r	c #8D8377",
"!s	c #8E694E",
"!t	c #8E6C4F",
"!u	c #8E7F6F",
"!v	c #8E8071",
"!w	c #8F6646",
"!x	c #906748",
"!y	c #906749",
"!z	c #906849",
"!{	c #90684A",
"!|	c #906D4C",
"!}	c #907D66",
"!~	c #908274",
"# 	c #916A46",
"#!	c #916B4E",
"##	c #916C4F",
"#$	c #917B68",
"#%	c #91816B",
"#&	c #926946",
"#'	c #926A4A",
"#(	c #926B4E",
"#)	c #926C4E",
"#*	c #926D4F",
"#+	c #927154",
"#,	c #936C4E",
"#-	c #936C50",
"#.	c #936E50",
"#/	c #946E50",
"#0	c #947C5E",
"#1	c #947D60",
"#2	c #948675",
"#3	c #94897E",
"#4	c #948E84",
"#5	c #956D4B",
"#6	c #956E4F",
"#7	c #956F51",
"#8	c #957E62",
"#9	c #958D83",
"#:	c #966942",
"#;	c #968165",
"#<	c #968574",
"#=	c #96887A",
"#>	c #968E84",
"#?	c #969189",
"#@	c #976D4C",
"#A	c #976E4E",
"#B	c #977250",
"#C	c #977E61",
"#D	c #977F60",
"#E	c #977F64",
"#F	c #97826F",
"#G	c #978372",
"#H	c #97846D",
"#I	c #978574",
"#J	c #978776",
"#K	c #978879",
"#L	c #97887A",
"#M	c #97897A",
"#N	c #978B7E",
"#O	c #986F4C",
"#P	c #987151",
"#Q	c #987250",
"#R	c #987353",
"#S	c #988060",
"#T	c #988161",
"#U	c #989288",
"#V	c #997453",
"#W	c #997654",
"#X	c #997655",
"#Y	c #997F61",
"#Z	c #998169",
"#[	c #99826E",
"#]	c #99866E",
"#^	c #998A7C",
"#_	c #9A6E4C",
"#`	c #9A714E",
"#a	c #9A7253",
"#b	c #9A7453",
"#c	c #9A7455",
"#d	c #9A7E63",
"#e	c #9A8268",
"#f	c #9B6C44",
"#g	c #9B704B",
"#h	c #9B704D",
"#i	c #9B754F",
"#j	c #9B7554",
"#k	c #9B7F68",
"#l	c #9B8169",
"#m	c #9B8567",
"#n	c #9B8D7A",
"#o	c #9C724E",
"#p	c #9C734D",
"#q	c #9C7554",
"#r	c #9C7655",
"#s	c #9C795C",
"#t	c #9C8065",
"#u	c #9C8774",
"#v	c #9D724C",
"#w	c #9D7550",
"#x	c #9D7554",
"#y	c #9D7756",
"#z	c #9D7F62",
"#{	c #9D846E",
"#|	c #9D8874",
"#}	c #9D8B76",
"#~	c #9E7552",
"$ 	c #9E7553",
"$!	c #9E7B57",
"$#	c #9F6F44",
"$$	c #9F714D",
"$%	c #9F734D",
"$&	c #9F744E",
"$'	c #9F896B",
"$(	c #9F8E7F",
"$)	c #A0734C",
"$*	c #A0734D",
"$+	c #A0734E",
"$,	c #A07551",
"$-	c #A07651",
"$.	c #A07652",
"$/	c #A07958",
"$0	c #A0846B",
"$1	c #A08769",
"$2	c #A08F7E",
"$3	c #A08F82",
"$4	c #A09080",
"$5	c #A09081",
"$6	c #A1744D",
"$7	c #A1754F",
"$8	c #A17A59",
"$9	c #A18773",
"$:	c #A18774",
"$;	c #A18868",
"$<	c #A18A68",
"$=	c #A18D74",
"$>	c #A18D79",
"$?	c #A19282",
"$@	c #A1988D",
"$A	c #A27752",
"$B	c #A27F5D",
"$C	c #A28162",
"$D	c #A28771",
"$E	c #A28968",
"$F	c #A28A73",
"$G	c #A28B70",
"$H	c #A28D78",
"$I	c #A29584",
"$J	c #A29B90",
"$K	c #A37957",
"$L	c #A37B56",
"$M	c #A37C58",
"$N	c #A37F59",
"$O	c #A38063",
"$P	c #A38A74",
"$Q	c #A38C6C",
"$R	c #A39382",
"$S	c #A39384",
"$T	c #A39485",
"$U	c #A39589",
"$V	c #A39B90",
"$W	c #A47853",
"$X	c #A47953",
"$Y	c #A47B56",
"$Z	c #A47D59",
"$[	c #A47F59",
"$]	c #A47F5A",
"$^	c #A48466",
"$_	c #A48C75",
"$`	c #A4978B",
"$a	c #A57A55",
"$b	c #A57D5B",
"$c	c #A57F5B",
"$d	c #A58265",
"$e	c #A58566",
"$f	c #A58B76",
"$g	c #A59483",
"$h	c #A5958A",
"$i	c #A59888",
"$j	c #A5988B",
"$k	c #A59A8F",
"$l	c #A67A54",
"$m	c #A67D59",
"$n	c #A68C7B",
"$o	c #A69482",
"$p	c #A6998A",
"$q	c #A77D53",
"$r	c #A77E58",
"$s	c #A77F5A",
"$t	c #A7825E",
"$u	c #A78460",
"$v	c #A78A70",
"$w	c #A78C74",
"$x	c #A79B8F",
"$y	c #A87F59",
"$z	c #A88464",
"${	c #A88767",
"$|	c #A88D74",
"$}	c #A89680",
"$~	c #A89A8E",
"% 	c #A8A093",
"%!	c #A9805A",
"%#	c #A98361",
"%$	c #A98460",
"%%	c #A98561",
"%&	c #A98662",
"%'	c #A98865",
"%(	c #A98A69",
"%)	c #A98B6C",
"%*	c #A99685",
"%+	c #A9977E",
"%,	c #A99A85",
"%-	c #A99A88",
"%.	c #AA815B",
"%/	c #AA8360",
"%0	c #AA9B8B",
"%1	c #AA9C8A",
"%2	c #AB7E53",
"%3	c #AB7F55",
"%4	c #AB815A",
"%5	c #AB8663",
"%6	c #AB8A67",
"%7	c #AB8C6E",
"%8	c #AB937C",
"%9	c #AB9D8F",
"%:	c #AC8664",
"%;	c #AC8968",
"%<	c #AC8B66",
"%=	c #AC9C8E",
"%>	c #AC9D8D",
"%?	c #AD8052",
"%@	c #AD8C67",
"%A	c #AD8C69",
"%B	c #AD9F8D",
"%C	c #AE7F52",
"%D	c #AE8356",
"%E	c #AE8558",
"%F	c #AE8664",
"%G	c #AE8C65",
"%H	c #AE8D69",
"%I	c #AE9B89",
"%J	c #AE9D82",
"%K	c #AF8052",
"%L	c #AF8259",
"%M	c #AF8355",
"%N	c #AF8B64",
"%O	c #AF8B65",
"%P	c #AF8C65",
"%Q	c #AF8D6B",
"%R	c #AF9987",
"%S	c #B08051",
"%T	c #B08E6B",
"%U	c #B0A085",
"%V	c #B18153",
"%W	c #B1A596",
"%X	c #B28356",
"%Y	c #B28358",
"%Z	c #B29578",
"%[	c #B2A288",
"%]	c #B2A59A",
"%^	c #B2A89B",
"%_	c #B38557",
"%`	c #B3A491",
"%a	c #B48D64",
"%b	c #B4916E",
"%c	c #B49C85",
"%d	c #B49D89",
"%e	c #B5946E",
"%f	c #B5ADA3",
"%g	c #B6A99C",
"%h	c #B7A699",
"%i	c #B7AA95",
"%j	c #B7ABA3",
"%k	c #B7AC9C",
"%l	c #B88C5F",
"%m	c #B89268",
"%n	c #B8997D",
"%o	c #B89C83",
"%p	c #B8A192",
"%q	c #B8A490",
"%r	c #B9986E",
"%s	c #B9B1A8",
"%t	c #BA9569",
"%u	c #BA966F",
"%v	c #BA9870",
"%w	c #BA9F80",
"%x	c #BAA38D",
"%y	c #BAA48E",
"%z	c #BB9D79",
"%{	c #BBA58F",
"%|	c #BBAA99",
"%}	c #BC9B74",
"%~	c #BC9C75",
"& 	c #BCAB99",
"&!	c #BD9869",
"&#	c #BE996E",
"&$	c #BE9C74",
"&%	c #BE9D75",
"&&	c #BEA78E",
"&'	c #BEA99D",
"&(	c #BEB09C",
"&)	c #BFA385",
"&*	c #BFA588",
"&+	c #BFAA94",
"&,	c #BFB6AA",
"&-	c #C0A582",
"&.	c #C0AF9F",
"&/	c #C0B4A7",
"&0	c #C19C6E",
"&1	c #C1A585",
"&2	c #C1A887",
"&3	c #C1AB93",
"&4	c #C1B3A5",
"&5	c #C29D6F",
"&6	c #C29E70",
"&7	c #C29E76",
"&8	c #C2A67C",
"&9	c #C2A993",
"&:	c #C2B0A2",
"&;	c #C3A98B",
"&<	c #C3AC99",
"&=	c #C4AA86",
"&>	c #C4AF99",
"&?	c #C5A37E",
"&@	c #C5A87E",
"&A	c #C5A87F",
"&B	c #C5AA8B",
"&C	c #C5AD8B",
"&D	c #C5AE97",
"&E	c #C5B5A8",
"&F	c #C7AC80",
"&G	c #C7AC81",
"&H	c #C7AE8B",
"&I	c #C7B6A9",
"&J	c #C8AB80",
"&K	c #C8AD82",
"&L	c #C8AF8C",
"&M	c #C8B7A8",
"&N	c #C8B8A9",
"&O	c #C8C0B8",
"&P	c #C9AA87",
"&Q	c #C9AB88",
"&R	c #C9B18F",
"&S	c #C9B5A0",
"&T	c #CAAC88",
"&U	c #CAAE83",
"&V	c #CAAE84",
"&W	c #CAAF85",
"&X	c #CAB085",
"&Y	c #CAB086",
"&Z	c #CAB49E",
"&[	c #CAB7A0",
"&]	c #CABAAA",
"&^	c #CBAF84",
"&_	c #CBB086",
"&`	c #CBB186",
"&a	c #CBBEB1",
"&b	c #CCAD87",
"&c	c #CCB8A7",
"&d	c #CCBCAC",
"&e	c #CCBEB0",
"&f	c #CCC6BE",
"&g	c #CDB089",
"&h	c #CDB698",
"&i	c #CDB89E",
"&j	c #CDBCA6",
"&k	c #CDBDAA",
"&l	c #CDBEB0",
"&m	c #CFBFB0",
"&n	c #D0B18F",
"&o	c #D0B79B",
"&p	c #D0C0AC",
"&q	c #D2B593",
"&r	c #D3C5B7",
"&s	c #D4C8B6",
"&t	c #D5C5AF",
"&u	c #D5CDCC",
"&v	c #D6C5AF",
"&w	c #D6D1CA",
"&x	c #DACDC1",
"&y	c #DCD2C9",
"&z	c #DDD7D7",
"&{	c #E1DCDA",
"&|	c #E1DFDD",
"&c&3$z%#%/%$%%%5%&$t$c$8#y#j#R#V#R#B#Q#b#q#X&)&t",
"$0%)$s%.%4%!$y$m$K#a#7#/#.#*###!#)#(#,#6#A#P%n%R",
"#s#-![#&#g#v#p#o#o#h#O#@#5#'!z!y!y!y!{!z!w!x%o&+",
" N < & , 7 = I H ? G A > @ E E F ? : ; 6 1 5 e!>",
" P T S Q J K j!+ X I . # $ ' ( ( + * %   ! 8 O M",
"$]$]$[$N#W#+$|%c$w!s!U!B!E!A!9!4!8!5!2 {!:$v%:#f",
"%N%P%O%G$u#z%d%I#I#G#|#|#u#F#$!n!k!l!p!`#Z&Z%b$#",
"%T%Q%A%H%@#t%p$3!<!H!R!R!Q!T!O!P!N!I!D ~!&&>%(#:",
"${%;%<%6%'#d&'$h!7!'!)!(!  ~!%!%!/!%!0 }!G&S#l R",
"%Z%w&*&&%y%q&N%|%*$g$R$2$4$I$T$i$p$j$U%9&4&m& $>",
"%a%m%u&$&%%v%t&!&0&6&5&#%e%x&r&a&e&l&d&k&j&[&i&h",
"$r$a$A$X$W$,$.$l%3%D%M%2#i$n&y%{&-&A&@&F&G&K&U&V",
"$Y$L$M$Z$b$/#r#x$ #~#w#`!|%h&{&;&8&J&^&_&Y&`&X&W",
"$d$O$C$^$e%7&<&]&M&I&E&.&(&w&|&p&B&1&2&C&H&=&L&R",
"$S$5$($?$?%1&s&v&o&q&n&b&g&T&Q&P&?&7%}%r%z&x&D%~",
"#L#K#M#^#=!g%`%8%F%l%_%?%C%K%S%V%X%Y%L$q$!&z&9%E",
"!u!v!q!f!a!S%g$H#c$-$7$&$%$*$6$)$+$$#_# !t&u&:$B",
"!* r z!b#3$x&,%B#e#k$D$f$:$9$P$_$F#{#[#]$o&O&f&/",
"$V$@$k%^%k%i%[%U%J%+$}%0%j%s%f$J#>#9#4#U#?!r% %W",
"%>%-$=$G$Q$<$E$;$1$'#m#;%=%]$`!J d c b ] U L!Z%,",
"#n#H#0#D#T#S#Y#C#8#E#1!o#<$~#N s C 4 3 9 2 0!=#}",
"#2!}!_!c!j!j!i!i!h!X!F!?!V#J!~!1 h i o p [ a!m#%",
"!M!@ k v!.!-!! q ^ W Y x!L!d!W!,!K!^!]!6 t!e!Y n",
" y l f g ` m!3!C!; w u |!$!# V B D @ B / ) Z _ -"};
