/* XPM */
static char *19[] = {
"24 24 532 2",
"  	c #22190F",
" !	c #271C10",
" #	c #2C2116",
" $	c #2D2115",
" %	c #332718",
" &	c #352516",
" '	c #382A1B",
" (	c #392718",
" )	c #3A2B1C",
" *	c #3C2D20",
" +	c #3D2F21",
" ,	c #402F20",
" -	c #412F1E",
" .	c #412F1F",
" /	c #422F1D",
" 0	c #432F1E",
" 1	c #463323",
" 2	c #46372A",
" 3	c #473220",
" 4	c #493321",
" 5	c #4A3625",
" 6	c #4B3B2B",
" 7	c #4F3723",
" 8	c #544739",
" 9	c #563C27",
" :	c #57493B",
" ;	c #574A3D",
" <	c #593F2A",
" =	c #59412D",
" >	c #59412E",
" ?	c #594B3E",
" @	c #5A3D29",
" A	c #5C4831",
" B	c #5C4D3D",
" C	c #5C4E41",
" D	c #5C4F42",
" E	c #5E432E",
" F	c #5F442E",
" G	c #644B32",
" H	c #65442C",
" I	c #65452C",
" J	c #65452E",
" K	c #654833",
" L	c #654E3B",
" M	c #66452C",
" N	c #664830",
" O	c #664832",
" P	c #664933",
" Q	c #68472E",
" R	c #694932",
" S	c #694B31",
" T	c #6A492F",
" U	c #6A4C34",
" V	c #6A4E34",
" W	c #6A523A",
" X	c #6B492F",
" Y	c #6B4C33",
" Z	c #6B4E34",
" [	c #6B5D4D",
" ]	c #6C492E",
" ^	c #6C4B34",
" _	c #6C4C35",
" `	c #6C4E35",
" a	c #6C5038",
" b	c #6C503C",
" c	c #6D4B31",
" d	c #6D4B35",
" e	c #6D4C34",
" f	c #6D4F34",
" g	c #6D4F37",
" h	c #6D5138",
" i	c #6D5238",
" j	c #6D5841",
" k	c #6E4C33",
" l	c #6E4C34",
" m	c #6E4D36",
" n	c #6E4E34",
" o	c #6E4E36",
" p	c #6E543B",
" q	c #6F4B30",
" r	c #6F4C33",
" s	c #6F4D35",
" t	c #6F4F36",
" u	c #6F5035",
" v	c #6F5136",
" w	c #6F5941",
" x	c #705035",
" y	c #705037",
" z	c #705134",
" {	c #70563D",
" |	c #70573E",
" }	c #705C48",
" ~	c #715035",
"! 	c #715036",
"!!	c #715135",
"!#	c #715339",
"!$	c #71563D",
"!%	c #71563E",
"!&	c #716354",
"!'	c #725035",
"!(	c #72553C",
"!)	c #72563D",
"!*	c #725B43",
"!+	c #735034",
"!,	c #735238",
"!-	c #73543B",
"!.	c #735943",
"!/	c #735D48",
"!0	c #74604E",
"!1	c #74614D",
"!2	c #755436",
"!3	c #765F42",
"!4	c #765F46",
"!5	c #76634F",
"!6	c #775334",
"!7	c #775438",
"!8	c #775F42",
"!9	c #775F43",
"!:	c #776046",
"!;	c #776047",
"!<	c #785334",
"!=	c #785335",
"!>	c #785435",
"!?	c #785436",
"!@	c #785438",
"!A	c #785B3F",
"!B	c #785D41",
"!C	c #786A5A",
"!D	c #795334",
"!E	c #795636",
"!F	c #796246",
"!G	c #796248",
"!H	c #7A5C3E",
"!I	c #7B5738",
"!J	c #7C5638",
"!K	c #7C5739",
"!L	c #7C5939",
"!M	c #7C5F40",
"!N	c #7D6146",
"!O	c #7D6147",
"!P	c #7D634C",
"!Q	c #7D6E5E",
"!R	c #7E593D",
"!S	c #7E5B39",
"!T	c #7E6147",
"!U	c #7E6348",
"!V	c #7F5B3B",
"!W	c #7F6141",
"!X	c #7F6147",
"!Y	c #7F674D",
"!Z	c #805938",
"![	c #805A3D",
"!]	c #806349",
"!^	c #807262",
"!_	c #815838",
"!`	c #815937",
"!a	c #815A38",
"!b	c #815D3D",
"!c	c #815F40",
"!d	c #816045",
"!e	c #816B54",
"!f	c #82593A",
"!g	c #825A38",
"!h	c #825B3B",
"!i	c #825B3E",
"!j	c #825C3E",
"!k	c #825D3B",
"!l	c #825E3B",
"!m	c #835C3C",
"!n	c #835D3E",
"!o	c #847059",
"!p	c #847158",
"!q	c #85684C",
"!r	c #857058",
"!s	c #857765",
"!t	c #865F3D",
"!u	c #86623C",
"!v	c #86715B",
"!w	c #867765",
"!x	c #87603B",
"!y	c #87613C",
"!z	c #87735B",
"!{	c #877966",
"!|	c #88735C",
"!}	c #88745C",
"!~	c #895E3E",
"# 	c #896D4E",
"#!	c #89735C",
"##	c #89755D",
"#$	c #897866",
"#%	c #8A5C38",
"#&	c #8A5D3B",
"#'	c #8A7256",
"#(	c #8A7258",
"#)	c #8A745A",
"#*	c #8A755D",
"#+	c #8B5B3B",
"#,	c #8B5C3B",
"#-	c #8B5C3C",
"#.	c #8B5D39",
"#/	c #8B5D3C",
"#0	c #8B5E3C",
"#1	c #8B6240",
"#2	c #8B7255",
"#3	c #8B7B6A",
"#4	c #8B7C6C",
"#5	c #8C5B39",
"#6	c #8C5C3A",
"#7	c #8C5C3B",
"#8	c #8C5E3C",
"#9	c #8C5F3C",
"#:	c #8C6444",
"#;	c #8C7B69",
"#<	c #8C7C6B",
"#=	c #8C7D6D",
"#>	c #8D6649",
"#?	c #8D725C",
"#@	c #8D7A66",
"#A	c #8D7E6D",
"#B	c #8E603D",
"#C	c #8E755E",
"#D	c #8E7759",
"#E	c #8E785F",
"#F	c #8E7E6D",
"#G	c #8F613F",
"#H	c #8F775F",
"#I	c #8F7860",
"#J	c #906540",
"#K	c #906745",
"#L	c #90795F",
"#M	c #908271",
"#N	c #91633F",
"#O	c #916440",
"#P	c #916543",
"#Q	c #916644",
"#R	c #917D69",
"#S	c #926442",
"#T	c #926444",
"#U	c #926541",
"#V	c #926542",
"#W	c #926544",
"#X	c #926643",
"#Y	c #926644",
"#Z	c #926645",
"#[	c #926740",
"#]	c #926742",
"#^	c #92795B",
"#_	c #936441",
"#`	c #936744",
"#a	c #937960",
"#b	c #937A5B",
"#c	c #93826E",
"#d	c #946341",
"#e	c #946746",
"#f	c #946A44",
"#g	c #946F4F",
"#h	c #947555",
"#i	c #956642",
"#j	c #956643",
"#k	c #956F50",
"#l	c #957A5A",
"#m	c #95816D",
"#n	c #966742",
"#o	c #966743",
"#p	c #966842",
"#q	c #966843",
"#r	c #966844",
"#s	c #966942",
"#t	c #966944",
"#u	c #966B42",
"#v	c #966C42",
"#w	c #96765A",
"#x	c #967A58",
"#y	c #967B5B",
"#z	c #967C62",
"#{	c #967E64",
"#|	c #96806A",
"#}	c #976742",
"#~	c #976843",
"$ 	c #976A43",
"$!	c #976C43",
"$#	c #977354",
"$$	c #977E65",
"$%	c #978066",
"$&	c #986944",
"$'	c #986C41",
"$(	c #986E51",
"$)	c #98704F",
"$*	c #98795C",
"$+	c #987B60",
"$,	c #987D5B",
"$-	c #996A44",
"$.	c #996C45",
"$/	c #996D42",
"$0	c #996D43",
"$1	c #996D4A",
"$2	c #99704D",
"$3	c #997458",
"$4	c #99805F",
"$5	c #99816A",
"$6	c #9A6C42",
"$7	c #9A6C44",
"$8	c #9A714D",
"$9	c #9A734F",
"$:	c #9A7454",
"$;	c #9A816A",
"$<	c #9A8570",
"$=	c #9B6A44",
"$>	c #9B6B44",
"$?	c #9B6C45",
"$@	c #9B6D42",
"$A	c #9B6E4B",
"$B	c #9B714C",
"$C	c #9B724E",
"$D	c #9B734D",
"$E	c #9B7351",
"$F	c #9B7556",
"$G	c #9B8672",
"$H	c #9C6B44",
"$I	c #9C6C42",
"$J	c #9C6E42",
"$K	c #9C7B5F",
"$L	c #9D6F46",
"$M	c #9D7045",
"$N	c #9D7957",
"$O	c #9E6F46",
"$P	c #9E7046",
"$Q	c #9E7147",
"$R	c #9E7148",
"$S	c #9E7249",
"$T	c #9E7554",
"$U	c #9E764F",
"$V	c #9E7650",
"$W	c #9E7A5B",
"$X	c #9E7B60",
"$Y	c #9E7C5E",
"$Z	c #9E7D57",
"$[	c #9E866F",
"$]	c #9E8869",
"$^	c #9E886E",
"$_	c #9F7046",
"$`	c #9F7145",
"$a	c #9F7146",
"$b	c #9F7246",
"$c	c #9F7247",
"$d	c #9F7348",
"$e	c #9F7349",
"$f	c #9F7351",
"$g	c #9F7C60",
"$h	c #A06F43",
"$i	c #A07246",
"$j	c #A07247",
"$k	c #A07348",
"$l	c #A07349",
"$m	c #A07A53",
"$n	c #A07A5C",
"$o	c #A07B5B",
"$p	c #A07B5D",
"$q	c #A07E59",
"$r	c #A0866F",
"$s	c #A0886A",
"$t	c #A0896C",
"$u	c #A1744A",
"$v	c #A1754A",
"$w	c #A1795B",
"$x	c #A17A5A",
"$y	c #A17B5E",
"$z	c #A17D57",
"${	c #A18869",
"$|	c #A18974",
"$}	c #A18B77",
"$~	c #A27549",
"% 	c #A27C5E",
"%!	c #A27E58",
"%#	c #A27F59",
"%$	c #A27F5C",
"%%	c #A28969",
"%&	c #A3754A",
"%'	c #A37A52",
"%(	c #A3896A",
"%)	c #A48A69",
"%*	c #A48B69",
"%+	c #A48C6D",
"%,	c #A57548",
"%-	c #A5774B",
"%.	c #A57A55",
"%/	c #A5815C",
"%0	c #A58262",
"%1	c #A6825F",
"%2	c #A69A88",
"%3	c #A77A57",
"%4	c #A77E57",
"%5	c #A87C56",
"%6	c #A87E56",
"%7	c #A97B55",
"%8	c #A97C55",
"%9	c #A97C56",
"%:	c #A97E56",
"%;	c #A99379",
"%<	c #A99478",
"%=	c #A99687",
"%>	c #AA7B56",
"%?	c #AA7C56",
"%@	c #AA7C59",
"%A	c #AA7E58",
"%B	c #AA805C",
"%C	c #AA8B69",
"%D	c #AA9380",
"%E	c #AA9478",
"%F	c #AA947D",
"%G	c #AB7D56",
"%H	c #AB7D58",
"%I	c #AB8058",
"%J	c #AB8868",
"%K	c #AB9479",
"%L	c #AB947B",
"%M	c #AB957B",
"%N	c #AB9885",
"%O	c #AC8059",
"%P	c #AC8156",
"%Q	c #AC8359",
"%R	c #AC9677",
"%S	c #AC9678",
"%T	c #AC9778",
"%U	c #AC9A86",
"%V	c #AD805B",
"%W	c #AD815C",
"%X	c #AD9A83",
"%Y	c #AE815C",
"%Z	c #AE825C",
"%[	c #AE9D8C",
"%]	c #AF815C",
"%^	c #AF825D",
"%_	c #AF855A",
"%`	c #AF8D6C",
"%a	c #AF9C89",
"%b	c #B0815C",
"%c	c #B0815D",
"%d	c #B0A08D",
"%e	c #B1825D",
"%f	c #B1855A",
"%g	c #B18659",
"%h	c #B1A08E",
"%i	c #B2885E",
"%j	c #B29E8D",
"%k	c #B2A599",
"%l	c #B3A598",
"%m	c #B48A5E",
"%n	c #B49171",
"%o	c #B4A394",
"%p	c #B5895C",
"%q	c #B58C5C",
"%r	c #B59373",
"%s	c #B5A596",
"%t	c #B69266",
"%u	c #B69A77",
"%v	c #B6A797",
"%w	c #B7895D",
"%x	c #B78B5E",
"%y	c #B7A89B",
"%z	c #B88A5E",
"%{	c #B88C5F",
"%|	c #B88E63",
"%}	c #B89065",
"%~	c #B8A99A",
"& 	c #B98D62",
"&!	c #B9997A",
"&#	c #B9AA9C",
"&$	c #BA9E7C",
"&%	c #BB9C76",
"&&	c #BC9262",
"&'	c #BC9B7E",
"&(	c #BCB1A7",
"&)	c #BD9566",
"&*	c #BD9C7F",
"&+	c #BE9465",
"&,	c #BE9467",
"&-	c #BE9C7B",
"&.	c #BE9E82",
"&/	c #BF9969",
"&0	c #BF9F7D",
"&1	c #BFA381",
"&2	c #C0976C",
"&3	c #C0A185",
"&4	c #C0A47D",
"&5	c #C19A6A",
"&6	c #C1A07A",
"&7	c #C1A07B",
"&8	c #C29B6C",
"&9	c #C2A37F",
"&:	c #C2AF94",
"&;	c #C3A881",
"&<	c #C49C6E",
"&=	c #C49D6E",
"&>	c #C4A580",
"&?	c #C4B29E",
"&@	c #C6A178",
"&A	c #C6AA83",
"&B	c #C6AB86",
"&C	c #C6AC84",
"&D	c #C6AD89",
"&E	c #C6AD8A",
"&F	c #C79B71",
"&G	c #C79E74",
"&H	c #C7A176",
"&I	c #C7AE89",
"&J	c #C8A379",
"&K	c #C8A57C",
"&L	c #C8AC85",
"&M	c #C8AF8B",
"&N	c #C8B08E",
"&O	c #C9A67B",
"&P	c #C9A77D",
"&Q	c #C9A87D",
"&R	c #C9A87E",
"&S	c #C9AE85",
"&T	c #C9AF85",
"&U	c #C9B6A2",
"&V	c #CAA87E",
"&W	c #CAAF86",
"&X	c #CAB290",
"&Y	c #CAB498",
"&Z	c #CBAE85",
"&[	c #CBB08B",
"&]	c #CBB28D",
"&^	c #CBB8A4",
"&_	c #CCBEB3",
"&`	c #CDBCAB",
"&a	c #CDBFAD",
"&b	c #CDC0C0",
"&c	c #D6CAC7",
"&d	c #D6CBBE",
"$($1$A$B$U%'$m$V$D$C$8$2$9$E$)#f#n#s$ #t#]#K!W!B",
"#:#Y#X#W#X#Q#Q#Z#`#Y#Y#W#P#P#S#S#V#U#U#_#d#T!c!A",
"#e#N#N#O#O#B#9#0#,#&#&#/#0#8#-#+#7#6#.#%#5#9!n!H",
" s l m o o d ^ _ l e k c T Q M I H H M ] q X S V",
" h p { |!%!$!$!)!)!(!-!# v u!! ~ z f Z h W = 3 0",
"$6$Q$v$u$l$e$S$d$c$R$R$L$?$&#n#o#n#j#i#G!f!' 9 4",
"$h%,%-%&$~$k$j$b$`$P$P$_$O$7#p#q#r#~#}#n#G!~ r @",
"$I$`$i$a$M$0$!#v$'$/$J$@#u#[#J#p$-$=$>$H$.#1 J 7",
"!m!y!x!t!b!V!S!k!l!L!2 x ` n!+!?!I!K!7!  Y F / &",
"$<#|$5$[$}%=%j%D$|$r$;$$#{#z#a#C#H#L#I#E#(!; 5 (",
"&X&]&[&B&1&:&c&U&6&@&O&V&R&Q&P&P&K&J&H&G&F&2 i .",
"&Z&W&L&;&%%u&b&^&/&)&5&<&=&8&,%}%|& %{%z%w%i G ,",
"&T&S&C&A&4&$&_&`%t%q&&&+&+%m%6%4%:%P%f%p%x& !M -",
"&N&M&I&D&E&Y&a&d&?%C%1%/%$#h!q!]!X!X!T!U!N!O A )",
"&7&>&9&0&-&'&*&.&3&!%r%n%`%J%0$Y$X$g$K$*#w$+ L 2",
"%g%_%Q%I%A%5%7%8%G%O%Z%Y%V%W%]%^%^%]%b%e%c%B!d!.",
"$F#g#k$:$W$p$y% $n$o$x$w$T$f%.%9%?%>%?%H%@%3#> g",
"%h%N%U%d%v%~&#%~%s%o%a%[%y#?!R!i!j![!@!, y a 1 !",
"%F%K%M%L%;%<%E%S%T%R%+$%&(%l$G#m#R#@#$!w!{#M : %",
"$^$t$t$s${%%%(%)%*%*$4#'%k%X$Z$z%!%#$q$N$#$3 b +",
"#)#D#^#b#l#l#y$,$,#x# !Y%2$]!u!`!a!g!Z!_!_!h U *",
"!p!r#!###*!|!z!}!z!v!e!o#c#2!E!6!=!>!=!<!D!J < #",
" [!&!C!Q!^!s#3#A#=#4#<#F#;!P t R N O P K E > '  ",
" 8 ? D C ; B!/!:!9!3!8!9!F!G!4!* w j }!5!0!1 6 $"};
