/* XPM */
static char *_1c8daeddfa94285ae38d49e4c1822dfbrq2q9KhV5LXR7bG[] = {
/* columns rows colors chars-per-pixel */
"96 48 218 2 ",
"   c #060403",
".  c #0A0604",
"X  c #0D0806",
"o  c #0E0E0D",
"O  c #110B07",
"+  c #150C09",
"@  c #1A0F0D",
"#  c #100703",
"$  c #13110D",
"%  c #1C110D",
"&  c #161311",
"*  c #1E1412",
"=  c #1C1815",
"-  c #1D1A1B",
";  c #22150F",
":  c #241413",
">  c #281716",
",  c #261811",
"<  c #2C1B14",
"1  c #251E19",
"2  c #2E1A19",
"3  c #311F16",
"4  c #331E1C",
"5  c #26221D",
"6  c #2B231D",
"7  c #362117",
"8  c #36211E",
"9  c #3B241B",
"0  c #35291F",
"q  c #242322",
"w  c #2B2622",
"e  c #26292C",
"r  c #2B2C2A",
"t  c #282728",
"y  c #372120",
"u  c #3B2422",
"i  c #322C26",
"p  c #3C2A26",
"a  c #332E2A",
"s  c #3B2D28",
"d  c #3D332C",
"f  c #38312A",
"g  c #292C33",
"h  c #2E3132",
"j  c #323334",
"k  c #3C3632",
"l  c #3C3C3C",
"z  c #373638",
"x  c #442A1E",
"c  c #482C1F",
"v  c #412926",
"b  c #4A2E21",
"n  c #452D29",
"m  c #4A2F2A",
"M  c #402725",
"N  c #4E3122",
"B  c #44332C",
"V  c #4C332D",
"C  c #473B2F",
"Z  c #48382C",
"A  c #533324",
"S  c #583727",
"D  c #5A3827",
"F  c #51352F",
"G  c #5D3A29",
"H  c #423731",
"J  c #4F3530",
"K  c #433B33",
"L  c #4A3D34",
"P  c #433E3A",
"I  c #4B3F39",
"U  c #513731",
"Y  c #643E2C",
"T  c #3E413F",
"R  c #795E14",
"E  c #7F6214",
"W  c #46413A",
"Q  c #4D433A",
"!  c #4F4237",
"~  c #584535",
"^  c #52463C",
"/  c #5C4A3B",
"(  c #554638",
")  c #6A422E",
"_  c #6D4430",
"`  c #714631",
"'  c #754933",
"]  c #7B4D36",
"[  c #7F4F38",
"{  c #75503F",
"}  c #6B533E",
"|  c #3E3D40",
" . c #4B4643",
".. c #484746",
"X. c #544B43",
"o. c #514E4A",
"O. c #5A4C43",
"+. c #56514C",
"@. c #5B534C",
"#. c #545352",
"$. c #5C5653",
"%. c #5A5855",
"&. c #5C5C5C",
"*. c #4E504E",
"=. c #63554B",
"-. c #695548",
";. c #6C5B4D",
":. c #675446",
">. c #765240",
",. c #785241",
"<. c #755A47",
"1. c #645B54",
"2. c #6B5E54",
"3. c #645D59",
"4. c #635953",
"5. c #725F53",
"6. c #6C6156",
"7. c #66615D",
"8. c #6C645D",
"9. c #756154",
"0. c #7B6454",
"q. c #73665B",
"w. c #7A6558",
"e. c #75695E",
"r. c #7E6959",
"t. c #646363",
"y. c #6C6662",
"u. c #6C6966",
"i. c #6D6C6C",
"p. c #686769",
"a. c #736B64",
"s. c #7C6D61",
"d. c #746C67",
"f. c #75716C",
"g. c #7B736C",
"h. c #7E7064",
"j. c #757473",
"k. c #7B7673",
"l. c #7A7A7A",
"z. c #7A7976",
"x. c #6E7070",
"c. c #8A6B16",
"v. c #876816",
"b. c #917018",
"n. c #835139",
"m. c #8A563D",
"M. c #8E583F",
"N. c #826D5C",
"B. c #95755A",
"V. c #846F63",
"C. c #847263",
"Z. c #897769",
"A. c #897567",
"S. c #9D7D62",
"D. c #857C74",
"F. c #817F7E",
"G. c #877C74",
"H. c #907F71",
"J. c #A27F64",
"K. c #C89B21",
"L. c #8A827B",
"P. c #91867C",
"I. c #98877B",
"U. c #A18066",
"Y. c #A2846D",
"T. c #AD937C",
"R. c #B4947C",
"E. c #838282",
"W. c #8A8786",
"Q. c #938A82",
"!. c #9D8E82",
"~. c #9A918A",
"^. c #949596",
"/. c #A6988B",
"(. c #BC9983",
"). c #A59B95",
"_. c #A18F85",
"`. c #9FA09E",
"'. c #BEA28C",
"]. c #ACA49E",
"[. c #B6A79A",
"{. c #BFB198",
"}. c #A6A7A6",
"|. c #ACA9A8",
" X c #B4ACA3",
".X c #B7AEA8",
"XX c #BBB3AA",
"oX c #BCB9B5",
"OX c #B9B7B7",
"+X c #C6AD98",
"@X c #C5B39B",
"#X c #D2B39C",
"$X c #C1A089",
"%X c #CBB8A5",
"&X c #C9BDB4",
"*X c #C5BFB5",
"=X c #D6BAA2",
"-X c #CAC1B7",
";X c #D3C7B9",
":X c #DED3BC",
">X c #D8C1A7",
",X c #C0BFC0",
"<X c #BEC1C6",
"1X c #CEC8C3",
"2X c #CCCBCB",
"3X c #C4C8CC",
"4X c #D1CFCD",
"5X c #D7CBC2",
"6X c #D6D1CC",
"7X c #DBD2C8",
"8X c #D4D3D2",
"9X c #DBD6D2",
"0X c #DED8D3",
"qX c #DADADB",
"wX c #CFD1D1",
"eX c #E4DCD6",
"rX c #E4D9CD",
"tX c #E9E0DB",
/* pixels */
":.! O./ O.6.f.a.a.q.k.f.2.2.;.2.2.g.k.q.a.g.k.z.E.E.F.F.E.E.l.l.j.j.j.j.j.i.i.p.t.t.t.t.&.t.t.#.9 x 9 x x 7 x 9 7 x 9 x 7 x 7 7 9 9 7 7 9 7 x 7 x x 9 9 x 9 x 9 9 9 7 9 7 x x 9 x 9 7 7 7 9 9 9 ",
"^ S.>.<.S.R.1X*X{.6X1X&X@X&X&X&X@X-X1X6X9X6X6X9X4X2X4X4X9X8X2X1X1X4X8X8X8X2X2X2X2X3X,X}.l.E...l x G 9 9 G ] [ ' ' n.[ n.M.M.m.m.M.M.M.m.m.m.M.7 7 ` ' ' _ Y Y G A D Y G Y ) _ ) _ ` ' D 7 7 G 9 ",
"C <.-XqX/ <.!.).P.OX].!.!.).].).I.!. XoXoX X].OX|.).|.oXoXoXOX|.|.}.}.`.^.^.^.W.W.E.j.u.qX2Xo z 9 9 K.c.7 ) A Y ' ' ) Y [ [ ] [ ] ] ] [ ] ] 7 K.R 7 ) ' ` Y D D A N A b A ) _ ` ' ` ` 7 K.R 9 x ",
"^ } 3X^.0 d Q X.X.y.t.@.@.@.7.@.@.@.y.y.y.7.3.i.7.@.3.i.x.i.i.p.t.t.&.&.#.#.*.......l l 2Xj.o z x 9 c.b.9 ] G ` n.M.m.] M.M.M.M.M.M.M.M.m.m.7 E c.7 _ m.] _ ' m.m.' A b b G ) ) ) ` ] 9 E c.7 x ",
"X.N.1.k 6 X.@.@.1.u.j.u.y.1.8.1.y.u.j.y.y.y.j.l.j.d.y.i.j.j.j.j.j.j.i.i.t.t.&.&.%.#.#.z t.l - k 9 A % : + % % % % % % % % % % % % % % % % % % % % % % % % % % % % % % % % % % % % % % % 7 3 A x ",
"+.[.U H +.f t t r h j j j r r r h j j j t e j j j z z | l l j g h h g g r e e e e t l W.#.#.q k x Y 7 9 % . X + + + + + X X X + + % % % + + % % % + % + % + % % % % % % % % % % % X + < _ ) ) x ",
"X.[.;.@.z.>.>.>.>.>.{ { { { { { { >.>.>.>.>.>.>.>.>.,.>.>.>.>.>.,.,.,.,.,.,.>.>.>.>.>.qXl.i.q l N Y 7 7 % X X X X X + + + + + % % % % % % % + % % + + % % % % % + % + % % % % % + + X < ) G ) 9 ",
"^ T.-.X.g.F V V V V V m m m m m m m B m V V F F V V V V F V V V F F F U U F F U F U U qXj.i.q l 9 Y 3 3 % . . . . . . . . . . . . . . . . . . . . . . . . X . . . .   . . . . . X . X < ) G ) 9 ",
"X.[.-.I 8.y y y y y y 4 4 4 4 4 4 4 4 4 y y y y y y y y y y y y u u u u u u u u u u u 8Xy.u.q l 9 ` b 9 + . X . . . . . X X . . . . X . X . . . X X X . X X . . X X X . X . X X X X + < _ Y ) 9 ",
"@.*Xq.Q 8.u u u u u u u u u u u u y 8 u u u u u u u u u u u u u u u u u u u u u u u u 6Xy.i.t | x ] G S % . X . + + + . + + X X + + + . X + + + + X + . + + + + + + +   + + + + + + + , ) A A 9 ",
"$..Xq.Q 8.u y y y u u u u u u u u u y u u u u u u y y 8 y u u u y y y u u u u u y y y 1X8.3.t T x n.G D % . X X X X + . + X X . % + % . % % % % % % % . % % % , , % % . % % + + + + + , Y 9 9 9 ",
"! XXq.^ f.u u u u u u u u u u u u u u u u u u u u y 8 8 8 u u u y 8 y u u u u u y 8 4 ;X8.3.q k 9 ] A 9 + % ; % % + @ + + + O + % + % . + + % % , % % . % % % , % % % . % % % % + + + , Y x 9 9 ",
"Q XXa.X.F.u u u u u u u u u u u u u u u y y 8 y u u y y y u u u u u u u u u u u u u y ;X2.6.1 k 9 ` b b % < c 9 < < 3 < < < , < + + + . % % + + % % % . % % + % % + + . + % % % % + + , ` A A x ",
"Q [.q.@.L.u u u u u u u u u u u u u u u u y y u u M u u u u u u u u u u u u u u u M M %X=.8.1 d 9 ] A Y % < 9 , , < < < , % < 7 + X X . + % + + + + + . X % % % + X X . + + + + X + + < ] A b 9 ",
"Q /.6.+.l.u u u u u u u M u y u u u u u u u M M M M u u u u u u M u u u u u u u u u u ;Xa.d.1 k 7 ] Y S % < 9 < 3 9 < < 3 < 3 9 + . X . X + X + + + + . X X + + + X X . X X + X X + . < _ b Y 9 ",
"+.[.a.$.z.2 4 4 4 4 4 2 2 2 2 2 2 2 2 > > > > > > > 2 2 2 2 2 2 2 2 2 2 4 4 2 4 4 2 2 0Xg.f.5 K 7 Y A c + < x 9 9 9 3 3 3 7 7 9 . X . . . X X X X X . . X + X X X X + . . X X X . X X < ' Y ] x ",
"%.XXk.&.j.2 2 2 2 2 > > > > > > > > : % @ @ @ @ @ * > > > > > > > > > > > > > > > > : 0XD.f.q P 7 ) x A + < b x 9 9 9 9 7 9 7 x . . . . . . . X X . . . X X X X X X X . . X X X X X X , _ b Y 9 ",
"$.oXz.&.j.n n n n n n n n n n n n n n v p p p p p v n n n n n n n n v p p p p v v v p 0XD.g.q P 7 ] x A % 3 A c 9 9 9 x x 9 9 c X . X X X . . X X X X X ; + X X X . X . . X X   . . . , ) 9 x x ",
"+.XXz.&.j.U U U U U U U U U U U U U U U U U U U U U U U U U U U U U V V V V V V V V V 0XD.D.w P 9 ' 9 9 % 7 A c x x b N b x 9 N X . + + + + + + + + % ; + + . . X X X . . . .   . . . < ] A A 7 ",
"#..Xj.#.z.v v v u u u u v v u u u u u u u u u v v v v v v v v v v v v u u u u u u y 8 0XG.D.w K 9 ` x 9 % 9 G c b A A G A c x Y X . O X + + + + + + ; , + X . . . . . . . . . . . . . , n.S G 9 ",
"#. Xd.$.z.8 8 y y 8 4 8 y 8 4 4 4 4 4 4 4 4 4 8 y y y y y u u u y y y y 8 8 8 4 4 4 4 0XL.D.w K x ] Y A % 9 Y G A G G G G A A Y X . + + % % + + % % < < + . . . . . . . . . . . . . . , ] G Y 7 ",
"o.[.8.%.j.8 8 y u u u u y 8 8 8 8 8 4 4 4 4 4 4 8 8 8 8 8 u u u u u u u u u u 8 4 4 4 eXL.L.w H 9 M.] ] % c ' Y G Y ) ` ) ) G ' X X + % % % + % % : < < . . . . . . . . . . . . . . . < ] ) Y 7 ",
"#..Xy.#.j.y y u u u u u y 8 8 8 8 8 8 4 4 4 4 4 4 4 4 4 4 4 8 8 y u u u u u u y y y y eXP.L.i K 9 n.7 7 % b ' ) Y Y ) ' ' ` Y ] X X % % % % % ; % : < < . X . . . . . . . . . . . . . , 7 7 Y 7 ",
"o. Xy.#.j.u u u u u u y y 8 8 8 8 8 8 4 4 4 8 4 4 4 4 4 4 4 4 4 y u u u u u u u u u u tXQ.Q.t L 7 7 K.R % c ' ) G G ) ` _ _ G ' X X % % % % ; < < < < 3 O . . .   . X . X X X . .     % K.R 7 7 ",
"o. X8.o.u.y y y 8 8 8 8 8 8 4 4 4 8 8 8 8 8 y y y y y y y y y y y y y u u y y u u u u eX~.Q.5 B 9 7 E c.+ x ) D A A G Y Y G A ) X X % ; ; : < < 3 < < 7 X . X X X + + + + O X O . . . % E c.7 9 ",
"o.].3.o.u.8 8 y 8 8 8 8 y y 8 8 8 8 8 y y y y u u u u u u u u u y 8 8 8 y y y y u u u 7XQ.Z.1 B 9 n.7 7 + 9 G N N A A G G A N Y O X % : < < < 7 9 3 9 x X . X + + + X + X O O + . . . , 7 7 ) 9 ",
"o..Xy. .8.y y u u u u u u u 8 8 8 8 8 8 8 8 y y y y y y y y y y 8 4 4 4 8 8 y y y y y :XZ.C.6 W 7 ] ' ` + 7 A b b N A A A A N Y X X % < < 3 7 9 x 9 9 b O . X + + + + + O O O O .   . < Y D Y 7 ",
"o..Xu. .3.> 2 2 2 2 2 2 2 2 2 2 2 2 2 2 2 2 2 > > 2 > > : : : : : : : : : : : : : : : :XC.Z.6 Q x m.` _ % 3 A b c c c b A b c D X O ; 3 7 7 9 c N b x A O X X + + + X + + O O +   . . < _ G Y 7 ",
" ./.7. .$.: > > > > > > > > 2 2 2 2 2 2 2 2 > > > > > : @ % % % % % % % % % % @ @ @ @ >X0.Z.6 L x n.G b % < N c 9 9 x c c b 9 A X O ; 3 7 9 x N A A c D X X X X + + + + O O X . .     < _ ) Y 9 ",
"W /.7. .4.n n n n n n n n n B B B B B B B B n n n n n n v n p p p p p p p p p u y y u #X0.C.6 L 7 n.D A % < c x 9 3 9 x x x 7 b X X ; 3 7 9 x b A N x D O X X O + % % + + X X X . .   % ` ) Y x ",
"H ].7. .3.U V J U U U J J V V V J J J J J V V V U U U U U U J V V V V V V V V m n n n =Xr.0.6 L 9 n.D S % ; 9 9 3 7 9 9 9 9 7 c X X % < 3 7 9 x c x 9 A O . X O + O + + O X X X . . . , ` Y ) x ",
"B ).7. .3.u y y u u u u u y y u u u u u u y y y u u M v p u u u u y y y y y y 8 8 4 4 #Xw.<.w Q x n.D D % ; 7 3 3 < 7 x 7 < 7 b X X % < < 3 7 9 x 9 9 b O X X O + O + + X X O X . . . , _ Y Y 9 ",
"P _.3. .4.4 2 2 2 4 4 4 4 4 4 4 4 4 4 2 2 4 4 4 4 8 8 8 8 4 4 4 4 4 4 4 4 4 4 4 4 4 4 (.9.r.w Q N n.G D % ; < 7 < < 3 7 3 < 3 x X X % < < < 3 9 9 7 7 x O X X O O + + + O O O O . . . , ) Y Y 7 ",
"W I.4.I =.4 2 > 2 2 4 8 8 8 4 4 4 4 2 > 2 4 4 y 8 8 8 8 4 4 4 4 4 4 2 4 4 4 4 8 y u u R.-.N.w ^ x n.D G + % 3 < < , < 3 3 3 % x X X % , < < < 7 9 9 7 9 O X O + + + O + O O O @ . . X < ) Y Y 9 ",
"W I.$.Q $.4 2 2 4 4 4 8 8 8 4 4 4 2 2 4 4 4 4 8 8 8 4 8 4 2 2 > 2 4 4 4 8 8 8 4 4 8 4 (.-.N.1 L 7 n.D G % ; 7 < % % < 3 3 7 < 3 X X % : < < < 7 7 7 < 7 O X X + + + + + O O O O . . X < ) Y ) 9 ",
"W !.@.I @.4 4 4 4 4 4 4 4 4 4 4 4 2 4 4 4 4 4 4 4 4 4 8 4 2 > 2 2 4 4 4 4 4 4 4 2 2 2 $Xq.9.6 Z 9 n.G G % % 3 < + % < 3 < 7 < 9 X X % ; , , < < 3 3 < < X X X + + + O + + O O @ . . X , ' Y ) x ",
"H !.@.P @.4 4 4 4 4 4 4 4 4 4 4 4 4 2 2 2 4 4 4 4 8 8 8 8 4 4 4 4 2 4 2 2 2 2 2 4 4 4 R.w.<.6 L x n.) ) % % 7 : % < 3 7 3 3 3 x O X % % ; , , < < < , < O X X X + + + + O O X X X . . , ] ) ) 9 ",
"K P.@.W +.4 4 4 4 4 4 4 4 4 4 8 8 8 4 2 4 4 4 8 8 8 y 8 y 8 8 8 4 4 4 2 2 2 2 4 4 4 4 (.C.0.w Q 7 n.) ) % ; 7 ; ; 3 7 9 3 9 7 x X X + % ; ; : < , < , < X X X X + % % + + X X X X . . , n.' ' x ",
"H A.^ H X.8 8 8 4 4 4 4 4 8 8 y y y 8 4 4 8 8 8 8 8 8 8 8 8 4 4 4 4 4 4 4 4 4 4 4 4 4 +Xs.0.6 ^ x m._ _ % % < % % < 3 7 7 9 7 A X . + % % % ; , ; < ; 3 X . + X + X + O X X X X X . . % n.' ] x ",
"H C.^ d ^ : : : : * * : : : : : : : : : : : : : : : : : : : : * * % * : : : : : : : : %Xw.9.1 ! 7 m.) Y % + , < < < 7 9 x 7 9 b + . O % % % % % % : , < X . X X + X X O X . . X X . . % ] ) ' 7 ",
"H V.^ d Q % % % % % % % % % % % % @ % % % % % % % % % % % % % % % % % % % % @ @ @ @ @ ;X5.9.w ^ 9 n.Y S % X % , : < < 7 9 9 < b O . + @ % + % % % ; ; < X . X X + X X O X X X . . X . , ' S ) 7 ",
"H A.^ H X.u u u u u y u p p p u u y u p p p u y u u u u u y u p s p u u u y 8 4 4 4 4 rXw.C.a ^ 9 [ G A % X % , % , 3 3 9 9 7 9 O . + + % % + % % ; ; , X . X X X X X X X X . . . X . , ` D ) 9 ",
"H C.p , Q n n n n n n n B V V B n n n V H V m n n n n n n n n B B B n n n v u u u u u -X:.e.a L 7 n.D A % O @ % + ; < 7 < 9 c c X . O + + + @ % % % ; < X . . . X X X X X X . . . . . < ] _ _ 7 ",
"d -.8.7.d A.T.T.Y.T.J.B.U.S.S.U.B.U.R.R.'.'.+X@X%X@X+X+X%X-X%X%X%X'.'.-X%X5X7X5XtXeX5XP.L.W.1 B 7 G , : + , , , < , < , , % , , < , , , , % , , , % , % % < % < , , < , , , , % % , % ; 7 < D 7 ",
"d ( wX<XL / :.~ ~ e.:.~ / / / / ~ -.a.e.2.;.5.e.9.9.w.h.Z.Z.s.V.G.s.-.0.Z.H.I.!.)./.Z.q.qX}.# B 7 9 K.R , D ' ] _ Y _ ` Y Y D Y ] n.] ] ] ] 7 K.R 7 ] [ [ n.' ] ] ' ) _ ` ] m.] ) ) ' 9 K.R 7 7 ",
"P ^ j.l w H H d s X.L C B d B B C Q X.X.X.^ ^ O.O.@.=.1.=.=.1.8.d.8.=.:.8.g.s.g.g.g.2.X.l.k % C 9 9 E v.% c _ ` D D Y Y A x b N G Y G G Y Y 7 E c.7 ) ` ' ) Y Y A Y Y A D Y ` ) Y A D < E c.9 9 ",
"K w     $ $ + + o + + & $ + + $ & + $ & & & $ + $ & & & & & = = = * = = = - = = = = * &   + 6 L 9 G x x Y m.M.M.m.M.m.M.m.m.m.m.m.m.m.M.M.m.m.7 7 M.M.m.M.m.M.M.m.M.M.M.M.m.m.M.m.] ] D 9 9 G x ",
"f w 5 q 5 5 1 1 1 w 6 6 1 1 1 1 6 6 w a f a i i i a a i i i k k f s d d d d d f f s s i 0 0 p p + % + % % % % % % % % % % % % % % % + % % % % + % % % % % % % % % % % % + % % % % % % % % % % % "
};
